<?xml version="1.0" encoding="UTF-8" standalone="no"?>
<!DOCTYPE svg PUBLIC "-//W3C//DTD SVG 1.1//EN"
 "http://www.w3.org/Graphics/SVG/1.1/DTD/svg11.dtd">
<!-- Generated by graphviz version 2.43.0 (0)
 -->
<!-- Title: ccf::indexing::strategies::SeqnosByKey_InMemory_Untyped Pages: 1 -->
<svg width="790pt" height="186pt"
 viewBox="0.00 0.00 790.00 186.00" xmlns="http://www.w3.org/2000/svg" xmlns:xlink="http://www.w3.org/1999/xlink">
<g id="graph0" class="graph" transform="scale(1 1) rotate(0) translate(4 182)">
<title>ccf::indexing::strategies::SeqnosByKey_InMemory_Untyped</title>
<!-- Node1 -->
<g id="node1" class="node">
<title>Node1</title>
<g id="a_node1"><a xlink:title=" ">
<polygon fill="#999999" stroke="#666666" points="782,-78 639,-78 639,-37 782,-37 782,-78"/>
<text text-anchor="start" x="647" y="-66" font-family="Helvetica,sans-Serif" font-size="10.00">ccf::indexing::strategies</text>
<text text-anchor="start" x="647" y="-55" font-family="Helvetica,sans-Serif" font-size="10.00">::SeqnosByKey_InMemory</text>
<text text-anchor="middle" x="710.5" y="-44" font-family="Helvetica,sans-Serif" font-size="10.00">_Untyped</text>
</a>
</g>
</g>
<!-- Node2 -->
<g id="node2" class="node">
<title>Node2</title>
<g id="a_node2"><a xlink:href="classccf_1_1indexing_1_1strategies_1_1VisitEachEntryInMap.html" target="_top" xlink:title=" ">
<polygon fill="white" stroke="#666666" points="511,-139.5 378,-139.5 378,-109.5 511,-109.5 511,-139.5"/>
<text text-anchor="start" x="386" y="-127.5" font-family="Helvetica,sans-Serif" font-size="10.00">ccf::indexing::strategies</text>
<text text-anchor="middle" x="444.5" y="-116.5" font-family="Helvetica,sans-Serif" font-size="10.00">::VisitEachEntryInMap</text>
</a>
</g>
</g>
<!-- Node2&#45;&gt;Node1 -->
<g id="edge1" class="edge">
<title>Node2&#45;&gt;Node1</title>
<path fill="none" stroke="#63b8ff" d="M514.76,-106.92C552.96,-97.23 600.29,-85.22 638.73,-75.46"/>
<polygon fill="#63b8ff" stroke="#63b8ff" points="513.58,-103.61 504.75,-109.46 515.3,-110.4 513.58,-103.61"/>
</g>
<!-- Node3 -->
<g id="node3" class="node">
<title>Node3</title>
<g id="a_node3"><a xlink:href="classccf_1_1indexing_1_1Strategy.html" target="_top" xlink:title=" ">
<polygon fill="white" stroke="#666666" points="266,-178 141,-178 141,-159 266,-159 266,-178"/>
<text text-anchor="middle" x="203.5" y="-166" font-family="Helvetica,sans-Serif" font-size="10.00">ccf::indexing::Strategy</text>
</a>
</g>
</g>
<!-- Node3&#45;&gt;Node2 -->
<g id="edge2" class="edge">
<title>Node3&#45;&gt;Node2</title>
<path fill="none" stroke="#63b8ff" d="M269.7,-157.23C293.71,-153.01 321.11,-148.12 346,-143.5 356.34,-141.58 367.29,-139.49 377.97,-137.43"/>
<polygon fill="#63b8ff" stroke="#63b8ff" points="268.89,-153.82 259.64,-158.99 270.1,-160.71 268.89,-153.82"/>
</g>
<!-- Node4 -->
<g id="node4" class="node">
<title>Node4</title>
<g id="a_node4"><a xlink:title=" ">
<polygon fill="white" stroke="#666666" points="236,-141 171,-141 171,-122 236,-122 236,-141"/>
<text text-anchor="middle" x="203.5" y="-129" font-family="Helvetica,sans-Serif" font-size="10.00">std::string</text>
</a>
</g>
</g>
<!-- Node4&#45;&gt;Node2 -->
<g id="edge3" class="edge">
<title>Node4&#45;&gt;Node2</title>
<path fill="none" stroke="#9a32cd" stroke-dasharray="5,2" d="M246.47,-130.27C282.76,-129.21 335.84,-127.65 377.77,-126.43"/>
<polygon fill="#9a32cd" stroke="#9a32cd" points="246.13,-126.78 236.24,-130.57 246.34,-133.78 246.13,-126.78"/>
<text text-anchor="middle" x="315" y="-131.5" font-family="Helvetica,sans-Serif" font-size="10.00"> map_name</text>
</g>
<!-- Node5 -->
<g id="node5" class="node">
<title>Node5</title>
<g id="a_node5"><a xlink:title=" ">
<polygon fill="white" stroke="#666666" points="104,-146.5 0,-146.5 0,-116.5 104,-116.5 104,-146.5"/>
<text text-anchor="start" x="8" y="-134.5" font-family="Helvetica,sans-Serif" font-size="10.00">std::basic_string&lt;</text>
<text text-anchor="middle" x="52" y="-123.5" font-family="Helvetica,sans-Serif" font-size="10.00"> Char &gt;</text>
</a>
</g>
</g>
<!-- Node5&#45;&gt;Node4 -->
<g id="edge4" class="edge">
<title>Node5&#45;&gt;Node4</title>
<path fill="none" stroke="#63b8ff" d="M114.08,-131.5C133.56,-131.5 154.34,-131.5 170.85,-131.5"/>
<polygon fill="#63b8ff" stroke="#63b8ff" points="114.03,-128 104.03,-131.5 114.03,-135 114.03,-128"/>
</g>
<!-- Node6 -->
<g id="node6" class="node">
<title>Node6</title>
<g id="a_node6"><a xlink:href="structccf_1_1TxID.html" target="_top" xlink:title=" ">
<polygon fill="white" stroke="#666666" points="233,-104 174,-104 174,-85 233,-85 233,-104"/>
<text text-anchor="middle" x="203.5" y="-92" font-family="Helvetica,sans-Serif" font-size="10.00">ccf::TxID</text>
</a>
</g>
</g>
<!-- Node6&#45;&gt;Node2 -->
<g id="edge5" class="edge">
<title>Node6&#45;&gt;Node2</title>
<path fill="none" stroke="#9a32cd" stroke-dasharray="5,2" d="M243.19,-99.01C271.64,-102.36 311.24,-107.09 346,-111.5 356.33,-112.81 367.28,-114.23 377.96,-115.64"/>
<polygon fill="#9a32cd" stroke="#9a32cd" points="243.58,-95.53 233.24,-97.84 242.76,-102.49 243.58,-95.53"/>
<text text-anchor="middle" x="315" y="-114.5" font-family="Helvetica,sans-Serif" font-size="10.00"> current_txid</text>
</g>
<!-- Node7 -->
<g id="node7" class="node">
<title>Node7</title>
<g id="a_node7"><a xlink:title=" ">
<polygon fill="white" stroke="#666666" points="525,-78 364,-78 364,-37 525,-37 525,-78"/>
<text text-anchor="start" x="372" y="-66" font-family="Helvetica,sans-Serif" font-size="10.00">std::unordered_map</text>
<text text-anchor="start" x="372" y="-55" font-family="Helvetica,sans-Serif" font-size="10.00">&lt; ccf::ByteVector, Contiguous</text>
<text text-anchor="middle" x="444.5" y="-44" font-family="Helvetica,sans-Serif" font-size="10.00">Set&lt; ccf::SeqNo &gt; &gt;</text>
</a>
</g>
</g>
<!-- Node7&#45;&gt;Node1 -->
<g id="edge6" class="edge">
<title>Node7&#45;&gt;Node1</title>
<path fill="none" stroke="#9a32cd" stroke-dasharray="5,2" d="M535.38,-57.5C569.08,-57.5 606.88,-57.5 638.62,-57.5"/>
<polygon fill="#9a32cd" stroke="#9a32cd" points="535.07,-54 525.07,-57.5 535.07,-61 535.07,-54"/>
<text text-anchor="middle" x="582" y="-60.5" font-family="Helvetica,sans-Serif" font-size="10.00"> seqnos_by_key</text>
</g>
<!-- Node8 -->
<g id="node8" class="node">
<title>Node8</title>
<g id="a_node8"><a xlink:href="classds_1_1ContiguousSet.html" target="_top" xlink:title=" ">
<polygon fill="white" stroke="#666666" points="260,-66.5 147,-66.5 147,-36.5 260,-36.5 260,-66.5"/>
<text text-anchor="start" x="155" y="-54.5" font-family="Helvetica,sans-Serif" font-size="10.00">ds::ContiguousSet&lt;</text>
<text text-anchor="middle" x="203.5" y="-43.5" font-family="Helvetica,sans-Serif" font-size="10.00"> ccf::SeqNo &gt;</text>
</a>
</g>
</g>
<!-- Node8&#45;&gt;Node7 -->
<g id="edge7" class="edge">
<title>Node8&#45;&gt;Node7</title>
<path fill="none" stroke="#9a32cd" stroke-dasharray="5,2" d="M270.6,-53.16C299.41,-53.88 333.43,-54.74 363.65,-55.5"/>
<polygon fill="#9a32cd" stroke="#9a32cd" points="270.32,-49.65 260.23,-52.9 270.14,-56.65 270.32,-49.65"/>
<text text-anchor="middle" x="315" y="-57.5" font-family="Helvetica,sans-Serif" font-size="10.00"> elements</text>
</g>
<!-- Node9 -->
<g id="node9" class="node">
<title>Node9</title>
<g id="a_node9"><a xlink:title=" ">
<polygon fill="white" stroke="#666666" points="479,-19 410,-19 410,0 479,0 479,-19"/>
<text text-anchor="middle" x="444.5" y="-7" font-family="Helvetica,sans-Serif" font-size="10.00">std::mutex</text>
</a>
</g>
</g>
<!-- Node9&#45;&gt;Node1 -->
<g id="edge8" class="edge">
<title>Node9&#45;&gt;Node1</title>
<path fill="none" stroke="#9a32cd" stroke-dasharray="5,2" d="M489.08,-17.42C529.74,-24.82 591.14,-35.98 638.82,-44.65"/>
<polygon fill="#9a32cd" stroke="#9a32cd" points="489.67,-13.97 479.2,-15.63 488.42,-20.86 489.67,-13.97"/>
<text text-anchor="middle" x="582" y="-43.5" font-family="Helvetica,sans-Serif" font-size="10.00"> lock</text>
</g>
</g>
</svg>
