<?xml version="1.0" encoding="UTF-8" standalone="no"?>
<!DOCTYPE svg PUBLIC "-//W3C//DTD SVG 1.1//EN"
 "http://www.w3.org/Graphics/SVG/1.1/DTD/svg11.dtd">
<!-- Generated by graphviz version 2.43.0 (0)
 -->
<!-- Title: include/ccf/service/tables/acme_certificates.h Pages: 1 -->
<svg width="1524pt" height="566pt"
 viewBox="0.00 0.00 1524.05 566.00" xmlns="http://www.w3.org/2000/svg" xmlns:xlink="http://www.w3.org/1999/xlink">
<g id="graph0" class="graph" transform="scale(1 1) rotate(0) translate(4 562)">
<title>include/ccf/service/tables/acme_certificates.h</title>
<!-- Node1 -->
<g id="node1" class="node">
<title>Node1</title>
<g id="a_node1"><a xlink:title=" ">
<polygon fill="#999999" stroke="#666666" points="426,-558 278,-558 278,-528 426,-528 426,-558"/>
<text text-anchor="start" x="286" y="-546" font-family="Helvetica,sans-Serif" font-size="10.00">include/ccf/service</text>
<text text-anchor="middle" x="352" y="-535" font-family="Helvetica,sans-Serif" font-size="10.00">/tables/acme_certificates.h</text>
</a>
</g>
</g>
<!-- Node2 -->
<g id="node2" class="node">
<title>Node2</title>
<g id="a_node2"><a xlink:href="pem_8h.html" target="_top" xlink:title=" ">
<polygon fill="white" stroke="#666666" points="210,-437 112,-437 112,-418 210,-418 210,-437"/>
<text text-anchor="middle" x="161" y="-425" font-family="Helvetica,sans-Serif" font-size="10.00">ccf/crypto/pem.h</text>
</a>
</g>
</g>
<!-- Node1&#45;&gt;Node2 -->
<g id="edge1" class="edge">
<title>Node1&#45;&gt;Node2</title>
<path fill="none" stroke="#63b8ff" d="M328.2,-527.85C291.48,-506.03 221.43,-464.41 184.75,-442.61"/>
<polygon fill="#63b8ff" stroke="#63b8ff" points="186.14,-439.37 175.76,-437.27 182.57,-445.39 186.14,-439.37"/>
</g>
<!-- Node3 -->
<g id="node3" class="node">
<title>Node3</title>
<g id="a_node3"><a xlink:href="json_8h.html" target="_top" xlink:title=" ">
<polygon fill="white" stroke="#666666" points="390.5,-382 313.5,-382 313.5,-363 390.5,-363 390.5,-382"/>
<text text-anchor="middle" x="352" y="-370" font-family="Helvetica,sans-Serif" font-size="10.00">ccf/ds/json.h</text>
</a>
</g>
</g>
<!-- Node1&#45;&gt;Node3 -->
<g id="edge26" class="edge">
<title>Node1&#45;&gt;Node3</title>
<path fill="none" stroke="#63b8ff" d="M352,-527.92C352,-497.65 352,-426.35 352,-392.27"/>
<polygon fill="#63b8ff" stroke="#63b8ff" points="355.5,-392.25 352,-382.25 348.5,-392.25 355.5,-392.25"/>
</g>
<!-- Node22 -->
<g id="node22" class="node">
<title>Node22</title>
<g id="a_node22"><a xlink:href="service_2map_8h.html" target="_top" xlink:title=" ">
<polygon fill="white" stroke="#666666" points="845.5,-492 742.5,-492 742.5,-473 845.5,-473 845.5,-492"/>
<text text-anchor="middle" x="794" y="-480" font-family="Helvetica,sans-Serif" font-size="10.00">ccf/service/map.h</text>
</a>
</g>
</g>
<!-- Node1&#45;&gt;Node22 -->
<g id="edge27" class="edge">
<title>Node1&#45;&gt;Node22</title>
<path fill="none" stroke="#63b8ff" d="M426.48,-532.14C512.48,-520.76 652.35,-502.25 732.46,-491.65"/>
<polygon fill="#63b8ff" stroke="#63b8ff" points="732.94,-495.11 742.4,-490.33 732.02,-488.17 732.94,-495.11"/>
</g>
<!-- Node2&#45;&gt;Node3 -->
<g id="edge2" class="edge">
<title>Node2&#45;&gt;Node3</title>
<path fill="none" stroke="#63b8ff" d="M191.69,-417.98C224.17,-408.97 275.6,-394.7 311.41,-384.76"/>
<polygon fill="#63b8ff" stroke="#63b8ff" points="312.37,-388.13 321.07,-382.08 310.5,-381.38 312.37,-388.13"/>
</g>
<!-- Node6 -->
<g id="node6" class="node">
<title>Node6</title>
<g id="a_node6"><a xlink:title=" ">
<polygon fill="#e0e0e0" stroke="#999999" points="236.5,-19 189.5,-19 189.5,0 236.5,0 236.5,-19"/>
<text text-anchor="middle" x="213" y="-7" font-family="Helvetica,sans-Serif" font-size="10.00">vector</text>
</a>
</g>
</g>
<!-- Node2&#45;&gt;Node6 -->
<g id="edge25" class="edge">
<title>Node2&#45;&gt;Node6</title>
<path fill="none" stroke="#63b8ff" d="M124.06,-417.92C76.53,-404.44 0,-373.36 0,-313 0,-313 0,-313 0,-118.5 0,-39.1 119.19,-18.06 179.25,-12.49"/>
<polygon fill="#63b8ff" stroke="#63b8ff" points="179.72,-15.97 189.39,-11.65 179.14,-8.99 179.72,-15.97"/>
</g>
<!-- Node12 -->
<g id="node12" class="node">
<title>Node12</title>
<g id="a_node12"><a xlink:title=" ">
<polygon fill="#e0e0e0" stroke="#999999" points="340.5,-189.5 267.5,-189.5 267.5,-170.5 340.5,-170.5 340.5,-189.5"/>
<text text-anchor="middle" x="304" y="-177.5" font-family="Helvetica,sans-Serif" font-size="10.00">string_view</text>
</a>
</g>
</g>
<!-- Node2&#45;&gt;Node12 -->
<g id="edge24" class="edge">
<title>Node2&#45;&gt;Node12</title>
<path fill="none" stroke="#63b8ff" d="M156.42,-417.6C141.78,-387.79 99.54,-290 143,-231 168.94,-195.78 219.46,-184.64 257.03,-181.47"/>
<polygon fill="#63b8ff" stroke="#63b8ff" points="257.51,-184.95 267.25,-180.78 257.03,-177.96 257.51,-184.95"/>
</g>
<!-- Node18 -->
<g id="node18" class="node">
<title>Node18</title>
<g id="a_node18"><a xlink:title=" ">
<polygon fill="#e0e0e0" stroke="#999999" points="212,-382 162,-382 162,-363 212,-363 212,-382"/>
<text text-anchor="middle" x="187" y="-370" font-family="Helvetica,sans-Serif" font-size="10.00">cstring</text>
</a>
</g>
</g>
<!-- Node2&#45;&gt;Node18 -->
<g id="edge20" class="edge">
<title>Node2&#45;&gt;Node18</title>
<path fill="none" stroke="#63b8ff" d="M165.29,-417.75C168.81,-410.57 173.91,-400.18 178.28,-391.27"/>
<polygon fill="#63b8ff" stroke="#63b8ff" points="181.52,-392.61 182.79,-382.09 175.24,-389.53 181.52,-392.61"/>
</g>
<!-- Node19 -->
<g id="node19" class="node">
<title>Node19</title>
<g id="a_node19"><a xlink:title=" ">
<polygon fill="#e0e0e0" stroke="#999999" points="295.5,-382 230.5,-382 230.5,-363 295.5,-363 295.5,-382"/>
<text text-anchor="middle" x="263" y="-370" font-family="Helvetica,sans-Serif" font-size="10.00">exception</text>
</a>
</g>
</g>
<!-- Node2&#45;&gt;Node19 -->
<g id="edge21" class="edge">
<title>Node2&#45;&gt;Node19</title>
<path fill="none" stroke="#63b8ff" d="M177.39,-417.98C193.57,-409.57 218.57,-396.59 237.38,-386.81"/>
<polygon fill="#63b8ff" stroke="#63b8ff" points="239.05,-389.89 246.31,-382.17 235.83,-383.68 239.05,-389.89"/>
</g>
<!-- Node20 -->
<g id="node20" class="node">
<title>Node20</title>
<g id="a_node20"><a xlink:title=" ">
<polygon fill="#e0e0e0" stroke="#999999" points="198,-129 140,-129 140,-110 198,-110 198,-129"/>
<text text-anchor="middle" x="169" y="-117" font-family="Helvetica,sans-Serif" font-size="10.00">memory</text>
</a>
</g>
</g>
<!-- Node2&#45;&gt;Node20 -->
<g id="edge22" class="edge">
<title>Node2&#45;&gt;Node20</title>
<path fill="none" stroke="#63b8ff" d="M112.15,-417.95C91.5,-411.65 69.38,-400.77 57,-382 52.35,-374.95 55.19,-371.25 57,-363 76.82,-272.81 133.57,-176.21 157.81,-137.73"/>
<polygon fill="#63b8ff" stroke="#63b8ff" points="160.8,-139.56 163.23,-129.25 154.9,-135.79 160.8,-139.56"/>
</g>
<!-- Node21 -->
<g id="node21" class="node">
<title>Node21</title>
<g id="a_node21"><a xlink:title=" ">
<polygon fill="#e0e0e0" stroke="#999999" points="106,-382 66,-382 66,-363 106,-363 106,-382"/>
<text text-anchor="middle" x="86" y="-370" font-family="Helvetica,sans-Serif" font-size="10.00">span</text>
</a>
</g>
</g>
<!-- Node2&#45;&gt;Node21 -->
<g id="edge23" class="edge">
<title>Node2&#45;&gt;Node21</title>
<path fill="none" stroke="#63b8ff" d="M148.95,-417.98C137.54,-409.92 120.17,-397.65 106.57,-388.03"/>
<polygon fill="#63b8ff" stroke="#63b8ff" points="108.46,-385.08 98.27,-382.17 104.42,-390.8 108.46,-385.08"/>
</g>
<!-- Node4 -->
<g id="node4" class="node">
<title>Node4</title>
<g id="a_node4"><a xlink:href="include_2ccf_2crypto_2base64_8h.html" target="_top" xlink:title=" ">
<polygon fill="white" stroke="#666666" points="264,-255.5 152,-255.5 152,-236.5 264,-236.5 264,-255.5"/>
<text text-anchor="middle" x="208" y="-243.5" font-family="Helvetica,sans-Serif" font-size="10.00">ccf/crypto/base64.h</text>
</a>
</g>
</g>
<!-- Node3&#45;&gt;Node4 -->
<g id="edge3" class="edge">
<title>Node3&#45;&gt;Node4</title>
<path fill="none" stroke="#63b8ff" d="M339.49,-362.67C327.34,-353.96 308.5,-340.07 293,-327 267.97,-305.89 240.68,-279.56 223.95,-263.01"/>
<polygon fill="#63b8ff" stroke="#63b8ff" points="226.2,-260.31 216.64,-255.74 221.26,-265.27 226.2,-260.31"/>
</g>
<!-- Node7 -->
<g id="node7" class="node">
<title>Node7</title>
<g id="a_node7"><a xlink:href="include_2ccf_2ds_2json__schema_8h.html" target="_top" xlink:title=" ">
<polygon fill="white" stroke="#666666" points="423.5,-321.5 302.5,-321.5 302.5,-302.5 423.5,-302.5 423.5,-321.5"/>
<text text-anchor="middle" x="363" y="-309.5" font-family="Helvetica,sans-Serif" font-size="10.00">ccf/ds/json_schema.h</text>
</a>
</g>
</g>
<!-- Node3&#45;&gt;Node7 -->
<g id="edge6" class="edge">
<title>Node3&#45;&gt;Node7</title>
<path fill="none" stroke="#63b8ff" d="M353.62,-362.87C355.17,-354.66 357.54,-342.04 359.51,-331.55"/>
<polygon fill="#63b8ff" stroke="#63b8ff" points="362.96,-332.14 361.37,-321.67 356.08,-330.85 362.96,-332.14"/>
</g>
<!-- Node15 -->
<g id="node15" class="node">
<title>Node15</title>
<g id="a_node15"><a xlink:title=" ">
<polygon fill="#e0e0e0" stroke="#999999" points="278.5,-74 199.5,-74 199.5,-55 278.5,-55 278.5,-74"/>
<text text-anchor="middle" x="239" y="-62" font-family="Helvetica,sans-Serif" font-size="10.00">fmt/format.h</text>
</a>
</g>
</g>
<!-- Node3&#45;&gt;Node15 -->
<g id="edge18" class="edge">
<title>Node3&#45;&gt;Node15</title>
<path fill="none" stroke="#63b8ff" d="M313.47,-363.13C266.36,-352.64 191.58,-335.07 181,-327 154.08,-306.48 153.21,-293.27 143,-261 122.69,-196.82 93.55,-165.94 131,-110 144.16,-90.35 167.75,-79.36 189.53,-73.23"/>
<polygon fill="#63b8ff" stroke="#63b8ff" points="190.53,-76.59 199.36,-70.74 188.81,-69.8 190.53,-76.59"/>
</g>
<!-- Node17 -->
<g id="node17" class="node">
<title>Node17</title>
<g id="a_node17"><a xlink:title=" ">
<polygon fill="#e0e0e0" stroke="#999999" points="246,-321.5 190,-321.5 190,-302.5 246,-302.5 246,-321.5"/>
<text text-anchor="middle" x="218" y="-309.5" font-family="Helvetica,sans-Serif" font-size="10.00">sstream</text>
</a>
</g>
</g>
<!-- Node3&#45;&gt;Node17 -->
<g id="edge19" class="edge">
<title>Node3&#45;&gt;Node17</title>
<path fill="none" stroke="#63b8ff" d="M332.52,-362.99C309.99,-353.16 272.69,-336.88 246.81,-325.58"/>
<polygon fill="#63b8ff" stroke="#63b8ff" points="248.07,-322.31 237.51,-321.52 245.27,-328.73 248.07,-322.31"/>
</g>
<!-- Node5 -->
<g id="node5" class="node">
<title>Node5</title>
<g id="a_node5"><a xlink:title=" ">
<polygon fill="#e0e0e0" stroke="#999999" points="738,-189.5 694,-189.5 694,-170.5 738,-170.5 738,-189.5"/>
<text text-anchor="middle" x="716" y="-177.5" font-family="Helvetica,sans-Serif" font-size="10.00">string</text>
</a>
</g>
</g>
<!-- Node4&#45;&gt;Node5 -->
<g id="edge4" class="edge">
<title>Node4&#45;&gt;Node5</title>
<path fill="none" stroke="#63b8ff" d="M264.24,-241.36C372.7,-233.98 606.94,-216.13 685,-195 686.69,-194.54 688.39,-194.01 690.1,-193.41"/>
<polygon fill="#63b8ff" stroke="#63b8ff" points="691.67,-196.55 699.63,-189.57 689.05,-190.06 691.67,-196.55"/>
</g>
<!-- Node4&#45;&gt;Node6 -->
<g id="edge5" class="edge">
<title>Node4&#45;&gt;Node6</title>
<path fill="none" stroke="#63b8ff" d="M196.71,-236.36C171.17,-215.7 112.59,-161.3 131,-110 143.56,-75 174.35,-43.53 194.42,-25.74"/>
<polygon fill="#63b8ff" stroke="#63b8ff" points="196.73,-28.37 202.03,-19.2 192.16,-23.06 196.73,-28.37"/>
</g>
<!-- Node8 -->
<g id="node8" class="node">
<title>Node8</title>
<g id="a_node8"><a xlink:href="nonstd_8h.html" target="_top" xlink:title=" ">
<polygon fill="white" stroke="#666666" points="526,-255.5 436,-255.5 436,-236.5 526,-236.5 526,-255.5"/>
<text text-anchor="middle" x="481" y="-243.5" font-family="Helvetica,sans-Serif" font-size="10.00">ccf/ds/nonstd.h</text>
</a>
</g>
</g>
<!-- Node7&#45;&gt;Node8 -->
<g id="edge7" class="edge">
<title>Node7&#45;&gt;Node8</title>
<path fill="none" stroke="#63b8ff" d="M378.91,-302.37C398.71,-291.63 432.73,-273.18 456.01,-260.55"/>
<polygon fill="#63b8ff" stroke="#63b8ff" points="457.84,-263.54 464.96,-255.7 454.5,-257.39 457.84,-263.54"/>
</g>
<!-- Node14 -->
<g id="node14" class="node">
<title>Node14</title>
<g id="a_node14"><a xlink:title=" ">
<polygon fill="#e0e0e0" stroke="#999999" points="1245,-189.5 1189,-189.5 1189,-170.5 1245,-170.5 1245,-189.5"/>
<text text-anchor="middle" x="1217" y="-177.5" font-family="Helvetica,sans-Serif" font-size="10.00">optional</text>
</a>
</g>
</g>
<!-- Node7&#45;&gt;Node14 -->
<g id="edge15" class="edge">
<title>Node7&#45;&gt;Node14</title>
<path fill="none" stroke="#63b8ff" d="M401,-302.49C411.34,-300.42 422.56,-298.41 433,-297 659.08,-266.57 720.49,-301.42 945,-261 1033.38,-245.09 1133.92,-211.23 1184.42,-193.08"/>
<polygon fill="#63b8ff" stroke="#63b8ff" points="1185.91,-196.26 1194.12,-189.57 1183.53,-189.68 1185.91,-196.26"/>
</g>
<!-- Node7&#45;&gt;Node15 -->
<g id="edge16" class="edge">
<title>Node7&#45;&gt;Node15</title>
<path fill="none" stroke="#63b8ff" d="M351.46,-302.27C329.19,-284.7 280.48,-242.66 258,-195 240.78,-158.48 238.31,-110.26 238.41,-84.18"/>
<polygon fill="#63b8ff" stroke="#63b8ff" points="241.91,-84.23 238.59,-74.17 234.91,-84.11 241.91,-84.23"/>
</g>
<!-- Node16 -->
<g id="node16" class="node">
<title>Node16</title>
<g id="a_node16"><a xlink:title=" ">
<polygon fill="#e0e0e0" stroke="#999999" points="692,-255.5 582,-255.5 582,-236.5 692,-236.5 692,-255.5"/>
<text text-anchor="middle" x="637" y="-243.5" font-family="Helvetica,sans-Serif" font-size="10.00">nlohmann/json.hpp</text>
</a>
</g>
</g>
<!-- Node7&#45;&gt;Node16 -->
<g id="edge17" class="edge">
<title>Node7&#45;&gt;Node16</title>
<path fill="none" stroke="#63b8ff" d="M399.67,-302.44C448.99,-290.92 536.71,-270.43 590.57,-257.84"/>
<polygon fill="#63b8ff" stroke="#63b8ff" points="591.61,-261.2 600.55,-255.51 590.01,-254.38 591.61,-261.2"/>
</g>
<!-- Node8&#45;&gt;Node5 -->
<g id="edge11" class="edge">
<title>Node8&#45;&gt;Node5</title>
<path fill="none" stroke="#63b8ff" d="M516.62,-236.45C572.93,-222.91 676.99,-197.77 685,-195 686.4,-194.52 687.81,-194 689.24,-193.45"/>
<polygon fill="#63b8ff" stroke="#63b8ff" points="690.65,-196.65 698.52,-189.57 687.95,-190.2 690.65,-196.65"/>
</g>
<!-- Node8&#45;&gt;Node6 -->
<g id="edge14" class="edge">
<title>Node8&#45;&gt;Node6</title>
<path fill="none" stroke="#63b8ff" d="M458.58,-236.37C438.57,-227.92 409.23,-213.61 388,-195 330.3,-144.43 343.47,-106.94 287,-55 273.33,-42.43 255.57,-31.61 240.87,-23.78"/>
<polygon fill="#63b8ff" stroke="#63b8ff" points="242.22,-20.54 231.73,-19.08 239.02,-26.77 242.22,-20.54"/>
</g>
<!-- Node9 -->
<g id="node9" class="node">
<title>Node9</title>
<g id="a_node9"><a xlink:title=" ">
<polygon fill="#e0e0e0" stroke="#999999" points="461,-189.5 397,-189.5 397,-170.5 461,-170.5 461,-189.5"/>
<text text-anchor="middle" x="429" y="-177.5" font-family="Helvetica,sans-Serif" font-size="10.00">algorithm</text>
</a>
</g>
</g>
<!-- Node8&#45;&gt;Node9 -->
<g id="edge8" class="edge">
<title>Node8&#45;&gt;Node9</title>
<path fill="none" stroke="#63b8ff" d="M473.99,-236.37C465.97,-226.5 452.65,-210.11 442.58,-197.72"/>
<polygon fill="#63b8ff" stroke="#63b8ff" points="445.26,-195.46 436.24,-189.91 439.83,-199.87 445.26,-195.46"/>
</g>
<!-- Node10 -->
<g id="node10" class="node">
<title>Node10</title>
<g id="a_node10"><a xlink:title=" ">
<polygon fill="#e0e0e0" stroke="#999999" points="521,-189.5 479,-189.5 479,-170.5 521,-170.5 521,-189.5"/>
<text text-anchor="middle" x="500" y="-177.5" font-family="Helvetica,sans-Serif" font-size="10.00">array</text>
</a>
</g>
</g>
<!-- Node8&#45;&gt;Node10 -->
<g id="edge9" class="edge">
<title>Node8&#45;&gt;Node10</title>
<path fill="none" stroke="#63b8ff" d="M483.56,-236.37C486.35,-226.97 490.89,-211.67 494.5,-199.53"/>
<polygon fill="#63b8ff" stroke="#63b8ff" points="497.87,-200.49 497.36,-189.91 491.15,-198.5 497.87,-200.49"/>
</g>
<!-- Node11 -->
<g id="node11" class="node">
<title>Node11</title>
<g id="a_node11"><a xlink:title=" ">
<polygon fill="#e0e0e0" stroke="#999999" points="588.5,-189.5 539.5,-189.5 539.5,-170.5 588.5,-170.5 588.5,-189.5"/>
<text text-anchor="middle" x="564" y="-177.5" font-family="Helvetica,sans-Serif" font-size="10.00">cctype</text>
</a>
</g>
</g>
<!-- Node8&#45;&gt;Node11 -->
<g id="edge10" class="edge">
<title>Node8&#45;&gt;Node11</title>
<path fill="none" stroke="#63b8ff" d="M492.19,-236.37C505.56,-226.06 528.15,-208.65 544.42,-196.09"/>
<polygon fill="#63b8ff" stroke="#63b8ff" points="546.94,-198.58 552.72,-189.7 542.66,-193.03 546.94,-198.58"/>
</g>
<!-- Node8&#45;&gt;Node12 -->
<g id="edge12" class="edge">
<title>Node8&#45;&gt;Node12</title>
<path fill="none" stroke="#63b8ff" d="M457.13,-236.37C426.3,-225.22 372.45,-205.75 337.52,-193.12"/>
<polygon fill="#63b8ff" stroke="#63b8ff" points="338.37,-189.71 327.77,-189.6 335.99,-196.29 338.37,-189.71"/>
</g>
<!-- Node13 -->
<g id="node13" class="node">
<title>Node13</title>
<g id="a_node13"><a xlink:title=" ">
<polygon fill="#e0e0e0" stroke="#999999" points="675.5,-189.5 606.5,-189.5 606.5,-170.5 675.5,-170.5 675.5,-189.5"/>
<text text-anchor="middle" x="641" y="-177.5" font-family="Helvetica,sans-Serif" font-size="10.00">type_traits</text>
</a>
</g>
</g>
<!-- Node8&#45;&gt;Node13 -->
<g id="edge13" class="edge">
<title>Node8&#45;&gt;Node13</title>
<path fill="none" stroke="#63b8ff" d="M502.58,-236.37C530.21,-225.32 578.29,-206.08 609.88,-193.45"/>
<polygon fill="#63b8ff" stroke="#63b8ff" points="611.52,-196.56 619.51,-189.6 608.92,-190.06 611.52,-196.56"/>
</g>
<!-- Node23 -->
<g id="node23" class="node">
<title>Node23</title>
<g id="a_node23"><a xlink:href="kv_2map_8h.html" target="_top" xlink:title=" ">
<polygon fill="white" stroke="#666666" points="1074,-437 994,-437 994,-418 1074,-418 1074,-437"/>
<text text-anchor="middle" x="1034" y="-425" font-family="Helvetica,sans-Serif" font-size="10.00">ccf/kv/map.h</text>
</a>
</g>
</g>
<!-- Node22&#45;&gt;Node23 -->
<g id="edge28" class="edge">
<title>Node22&#45;&gt;Node23</title>
<path fill="none" stroke="#63b8ff" d="M832.56,-472.98C874.07,-463.82 940.21,-449.21 985.29,-439.26"/>
<polygon fill="#63b8ff" stroke="#63b8ff" points="986.13,-442.66 995.14,-437.08 984.62,-435.82 986.13,-442.66"/>
</g>
<!-- Node43 -->
<g id="node43" class="node">
<title>Node43</title>
<g id="a_node43"><a xlink:href="set_8h.html" target="_top" xlink:title=" ">
<polygon fill="white" stroke="#666666" points="923.5,-382 850.5,-382 850.5,-363 923.5,-363 923.5,-382"/>
<text text-anchor="middle" x="887" y="-370" font-family="Helvetica,sans-Serif" font-size="10.00">ccf/kv/set.h</text>
</a>
</g>
</g>
<!-- Node22&#45;&gt;Node43 -->
<g id="edge70" class="edge">
<title>Node22&#45;&gt;Node43</title>
<path fill="none" stroke="#63b8ff" d="M801.61,-472.66C817.22,-454.54 853.06,-412.91 872.99,-389.77"/>
<polygon fill="#63b8ff" stroke="#63b8ff" points="875.67,-392.02 879.54,-382.16 870.37,-387.45 875.67,-392.02"/>
</g>
<!-- Node46 -->
<g id="node46" class="node">
<title>Node46</title>
<g id="a_node46"><a xlink:href="value_8h.html" target="_top" xlink:title=" ">
<polygon fill="white" stroke="#666666" points="793.5,-382 708.5,-382 708.5,-363 793.5,-363 793.5,-382"/>
<text text-anchor="middle" x="751" y="-370" font-family="Helvetica,sans-Serif" font-size="10.00">ccf/kv/value.h</text>
</a>
</g>
</g>
<!-- Node22&#45;&gt;Node46 -->
<g id="edge80" class="edge">
<title>Node22&#45;&gt;Node46</title>
<path fill="none" stroke="#63b8ff" d="M790.48,-472.66C783.45,-455.01 767.56,-415.09 758.22,-391.64"/>
<polygon fill="#63b8ff" stroke="#63b8ff" points="761.4,-390.15 754.45,-382.16 754.89,-392.74 761.4,-390.15"/>
</g>
<!-- Node24 -->
<g id="node24" class="node">
<title>Node24</title>
<g id="a_node24"><a xlink:href="get__name_8h.html" target="_top" xlink:title=" ">
<polygon fill="white" stroke="#666666" points="548.5,-321.5 441.5,-321.5 441.5,-302.5 548.5,-302.5 548.5,-321.5"/>
<text text-anchor="middle" x="495" y="-309.5" font-family="Helvetica,sans-Serif" font-size="10.00">ccf/kv/get_name.h</text>
</a>
</g>
</g>
<!-- Node23&#45;&gt;Node24 -->
<g id="edge29" class="edge">
<title>Node23&#45;&gt;Node24</title>
<path fill="none" stroke="#63b8ff" d="M993.77,-425.13C925.25,-422.04 781.99,-412.22 665,-382 612.18,-368.35 553.94,-342.08 521.18,-326.19"/>
<polygon fill="#63b8ff" stroke="#63b8ff" points="522.38,-322.88 511.86,-321.61 519.29,-329.16 522.38,-322.88"/>
</g>
<!-- Node25 -->
<g id="node25" class="node">
<title>Node25</title>
<g id="a_node25"><a xlink:href="include_2ccf_2kv_2hooks_8h.html" target="_top" xlink:title=" ">
<polygon fill="white" stroke="#666666" points="1094.5,-189.5 1007.5,-189.5 1007.5,-170.5 1094.5,-170.5 1094.5,-189.5"/>
<text text-anchor="middle" x="1051" y="-177.5" font-family="Helvetica,sans-Serif" font-size="10.00">ccf/kv/hooks.h</text>
</a>
</g>
</g>
<!-- Node23&#45;&gt;Node25 -->
<g id="edge31" class="edge">
<title>Node23&#45;&gt;Node25</title>
<path fill="none" stroke="#63b8ff" d="M1045.1,-417.84C1064.18,-402.16 1102.52,-366.97 1117,-327 1121.54,-314.46 1120.41,-309.89 1117,-297 1116.29,-294.31 1079.47,-230.32 1061.14,-198.56"/>
<polygon fill="#63b8ff" stroke="#63b8ff" points="1064.14,-196.75 1056.11,-189.84 1058.08,-200.25 1064.14,-196.75"/>
</g>
<!-- Node28 -->
<g id="node28" class="node">
<title>Node28</title>
<g id="a_node28"><a xlink:href="map__diff_8h.html" target="_top" xlink:title=" ">
<polygon fill="white" stroke="#666666" points="1450.5,-382 1349.5,-382 1349.5,-363 1450.5,-363 1450.5,-382"/>
<text text-anchor="middle" x="1400" y="-370" font-family="Helvetica,sans-Serif" font-size="10.00">ccf/kv/map_diff.h</text>
</a>
</g>
</g>
<!-- Node23&#45;&gt;Node28 -->
<g id="edge35" class="edge">
<title>Node23&#45;&gt;Node28</title>
<path fill="none" stroke="#63b8ff" d="M1074.22,-420.68C1138.24,-411.41 1263.77,-393.23 1338.94,-382.34"/>
<polygon fill="#63b8ff" stroke="#63b8ff" points="1339.8,-385.75 1349.2,-380.86 1338.8,-378.83 1339.8,-385.75"/>
</g>
<!-- Node37 -->
<g id="node37" class="node">
<title>Node37</title>
<g id="a_node37"><a xlink:href="untyped_8h.html" target="_top" xlink:title=" ">
<polygon fill="white" stroke="#666666" points="1338,-255.5 1240,-255.5 1240,-236.5 1338,-236.5 1338,-255.5"/>
<text text-anchor="middle" x="1289" y="-243.5" font-family="Helvetica,sans-Serif" font-size="10.00">ccf/kv/untyped.h</text>
</a>
</g>
</g>
<!-- Node23&#45;&gt;Node37 -->
<g id="edge69" class="edge">
<title>Node23&#45;&gt;Node37</title>
<path fill="none" stroke="#63b8ff" d="M1074.16,-425.83C1141.04,-423.78 1270.68,-415.48 1299,-382 1327,-348.91 1309.46,-293.43 1297.47,-264.99"/>
<polygon fill="#63b8ff" stroke="#63b8ff" points="1300.52,-263.23 1293.25,-255.52 1294.12,-266.08 1300.52,-263.23"/>
</g>
<!-- Node39 -->
<g id="node39" class="node">
<title>Node39</title>
<g id="a_node39"><a xlink:href="map__handle_8h.html" target="_top" xlink:title=" ">
<polygon fill="white" stroke="#666666" points="1290,-382 1172,-382 1172,-363 1290,-363 1290,-382"/>
<text text-anchor="middle" x="1231" y="-370" font-family="Helvetica,sans-Serif" font-size="10.00">ccf/kv/map_handle.h</text>
</a>
</g>
</g>
<!-- Node23&#45;&gt;Node39 -->
<g id="edge55" class="edge">
<title>Node23&#45;&gt;Node39</title>
<path fill="none" stroke="#63b8ff" d="M1065.65,-417.98C1099.16,-408.97 1152.2,-394.7 1189.14,-384.76"/>
<polygon fill="#63b8ff" stroke="#63b8ff" points="1190.35,-388.06 1199.1,-382.08 1188.53,-381.3 1190.35,-388.06"/>
</g>
<!-- Node41 -->
<g id="node41" class="node">
<title>Node41</title>
<g id="a_node41"><a xlink:href="blit__serialiser_8h.html" target="_top" xlink:title=" ">
<polygon fill="white" stroke="#666666" points="665.5,-327 566.5,-327 566.5,-297 665.5,-297 665.5,-327"/>
<text text-anchor="start" x="574.5" y="-315" font-family="Helvetica,sans-Serif" font-size="10.00">ccf/kv/serialisers</text>
<text text-anchor="middle" x="616" y="-304" font-family="Helvetica,sans-Serif" font-size="10.00">/blit_serialiser.h</text>
</a>
</g>
</g>
<!-- Node23&#45;&gt;Node41 -->
<g id="edge63" class="edge">
<title>Node23&#45;&gt;Node41</title>
<path fill="none" stroke="#63b8ff" d="M993.87,-423.91C917.02,-418.51 752.04,-404.62 700,-382 674.86,-371.07 651.21,-350.34 635.45,-334.44"/>
<polygon fill="#63b8ff" stroke="#63b8ff" points="637.83,-331.86 628.38,-327.09 632.79,-336.72 637.83,-331.86"/>
</g>
<!-- Node42 -->
<g id="node42" class="node">
<title>Node42</title>
<g id="a_node42"><a xlink:href="json__serialiser_8h.html" target="_top" xlink:title=" ">
<polygon fill="white" stroke="#666666" points="821.5,-327 722.5,-327 722.5,-297 821.5,-297 821.5,-327"/>
<text text-anchor="start" x="730.5" y="-315" font-family="Helvetica,sans-Serif" font-size="10.00">ccf/kv/serialisers</text>
<text text-anchor="middle" x="772" y="-304" font-family="Helvetica,sans-Serif" font-size="10.00">/json_serialiser.h</text>
</a>
</g>
</g>
<!-- Node23&#45;&gt;Node42 -->
<g id="edge66" class="edge">
<title>Node23&#45;&gt;Node42</title>
<path fill="none" stroke="#63b8ff" d="M993.87,-423.59C953.37,-419.24 890.12,-408.47 842,-382 820.93,-370.41 801.85,-350.67 788.95,-335.27"/>
<polygon fill="#63b8ff" stroke="#63b8ff" points="791.46,-332.81 782.45,-327.24 786.02,-337.21 791.46,-332.81"/>
</g>
<!-- Node24&#45;&gt;Node5 -->
<g id="edge30" class="edge">
<title>Node24&#45;&gt;Node5</title>
<path fill="none" stroke="#63b8ff" d="M501.25,-302.18C513.29,-285.81 541.34,-250.61 573,-231 617.45,-203.47 636.21,-213.79 685,-195 686.18,-194.55 687.38,-194.07 688.58,-193.58"/>
<polygon fill="#63b8ff" stroke="#63b8ff" points="689.97,-196.79 697.79,-189.64 687.22,-190.36 689.97,-196.79"/>
</g>
<!-- Node25&#45;&gt;Node20 -->
<g id="edge34" class="edge">
<title>Node25&#45;&gt;Node20</title>
<path fill="none" stroke="#63b8ff" d="M1007.12,-171.46C991.92,-169.07 974.75,-166.64 959,-165 671.81,-135.13 323.66,-124.31 208.25,-121.4"/>
<polygon fill="#63b8ff" stroke="#63b8ff" points="208.22,-117.89 198.13,-121.15 208.04,-124.89 208.22,-117.89"/>
</g>
<!-- Node26 -->
<g id="node26" class="node">
<title>Node26</title>
<g id="a_node26"><a xlink:href="version_8h.html" target="_top" xlink:title=" ">
<polygon fill="white" stroke="#666666" points="1140,-129 1046,-129 1046,-110 1140,-110 1140,-129"/>
<text text-anchor="middle" x="1093" y="-117" font-family="Helvetica,sans-Serif" font-size="10.00">ccf/kv/version.h</text>
</a>
</g>
</g>
<!-- Node25&#45;&gt;Node26 -->
<g id="edge32" class="edge">
<title>Node25&#45;&gt;Node26</title>
<path fill="none" stroke="#63b8ff" d="M1057.2,-170.37C1063.4,-161.73 1073.11,-148.2 1080.86,-137.42"/>
<polygon fill="#63b8ff" stroke="#63b8ff" points="1083.79,-139.33 1086.78,-129.17 1078.1,-135.25 1083.79,-139.33"/>
</g>
<!-- Node27 -->
<g id="node27" class="node">
<title>Node27</title>
<g id="a_node27"><a xlink:title=" ">
<polygon fill="#e0e0e0" stroke="#999999" points="1223.5,-129 1158.5,-129 1158.5,-110 1223.5,-110 1223.5,-129"/>
<text text-anchor="middle" x="1191" y="-117" font-family="Helvetica,sans-Serif" font-size="10.00">functional</text>
</a>
</g>
</g>
<!-- Node25&#45;&gt;Node27 -->
<g id="edge33" class="edge">
<title>Node25&#45;&gt;Node27</title>
<path fill="none" stroke="#63b8ff" d="M1071.36,-170.49C1095,-160.62 1134.2,-144.23 1161.25,-132.93"/>
<polygon fill="#63b8ff" stroke="#63b8ff" points="1162.74,-136.1 1170.62,-129.02 1160.04,-129.64 1162.74,-136.1"/>
</g>
<!-- Node29 -->
<g id="node29" class="node">
<title>Node29</title>
<g id="a_node29"><a xlink:href="untyped__map__diff_8h.html" target="_top" xlink:title=" ">
<polygon fill="white" stroke="#666666" points="1462,-327 1346,-327 1346,-297 1462,-297 1462,-327"/>
<text text-anchor="start" x="1354" y="-315" font-family="Helvetica,sans-Serif" font-size="10.00">ccf/kv/untyped_map</text>
<text text-anchor="middle" x="1404" y="-304" font-family="Helvetica,sans-Serif" font-size="10.00">_diff.h</text>
</a>
</g>
</g>
<!-- Node28&#45;&gt;Node29 -->
<g id="edge36" class="edge">
<title>Node28&#45;&gt;Node29</title>
<path fill="none" stroke="#63b8ff" d="M1400.59,-362.87C1401.05,-356.11 1401.72,-346.35 1402.34,-337.26"/>
<polygon fill="#63b8ff" stroke="#63b8ff" points="1405.84,-337.33 1403.03,-327.11 1398.86,-336.85 1405.84,-337.33"/>
</g>
<!-- Node29&#45;&gt;Node5 -->
<g id="edge54" class="edge">
<title>Node29&#45;&gt;Node5</title>
<path fill="none" stroke="#63b8ff" d="M1345.86,-302.34C1284.02,-292.94 1183.4,-277.1 1097,-261 967.34,-236.84 813.98,-203.03 748.38,-188.32"/>
<polygon fill="#63b8ff" stroke="#63b8ff" points="748.78,-184.82 738.26,-186.04 747.25,-191.65 748.78,-184.82"/>
</g>
<!-- Node29&#45;&gt;Node14 -->
<g id="edge53" class="edge">
<title>Node29&#45;&gt;Node14</title>
<path fill="none" stroke="#63b8ff" d="M1403.7,-296.78C1402.54,-278.96 1397.85,-248.62 1380,-231 1338.55,-190.09 1309.28,-213.32 1254,-195 1252.14,-194.38 1250.24,-193.73 1248.32,-193.06"/>
<polygon fill="#63b8ff" stroke="#63b8ff" points="1249.4,-189.73 1238.8,-189.6 1247.01,-196.3 1249.4,-189.73"/>
</g>
<!-- Node29&#45;&gt;Node26 -->
<g id="edge51" class="edge">
<title>Node29&#45;&gt;Node26</title>
<path fill="none" stroke="#63b8ff" d="M1418.66,-296.87C1446.14,-268.72 1499.57,-204.88 1464,-165 1419.12,-114.68 1235.22,-136.26 1150.35,-128.77"/>
<polygon fill="#63b8ff" stroke="#63b8ff" points="1150.58,-125.27 1140.26,-127.67 1149.82,-132.23 1150.58,-125.27"/>
</g>
<!-- Node29&#45;&gt;Node27 -->
<g id="edge52" class="edge">
<title>Node29&#45;&gt;Node27</title>
<path fill="none" stroke="#63b8ff" d="M1452.1,-296.8C1469.37,-289.12 1487.03,-277.68 1497,-261 1518.89,-224.38 1524.91,-197.27 1497,-165 1463.5,-126.27 1309.99,-120.55 1233.94,-120.15"/>
<polygon fill="#63b8ff" stroke="#63b8ff" points="1233.76,-116.65 1223.75,-120.13 1233.74,-123.65 1233.76,-116.65"/>
</g>
<!-- Node30 -->
<g id="node30" class="node">
<title>Node30</title>
<g id="a_node30"><a xlink:href="abstract__handle_8h.html" target="_top" xlink:title=" ">
<polygon fill="white" stroke="#666666" points="1455,-189.5 1319,-189.5 1319,-170.5 1455,-170.5 1455,-189.5"/>
<text text-anchor="middle" x="1387" y="-177.5" font-family="Helvetica,sans-Serif" font-size="10.00">ccf/kv/abstract_handle.h</text>
</a>
</g>
</g>
<!-- Node29&#45;&gt;Node30 -->
<g id="edge37" class="edge">
<title>Node29&#45;&gt;Node30</title>
<path fill="none" stroke="#63b8ff" d="M1410.24,-296.93C1416.53,-280.79 1424.45,-253.65 1418,-231 1414.6,-219.07 1407.44,-207.2 1400.86,-198.02"/>
<polygon fill="#63b8ff" stroke="#63b8ff" points="1403.48,-195.67 1394.64,-189.84 1397.91,-199.91 1403.48,-195.67"/>
</g>
<!-- Node31 -->
<g id="node31" class="node">
<title>Node31</title>
<g id="a_node31"><a xlink:href="serialised__entry_8h.html" target="_top" xlink:title=" ">
<polygon fill="white" stroke="#666666" points="949.5,-195 844.5,-195 844.5,-165 949.5,-165 949.5,-195"/>
<text text-anchor="start" x="852.5" y="-183" font-family="Helvetica,sans-Serif" font-size="10.00">ccf/kv/serialisers</text>
<text text-anchor="middle" x="897" y="-172" font-family="Helvetica,sans-Serif" font-size="10.00">/serialised_entry.h</text>
</a>
</g>
</g>
<!-- Node29&#45;&gt;Node31 -->
<g id="edge38" class="edge">
<title>Node29&#45;&gt;Node31</title>
<path fill="none" stroke="#63b8ff" d="M1398.38,-296.87C1390.15,-278.25 1372.94,-246.11 1347,-231 1279.82,-191.87 1076.19,-204.29 999,-195 986.33,-193.48 972.79,-191.71 959.85,-189.96"/>
<polygon fill="#63b8ff" stroke="#63b8ff" points="960.02,-186.45 949.63,-188.57 959.07,-193.39 960.02,-186.45"/>
</g>
<!-- Node29&#45;&gt;Node37 -->
<g id="edge46" class="edge">
<title>Node29&#45;&gt;Node37</title>
<path fill="none" stroke="#63b8ff" d="M1378.76,-296.95C1359.22,-286.08 1332.32,-271.11 1313.07,-260.4"/>
<polygon fill="#63b8ff" stroke="#63b8ff" points="1314.74,-257.32 1304.3,-255.52 1311.34,-263.44 1314.74,-257.32"/>
</g>
<!-- Node32 -->
<g id="node32" class="node">
<title>Node32</title>
<g id="a_node32"><a xlink:href="byte__vector_8h.html" target="_top" xlink:title=" ">
<polygon fill="white" stroke="#666666" points="566,-129 466,-129 466,-110 566,-110 566,-129"/>
<text text-anchor="middle" x="516" y="-117" font-family="Helvetica,sans-Serif" font-size="10.00">ccf/byte_vector.h</text>
</a>
</g>
</g>
<!-- Node31&#45;&gt;Node32 -->
<g id="edge39" class="edge">
<title>Node31&#45;&gt;Node32</title>
<path fill="none" stroke="#63b8ff" d="M844.42,-170.93C774.24,-160.15 650.21,-141.11 576.3,-129.76"/>
<polygon fill="#63b8ff" stroke="#63b8ff" points="576.63,-126.27 566.22,-128.21 575.57,-133.19 576.63,-126.27"/>
</g>
<!-- Node32&#45;&gt;Node15 -->
<g id="edge44" class="edge">
<title>Node32&#45;&gt;Node15</title>
<path fill="none" stroke="#63b8ff" d="M471.5,-109.98C421.6,-100.44 340.89,-85 288.9,-75.05"/>
<polygon fill="#63b8ff" stroke="#63b8ff" points="289.38,-71.58 278.9,-73.13 288.06,-78.45 289.38,-71.58"/>
</g>
<!-- Node33 -->
<g id="node33" class="node">
<title>Node33</title>
<g id="a_node33"><a xlink:href="siphash_8h.html" target="_top" xlink:title=" ">
<polygon fill="white" stroke="#666666" points="492.5,-74 397.5,-74 397.5,-55 492.5,-55 492.5,-74"/>
<text text-anchor="middle" x="445" y="-62" font-family="Helvetica,sans-Serif" font-size="10.00">ccf/ds/siphash.h</text>
</a>
</g>
</g>
<!-- Node32&#45;&gt;Node33 -->
<g id="edge40" class="edge">
<title>Node32&#45;&gt;Node33</title>
<path fill="none" stroke="#63b8ff" d="M504.59,-109.98C493.89,-102 477.66,-89.88 464.84,-80.31"/>
<polygon fill="#63b8ff" stroke="#63b8ff" points="466.72,-77.35 456.61,-74.17 462.53,-82.96 466.72,-77.35"/>
</g>
<!-- Node36 -->
<g id="node36" class="node">
<title>Node36</title>
<g id="a_node36"><a xlink:title=" ">
<polygon fill="#e0e0e0" stroke="#999999" points="659.5,-74 510.5,-74 510.5,-55 659.5,-55 659.5,-74"/>
<text text-anchor="middle" x="585" y="-62" font-family="Helvetica,sans-Serif" font-size="10.00">small_vector/SmallVector.h</text>
</a>
</g>
</g>
<!-- Node32&#45;&gt;Node36 -->
<g id="edge45" class="edge">
<title>Node32&#45;&gt;Node36</title>
<path fill="none" stroke="#63b8ff" d="M527.09,-109.98C537.49,-102 553.26,-89.88 565.72,-80.31"/>
<polygon fill="#63b8ff" stroke="#63b8ff" points="567.91,-83.04 573.71,-74.17 563.65,-77.49 567.91,-83.04"/>
</g>
<!-- Node33&#45;&gt;Node6 -->
<g id="edge43" class="edge">
<title>Node33&#45;&gt;Node6</title>
<path fill="none" stroke="#63b8ff" d="M407.73,-54.98C363.23,-44.82 289.48,-27.97 246.65,-18.19"/>
<polygon fill="#63b8ff" stroke="#63b8ff" points="247.25,-14.73 236.72,-15.92 245.69,-21.56 247.25,-14.73"/>
</g>
<!-- Node34 -->
<g id="node34" class="node">
<title>Node34</title>
<g id="a_node34"><a xlink:title=" ">
<polygon fill="#e0e0e0" stroke="#999999" points="506.5,-19 453.5,-19 453.5,0 506.5,0 506.5,-19"/>
<text text-anchor="middle" x="480" y="-7" font-family="Helvetica,sans-Serif" font-size="10.00">cstddef</text>
</a>
</g>
</g>
<!-- Node33&#45;&gt;Node34 -->
<g id="edge41" class="edge">
<title>Node33&#45;&gt;Node34</title>
<path fill="none" stroke="#63b8ff" d="M450.78,-54.75C455.62,-47.42 462.68,-36.73 468.64,-27.7"/>
<polygon fill="#63b8ff" stroke="#63b8ff" points="471.74,-29.36 474.33,-19.09 465.9,-25.5 471.74,-29.36"/>
</g>
<!-- Node35 -->
<g id="node35" class="node">
<title>Node35</title>
<g id="a_node35"><a xlink:title=" ">
<polygon fill="#e0e0e0" stroke="#999999" points="435,-19 385,-19 385,0 435,0 435,-19"/>
<text text-anchor="middle" x="410" y="-7" font-family="Helvetica,sans-Serif" font-size="10.00">cstdint</text>
</a>
</g>
</g>
<!-- Node33&#45;&gt;Node35 -->
<g id="edge42" class="edge">
<title>Node33&#45;&gt;Node35</title>
<path fill="none" stroke="#63b8ff" d="M439.22,-54.75C434.38,-47.42 427.32,-36.73 421.36,-27.7"/>
<polygon fill="#63b8ff" stroke="#63b8ff" points="424.1,-25.5 415.67,-19.09 418.26,-29.36 424.1,-25.5"/>
</g>
<!-- Node37&#45;&gt;Node14 -->
<g id="edge50" class="edge">
<title>Node37&#45;&gt;Node14</title>
<path fill="none" stroke="#63b8ff" d="M1279.29,-236.37C1267.87,-226.21 1248.68,-209.16 1234.61,-196.65"/>
<polygon fill="#63b8ff" stroke="#63b8ff" points="1236.82,-193.93 1227.02,-189.91 1232.17,-199.16 1236.82,-193.93"/>
</g>
<!-- Node37&#45;&gt;Node25 -->
<g id="edge47" class="edge">
<title>Node37&#45;&gt;Node25</title>
<path fill="none" stroke="#63b8ff" d="M1256.9,-236.37C1214.47,-224.96 1139.61,-204.83 1092.8,-192.24"/>
<polygon fill="#63b8ff" stroke="#63b8ff" points="1093.53,-188.81 1082.97,-189.6 1091.72,-195.57 1093.53,-188.81"/>
</g>
<!-- Node37&#45;&gt;Node31 -->
<g id="edge48" class="edge">
<title>Node37&#45;&gt;Node31</title>
<path fill="none" stroke="#63b8ff" d="M1255.99,-236.5C1247.85,-234.55 1239.13,-232.59 1231,-231 1180.38,-221.12 1041.62,-201.21 959.75,-189.72"/>
<polygon fill="#63b8ff" stroke="#63b8ff" points="960.2,-186.25 949.81,-188.33 959.23,-193.18 960.2,-186.25"/>
</g>
<!-- Node38 -->
<g id="node38" class="node">
<title>Node38</title>
<g id="a_node38"><a xlink:title=" ">
<polygon fill="#e0e0e0" stroke="#999999" points="1301,-189.5 1263,-189.5 1263,-170.5 1301,-170.5 1301,-189.5"/>
<text text-anchor="middle" x="1282" y="-177.5" font-family="Helvetica,sans-Serif" font-size="10.00">map</text>
</a>
</g>
</g>
<!-- Node37&#45;&gt;Node38 -->
<g id="edge49" class="edge">
<title>Node37&#45;&gt;Node38</title>
<path fill="none" stroke="#63b8ff" d="M1288.06,-236.37C1287.04,-227.07 1285.39,-211.98 1284.07,-199.9"/>
<polygon fill="#63b8ff" stroke="#63b8ff" points="1287.54,-199.47 1282.97,-189.91 1280.58,-200.23 1287.54,-199.47"/>
</g>
<!-- Node40 -->
<g id="node40" class="node">
<title>Node40</title>
<g id="a_node40"><a xlink:href="untyped__map__handle_8h.html" target="_top" xlink:title=" ">
<polygon fill="white" stroke="#666666" points="1222,-261 1106,-261 1106,-231 1222,-231 1222,-261"/>
<text text-anchor="start" x="1114" y="-249" font-family="Helvetica,sans-Serif" font-size="10.00">ccf/kv/untyped_map</text>
<text text-anchor="middle" x="1164" y="-238" font-family="Helvetica,sans-Serif" font-size="10.00">_handle.h</text>
</a>
</g>
</g>
<!-- Node39&#45;&gt;Node40 -->
<g id="edge56" class="edge">
<title>Node39&#45;&gt;Node40</title>
<path fill="none" stroke="#63b8ff" d="M1226.39,-362.94C1216.24,-344.07 1191.63,-298.34 1176.53,-270.28"/>
<polygon fill="#63b8ff" stroke="#63b8ff" points="1179.44,-268.31 1171.62,-261.16 1173.28,-271.63 1179.44,-268.31"/>
</g>
<!-- Node40&#45;&gt;Node5 -->
<g id="edge62" class="edge">
<title>Node40&#45;&gt;Node5</title>
<path fill="none" stroke="#63b8ff" d="M1105.89,-236.7C1010.44,-223.06 823.55,-196.36 748.42,-185.63"/>
<polygon fill="#63b8ff" stroke="#63b8ff" points="748.56,-182.12 738.17,-184.17 747.57,-189.05 748.56,-182.12"/>
</g>
<!-- Node40&#45;&gt;Node14 -->
<g id="edge61" class="edge">
<title>Node40&#45;&gt;Node14</title>
<path fill="none" stroke="#63b8ff" d="M1175.76,-230.8C1183.86,-221.01 1194.66,-207.98 1203.17,-197.7"/>
<polygon fill="#63b8ff" stroke="#63b8ff" points="1205.99,-199.78 1209.68,-189.84 1200.6,-195.31 1205.99,-199.78"/>
</g>
<!-- Node40&#45;&gt;Node26 -->
<g id="edge59" class="edge">
<title>Node40&#45;&gt;Node26</title>
<path fill="none" stroke="#63b8ff" d="M1155.86,-230.72C1142.79,-207.81 1117.2,-162.93 1103.03,-138.09"/>
<polygon fill="#63b8ff" stroke="#63b8ff" points="1105.88,-136.02 1097.89,-129.07 1099.8,-139.49 1105.88,-136.02"/>
</g>
<!-- Node40&#45;&gt;Node27 -->
<g id="edge60" class="edge">
<title>Node40&#45;&gt;Node27</title>
<path fill="none" stroke="#63b8ff" d="M1166.64,-230.8C1169.67,-214.77 1174.87,-187.95 1180,-165 1181.93,-156.35 1184.27,-146.8 1186.29,-138.78"/>
<polygon fill="#63b8ff" stroke="#63b8ff" points="1189.7,-139.56 1188.78,-129 1182.92,-137.83 1189.7,-139.56"/>
</g>
<!-- Node40&#45;&gt;Node30 -->
<g id="edge57" class="edge">
<title>Node40&#45;&gt;Node30</title>
<path fill="none" stroke="#63b8ff" d="M1212.94,-230.95C1253.25,-219.38 1309.7,-203.18 1347.26,-192.41"/>
<polygon fill="#63b8ff" stroke="#63b8ff" points="1348.68,-195.64 1357.32,-189.52 1346.74,-188.91 1348.68,-195.64"/>
</g>
<!-- Node40&#45;&gt;Node31 -->
<g id="edge58" class="edge">
<title>Node40&#45;&gt;Node31</title>
<path fill="none" stroke="#63b8ff" d="M1105.74,-231.03C1062.51,-220.67 1003.67,-206.57 959.47,-195.97"/>
<polygon fill="#63b8ff" stroke="#63b8ff" points="960.25,-192.56 949.71,-193.63 958.62,-199.37 960.25,-192.56"/>
</g>
<!-- Node41&#45;&gt;Node8 -->
<g id="edge64" class="edge">
<title>Node41&#45;&gt;Node8</title>
<path fill="none" stroke="#63b8ff" d="M586.37,-296.95C563.01,-285.88 530.7,-270.56 508.03,-259.82"/>
<polygon fill="#63b8ff" stroke="#63b8ff" points="509.5,-256.64 498.97,-255.52 506.5,-262.96 509.5,-256.64"/>
</g>
<!-- Node41&#45;&gt;Node31 -->
<g id="edge65" class="edge">
<title>Node41&#45;&gt;Node31</title>
<path fill="none" stroke="#63b8ff" d="M646.34,-296.96C697.32,-273.38 800.15,-225.81 856.98,-199.51"/>
<polygon fill="#63b8ff" stroke="#63b8ff" points="858.76,-202.55 866.36,-195.17 855.82,-196.2 858.76,-202.55"/>
</g>
<!-- Node42&#45;&gt;Node16 -->
<g id="edge68" class="edge">
<title>Node42&#45;&gt;Node16</title>
<path fill="none" stroke="#63b8ff" d="M742.37,-296.95C719.01,-285.88 686.7,-270.56 664.03,-259.82"/>
<polygon fill="#63b8ff" stroke="#63b8ff" points="665.5,-256.64 654.97,-255.52 662.5,-262.96 665.5,-256.64"/>
</g>
<!-- Node42&#45;&gt;Node31 -->
<g id="edge67" class="edge">
<title>Node42&#45;&gt;Node31</title>
<path fill="none" stroke="#63b8ff" d="M785.62,-296.84C807.5,-274.08 850.64,-229.21 876.34,-202.49"/>
<polygon fill="#63b8ff" stroke="#63b8ff" points="878.99,-204.78 883.4,-195.14 873.95,-199.92 878.99,-204.78"/>
</g>
<!-- Node43&#45;&gt;Node24 -->
<g id="edge71" class="edge">
<title>Node43&#45;&gt;Node24</title>
<path fill="none" stroke="#63b8ff" d="M850.33,-367.56C789.39,-360.79 663.54,-345.83 558,-327 552.48,-326.02 546.72,-324.88 541.02,-323.7"/>
<polygon fill="#63b8ff" stroke="#63b8ff" points="541.39,-320.2 530.88,-321.52 539.92,-327.04 541.39,-320.2"/>
</g>
<!-- Node43&#45;&gt;Node25 -->
<g id="edge72" class="edge">
<title>Node43&#45;&gt;Node25</title>
<path fill="none" stroke="#63b8ff" d="M923.93,-369.28C979.15,-365.1 1079.09,-353.94 1101,-327 1109.41,-316.66 1106.19,-309.28 1101,-297 1092.07,-275.86 1074.6,-281.35 1064,-261 1054.07,-241.94 1051.36,-217.14 1050.79,-200.24"/>
<polygon fill="#63b8ff" stroke="#63b8ff" points="1054.29,-199.93 1050.68,-189.97 1047.29,-200.01 1054.29,-199.93"/>
</g>
<!-- Node43&#45;&gt;Node37 -->
<g id="edge79" class="edge">
<title>Node43&#45;&gt;Node37</title>
<path fill="none" stroke="#63b8ff" d="M923.74,-369.41C997.41,-364.73 1160.4,-351.84 1210,-327 1239.25,-312.35 1264.06,-282.6 1277.7,-263.8"/>
<polygon fill="#63b8ff" stroke="#63b8ff" points="1280.6,-265.76 1283.48,-255.56 1274.87,-261.74 1280.6,-265.76"/>
</g>
<!-- Node43&#45;&gt;Node41 -->
<g id="edge73" class="edge">
<title>Node43&#45;&gt;Node41</title>
<path fill="none" stroke="#63b8ff" d="M850.45,-363.61C805.66,-353.94 729.15,-337.43 675.76,-325.9"/>
<polygon fill="#63b8ff" stroke="#63b8ff" points="676.25,-322.43 665.74,-323.74 674.78,-329.27 676.25,-322.43"/>
</g>
<!-- Node43&#45;&gt;Node42 -->
<g id="edge74" class="edge">
<title>Node43&#45;&gt;Node42</title>
<path fill="none" stroke="#63b8ff" d="M870.03,-362.87C853.99,-354.71 829.4,-342.2 808.85,-331.75"/>
<polygon fill="#63b8ff" stroke="#63b8ff" points="810.25,-328.53 799.75,-327.11 807.07,-334.77 810.25,-328.53"/>
</g>
<!-- Node44 -->
<g id="node44" class="node">
<title>Node44</title>
<g id="a_node44"><a xlink:href="set__handle_8h.html" target="_top" xlink:title=" ">
<polygon fill="white" stroke="#666666" points="1091.5,-321.5 980.5,-321.5 980.5,-302.5 1091.5,-302.5 1091.5,-321.5"/>
<text text-anchor="middle" x="1036" y="-309.5" font-family="Helvetica,sans-Serif" font-size="10.00">ccf/kv/set_handle.h</text>
</a>
</g>
</g>
<!-- Node43&#45;&gt;Node44 -->
<g id="edge75" class="edge">
<title>Node43&#45;&gt;Node44</title>
<path fill="none" stroke="#63b8ff" d="M908.67,-362.99C933.94,-353.07 975.91,-336.59 1004.72,-325.28"/>
<polygon fill="#63b8ff" stroke="#63b8ff" points="1006.28,-328.43 1014.31,-321.52 1003.72,-321.91 1006.28,-328.43"/>
</g>
<!-- Node44&#45;&gt;Node40 -->
<g id="edge78" class="edge">
<title>Node44&#45;&gt;Node40</title>
<path fill="none" stroke="#63b8ff" d="M1053.26,-302.37C1072.02,-292.99 1102.56,-277.72 1126.82,-265.59"/>
<polygon fill="#63b8ff" stroke="#63b8ff" points="1128.39,-268.72 1135.77,-261.12 1125.26,-262.46 1128.39,-268.72"/>
</g>
<!-- Node45 -->
<g id="node45" class="node">
<title>Node45</title>
<g id="a_node45"><a xlink:href="unit_8h.html" target="_top" xlink:title=" ">
<polygon fill="white" stroke="#666666" points="935.5,-255.5 858.5,-255.5 858.5,-236.5 935.5,-236.5 935.5,-255.5"/>
<text text-anchor="middle" x="897" y="-243.5" font-family="Helvetica,sans-Serif" font-size="10.00">ccf/kv/unit.h</text>
</a>
</g>
</g>
<!-- Node44&#45;&gt;Node45 -->
<g id="edge76" class="edge">
<title>Node44&#45;&gt;Node45</title>
<path fill="none" stroke="#63b8ff" d="M1017.25,-302.37C993.52,-291.44 952.43,-272.52 924.98,-259.88"/>
<polygon fill="#63b8ff" stroke="#63b8ff" points="926.44,-256.7 915.89,-255.7 923.51,-263.06 926.44,-256.7"/>
</g>
<!-- Node45&#45;&gt;Node31 -->
<g id="edge77" class="edge">
<title>Node45&#45;&gt;Node31</title>
<path fill="none" stroke="#63b8ff" d="M897,-236.37C897,-228.49 897,-216.45 897,-205.6"/>
<polygon fill="#63b8ff" stroke="#63b8ff" points="900.5,-205.36 897,-195.36 893.5,-205.36 900.5,-205.36"/>
</g>
<!-- Node46&#45;&gt;Node24 -->
<g id="edge81" class="edge">
<title>Node46&#45;&gt;Node24</title>
<path fill="none" stroke="#63b8ff" d="M713.78,-362.99C668.37,-352.62 591.56,-335.07 542.09,-323.76"/>
<polygon fill="#63b8ff" stroke="#63b8ff" points="542.8,-320.33 532.27,-321.52 541.24,-327.16 542.8,-320.33"/>
</g>
<!-- Node46&#45;&gt;Node25 -->
<g id="edge82" class="edge">
<title>Node46&#45;&gt;Node25</title>
<path fill="none" stroke="#63b8ff" d="M741.02,-362.94C725.74,-348.78 699.74,-319.77 714,-297 722.91,-282.76 834.21,-236.72 850,-231 898.77,-213.32 956.41,-199.68 997.43,-191.15"/>
<polygon fill="#63b8ff" stroke="#63b8ff" points="998.39,-194.53 1007.49,-189.1 996.99,-187.67 998.39,-194.53"/>
</g>
<!-- Node46&#45;&gt;Node37 -->
<g id="edge85" class="edge">
<title>Node46&#45;&gt;Node37</title>
<path fill="none" stroke="#63b8ff" d="M793.79,-367.55C873.99,-359.9 1043.94,-342.45 1101,-327 1161.71,-310.56 1228.52,-278.51 1263.85,-260.37"/>
<polygon fill="#63b8ff" stroke="#63b8ff" points="1265.69,-263.36 1272.95,-255.64 1262.46,-257.14 1265.69,-263.36"/>
</g>
<!-- Node46&#45;&gt;Node41 -->
<g id="edge83" class="edge">
<title>Node46&#45;&gt;Node41</title>
<path fill="none" stroke="#63b8ff" d="M731.37,-362.99C712.2,-354.68 682.4,-341.78 657.9,-331.16"/>
<polygon fill="#63b8ff" stroke="#63b8ff" points="659.02,-327.83 648.46,-327.06 656.24,-334.25 659.02,-327.83"/>
</g>
<!-- Node46&#45;&gt;Node42 -->
<g id="edge84" class="edge">
<title>Node46&#45;&gt;Node42</title>
<path fill="none" stroke="#63b8ff" d="M754.1,-362.87C756.58,-355.96 760.18,-345.93 763.5,-336.67"/>
<polygon fill="#63b8ff" stroke="#63b8ff" points="766.85,-337.71 766.93,-327.11 760.26,-335.34 766.85,-337.71"/>
</g>
<!-- Node47 -->
<g id="node47" class="node">
<title>Node47</title>
<g id="a_node47"><a xlink:href="value__handle_8h.html" target="_top" xlink:title=" ">
<polygon fill="white" stroke="#666666" points="962.5,-321.5 839.5,-321.5 839.5,-302.5 962.5,-302.5 962.5,-321.5"/>
<text text-anchor="middle" x="901" y="-309.5" font-family="Helvetica,sans-Serif" font-size="10.00">ccf/kv/value_handle.h</text>
</a>
</g>
</g>
<!-- Node46&#45;&gt;Node47 -->
<g id="edge86" class="edge">
<title>Node46&#45;&gt;Node47</title>
<path fill="none" stroke="#63b8ff" d="M772.81,-362.99C798.25,-353.07 840.51,-336.59 869.51,-325.28"/>
<polygon fill="#63b8ff" stroke="#63b8ff" points="871.12,-328.41 879.16,-321.52 868.57,-321.89 871.12,-328.41"/>
</g>
<!-- Node47&#45;&gt;Node40 -->
<g id="edge88" class="edge">
<title>Node47&#45;&gt;Node40</title>
<path fill="none" stroke="#63b8ff" d="M936.2,-302.44C977.01,-292.5 1045.21,-275.91 1096.37,-263.46"/>
<polygon fill="#63b8ff" stroke="#63b8ff" points="1097.48,-266.79 1106.37,-261.02 1095.82,-259.99 1097.48,-266.79"/>
</g>
<!-- Node47&#45;&gt;Node45 -->
<g id="edge87" class="edge">
<title>Node47&#45;&gt;Node45</title>
<path fill="none" stroke="#63b8ff" d="M900.46,-302.37C899.88,-293.07 898.94,-277.98 898.18,-265.9"/>
<polygon fill="#63b8ff" stroke="#63b8ff" points="901.67,-265.67 897.56,-255.91 894.69,-266.1 901.67,-265.67"/>
</g>
</g>
</svg>
