<?xml version="1.0" encoding="UTF-8" standalone="no"?>
<!DOCTYPE svg PUBLIC "-//W3C//DTD SVG 1.1//EN"
 "http://www.w3.org/Graphics/SVG/1.1/DTD/svg11.dtd">
<!-- Generated by graphviz version 2.43.0 (0)
 -->
<!-- Title: include/ccf/actors.h Pages: 1 -->
<svg width="2471pt" height="566pt"
 viewBox="0.00 0.00 2471.01 566.00" xmlns="http://www.w3.org/2000/svg" xmlns:xlink="http://www.w3.org/1999/xlink">
<g id="graph0" class="graph" transform="scale(1 1) rotate(0) translate(4 562)">
<title>include/ccf/actors.h</title>
<!-- Node1 -->
<g id="node1" class="node">
<title>Node1</title>
<g id="a_node1"><a xlink:title=" ">
<polygon fill="#999999" stroke="#666666" points="1510,-558 1399,-558 1399,-539 1510,-539 1510,-558"/>
<text text-anchor="middle" x="1454.5" y="-546" font-family="Helvetica,sans-Serif" font-size="10.00">include/ccf/actors.h</text>
</a>
</g>
</g>
<!-- Node2 -->
<g id="node2" class="node">
<title>Node2</title>
<g id="a_node2"><a xlink:href="app__interface_8h.html" target="_top" xlink:title=" ">
<polygon fill="white" stroke="#666666" points="756.5,-387.5 608.5,-387.5 608.5,-368.5 756.5,-368.5 756.5,-387.5"/>
<text text-anchor="middle" x="682.5" y="-375.5" font-family="Helvetica,sans-Serif" font-size="10.00">include/ccf/app_interface.h</text>
</a>
</g>
</g>
<!-- Node1&#45;&gt;Node2 -->
<g id="edge1" class="edge">
<title>Node1&#45;&gt;Node2</title>
<path fill="none" stroke="#63b8ff" d="M1388.7,-542.6C1316.66,-536.47 1197.99,-524.12 1097.5,-503 945.54,-471.06 768.71,-409.96 706,-387.53"/>
<polygon fill="#63b8ff" stroke="#63b8ff" points="1388.73,-546.11 1398.99,-543.46 1389.31,-539.14 1388.73,-546.11"/>
</g>
<!-- Node16 -->
<g id="node16" class="node">
<title>Node16</title>
<g id="a_node16"><a xlink:href="rpc__map_8h.html" target="_top" xlink:title=" ">
<polygon fill="white" stroke="#666666" points="1831.5,-503 1705.5,-503 1705.5,-484 1831.5,-484 1831.5,-503"/>
<text text-anchor="middle" x="1768.5" y="-491" font-family="Helvetica,sans-Serif" font-size="10.00">src/enclave/rpc_map.h</text>
</a>
</g>
</g>
<!-- Node1&#45;&gt;Node16 -->
<g id="edge18" class="edge">
<title>Node1&#45;&gt;Node16</title>
<path fill="none" stroke="#63b8ff" d="M1514.87,-537.31C1573.84,-527.36 1662.55,-512.38 1717.92,-503.04"/>
<polygon fill="#63b8ff" stroke="#63b8ff" points="1514.23,-533.87 1504.95,-538.98 1515.39,-540.77 1514.23,-533.87"/>
</g>
<!-- Node34 -->
<g id="node34" class="node">
<title>Node34</title>
<g id="a_node34"><a xlink:href="acme__challenge__frontend_8h.html" target="_top" xlink:title=" ">
<polygon fill="white" stroke="#666666" points="1491.5,-327 1351.5,-327 1351.5,-297 1491.5,-297 1491.5,-327"/>
<text text-anchor="start" x="1359.5" y="-315" font-family="Helvetica,sans-Serif" font-size="10.00">src/node/acme_challenge</text>
<text text-anchor="middle" x="1421.5" y="-304" font-family="Helvetica,sans-Serif" font-size="10.00">_frontend.h</text>
</a>
</g>
</g>
<!-- Node1&#45;&gt;Node34 -->
<g id="edge66" class="edge">
<title>Node1&#45;&gt;Node34</title>
<path fill="none" stroke="#63b8ff" d="M1451.11,-528.88C1445.92,-499.91 1435.94,-442.24 1429.5,-393 1426.5,-370.03 1424.02,-343.21 1422.66,-327.19"/>
<polygon fill="#63b8ff" stroke="#63b8ff" points="1447.68,-529.6 1452.9,-538.82 1454.57,-528.35 1447.68,-529.6"/>
</g>
<!-- Node36 -->
<g id="node36" class="node">
<title>Node36</title>
<g id="a_node36"><a xlink:href="http__rpc__context_8h.html" target="_top" xlink:title=" ">
<polygon fill="white" stroke="#666666" points="2066,-503 1919,-503 1919,-484 2066,-484 2066,-503"/>
<text text-anchor="middle" x="1992.5" y="-491" font-family="Helvetica,sans-Serif" font-size="10.00">src/http/http_rpc_context.h</text>
</a>
</g>
</g>
<!-- Node1&#45;&gt;Node36 -->
<g id="edge59" class="edge">
<title>Node1&#45;&gt;Node36</title>
<path fill="none" stroke="#63b8ff" d="M1520.11,-541.04C1620.96,-531.1 1813.46,-512.14 1918.92,-501.75"/>
<polygon fill="#63b8ff" stroke="#63b8ff" points="1519.66,-537.56 1510.05,-542.03 1520.34,-544.53 1519.66,-537.56"/>
</g>
<!-- Node3 -->
<g id="node3" class="node">
<title>Node3</title>
<g id="a_node3"><a xlink:href="logging_8cpp.html" target="_top" xlink:title=" ">
<polygon fill="white" stroke="#666666" points="1121,-327 998,-327 998,-297 1121,-297 1121,-327"/>
<text text-anchor="start" x="1006" y="-315" font-family="Helvetica,sans-Serif" font-size="10.00">samples/apps/logging</text>
<text text-anchor="middle" x="1059.5" y="-304" font-family="Helvetica,sans-Serif" font-size="10.00">/logging.cpp</text>
</a>
</g>
</g>
<!-- Node2&#45;&gt;Node3 -->
<g id="edge2" class="edge">
<title>Node2&#45;&gt;Node3</title>
<path fill="none" stroke="#63b8ff" d="M748.19,-366.9C810.23,-357.22 905.82,-341.9 988.5,-327 991.59,-326.44 994.76,-325.86 997.95,-325.26"/>
<polygon fill="#63b8ff" stroke="#63b8ff" points="747.49,-363.47 738.15,-368.47 748.57,-370.39 747.49,-363.47"/>
</g>
<!-- Node4 -->
<g id="node4" class="node">
<title>Node4</title>
<g id="a_node4"><a xlink:href="nobuiltins_8cpp.html" target="_top" xlink:title=" ">
<polygon fill="white" stroke="#666666" points="135,-327 0,-327 0,-297 135,-297 135,-327"/>
<text text-anchor="start" x="8" y="-315" font-family="Helvetica,sans-Serif" font-size="10.00">samples/apps/nobuiltins</text>
<text text-anchor="middle" x="67.5" y="-304" font-family="Helvetica,sans-Serif" font-size="10.00">/nobuiltins.cpp</text>
</a>
</g>
</g>
<!-- Node2&#45;&gt;Node4 -->
<g id="edge3" class="edge">
<title>Node2&#45;&gt;Node4</title>
<path fill="none" stroke="#63b8ff" d="M597.9,-371.05C492.59,-363.18 307.33,-347.85 149.5,-327 144.78,-326.38 139.91,-325.68 135.01,-324.94"/>
<polygon fill="#63b8ff" stroke="#63b8ff" points="597.92,-374.56 608.15,-371.81 598.43,-367.58 597.92,-374.56"/>
</g>
<!-- Node5 -->
<g id="node5" class="node">
<title>Node5</title>
<g id="a_node5"><a xlink:href="executor__auth__policy_8h.html" target="_top" xlink:title=" ">
<polygon fill="white" stroke="#666666" points="339.5,-327 191.5,-327 191.5,-297 339.5,-297 339.5,-327"/>
<text text-anchor="start" x="199.5" y="-315" font-family="Helvetica,sans-Serif" font-size="10.00">src/apps/external_executor</text>
<text text-anchor="middle" x="265.5" y="-304" font-family="Helvetica,sans-Serif" font-size="10.00">/executor_auth_policy.h</text>
</a>
</g>
</g>
<!-- Node2&#45;&gt;Node5 -->
<g id="edge4" class="edge">
<title>Node2&#45;&gt;Node5</title>
<path fill="none" stroke="#63b8ff" d="M613.22,-367.01C545.63,-357.17 439.93,-341.55 348.5,-327 345.61,-326.54 342.67,-326.07 339.7,-325.59"/>
<polygon fill="#63b8ff" stroke="#63b8ff" points="612.92,-370.5 623.32,-368.48 613.93,-363.58 612.92,-370.5"/>
</g>
<!-- Node6 -->
<g id="node6" class="node">
<title>Node6</title>
<g id="a_node6"><a xlink:href="external__executor_8cpp.html" target="_top" xlink:title=" ">
<polygon fill="white" stroke="#666666" points="288.5,-261 140.5,-261 140.5,-231 288.5,-231 288.5,-261"/>
<text text-anchor="start" x="148.5" y="-249" font-family="Helvetica,sans-Serif" font-size="10.00">src/apps/external_executor</text>
<text text-anchor="middle" x="214.5" y="-238" font-family="Helvetica,sans-Serif" font-size="10.00">/external_executor.cpp</text>
</a>
</g>
</g>
<!-- Node2&#45;&gt;Node6 -->
<g id="edge6" class="edge">
<title>Node2&#45;&gt;Node6</title>
<path fill="none" stroke="#63b8ff" d="M598.02,-374.61C462.73,-369.91 209.8,-357.16 182.5,-327 165.24,-307.92 185.62,-278.37 200.85,-261.03"/>
<polygon fill="#63b8ff" stroke="#63b8ff" points="598.24,-378.12 608.35,-374.97 598.48,-371.13 598.24,-378.12"/>
</g>
<!-- Node7 -->
<g id="node7" class="node">
<title>Node7</title>
<g id="a_node7"><a xlink:href="js__generic_8cpp.html" target="_top" xlink:title=" ">
<polygon fill="white" stroke="#666666" points="577.5,-261 467.5,-261 467.5,-231 577.5,-231 577.5,-261"/>
<text text-anchor="start" x="475.5" y="-249" font-family="Helvetica,sans-Serif" font-size="10.00">src/apps/js_generic</text>
<text text-anchor="middle" x="522.5" y="-238" font-family="Helvetica,sans-Serif" font-size="10.00">/js_generic.cpp</text>
</a>
</g>
</g>
<!-- Node2&#45;&gt;Node7 -->
<g id="edge7" class="edge">
<title>Node2&#45;&gt;Node7</title>
<path fill="none" stroke="#63b8ff" d="M670.32,-359.89C657.38,-342.55 635.63,-315.69 612.5,-297 594.56,-282.51 571.85,-269.93 553.73,-261.01"/>
<polygon fill="#63b8ff" stroke="#63b8ff" points="667.83,-362.42 676.56,-368.43 673.49,-358.29 667.83,-362.42"/>
</g>
<!-- Node8 -->
<g id="node8" class="node">
<title>Node8</title>
<g id="a_node8"><a xlink:href="js__generic__base_8cpp.html" target="_top" xlink:title=" ">
<polygon fill="white" stroke="#666666" points="603.5,-327 485.5,-327 485.5,-297 603.5,-297 603.5,-327"/>
<text text-anchor="start" x="493.5" y="-315" font-family="Helvetica,sans-Serif" font-size="10.00">src/apps/js_generic</text>
<text text-anchor="middle" x="544.5" y="-304" font-family="Helvetica,sans-Serif" font-size="10.00">/js_generic_base.cpp</text>
</a>
</g>
</g>
<!-- Node2&#45;&gt;Node8 -->
<g id="edge8" class="edge">
<title>Node2&#45;&gt;Node8</title>
<path fill="none" stroke="#63b8ff" d="M654.63,-364.08C631.53,-353.36 598.73,-338.15 574.94,-327.12"/>
<polygon fill="#63b8ff" stroke="#63b8ff" points="653.34,-367.34 663.89,-368.37 656.29,-360.99 653.34,-367.34"/>
</g>
<!-- Node9 -->
<g id="node9" class="node">
<title>Node9</title>
<g id="a_node9"><a xlink:href="js__generic__base_8h.html" target="_top" xlink:title=" ">
<polygon fill="white" stroke="#666666" points="467.5,-327 357.5,-327 357.5,-297 467.5,-297 467.5,-327"/>
<text text-anchor="start" x="365.5" y="-315" font-family="Helvetica,sans-Serif" font-size="10.00">src/apps/js_generic</text>
<text text-anchor="middle" x="412.5" y="-304" font-family="Helvetica,sans-Serif" font-size="10.00">/js_generic_base.h</text>
</a>
</g>
</g>
<!-- Node2&#45;&gt;Node9 -->
<g id="edge9" class="edge">
<title>Node2&#45;&gt;Node9</title>
<path fill="none" stroke="#63b8ff" d="M636.51,-366.1C589.78,-355.02 517.37,-337.86 467.6,-326.06"/>
<polygon fill="#63b8ff" stroke="#63b8ff" points="635.83,-369.53 646.37,-368.44 637.44,-362.72 635.83,-369.53"/>
</g>
<!-- Node10 -->
<g id="node10" class="node">
<title>Node10</title>
<g id="a_node10"><a xlink:href="tpcc_8cpp.html" target="_top" xlink:title=" ">
<polygon fill="white" stroke="#666666" points="805,-321.5 660,-321.5 660,-302.5 805,-302.5 805,-321.5"/>
<text text-anchor="middle" x="732.5" y="-309.5" font-family="Helvetica,sans-Serif" font-size="10.00">src/apps/tpcc/app/tpcc.cpp</text>
</a>
</g>
</g>
<!-- Node2&#45;&gt;Node10 -->
<g id="edge11" class="edge">
<title>Node2&#45;&gt;Node10</title>
<path fill="none" stroke="#63b8ff" d="M695.57,-360.27C705.16,-347.99 717.81,-331.8 725.54,-321.91"/>
<polygon fill="#63b8ff" stroke="#63b8ff" points="692.64,-358.33 689.24,-368.37 698.16,-362.64 692.64,-358.33"/>
</g>
<!-- Node11 -->
<g id="node11" class="node">
<title>Node11</title>
<g id="a_node11"><a xlink:href="src_2enclave_2enclave_8h.html" target="_top" xlink:title=" ">
<polygon fill="white" stroke="#666666" points="1634.5,-74 1512.5,-74 1512.5,-55 1634.5,-55 1634.5,-74"/>
<text text-anchor="middle" x="1573.5" y="-62" font-family="Helvetica,sans-Serif" font-size="10.00">src/enclave/enclave.h</text>
</a>
</g>
</g>
<!-- Node2&#45;&gt;Node11 -->
<g id="edge12" class="edge">
<title>Node2&#45;&gt;Node11</title>
<path fill="none" stroke="#63b8ff" d="M747.75,-365.7C771.82,-358.42 797.37,-346.5 814.5,-327 838.62,-299.55 833.5,-283.54 833.5,-247 833.5,-247 833.5,-247 833.5,-179 833.5,-110.52 1335.02,-77.87 1512.31,-68.47"/>
<polygon fill="#63b8ff" stroke="#63b8ff" points="746.6,-362.38 737.91,-368.45 748.48,-369.13 746.6,-362.38"/>
</g>
<!-- Node13 -->
<g id="node13" class="node">
<title>Node13</title>
<g id="a_node13"><a xlink:href="no__plugins_8cpp.html" target="_top" xlink:title=" ">
<polygon fill="white" stroke="#666666" points="979.5,-321.5 861.5,-321.5 861.5,-302.5 979.5,-302.5 979.5,-321.5"/>
<text text-anchor="middle" x="920.5" y="-309.5" font-family="Helvetica,sans-Serif" font-size="10.00">src/js/no_plugins.cpp</text>
</a>
</g>
</g>
<!-- Node2&#45;&gt;Node13 -->
<g id="edge14" class="edge">
<title>Node2&#45;&gt;Node13</title>
<path fill="none" stroke="#63b8ff" d="M724.44,-365.72C771.31,-353.12 846.16,-332.99 888.53,-321.6"/>
<polygon fill="#63b8ff" stroke="#63b8ff" points="723.35,-362.39 714.6,-368.37 725.16,-369.15 723.35,-362.39"/>
</g>
<!-- Node15 -->
<g id="node15" class="node">
<title>Node15</title>
<g id="a_node15"><a xlink:href="user__frontend_8h.html" target="_top" xlink:title=" ">
<polygon fill="white" stroke="#666666" points="1333,-321.5 1178,-321.5 1178,-302.5 1333,-302.5 1333,-321.5"/>
<text text-anchor="middle" x="1255.5" y="-309.5" font-family="Helvetica,sans-Serif" font-size="10.00">src/node/rpc/user_frontend.h</text>
</a>
</g>
</g>
<!-- Node2&#45;&gt;Node15 -->
<g id="edge16" class="edge">
<title>Node2&#45;&gt;Node15</title>
<path fill="none" stroke="#63b8ff" d="M766.77,-367.6C856.82,-357.56 1003.75,-341.17 1130.5,-327 1146.34,-325.23 1163.31,-323.33 1179.48,-321.52"/>
<polygon fill="#63b8ff" stroke="#63b8ff" points="766.17,-364.15 756.62,-368.74 766.95,-371.11 766.17,-364.15"/>
</g>
<!-- Node5&#45;&gt;Node6 -->
<g id="edge5" class="edge">
<title>Node5&#45;&gt;Node6</title>
<path fill="none" stroke="#63b8ff" d="M247.82,-288.81C240.51,-279.64 232.25,-269.28 225.79,-261.16"/>
<polygon fill="#63b8ff" stroke="#63b8ff" points="245.21,-291.16 254.18,-296.8 250.69,-286.79 245.21,-291.16"/>
</g>
<!-- Node9&#45;&gt;Node7 -->
<g id="edge10" class="edge">
<title>Node9&#45;&gt;Node7</title>
<path fill="none" stroke="#63b8ff" d="M445.68,-291.69C462.66,-281.82 482.95,-270.01 498.42,-261.01"/>
<polygon fill="#63b8ff" stroke="#63b8ff" points="443.52,-288.9 436.64,-296.95 447.04,-294.95 443.52,-288.9"/>
</g>
<!-- Node12 -->
<g id="node12" class="node">
<title>Node12</title>
<g id="a_node12"><a xlink:href="enclave_2main_8cpp.html" target="_top" xlink:title=" ">
<polygon fill="white" stroke="#666666" points="1633.5,-19 1513.5,-19 1513.5,0 1633.5,0 1633.5,-19"/>
<text text-anchor="middle" x="1573.5" y="-7" font-family="Helvetica,sans-Serif" font-size="10.00">src/enclave/main.cpp</text>
</a>
</g>
</g>
<!-- Node11&#45;&gt;Node12 -->
<g id="edge13" class="edge">
<title>Node11&#45;&gt;Node12</title>
<path fill="none" stroke="#63b8ff" d="M1573.5,-44.66C1573.5,-35.93 1573.5,-25.99 1573.5,-19.09"/>
<polygon fill="#63b8ff" stroke="#63b8ff" points="1570,-44.75 1573.5,-54.75 1577,-44.75 1570,-44.75"/>
</g>
<!-- Node14 -->
<g id="node14" class="node">
<title>Node14</title>
<g id="a_node14"><a xlink:href="wrap_8cpp.html" target="_top" xlink:title=" ">
<polygon fill="white" stroke="#666666" points="965,-255.5 876,-255.5 876,-236.5 965,-236.5 965,-255.5"/>
<text text-anchor="middle" x="920.5" y="-243.5" font-family="Helvetica,sans-Serif" font-size="10.00">src/js/wrap.cpp</text>
</a>
</g>
</g>
<!-- Node13&#45;&gt;Node14 -->
<g id="edge15" class="edge">
<title>Node13&#45;&gt;Node14</title>
<path fill="none" stroke="#63b8ff" d="M920.5,-292.08C920.5,-280.13 920.5,-265.22 920.5,-255.91"/>
<polygon fill="#63b8ff" stroke="#63b8ff" points="917,-292.37 920.5,-302.37 924,-292.37 917,-292.37"/>
</g>
<!-- Node15&#45;&gt;Node11 -->
<g id="edge17" class="edge">
<title>Node15&#45;&gt;Node11</title>
<path fill="none" stroke="#63b8ff" d="M1269.03,-294.22C1300.04,-256.67 1380.12,-164.89 1464.5,-110 1489.52,-93.73 1521.45,-81.54 1544.28,-74.07"/>
<polygon fill="#63b8ff" stroke="#63b8ff" points="1266.16,-292.2 1262.54,-302.15 1271.58,-296.63 1266.16,-292.2"/>
</g>
<!-- Node16&#45;&gt;Node11 -->
<g id="edge19" class="edge">
<title>Node16&#45;&gt;Node11</title>
<path fill="none" stroke="#63b8ff" d="M1695.46,-486.67C1531.72,-472.62 1149.5,-433.95 1149.5,-379 1149.5,-379 1149.5,-379 1149.5,-179 1149.5,-104.8 1394.88,-77.81 1512.3,-69.14"/>
<polygon fill="#63b8ff" stroke="#63b8ff" points="1695.19,-490.16 1705.45,-487.52 1695.79,-483.19 1695.19,-490.16"/>
</g>
<!-- Node17 -->
<g id="node17" class="node">
<title>Node17</title>
<g id="a_node17"><a xlink:href="http2__session_8h.html" target="_top" xlink:title=" ">
<polygon fill="white" stroke="#666666" points="2283,-387.5 2150,-387.5 2150,-368.5 2283,-368.5 2283,-387.5"/>
<text text-anchor="middle" x="2216.5" y="-375.5" font-family="Helvetica,sans-Serif" font-size="10.00">src/http/http2_session.h</text>
</a>
</g>
</g>
<!-- Node16&#45;&gt;Node17 -->
<g id="edge20" class="edge">
<title>Node16&#45;&gt;Node17</title>
<path fill="none" stroke="#63b8ff" d="M1841.88,-483.38C1893.92,-476.06 1965.13,-464.3 2026.5,-448 2090.1,-431.11 2162.46,-401.95 2196.63,-387.55"/>
<polygon fill="#63b8ff" stroke="#63b8ff" points="1841.16,-479.95 1831.73,-484.79 1842.12,-486.88 1841.16,-479.95"/>
</g>
<!-- Node24 -->
<g id="node24" class="node">
<title>Node24</title>
<g id="a_node24"><a xlink:href="http__session_8h.html" target="_top" xlink:title=" ">
<polygon fill="white" stroke="#666666" points="2017,-448 1890,-448 1890,-429 2017,-429 2017,-448"/>
<text text-anchor="middle" x="1953.5" y="-436" font-family="Helvetica,sans-Serif" font-size="10.00">src/http/http_session.h</text>
</a>
</g>
</g>
<!-- Node16&#45;&gt;Node24 -->
<g id="edge33" class="edge">
<title>Node16&#45;&gt;Node24</title>
<path fill="none" stroke="#63b8ff" d="M1808,-481.18C1842.6,-471.27 1892.13,-457.08 1923.54,-448.08"/>
<polygon fill="#63b8ff" stroke="#63b8ff" points="1806.87,-477.87 1798.22,-483.98 1808.8,-484.6 1806.87,-477.87"/>
</g>
<!-- Node25 -->
<g id="node25" class="node">
<title>Node25</title>
<g id="a_node25"><a xlink:href="node__client_8h.html" target="_top" xlink:title=" ">
<polygon fill="white" stroke="#666666" points="1871.5,-448 1745.5,-448 1745.5,-429 1871.5,-429 1871.5,-448"/>
<text text-anchor="middle" x="1808.5" y="-436" font-family="Helvetica,sans-Serif" font-size="10.00">src/node/node_client.h</text>
</a>
</g>
</g>
<!-- Node16&#45;&gt;Node25 -->
<g id="edge35" class="edge">
<title>Node16&#45;&gt;Node25</title>
<path fill="none" stroke="#63b8ff" d="M1781.2,-475.67C1788.13,-466.5 1796.41,-455.52 1802.02,-448.09"/>
<polygon fill="#63b8ff" stroke="#63b8ff" points="1778.34,-473.66 1775.11,-483.75 1783.92,-477.87 1778.34,-473.66"/>
</g>
<!-- Node32 -->
<g id="node32" class="node">
<title>Node32</title>
<g id="a_node32"><a xlink:href="forwarder_8h.html" target="_top" xlink:title=" ">
<polygon fill="white" stroke="#666666" points="1695.5,-448 1561.5,-448 1561.5,-429 1695.5,-429 1695.5,-448"/>
<text text-anchor="middle" x="1628.5" y="-436" font-family="Helvetica,sans-Serif" font-size="10.00">src/node/rpc/forwarder.h</text>
</a>
</g>
</g>
<!-- Node16&#45;&gt;Node32 -->
<g id="edge48" class="edge">
<title>Node16&#45;&gt;Node32</title>
<path fill="none" stroke="#63b8ff" d="M1736.59,-480.42C1710.62,-470.59 1674.58,-456.95 1651.4,-448.17"/>
<polygon fill="#63b8ff" stroke="#63b8ff" points="1735.42,-483.72 1746.01,-483.98 1737.89,-477.17 1735.42,-483.72"/>
</g>
<!-- Node18 -->
<g id="node18" class="node">
<title>Node18</title>
<g id="a_node18"><a xlink:href="rpc__sessions_8h.html" target="_top" xlink:title=" ">
<polygon fill="white" stroke="#666666" points="2289.5,-321.5 2143.5,-321.5 2143.5,-302.5 2289.5,-302.5 2289.5,-321.5"/>
<text text-anchor="middle" x="2216.5" y="-309.5" font-family="Helvetica,sans-Serif" font-size="10.00">src/enclave/rpc_sessions.h</text>
</a>
</g>
</g>
<!-- Node17&#45;&gt;Node18 -->
<g id="edge21" class="edge">
<title>Node17&#45;&gt;Node18</title>
<path fill="none" stroke="#63b8ff" d="M2216.5,-358.08C2216.5,-346.13 2216.5,-331.22 2216.5,-321.91"/>
<polygon fill="#63b8ff" stroke="#63b8ff" points="2213,-358.37 2216.5,-368.37 2220,-358.37 2213,-358.37"/>
</g>
<!-- Node18&#45;&gt;Node11 -->
<g id="edge22" class="edge">
<title>Node18&#45;&gt;Node11</title>
<path fill="none" stroke="#63b8ff" d="M2299.92,-308.97C2384.79,-303.87 2497.87,-286.81 2452.5,-231 2348.92,-103.58 1816.52,-73.74 1634.56,-67.21"/>
<polygon fill="#63b8ff" stroke="#63b8ff" points="2299.52,-305.49 2289.72,-309.54 2299.9,-312.48 2299.52,-305.49"/>
</g>
<!-- Node19 -->
<g id="node19" class="node">
<title>Node19</title>
<g id="a_node19"><a xlink:href="ccf__acme__client_8h.html" target="_top" xlink:title=" ">
<polygon fill="white" stroke="#666666" points="1946,-255.5 1797,-255.5 1797,-236.5 1946,-236.5 1946,-255.5"/>
<text text-anchor="middle" x="1871.5" y="-243.5" font-family="Helvetica,sans-Serif" font-size="10.00">src/node/ccf_acme_client.h</text>
</a>
</g>
</g>
<!-- Node18&#45;&gt;Node19 -->
<g id="edge23" class="edge">
<title>Node18&#45;&gt;Node19</title>
<path fill="none" stroke="#63b8ff" d="M2160.27,-300.57C2092.56,-288.01 1980.13,-267.15 1917.4,-255.51"/>
<polygon fill="#63b8ff" stroke="#63b8ff" points="2159.86,-304.05 2170.33,-302.44 2161.14,-297.17 2159.86,-304.05"/>
</g>
<!-- Node20 -->
<g id="node20" class="node">
<title>Node20</title>
<g id="a_node20"><a xlink:href="node__state_8h.html" target="_top" xlink:title=" ">
<polygon fill="white" stroke="#666666" points="1933.5,-189.5 1809.5,-189.5 1809.5,-170.5 1933.5,-170.5 1933.5,-189.5"/>
<text text-anchor="middle" x="1871.5" y="-177.5" font-family="Helvetica,sans-Serif" font-size="10.00">src/node/node_state.h</text>
</a>
</g>
</g>
<!-- Node18&#45;&gt;Node20 -->
<g id="edge28" class="edge">
<title>Node18&#45;&gt;Node20</title>
<path fill="none" stroke="#63b8ff" d="M2227.48,-293.56C2237.16,-275.74 2247.57,-248.3 2232.5,-231 2194.47,-187.34 2026.34,-180.55 1933.55,-180.23"/>
<polygon fill="#63b8ff" stroke="#63b8ff" points="2224.37,-291.95 2222.35,-302.34 2230.42,-295.48 2224.37,-291.95"/>
</g>
<!-- Node22 -->
<g id="node22" class="node">
<title>Node22</title>
<g id="a_node22"><a xlink:href="quote__endorsements__client_8h.html" target="_top" xlink:title=" ">
<polygon fill="white" stroke="#666666" points="2443.5,-261 2279.5,-261 2279.5,-231 2443.5,-231 2443.5,-261"/>
<text text-anchor="start" x="2287.5" y="-249" font-family="Helvetica,sans-Serif" font-size="10.00">src/node/quote_endorsements</text>
<text text-anchor="middle" x="2361.5" y="-238" font-family="Helvetica,sans-Serif" font-size="10.00">_client.h</text>
</a>
</g>
</g>
<!-- Node18&#45;&gt;Node22 -->
<g id="edge29" class="edge">
<title>Node18&#45;&gt;Node22</title>
<path fill="none" stroke="#63b8ff" d="M2245.46,-298.22C2269.75,-287.5 2304.41,-272.2 2329.52,-261.12"/>
<polygon fill="#63b8ff" stroke="#63b8ff" points="2243.79,-295.13 2236.06,-302.37 2246.62,-301.53 2243.79,-295.13"/>
</g>
<!-- Node23 -->
<g id="node23" class="node">
<title>Node23</title>
<g id="a_node23"><a xlink:href="resharing_8h.html" target="_top" xlink:title=" ">
<polygon fill="white" stroke="#666666" points="2223.5,-255.5 2107.5,-255.5 2107.5,-236.5 2223.5,-236.5 2223.5,-255.5"/>
<text text-anchor="middle" x="2165.5" y="-243.5" font-family="Helvetica,sans-Serif" font-size="10.00">src/node/resharing.h</text>
</a>
</g>
</g>
<!-- Node18&#45;&gt;Node23 -->
<g id="edge31" class="edge">
<title>Node18&#45;&gt;Node23</title>
<path fill="none" stroke="#63b8ff" d="M2203.17,-294.27C2193.38,-281.99 2180.48,-265.8 2172.6,-255.91"/>
<polygon fill="#63b8ff" stroke="#63b8ff" points="2200.65,-296.73 2209.62,-302.37 2206.13,-292.37 2200.65,-296.73"/>
</g>
<!-- Node19&#45;&gt;Node20 -->
<g id="edge24" class="edge">
<title>Node19&#45;&gt;Node20</title>
<path fill="none" stroke="#63b8ff" d="M1871.5,-226.08C1871.5,-214.13 1871.5,-199.22 1871.5,-189.91"/>
<polygon fill="#63b8ff" stroke="#63b8ff" points="1868,-226.37 1871.5,-236.37 1875,-226.37 1868,-226.37"/>
</g>
<!-- Node20&#45;&gt;Node11 -->
<g id="edge25" class="edge">
<title>Node20&#45;&gt;Node11</title>
<path fill="none" stroke="#63b8ff" d="M1871.59,-160.1C1870.59,-144.35 1866.51,-122.54 1852.5,-110 1821.21,-81.99 1706.93,-71.54 1634.7,-67.69"/>
<polygon fill="#63b8ff" stroke="#63b8ff" points="1868.1,-160.38 1871.87,-170.28 1875.1,-160.19 1868.1,-160.38"/>
</g>
<!-- Node21 -->
<g id="node21" class="node">
<title>Node21</title>
<g id="a_node21"><a xlink:href="gov__effects_8h.html" target="_top" xlink:title=" ">
<polygon fill="white" stroke="#666666" points="1843.5,-129 1699.5,-129 1699.5,-110 1843.5,-110 1843.5,-129"/>
<text text-anchor="middle" x="1771.5" y="-117" font-family="Helvetica,sans-Serif" font-size="10.00">src/node/rpc/gov_effects.h</text>
</a>
</g>
</g>
<!-- Node20&#45;&gt;Node21 -->
<g id="edge26" class="edge">
<title>Node20&#45;&gt;Node21</title>
<path fill="none" stroke="#63b8ff" d="M1848.03,-165.27C1828.94,-154.1 1802.59,-138.69 1786.32,-129.17"/>
<polygon fill="#63b8ff" stroke="#63b8ff" points="1846.35,-168.34 1856.74,-170.37 1849.88,-162.3 1846.35,-168.34"/>
</g>
<!-- Node21&#45;&gt;Node11 -->
<g id="edge27" class="edge">
<title>Node21&#45;&gt;Node11</title>
<path fill="none" stroke="#63b8ff" d="M1729.7,-107.31C1692.65,-97.39 1639.33,-83.12 1605.56,-74.08"/>
<polygon fill="#63b8ff" stroke="#63b8ff" points="1729.12,-110.78 1739.69,-109.98 1730.93,-104.02 1729.12,-110.78"/>
</g>
<!-- Node22&#45;&gt;Node20 -->
<g id="edge30" class="edge">
<title>Node22&#45;&gt;Node20</title>
<path fill="none" stroke="#63b8ff" d="M2269.33,-231.52C2268.04,-231.35 2266.77,-231.17 2265.5,-231 2148.33,-215.02 2011.33,-198.01 1933.65,-188.52"/>
<polygon fill="#63b8ff" stroke="#63b8ff" points="2268.91,-235 2279.3,-232.91 2269.87,-228.07 2268.91,-235"/>
</g>
<!-- Node23&#45;&gt;Node20 -->
<g id="edge32" class="edge">
<title>Node23&#45;&gt;Node20</title>
<path fill="none" stroke="#63b8ff" d="M2116.15,-234.26C2058.31,-221.67 1963.63,-201.06 1910.61,-189.51"/>
<polygon fill="#63b8ff" stroke="#63b8ff" points="2115.64,-237.73 2126.15,-236.44 2117.13,-230.89 2115.64,-237.73"/>
</g>
<!-- Node24&#45;&gt;Node18 -->
<g id="edge34" class="edge">
<title>Node24&#45;&gt;Node18</title>
<path fill="none" stroke="#63b8ff" d="M1986.11,-425.44C2008.43,-416.95 2038.56,-404.99 2064.5,-393 2115.66,-369.36 2174.13,-337.02 2201.23,-321.71"/>
<polygon fill="#63b8ff" stroke="#63b8ff" points="1984.87,-422.17 1976.75,-428.98 1987.35,-428.72 1984.87,-422.17"/>
</g>
<!-- Node26 -->
<g id="node26" class="node">
<title>Node26</title>
<g id="a_node26"><a xlink:href="orc__requests_8h.html" target="_top" xlink:title=" ">
<polygon fill="white" stroke="#666666" points="1743,-393 1624,-393 1624,-363 1743,-363 1743,-393"/>
<text text-anchor="start" x="1632" y="-381" font-family="Helvetica,sans-Serif" font-size="10.00">src/consensus/aft/orc</text>
<text text-anchor="middle" x="1683.5" y="-370" font-family="Helvetica,sans-Serif" font-size="10.00">_requests.h</text>
</a>
</g>
</g>
<!-- Node25&#45;&gt;Node26 -->
<g id="edge36" class="edge">
<title>Node25&#45;&gt;Node26</title>
<path fill="none" stroke="#63b8ff" d="M1781.18,-424.72C1761.29,-415.41 1734.35,-402.8 1713.79,-393.18"/>
<polygon fill="#63b8ff" stroke="#63b8ff" points="1779.78,-427.92 1790.32,-428.99 1782.75,-421.58 1779.78,-427.92"/>
</g>
<!-- Node27 -->
<g id="node27" class="node">
<title>Node27</title>
<g id="a_node27"><a xlink:href="raft_8h.html" target="_top" xlink:title=" ">
<polygon fill="white" stroke="#666666" points="1967,-321.5 1838,-321.5 1838,-302.5 1967,-302.5 1967,-321.5"/>
<text text-anchor="middle" x="1902.5" y="-309.5" font-family="Helvetica,sans-Serif" font-size="10.00">src/consensus/aft/raft.h</text>
</a>
</g>
</g>
<!-- Node25&#45;&gt;Node27 -->
<g id="edge43" class="edge">
<title>Node25&#45;&gt;Node27</title>
<path fill="none" stroke="#63b8ff" d="M1839.9,-424.62C1854.19,-417.29 1870.17,-406.8 1880.5,-393 1896.99,-370.98 1901.12,-337.28 1902.15,-321.59"/>
<polygon fill="#63b8ff" stroke="#63b8ff" points="1838.33,-421.49 1830.84,-428.97 1841.37,-427.8 1838.33,-421.49"/>
</g>
<!-- Node30 -->
<g id="node30" class="node">
<title>Node30</title>
<g id="a_node30"><a xlink:href="http__node__client_8h.html" target="_top" xlink:title=" ">
<polygon fill="white" stroke="#666666" points="1871.5,-393 1761.5,-393 1761.5,-363 1871.5,-363 1871.5,-393"/>
<text text-anchor="start" x="1769.5" y="-381" font-family="Helvetica,sans-Serif" font-size="10.00">src/node/http_node</text>
<text text-anchor="middle" x="1816.5" y="-370" font-family="Helvetica,sans-Serif" font-size="10.00">_client.h</text>
</a>
</g>
</g>
<!-- Node25&#45;&gt;Node30 -->
<g id="edge44" class="edge">
<title>Node25&#45;&gt;Node30</title>
<path fill="none" stroke="#63b8ff" d="M1811.04,-418.93C1812.18,-410.58 1813.51,-400.87 1814.57,-393.11"/>
<polygon fill="#63b8ff" stroke="#63b8ff" points="1807.57,-418.49 1809.68,-428.87 1814.5,-419.43 1807.57,-418.49"/>
</g>
<!-- Node31 -->
<g id="node31" class="node">
<title>Node31</title>
<g id="a_node31"><a xlink:href="retired__nodes__cleanup_8h.html" target="_top" xlink:title=" ">
<polygon fill="white" stroke="#666666" points="2055.5,-393 1927.5,-393 1927.5,-363 2055.5,-363 2055.5,-393"/>
<text text-anchor="start" x="1935.5" y="-381" font-family="Helvetica,sans-Serif" font-size="10.00">src/node/retired_nodes</text>
<text text-anchor="middle" x="1991.5" y="-370" font-family="Helvetica,sans-Serif" font-size="10.00">_cleanup.h</text>
</a>
</g>
</g>
<!-- Node25&#45;&gt;Node31 -->
<g id="edge46" class="edge">
<title>Node25&#45;&gt;Node31</title>
<path fill="none" stroke="#63b8ff" d="M1845,-425.83C1874.51,-416.4 1916.16,-403.09 1947.5,-393.06"/>
<polygon fill="#63b8ff" stroke="#63b8ff" points="1843.57,-422.61 1835.11,-428.99 1845.7,-429.28 1843.57,-422.61"/>
</g>
<!-- Node26&#45;&gt;Node27 -->
<g id="edge37" class="edge">
<title>Node26&#45;&gt;Node27</title>
<path fill="none" stroke="#63b8ff" d="M1741.23,-360.13C1783.74,-347.71 1839.77,-331.33 1873.35,-321.52"/>
<polygon fill="#63b8ff" stroke="#63b8ff" points="1740.18,-356.79 1731.56,-362.95 1742.14,-363.51 1740.18,-356.79"/>
</g>
<!-- Node28 -->
<g id="node28" class="node">
<title>Node28</title>
<g id="a_node28"><a xlink:href="node__frontend_8h.html" target="_top" xlink:title=" ">
<polygon fill="white" stroke="#666666" points="1781.5,-321.5 1623.5,-321.5 1623.5,-302.5 1781.5,-302.5 1781.5,-321.5"/>
<text text-anchor="middle" x="1702.5" y="-309.5" font-family="Helvetica,sans-Serif" font-size="10.00">src/node/rpc/node_frontend.h</text>
</a>
</g>
</g>
<!-- Node26&#45;&gt;Node28 -->
<g id="edge39" class="edge">
<title>Node26&#45;&gt;Node28</title>
<path fill="none" stroke="#63b8ff" d="M1690.64,-352.94C1693.87,-342.06 1697.49,-329.86 1699.87,-321.84"/>
<polygon fill="#63b8ff" stroke="#63b8ff" points="1687.21,-352.21 1687.72,-362.8 1693.92,-354.21 1687.21,-352.21"/>
</g>
<!-- Node27&#45;&gt;Node20 -->
<g id="edge38" class="edge">
<title>Node27&#45;&gt;Node20</title>
<path fill="none" stroke="#63b8ff" d="M1843.99,-299.42C1822.82,-292.1 1801.06,-280.22 1788.5,-261 1781.21,-249.84 1781.94,-242.61 1788.5,-231 1800.25,-210.2 1824.5,-197.09 1843.77,-189.54"/>
<polygon fill="#63b8ff" stroke="#63b8ff" points="1843.05,-302.79 1853.64,-302.47 1845.16,-296.12 1843.05,-302.79"/>
</g>
<!-- Node28&#45;&gt;Node11 -->
<g id="edge40" class="edge">
<title>Node28&#45;&gt;Node11</title>
<path fill="none" stroke="#63b8ff" d="M1695.7,-292.45C1681.98,-256.05 1648.91,-173.31 1609.5,-110 1601.2,-96.67 1589.43,-82.84 1581.64,-74.21"/>
<polygon fill="#63b8ff" stroke="#63b8ff" points="1692.56,-294.03 1699.32,-302.19 1699.12,-291.59 1692.56,-294.03"/>
</g>
<!-- Node29 -->
<g id="node29" class="node">
<title>Node29</title>
<g id="a_node29"><a xlink:href="jwt__key__auto__refresh_8h.html" target="_top" xlink:title=" ">
<polygon fill="white" stroke="#666666" points="2089,-261 1964,-261 1964,-231 2089,-231 2089,-261"/>
<text text-anchor="start" x="1972" y="-249" font-family="Helvetica,sans-Serif" font-size="10.00">src/node/jwt_key_auto</text>
<text text-anchor="middle" x="2026.5" y="-238" font-family="Helvetica,sans-Serif" font-size="10.00">_refresh.h</text>
</a>
</g>
</g>
<!-- Node28&#45;&gt;Node29 -->
<g id="edge41" class="edge">
<title>Node28&#45;&gt;Node29</title>
<path fill="none" stroke="#63b8ff" d="M1755.77,-300.48C1812.89,-289.19 1903.5,-271.3 1963.96,-259.35"/>
<polygon fill="#63b8ff" stroke="#63b8ff" points="1754.99,-297.06 1745.86,-302.44 1756.35,-303.93 1754.99,-297.06"/>
</g>
<!-- Node29&#45;&gt;Node20 -->
<g id="edge42" class="edge">
<title>Node29&#45;&gt;Node20</title>
<path fill="none" stroke="#63b8ff" d="M1983.15,-227.1C1953.4,-214.82 1915.25,-199.06 1892.13,-189.52"/>
<polygon fill="#63b8ff" stroke="#63b8ff" points="1981.91,-230.37 1992.48,-230.95 1984.58,-223.9 1981.91,-230.37"/>
</g>
<!-- Node30&#45;&gt;Node20 -->
<g id="edge45" class="edge">
<title>Node30&#45;&gt;Node20</title>
<path fill="none" stroke="#63b8ff" d="M1808.83,-353.24C1803.68,-337.32 1796.72,-315.89 1790.5,-297 1785.23,-280.98 1781.2,-277.65 1778.5,-261 1776.36,-247.84 1771.66,-242.44 1778.5,-231 1791.29,-209.6 1816.74,-196.83 1837.79,-189.55"/>
<polygon fill="#63b8ff" stroke="#63b8ff" points="1805.52,-354.39 1811.93,-362.83 1812.18,-352.24 1805.52,-354.39"/>
</g>
<!-- Node31&#45;&gt;Node27 -->
<g id="edge47" class="edge">
<title>Node31&#45;&gt;Node27</title>
<path fill="none" stroke="#63b8ff" d="M1963.51,-356.87C1947.04,-345.03 1927.04,-330.65 1914.54,-321.66"/>
<polygon fill="#63b8ff" stroke="#63b8ff" points="1961.59,-359.8 1971.75,-362.8 1965.67,-354.12 1961.59,-359.8"/>
</g>
<!-- Node32&#45;&gt;Node11 -->
<g id="edge49" class="edge">
<title>Node32&#45;&gt;Node11</title>
<path fill="none" stroke="#63b8ff" d="M1620.56,-419.46C1610.8,-395.59 1595.5,-351.98 1595.5,-313 1595.5,-313 1595.5,-313 1595.5,-179 1595.5,-139.26 1582.34,-93.1 1576.38,-74.22"/>
<polygon fill="#63b8ff" stroke="#63b8ff" points="1617.46,-421.11 1624.58,-428.95 1623.91,-418.38 1617.46,-421.11"/>
</g>
<!-- Node33 -->
<g id="node33" class="node">
<title>Node33</title>
<g id="a_node33"><a xlink:href="frontend_8h.html" target="_top" xlink:title=" ">
<polygon fill="white" stroke="#666666" points="1567,-387.5 1438,-387.5 1438,-368.5 1567,-368.5 1567,-387.5"/>
<text text-anchor="middle" x="1502.5" y="-375.5" font-family="Helvetica,sans-Serif" font-size="10.00">src/node/rpc/frontend.h</text>
</a>
</g>
</g>
<!-- Node32&#45;&gt;Node33 -->
<g id="edge50" class="edge">
<title>Node32&#45;&gt;Node33</title>
<path fill="none" stroke="#63b8ff" d="M1600.79,-424.63C1576.49,-413.35 1541.85,-397.27 1520.84,-387.52"/>
<polygon fill="#63b8ff" stroke="#63b8ff" points="1599.63,-427.96 1610.18,-428.99 1602.58,-421.61 1599.63,-427.96"/>
</g>
<!-- Node33&#45;&gt;Node15 -->
<g id="edge58" class="edge">
<title>Node33&#45;&gt;Node15</title>
<path fill="none" stroke="#63b8ff" d="M1459.52,-365.86C1410.8,-353.24 1332.44,-332.94 1288.36,-321.51"/>
<polygon fill="#63b8ff" stroke="#63b8ff" points="1458.89,-369.31 1469.44,-368.44 1460.64,-362.54 1458.89,-369.31"/>
</g>
<!-- Node33&#45;&gt;Node20 -->
<g id="edge54" class="edge">
<title>Node33&#45;&gt;Node20</title>
<path fill="none" stroke="#63b8ff" d="M1521.16,-361.93C1542.79,-344.88 1579.91,-316.9 1614.5,-297 1697.24,-249.39 1803.05,-207.01 1848.77,-189.51"/>
<polygon fill="#63b8ff" stroke="#63b8ff" points="1518.79,-359.34 1513.15,-368.3 1523.15,-364.82 1518.79,-359.34"/>
</g>
<!-- Node33&#45;&gt;Node28 -->
<g id="edge57" class="edge">
<title>Node33&#45;&gt;Node28</title>
<path fill="none" stroke="#63b8ff" d="M1539.24,-365.24C1578.71,-352.61 1640.48,-332.85 1675.64,-321.6"/>
<polygon fill="#63b8ff" stroke="#63b8ff" points="1537.93,-361.99 1529.47,-368.37 1540.06,-368.65 1537.93,-361.99"/>
</g>
<!-- Node33&#45;&gt;Node34 -->
<g id="edge51" class="edge">
<title>Node33&#45;&gt;Node34</title>
<path fill="none" stroke="#63b8ff" d="M1483.54,-362.02C1470.2,-351.48 1452.46,-337.46 1439.37,-327.12"/>
<polygon fill="#63b8ff" stroke="#63b8ff" points="1481.56,-364.92 1491.58,-368.37 1485.9,-359.42 1481.56,-364.92"/>
</g>
<!-- Node35 -->
<g id="node35" class="node">
<title>Node35</title>
<g id="a_node35"><a xlink:href="member__frontend_8h.html" target="_top" xlink:title=" ">
<polygon fill="white" stroke="#666666" points="1567.5,-195 1447.5,-195 1447.5,-165 1567.5,-165 1567.5,-195"/>
<text text-anchor="start" x="1455.5" y="-183" font-family="Helvetica,sans-Serif" font-size="10.00">src/node/rpc/member</text>
<text text-anchor="middle" x="1507.5" y="-172" font-family="Helvetica,sans-Serif" font-size="10.00">_frontend.h</text>
</a>
</g>
</g>
<!-- Node33&#45;&gt;Node35 -->
<g id="edge55" class="edge">
<title>Node33&#45;&gt;Node35</title>
<path fill="none" stroke="#63b8ff" d="M1502.98,-358.09C1503.98,-318.9 1506.26,-229.61 1507.14,-195.04"/>
<polygon fill="#63b8ff" stroke="#63b8ff" points="1499.48,-358.24 1502.72,-368.33 1506.48,-358.42 1499.48,-358.24"/>
</g>
<!-- Node34&#45;&gt;Node11 -->
<g id="edge52" class="edge">
<title>Node34&#45;&gt;Node11</title>
<path fill="none" stroke="#63b8ff" d="M1418.71,-286.84C1416.37,-256.3 1416.37,-203.14 1438.5,-165 1465.17,-119.04 1522.42,-88.04 1553.1,-74.03"/>
<polygon fill="#63b8ff" stroke="#63b8ff" points="1415.24,-287.35 1419.64,-296.99 1422.21,-286.71 1415.24,-287.35"/>
</g>
<!-- Node34&#45;&gt;Node19 -->
<g id="edge53" class="edge">
<title>Node34&#45;&gt;Node19</title>
<path fill="none" stroke="#63b8ff" d="M1501.84,-299.57C1590.65,-286.94 1731.66,-266.89 1811.39,-255.55"/>
<polygon fill="#63b8ff" stroke="#63b8ff" points="1501.22,-296.13 1491.81,-301 1502.21,-303.06 1501.22,-296.13"/>
</g>
<!-- Node35&#45;&gt;Node11 -->
<g id="edge56" class="edge">
<title>Node35&#45;&gt;Node11</title>
<path fill="none" stroke="#63b8ff" d="M1521.05,-155.7C1535.73,-130.45 1558.39,-91.48 1568.42,-74.23"/>
<polygon fill="#63b8ff" stroke="#63b8ff" points="1517.86,-154.22 1515.86,-164.63 1523.91,-157.74 1517.86,-154.22"/>
</g>
<!-- Node36&#45;&gt;Node17 -->
<g id="edge62" class="edge">
<title>Node36&#45;&gt;Node17</title>
<path fill="none" stroke="#63b8ff" d="M2076.62,-489.11C2141.96,-484.5 2224.97,-473.62 2246.5,-448 2261.96,-429.6 2239.7,-402 2225.95,-387.94"/>
<polygon fill="#63b8ff" stroke="#63b8ff" points="2076.05,-485.64 2066.3,-489.8 2076.51,-492.62 2076.05,-485.64"/>
</g>
<!-- Node36&#45;&gt;Node24 -->
<g id="edge63" class="edge">
<title>Node36&#45;&gt;Node24</title>
<path fill="none" stroke="#63b8ff" d="M1980.12,-475.67C1973.36,-466.5 1965.29,-455.52 1959.82,-448.09"/>
<polygon fill="#63b8ff" stroke="#63b8ff" points="1977.31,-477.77 1986.06,-483.75 1982.95,-473.62 1977.31,-477.77"/>
</g>
<!-- Node36&#45;&gt;Node29 -->
<g id="edge64" class="edge">
<title>Node36&#45;&gt;Node29</title>
<path fill="none" stroke="#63b8ff" d="M2009.43,-476.37C2027.22,-458.12 2054.04,-426.54 2064.5,-393 2079.39,-345.24 2050.91,-287.48 2035.49,-261.22"/>
<polygon fill="#63b8ff" stroke="#63b8ff" points="2006.61,-474.25 2001.98,-483.78 2011.54,-479.21 2006.61,-474.25"/>
</g>
<!-- Node36&#45;&gt;Node32 -->
<g id="edge65" class="edge">
<title>Node36&#45;&gt;Node32</title>
<path fill="none" stroke="#63b8ff" d="M1923.78,-482.49C1855.44,-472.54 1751.72,-457.44 1687.14,-448.04"/>
<polygon fill="#63b8ff" stroke="#63b8ff" points="1923.62,-486.01 1934.02,-483.98 1924.63,-479.08 1923.62,-486.01"/>
</g>
<!-- Node37 -->
<g id="node37" class="node">
<title>Node37</title>
<g id="a_node37"><a xlink:href="http2__parser_8h.html" target="_top" xlink:title=" ">
<polygon fill="white" stroke="#666666" points="2237.5,-448 2111.5,-448 2111.5,-429 2237.5,-429 2237.5,-448"/>
<text text-anchor="middle" x="2174.5" y="-436" font-family="Helvetica,sans-Serif" font-size="10.00">src/http/http2_parser.h</text>
</a>
</g>
</g>
<!-- Node36&#45;&gt;Node37 -->
<g id="edge60" class="edge">
<title>Node36&#45;&gt;Node37</title>
<path fill="none" stroke="#63b8ff" d="M2031.36,-481.18C2065.4,-471.27 2114.12,-457.08 2145.03,-448.08"/>
<polygon fill="#63b8ff" stroke="#63b8ff" points="2030.36,-477.83 2021.74,-483.98 2032.32,-484.55 2030.36,-477.83"/>
</g>
<!-- Node37&#45;&gt;Node17 -->
<g id="edge61" class="edge">
<title>Node37&#45;&gt;Node17</title>
<path fill="none" stroke="#63b8ff" d="M2186.61,-420.63C2194.35,-409.85 2204.06,-396.32 2210.28,-387.67"/>
<polygon fill="#63b8ff" stroke="#63b8ff" points="2183.69,-418.7 2180.7,-428.87 2189.37,-422.79 2183.69,-418.7"/>
</g>
</g>
</svg>
