<?xml version="1.0" encoding="UTF-8" standalone="no"?>
<!DOCTYPE svg PUBLIC "-//W3C//DTD SVG 1.1//EN"
 "http://www.w3.org/Graphics/SVG/1.1/DTD/svg11.dtd">
<!-- Generated by graphviz version 2.43.0 (0)
 -->
<!-- Title: src/common/configuration.h Pages: 1 -->
<svg width="2396pt" height="599pt"
 viewBox="0.00 0.00 2395.50 599.00" xmlns="http://www.w3.org/2000/svg" xmlns:xlink="http://www.w3.org/1999/xlink">
<g id="graph0" class="graph" transform="scale(1 1) rotate(0) translate(4 595)">
<title>src/common/configuration.h</title>
<!-- Node1 -->
<g id="node1" class="node">
<title>Node1</title>
<g id="a_node1"><a xlink:title=" ">
<polygon fill="#999999" stroke="#666666" points="570,-591 418,-591 418,-572 570,-572 570,-591"/>
<text text-anchor="middle" x="494" y="-579" font-family="Helvetica,sans-Serif" font-size="10.00">src/common/configuration.h</text>
</a>
</g>
</g>
<!-- Node2 -->
<g id="node2" class="node">
<title>Node2</title>
<g id="a_node2"><a xlink:href="host_2configuration_8h.html" target="_top" xlink:title=" ">
<polygon fill="white" stroke="#666666" points="350.5,-530.5 219.5,-530.5 219.5,-511.5 350.5,-511.5 350.5,-530.5"/>
<text text-anchor="middle" x="285" y="-518.5" font-family="Helvetica,sans-Serif" font-size="10.00">src/host/configuration.h</text>
</a>
</g>
</g>
<!-- Node1&#45;&gt;Node2 -->
<g id="edge1" class="edge">
<title>Node1&#45;&gt;Node2</title>
<path fill="none" stroke="#63b8ff" d="M453.81,-569.25C413.4,-557.94 351.97,-540.75 315.43,-530.52"/>
<polygon fill="#63b8ff" stroke="#63b8ff" points="453.04,-572.67 463.61,-571.99 454.92,-565.93 453.04,-572.67"/>
</g>
<!-- Node4 -->
<g id="node4" class="node">
<title>Node4</title>
<g id="a_node4"><a xlink:href="frontend_8h.html" target="_top" xlink:title=" ">
<polygon fill="white" stroke="#666666" points="641.5,-398.5 512.5,-398.5 512.5,-379.5 641.5,-379.5 641.5,-398.5"/>
<text text-anchor="middle" x="577" y="-386.5" font-family="Helvetica,sans-Serif" font-size="10.00">src/node/rpc/frontend.h</text>
</a>
</g>
</g>
<!-- Node1&#45;&gt;Node4 -->
<g id="edge3" class="edge">
<title>Node1&#45;&gt;Node4</title>
<path fill="none" stroke="#63b8ff" d="M505.39,-563.36C510.51,-555.26 516.43,-545.33 521,-536 545.62,-485.79 566.88,-421.85 574.24,-398.79"/>
<polygon fill="#63b8ff" stroke="#63b8ff" points="502.36,-561.6 499.86,-571.9 508.23,-565.41 502.36,-561.6"/>
</g>
<!-- Node15 -->
<g id="node15" class="node">
<title>Node15</title>
<g id="a_node15"><a xlink:href="node__call__types_8h.html" target="_top" xlink:title=" ">
<polygon fill="white" stroke="#666666" points="511.5,-536 386.5,-536 386.5,-506 511.5,-506 511.5,-536"/>
<text text-anchor="start" x="394.5" y="-524" font-family="Helvetica,sans-Serif" font-size="10.00">src/node/rpc/node_call</text>
<text text-anchor="middle" x="449" y="-513" font-family="Helvetica,sans-Serif" font-size="10.00">_types.h</text>
</a>
</g>
</g>
<!-- Node1&#45;&gt;Node15 -->
<g id="edge21" class="edge">
<title>Node1&#45;&gt;Node15</title>
<path fill="none" stroke="#63b8ff" d="M481.22,-563.88C474.47,-555.11 466.29,-544.48 459.86,-536.11"/>
<polygon fill="#63b8ff" stroke="#63b8ff" points="478.49,-566.08 487.36,-571.87 484.04,-561.81 478.49,-566.08"/>
</g>
<!-- Node21 -->
<g id="node21" class="node">
<title>Node21</title>
<g id="a_node21"><a xlink:href="node__interface_8h.html" target="_top" xlink:title=" ">
<polygon fill="white" stroke="#666666" points="1747.5,-530.5 1586.5,-530.5 1586.5,-511.5 1747.5,-511.5 1747.5,-530.5"/>
<text text-anchor="middle" x="1667" y="-518.5" font-family="Helvetica,sans-Serif" font-size="10.00">src/node/rpc/node_interface.h</text>
</a>
</g>
</g>
<!-- Node1&#45;&gt;Node21 -->
<g id="edge34" class="edge">
<title>Node1&#45;&gt;Node21</title>
<path fill="none" stroke="#63b8ff" d="M580.21,-576.2C799.09,-565.28 1373.94,-536.62 1586.49,-526.02"/>
<polygon fill="#63b8ff" stroke="#63b8ff" points="579.87,-572.71 570.06,-576.71 580.22,-579.7 579.87,-572.71"/>
</g>
<!-- Node3 -->
<g id="node3" class="node">
<title>Node3</title>
<g id="a_node3"><a xlink:href="host_2main_8cpp.html" target="_top" xlink:title=" ">
<polygon fill="white" stroke="#666666" points="300.5,-464.5 197.5,-464.5 197.5,-445.5 300.5,-445.5 300.5,-464.5"/>
<text text-anchor="middle" x="249" y="-452.5" font-family="Helvetica,sans-Serif" font-size="10.00">src/host/main.cpp</text>
</a>
</g>
</g>
<!-- Node2&#45;&gt;Node3 -->
<g id="edge2" class="edge">
<title>Node2&#45;&gt;Node3</title>
<path fill="none" stroke="#63b8ff" d="M275.18,-502.55C268.33,-490.36 259.47,-474.61 254.01,-464.91"/>
<polygon fill="#63b8ff" stroke="#63b8ff" points="272.19,-504.37 280.14,-511.37 278.29,-500.94 272.19,-504.37"/>
</g>
<!-- Node5 -->
<g id="node5" class="node">
<title>Node5</title>
<g id="a_node5"><a xlink:href="acme__challenge__frontend_8h.html" target="_top" xlink:title=" ">
<polygon fill="white" stroke="#666666" points="634,-338 494,-338 494,-308 634,-308 634,-338"/>
<text text-anchor="start" x="502" y="-326" font-family="Helvetica,sans-Serif" font-size="10.00">src/node/acme_challenge</text>
<text text-anchor="middle" x="564" y="-315" font-family="Helvetica,sans-Serif" font-size="10.00">_frontend.h</text>
</a>
</g>
</g>
<!-- Node4&#45;&gt;Node5 -->
<g id="edge4" class="edge">
<title>Node4&#45;&gt;Node5</title>
<path fill="none" stroke="#63b8ff" d="M573.21,-369.35C571.2,-359.47 568.78,-347.51 566.92,-338.36"/>
<polygon fill="#63b8ff" stroke="#63b8ff" points="569.83,-370.27 575.25,-379.37 576.69,-368.87 569.83,-370.27"/>
</g>
<!-- Node9 -->
<g id="node9" class="node">
<title>Node9</title>
<g id="a_node9"><a xlink:href="node__state_8h.html" target="_top" xlink:title=" ">
<polygon fill="white" stroke="#666666" points="674,-200.5 550,-200.5 550,-181.5 674,-181.5 674,-200.5"/>
<text text-anchor="middle" x="612" y="-188.5" font-family="Helvetica,sans-Serif" font-size="10.00">src/node/node_state.h</text>
</a>
</g>
</g>
<!-- Node4&#45;&gt;Node9 -->
<g id="edge12" class="edge">
<title>Node4&#45;&gt;Node9</title>
<path fill="none" stroke="#63b8ff" d="M534.13,-375.72C515.61,-368.05 495.76,-356.1 485,-338 478.19,-326.54 483.8,-321.28 485,-308 487.68,-278.31 478.48,-265.36 497,-242 514.38,-220.08 543.29,-207.56 567.77,-200.54"/>
<polygon fill="#63b8ff" stroke="#63b8ff" points="533.05,-379.05 543.64,-379.35 535.54,-372.51 533.05,-379.05"/>
</g>
<!-- Node11 -->
<g id="node11" class="node">
<title>Node11</title>
<g id="a_node11"><a xlink:href="member__frontend_8h.html" target="_top" xlink:title=" ">
<polygon fill="white" stroke="#666666" points="438,-338 318,-338 318,-308 438,-308 438,-338"/>
<text text-anchor="start" x="326" y="-326" font-family="Helvetica,sans-Serif" font-size="10.00">src/node/rpc/member</text>
<text text-anchor="middle" x="378" y="-315" font-family="Helvetica,sans-Serif" font-size="10.00">_frontend.h</text>
</a>
</g>
</g>
<!-- Node4&#45;&gt;Node11 -->
<g id="edge13" class="edge">
<title>Node4&#45;&gt;Node11</title>
<path fill="none" stroke="#63b8ff" d="M540.33,-376.21C506.89,-365.45 457.42,-349.54 421.89,-338.12"/>
<polygon fill="#63b8ff" stroke="#63b8ff" points="539.57,-379.64 550.16,-379.37 541.71,-372.98 539.57,-379.64"/>
</g>
<!-- Node12 -->
<g id="node12" class="node">
<title>Node12</title>
<g id="a_node12"><a xlink:href="node__frontend_8h.html" target="_top" xlink:title=" ">
<polygon fill="white" stroke="#666666" points="848,-332.5 690,-332.5 690,-313.5 848,-313.5 848,-332.5"/>
<text text-anchor="middle" x="769" y="-320.5" font-family="Helvetica,sans-Serif" font-size="10.00">src/node/rpc/node_frontend.h</text>
</a>
</g>
</g>
<!-- Node4&#45;&gt;Node12 -->
<g id="edge15" class="edge">
<title>Node4&#45;&gt;Node12</title>
<path fill="none" stroke="#63b8ff" d="M612.51,-376.16C650.41,-363.53 709.53,-343.82 743.21,-332.6"/>
<polygon fill="#63b8ff" stroke="#63b8ff" points="611.27,-372.89 602.89,-379.37 613.49,-379.53 611.27,-372.89"/>
</g>
<!-- Node14 -->
<g id="node14" class="node">
<title>Node14</title>
<g id="a_node14"><a xlink:href="user__frontend_8h.html" target="_top" xlink:title=" ">
<polygon fill="white" stroke="#666666" points="1097.5,-266.5 942.5,-266.5 942.5,-247.5 1097.5,-247.5 1097.5,-266.5"/>
<text text-anchor="middle" x="1020" y="-254.5" font-family="Helvetica,sans-Serif" font-size="10.00">src/node/rpc/user_frontend.h</text>
</a>
</g>
</g>
<!-- Node4&#45;&gt;Node14 -->
<g id="edge19" class="edge">
<title>Node4&#45;&gt;Node14</title>
<path fill="none" stroke="#63b8ff" d="M597.04,-372.98C610.17,-363.1 627.66,-349.86 643,-338 660.02,-324.84 661.24,-316.51 681,-308 782.9,-264.13 818.27,-288.34 928,-272 939.67,-270.26 952.16,-268.38 964.06,-266.57"/>
<polygon fill="#63b8ff" stroke="#63b8ff" points="594.63,-370.41 588.74,-379.22 598.83,-376.01 594.63,-370.41"/>
</g>
<!-- Node6 -->
<g id="node6" class="node">
<title>Node6</title>
<g id="a_node6"><a xlink:href="src_2enclave_2enclave_8h.html" target="_top" xlink:title=" ">
<polygon fill="white" stroke="#666666" points="1520,-74 1398,-74 1398,-55 1520,-55 1520,-74"/>
<text text-anchor="middle" x="1459" y="-62" font-family="Helvetica,sans-Serif" font-size="10.00">src/enclave/enclave.h</text>
</a>
</g>
</g>
<!-- Node5&#45;&gt;Node6 -->
<g id="edge5" class="edge">
<title>Node5&#45;&gt;Node6</title>
<path fill="none" stroke="#63b8ff" d="M644.5,-306.97C722.39,-292.4 828.9,-272.45 830,-272 950.98,-222.97 952.36,-154.74 1075,-110 1132.85,-88.9 1305.06,-75.18 1397.97,-69.11"/>
<polygon fill="#63b8ff" stroke="#63b8ff" points="643.38,-303.61 634.19,-308.89 644.66,-310.5 643.38,-303.61"/>
</g>
<!-- Node8 -->
<g id="node8" class="node">
<title>Node8</title>
<g id="a_node8"><a xlink:href="ccf__acme__client_8h.html" target="_top" xlink:title=" ">
<polygon fill="white" stroke="#666666" points="654.5,-266.5 505.5,-266.5 505.5,-247.5 654.5,-247.5 654.5,-266.5"/>
<text text-anchor="middle" x="580" y="-254.5" font-family="Helvetica,sans-Serif" font-size="10.00">src/node/ccf_acme_client.h</text>
</a>
</g>
</g>
<!-- Node5&#45;&gt;Node8 -->
<g id="edge7" class="edge">
<title>Node5&#45;&gt;Node8</title>
<path fill="none" stroke="#63b8ff" d="M570.01,-297.94C572.74,-287.06 575.78,-274.86 577.79,-266.84"/>
<polygon fill="#63b8ff" stroke="#63b8ff" points="566.58,-297.25 567.55,-307.8 573.37,-298.94 566.58,-297.25"/>
</g>
<!-- Node7 -->
<g id="node7" class="node">
<title>Node7</title>
<g id="a_node7"><a xlink:href="enclave_2main_8cpp.html" target="_top" xlink:title=" ">
<polygon fill="white" stroke="#666666" points="1519,-19 1399,-19 1399,0 1519,0 1519,-19"/>
<text text-anchor="middle" x="1459" y="-7" font-family="Helvetica,sans-Serif" font-size="10.00">src/enclave/main.cpp</text>
</a>
</g>
</g>
<!-- Node6&#45;&gt;Node7 -->
<g id="edge6" class="edge">
<title>Node6&#45;&gt;Node7</title>
<path fill="none" stroke="#63b8ff" d="M1459,-44.66C1459,-35.93 1459,-25.99 1459,-19.09"/>
<polygon fill="#63b8ff" stroke="#63b8ff" points="1455.5,-44.75 1459,-54.75 1462.5,-44.75 1455.5,-44.75"/>
</g>
<!-- Node8&#45;&gt;Node9 -->
<g id="edge8" class="edge">
<title>Node8&#45;&gt;Node9</title>
<path fill="none" stroke="#63b8ff" d="M588.91,-238.18C594.97,-226.05 602.75,-210.51 607.55,-200.91"/>
<polygon fill="#63b8ff" stroke="#63b8ff" points="585.66,-236.86 584.32,-247.37 591.92,-239.99 585.66,-236.86"/>
</g>
<!-- Node9&#45;&gt;Node6 -->
<g id="edge9" class="edge">
<title>Node9&#45;&gt;Node6</title>
<path fill="none" stroke="#63b8ff" d="M646.33,-178.15C699.82,-160.22 806.63,-126.53 900,-110 1079.03,-78.31 1294.33,-69.17 1397.72,-66.55"/>
<polygon fill="#63b8ff" stroke="#63b8ff" points="645.02,-174.9 636.67,-181.41 647.26,-181.53 645.02,-174.9"/>
</g>
<!-- Node10 -->
<g id="node10" class="node">
<title>Node10</title>
<g id="a_node10"><a xlink:href="gov__effects_8h.html" target="_top" xlink:title=" ">
<polygon fill="white" stroke="#666666" points="727,-134.5 583,-134.5 583,-115.5 727,-115.5 727,-134.5"/>
<text text-anchor="middle" x="655" y="-122.5" font-family="Helvetica,sans-Serif" font-size="10.00">src/node/rpc/gov_effects.h</text>
</a>
</g>
</g>
<!-- Node9&#45;&gt;Node10 -->
<g id="edge10" class="edge">
<title>Node9&#45;&gt;Node10</title>
<path fill="none" stroke="#63b8ff" d="M623.48,-172.91C631.7,-160.68 642.44,-144.7 649.02,-134.91"/>
<polygon fill="#63b8ff" stroke="#63b8ff" points="620.47,-171.12 617.8,-181.37 626.28,-175.02 620.47,-171.12"/>
</g>
<!-- Node10&#45;&gt;Node6 -->
<g id="edge11" class="edge">
<title>Node10&#45;&gt;Node6</title>
<path fill="none" stroke="#63b8ff" d="M737.48,-116.86C764.42,-114.59 794.48,-112.11 822,-110 1033.4,-93.76 1284.46,-76.95 1397.93,-69.48"/>
<polygon fill="#63b8ff" stroke="#63b8ff" points="736.99,-113.39 727.32,-117.72 737.58,-120.36 736.99,-113.39"/>
</g>
<!-- Node11&#45;&gt;Node6 -->
<g id="edge14" class="edge">
<title>Node11&#45;&gt;Node6</title>
<path fill="none" stroke="#63b8ff" d="M390.76,-299.09C417.68,-253.35 485.19,-151.53 574,-110 648.08,-75.36 1209.61,-67.56 1397.77,-65.92"/>
<polygon fill="#63b8ff" stroke="#63b8ff" points="387.61,-297.55 385.64,-307.96 393.67,-301.05 387.61,-297.55"/>
</g>
<!-- Node12&#45;&gt;Node6 -->
<g id="edge16" class="edge">
<title>Node12&#45;&gt;Node6</title>
<path fill="none" stroke="#63b8ff" d="M829.2,-311.78C837.2,-310.48 845.29,-309.19 853,-308 965.69,-290.63 1001.91,-316.22 1107,-272 1127.16,-263.52 1127.76,-254.07 1146,-242 1254.47,-170.22 1393.88,-98.28 1441.87,-74.06"/>
<polygon fill="#63b8ff" stroke="#63b8ff" points="828.46,-308.36 819.16,-313.43 829.6,-315.27 828.46,-308.36"/>
</g>
<!-- Node13 -->
<g id="node13" class="node">
<title>Node13</title>
<g id="a_node13"><a xlink:href="jwt__key__auto__refresh_8h.html" target="_top" xlink:title=" ">
<polygon fill="white" stroke="#666666" points="820.5,-272 695.5,-272 695.5,-242 820.5,-242 820.5,-272"/>
<text text-anchor="start" x="703.5" y="-260" font-family="Helvetica,sans-Serif" font-size="10.00">src/node/jwt_key_auto</text>
<text text-anchor="middle" x="758" y="-249" font-family="Helvetica,sans-Serif" font-size="10.00">_refresh.h</text>
</a>
</g>
</g>
<!-- Node12&#45;&gt;Node13 -->
<g id="edge17" class="edge">
<title>Node12&#45;&gt;Node13</title>
<path fill="none" stroke="#63b8ff" d="M765.79,-303.35C764.1,-293.47 762.04,-281.51 760.47,-272.36"/>
<polygon fill="#63b8ff" stroke="#63b8ff" points="762.37,-304.11 767.52,-313.37 769.27,-302.92 762.37,-304.11"/>
</g>
<!-- Node13&#45;&gt;Node9 -->
<g id="edge18" class="edge">
<title>Node13&#45;&gt;Node9</title>
<path fill="none" stroke="#63b8ff" d="M716.44,-237.78C688.52,-225.54 653.02,-209.98 631.43,-200.52"/>
<polygon fill="#63b8ff" stroke="#63b8ff" points="715.4,-241.15 725.96,-241.95 718.21,-234.73 715.4,-241.15"/>
</g>
<!-- Node14&#45;&gt;Node6 -->
<g id="edge20" class="edge">
<title>Node14&#45;&gt;Node6</title>
<path fill="none" stroke="#63b8ff" d="M1025.84,-237.36C1036.94,-205.35 1064.33,-140.42 1112,-110 1158.14,-80.55 1311.34,-70.51 1397.95,-67.15"/>
<polygon fill="#63b8ff" stroke="#63b8ff" points="1022.41,-236.61 1022.59,-247.2 1029.05,-238.81 1022.41,-236.61"/>
</g>
<!-- Node16 -->
<g id="node16" class="node">
<title>Node16</title>
<g id="a_node16"><a xlink:href="call__types_8h.html" target="_top" xlink:title=" ">
<polygon fill="white" stroke="#666666" points="455.5,-464.5 318.5,-464.5 318.5,-445.5 455.5,-445.5 455.5,-464.5"/>
<text text-anchor="middle" x="387" y="-452.5" font-family="Helvetica,sans-Serif" font-size="10.00">src/node/rpc/call_types.h</text>
</a>
</g>
</g>
<!-- Node15&#45;&gt;Node16 -->
<g id="edge22" class="edge">
<title>Node15&#45;&gt;Node16</title>
<path fill="none" stroke="#63b8ff" d="M428.27,-498.6C417.12,-487.1 403.98,-473.52 395.57,-464.84"/>
<polygon fill="#63b8ff" stroke="#63b8ff" points="425.77,-501.05 435.24,-505.8 430.8,-496.18 425.77,-501.05"/>
</g>
<!-- Node16&#45;&gt;Node11 -->
<g id="edge27" class="edge">
<title>Node16&#45;&gt;Node11</title>
<path fill="none" stroke="#63b8ff" d="M385.71,-435.32C383.88,-409 380.6,-361.61 378.97,-338.07"/>
<polygon fill="#63b8ff" stroke="#63b8ff" points="382.23,-435.74 386.41,-445.47 389.21,-435.25 382.23,-435.74"/>
</g>
<!-- Node17 -->
<g id="node17" class="node">
<title>Node17</title>
<g id="a_node17"><a xlink:href="common__endpoint__registry_8cpp.html" target="_top" xlink:title=" ">
<polygon fill="white" stroke="#666666" points="128,-338 0,-338 0,-308 128,-308 128,-338"/>
<text text-anchor="start" x="8" y="-326" font-family="Helvetica,sans-Serif" font-size="10.00">src/endpoints/common</text>
<text text-anchor="middle" x="64" y="-315" font-family="Helvetica,sans-Serif" font-size="10.00">_endpoint_registry.cpp</text>
</a>
</g>
</g>
<!-- Node16&#45;&gt;Node17 -->
<g id="edge23" class="edge">
<title>Node16&#45;&gt;Node17</title>
<path fill="none" stroke="#63b8ff" d="M331.13,-443.37C293.02,-435.1 241.88,-422 199,-404 155.54,-385.76 109.17,-355.64 83.67,-338.02"/>
<polygon fill="#63b8ff" stroke="#63b8ff" points="330.51,-446.81 341.02,-445.47 331.97,-439.97 330.51,-446.81"/>
</g>
<!-- Node18 -->
<g id="node18" class="node">
<title>Node18</title>
<g id="a_node18"><a xlink:href="wrap_8cpp.html" target="_top" xlink:title=" ">
<polygon fill="white" stroke="#666666" points="1243.5,-266.5 1154.5,-266.5 1154.5,-247.5 1243.5,-247.5 1243.5,-266.5"/>
<text text-anchor="middle" x="1199" y="-254.5" font-family="Helvetica,sans-Serif" font-size="10.00">src/js/wrap.cpp</text>
</a>
</g>
</g>
<!-- Node16&#45;&gt;Node18 -->
<g id="edge24" class="edge">
<title>Node16&#45;&gt;Node18</title>
<path fill="none" stroke="#63b8ff" d="M452.88,-443.83C506.59,-434.99 584.21,-420.96 651,-404 744.18,-380.34 766.46,-370.33 857,-338 891.2,-325.79 898.04,-317.83 933,-308 1022.9,-282.73 1048.53,-290.79 1140,-272 1147.94,-270.37 1156.44,-268.45 1164.45,-266.57"/>
<polygon fill="#63b8ff" stroke="#63b8ff" points="452.11,-440.41 442.8,-445.48 453.24,-447.32 452.11,-440.41"/>
</g>
<!-- Node19 -->
<g id="node19" class="node">
<title>Node19</title>
<g id="a_node19"><a xlink:href="resharing_8h.html" target="_top" xlink:title=" ">
<polygon fill="white" stroke="#666666" points="262,-332.5 146,-332.5 146,-313.5 262,-313.5 262,-332.5"/>
<text text-anchor="middle" x="204" y="-320.5" font-family="Helvetica,sans-Serif" font-size="10.00">src/node/resharing.h</text>
</a>
</g>
</g>
<!-- Node16&#45;&gt;Node19 -->
<g id="edge25" class="edge">
<title>Node16&#45;&gt;Node19</title>
<path fill="none" stroke="#63b8ff" d="M339.83,-443.07C291.84,-431.52 223.35,-413.67 215,-404 197.41,-383.63 200.02,-348.81 202.42,-332.68"/>
<polygon fill="#63b8ff" stroke="#63b8ff" points="339.19,-446.52 349.73,-445.44 340.81,-439.71 339.19,-446.52"/>
</g>
<!-- Node20 -->
<g id="node20" class="node">
<title>Node20</title>
<g id="a_node20"><a xlink:href="serialization_8h.html" target="_top" xlink:title=" ">
<polygon fill="white" stroke="#666666" points="372,-398.5 224,-398.5 224,-379.5 372,-379.5 372,-398.5"/>
<text text-anchor="middle" x="298" y="-386.5" font-family="Helvetica,sans-Serif" font-size="10.00">src/node/rpc/serialization.h</text>
</a>
</g>
</g>
<!-- Node16&#45;&gt;Node20 -->
<g id="edge28" class="edge">
<title>Node16&#45;&gt;Node20</title>
<path fill="none" stroke="#63b8ff" d="M366.61,-439.33C349.15,-426.78 324.61,-409.13 310.1,-398.7"/>
<polygon fill="#63b8ff" stroke="#63b8ff" points="364.83,-442.37 375,-445.37 368.92,-436.69 364.83,-442.37"/>
</g>
<!-- Node19&#45;&gt;Node9 -->
<g id="edge26" class="edge">
<title>Node19&#45;&gt;Node9</title>
<path fill="none" stroke="#63b8ff" d="M214.3,-304.75C226.5,-285.98 248.66,-256.68 276,-242 322.18,-217.2 466.22,-202.73 549.96,-196.21"/>
<polygon fill="#63b8ff" stroke="#63b8ff" points="211.18,-303.14 208.85,-313.47 217.11,-306.85 211.18,-303.14"/>
</g>
<!-- Node20&#45;&gt;Node9 -->
<g id="edge30" class="edge">
<title>Node20&#45;&gt;Node9</title>
<path fill="none" stroke="#63b8ff" d="M295.54,-369.27C294.28,-351.59 295.28,-325.3 309,-308 367.72,-233.97 479.58,-207.15 549.74,-197.46"/>
<polygon fill="#63b8ff" stroke="#63b8ff" points="292.08,-369.86 296.58,-379.45 299.04,-369.15 292.08,-369.86"/>
</g>
<!-- Node20&#45;&gt;Node11 -->
<g id="edge32" class="edge">
<title>Node20&#45;&gt;Node11</title>
<path fill="none" stroke="#63b8ff" d="M316.73,-373.02C329.91,-362.48 347.43,-348.46 360.36,-338.12"/>
<polygon fill="#63b8ff" stroke="#63b8ff" points="314.41,-370.39 308.79,-379.37 318.78,-375.85 314.41,-370.39"/>
</g>
<!-- Node20&#45;&gt;Node12 -->
<g id="edge33" class="edge">
<title>Node20&#45;&gt;Node12</title>
<path fill="none" stroke="#63b8ff" d="M371.1,-378.07C463.1,-365.57 619.56,-344.31 706.34,-332.51"/>
<polygon fill="#63b8ff" stroke="#63b8ff" points="370.47,-374.62 361.03,-379.44 371.41,-381.56 370.47,-374.62"/>
</g>
<!-- Node20&#45;&gt;Node17 -->
<g id="edge29" class="edge">
<title>Node20&#45;&gt;Node17</title>
<path fill="none" stroke="#63b8ff" d="M256.65,-376.69C217.32,-365.93 158.02,-349.72 115.61,-338.12"/>
<polygon fill="#63b8ff" stroke="#63b8ff" points="255.87,-380.11 266.44,-379.37 257.72,-373.35 255.87,-380.11"/>
</g>
<!-- Node20&#45;&gt;Node19 -->
<g id="edge31" class="edge">
<title>Node20&#45;&gt;Node19</title>
<path fill="none" stroke="#63b8ff" d="M276.97,-373.68C258.5,-361.11 232.24,-343.23 216.78,-332.7"/>
<polygon fill="#63b8ff" stroke="#63b8ff" points="275.09,-376.63 285.32,-379.37 279.03,-370.85 275.09,-376.63"/>
</g>
<!-- Node21&#45;&gt;Node11 -->
<g id="edge60" class="edge">
<title>Node21&#45;&gt;Node11</title>
<path fill="none" stroke="#63b8ff" d="M1576,-518.65C1333.01,-514.66 681.14,-501.13 589,-470 505.02,-441.62 424.1,-369.14 392.23,-338.27"/>
<polygon fill="#63b8ff" stroke="#63b8ff" points="1576.16,-522.16 1586.21,-518.82 1576.27,-515.16 1576.16,-522.16"/>
</g>
<!-- Node21&#45;&gt;Node12 -->
<g id="edge68" class="edge">
<title>Node21&#45;&gt;Node12</title>
<path fill="none" stroke="#63b8ff" d="M1608.71,-509.64C1555.13,-499.95 1473.55,-484.8 1403,-470 1173.62,-421.89 899.56,-355.85 803.95,-332.55"/>
<polygon fill="#63b8ff" stroke="#63b8ff" points="1608.25,-513.11 1618.71,-511.44 1609.49,-506.22 1608.25,-513.11"/>
</g>
<!-- Node21&#45;&gt;Node18 -->
<g id="edge35" class="edge">
<title>Node21&#45;&gt;Node18</title>
<path fill="none" stroke="#63b8ff" d="M1681.49,-503.77C1714.36,-465 1787.76,-365.91 1735,-308 1702.15,-271.95 1366.47,-261.44 1243.68,-258.8"/>
<polygon fill="#63b8ff" stroke="#63b8ff" points="1678.71,-501.64 1674.8,-511.49 1684,-506.23 1678.71,-501.64"/>
</g>
<!-- Node22 -->
<g id="node22" class="node">
<title>Node22</title>
<g id="a_node22"><a xlink:href="wrap_8h.html" target="_top" xlink:title=" ">
<polygon fill="white" stroke="#666666" points="1265,-398.5 1187,-398.5 1187,-379.5 1265,-379.5 1265,-398.5"/>
<text text-anchor="middle" x="1226" y="-386.5" font-family="Helvetica,sans-Serif" font-size="10.00">src/js/wrap.h</text>
</a>
</g>
</g>
<!-- Node21&#45;&gt;Node22 -->
<g id="edge36" class="edge">
<title>Node21&#45;&gt;Node22</title>
<path fill="none" stroke="#63b8ff" d="M1628.33,-508.6C1541.37,-482.97 1332.03,-421.26 1255.04,-398.56"/>
<polygon fill="#63b8ff" stroke="#63b8ff" points="1627.48,-512 1638.06,-511.47 1629.46,-505.29 1627.48,-512"/>
</g>
<!-- Node29 -->
<g id="node29" class="node">
<title>Node29</title>
<g id="a_node29"><a xlink:href="historical__queries_8h.html" target="_top" xlink:title=" ">
<polygon fill="white" stroke="#666666" points="2196,-206 2090,-206 2090,-176 2196,-176 2196,-206"/>
<text text-anchor="start" x="2098" y="-194" font-family="Helvetica,sans-Serif" font-size="10.00">src/node/historical</text>
<text text-anchor="middle" x="2143" y="-183" font-family="Helvetica,sans-Serif" font-size="10.00">_queries.h</text>
</a>
</g>
</g>
<!-- Node21&#45;&gt;Node29 -->
<g id="edge52" class="edge">
<title>Node21&#45;&gt;Node29</title>
<path fill="none" stroke="#63b8ff" d="M1758.14,-516.82C1912.78,-508.92 2210,-481.8 2210,-390 2210,-390 2210,-390 2210,-322 2210,-275.54 2175.76,-229.07 2156.24,-206.35"/>
<polygon fill="#63b8ff" stroke="#63b8ff" points="1757.52,-513.35 1747.71,-517.34 1757.87,-520.34 1757.52,-513.35"/>
</g>
<!-- Node31 -->
<g id="node31" class="node">
<title>Node31</title>
<g id="a_node31"><a xlink:href="node__configuration__subsystem_8h.html" target="_top" xlink:title=" ">
<polygon fill="white" stroke="#666666" points="752,-470 598,-470 598,-440 752,-440 752,-470"/>
<text text-anchor="start" x="606" y="-458" font-family="Helvetica,sans-Serif" font-size="10.00">src/node/node_configuration</text>
<text text-anchor="middle" x="675" y="-447" font-family="Helvetica,sans-Serif" font-size="10.00">_subsystem.h</text>
</a>
</g>
</g>
<!-- Node21&#45;&gt;Node31 -->
<g id="edge56" class="edge">
<title>Node21&#45;&gt;Node31</title>
<path fill="none" stroke="#63b8ff" d="M1576.42,-516.09C1419.82,-509.02 1088.41,-492.73 809,-470 790.58,-468.5 770.77,-466.6 752.18,-464.67"/>
<polygon fill="#63b8ff" stroke="#63b8ff" points="1576.33,-519.59 1586.48,-516.54 1576.64,-512.6 1576.33,-519.59"/>
</g>
<!-- Node32 -->
<g id="node32" class="node">
<title>Node32</title>
<g id="a_node32"><a xlink:href="acme__subsystem_8h.html" target="_top" xlink:title=" ">
<polygon fill="white" stroke="#666666" points="2387.5,-200.5 2214.5,-200.5 2214.5,-181.5 2387.5,-181.5 2387.5,-200.5"/>
<text text-anchor="middle" x="2301" y="-188.5" font-family="Helvetica,sans-Serif" font-size="10.00">src/node/rpc/acme_subsystem.h</text>
</a>
</g>
</g>
<!-- Node21&#45;&gt;Node32 -->
<g id="edge58" class="edge">
<title>Node21&#45;&gt;Node32</title>
<path fill="none" stroke="#63b8ff" d="M1757.75,-519.19C1927.04,-515.19 2274,-494.29 2274,-390 2274,-390 2274,-390 2274,-322 2274,-275.44 2290.81,-221.42 2297.9,-200.7"/>
<polygon fill="#63b8ff" stroke="#63b8ff" points="1757.53,-515.69 1747.6,-519.41 1757.68,-522.69 1757.53,-515.69"/>
</g>
<!-- Node33 -->
<g id="node33" class="node">
<title>Node33</title>
<g id="a_node33"><a xlink:href="network__identity__subsystem_8h.html" target="_top" xlink:title=" ">
<polygon fill="white" stroke="#666666" points="2071.5,-470 1944.5,-470 1944.5,-440 2071.5,-440 2071.5,-470"/>
<text text-anchor="start" x="1952.5" y="-458" font-family="Helvetica,sans-Serif" font-size="10.00">src/node/rpc/network</text>
<text text-anchor="middle" x="2008" y="-447" font-family="Helvetica,sans-Serif" font-size="10.00">_identity_subsystem.h</text>
</a>
</g>
</g>
<!-- Node21&#45;&gt;Node33 -->
<g id="edge61" class="edge">
<title>Node21&#45;&gt;Node33</title>
<path fill="none" stroke="#63b8ff" d="M1722.81,-509.53C1783.59,-498.12 1880.64,-479.9 1944.35,-467.95"/>
<polygon fill="#63b8ff" stroke="#63b8ff" points="1721.82,-506.15 1712.63,-511.44 1723.11,-513.03 1721.82,-506.15"/>
</g>
<!-- Node37 -->
<g id="node37" class="node">
<title>Node37</title>
<g id="a_node37"><a xlink:href="node__operation_8h.html" target="_top" xlink:title=" ">
<polygon fill="white" stroke="#666666" points="1984,-134.5 1820,-134.5 1820,-115.5 1984,-115.5 1984,-134.5"/>
<text text-anchor="middle" x="1902" y="-122.5" font-family="Helvetica,sans-Serif" font-size="10.00">src/node/rpc/node_operation.h</text>
</a>
</g>
</g>
<!-- Node21&#45;&gt;Node37 -->
<g id="edge69" class="edge">
<title>Node21&#45;&gt;Node37</title>
<path fill="none" stroke="#63b8ff" d="M1706.06,-508.06C1754.28,-490.61 1830,-453.16 1830,-390 1830,-390 1830,-390 1830,-256 1830,-204.4 1873.95,-154.08 1893.17,-134.53"/>
<polygon fill="#63b8ff" stroke="#63b8ff" points="1704.81,-504.79 1696.52,-511.38 1707.11,-511.4 1704.81,-504.79"/>
</g>
<!-- Node22&#45;&gt;Node6 -->
<g id="edge38" class="edge">
<title>Node22&#45;&gt;Node6</title>
<path fill="none" stroke="#63b8ff" d="M1275.33,-388.26C1387.45,-388.05 1657.69,-382.76 1735,-338 1772.78,-316.12 1792,-301.66 1792,-258 1792,-258 1792,-258 1792,-190 1792,-130.98 1606.15,-90.66 1512.13,-74.04"/>
<polygon fill="#63b8ff" stroke="#63b8ff" points="1275.3,-384.76 1265.3,-388.27 1275.3,-391.76 1275.3,-384.76"/>
</g>
<!-- Node22&#45;&gt;Node9 -->
<g id="edge49" class="edge">
<title>Node22&#45;&gt;Node9</title>
<path fill="none" stroke="#63b8ff" d="M1176.81,-388.07C1116.37,-386.31 1012.13,-377.17 933,-338 876.92,-310.24 885.28,-271.33 830,-242 781.29,-216.16 719.55,-203.6 674.21,-197.54"/>
<polygon fill="#63b8ff" stroke="#63b8ff" points="1176.77,-391.57 1186.84,-388.31 1176.93,-384.58 1176.77,-391.57"/>
</g>
<!-- Node22&#45;&gt;Node11 -->
<g id="edge50" class="edge">
<title>Node22&#45;&gt;Node11</title>
<path fill="none" stroke="#63b8ff" d="M1176.72,-385.75C1057.66,-380.06 745,-363.76 485,-338 469.81,-336.49 453.44,-334.53 438.19,-332.55"/>
<polygon fill="#63b8ff" stroke="#63b8ff" points="1176.81,-389.25 1186.96,-386.23 1177.14,-382.26 1176.81,-389.25"/>
</g>
<!-- Node22&#45;&gt;Node12 -->
<g id="edge51" class="edge">
<title>Node22&#45;&gt;Node12</title>
<path fill="none" stroke="#63b8ff" d="M1176.64,-381.43C1106.62,-372.05 974.45,-354.19 862,-338 850.04,-336.28 837.22,-334.38 825.05,-332.56"/>
<polygon fill="#63b8ff" stroke="#63b8ff" points="1176.55,-384.94 1186.92,-382.8 1177.48,-378.01 1176.55,-384.94"/>
</g>
<!-- Node22&#45;&gt;Node18 -->
<g id="edge48" class="edge">
<title>Node22&#45;&gt;Node18</title>
<path fill="none" stroke="#63b8ff" d="M1176.89,-382.16C1149.06,-376.05 1116.4,-363.55 1099,-338 1091.49,-326.98 1091.99,-319.34 1099,-308 1112.42,-286.29 1138.44,-273.69 1160.57,-266.57"/>
<polygon fill="#63b8ff" stroke="#63b8ff" points="1176.41,-385.63 1186.9,-384.13 1177.76,-378.76 1176.41,-385.63"/>
</g>
<!-- Node23 -->
<g id="node23" class="node">
<title>Node23</title>
<g id="a_node23"><a xlink:href="js__generic__base_8cpp.html" target="_top" xlink:title=" ">
<polygon fill="white" stroke="#666666" points="1580,-338 1462,-338 1462,-308 1580,-308 1580,-338"/>
<text text-anchor="start" x="1470" y="-326" font-family="Helvetica,sans-Serif" font-size="10.00">src/apps/js_generic</text>
<text text-anchor="middle" x="1521" y="-315" font-family="Helvetica,sans-Serif" font-size="10.00">/js_generic_base.cpp</text>
</a>
</g>
</g>
<!-- Node22&#45;&gt;Node23 -->
<g id="edge37" class="edge">
<title>Node22&#45;&gt;Node23</title>
<path fill="none" stroke="#63b8ff" d="M1275.03,-377.36C1326.34,-366.23 1406.92,-348.75 1461.76,-336.85"/>
<polygon fill="#63b8ff" stroke="#63b8ff" points="1274.2,-373.96 1265.17,-379.5 1275.69,-380.8 1274.2,-373.96"/>
</g>
<!-- Node24 -->
<g id="node24" class="node">
<title>Node24</title>
<g id="a_node24"><a xlink:href="consensus_8cpp.html" target="_top" xlink:title=" ">
<polygon fill="white" stroke="#666666" points="1224,-332.5 1108,-332.5 1108,-313.5 1224,-313.5 1224,-332.5"/>
<text text-anchor="middle" x="1166" y="-320.5" font-family="Helvetica,sans-Serif" font-size="10.00">src/js/consensus.cpp</text>
</a>
</g>
</g>
<!-- Node22&#45;&gt;Node24 -->
<g id="edge39" class="edge">
<title>Node22&#45;&gt;Node24</title>
<path fill="none" stroke="#63b8ff" d="M1210.98,-371.98C1199.4,-359.62 1183.8,-342.99 1174.35,-332.91"/>
<polygon fill="#63b8ff" stroke="#63b8ff" points="1208.52,-374.47 1217.91,-379.37 1213.62,-369.68 1208.52,-374.47"/>
</g>
<!-- Node25 -->
<g id="node25" class="node">
<title>Node25</title>
<g id="a_node25"><a xlink:href="conv_8cpp.html" target="_top" xlink:title=" ">
<polygon fill="white" stroke="#666666" points="1330,-332.5 1242,-332.5 1242,-313.5 1330,-313.5 1330,-332.5"/>
<text text-anchor="middle" x="1286" y="-320.5" font-family="Helvetica,sans-Serif" font-size="10.00">src/js/conv.cpp</text>
</a>
</g>
</g>
<!-- Node22&#45;&gt;Node25 -->
<g id="edge41" class="edge">
<title>Node22&#45;&gt;Node25</title>
<path fill="none" stroke="#63b8ff" d="M1241.02,-371.98C1252.6,-359.62 1268.2,-342.99 1277.65,-332.91"/>
<polygon fill="#63b8ff" stroke="#63b8ff" points="1238.38,-369.68 1234.09,-379.37 1243.48,-374.47 1238.38,-369.68"/>
</g>
<!-- Node26 -->
<g id="node26" class="node">
<title>Node26</title>
<g id="a_node26"><a xlink:href="crypto_8cpp.html" target="_top" xlink:title=" ">
<polygon fill="white" stroke="#666666" points="1444,-332.5 1348,-332.5 1348,-313.5 1444,-313.5 1444,-332.5"/>
<text text-anchor="middle" x="1396" y="-320.5" font-family="Helvetica,sans-Serif" font-size="10.00">src/js/crypto.cpp</text>
</a>
</g>
</g>
<!-- Node22&#45;&gt;Node26 -->
<g id="edge43" class="edge">
<title>Node22&#45;&gt;Node26</title>
<path fill="none" stroke="#63b8ff" d="M1258.3,-375.84C1291.89,-363.2 1343.6,-343.73 1373.17,-332.6"/>
<polygon fill="#63b8ff" stroke="#63b8ff" points="1257.05,-372.57 1248.93,-379.37 1259.52,-379.12 1257.05,-372.57"/>
</g>
<!-- Node27 -->
<g id="node27" class="node">
<title>Node27</title>
<g id="a_node27"><a xlink:href="historical_8cpp.html" target="_top" xlink:title=" ">
<polygon fill="white" stroke="#666666" points="1052,-332.5 942,-332.5 942,-313.5 1052,-313.5 1052,-332.5"/>
<text text-anchor="middle" x="997" y="-320.5" font-family="Helvetica,sans-Serif" font-size="10.00">src/js/historical.cpp</text>
</a>
</g>
</g>
<!-- Node22&#45;&gt;Node27 -->
<g id="edge45" class="edge">
<title>Node22&#45;&gt;Node27</title>
<path fill="none" stroke="#63b8ff" d="M1185.36,-376.64C1140.25,-364.03 1068.44,-343.97 1027.76,-332.6"/>
<polygon fill="#63b8ff" stroke="#63b8ff" points="1184.54,-380.05 1195.12,-379.37 1186.43,-373.31 1184.54,-380.05"/>
</g>
<!-- Node28 -->
<g id="node28" class="node">
<title>Node28</title>
<g id="a_node28"><a xlink:href="openenclave_8cpp.html" target="_top" xlink:title=" ">
<polygon fill="white" stroke="#666666" points="1726,-332.5 1598,-332.5 1598,-313.5 1726,-313.5 1726,-332.5"/>
<text text-anchor="middle" x="1662" y="-320.5" font-family="Helvetica,sans-Serif" font-size="10.00">src/js/openenclave.cpp</text>
</a>
</g>
</g>
<!-- Node22&#45;&gt;Node28 -->
<g id="edge47" class="edge">
<title>Node22&#45;&gt;Node28</title>
<path fill="none" stroke="#63b8ff" d="M1275.32,-382.04C1345.26,-373.4 1477.2,-356.41 1589,-338 1598.93,-336.36 1609.59,-334.43 1619.61,-332.52"/>
<polygon fill="#63b8ff" stroke="#63b8ff" points="1274.55,-378.61 1265.05,-383.31 1275.4,-385.56 1274.55,-378.61"/>
</g>
<!-- Node24&#45;&gt;Node18 -->
<g id="edge40" class="edge">
<title>Node24&#45;&gt;Node18</title>
<path fill="none" stroke="#63b8ff" d="M1175.19,-304.18C1181.44,-292.05 1189.46,-276.51 1194.41,-266.91"/>
<polygon fill="#63b8ff" stroke="#63b8ff" points="1171.92,-302.88 1170.45,-313.37 1178.14,-306.08 1171.92,-302.88"/>
</g>
<!-- Node25&#45;&gt;Node18 -->
<g id="edge42" class="edge">
<title>Node25&#45;&gt;Node18</title>
<path fill="none" stroke="#63b8ff" d="M1266.06,-307.33C1249,-294.78 1225.01,-277.13 1210.83,-266.7"/>
<polygon fill="#63b8ff" stroke="#63b8ff" points="1264.14,-310.26 1274.27,-313.37 1268.29,-304.62 1264.14,-310.26"/>
</g>
<!-- Node26&#45;&gt;Node18 -->
<g id="edge44" class="edge">
<title>Node26&#45;&gt;Node18</title>
<path fill="none" stroke="#63b8ff" d="M1359.56,-310.16C1320.68,-297.53 1260.02,-277.82 1225.46,-266.6"/>
<polygon fill="#63b8ff" stroke="#63b8ff" points="1358.84,-313.61 1369.43,-313.37 1361,-306.95 1358.84,-313.61"/>
</g>
<!-- Node27&#45;&gt;Node18 -->
<g id="edge46" class="edge">
<title>Node27&#45;&gt;Node18</title>
<path fill="none" stroke="#63b8ff" d="M1033.85,-310.32C1073.7,-297.7 1136.28,-277.87 1171.87,-266.6"/>
<polygon fill="#63b8ff" stroke="#63b8ff" points="1032.72,-307.01 1024.24,-313.37 1034.83,-313.68 1032.72,-307.01"/>
</g>
<!-- Node29&#45;&gt;Node6 -->
<g id="edge53" class="edge">
<title>Node29&#45;&gt;Node6</title>
<path fill="none" stroke="#63b8ff" d="M2179.68,-170.71C2206.19,-154.37 2234.23,-130.4 2215,-110 2191.28,-84.84 1696.01,-70.98 1520.22,-66.84"/>
<polygon fill="#63b8ff" stroke="#63b8ff" points="2177.65,-167.85 2170.82,-175.95 2181.21,-173.87 2177.65,-167.85"/>
</g>
<!-- Node30 -->
<g id="node30" class="node">
<title>Node30</title>
<g id="a_node30"><a xlink:href="historical__transaction__fetcher_8h.html" target="_top" xlink:title=" ">
<polygon fill="white" stroke="#666666" points="2205.5,-140 2080.5,-140 2080.5,-110 2205.5,-110 2205.5,-140"/>
<text text-anchor="start" x="2088.5" y="-128" font-family="Helvetica,sans-Serif" font-size="10.00">src/indexing/historical</text>
<text text-anchor="middle" x="2143" y="-117" font-family="Helvetica,sans-Serif" font-size="10.00">_transaction_fetcher.h</text>
</a>
</g>
</g>
<!-- Node29&#45;&gt;Node30 -->
<g id="edge54" class="edge">
<title>Node29&#45;&gt;Node30</title>
<path fill="none" stroke="#63b8ff" d="M2143,-165.54C2143,-156.96 2143,-147.61 2143,-140.16"/>
<polygon fill="#63b8ff" stroke="#63b8ff" points="2139.5,-165.8 2143,-175.8 2146.5,-165.8 2139.5,-165.8"/>
</g>
<!-- Node30&#45;&gt;Node6 -->
<g id="edge55" class="edge">
<title>Node30&#45;&gt;Node6</title>
<path fill="none" stroke="#63b8ff" d="M2070.46,-110.59C2068.96,-110.38 2067.47,-110.19 2066,-110 1867.37,-84.73 1630.2,-72.49 1520.39,-67.83"/>
<polygon fill="#63b8ff" stroke="#63b8ff" points="2070.07,-114.07 2080.47,-112.06 2071.08,-107.14 2070.07,-114.07"/>
</g>
<!-- Node31&#45;&gt;Node4 -->
<g id="edge57" class="edge">
<title>Node31&#45;&gt;Node4</title>
<path fill="none" stroke="#63b8ff" d="M644.68,-434.2C626.44,-422.29 604.15,-407.73 590.26,-398.66"/>
<polygon fill="#63b8ff" stroke="#63b8ff" points="642.96,-437.26 653.25,-439.8 646.79,-431.4 642.96,-437.26"/>
</g>
<!-- Node32&#45;&gt;Node6 -->
<g id="edge59" class="edge">
<title>Node32&#45;&gt;Node6</title>
<path fill="none" stroke="#63b8ff" d="M2291.72,-172.6C2280.44,-153.43 2259.45,-123.54 2232,-110 2168.9,-78.87 1691.94,-68.89 1520.3,-66.29"/>
<polygon fill="#63b8ff" stroke="#63b8ff" points="2288.77,-174.49 2296.72,-181.5 2294.87,-171.06 2288.77,-174.49"/>
</g>
<!-- Node33&#45;&gt;Node6 -->
<g id="edge63" class="edge">
<title>Node33&#45;&gt;Node6</title>
<path fill="none" stroke="#63b8ff" d="M2050,-435.25C2085.82,-416.54 2134.38,-383.94 2153,-338 2158.01,-325.64 2157.44,-320.57 2153,-308 2143.57,-281.33 2017.99,-123.24 1993,-110 1912.54,-67.38 1642.9,-63.92 1520.44,-64.65"/>
<polygon fill="#63b8ff" stroke="#63b8ff" points="2048.08,-432.3 2040.73,-439.94 2051.24,-438.55 2048.08,-432.3"/>
</g>
<!-- Node34 -->
<g id="node34" class="node">
<title>Node34</title>
<g id="a_node34"><a xlink:href="external__executor_8cpp.html" target="_top" xlink:title=" ">
<polygon fill="white" stroke="#666666" points="2006,-338 1858,-338 1858,-308 2006,-308 2006,-338"/>
<text text-anchor="start" x="1866" y="-326" font-family="Helvetica,sans-Serif" font-size="10.00">src/apps/external_executor</text>
<text text-anchor="middle" x="1932" y="-315" font-family="Helvetica,sans-Serif" font-size="10.00">/external_executor.cpp</text>
</a>
</g>
</g>
<!-- Node33&#45;&gt;Node34 -->
<g id="edge62" class="edge">
<title>Node33&#45;&gt;Node34</title>
<path fill="none" stroke="#63b8ff" d="M1974.37,-433.87C1963.72,-425.87 1952.93,-415.75 1946,-404 1933.83,-383.35 1931.65,-354.85 1931.56,-338.03"/>
<polygon fill="#63b8ff" stroke="#63b8ff" points="1972.62,-436.91 1982.81,-439.82 1976.65,-431.19 1972.62,-436.91"/>
</g>
<!-- Node35 -->
<g id="node35" class="node">
<title>Node35</title>
<g id="a_node35"><a xlink:href="historical__queries__adapter_8cpp.html" target="_top" xlink:title=" ">
<polygon fill="white" stroke="#666666" points="2144,-338 2024,-338 2024,-308 2144,-308 2144,-338"/>
<text text-anchor="start" x="2032" y="-326" font-family="Helvetica,sans-Serif" font-size="10.00">src/node/historical</text>
<text text-anchor="middle" x="2084" y="-315" font-family="Helvetica,sans-Serif" font-size="10.00">_queries_adapter.cpp</text>
</a>
</g>
</g>
<!-- Node33&#45;&gt;Node35 -->
<g id="edge64" class="edge">
<title>Node33&#45;&gt;Node35</title>
<path fill="none" stroke="#63b8ff" d="M2041.63,-433.87C2052.28,-425.87 2063.07,-415.75 2070,-404 2082.17,-383.35 2084.35,-354.85 2084.44,-338.03"/>
<polygon fill="#63b8ff" stroke="#63b8ff" points="2039.35,-431.19 2033.19,-439.82 2043.38,-436.91 2039.35,-431.19"/>
</g>
<!-- Node36 -->
<g id="node36" class="node">
<title>Node36</title>
<g id="a_node36"><a xlink:href="historical__queries__utils_8h.html" target="_top" xlink:title=" ">
<polygon fill="white" stroke="#666666" points="2061,-404 1955,-404 1955,-374 2061,-374 2061,-404"/>
<text text-anchor="start" x="1963" y="-392" font-family="Helvetica,sans-Serif" font-size="10.00">src/node/historical</text>
<text text-anchor="middle" x="2008" y="-381" font-family="Helvetica,sans-Serif" font-size="10.00">_queries_utils.h</text>
</a>
</g>
</g>
<!-- Node33&#45;&gt;Node36 -->
<g id="edge65" class="edge">
<title>Node33&#45;&gt;Node36</title>
<path fill="none" stroke="#63b8ff" d="M2008,-429.54C2008,-420.96 2008,-411.61 2008,-404.16"/>
<polygon fill="#63b8ff" stroke="#63b8ff" points="2004.5,-429.8 2008,-439.8 2011.5,-429.8 2004.5,-429.8"/>
</g>
<!-- Node36&#45;&gt;Node34 -->
<g id="edge66" class="edge">
<title>Node36&#45;&gt;Node34</title>
<path fill="none" stroke="#63b8ff" d="M1983.3,-367.2C1972.02,-357.7 1958.95,-346.69 1948.82,-338.16"/>
<polygon fill="#63b8ff" stroke="#63b8ff" points="1981.23,-370.03 1991.13,-373.8 1985.74,-364.68 1981.23,-370.03"/>
</g>
<!-- Node36&#45;&gt;Node35 -->
<g id="edge67" class="edge">
<title>Node36&#45;&gt;Node35</title>
<path fill="none" stroke="#63b8ff" d="M2032.7,-367.2C2043.98,-357.7 2057.05,-346.69 2067.18,-338.16"/>
<polygon fill="#63b8ff" stroke="#63b8ff" points="2030.26,-364.68 2024.87,-373.8 2034.77,-370.03 2030.26,-364.68"/>
</g>
<!-- Node37&#45;&gt;Node6 -->
<g id="edge70" class="edge">
<title>Node37&#45;&gt;Node6</title>
<path fill="none" stroke="#63b8ff" d="M1834.71,-114.04C1825.08,-112.65 1815.29,-111.27 1806,-110 1705.96,-96.29 1589.51,-81.62 1520.16,-73.02"/>
<polygon fill="#63b8ff" stroke="#63b8ff" points="1834.26,-117.51 1844.66,-115.47 1835.26,-110.58 1834.26,-117.51"/>
</g>
</g>
</svg>
