<?xml version="1.0" encoding="UTF-8" standalone="no"?>
<!DOCTYPE svg PUBLIC "-//W3C//DTD SVG 1.1//EN"
 "http://www.w3.org/Graphics/SVG/1.1/DTD/svg11.dtd">
<!-- Generated by graphviz version 2.43.0 (0)
 -->
<!-- Title: include/ccf Pages: 1 -->
<svg width="326pt" height="369pt"
 viewBox="0.00 0.00 326.00 369.00" xmlns="http://www.w3.org/2000/svg" xmlns:xlink="http://www.w3.org/1999/xlink">
<g id="graph0" class="graph" transform="scale(1 1) rotate(0) translate(4 365)">
<title>include/ccf</title>
<g id="clust1" class="cluster">
<title>clusterdir_d44c64559bbebec7f509842c48db8b23</title>
<g id="a_clust1"><a xlink:href="dir_d44c64559bbebec7f509842c48db8b23.html" target="_top" xlink:title="include">
<polygon fill="#edf0f7" stroke="#404040" stroke-dasharray="5,2" points="8,-8 8,-353 310,-353 310,-8 8,-8"/>
<text text-anchor="middle" x="159" y="-341" font-family="Helvetica,sans-Serif" font-size="10.00">include</text>
</a>
</g>
</g>
<g id="clust2" class="cluster">
<title>clusterdir_c3d33925c9fc81f340cd5350e8f8562d</title>
<g id="a_clust2"><a xlink:href="dir_c3d33925c9fc81f340cd5350e8f8562d.html" target="_top">
<polygon fill="#edf0f7" stroke="#404040" stroke-width="2" points="16,-16 16,-326 302,-326 302,-16 16,-16"/>
</a>
</g>
</g>
<!-- dir_c3d33925c9fc81f340cd5350e8f8562d -->
<g id="node1" class="node">
<title>dir_c3d33925c9fc81f340cd5350e8f8562d</title>
<text text-anchor="middle" x="209" y="-306" font-family="Helvetica,sans-Serif" font-size="10.00">ccf</text>
</g>
<!-- dir_718cb05e94fb01aeb88649f9185845a8 -->
<g id="node2" class="node">
<title>dir_718cb05e94fb01aeb88649f9185845a8</title>
<g id="a_node2"><a xlink:href="dir_718cb05e94fb01aeb88649f9185845a8.html" target="_top" xlink:title="crypto">
<polygon fill="#a2b4d6" stroke="#404040" points="111.5,-208 64.5,-208 64.5,-189 111.5,-189 111.5,-208"/>
<text text-anchor="middle" x="88" y="-196" font-family="Helvetica,sans-Serif" font-size="10.00">crypto</text>
</a>
</g>
</g>
<!-- dir_c3d33925c9fc81f340cd5350e8f8562d&#45;&gt;dir_718cb05e94fb01aeb88649f9185845a8 -->
<g id="edge3" class="edge">
<title>dir_c3d33925c9fc81f340cd5350e8f8562d&#45;&gt;dir_718cb05e94fb01aeb88649f9185845a8</title>
<path fill="none" stroke="#63b8ff" d="M193.27,-306.24C168.29,-303.33 119.93,-293.8 96,-263 86.31,-250.52 84.91,-232.32 85.59,-218.59"/>
<polygon fill="#63b8ff" stroke="#63b8ff" points="89.1,-218.62 86.51,-208.35 82.13,-217.99 89.1,-218.62"/>
<g id="a_edge3&#45;headlabel"><a xlink:href="dir_000006_000011.html" target="_top" xlink:title="27">
<text text-anchor="middle" x="91.61" y="-219.95" font-family="Helvetica,sans-Serif" font-size="10.00" fill="#63b8ff">27</text>
</a>
</g>
</g>
<!-- dir_cabae42bbc2bbaf21b45af6b92ef62e9 -->
<g id="node3" class="node">
<title>dir_cabae42bbc2bbaf21b45af6b92ef62e9</title>
<g id="a_node3"><a xlink:href="dir_cabae42bbc2bbaf21b45af6b92ef62e9.html" target="_top" xlink:title="ds">
<polygon fill="#a2b4d6" stroke="#404040" points="101.5,-43 72.5,-43 72.5,-24 101.5,-24 101.5,-43"/>
<text text-anchor="middle" x="87" y="-31" font-family="Helvetica,sans-Serif" font-size="10.00">ds</text>
</a>
</g>
</g>
<!-- dir_c3d33925c9fc81f340cd5350e8f8562d&#45;&gt;dir_cabae42bbc2bbaf21b45af6b92ef62e9 -->
<g id="edge7" class="edge">
<title>dir_c3d33925c9fc81f340cd5350e8f8562d&#45;&gt;dir_cabae42bbc2bbaf21b45af6b92ef62e9</title>
<path fill="none" stroke="#63b8ff" d="M222.5,-298.92C246.24,-282.66 293,-244.87 293,-199.5 293,-199.5 293,-199.5 293,-142.5 293,-61.65 167.01,-41.21 112.09,-36.13"/>
<polygon fill="#63b8ff" stroke="#63b8ff" points="112.07,-32.62 101.82,-35.29 111.49,-39.6 112.07,-32.62"/>
<g id="a_edge7&#45;headlabel"><a xlink:href="dir_000006_000013.html" target="_top" xlink:title="49">
<text text-anchor="middle" x="115.88" y="-27.58" font-family="Helvetica,sans-Serif" font-size="10.00" fill="#63b8ff">49</text>
</a>
</g>
</g>
<!-- dir_4a0fc6681dca2b862f3992ee55641a58 -->
<g id="node4" class="node">
<title>dir_4a0fc6681dca2b862f3992ee55641a58</title>
<g id="a_node4"><a xlink:href="dir_4a0fc6681dca2b862f3992ee55641a58.html" target="_top" xlink:title="endpoints">
<polygon fill="#a2b4d6" stroke="#404040" points="169.5,-263 104.5,-263 104.5,-244 169.5,-244 169.5,-263"/>
<text text-anchor="middle" x="137" y="-251" font-family="Helvetica,sans-Serif" font-size="10.00">endpoints</text>
</a>
</g>
</g>
<!-- dir_c3d33925c9fc81f340cd5350e8f8562d&#45;&gt;dir_4a0fc6681dca2b862f3992ee55641a58 -->
<g id="edge2" class="edge">
<title>dir_c3d33925c9fc81f340cd5350e8f8562d&#45;&gt;dir_4a0fc6681dca2b862f3992ee55641a58</title>
<path fill="none" stroke="#63b8ff" d="M197.43,-298.98C186.58,-291 170.12,-278.88 157.12,-269.31"/>
<polygon fill="#63b8ff" stroke="#63b8ff" points="158.91,-266.28 148.78,-263.17 154.76,-271.92 158.91,-266.28"/>
<g id="a_edge2&#45;headlabel"><a xlink:href="dir_000006_000016.html" target="_top" xlink:title="6">
<text text-anchor="middle" x="163.48" y="-263.62" font-family="Helvetica,sans-Serif" font-size="10.00" fill="#63b8ff">6</text>
</a>
</g>
</g>
<!-- dir_819655030cf20c915c390b67ba1c0d03 -->
<g id="node5" class="node">
<title>dir_819655030cf20c915c390b67ba1c0d03</title>
<g id="a_node5"><a xlink:href="dir_819655030cf20c915c390b67ba1c0d03.html" target="_top" xlink:title="indexing">
<polygon fill="#a2b4d6" stroke="#404040" points="253.5,-153 194.5,-153 194.5,-134 253.5,-134 253.5,-153"/>
<text text-anchor="middle" x="224" y="-141" font-family="Helvetica,sans-Serif" font-size="10.00">indexing</text>
</a>
</g>
</g>
<!-- dir_c3d33925c9fc81f340cd5350e8f8562d&#45;&gt;dir_819655030cf20c915c390b67ba1c0d03 -->
<g id="edge4" class="edge">
<title>dir_c3d33925c9fc81f340cd5350e8f8562d&#45;&gt;dir_819655030cf20c915c390b67ba1c0d03</title>
<path fill="none" stroke="#63b8ff" d="M210.03,-298.98C211.09,-290.02 212.77,-275.53 214,-263 217.46,-227.85 220.76,-186.75 222.57,-163.36"/>
<polygon fill="#63b8ff" stroke="#63b8ff" points="226.08,-163.37 223.35,-153.13 219.1,-162.83 226.08,-163.37"/>
<g id="a_edge4&#45;headlabel"><a xlink:href="dir_000006_000024.html" target="_top" xlink:title="1">
<text text-anchor="middle" x="228.64" y="-164.67" font-family="Helvetica,sans-Serif" font-size="10.00" fill="#63b8ff">1</text>
</a>
</g>
</g>
<!-- dir_9101985d24c2f692df501a09f2c284d0 -->
<g id="node6" class="node">
<title>dir_9101985d24c2f692df501a09f2c284d0</title>
<g id="a_node6"><a xlink:href="dir_9101985d24c2f692df501a09f2c284d0.html" target="_top" xlink:title="kv">
<polygon fill="#a2b4d6" stroke="#404040" points="206.5,-98 177.5,-98 177.5,-79 206.5,-79 206.5,-98"/>
<text text-anchor="middle" x="192" y="-86" font-family="Helvetica,sans-Serif" font-size="10.00">kv</text>
</a>
</g>
</g>
<!-- dir_c3d33925c9fc81f340cd5350e8f8562d&#45;&gt;dir_9101985d24c2f692df501a09f2c284d0 -->
<g id="edge5" class="edge">
<title>dir_c3d33925c9fc81f340cd5350e8f8562d&#45;&gt;dir_9101985d24c2f692df501a09f2c284d0</title>
<path fill="none" stroke="#63b8ff" d="M216.41,-298.7C237.65,-272.34 295.23,-192.24 263,-134 253.08,-116.08 232.6,-104.41 216.17,-97.54"/>
<polygon fill="#63b8ff" stroke="#63b8ff" points="217.19,-94.18 206.6,-93.87 214.68,-100.72 217.19,-94.18"/>
<g id="a_edge5&#45;headlabel"><a xlink:href="dir_000006_000028.html" target="_top" xlink:title="20">
<text text-anchor="middle" x="221.56" y="-90.32" font-family="Helvetica,sans-Serif" font-size="10.00" fill="#63b8ff">20</text>
</a>
</g>
</g>
<!-- dir_36f22bdf0117f38e86252516d12afdac -->
<g id="node8" class="node">
<title>dir_36f22bdf0117f38e86252516d12afdac</title>
<g id="a_node8"><a xlink:href="dir_36f22bdf0117f38e86252516d12afdac.html" target="_top" xlink:title="pal">
<polygon fill="#a2b4d6" stroke="#404040" points="103,-98 71,-98 71,-79 103,-79 103,-98"/>
<text text-anchor="middle" x="87" y="-86" font-family="Helvetica,sans-Serif" font-size="10.00">pal</text>
</a>
</g>
</g>
<!-- dir_c3d33925c9fc81f340cd5350e8f8562d&#45;&gt;dir_36f22bdf0117f38e86252516d12afdac -->
<g id="edge1" class="edge">
<title>dir_c3d33925c9fc81f340cd5350e8f8562d&#45;&gt;dir_36f22bdf0117f38e86252516d12afdac</title>
<path fill="none" stroke="#63b8ff" d="M209.08,-298.92C208.92,-271.81 205.08,-186.68 165,-134 151.82,-116.68 129.82,-105.02 112.54,-97.99"/>
<polygon fill="#63b8ff" stroke="#63b8ff" points="113.6,-94.65 103.01,-94.38 111.12,-101.2 113.6,-94.65"/>
<g id="a_edge1&#45;headlabel"><a xlink:href="dir_000006_000035.html" target="_top" xlink:title="5">
<text text-anchor="middle" x="117.97" y="-90.77" font-family="Helvetica,sans-Serif" font-size="10.00" fill="#63b8ff">5</text>
</a>
</g>
</g>
<!-- dir_a0bd5b61e2f393f7cb26e530f5604320 -->
<g id="node9" class="node">
<title>dir_a0bd5b61e2f393f7cb26e530f5604320</title>
<g id="a_node9"><a xlink:href="dir_a0bd5b61e2f393f7cb26e530f5604320.html" target="_top" xlink:title="service">
<polygon fill="#a2b4d6" stroke="#404040" points="156,-153 104,-153 104,-134 156,-134 156,-153"/>
<text text-anchor="middle" x="130" y="-141" font-family="Helvetica,sans-Serif" font-size="10.00">service</text>
</a>
</g>
</g>
<!-- dir_c3d33925c9fc81f340cd5350e8f8562d&#45;&gt;dir_a0bd5b61e2f393f7cb26e530f5604320 -->
<g id="edge6" class="edge">
<title>dir_c3d33925c9fc81f340cd5350e8f8562d&#45;&gt;dir_a0bd5b61e2f393f7cb26e530f5604320</title>
<path fill="none" stroke="#63b8ff" d="M204.97,-298.85C199.25,-286.61 188.43,-263.55 179,-244 165.18,-215.35 148.79,-182.24 138.9,-162.36"/>
<polygon fill="#63b8ff" stroke="#63b8ff" points="141.96,-160.65 134.37,-153.26 135.7,-163.77 141.96,-160.65"/>
<g id="a_edge6&#45;headlabel"><a xlink:href="dir_000006_000041.html" target="_top" xlink:title="15">
<text text-anchor="middle" x="146.11" y="-160.11" font-family="Helvetica,sans-Serif" font-size="10.00" fill="#63b8ff">15</text>
</a>
</g>
</g>
<!-- dir_718cb05e94fb01aeb88649f9185845a8&#45;&gt;dir_cabae42bbc2bbaf21b45af6b92ef62e9 -->
<g id="edge10" class="edge">
<title>dir_718cb05e94fb01aeb88649f9185845a8&#45;&gt;dir_cabae42bbc2bbaf21b45af6b92ef62e9</title>
<path fill="none" stroke="#63b8ff" d="M78.57,-188.82C64.2,-169.16 42.34,-119.75 53,-79 55.6,-69.05 60.98,-58.98 66.92,-50.94"/>
<polygon fill="#63b8ff" stroke="#63b8ff" points="69.74,-53.03 73.49,-43.12 64.38,-48.53 69.74,-53.03"/>
<g id="a_edge10&#45;headlabel"><a xlink:href="dir_000011_000013.html" target="_top" xlink:title="9">
<text text-anchor="middle" x="69.61" y="-55.11" font-family="Helvetica,sans-Serif" font-size="10.00" fill="#63b8ff">9</text>
</a>
</g>
</g>
<!-- dir_718cb05e94fb01aeb88649f9185845a8&#45;&gt;dir_36f22bdf0117f38e86252516d12afdac -->
<g id="edge8" class="edge">
<title>dir_718cb05e94fb01aeb88649f9185845a8&#45;&gt;dir_36f22bdf0117f38e86252516d12afdac</title>
<path fill="none" stroke="#63b8ff" d="M84.01,-188.66C80.58,-171.17 79.77,-131.8 81.91,-108.27"/>
<polygon fill="#63b8ff" stroke="#63b8ff" points="85.41,-108.52 83.2,-98.16 78.46,-107.63 85.41,-108.52"/>
<g id="a_edge8&#45;headlabel"><a xlink:href="dir_000011_000035.html" target="_top" xlink:title="1">
<text text-anchor="middle" x="87.77" y="-109.95" font-family="Helvetica,sans-Serif" font-size="10.00" fill="#63b8ff">1</text>
</a>
</g>
</g>
<!-- dir_718cb05e94fb01aeb88649f9185845a8&#45;&gt;dir_a0bd5b61e2f393f7cb26e530f5604320 -->
<g id="edge9" class="edge">
<title>dir_718cb05e94fb01aeb88649f9185845a8&#45;&gt;dir_a0bd5b61e2f393f7cb26e530f5604320</title>
<path fill="none" stroke="#63b8ff" d="M89.77,-188.75C94.18,-181.11 102.76,-169.82 111.01,-160.56"/>
<polygon fill="#63b8ff" stroke="#63b8ff" points="113.74,-162.76 118.06,-153.09 108.65,-157.96 113.74,-162.76"/>
<g id="a_edge9&#45;headlabel"><a xlink:href="dir_000011_000041.html" target="_top" xlink:title="1">
<text text-anchor="middle" x="113.34" y="-164.83" font-family="Helvetica,sans-Serif" font-size="10.00" fill="#63b8ff">1</text>
</a>
</g>
</g>
<!-- dir_cabae42bbc2bbaf21b45af6b92ef62e9&#45;&gt;dir_718cb05e94fb01aeb88649f9185845a8 -->
<g id="edge11" class="edge">
<title>dir_cabae42bbc2bbaf21b45af6b92ef62e9&#45;&gt;dir_718cb05e94fb01aeb88649f9185845a8</title>
<path fill="none" stroke="#63b8ff" d="M87.26,-43.12C83.24,-51.68 74.54,-65.46 71,-79 61.79,-114.18 76.83,-155.81 84.84,-179.18"/>
<polygon fill="#63b8ff" stroke="#63b8ff" points="81.55,-180.4 87.99,-188.82 88.21,-178.23 81.55,-180.4"/>
<g id="a_edge11&#45;headlabel"><a xlink:href="dir_000013_000011.html" target="_top" xlink:title="1">
<text text-anchor="middle" x="77.74" y="-175.37" font-family="Helvetica,sans-Serif" font-size="10.00" fill="#63b8ff">1</text>
</a>
</g>
</g>
<!-- dir_4a0fc6681dca2b862f3992ee55641a58&#45;&gt;dir_718cb05e94fb01aeb88649f9185845a8 -->
<g id="edge12" class="edge">
<title>dir_4a0fc6681dca2b862f3992ee55641a58&#45;&gt;dir_718cb05e94fb01aeb88649f9185845a8</title>
<path fill="none" stroke="#63b8ff" d="M128.91,-243.75C121.84,-236.11 111.41,-224.82 102.85,-215.56"/>
<polygon fill="#63b8ff" stroke="#63b8ff" points="105.3,-213.06 95.94,-208.09 100.16,-217.81 105.3,-213.06"/>
<g id="a_edge12&#45;headlabel"><a xlink:href="dir_000016_000011.html" target="_top" xlink:title="2">
<text text-anchor="middle" x="109.82" y="-211.27" font-family="Helvetica,sans-Serif" font-size="10.00" fill="#63b8ff">2</text>
</a>
</g>
</g>
<!-- dir_4a0fc6681dca2b862f3992ee55641a58&#45;&gt;dir_a0bd5b61e2f393f7cb26e530f5604320 -->
<g id="edge13" class="edge">
<title>dir_4a0fc6681dca2b862f3992ee55641a58&#45;&gt;dir_a0bd5b61e2f393f7cb26e530f5604320</title>
<path fill="none" stroke="#63b8ff" d="M137.19,-243.86C137.38,-231.63 137.47,-208.57 136,-189 135.37,-180.55 134.19,-171.24 133.04,-163.34"/>
<polygon fill="#63b8ff" stroke="#63b8ff" points="136.48,-162.69 131.5,-153.33 129.56,-163.75 136.48,-162.69"/>
<g id="a_edge13&#45;headlabel"><a xlink:href="dir_000016_000041.html" target="_top" xlink:title="2">
<text text-anchor="middle" x="139.83" y="-163.31" font-family="Helvetica,sans-Serif" font-size="10.00" fill="#63b8ff">2</text>
</a>
</g>
</g>
<!-- dir_819655030cf20c915c390b67ba1c0d03&#45;&gt;dir_9101985d24c2f692df501a09f2c284d0 -->
<g id="edge14" class="edge">
<title>dir_819655030cf20c915c390b67ba1c0d03&#45;&gt;dir_9101985d24c2f692df501a09f2c284d0</title>
<path fill="none" stroke="#63b8ff" d="M218.72,-133.75C214.29,-126.42 207.84,-115.73 202.38,-106.7"/>
<polygon fill="#63b8ff" stroke="#63b8ff" points="205.35,-104.84 197.19,-98.09 199.36,-108.46 205.35,-104.84"/>
<g id="a_edge14&#45;headlabel"><a xlink:href="dir_000024_000028.html" target="_top" xlink:title="1">
<text text-anchor="middle" x="209.64" y="-103.95" font-family="Helvetica,sans-Serif" font-size="10.00" fill="#63b8ff">1</text>
</a>
</g>
</g>
<!-- dir_819655030cf20c915c390b67ba1c0d03&#45;&gt;dir_36f22bdf0117f38e86252516d12afdac -->
<g id="edge15" class="edge">
<title>dir_819655030cf20c915c390b67ba1c0d03&#45;&gt;dir_36f22bdf0117f38e86252516d12afdac</title>
<path fill="none" stroke="#63b8ff" d="M201.99,-133.98C177.68,-124.58 138.59,-109.46 112.85,-99.5"/>
<polygon fill="#63b8ff" stroke="#63b8ff" points="113.96,-96.18 103.37,-95.83 111.43,-102.7 113.96,-96.18"/>
<g id="a_edge15&#45;headlabel"><a xlink:href="dir_000024_000035.html" target="_top" xlink:title="1">
<text text-anchor="middle" x="118.33" y="-92.32" font-family="Helvetica,sans-Serif" font-size="10.00" fill="#63b8ff">1</text>
</a>
</g>
</g>
<!-- dir_9101985d24c2f692df501a09f2c284d0&#45;&gt;dir_cabae42bbc2bbaf21b45af6b92ef62e9 -->
<g id="edge16" class="edge">
<title>dir_9101985d24c2f692df501a09f2c284d0&#45;&gt;dir_cabae42bbc2bbaf21b45af6b92ef62e9</title>
<path fill="none" stroke="#63b8ff" d="M177.4,-80.13C160.18,-71.44 131.31,-56.87 110.83,-46.53"/>
<polygon fill="#63b8ff" stroke="#63b8ff" points="112.32,-43.36 101.81,-41.98 109.16,-49.61 112.32,-43.36"/>
<g id="a_edge16&#45;headlabel"><a xlink:href="dir_000028_000013.html" target="_top" xlink:title="1">
<text text-anchor="middle" x="116.81" y="-39.94" font-family="Helvetica,sans-Serif" font-size="10.00" fill="#63b8ff">1</text>
</a>
</g>
</g>
<!-- dir_e4d7f7a88037af12eae8bd997a8823fc -->
<g id="node7" class="node">
<title>dir_e4d7f7a88037af12eae8bd997a8823fc</title>
<g id="a_node7"><a xlink:href="dir_e4d7f7a88037af12eae8bd997a8823fc.html" target="_top" xlink:title="node">
<polygon fill="#a2b4d6" stroke="#404040" points="65.5,-263 24.5,-263 24.5,-244 65.5,-244 65.5,-263"/>
<text text-anchor="middle" x="45" y="-251" font-family="Helvetica,sans-Serif" font-size="10.00">node</text>
</a>
</g>
</g>
<!-- dir_e4d7f7a88037af12eae8bd997a8823fc&#45;&gt;dir_718cb05e94fb01aeb88649f9185845a8 -->
<g id="edge18" class="edge">
<title>dir_e4d7f7a88037af12eae8bd997a8823fc&#45;&gt;dir_718cb05e94fb01aeb88649f9185845a8</title>
<path fill="none" stroke="#63b8ff" d="M52.1,-243.75C58.17,-236.26 67.09,-225.28 74.51,-216.13"/>
<polygon fill="#63b8ff" stroke="#63b8ff" points="77.45,-218.06 81.03,-208.09 72.01,-213.65 77.45,-218.06"/>
<g id="a_edge18&#45;headlabel"><a xlink:href="dir_000032_000011.html" target="_top" xlink:title="2">
<text text-anchor="middle" x="77.39" y="-220.14" font-family="Helvetica,sans-Serif" font-size="10.00" fill="#63b8ff">2</text>
</a>
</g>
</g>
<!-- dir_e4d7f7a88037af12eae8bd997a8823fc&#45;&gt;dir_cabae42bbc2bbaf21b45af6b92ef62e9 -->
<g id="edge20" class="edge">
<title>dir_e4d7f7a88037af12eae8bd997a8823fc&#45;&gt;dir_cabae42bbc2bbaf21b45af6b92ef62e9</title>
<path fill="none" stroke="#63b8ff" d="M43.83,-243.86C40.67,-217.94 33.56,-138.94 55,-79 58.67,-68.74 65.47,-58.75 71.85,-50.84"/>
<polygon fill="#63b8ff" stroke="#63b8ff" points="74.59,-53.03 78.45,-43.17 69.28,-48.46 74.59,-53.03"/>
<g id="a_edge20&#45;headlabel"><a xlink:href="dir_000032_000013.html" target="_top" xlink:title="2">
<text text-anchor="middle" x="74.39" y="-55.11" font-family="Helvetica,sans-Serif" font-size="10.00" fill="#63b8ff">2</text>
</a>
</g>
</g>
<!-- dir_e4d7f7a88037af12eae8bd997a8823fc&#45;&gt;dir_36f22bdf0117f38e86252516d12afdac -->
<g id="edge17" class="edge">
<title>dir_e4d7f7a88037af12eae8bd997a8823fc&#45;&gt;dir_36f22bdf0117f38e86252516d12afdac</title>
<path fill="none" stroke="#63b8ff" d="M46.14,-243.8C47.84,-231.5 51.33,-208.36 56,-189 62.95,-160.21 73.68,-127.56 80.52,-107.75"/>
<polygon fill="#63b8ff" stroke="#63b8ff" points="83.88,-108.77 83.87,-98.18 77.27,-106.46 83.88,-108.77"/>
<g id="a_edge17&#45;headlabel"><a xlink:href="dir_000032_000035.html" target="_top" xlink:title="1">
<text text-anchor="middle" x="85.37" y="-110.6" font-family="Helvetica,sans-Serif" font-size="10.00" fill="#63b8ff">1</text>
</a>
</g>
</g>
<!-- dir_e4d7f7a88037af12eae8bd997a8823fc&#45;&gt;dir_a0bd5b61e2f393f7cb26e530f5604320 -->
<g id="edge19" class="edge">
<title>dir_e4d7f7a88037af12eae8bd997a8823fc&#45;&gt;dir_a0bd5b61e2f393f7cb26e530f5604320</title>
<path fill="none" stroke="#63b8ff" d="M65.68,-246.12C83.37,-239.53 107.97,-227.43 121,-208 129.82,-194.85 131.62,-176.72 131.48,-163.2"/>
<polygon fill="#63b8ff" stroke="#63b8ff" points="134.97,-162.96 131.01,-153.13 127.98,-163.28 134.97,-162.96"/>
<g id="a_edge19&#45;headlabel"><a xlink:href="dir_000032_000041.html" target="_top" xlink:title="10">
<text text-anchor="middle" x="137.97" y="-163.92" font-family="Helvetica,sans-Serif" font-size="10.00" fill="#63b8ff">10</text>
</a>
</g>
</g>
<!-- dir_36f22bdf0117f38e86252516d12afdac&#45;&gt;dir_718cb05e94fb01aeb88649f9185845a8 -->
<g id="edge21" class="edge">
<title>dir_36f22bdf0117f38e86252516d12afdac&#45;&gt;dir_718cb05e94fb01aeb88649f9185845a8</title>
<path fill="none" stroke="#63b8ff" d="M90.96,-98.16C94.4,-115.5 95.23,-154.84 93.11,-178.48"/>
<polygon fill="#63b8ff" stroke="#63b8ff" points="89.61,-178.3 91.83,-188.66 96.55,-179.18 89.61,-178.3"/>
<g id="a_edge21&#45;headlabel"><a xlink:href="dir_000035_000011.html" target="_top" xlink:title="3">
<text text-anchor="middle" x="87.24" y="-171.88" font-family="Helvetica,sans-Serif" font-size="10.00" fill="#63b8ff">3</text>
</a>
</g>
</g>
<!-- dir_36f22bdf0117f38e86252516d12afdac&#45;&gt;dir_cabae42bbc2bbaf21b45af6b92ef62e9 -->
<g id="edge22" class="edge">
<title>dir_36f22bdf0117f38e86252516d12afdac&#45;&gt;dir_cabae42bbc2bbaf21b45af6b92ef62e9</title>
<path fill="none" stroke="#63b8ff" d="M87,-78.75C87,-71.8 87,-61.85 87,-53.13"/>
<polygon fill="#63b8ff" stroke="#63b8ff" points="90.5,-53.09 87,-43.09 83.5,-53.09 90.5,-53.09"/>
<g id="a_edge22&#45;headlabel"><a xlink:href="dir_000035_000013.html" target="_top" xlink:title="3">
<text text-anchor="middle" x="93.34" y="-54.18" font-family="Helvetica,sans-Serif" font-size="10.00" fill="#63b8ff">3</text>
</a>
</g>
</g>
<!-- dir_a0bd5b61e2f393f7cb26e530f5604320&#45;&gt;dir_718cb05e94fb01aeb88649f9185845a8 -->
<g id="edge24" class="edge">
<title>dir_a0bd5b61e2f393f7cb26e530f5604320&#45;&gt;dir_718cb05e94fb01aeb88649f9185845a8</title>
<path fill="none" stroke="#63b8ff" d="M128.32,-153.09C123.97,-160.68 115.42,-171.95 107.17,-181.24"/>
<polygon fill="#63b8ff" stroke="#63b8ff" points="104.41,-179.07 100.1,-188.75 109.5,-183.86 104.41,-179.07"/>
<g id="a_edge24&#45;headlabel"><a xlink:href="dir_000041_000011.html" target="_top" xlink:title="14">
<text text-anchor="middle" x="104.8" y="-172" font-family="Helvetica,sans-Serif" font-size="10.00" fill="#63b8ff">14</text>
</a>
</g>
</g>
<!-- dir_a0bd5b61e2f393f7cb26e530f5604320&#45;&gt;dir_cabae42bbc2bbaf21b45af6b92ef62e9 -->
<g id="edge26" class="edge">
<title>dir_a0bd5b61e2f393f7cb26e530f5604320&#45;&gt;dir_cabae42bbc2bbaf21b45af6b92ef62e9</title>
<path fill="none" stroke="#63b8ff" d="M128.19,-133.65C125.47,-121.18 119.83,-97.83 112,-79 108.13,-69.69 102.76,-59.87 97.99,-51.83"/>
<polygon fill="#63b8ff" stroke="#63b8ff" points="100.83,-49.75 92.61,-43.06 94.86,-53.41 100.83,-49.75"/>
<g id="a_edge26&#45;headlabel"><a xlink:href="dir_000041_000013.html" target="_top" xlink:title="14">
<text text-anchor="middle" x="105.13" y="-48.83" font-family="Helvetica,sans-Serif" font-size="10.00" fill="#63b8ff">14</text>
</a>
</g>
</g>
<!-- dir_a0bd5b61e2f393f7cb26e530f5604320&#45;&gt;dir_9101985d24c2f692df501a09f2c284d0 -->
<g id="edge25" class="edge">
<title>dir_a0bd5b61e2f393f7cb26e530f5604320&#45;&gt;dir_9101985d24c2f692df501a09f2c284d0</title>
<path fill="none" stroke="#63b8ff" d="M139.96,-133.98C149.13,-126.15 162.94,-114.34 174.03,-104.86"/>
<polygon fill="#63b8ff" stroke="#63b8ff" points="176.53,-107.33 181.86,-98.17 171.98,-102.01 176.53,-107.33"/>
<g id="a_edge25&#45;headlabel"><a xlink:href="dir_000041_000028.html" target="_top" xlink:title="7">
<text text-anchor="middle" x="175.64" y="-109.32" font-family="Helvetica,sans-Serif" font-size="10.00" fill="#63b8ff">7</text>
</a>
</g>
</g>
<!-- dir_a0bd5b61e2f393f7cb26e530f5604320&#45;&gt;dir_36f22bdf0117f38e86252516d12afdac -->
<g id="edge23" class="edge">
<title>dir_a0bd5b61e2f393f7cb26e530f5604320&#45;&gt;dir_36f22bdf0117f38e86252516d12afdac</title>
<path fill="none" stroke="#63b8ff" d="M122.9,-133.75C116.83,-126.26 107.91,-115.28 100.49,-106.13"/>
<polygon fill="#63b8ff" stroke="#63b8ff" points="102.99,-103.65 93.97,-98.09 97.55,-108.06 102.99,-103.65"/>
<g id="a_edge23&#45;headlabel"><a xlink:href="dir_000041_000035.html" target="_top" xlink:title="1">
<text text-anchor="middle" x="107.46" y="-102.15" font-family="Helvetica,sans-Serif" font-size="10.00" fill="#63b8ff">1</text>
</a>
</g>
</g>
</g>
</svg>
