<?xml version="1.0" encoding="UTF-8" standalone="no"?>
<!DOCTYPE svg PUBLIC "-//W3C//DTD SVG 1.1//EN"
 "http://www.w3.org/Graphics/SVG/1.1/DTD/svg11.dtd">
<!-- Generated by graphviz version 2.43.0 (0)
 -->
<!-- Title: include/ccf/pal Pages: 1 -->
<svg width="135pt" height="133pt"
 viewBox="0.00 0.00 135.00 133.00" xmlns="http://www.w3.org/2000/svg" xmlns:xlink="http://www.w3.org/1999/xlink">
<g id="graph0" class="graph" transform="scale(1 1) rotate(0) translate(4 129)">
<title>include/ccf/pal</title>
<g id="clust1" class="cluster">
<title>clusterdir_c3d33925c9fc81f340cd5350e8f8562d</title>
<g id="a_clust1"><a xlink:href="dir_c3d33925c9fc81f340cd5350e8f8562d.html" target="_top" xlink:title="ccf">
<polygon fill="#edf0f7" stroke="#7f7f7f" stroke-dasharray="5,2" points="8,-8 8,-117 119,-117 119,-8 8,-8"/>
<text text-anchor="middle" x="63.5" y="-105" font-family="Helvetica,sans-Serif" font-size="10.00">ccf</text>
</a>
</g>
</g>
<!-- dir_718cb05e94fb01aeb88649f9185845a8 -->
<g id="node1" class="node">
<title>dir_718cb05e94fb01aeb88649f9185845a8</title>
<g id="a_node1"><a xlink:href="dir_718cb05e94fb01aeb88649f9185845a8.html" target="_top" xlink:title="crypto">
<polygon fill="#a2b4d6" stroke="#404040" points="63.5,-35 16.5,-35 16.5,-16 63.5,-16 63.5,-35"/>
<text text-anchor="middle" x="40" y="-23" font-family="Helvetica,sans-Serif" font-size="10.00">crypto</text>
</a>
</g>
</g>
<!-- dir_cabae42bbc2bbaf21b45af6b92ef62e9 -->
<g id="node2" class="node">
<title>dir_cabae42bbc2bbaf21b45af6b92ef62e9</title>
<g id="a_node2"><a xlink:href="dir_cabae42bbc2bbaf21b45af6b92ef62e9.html" target="_top" xlink:title="ds">
<polygon fill="#a2b4d6" stroke="#404040" points="110.5,-35 81.5,-35 81.5,-16 110.5,-16 110.5,-35"/>
<text text-anchor="middle" x="96" y="-23" font-family="Helvetica,sans-Serif" font-size="10.00">ds</text>
</a>
</g>
</g>
<!-- dir_36f22bdf0117f38e86252516d12afdac -->
<g id="node3" class="node">
<title>dir_36f22bdf0117f38e86252516d12afdac</title>
<g id="a_node3"><a xlink:href="dir_36f22bdf0117f38e86252516d12afdac.html" target="_top" xlink:title="pal">
<polygon fill="#edf0f7" stroke="#404040" stroke-width="2" points="83,-90 51,-90 51,-71 83,-71 83,-90"/>
<text text-anchor="middle" x="67" y="-78" font-family="Helvetica,sans-Serif" font-size="10.00">pal</text>
</a>
</g>
</g>
<!-- dir_36f22bdf0117f38e86252516d12afdac&#45;&gt;dir_718cb05e94fb01aeb88649f9185845a8 -->
<g id="edge1" class="edge">
<title>dir_36f22bdf0117f38e86252516d12afdac&#45;&gt;dir_718cb05e94fb01aeb88649f9185845a8</title>
<path fill="none" stroke="#63b8ff" d="M62.54,-70.75C58.88,-63.57 53.59,-53.18 49.05,-44.27"/>
<polygon fill="#63b8ff" stroke="#63b8ff" points="52.03,-42.41 44.38,-35.09 45.8,-45.59 52.03,-42.41"/>
<g id="a_edge1&#45;headlabel"><a xlink:href="dir_000035_000011.html" target="_top" xlink:title="3">
<text text-anchor="middle" x="56.2" y="-41.82" font-family="Helvetica,sans-Serif" font-size="10.00" fill="#63b8ff">3</text>
</a>
</g>
</g>
<!-- dir_36f22bdf0117f38e86252516d12afdac&#45;&gt;dir_cabae42bbc2bbaf21b45af6b92ef62e9 -->
<g id="edge2" class="edge">
<title>dir_36f22bdf0117f38e86252516d12afdac&#45;&gt;dir_cabae42bbc2bbaf21b45af6b92ef62e9</title>
<path fill="none" stroke="#63b8ff" d="M71.79,-70.75C75.76,-63.49 81.53,-52.95 86.43,-43.98"/>
<polygon fill="#63b8ff" stroke="#63b8ff" points="89.57,-45.54 91.3,-35.09 83.43,-42.18 89.57,-45.54"/>
<g id="a_edge2&#45;headlabel"><a xlink:href="dir_000035_000013.html" target="_top" xlink:title="3">
<text text-anchor="middle" x="90.34" y="-47.56" font-family="Helvetica,sans-Serif" font-size="10.00" fill="#63b8ff">3</text>
</a>
</g>
</g>
</g>
</svg>
