<?xml version="1.0" encoding="UTF-8" standalone="no"?>
<!DOCTYPE svg PUBLIC "-//W3C//DTD SVG 1.1//EN"
 "http://www.w3.org/Graphics/SVG/1.1/DTD/svg11.dtd">
<!-- Generated by graphviz version 2.43.0 (0)
 -->
<!-- Title: src/endpoints/authentication Pages: 1 -->
<svg width="236pt" height="117pt"
 viewBox="0.00 0.00 235.50 117.00" xmlns="http://www.w3.org/2000/svg" xmlns:xlink="http://www.w3.org/1999/xlink">
<g id="graph0" class="graph" transform="scale(1 1) rotate(0) translate(4 113)">
<title>src/endpoints/authentication</title>
<g id="clust1" class="cluster">
<title>clusterdir_a2b23ad3d4048fef2ffce6bed40d1385</title>
<g id="a_clust1"><a xlink:href="dir_a2b23ad3d4048fef2ffce6bed40d1385.html" target="_top" xlink:title="endpoints">
<polygon fill="#edf0f7" stroke="#7f7f7f" stroke-dasharray="5,2" points="45.5,-47 45.5,-101 149.5,-101 149.5,-47 45.5,-47"/>
<text text-anchor="middle" x="97.5" y="-89" font-family="Helvetica,sans-Serif" font-size="10.00">endpoints</text>
</a>
</g>
</g>
<!-- dir_100cae52b844ec0b520b7e5b8ea8fe4b -->
<g id="node1" class="node">
<title>dir_100cae52b844ec0b520b7e5b8ea8fe4b</title>
<g id="a_node1"><a xlink:href="dir_100cae52b844ec0b520b7e5b8ea8fe4b.html" target="_top" xlink:title="authentication">
<polygon fill="#edf0f7" stroke="#404040" stroke-width="2" points="141,-74 54,-74 54,-55 141,-55 141,-74"/>
<text text-anchor="middle" x="97.5" y="-62" font-family="Helvetica,sans-Serif" font-size="10.00">authentication</text>
</a>
</g>
</g>
<!-- dir_122f4add68bb94b3fee614989bbbd8f9 -->
<g id="node2" class="node">
<title>dir_122f4add68bb94b3fee614989bbbd8f9</title>
<g id="a_node2"><a xlink:href="dir_122f4add68bb94b3fee614989bbbd8f9.html" target="_top" xlink:title="ds">
<polygon fill="#edf0f7" stroke="#7f7f7f" points="29,-19 0,-19 0,0 29,0 29,-19"/>
<text text-anchor="middle" x="14.5" y="-7" font-family="Helvetica,sans-Serif" font-size="10.00">ds</text>
</a>
</g>
</g>
<!-- dir_100cae52b844ec0b520b7e5b8ea8fe4b&#45;&gt;dir_122f4add68bb94b3fee614989bbbd8f9 -->
<g id="edge1" class="edge">
<title>dir_100cae52b844ec0b520b7e5b8ea8fe4b&#45;&gt;dir_122f4add68bb94b3fee614989bbbd8f9</title>
<path fill="none" stroke="#63b8ff" d="M84.16,-54.98C71.41,-46.84 51.95,-34.41 36.83,-24.76"/>
<polygon fill="#63b8ff" stroke="#63b8ff" points="38.39,-21.6 28.08,-19.17 34.62,-27.5 38.39,-21.6"/>
<g id="a_edge1&#45;headlabel"><a xlink:href="dir_000005_000014.html" target="_top" xlink:title="4">
<text text-anchor="middle" x="42.95" y="-18.64" font-family="Helvetica,sans-Serif" font-size="10.00" fill="#63b8ff">4</text>
</a>
</g>
</g>
<!-- dir_2d29d7dff7c7baf1180920f6796c23ae -->
<g id="node3" class="node">
<title>dir_2d29d7dff7c7baf1180920f6796c23ae</title>
<g id="a_node3"><a xlink:href="dir_2d29d7dff7c7baf1180920f6796c23ae.html" target="_top" xlink:title="http">
<polygon fill="#edf0f7" stroke="#7f7f7f" points="83.5,-19 47.5,-19 47.5,0 83.5,0 83.5,-19"/>
<text text-anchor="middle" x="65.5" y="-7" font-family="Helvetica,sans-Serif" font-size="10.00">http</text>
</a>
</g>
</g>
<!-- dir_100cae52b844ec0b520b7e5b8ea8fe4b&#45;&gt;dir_2d29d7dff7c7baf1180920f6796c23ae -->
<g id="edge2" class="edge">
<title>dir_100cae52b844ec0b520b7e5b8ea8fe4b&#45;&gt;dir_2d29d7dff7c7baf1180920f6796c23ae</title>
<path fill="none" stroke="#63b8ff" d="M92.22,-54.75C87.79,-47.42 81.34,-36.73 75.88,-27.7"/>
<polygon fill="#63b8ff" stroke="#63b8ff" points="78.85,-25.84 70.69,-19.09 72.86,-29.46 78.85,-25.84"/>
<g id="a_edge2&#45;headlabel"><a xlink:href="dir_000005_000021.html" target="_top" xlink:title="3">
<text text-anchor="middle" x="83.14" y="-24.95" font-family="Helvetica,sans-Serif" font-size="10.00" fill="#63b8ff">3</text>
</a>
</g>
</g>
<!-- dir_5427940bb9029915fc0c11c1284afde6 -->
<g id="node4" class="node">
<title>dir_5427940bb9029915fc0c11c1284afde6</title>
<g id="a_node4"><a xlink:href="dir_5427940bb9029915fc0c11c1284afde6.html" target="_top" xlink:title="enclave">
<polygon fill="#edf0f7" stroke="#7f7f7f" points="157,-19 102,-19 102,0 157,0 157,-19"/>
<text text-anchor="middle" x="129.5" y="-7" font-family="Helvetica,sans-Serif" font-size="10.00">enclave</text>
</a>
</g>
</g>
<!-- dir_100cae52b844ec0b520b7e5b8ea8fe4b&#45;&gt;dir_5427940bb9029915fc0c11c1284afde6 -->
<g id="edge3" class="edge">
<title>dir_100cae52b844ec0b520b7e5b8ea8fe4b&#45;&gt;dir_5427940bb9029915fc0c11c1284afde6</title>
<path fill="none" stroke="#63b8ff" d="M102.78,-54.75C107.21,-47.42 113.66,-36.73 119.12,-27.7"/>
<polygon fill="#63b8ff" stroke="#63b8ff" points="122.14,-29.46 124.31,-19.09 116.15,-25.84 122.14,-29.46"/>
<g id="a_edge3&#45;headlabel"><a xlink:href="dir_000005_000015.html" target="_top" xlink:title="2">
<text text-anchor="middle" x="122.71" y="-31.5" font-family="Helvetica,sans-Serif" font-size="10.00" fill="#63b8ff">2</text>
</a>
</g>
</g>
<!-- dir_d44c64559bbebec7f509842c48db8b23 -->
<g id="node5" class="node">
<title>dir_d44c64559bbebec7f509842c48db8b23</title>
<g id="a_node5"><a xlink:href="dir_d44c64559bbebec7f509842c48db8b23.html" target="_top" xlink:title="include">
<polygon fill="#edf0f7" stroke="red" points="227.5,-19 175.5,-19 175.5,0 227.5,0 227.5,-19"/>
<text text-anchor="middle" x="201.5" y="-7" font-family="Helvetica,sans-Serif" font-size="10.00">include</text>
</a>
</g>
</g>
<!-- dir_100cae52b844ec0b520b7e5b8ea8fe4b&#45;&gt;dir_d44c64559bbebec7f509842c48db8b23 -->
<g id="edge4" class="edge">
<title>dir_100cae52b844ec0b520b7e5b8ea8fe4b&#45;&gt;dir_d44c64559bbebec7f509842c48db8b23</title>
<path fill="none" stroke="#63b8ff" d="M114.21,-54.98C130.71,-46.57 156.2,-33.59 175.38,-23.81"/>
<polygon fill="#63b8ff" stroke="#63b8ff" points="177.17,-26.83 184.49,-19.17 173.99,-20.59 177.17,-26.83"/>
<g id="a_edge4&#45;headlabel"><a xlink:href="dir_000005_000023.html" target="_top" xlink:title="25">
<text text-anchor="middle" x="175.25" y="-28.49" font-family="Helvetica,sans-Serif" font-size="10.00" fill="#63b8ff">25</text>
</a>
</g>
</g>
</g>
</svg>
