<?xml version="1.0" encoding="UTF-8" standalone="no"?>
<!DOCTYPE svg PUBLIC "-//W3C//DTD SVG 1.1//EN"
 "http://www.w3.org/Graphics/SVG/1.1/DTD/svg11.dtd">
<!-- Generated by graphviz version 2.43.0 (0)
 -->
<!-- Title: src/consensus/aft Pages: 1 -->
<svg width="355pt" height="180pt"
 viewBox="0.00 0.00 355.00 180.00" xmlns="http://www.w3.org/2000/svg" xmlns:xlink="http://www.w3.org/1999/xlink">
<g id="graph0" class="graph" transform="scale(1 1) rotate(0) translate(4 176)">
<title>src/consensus/aft</title>
<g id="clust1" class="cluster">
<title>clusterdir_dee301ab18d354d094fb7852349ef839</title>
<g id="a_clust1"><a xlink:href="dir_dee301ab18d354d094fb7852349ef839.html" target="_top" xlink:title="consensus">
<polygon fill="#edf0f7" stroke="#7f7f7f" stroke-dasharray="5,2" points="45.5,-39 45.5,-164 115.5,-164 115.5,-39 45.5,-39"/>
<text text-anchor="middle" x="80.5" y="-152" font-family="Helvetica,sans-Serif" font-size="10.00">consensus</text>
</a>
</g>
</g>
<g id="clust2" class="cluster">
<title>clusterdir_d359f39a8b9d4f0c7d64ae34c651e6dc</title>
<g id="a_clust2"><a xlink:href="dir_d359f39a8b9d4f0c7d64ae34c651e6dc.html" target="_top">
<polygon fill="#edf0f7" stroke="#404040" stroke-width="2" points="53.5,-47 53.5,-137 107.5,-137 107.5,-47 53.5,-47"/>
</a>
</g>
</g>
<!-- dir_d359f39a8b9d4f0c7d64ae34c651e6dc -->
<g id="node1" class="node">
<title>dir_d359f39a8b9d4f0c7d64ae34c651e6dc</title>
<text text-anchor="middle" x="84.5" y="-117" font-family="Helvetica,sans-Serif" font-size="10.00">aft</text>
</g>
<!-- dir_ea328006d871e8e8b978c6dd0c43f774 -->
<g id="node2" class="node">
<title>dir_ea328006d871e8e8b978c6dd0c43f774</title>
<g id="a_node2"><a xlink:href="dir_ea328006d871e8e8b978c6dd0c43f774.html" target="_top" xlink:title="impl">
<polygon fill="#a2b4d6" stroke="#404040" points="99.5,-74 61.5,-74 61.5,-55 99.5,-55 99.5,-74"/>
<text text-anchor="middle" x="80.5" y="-62" font-family="Helvetica,sans-Serif" font-size="10.00">impl</text>
</a>
</g>
</g>
<!-- dir_d359f39a8b9d4f0c7d64ae34c651e6dc&#45;&gt;dir_ea328006d871e8e8b978c6dd0c43f774 -->
<g id="edge7" class="edge">
<title>dir_d359f39a8b9d4f0c7d64ae34c651e6dc&#45;&gt;dir_ea328006d871e8e8b978c6dd0c43f774</title>
<path fill="none" stroke="#63b8ff" d="M83.84,-109.75C83.32,-102.8 82.56,-92.85 81.91,-84.13"/>
<polygon fill="#63b8ff" stroke="#63b8ff" points="85.39,-83.8 81.15,-74.09 78.41,-84.32 85.39,-83.8"/>
<g id="a_edge7&#45;headlabel"><a xlink:href="dir_000000_000022.html" target="_top" xlink:title="1">
<text text-anchor="middle" x="88.49" y="-84.67" font-family="Helvetica,sans-Serif" font-size="10.00" fill="#63b8ff">1</text>
</a>
</g>
</g>
<!-- dir_122f4add68bb94b3fee614989bbbd8f9 -->
<g id="node3" class="node">
<title>dir_122f4add68bb94b3fee614989bbbd8f9</title>
<g id="a_node3"><a xlink:href="dir_122f4add68bb94b3fee614989bbbd8f9.html" target="_top" xlink:title="ds">
<polygon fill="#edf0f7" stroke="#7f7f7f" points="29,-19 0,-19 0,0 29,0 29,-19"/>
<text text-anchor="middle" x="14.5" y="-7" font-family="Helvetica,sans-Serif" font-size="10.00">ds</text>
</a>
</g>
</g>
<!-- dir_d359f39a8b9d4f0c7d64ae34c651e6dc&#45;&gt;dir_122f4add68bb94b3fee614989bbbd8f9 -->
<g id="edge1" class="edge">
<title>dir_d359f39a8b9d4f0c7d64ae34c651e6dc&#45;&gt;dir_122f4add68bb94b3fee614989bbbd8f9</title>
<path fill="none" stroke="#63b8ff" d="M75.4,-109.94C66.69,-101.42 53.59,-87.67 44.5,-74 34.91,-59.58 26.73,-41.61 21.34,-28.48"/>
<polygon fill="#63b8ff" stroke="#63b8ff" points="24.58,-27.15 17.65,-19.13 18.07,-29.72 24.58,-27.15"/>
<g id="a_edge1&#45;headlabel"><a xlink:href="dir_000000_000014.html" target="_top" xlink:title="5">
<text text-anchor="middle" x="28.54" y="-26.95" font-family="Helvetica,sans-Serif" font-size="10.00" fill="#63b8ff">5</text>
</a>
</g>
</g>
<!-- dir_18ae7af74d885898b85cbb543ae51b63 -->
<g id="node4" class="node">
<title>dir_18ae7af74d885898b85cbb543ae51b63</title>
<g id="a_node4"><a xlink:href="dir_18ae7af74d885898b85cbb543ae51b63.html" target="_top" xlink:title="node">
<polygon fill="#edf0f7" stroke="red" stroke-dasharray="5,2" points="347,-74 306,-74 306,-55 347,-55 347,-74"/>
<text text-anchor="middle" x="326.5" y="-62" font-family="Helvetica,sans-Serif" font-size="10.00">node</text>
</a>
</g>
</g>
<!-- dir_d359f39a8b9d4f0c7d64ae34c651e6dc&#45;&gt;dir_18ae7af74d885898b85cbb543ae51b63 -->
<g id="edge2" class="edge">
<title>dir_d359f39a8b9d4f0c7d64ae34c651e6dc&#45;&gt;dir_18ae7af74d885898b85cbb543ae51b63</title>
<path fill="none" stroke="#63b8ff" d="M99.09,-115.5C132.94,-108.52 219.48,-90.48 291.5,-74 292.95,-73.67 294.43,-73.33 295.92,-72.98"/>
<polygon fill="#63b8ff" stroke="#63b8ff" points="296.88,-76.35 305.79,-70.62 295.25,-69.54 296.88,-76.35"/>
<g id="a_edge2&#45;headlabel"><a xlink:href="dir_000000_000033.html" target="_top" xlink:title="6">
<text text-anchor="middle" x="294.04" y="-77.44" font-family="Helvetica,sans-Serif" font-size="10.00" fill="#63b8ff">6</text>
</a>
</g>
</g>
<!-- dir_4c8befd6991d7a2e9d66c427274b8c22 -->
<g id="node5" class="node">
<title>dir_4c8befd6991d7a2e9d66c427274b8c22</title>
<g id="a_node5"><a xlink:href="dir_4c8befd6991d7a2e9d66c427274b8c22.html" target="_top" xlink:title="kv">
<polygon fill="#edf0f7" stroke="#7f7f7f" points="85,-19 56,-19 56,0 85,0 85,-19"/>
<text text-anchor="middle" x="70.5" y="-7" font-family="Helvetica,sans-Serif" font-size="10.00">kv</text>
</a>
</g>
</g>
<!-- dir_d359f39a8b9d4f0c7d64ae34c651e6dc&#45;&gt;dir_4c8befd6991d7a2e9d66c427274b8c22 -->
<g id="edge3" class="edge">
<title>dir_d359f39a8b9d4f0c7d64ae34c651e6dc&#45;&gt;dir_4c8befd6991d7a2e9d66c427274b8c22</title>
<path fill="none" stroke="#63b8ff" d="M75.75,-109.9C67.94,-101.56 57.05,-88.13 52.5,-74 47.73,-59.19 48.18,-53.94 52.5,-39 53.61,-35.18 55.39,-31.37 57.42,-27.85"/>
<polygon fill="#63b8ff" stroke="#63b8ff" points="60.45,-29.62 63.06,-19.35 54.62,-25.75 60.45,-29.62"/>
<g id="a_edge3&#45;headlabel"><a xlink:href="dir_000000_000029.html" target="_top" xlink:title="7">
<text text-anchor="middle" x="60.83" y="-31.69" font-family="Helvetica,sans-Serif" font-size="10.00" fill="#63b8ff">7</text>
</a>
</g>
</g>
<!-- dir_4f691f982165d1317925cee58b4b4f56 -->
<g id="node6" class="node">
<title>dir_4f691f982165d1317925cee58b4b4f56</title>
<g id="a_node6"><a xlink:href="dir_4f691f982165d1317925cee58b4b4f56.html" target="_top" xlink:title="service">
<polygon fill="#edf0f7" stroke="red" stroke-dasharray="5,2" points="175.5,-74 123.5,-74 123.5,-55 175.5,-55 175.5,-74"/>
<text text-anchor="middle" x="149.5" y="-62" font-family="Helvetica,sans-Serif" font-size="10.00">service</text>
</a>
</g>
</g>
<!-- dir_d359f39a8b9d4f0c7d64ae34c651e6dc&#45;&gt;dir_4f691f982165d1317925cee58b4b4f56 -->
<g id="edge4" class="edge">
<title>dir_d359f39a8b9d4f0c7d64ae34c651e6dc&#45;&gt;dir_4f691f982165d1317925cee58b4b4f56</title>
<path fill="none" stroke="#63b8ff" d="M94.94,-109.98C104.65,-102.07 119.32,-90.11 131,-80.58"/>
<polygon fill="#63b8ff" stroke="#63b8ff" points="133.33,-83.2 138.87,-74.17 128.9,-77.78 133.33,-83.2"/>
<g id="a_edge4&#45;headlabel"><a xlink:href="dir_000000_000042.html" target="_top" xlink:title="1">
<text text-anchor="middle" x="132.34" y="-85.17" font-family="Helvetica,sans-Serif" font-size="10.00" fill="#63b8ff">1</text>
</a>
</g>
</g>
<!-- dir_5427940bb9029915fc0c11c1284afde6 -->
<g id="node7" class="node">
<title>dir_5427940bb9029915fc0c11c1284afde6</title>
<g id="a_node7"><a xlink:href="dir_5427940bb9029915fc0c11c1284afde6.html" target="_top" xlink:title="enclave">
<polygon fill="#edf0f7" stroke="#7f7f7f" points="249,-74 194,-74 194,-55 249,-55 249,-74"/>
<text text-anchor="middle" x="221.5" y="-62" font-family="Helvetica,sans-Serif" font-size="10.00">enclave</text>
</a>
</g>
</g>
<!-- dir_d359f39a8b9d4f0c7d64ae34c651e6dc&#45;&gt;dir_5427940bb9029915fc0c11c1284afde6 -->
<g id="edge5" class="edge">
<title>dir_d359f39a8b9d4f0c7d64ae34c651e6dc&#45;&gt;dir_5427940bb9029915fc0c11c1284afde6</title>
<path fill="none" stroke="#63b8ff" d="M99.16,-112.83C120.65,-104.52 161.23,-88.82 189.75,-77.78"/>
<polygon fill="#63b8ff" stroke="#63b8ff" points="191.22,-80.97 199.28,-74.1 188.69,-74.44 191.22,-80.97"/>
<g id="a_edge5&#45;headlabel"><a xlink:href="dir_000000_000015.html" target="_top" xlink:title="2">
<text text-anchor="middle" x="188.89" y="-82.41" font-family="Helvetica,sans-Serif" font-size="10.00" fill="#63b8ff">2</text>
</a>
</g>
</g>
<!-- dir_d44c64559bbebec7f509842c48db8b23 -->
<g id="node8" class="node">
<title>dir_d44c64559bbebec7f509842c48db8b23</title>
<g id="a_node8"><a xlink:href="dir_d44c64559bbebec7f509842c48db8b23.html" target="_top" xlink:title="include">
<polygon fill="#edf0f7" stroke="red" points="229.5,-19 177.5,-19 177.5,0 229.5,0 229.5,-19"/>
<text text-anchor="middle" x="203.5" y="-7" font-family="Helvetica,sans-Serif" font-size="10.00">include</text>
</a>
</g>
</g>
<!-- dir_d359f39a8b9d4f0c7d64ae34c651e6dc&#45;&gt;dir_d44c64559bbebec7f509842c48db8b23 -->
<g id="edge6" class="edge">
<title>dir_d359f39a8b9d4f0c7d64ae34c651e6dc&#45;&gt;dir_d44c64559bbebec7f509842c48db8b23</title>
<path fill="none" stroke="#63b8ff" d="M99.01,-117.03C137.16,-112.85 238.71,-99.49 258.5,-74 268.04,-61.71 266.58,-52.29 258.5,-39 253.92,-31.47 246.64,-25.84 238.85,-21.67"/>
<polygon fill="#63b8ff" stroke="#63b8ff" points="240.16,-18.42 229.61,-17.41 237.23,-24.77 240.16,-18.42"/>
<g id="a_edge6&#45;headlabel"><a xlink:href="dir_000000_000023.html" target="_top" xlink:title="19">
<text text-anchor="middle" x="244.61" y="-14.84" font-family="Helvetica,sans-Serif" font-size="10.00" fill="#63b8ff">19</text>
</a>
</g>
</g>
<!-- dir_ea328006d871e8e8b978c6dd0c43f774&#45;&gt;dir_122f4add68bb94b3fee614989bbbd8f9 -->
<g id="edge8" class="edge">
<title>dir_ea328006d871e8e8b978c6dd0c43f774&#45;&gt;dir_122f4add68bb94b3fee614989bbbd8f9</title>
<path fill="none" stroke="#63b8ff" d="M69.9,-54.98C60.04,-47.07 45.15,-35.11 33.28,-25.58"/>
<polygon fill="#63b8ff" stroke="#63b8ff" points="35.29,-22.7 25.3,-19.17 30.9,-28.16 35.29,-22.7"/>
<g id="a_edge8&#45;headlabel"><a xlink:href="dir_000022_000014.html" target="_top" xlink:title="1">
<text text-anchor="middle" x="39.87" y="-20.24" font-family="Helvetica,sans-Serif" font-size="10.00" fill="#63b8ff">1</text>
</a>
</g>
</g>
<!-- dir_ea328006d871e8e8b978c6dd0c43f774&#45;&gt;dir_4c8befd6991d7a2e9d66c427274b8c22 -->
<g id="edge9" class="edge">
<title>dir_ea328006d871e8e8b978c6dd0c43f774&#45;&gt;dir_4c8befd6991d7a2e9d66c427274b8c22</title>
<path fill="none" stroke="#63b8ff" d="M78.85,-54.75C77.54,-47.8 75.66,-37.85 74.02,-29.13"/>
<polygon fill="#63b8ff" stroke="#63b8ff" points="77.41,-28.27 72.12,-19.09 70.54,-29.56 77.41,-28.27"/>
<g id="a_edge9&#45;headlabel"><a xlink:href="dir_000022_000029.html" target="_top" xlink:title="2">
<text text-anchor="middle" x="80.87" y="-28.77" font-family="Helvetica,sans-Serif" font-size="10.00" fill="#63b8ff">2</text>
</a>
</g>
</g>
<!-- dir_ea328006d871e8e8b978c6dd0c43f774&#45;&gt;dir_d44c64559bbebec7f509842c48db8b23 -->
<g id="edge10" class="edge">
<title>dir_ea328006d871e8e8b978c6dd0c43f774&#45;&gt;dir_d44c64559bbebec7f509842c48db8b23</title>
<path fill="none" stroke="#63b8ff" d="M90.67,-54.87C97.15,-49.7 105.93,-43.33 114.5,-39 131.17,-30.59 150.85,-23.98 167.45,-19.25"/>
<polygon fill="#63b8ff" stroke="#63b8ff" points="168.61,-22.56 177.34,-16.55 166.77,-15.81 168.61,-22.56"/>
<g id="a_edge10&#45;headlabel"><a xlink:href="dir_000022_000023.html" target="_top" xlink:title="5">
<text text-anchor="middle" x="165.89" y="-23.75" font-family="Helvetica,sans-Serif" font-size="10.00" fill="#63b8ff">5</text>
</a>
</g>
</g>
</g>
</svg>
