<?xml version="1.0" encoding="UTF-8" standalone="no"?>
<!DOCTYPE svg PUBLIC "-//W3C//DTD SVG 1.1//EN"
 "http://www.w3.org/Graphics/SVG/1.1/DTD/svg11.dtd">
<!-- Generated by graphviz version 2.43.0 (0)
 -->
<!-- Title: src/ds/dl_list.h Pages: 1 -->
<svg width="2527pt" height="698pt"
 viewBox="0.00 0.00 2527.20 698.00" xmlns="http://www.w3.org/2000/svg" xmlns:xlink="http://www.w3.org/1999/xlink">
<g id="graph0" class="graph" transform="scale(1 1) rotate(0) translate(4 694)">
<title>src/ds/dl_list.h</title>
<!-- Node1 -->
<g id="node1" class="node">
<title>Node1</title>
<g id="a_node1"><a xlink:title=" ">
<polygon fill="#999999" stroke="#666666" points="761,-690 675,-690 675,-671 761,-671 761,-690"/>
<text text-anchor="middle" x="718" y="-678" font-family="Helvetica,sans-Serif" font-size="10.00">src/ds/dl_list.h</text>
</a>
</g>
</g>
<!-- Node2 -->
<g id="node2" class="node">
<title>Node2</title>
<g id="a_node2"><a xlink:href="untyped__map_8h.html" target="_top" xlink:title=" ">
<polygon fill="white" stroke="#666666" points="780.5,-635 655.5,-635 655.5,-616 780.5,-616 780.5,-635"/>
<text text-anchor="middle" x="718" y="-623" font-family="Helvetica,sans-Serif" font-size="10.00">src/kv/untyped_map.h</text>
</a>
</g>
</g>
<!-- Node1&#45;&gt;Node2 -->
<g id="edge1" class="edge">
<title>Node1&#45;&gt;Node2</title>
<path fill="none" stroke="#63b8ff" d="M718,-660.66C718,-651.93 718,-641.99 718,-635.09"/>
<polygon fill="#63b8ff" stroke="#63b8ff" points="714.5,-660.75 718,-670.75 721.5,-660.75 714.5,-660.75"/>
</g>
<!-- Node14 -->
<g id="node14" class="node">
<title>Node14</title>
<g id="a_node14"><a xlink:href="history_8h.html" target="_top" xlink:title=" ">
<polygon fill="white" stroke="#666666" points="427,-519.5 325,-519.5 325,-500.5 427,-500.5 427,-519.5"/>
<text text-anchor="middle" x="376" y="-507.5" font-family="Helvetica,sans-Serif" font-size="10.00">src/node/history.h</text>
</a>
</g>
</g>
<!-- Node1&#45;&gt;Node14 -->
<g id="edge81" class="edge">
<title>Node1&#45;&gt;Node14</title>
<path fill="none" stroke="#63b8ff" d="M691.48,-666.43C624.39,-633.38 449.26,-547.1 393.39,-519.57"/>
<polygon fill="#63b8ff" stroke="#63b8ff" points="690.05,-669.63 700.57,-670.91 693.15,-663.35 690.05,-669.63"/>
</g>
<!-- Node40 -->
<g id="node40" class="node">
<title>Node40</title>
<g id="a_node40"><a xlink:href="request__tracker_8h.html" target="_top" xlink:title=" ">
<polygon fill="white" stroke="#666666" points="943.5,-635 798.5,-635 798.5,-616 943.5,-616 943.5,-635"/>
<text text-anchor="middle" x="871" y="-623" font-family="Helvetica,sans-Serif" font-size="10.00">src/node/request_tracker.h</text>
</a>
</g>
</g>
<!-- Node1&#45;&gt;Node40 -->
<g id="edge82" class="edge">
<title>Node1&#45;&gt;Node40</title>
<path fill="none" stroke="#63b8ff" d="M752.15,-667.67C780.68,-657.79 820.69,-643.93 846.23,-635.08"/>
<polygon fill="#63b8ff" stroke="#63b8ff" points="750.89,-664.4 742.58,-670.98 753.18,-671.02 750.89,-664.4"/>
</g>
<!-- Node3 -->
<g id="node3" class="node">
<title>Node3</title>
<g id="a_node3"><a xlink:href="js__generic__base_8cpp.html" target="_top" xlink:title=" ">
<polygon fill="white" stroke="#666666" points="2489,-327 2371,-327 2371,-297 2489,-297 2489,-327"/>
<text text-anchor="start" x="2379" y="-315" font-family="Helvetica,sans-Serif" font-size="10.00">src/apps/js_generic</text>
<text text-anchor="middle" x="2430" y="-304" font-family="Helvetica,sans-Serif" font-size="10.00">/js_generic_base.cpp</text>
</a>
</g>
</g>
<!-- Node2&#45;&gt;Node3 -->
<g id="edge2" class="edge">
<title>Node2&#45;&gt;Node3</title>
<path fill="none" stroke="#63b8ff" d="M790.87,-616.12C955.12,-607.34 2405,-598.68 2405,-511 2405,-511 2405,-511 2405,-443 2405,-400.25 2418.2,-351 2425.41,-327.26"/>
<polygon fill="#63b8ff" stroke="#63b8ff" points="790.44,-612.64 780.7,-616.81 790.91,-619.62 790.44,-612.64"/>
</g>
<!-- Node4 -->
<g id="node4" class="node">
<title>Node4</title>
<g id="a_node4"><a xlink:href="wrap_8cpp.html" target="_top" xlink:title=" ">
<polygon fill="white" stroke="#666666" points="1867.5,-255.5 1778.5,-255.5 1778.5,-236.5 1867.5,-236.5 1867.5,-255.5"/>
<text text-anchor="middle" x="1823" y="-243.5" font-family="Helvetica,sans-Serif" font-size="10.00">src/js/wrap.cpp</text>
</a>
</g>
</g>
<!-- Node2&#45;&gt;Node4 -->
<g id="edge3" class="edge">
<title>Node2&#45;&gt;Node4</title>
<path fill="none" stroke="#63b8ff" d="M790.85,-615.94C1362.74,-574.55 1511.22,-632.43 2079,-580 2275.23,-561.88 2517,-708.07 2517,-511 2517,-511 2517,-511 2517,-377 2517,-340.46 2525.81,-320.7 2498,-297 2450.15,-256.22 2010.62,-248.68 1867.68,-247.3"/>
<polygon fill="#63b8ff" stroke="#63b8ff" points="790.41,-612.46 780.69,-616.68 790.92,-619.44 790.41,-612.46"/>
</g>
<!-- Node5 -->
<g id="node5" class="node">
<title>Node5</title>
<g id="a_node5"><a xlink:href="store_8h.html" target="_top" xlink:title=" ">
<polygon fill="white" stroke="#666666" points="759.5,-580 676.5,-580 676.5,-561 759.5,-561 759.5,-580"/>
<text text-anchor="middle" x="718" y="-568" font-family="Helvetica,sans-Serif" font-size="10.00">src/kv/store.h</text>
</a>
</g>
</g>
<!-- Node2&#45;&gt;Node5 -->
<g id="edge4" class="edge">
<title>Node2&#45;&gt;Node5</title>
<path fill="none" stroke="#63b8ff" d="M718,-605.66C718,-596.93 718,-586.99 718,-580.09"/>
<polygon fill="#63b8ff" stroke="#63b8ff" points="714.5,-605.75 718,-615.75 721.5,-605.75 714.5,-605.75"/>
</g>
<!-- Node39 -->
<g id="node39" class="node">
<title>Node39</title>
<g id="a_node39"><a xlink:href="tx_8cpp.html" target="_top" xlink:title=" ">
<polygon fill="white" stroke="#666666" points="658.5,-580 579.5,-580 579.5,-561 658.5,-561 658.5,-580"/>
<text text-anchor="middle" x="619" y="-568" font-family="Helvetica,sans-Serif" font-size="10.00">src/kv/tx.cpp</text>
</a>
</g>
</g>
<!-- Node2&#45;&gt;Node39 -->
<g id="edge80" class="edge">
<title>Node2&#45;&gt;Node39</title>
<path fill="none" stroke="#63b8ff" d="M693.22,-611.23C675.06,-601.51 650.94,-588.6 635.2,-580.17"/>
<polygon fill="#63b8ff" stroke="#63b8ff" points="691.63,-614.35 702.09,-615.98 694.93,-608.18 691.63,-614.35"/>
</g>
<!-- Node6 -->
<g id="node6" class="node">
<title>Node6</title>
<g id="a_node6"><a xlink:href="indexer_8h.html" target="_top" xlink:title=" ">
<polygon fill="white" stroke="#666666" points="1346.5,-453.5 1223.5,-453.5 1223.5,-434.5 1346.5,-434.5 1346.5,-453.5"/>
<text text-anchor="middle" x="1285" y="-441.5" font-family="Helvetica,sans-Serif" font-size="10.00">src/indexing/indexer.h</text>
</a>
</g>
</g>
<!-- Node5&#45;&gt;Node6 -->
<g id="edge5" class="edge">
<title>Node5&#45;&gt;Node6</title>
<path fill="none" stroke="#63b8ff" d="M769.74,-567.84C873.04,-563.96 1101.15,-552.49 1174,-525 1217.34,-508.64 1259.06,-470.79 1276.48,-453.68"/>
<polygon fill="#63b8ff" stroke="#63b8ff" points="769.42,-564.34 759.55,-568.21 769.67,-571.34 769.42,-564.34"/>
</g>
<!-- Node11 -->
<g id="node11" class="node">
<title>Node11</title>
<g id="a_node11"><a xlink:href="visit__each__entry__in__map_8cpp.html" target="_top" xlink:title=" ">
<polygon fill="white" stroke="#666666" points="721.5,-525 560.5,-525 560.5,-495 721.5,-495 721.5,-525"/>
<text text-anchor="start" x="568.5" y="-513" font-family="Helvetica,sans-Serif" font-size="10.00">src/indexing/strategies</text>
<text text-anchor="middle" x="641" y="-502" font-family="Helvetica,sans-Serif" font-size="10.00">/visit_each_entry_in_map.cpp</text>
</a>
</g>
</g>
<!-- Node5&#45;&gt;Node11 -->
<g id="edge11" class="edge">
<title>Node5&#45;&gt;Node11</title>
<path fill="none" stroke="#63b8ff" d="M698.61,-554.77C686.65,-545.68 671.39,-534.09 659.58,-525.11"/>
<polygon fill="#63b8ff" stroke="#63b8ff" points="696.56,-557.61 706.64,-560.87 700.79,-552.03 696.56,-557.61"/>
</g>
<!-- Node12 -->
<g id="node12" class="node">
<title>Node12</title>
<g id="a_node12"><a xlink:href="historical__queries_8h.html" target="_top" xlink:title=" ">
<polygon fill="white" stroke="#666666" points="134,-393 28,-393 28,-363 134,-363 134,-393"/>
<text text-anchor="start" x="36" y="-381" font-family="Helvetica,sans-Serif" font-size="10.00">src/node/historical</text>
<text text-anchor="middle" x="81" y="-370" font-family="Helvetica,sans-Serif" font-size="10.00">_queries.h</text>
</a>
</g>
</g>
<!-- Node5&#45;&gt;Node12 -->
<g id="edge12" class="edge">
<title>Node5&#45;&gt;Node12</title>
<path fill="none" stroke="#63b8ff" d="M666.3,-561.01C509.79,-540.88 465.82,-558.89 316,-525 230.85,-505.74 199.02,-513.72 131,-459 108.92,-441.24 93.85,-410.95 86.4,-393.17"/>
<polygon fill="#63b8ff" stroke="#63b8ff" points="665.91,-564.49 676.28,-562.33 666.83,-557.55 665.91,-564.49"/>
</g>
<!-- Node5&#45;&gt;Node14 -->
<g id="edge16" class="edge">
<title>Node5&#45;&gt;Node14</title>
<path fill="none" stroke="#63b8ff" d="M666.37,-560.67C601.27,-549.53 490.13,-530.52 425.88,-519.53"/>
<polygon fill="#63b8ff" stroke="#63b8ff" points="665.96,-564.15 676.41,-562.39 667.14,-557.25 665.96,-564.15"/>
</g>
<!-- Node16 -->
<g id="node16" class="node">
<title>Node16</title>
<g id="a_node16"><a xlink:href="snapshotter_8h.html" target="_top" xlink:title=" ">
<polygon fill="white" stroke="#666666" points="541.5,-321.5 414.5,-321.5 414.5,-302.5 541.5,-302.5 541.5,-321.5"/>
<text text-anchor="middle" x="478" y="-309.5" font-family="Helvetica,sans-Serif" font-size="10.00">src/node/snapshotter.h</text>
</a>
</g>
</g>
<!-- Node5&#45;&gt;Node16 -->
<g id="edge43" class="edge">
<title>Node5&#45;&gt;Node16</title>
<path fill="none" stroke="#63b8ff" d="M667.68,-558.83C621.59,-548.62 559.3,-533.55 551,-525 499.5,-471.93 543.19,-430.51 513,-363 505.91,-347.14 493.54,-331.08 485.56,-321.59"/>
<polygon fill="#63b8ff" stroke="#63b8ff" points="667.02,-562.27 677.54,-561 668.52,-555.43 667.02,-562.27"/>
</g>
<!-- Node21 -->
<g id="node21" class="node">
<title>Node21</title>
<g id="a_node21"><a xlink:href="frontend_8h.html" target="_top" xlink:title=" ">
<polygon fill="white" stroke="#666666" points="1291.5,-387.5 1162.5,-387.5 1162.5,-368.5 1291.5,-368.5 1291.5,-387.5"/>
<text text-anchor="middle" x="1227" y="-375.5" font-family="Helvetica,sans-Serif" font-size="10.00">src/node/rpc/frontend.h</text>
</a>
</g>
</g>
<!-- Node5&#45;&gt;Node21 -->
<g id="edge29" class="edge">
<title>Node5&#45;&gt;Node21</title>
<path fill="none" stroke="#63b8ff" d="M769.35,-560.23C845.52,-545.31 991.85,-512.14 1107,-459 1150.65,-438.86 1196.32,-403.93 1216.43,-387.72"/>
<polygon fill="#63b8ff" stroke="#63b8ff" points="768.67,-556.79 759.52,-562.13 770,-563.66 768.67,-556.79"/>
</g>
<!-- Node28 -->
<g id="node28" class="node">
<title>Node28</title>
<g id="a_node28"><a xlink:href="network__tables_8h.html" target="_top" xlink:title=" ">
<polygon fill="white" stroke="#666666" points="852,-525 740,-525 740,-495 852,-495 852,-525"/>
<text text-anchor="start" x="748" y="-513" font-family="Helvetica,sans-Serif" font-size="10.00">src/service/network</text>
<text text-anchor="middle" x="796" y="-502" font-family="Helvetica,sans-Serif" font-size="10.00">_tables.h</text>
</a>
</g>
</g>
<!-- Node5&#45;&gt;Node28 -->
<g id="edge44" class="edge">
<title>Node5&#45;&gt;Node28</title>
<path fill="none" stroke="#63b8ff" d="M737.64,-554.77C749.76,-545.68 765.22,-534.09 777.18,-525.11"/>
<polygon fill="#63b8ff" stroke="#63b8ff" points="735.41,-552.07 729.51,-560.87 739.61,-557.67 735.41,-552.07"/>
</g>
<!-- Node7 -->
<g id="node7" class="node">
<title>Node7</title>
<g id="a_node7"><a xlink:href="node__state_8h.html" target="_top" xlink:title=" ">
<polygon fill="white" stroke="#666666" points="980,-189.5 856,-189.5 856,-170.5 980,-170.5 980,-189.5"/>
<text text-anchor="middle" x="918" y="-177.5" font-family="Helvetica,sans-Serif" font-size="10.00">src/node/node_state.h</text>
</a>
</g>
</g>
<!-- Node6&#45;&gt;Node7 -->
<g id="edge6" class="edge">
<title>Node6&#45;&gt;Node7</title>
<path fill="none" stroke="#63b8ff" d="M1293.85,-424.8C1300.63,-408.26 1307.64,-383.41 1300,-363 1299.15,-360.72 1187.11,-232.21 1185,-231 1121.55,-194.7 1037.05,-184.03 980.26,-181.26"/>
<polygon fill="#63b8ff" stroke="#63b8ff" points="1290.48,-423.77 1289.58,-434.33 1296.86,-426.63 1290.48,-423.77"/>
</g>
<!-- Node8 -->
<g id="node8" class="node">
<title>Node8</title>
<g id="a_node8"><a xlink:href="src_2enclave_2enclave_8h.html" target="_top" xlink:title=" ">
<polygon fill="white" stroke="#666666" points="1274,-74 1152,-74 1152,-55 1274,-55 1274,-74"/>
<text text-anchor="middle" x="1213" y="-62" font-family="Helvetica,sans-Serif" font-size="10.00">src/enclave/enclave.h</text>
</a>
</g>
</g>
<!-- Node7&#45;&gt;Node8 -->
<g id="edge7" class="edge">
<title>Node7&#45;&gt;Node8</title>
<path fill="none" stroke="#63b8ff" d="M949.52,-166.87C1009.45,-143.81 1138.53,-94.15 1190.57,-74.13"/>
<polygon fill="#63b8ff" stroke="#63b8ff" points="948.25,-163.61 940.17,-170.47 950.76,-170.14 948.25,-163.61"/>
</g>
<!-- Node10 -->
<g id="node10" class="node">
<title>Node10</title>
<g id="a_node10"><a xlink:href="gov__effects_8h.html" target="_top" xlink:title=" ">
<polygon fill="white" stroke="#666666" points="1020,-129 876,-129 876,-110 1020,-110 1020,-129"/>
<text text-anchor="middle" x="948" y="-117" font-family="Helvetica,sans-Serif" font-size="10.00">src/node/rpc/gov_effects.h</text>
</a>
</g>
</g>
<!-- Node7&#45;&gt;Node10 -->
<g id="edge9" class="edge">
<title>Node7&#45;&gt;Node10</title>
<path fill="none" stroke="#63b8ff" d="M927.15,-161.15C932.59,-150.54 939.25,-137.56 943.56,-129.17"/>
<polygon fill="#63b8ff" stroke="#63b8ff" points="923.88,-159.87 922.43,-170.37 930.1,-163.07 923.88,-159.87"/>
</g>
<!-- Node9 -->
<g id="node9" class="node">
<title>Node9</title>
<g id="a_node9"><a xlink:href="enclave_2main_8cpp.html" target="_top" xlink:title=" ">
<polygon fill="white" stroke="#666666" points="1273,-19 1153,-19 1153,0 1273,0 1273,-19"/>
<text text-anchor="middle" x="1213" y="-7" font-family="Helvetica,sans-Serif" font-size="10.00">src/enclave/main.cpp</text>
</a>
</g>
</g>
<!-- Node8&#45;&gt;Node9 -->
<g id="edge8" class="edge">
<title>Node8&#45;&gt;Node9</title>
<path fill="none" stroke="#63b8ff" d="M1213,-44.66C1213,-35.93 1213,-25.99 1213,-19.09"/>
<polygon fill="#63b8ff" stroke="#63b8ff" points="1209.5,-44.75 1213,-54.75 1216.5,-44.75 1209.5,-44.75"/>
</g>
<!-- Node10&#45;&gt;Node8 -->
<g id="edge10" class="edge">
<title>Node10&#45;&gt;Node8</title>
<path fill="none" stroke="#63b8ff" d="M1000.49,-108C1050.16,-98.07 1123.83,-83.33 1170.09,-74.08"/>
<polygon fill="#63b8ff" stroke="#63b8ff" points="999.7,-104.59 990.58,-109.98 1001.07,-111.46 999.7,-104.59"/>
</g>
<!-- Node12&#45;&gt;Node8 -->
<g id="edge13" class="edge">
<title>Node12&#45;&gt;Node8</title>
<path fill="none" stroke="#63b8ff" d="M57.23,-355.69C33.33,-331.81 0,-290.67 0,-247 0,-247 0,-247 0,-179 0,-120.54 905.02,-78.39 1151.6,-67.99"/>
<polygon fill="#63b8ff" stroke="#63b8ff" points="54.99,-358.39 64.61,-362.82 59.85,-353.36 54.99,-358.39"/>
</g>
<!-- Node13 -->
<g id="node13" class="node">
<title>Node13</title>
<g id="a_node13"><a xlink:href="historical__transaction__fetcher_8h.html" target="_top" xlink:title=" ">
<polygon fill="white" stroke="#666666" points="495.5,-195 370.5,-195 370.5,-165 495.5,-165 495.5,-195"/>
<text text-anchor="start" x="378.5" y="-183" font-family="Helvetica,sans-Serif" font-size="10.00">src/indexing/historical</text>
<text text-anchor="middle" x="433" y="-172" font-family="Helvetica,sans-Serif" font-size="10.00">_transaction_fetcher.h</text>
</a>
</g>
</g>
<!-- Node12&#45;&gt;Node13 -->
<g id="edge14" class="edge">
<title>Node12&#45;&gt;Node13</title>
<path fill="none" stroke="#63b8ff" d="M64.18,-354.21C53.78,-337.1 44.58,-313.83 57,-297 94.42,-246.29 273.2,-208.42 370.15,-191.23"/>
<polygon fill="#63b8ff" stroke="#63b8ff" points="61.54,-356.56 69.95,-363 67.39,-352.72 61.54,-356.56"/>
</g>
<!-- Node13&#45;&gt;Node8 -->
<g id="edge15" class="edge">
<title>Node13&#45;&gt;Node8</title>
<path fill="none" stroke="#63b8ff" d="M505.73,-166.76C591.86,-152.42 739.7,-128.3 867,-110 966.66,-95.67 1082.8,-81.19 1151.99,-72.79"/>
<polygon fill="#63b8ff" stroke="#63b8ff" points="505.09,-163.32 495.8,-168.41 506.24,-170.22 505.09,-163.32"/>
</g>
<!-- Node14&#45;&gt;Node7 -->
<g id="edge18" class="edge">
<title>Node14&#45;&gt;Node7</title>
<path fill="none" stroke="#63b8ff" d="M365.55,-491.56C350.24,-463.65 325.36,-407.54 343,-363 357.82,-325.58 372.72,-321.04 405,-297 457.6,-257.82 474.28,-250.2 537,-231 646.08,-197.61 779.43,-186.52 855.96,-182.83"/>
<polygon fill="#63b8ff" stroke="#63b8ff" points="362.66,-493.55 370.66,-500.5 368.73,-490.08 362.66,-493.55"/>
</g>
<!-- Node14&#45;&gt;Node12 -->
<g id="edge17" class="edge">
<title>Node14&#45;&gt;Node12</title>
<path fill="none" stroke="#63b8ff" d="M314.67,-500.88C273.99,-493.78 220.32,-481.03 177,-459 143.35,-441.89 111.09,-411.08 93.88,-393.1"/>
<polygon fill="#63b8ff" stroke="#63b8ff" points="314.28,-504.37 324.72,-502.57 315.44,-497.46 314.28,-504.37"/>
</g>
<!-- Node15 -->
<g id="node15" class="node">
<title>Node15</title>
<g id="a_node15"><a xlink:href="snapshot__serdes_8h.html" target="_top" xlink:title=" ">
<polygon fill="white" stroke="#666666" points="504,-387.5 352,-387.5 352,-368.5 504,-368.5 504,-387.5"/>
<text text-anchor="middle" x="428" y="-375.5" font-family="Helvetica,sans-Serif" font-size="10.00">src/node/snapshot_serdes.h</text>
</a>
</g>
</g>
<!-- Node14&#45;&gt;Node15 -->
<g id="edge19" class="edge">
<title>Node14&#45;&gt;Node15</title>
<path fill="none" stroke="#63b8ff" d="M383.2,-490.99C394.53,-462.67 416.09,-408.78 424.51,-387.73"/>
<polygon fill="#63b8ff" stroke="#63b8ff" points="379.88,-489.89 379.41,-500.47 386.38,-492.49 379.88,-489.89"/>
</g>
<!-- Node17 -->
<g id="node17" class="node">
<title>Node17</title>
<g id="a_node17"><a xlink:href="tx__receipt__impl_8h.html" target="_top" xlink:title=" ">
<polygon fill="white" stroke="#666666" points="296,-459 186,-459 186,-429 296,-429 296,-459"/>
<text text-anchor="start" x="194" y="-447" font-family="Helvetica,sans-Serif" font-size="10.00">src/node/tx_receipt</text>
<text text-anchor="middle" x="241" y="-436" font-family="Helvetica,sans-Serif" font-size="10.00">_impl.h</text>
</a>
</g>
</g>
<!-- Node14&#45;&gt;Node17 -->
<g id="edge22" class="edge">
<title>Node14&#45;&gt;Node17</title>
<path fill="none" stroke="#63b8ff" d="M348.74,-496.08C326.13,-485.36 294.05,-470.15 270.78,-459.12"/>
<polygon fill="#63b8ff" stroke="#63b8ff" points="347.26,-499.25 357.79,-500.37 350.26,-492.92 347.26,-499.25"/>
</g>
<!-- Node15&#45;&gt;Node16 -->
<g id="edge20" class="edge">
<title>Node15&#45;&gt;Node16</title>
<path fill="none" stroke="#63b8ff" d="M441.07,-360.27C450.66,-347.99 463.31,-331.8 471.04,-321.91"/>
<polygon fill="#63b8ff" stroke="#63b8ff" points="438.14,-358.33 434.74,-368.37 443.66,-362.64 438.14,-358.33"/>
</g>
<!-- Node16&#45;&gt;Node7 -->
<g id="edge21" class="edge">
<title>Node16&#45;&gt;Node7</title>
<path fill="none" stroke="#63b8ff" d="M494.92,-295.6C516.31,-277.05 555.07,-246.48 594,-231 680.61,-196.57 788.98,-185.73 855.84,-182.38"/>
<polygon fill="#63b8ff" stroke="#63b8ff" points="492.53,-293.04 487.36,-302.28 497.17,-298.28 492.53,-293.04"/>
</g>
<!-- Node17&#45;&gt;Node12 -->
<g id="edge23" class="edge">
<title>Node17&#45;&gt;Node12</title>
<path fill="none" stroke="#63b8ff" d="M196.47,-425.19C171.06,-415.02 139.67,-402.47 116.03,-393.01"/>
<polygon fill="#63b8ff" stroke="#63b8ff" points="195.3,-428.49 205.89,-428.95 197.9,-421.99 195.3,-428.49"/>
</g>
<!-- Node17&#45;&gt;Node15 -->
<g id="edge28" class="edge">
<title>Node17&#45;&gt;Node15</title>
<path fill="none" stroke="#63b8ff" d="M291.91,-425.58C328,-413.23 374.86,-397.19 403.11,-387.52"/>
<polygon fill="#63b8ff" stroke="#63b8ff" points="290.37,-422.41 282.04,-428.95 292.63,-429.03 290.37,-422.41"/>
</g>
<!-- Node18 -->
<g id="node18" class="node">
<title>Node18</title>
<g id="a_node18"><a xlink:href="historical__queries__adapter_8cpp.html" target="_top" xlink:title=" ">
<polygon fill="white" stroke="#666666" points="352,-327 232,-327 232,-297 352,-297 352,-327"/>
<text text-anchor="start" x="240" y="-315" font-family="Helvetica,sans-Serif" font-size="10.00">src/node/historical</text>
<text text-anchor="middle" x="292" y="-304" font-family="Helvetica,sans-Serif" font-size="10.00">_queries_adapter.cpp</text>
</a>
</g>
</g>
<!-- Node17&#45;&gt;Node18 -->
<g id="edge24" class="edge">
<title>Node17&#45;&gt;Node18</title>
<path fill="none" stroke="#63b8ff" d="M254.01,-420.07C258.46,-411.7 263.26,-402.07 267,-393 276.27,-370.54 284.08,-343.34 288.4,-327.14"/>
<polygon fill="#63b8ff" stroke="#63b8ff" points="250.92,-418.43 249.2,-428.88 257.06,-421.78 250.92,-418.43"/>
</g>
<!-- Node19 -->
<g id="node19" class="node">
<title>Node19</title>
<g id="a_node19"><a xlink:href="historical__queries__utils_8h.html" target="_top" xlink:title=" ">
<polygon fill="white" stroke="#666666" points="258,-393 152,-393 152,-363 258,-363 258,-393"/>
<text text-anchor="start" x="160" y="-381" font-family="Helvetica,sans-Serif" font-size="10.00">src/node/historical</text>
<text text-anchor="middle" x="205" y="-370" font-family="Helvetica,sans-Serif" font-size="10.00">_queries_utils.h</text>
</a>
</g>
</g>
<!-- Node17&#45;&gt;Node19 -->
<g id="edge25" class="edge">
<title>Node17&#45;&gt;Node19</title>
<path fill="none" stroke="#63b8ff" d="M228.04,-419.96C223,-411 217.39,-401.03 212.97,-393.16"/>
<polygon fill="#63b8ff" stroke="#63b8ff" points="225.06,-421.8 233.01,-428.8 231.16,-418.36 225.06,-421.8"/>
</g>
<!-- Node19&#45;&gt;Node18 -->
<g id="edge27" class="edge">
<title>Node19&#45;&gt;Node18</title>
<path fill="none" stroke="#63b8ff" d="M232.52,-356.75C245.61,-347.13 260.93,-335.86 272.75,-327.16"/>
<polygon fill="#63b8ff" stroke="#63b8ff" points="230.29,-354.05 224.31,-362.8 234.44,-359.69 230.29,-354.05"/>
</g>
<!-- Node20 -->
<g id="node20" class="node">
<title>Node20</title>
<g id="a_node20"><a xlink:href="external__executor_8cpp.html" target="_top" xlink:title=" ">
<polygon fill="white" stroke="#666666" points="214,-327 66,-327 66,-297 214,-297 214,-327"/>
<text text-anchor="start" x="74" y="-315" font-family="Helvetica,sans-Serif" font-size="10.00">src/apps/external_executor</text>
<text text-anchor="middle" x="140" y="-304" font-family="Helvetica,sans-Serif" font-size="10.00">/external_executor.cpp</text>
</a>
</g>
</g>
<!-- Node19&#45;&gt;Node20 -->
<g id="edge26" class="edge">
<title>Node19&#45;&gt;Node20</title>
<path fill="none" stroke="#63b8ff" d="M183.31,-355.65C173.79,-346.27 162.88,-335.53 154.39,-327.16"/>
<polygon fill="#63b8ff" stroke="#63b8ff" points="180.99,-358.27 190.57,-362.8 185.9,-353.29 180.99,-358.27"/>
</g>
<!-- Node21&#45;&gt;Node7 -->
<g id="edge34" class="edge">
<title>Node21&#45;&gt;Node7</title>
<path fill="none" stroke="#63b8ff" d="M1223.7,-358.12C1217.06,-326.22 1198.87,-262.11 1156,-231 1128.41,-210.98 1040.91,-196.32 980.07,-188.22"/>
<polygon fill="#63b8ff" stroke="#63b8ff" points="1220.33,-359.13 1225.65,-368.29 1227.21,-357.81 1220.33,-359.13"/>
</g>
<!-- Node22 -->
<g id="node22" class="node">
<title>Node22</title>
<g id="a_node22"><a xlink:href="acme__challenge__frontend_8h.html" target="_top" xlink:title=" ">
<polygon fill="white" stroke="#666666" points="1185,-327 1045,-327 1045,-297 1185,-297 1185,-327"/>
<text text-anchor="start" x="1053" y="-315" font-family="Helvetica,sans-Serif" font-size="10.00">src/node/acme_challenge</text>
<text text-anchor="middle" x="1115" y="-304" font-family="Helvetica,sans-Serif" font-size="10.00">_frontend.h</text>
</a>
</g>
</g>
<!-- Node21&#45;&gt;Node22 -->
<g id="edge30" class="edge">
<title>Node21&#45;&gt;Node22</title>
<path fill="none" stroke="#63b8ff" d="M1203.12,-363.35C1184.45,-352.68 1158.58,-337.9 1139.7,-327.12"/>
<polygon fill="#63b8ff" stroke="#63b8ff" points="1201.48,-366.45 1211.9,-368.37 1204.95,-360.37 1201.48,-366.45"/>
</g>
<!-- Node24 -->
<g id="node24" class="node">
<title>Node24</title>
<g id="a_node24"><a xlink:href="member__frontend_8h.html" target="_top" xlink:title=" ">
<polygon fill="white" stroke="#666666" points="1399,-327 1279,-327 1279,-297 1399,-297 1399,-327"/>
<text text-anchor="start" x="1287" y="-315" font-family="Helvetica,sans-Serif" font-size="10.00">src/node/rpc/member</text>
<text text-anchor="middle" x="1339" y="-304" font-family="Helvetica,sans-Serif" font-size="10.00">_frontend.h</text>
</a>
</g>
</g>
<!-- Node21&#45;&gt;Node24 -->
<g id="edge35" class="edge">
<title>Node21&#45;&gt;Node24</title>
<path fill="none" stroke="#63b8ff" d="M1250.88,-363.35C1269.55,-352.68 1295.42,-337.9 1314.3,-327.12"/>
<polygon fill="#63b8ff" stroke="#63b8ff" points="1249.05,-360.37 1242.1,-368.37 1252.52,-366.45 1249.05,-360.37"/>
</g>
<!-- Node25 -->
<g id="node25" class="node">
<title>Node25</title>
<g id="a_node25"><a xlink:href="node__frontend_8h.html" target="_top" xlink:title=" ">
<polygon fill="white" stroke="#666666" points="1027,-321.5 869,-321.5 869,-302.5 1027,-302.5 1027,-321.5"/>
<text text-anchor="middle" x="948" y="-309.5" font-family="Helvetica,sans-Serif" font-size="10.00">src/node/rpc/node_frontend.h</text>
</a>
</g>
</g>
<!-- Node21&#45;&gt;Node25 -->
<g id="edge37" class="edge">
<title>Node21&#45;&gt;Node25</title>
<path fill="none" stroke="#63b8ff" d="M1179.83,-366.18C1124.9,-353.58 1035.32,-333.03 985.12,-321.51"/>
<polygon fill="#63b8ff" stroke="#63b8ff" points="1179.13,-369.61 1189.66,-368.44 1180.7,-362.79 1179.13,-369.61"/>
</g>
<!-- Node27 -->
<g id="node27" class="node">
<title>Node27</title>
<g id="a_node27"><a xlink:href="user__frontend_8h.html" target="_top" xlink:title=" ">
<polygon fill="white" stroke="#666666" points="2314.5,-321.5 2159.5,-321.5 2159.5,-302.5 2314.5,-302.5 2314.5,-321.5"/>
<text text-anchor="middle" x="2237" y="-309.5" font-family="Helvetica,sans-Serif" font-size="10.00">src/node/rpc/user_frontend.h</text>
</a>
</g>
</g>
<!-- Node21&#45;&gt;Node27 -->
<g id="edge41" class="edge">
<title>Node21&#45;&gt;Node27</title>
<path fill="none" stroke="#63b8ff" d="M1301.96,-374.16C1454.59,-368.07 1812.38,-352.22 2112,-327 2129.84,-325.5 2149.08,-323.52 2166.99,-321.53"/>
<polygon fill="#63b8ff" stroke="#63b8ff" points="1301.62,-370.67 1291.76,-374.56 1301.9,-377.67 1301.62,-370.67"/>
</g>
<!-- Node22&#45;&gt;Node8 -->
<g id="edge31" class="edge">
<title>Node22&#45;&gt;Node8</title>
<path fill="none" stroke="#63b8ff" d="M1156.57,-291.64C1168.94,-283.85 1181.25,-273.66 1189,-261 1227.39,-198.3 1218.22,-103.02 1214.3,-74.11"/>
<polygon fill="#63b8ff" stroke="#63b8ff" points="1154.47,-288.81 1147.62,-296.89 1158.02,-294.85 1154.47,-288.81"/>
</g>
<!-- Node23 -->
<g id="node23" class="node">
<title>Node23</title>
<g id="a_node23"><a xlink:href="ccf__acme__client_8h.html" target="_top" xlink:title=" ">
<polygon fill="white" stroke="#666666" points="1147.5,-255.5 998.5,-255.5 998.5,-236.5 1147.5,-236.5 1147.5,-255.5"/>
<text text-anchor="middle" x="1073" y="-243.5" font-family="Helvetica,sans-Serif" font-size="10.00">src/node/ccf_acme_client.h</text>
</a>
</g>
</g>
<!-- Node22&#45;&gt;Node23 -->
<g id="edge32" class="edge">
<title>Node22&#45;&gt;Node23</title>
<path fill="none" stroke="#63b8ff" d="M1100.09,-288.28C1092.73,-277.07 1084.28,-264.19 1078.8,-255.84"/>
<polygon fill="#63b8ff" stroke="#63b8ff" points="1097.27,-290.36 1105.68,-296.8 1103.12,-286.52 1097.27,-290.36"/>
</g>
<!-- Node23&#45;&gt;Node7 -->
<g id="edge33" class="edge">
<title>Node23&#45;&gt;Node7</title>
<path fill="none" stroke="#63b8ff" d="M1042.78,-232.52C1012.24,-219.91 965.84,-200.75 939.07,-189.7"/>
<polygon fill="#63b8ff" stroke="#63b8ff" points="1041.52,-235.79 1052.1,-236.37 1044.19,-229.32 1041.52,-235.79"/>
</g>
<!-- Node24&#45;&gt;Node8 -->
<g id="edge36" class="edge">
<title>Node24&#45;&gt;Node8</title>
<path fill="none" stroke="#63b8ff" d="M1329.1,-287.78C1322.11,-271.7 1312.36,-249.87 1303,-231 1272.77,-170.06 1232.25,-98.89 1218.12,-74.35"/>
<polygon fill="#63b8ff" stroke="#63b8ff" points="1325.89,-289.18 1333.07,-296.98 1332.32,-286.41 1325.89,-289.18"/>
</g>
<!-- Node25&#45;&gt;Node8 -->
<g id="edge38" class="edge">
<title>Node25&#45;&gt;Node8</title>
<path fill="none" stroke="#63b8ff" d="M1004.36,-300.47C1062.1,-289.2 1144.94,-271.55 1156,-261 1211.53,-208.06 1213.87,-104.4 1213.3,-74.04"/>
<polygon fill="#63b8ff" stroke="#63b8ff" points="1003.41,-297.09 994.26,-302.42 1004.74,-303.96 1003.41,-297.09"/>
</g>
<!-- Node26 -->
<g id="node26" class="node">
<title>Node26</title>
<g id="a_node26"><a xlink:href="jwt__key__auto__refresh_8h.html" target="_top" xlink:title=" ">
<polygon fill="white" stroke="#666666" points="980.5,-261 855.5,-261 855.5,-231 980.5,-231 980.5,-261"/>
<text text-anchor="start" x="863.5" y="-249" font-family="Helvetica,sans-Serif" font-size="10.00">src/node/jwt_key_auto</text>
<text text-anchor="middle" x="918" y="-238" font-family="Helvetica,sans-Serif" font-size="10.00">_refresh.h</text>
</a>
</g>
</g>
<!-- Node25&#45;&gt;Node26 -->
<g id="edge39" class="edge">
<title>Node25&#45;&gt;Node26</title>
<path fill="none" stroke="#63b8ff" d="M939.7,-293.3C934.99,-283.24 929.16,-270.81 924.73,-261.36"/>
<polygon fill="#63b8ff" stroke="#63b8ff" points="936.54,-294.8 943.95,-302.37 942.88,-291.83 936.54,-294.8"/>
</g>
<!-- Node26&#45;&gt;Node7 -->
<g id="edge40" class="edge">
<title>Node26&#45;&gt;Node7</title>
<path fill="none" stroke="#63b8ff" d="M918,-220.6C918,-209.8 918,-197.78 918,-189.84"/>
<polygon fill="#63b8ff" stroke="#63b8ff" points="914.5,-220.8 918,-230.8 921.5,-220.8 914.5,-220.8"/>
</g>
<!-- Node27&#45;&gt;Node8 -->
<g id="edge42" class="edge">
<title>Node27&#45;&gt;Node8</title>
<path fill="none" stroke="#63b8ff" d="M2234.78,-292.07C2228.82,-250.77 2208.35,-152.84 2145,-110 2108.94,-85.61 1476.07,-70.8 1274.29,-66.68"/>
<polygon fill="#63b8ff" stroke="#63b8ff" points="2231.33,-292.67 2236.1,-302.13 2238.27,-291.76 2231.33,-292.67"/>
</g>
<!-- Node28&#45;&gt;Node23 -->
<g id="edge45" class="edge">
<title>Node28&#45;&gt;Node23</title>
<path fill="none" stroke="#63b8ff" d="M753.83,-490.43C700.06,-464.11 618.2,-413.51 655,-363 677.62,-331.96 929.62,-276.73 1031.07,-255.57"/>
<polygon fill="#63b8ff" stroke="#63b8ff" points="752.65,-493.74 763.18,-494.9 755.67,-487.43 752.65,-493.74"/>
</g>
<!-- Node29 -->
<g id="node29" class="node">
<title>Node29</title>
<g id="a_node29"><a xlink:href="network__state_8h.html" target="_top" xlink:title=" ">
<polygon fill="white" stroke="#666666" points="1098,-453.5 958,-453.5 958,-434.5 1098,-434.5 1098,-453.5"/>
<text text-anchor="middle" x="1028" y="-441.5" font-family="Helvetica,sans-Serif" font-size="10.00">src/node/network_state.h</text>
</a>
</g>
</g>
<!-- Node28&#45;&gt;Node29 -->
<g id="edge46" class="edge">
<title>Node28&#45;&gt;Node29</title>
<path fill="none" stroke="#63b8ff" d="M856.59,-492.29C901.69,-479.84 961.39,-463.37 997.12,-453.52"/>
<polygon fill="#63b8ff" stroke="#63b8ff" points="855.62,-488.92 846.91,-494.95 857.48,-495.67 855.62,-488.92"/>
</g>
<!-- Node38 -->
<g id="node38" class="node">
<title>Node38</title>
<g id="a_node38"><a xlink:href="genesis__gen_8h.html" target="_top" xlink:title=" ">
<polygon fill="white" stroke="#666666" points="829,-459 719,-459 719,-429 829,-429 829,-459"/>
<text text-anchor="start" x="727" y="-447" font-family="Helvetica,sans-Serif" font-size="10.00">src/service/genesis</text>
<text text-anchor="middle" x="774" y="-436" font-family="Helvetica,sans-Serif" font-size="10.00">_gen.h</text>
</a>
</g>
</g>
<!-- Node28&#45;&gt;Node38 -->
<g id="edge74" class="edge">
<title>Node28&#45;&gt;Node38</title>
<path fill="none" stroke="#63b8ff" d="M787.79,-485.11C784.79,-476.38 781.49,-466.78 778.87,-459.16"/>
<polygon fill="#63b8ff" stroke="#63b8ff" points="784.56,-486.48 791.12,-494.8 791.18,-484.2 784.56,-486.48"/>
</g>
<!-- Node29&#45;&gt;Node7 -->
<g id="edge65" class="edge">
<title>Node29&#45;&gt;Node7</title>
<path fill="none" stroke="#63b8ff" d="M992.65,-430.85C969.16,-422.01 938.14,-408.85 913,-393 903.54,-387.03 842.02,-336.99 837,-327 817.82,-288.82 810.69,-268.03 832,-231 844.06,-210.04 868.65,-197.05 888.46,-189.59"/>
<polygon fill="#63b8ff" stroke="#63b8ff" points="991.62,-434.2 1002.22,-434.36 994.04,-427.63 991.62,-434.2"/>
</g>
<!-- Node29&#45;&gt;Node8 -->
<g id="edge47" class="edge">
<title>Node29&#45;&gt;Node8</title>
<path fill="none" stroke="#63b8ff" d="M1108.19,-436.66C1140.98,-434.15 1179.3,-431.31 1214,-429 1339.83,-420.62 2343,-439.1 2343,-313 2343,-313 2343,-313 2343,-179 2343,-70.62 1509.41,-64.68 1274.15,-65.17"/>
<polygon fill="#63b8ff" stroke="#63b8ff" points="1107.9,-433.17 1098.2,-437.43 1108.44,-440.15 1107.9,-433.17"/>
</g>
<!-- Node29&#45;&gt;Node16 -->
<g id="edge73" class="edge">
<title>Node29&#45;&gt;Node16</title>
<path fill="none" stroke="#63b8ff" d="M984.54,-431.71C954.36,-423.07 913.7,-409.78 880,-393 858.81,-382.45 858.08,-371.53 836,-363 737.94,-325.13 614.94,-315.41 541.62,-313.22"/>
<polygon fill="#63b8ff" stroke="#63b8ff" points="983.77,-435.13 994.34,-434.46 985.66,-428.39 983.77,-435.13"/>
</g>
<!-- Node29&#45;&gt;Node22 -->
<g id="edge64" class="edge">
<title>Node29&#45;&gt;Node22</title>
<path fill="none" stroke="#63b8ff" d="M1053.54,-428.92C1067.11,-420.22 1083,-407.88 1093,-393 1106.66,-372.68 1111.88,-344.07 1113.84,-327.14"/>
<polygon fill="#63b8ff" stroke="#63b8ff" points="1051.35,-426.16 1044.62,-434.35 1054.98,-432.14 1051.35,-426.16"/>
</g>
<!-- Node29&#45;&gt;Node25 -->
<g id="edge66" class="edge">
<title>Node29&#45;&gt;Node25</title>
<path fill="none" stroke="#63b8ff" d="M1047.77,-428.08C1066.92,-411.76 1091.03,-385 1076,-363 1060.8,-340.74 1034.07,-328.39 1008.97,-321.54"/>
<polygon fill="#63b8ff" stroke="#63b8ff" points="1045.56,-425.37 1040,-434.39 1049.97,-430.8 1045.56,-425.37"/>
</g>
<!-- Node29&#45;&gt;Node27 -->
<g id="edge67" class="edge">
<title>Node29&#45;&gt;Node27</title>
<path fill="none" stroke="#63b8ff" d="M1108.2,-436.91C1141,-434.43 1179.32,-431.55 1214,-429 1436.2,-412.64 1492.59,-417.86 1714,-393 1890.17,-373.22 2097.97,-337.79 2189.58,-321.56"/>
<polygon fill="#63b8ff" stroke="#63b8ff" points="1107.92,-433.42 1098.21,-437.66 1108.45,-440.4 1107.92,-433.42"/>
</g>
<!-- Node30 -->
<g id="node30" class="node">
<title>Node30</title>
<g id="a_node30"><a xlink:href="wrap_8h.html" target="_top" xlink:title=" ">
<polygon fill="white" stroke="#666666" points="1705,-387.5 1627,-387.5 1627,-368.5 1705,-368.5 1705,-387.5"/>
<text text-anchor="middle" x="1666" y="-375.5" font-family="Helvetica,sans-Serif" font-size="10.00">src/js/wrap.h</text>
</a>
</g>
</g>
<!-- Node29&#45;&gt;Node30 -->
<g id="edge48" class="edge">
<title>Node29&#45;&gt;Node30</title>
<path fill="none" stroke="#63b8ff" d="M1108.2,-434.95C1246.28,-421.1 1523.98,-393.25 1626.66,-382.95"/>
<polygon fill="#63b8ff" stroke="#63b8ff" points="1107.7,-431.49 1098.1,-435.97 1108.4,-438.45 1107.7,-431.49"/>
</g>
<!-- Node36 -->
<g id="node36" class="node">
<title>Node36</title>
<g id="a_node36"><a xlink:href="secret__broadcast_8h.html" target="_top" xlink:title=" ">
<polygon fill="white" stroke="#666666" points="827.5,-387.5 674.5,-387.5 674.5,-368.5 827.5,-368.5 827.5,-387.5"/>
<text text-anchor="middle" x="751" y="-375.5" font-family="Helvetica,sans-Serif" font-size="10.00">src/node/secret_broadcast.h</text>
</a>
</g>
</g>
<!-- Node29&#45;&gt;Node36 -->
<g id="edge68" class="edge">
<title>Node29&#45;&gt;Node36</title>
<path fill="none" stroke="#63b8ff" d="M981.17,-432.18C926.64,-419.58 837.7,-399.03 787.85,-387.51"/>
<polygon fill="#63b8ff" stroke="#63b8ff" points="980.4,-435.59 990.93,-434.44 981.97,-428.77 980.4,-435.59"/>
</g>
<!-- Node37 -->
<g id="node37" class="node">
<title>Node37</title>
<g id="a_node37"><a xlink:href="share__manager_8h.html" target="_top" xlink:title=" ">
<polygon fill="white" stroke="#666666" points="1067.5,-387.5 922.5,-387.5 922.5,-368.5 1067.5,-368.5 1067.5,-387.5"/>
<text text-anchor="middle" x="995" y="-375.5" font-family="Helvetica,sans-Serif" font-size="10.00">src/node/share_manager.h</text>
</a>
</g>
</g>
<!-- Node29&#45;&gt;Node37 -->
<g id="edge70" class="edge">
<title>Node29&#45;&gt;Node37</title>
<path fill="none" stroke="#63b8ff" d="M1018.81,-425.18C1012.56,-413.05 1004.54,-397.51 999.59,-387.91"/>
<polygon fill="#63b8ff" stroke="#63b8ff" points="1015.86,-427.08 1023.55,-434.37 1022.08,-423.88 1015.86,-427.08"/>
</g>
<!-- Node30&#45;&gt;Node3 -->
<g id="edge49" class="edge">
<title>Node30&#45;&gt;Node3</title>
<path fill="none" stroke="#63b8ff" d="M1715.08,-374.2C1824.54,-367.77 2096.87,-350.61 2324,-327 2339.23,-325.42 2355.66,-323.4 2370.92,-321.39"/>
<polygon fill="#63b8ff" stroke="#63b8ff" points="1714.78,-370.72 1705,-374.79 1715.19,-377.7 1714.78,-370.72"/>
</g>
<!-- Node30&#45;&gt;Node4 -->
<g id="edge60" class="edge">
<title>Node30&#45;&gt;Node4</title>
<path fill="none" stroke="#63b8ff" d="M1675.8,-359.63C1686.39,-342.08 1704.63,-315.06 1726,-297 1748.29,-278.17 1778.86,-263.9 1799.69,-255.52"/>
<polygon fill="#63b8ff" stroke="#63b8ff" points="1672.77,-357.89 1670.74,-368.29 1678.81,-361.42 1672.77,-357.89"/>
</g>
<!-- Node30&#45;&gt;Node7 -->
<g id="edge61" class="edge">
<title>Node30&#45;&gt;Node7</title>
<path fill="none" stroke="#63b8ff" d="M1616.92,-372.16C1570.93,-366.18 1501.2,-353.38 1446,-327 1426.59,-317.72 1425.58,-309.41 1408,-297 1362.97,-265.21 1354.87,-249.65 1303,-231 1194.07,-191.83 1058.01,-182.71 980.25,-180.96"/>
<polygon fill="#63b8ff" stroke="#63b8ff" points="1616.58,-375.64 1626.93,-373.4 1617.44,-368.69 1616.58,-375.64"/>
</g>
<!-- Node30&#45;&gt;Node8 -->
<g id="edge50" class="edge">
<title>Node30&#45;&gt;Node8</title>
<path fill="none" stroke="#63b8ff" d="M1699.35,-365.55C1702.92,-364.58 1706.52,-363.7 1710,-363 1797.93,-345.3 2044.18,-385.7 2112,-327 2139.63,-303.08 2131,-283.54 2131,-247 2131,-247 2131,-247 2131,-179 2131,-92.43 1479.73,-71.17 1274.3,-66.62"/>
<polygon fill="#63b8ff" stroke="#63b8ff" points="1698.09,-362.28 1689.5,-368.48 1700.08,-368.99 1698.09,-362.28"/>
</g>
<!-- Node30&#45;&gt;Node24 -->
<g id="edge62" class="edge">
<title>Node30&#45;&gt;Node24</title>
<path fill="none" stroke="#63b8ff" d="M1616.84,-367.38C1558.68,-356 1461.87,-337.05 1399.26,-324.79"/>
<polygon fill="#63b8ff" stroke="#63b8ff" points="1616.39,-370.86 1626.88,-369.34 1617.74,-363.99 1616.39,-370.86"/>
</g>
<!-- Node30&#45;&gt;Node25 -->
<g id="edge63" class="edge">
<title>Node30&#45;&gt;Node25</title>
<path fill="none" stroke="#63b8ff" d="M1616.71,-374.41C1510.38,-368.53 1251.62,-352.67 1036,-327 1023.4,-325.5 1009.85,-323.53 997.24,-321.53"/>
<polygon fill="#63b8ff" stroke="#63b8ff" points="1616.64,-377.91 1626.82,-374.96 1617.03,-370.92 1616.64,-377.91"/>
</g>
<!-- Node31 -->
<g id="node31" class="node">
<title>Node31</title>
<g id="a_node31"><a xlink:href="consensus_8cpp.html" target="_top" xlink:title=" ">
<polygon fill="white" stroke="#666666" points="1997,-321.5 1881,-321.5 1881,-302.5 1997,-302.5 1997,-321.5"/>
<text text-anchor="middle" x="1939" y="-309.5" font-family="Helvetica,sans-Serif" font-size="10.00">src/js/consensus.cpp</text>
</a>
</g>
</g>
<!-- Node30&#45;&gt;Node31 -->
<g id="edge51" class="edge">
<title>Node30&#45;&gt;Node31</title>
<path fill="none" stroke="#63b8ff" d="M1712.49,-366.1C1766.26,-353.49 1853.66,-333.01 1902.68,-321.51"/>
<polygon fill="#63b8ff" stroke="#63b8ff" points="1711.47,-362.74 1702.53,-368.44 1713.07,-369.56 1711.47,-362.74"/>
</g>
<!-- Node32 -->
<g id="node32" class="node">
<title>Node32</title>
<g id="a_node32"><a xlink:href="conv_8cpp.html" target="_top" xlink:title=" ">
<polygon fill="white" stroke="#666666" points="2103,-321.5 2015,-321.5 2015,-302.5 2103,-302.5 2103,-321.5"/>
<text text-anchor="middle" x="2059" y="-309.5" font-family="Helvetica,sans-Serif" font-size="10.00">src/js/conv.cpp</text>
</a>
</g>
</g>
<!-- Node30&#45;&gt;Node32 -->
<g id="edge53" class="edge">
<title>Node30&#45;&gt;Node32</title>
<path fill="none" stroke="#63b8ff" d="M1715.44,-371.5C1781.88,-363.7 1903.5,-348.01 2006,-327 2013.55,-325.45 2021.63,-323.48 2029.15,-321.51"/>
<polygon fill="#63b8ff" stroke="#63b8ff" points="1714.79,-368.05 1705.26,-372.68 1715.59,-375 1714.79,-368.05"/>
</g>
<!-- Node33 -->
<g id="node33" class="node">
<title>Node33</title>
<g id="a_node33"><a xlink:href="crypto_8cpp.html" target="_top" xlink:title=" ">
<polygon fill="white" stroke="#666666" points="1551,-321.5 1455,-321.5 1455,-302.5 1551,-302.5 1551,-321.5"/>
<text text-anchor="middle" x="1503" y="-309.5" font-family="Helvetica,sans-Serif" font-size="10.00">src/js/crypto.cpp</text>
</a>
</g>
</g>
<!-- Node30&#45;&gt;Node33 -->
<g id="edge55" class="edge">
<title>Node30&#45;&gt;Node33</title>
<path fill="none" stroke="#63b8ff" d="M1634.61,-364.68C1602.4,-352.03 1553.12,-332.68 1524.89,-321.6"/>
<polygon fill="#63b8ff" stroke="#63b8ff" points="1633.43,-367.97 1644.02,-368.37 1635.99,-361.46 1633.43,-367.97"/>
</g>
<!-- Node34 -->
<g id="node34" class="node">
<title>Node34</title>
<g id="a_node34"><a xlink:href="historical_8cpp.html" target="_top" xlink:title=" ">
<polygon fill="white" stroke="#666666" points="1679,-321.5 1569,-321.5 1569,-302.5 1679,-302.5 1679,-321.5"/>
<text text-anchor="middle" x="1624" y="-309.5" font-family="Helvetica,sans-Serif" font-size="10.00">src/js/historical.cpp</text>
</a>
</g>
</g>
<!-- Node30&#45;&gt;Node34 -->
<g id="edge57" class="edge">
<title>Node30&#45;&gt;Node34</title>
<path fill="none" stroke="#63b8ff" d="M1654.78,-359.91C1646.76,-347.68 1636.27,-331.7 1629.84,-321.91"/>
<polygon fill="#63b8ff" stroke="#63b8ff" points="1651.92,-361.93 1660.34,-368.37 1657.78,-358.09 1651.92,-361.93"/>
</g>
<!-- Node35 -->
<g id="node35" class="node">
<title>Node35</title>
<g id="a_node35"><a xlink:href="openenclave_8cpp.html" target="_top" xlink:title=" ">
<polygon fill="white" stroke="#666666" points="1863,-321.5 1735,-321.5 1735,-302.5 1863,-302.5 1863,-321.5"/>
<text text-anchor="middle" x="1799" y="-309.5" font-family="Helvetica,sans-Serif" font-size="10.00">src/js/openenclave.cpp</text>
</a>
</g>
</g>
<!-- Node30&#45;&gt;Node35 -->
<g id="edge59" class="edge">
<title>Node30&#45;&gt;Node35</title>
<path fill="none" stroke="#63b8ff" d="M1692.96,-364.03C1719.17,-351.42 1758.25,-332.61 1780.92,-321.7"/>
<polygon fill="#63b8ff" stroke="#63b8ff" points="1691.43,-360.88 1683.94,-368.37 1694.47,-367.19 1691.43,-360.88"/>
</g>
<!-- Node31&#45;&gt;Node4 -->
<g id="edge52" class="edge">
<title>Node31&#45;&gt;Node4</title>
<path fill="none" stroke="#63b8ff" d="M1914.58,-297.53C1891.73,-284.92 1858.28,-266.47 1838.77,-255.7"/>
<polygon fill="#63b8ff" stroke="#63b8ff" points="1912.91,-300.6 1923.36,-302.37 1916.29,-294.47 1912.91,-300.6"/>
</g>
<!-- Node32&#45;&gt;Node4 -->
<g id="edge54" class="edge">
<title>Node32&#45;&gt;Node4</title>
<path fill="none" stroke="#63b8ff" d="M2017.41,-299.72C1970.94,-287.12 1896.71,-266.99 1854.7,-255.6"/>
<polygon fill="#63b8ff" stroke="#63b8ff" points="2016.6,-303.13 2027.17,-302.37 2018.44,-296.37 2016.6,-303.13"/>
</g>
<!-- Node33&#45;&gt;Node4 -->
<g id="edge56" class="edge">
<title>Node33&#45;&gt;Node4</title>
<path fill="none" stroke="#63b8ff" d="M1546.35,-300.1C1550.95,-299.02 1555.57,-297.96 1560,-297 1636.3,-280.39 1725.72,-264.05 1778.18,-254.77"/>
<polygon fill="#63b8ff" stroke="#63b8ff" points="1545.3,-296.75 1536.39,-302.49 1546.93,-303.56 1545.3,-296.75"/>
</g>
<!-- Node34&#45;&gt;Node4 -->
<g id="edge58" class="edge">
<title>Node34&#45;&gt;Node4</title>
<path fill="none" stroke="#63b8ff" d="M1660.56,-299.24C1699.83,-286.61 1761.29,-266.85 1796.27,-255.6"/>
<polygon fill="#63b8ff" stroke="#63b8ff" points="1659.29,-295.98 1650.84,-302.37 1661.43,-302.64 1659.29,-295.98"/>
</g>
<!-- Node36&#45;&gt;Node7 -->
<g id="edge69" class="edge">
<title>Node36&#45;&gt;Node7</title>
<path fill="none" stroke="#63b8ff" d="M748.48,-358.1C745.52,-327.64 744.38,-267.45 775,-231 795.05,-207.14 827.17,-194.65 855.9,-188.13"/>
<polygon fill="#63b8ff" stroke="#63b8ff" points="745.02,-358.67 749.64,-368.2 751.97,-357.87 745.02,-358.67"/>
</g>
<!-- Node37&#45;&gt;Node7 -->
<g id="edge71" class="edge">
<title>Node37&#45;&gt;Node7</title>
<path fill="none" stroke="#63b8ff" d="M926.2,-365.7C902.1,-358.44 876.87,-346.53 860,-327 831.81,-294.37 826.02,-269.21 846,-231 856.44,-211.04 878.87,-197.45 895.94,-189.53"/>
<polygon fill="#63b8ff" stroke="#63b8ff" points="925.5,-369.14 936.07,-368.44 927.37,-362.39 925.5,-369.14"/>
</g>
<!-- Node37&#45;&gt;Node24 -->
<g id="edge72" class="edge">
<title>Node37&#45;&gt;Node24</title>
<path fill="none" stroke="#63b8ff" d="M1051.12,-366.56C1113.71,-354.91 1214.58,-336.15 1278.78,-324.2"/>
<polygon fill="#63b8ff" stroke="#63b8ff" points="1050.23,-363.16 1041.04,-368.44 1051.51,-370.05 1050.23,-363.16"/>
</g>
<!-- Node38&#45;&gt;Node7 -->
<g id="edge75" class="edge">
<title>Node38&#45;&gt;Node7</title>
<path fill="none" stroke="#63b8ff" d="M709.2,-430.76C688.34,-423.41 667.42,-411.69 655,-393 647.62,-381.89 650.75,-375.64 655,-363 678.44,-293.23 694.68,-273.17 755,-231 786.3,-209.12 827.44,-196.6 860.56,-189.56"/>
<polygon fill="#63b8ff" stroke="#63b8ff" points="708.17,-434.1 718.76,-433.83 710.31,-427.43 708.17,-434.1"/>
</g>
<!-- Node38&#45;&gt;Node24 -->
<g id="edge76" class="edge">
<title>Node38&#45;&gt;Node24</title>
<path fill="none" stroke="#63b8ff" d="M839.18,-437.64C977.92,-426.11 1290.62,-399.5 1300,-393 1322.35,-377.51 1332.4,-345.51 1336.5,-327.02"/>
<polygon fill="#63b8ff" stroke="#63b8ff" points="838.78,-434.16 829.1,-438.47 839.36,-441.13 838.78,-434.16"/>
</g>
<!-- Node38&#45;&gt;Node25 -->
<g id="edge77" class="edge">
<title>Node38&#45;&gt;Node25</title>
<path fill="none" stroke="#63b8ff" d="M716.93,-425.23C680.31,-410.87 643.33,-388.84 665,-363 690.61,-332.47 794.46,-320.57 868.93,-315.94"/>
<polygon fill="#63b8ff" stroke="#63b8ff" points="716.11,-428.66 726.7,-428.89 718.57,-422.11 716.11,-428.66"/>
</g>
<!-- Node38&#45;&gt;Node36 -->
<g id="edge78" class="edge">
<title>Node38&#45;&gt;Node36</title>
<path fill="none" stroke="#63b8ff" d="M765.47,-419.28C761.53,-408.31 757.09,-395.94 754.18,-387.84"/>
<polygon fill="#63b8ff" stroke="#63b8ff" points="762.22,-420.57 768.9,-428.8 768.81,-418.2 762.22,-420.57"/>
</g>
<!-- Node38&#45;&gt;Node37 -->
<g id="edge79" class="edge">
<title>Node38&#45;&gt;Node37</title>
<path fill="none" stroke="#63b8ff" d="M832.26,-426.13C875.15,-413.71 931.69,-397.33 965.59,-387.52"/>
<polygon fill="#63b8ff" stroke="#63b8ff" points="831.13,-422.81 822.5,-428.95 833.08,-429.54 831.13,-422.81"/>
</g>
</g>
</svg>
