<?xml version="1.0" encoding="UTF-8" standalone="no"?>
<!DOCTYPE svg PUBLIC "-//W3C//DTD SVG 1.1//EN"
 "http://www.w3.org/Graphics/SVG/1.1/DTD/svg11.dtd">
<!-- Generated by graphviz version 2.43.0 (0)
 -->
<!-- Title: src/enclave/enclave_time.h Pages: 1 -->
<svg width="923pt" height="390pt"
 viewBox="0.00 0.00 923.07 390.00" xmlns="http://www.w3.org/2000/svg" xmlns:xlink="http://www.w3.org/1999/xlink">
<g id="graph0" class="graph" transform="scale(1 1) rotate(0) translate(4 386)">
<title>src/enclave/enclave_time.h</title>
<!-- Node1 -->
<g id="node1" class="node">
<title>Node1</title>
<g id="a_node1"><a xlink:title=" ">
<polygon fill="#999999" stroke="#666666" points="524.5,-382 411.5,-382 411.5,-352 524.5,-352 524.5,-382"/>
<text text-anchor="start" x="419.5" y="-370" font-family="Helvetica,sans-Serif" font-size="10.00">src/enclave/enclave</text>
<text text-anchor="middle" x="468" y="-359" font-family="Helvetica,sans-Serif" font-size="10.00">_time.h</text>
</a>
</g>
</g>
<!-- Node2 -->
<g id="node2" class="node">
<title>Node2</title>
<g id="a_node2"><a xlink:href="src_2enclave_2enclave_8h.html" target="_top" xlink:title=" ">
<polygon fill="white" stroke="#666666" points="216,-74 94,-74 94,-55 216,-55 216,-74"/>
<text text-anchor="middle" x="155" y="-62" font-family="Helvetica,sans-Serif" font-size="10.00">src/enclave/enclave.h</text>
</a>
</g>
</g>
<!-- Node1&#45;&gt;Node2 -->
<g id="edge1" class="edge">
<title>Node1&#45;&gt;Node2</title>
<path fill="none" stroke="#63b8ff" d="M535.13,-362.31C648.39,-355.47 867.74,-339.37 894,-316 921.3,-291.71 913,-272.54 913,-236 913,-236 913,-236 913,-173.5 913,-103.26 396.23,-75.38 216.07,-67.8"/>
<polygon fill="#63b8ff" stroke="#63b8ff" points="534.61,-358.83 524.84,-362.92 535.03,-365.82 534.61,-358.83"/>
</g>
<!-- Node3 -->
<g id="node3" class="node">
<title>Node3</title>
<g id="a_node3"><a xlink:href="enclave_2main_8cpp.html" target="_top" xlink:title=" ">
<polygon fill="white" stroke="#666666" points="120,-19 0,-19 0,0 120,0 120,-19"/>
<text text-anchor="middle" x="60" y="-7" font-family="Helvetica,sans-Serif" font-size="10.00">src/enclave/main.cpp</text>
</a>
</g>
</g>
<!-- Node1&#45;&gt;Node3 -->
<g id="edge4" class="edge">
<title>Node1&#45;&gt;Node3</title>
<path fill="none" stroke="#63b8ff" d="M401.14,-362.5C286,-355.86 59.97,-339.94 33,-316 5.67,-291.74 14,-272.54 14,-236 14,-236 14,-236 14,-118.5 14,-78.76 40.69,-36.9 53.41,-19.2"/>
<polygon fill="#63b8ff" stroke="#63b8ff" points="401.07,-366 411.25,-363.08 401.47,-359.01 401.07,-366"/>
</g>
<!-- Node4 -->
<g id="node4" class="node">
<title>Node4</title>
<g id="a_node4"><a xlink:href="enclave__time_8cpp.html" target="_top" xlink:title=" ">
<polygon fill="white" stroke="#666666" points="286.5,-316 173.5,-316 173.5,-286 286.5,-286 286.5,-316"/>
<text text-anchor="start" x="181.5" y="-304" font-family="Helvetica,sans-Serif" font-size="10.00">src/enclave/enclave</text>
<text text-anchor="middle" x="230" y="-293" font-family="Helvetica,sans-Serif" font-size="10.00">_time.cpp</text>
</a>
</g>
</g>
<!-- Node1&#45;&gt;Node4 -->
<g id="edge3" class="edge">
<title>Node1&#45;&gt;Node4</title>
<path fill="none" stroke="#63b8ff" d="M405.72,-349.25C367.27,-338.91 318.51,-325.8 282.11,-316.01"/>
<polygon fill="#63b8ff" stroke="#63b8ff" points="405.2,-352.74 415.77,-351.95 407.02,-345.98 405.2,-352.74"/>
</g>
<!-- Node5 -->
<g id="node5" class="node">
<title>Node5</title>
<g id="a_node5"><a xlink:href="cert__auth_8cpp.html" target="_top" xlink:title=" ">
<polygon fill="white" stroke="#666666" points="459.5,-316 304.5,-316 304.5,-286 459.5,-286 459.5,-316"/>
<text text-anchor="start" x="312.5" y="-304" font-family="Helvetica,sans-Serif" font-size="10.00">src/endpoints/authentication</text>
<text text-anchor="middle" x="382" y="-293" font-family="Helvetica,sans-Serif" font-size="10.00">/cert_auth.cpp</text>
</a>
</g>
</g>
<!-- Node1&#45;&gt;Node5 -->
<g id="edge5" class="edge">
<title>Node1&#45;&gt;Node5</title>
<path fill="none" stroke="#63b8ff" d="M440.79,-345.75C427.86,-336.13 412.71,-324.86 401.03,-316.16"/>
<polygon fill="#63b8ff" stroke="#63b8ff" points="438.8,-348.63 448.91,-351.8 442.98,-343.02 438.8,-348.63"/>
</g>
<!-- Node6 -->
<g id="node6" class="node">
<title>Node6</title>
<g id="a_node6"><a xlink:href="jwt__auth_8cpp.html" target="_top" xlink:title=" ">
<polygon fill="white" stroke="#666666" points="632.5,-316 477.5,-316 477.5,-286 632.5,-286 632.5,-316"/>
<text text-anchor="start" x="485.5" y="-304" font-family="Helvetica,sans-Serif" font-size="10.00">src/endpoints/authentication</text>
<text text-anchor="middle" x="555" y="-293" font-family="Helvetica,sans-Serif" font-size="10.00">/jwt_auth.cpp</text>
</a>
</g>
</g>
<!-- Node1&#45;&gt;Node6 -->
<g id="edge6" class="edge">
<title>Node1&#45;&gt;Node6</title>
<path fill="none" stroke="#63b8ff" d="M495.52,-345.75C508.61,-336.13 523.93,-324.86 535.75,-316.16"/>
<polygon fill="#63b8ff" stroke="#63b8ff" points="493.29,-343.05 487.31,-351.8 497.44,-348.69 493.29,-343.05"/>
</g>
<!-- Node7 -->
<g id="node7" class="node">
<title>Node7</title>
<g id="a_node7"><a xlink:href="base__endpoint__registry_8cpp.html" target="_top" xlink:title=" ">
<polygon fill="white" stroke="#666666" points="777,-316 651,-316 651,-286 777,-286 777,-316"/>
<text text-anchor="start" x="659" y="-304" font-family="Helvetica,sans-Serif" font-size="10.00">src/endpoints/base</text>
<text text-anchor="middle" x="714" y="-293" font-family="Helvetica,sans-Serif" font-size="10.00">_endpoint_registry.cpp</text>
</a>
</g>
</g>
<!-- Node1&#45;&gt;Node7 -->
<g id="edge7" class="edge">
<title>Node1&#45;&gt;Node7</title>
<path fill="none" stroke="#63b8ff" d="M531.86,-349.39C571.68,-339.03 622.36,-325.84 660.14,-316.01"/>
<polygon fill="#63b8ff" stroke="#63b8ff" points="530.78,-346.05 521.99,-351.95 532.54,-352.82 530.78,-346.05"/>
</g>
<!-- Node8 -->
<g id="node8" class="node">
<title>Node8</title>
<g id="a_node8"><a xlink:href="wrap_8cpp.html" target="_top" xlink:title=" ">
<polygon fill="white" stroke="#666666" points="884.5,-310.5 795.5,-310.5 795.5,-291.5 884.5,-291.5 884.5,-310.5"/>
<text text-anchor="middle" x="840" y="-298.5" font-family="Helvetica,sans-Serif" font-size="10.00">src/js/wrap.cpp</text>
</a>
</g>
</g>
<!-- Node1&#45;&gt;Node8 -->
<g id="edge8" class="edge">
<title>Node1&#45;&gt;Node8</title>
<path fill="none" stroke="#63b8ff" d="M534.64,-357.45C599.22,-348.72 699.78,-333.91 786,-316 793.59,-314.42 801.7,-312.47 809.28,-310.52"/>
<polygon fill="#63b8ff" stroke="#63b8ff" points="534.04,-354 524.6,-358.8 534.97,-360.94 534.04,-354"/>
</g>
<!-- Node9 -->
<g id="node9" class="node">
<title>Node9</title>
<g id="a_node9"><a xlink:href="channels_8h.html" target="_top" xlink:title=" ">
<polygon fill="white" stroke="#666666" points="155.5,-310.5 42.5,-310.5 42.5,-291.5 155.5,-291.5 155.5,-310.5"/>
<text text-anchor="middle" x="99" y="-298.5" font-family="Helvetica,sans-Serif" font-size="10.00">src/node/channels.h</text>
</a>
</g>
</g>
<!-- Node1&#45;&gt;Node9 -->
<g id="edge9" class="edge">
<title>Node1&#45;&gt;Node9</title>
<path fill="none" stroke="#63b8ff" d="M401.5,-355.92C340.01,-346.38 246.15,-331.29 165,-316 156.14,-314.33 146.63,-312.4 137.68,-310.51"/>
<polygon fill="#63b8ff" stroke="#63b8ff" points="401.04,-359.39 411.46,-357.46 402.11,-352.47 401.04,-359.39"/>
</g>
<!-- Node2&#45;&gt;Node3 -->
<g id="edge2" class="edge">
<title>Node2&#45;&gt;Node3</title>
<path fill="none" stroke="#63b8ff" d="M130.74,-49.97C113.37,-40.28 90.51,-27.52 75.54,-19.17"/>
<polygon fill="#63b8ff" stroke="#63b8ff" points="129.3,-53.17 139.74,-54.98 132.71,-47.06 129.3,-53.17"/>
</g>
<!-- Node10 -->
<g id="node10" class="node">
<title>Node10</title>
<g id="a_node10"><a xlink:href="node__to__node__channel__manager_8h.html" target="_top" xlink:title=" ">
<polygon fill="white" stroke="#666666" points="171.5,-250 42.5,-250 42.5,-220 171.5,-220 171.5,-250"/>
<text text-anchor="start" x="50.5" y="-238" font-family="Helvetica,sans-Serif" font-size="10.00">src/node/node_to_node</text>
<text text-anchor="middle" x="107" y="-227" font-family="Helvetica,sans-Serif" font-size="10.00">_channel_manager.h</text>
</a>
</g>
</g>
<!-- Node9&#45;&gt;Node10 -->
<g id="edge10" class="edge">
<title>Node9&#45;&gt;Node10</title>
<path fill="none" stroke="#63b8ff" d="M101.33,-281.35C102.57,-271.47 104.06,-259.51 105.2,-250.36"/>
<polygon fill="#63b8ff" stroke="#63b8ff" points="97.85,-281.01 100.08,-291.37 104.79,-281.88 97.85,-281.01"/>
</g>
<!-- Node11 -->
<g id="node11" class="node">
<title>Node11</title>
<g id="a_node11"><a xlink:href="node__state_8h.html" target="_top" xlink:title=" ">
<polygon fill="white" stroke="#666666" points="169,-184 45,-184 45,-165 169,-165 169,-184"/>
<text text-anchor="middle" x="107" y="-172" font-family="Helvetica,sans-Serif" font-size="10.00">src/node/node_state.h</text>
</a>
</g>
</g>
<!-- Node10&#45;&gt;Node11 -->
<g id="edge11" class="edge">
<title>Node10&#45;&gt;Node11</title>
<path fill="none" stroke="#63b8ff" d="M107,-209.75C107,-200.72 107,-191.03 107,-184.27"/>
<polygon fill="#63b8ff" stroke="#63b8ff" points="103.5,-209.84 107,-219.84 110.5,-209.84 103.5,-209.84"/>
</g>
<!-- Node11&#45;&gt;Node2 -->
<g id="edge12" class="edge">
<title>Node11&#45;&gt;Node2</title>
<path fill="none" stroke="#63b8ff" d="M110.21,-154.91C112.86,-141.93 117.3,-124.41 124,-110 130.27,-96.51 140.61,-82.72 147.61,-74.14"/>
<polygon fill="#63b8ff" stroke="#63b8ff" points="106.72,-154.48 108.32,-164.96 113.6,-155.78 106.72,-154.48"/>
</g>
<!-- Node12 -->
<g id="node12" class="node">
<title>Node12</title>
<g id="a_node12"><a xlink:href="gov__effects_8h.html" target="_top" xlink:title=" ">
<polygon fill="white" stroke="#666666" points="277,-129 133,-129 133,-110 277,-110 277,-129"/>
<text text-anchor="middle" x="205" y="-117" font-family="Helvetica,sans-Serif" font-size="10.00">src/node/rpc/gov_effects.h</text>
</a>
</g>
</g>
<!-- Node11&#45;&gt;Node12 -->
<g id="edge13" class="edge">
<title>Node11&#45;&gt;Node12</title>
<path fill="none" stroke="#63b8ff" d="M132.03,-159.97C149.94,-150.28 173.53,-137.52 188.97,-129.17"/>
<polygon fill="#63b8ff" stroke="#63b8ff" points="129.88,-157.15 122.75,-164.98 133.21,-163.31 129.88,-157.15"/>
</g>
<!-- Node12&#45;&gt;Node2 -->
<g id="edge14" class="edge">
<title>Node12&#45;&gt;Node2</title>
<path fill="none" stroke="#63b8ff" d="M189.66,-102.24C180.9,-92.95 170.26,-81.68 163.1,-74.09"/>
<polygon fill="#63b8ff" stroke="#63b8ff" points="187.34,-104.88 196.74,-109.75 192.43,-100.07 187.34,-104.88"/>
</g>
</g>
</svg>
