<?xml version="1.0" encoding="UTF-8" standalone="no"?>
<!DOCTYPE svg PUBLIC "-//W3C//DTD SVG 1.1//EN"
 "http://www.w3.org/Graphics/SVG/1.1/DTD/svg11.dtd">
<!-- Generated by graphviz version 2.43.0 (0)
 -->
<!-- Title: src/endpoints/grpc/message.h Pages: 1 -->
<svg width="176pt" height="236pt"
 viewBox="0.00 0.00 176.00 236.00" xmlns="http://www.w3.org/2000/svg" xmlns:xlink="http://www.w3.org/1999/xlink">
<g id="graph0" class="graph" transform="scale(1 1) rotate(0) translate(4 232)">
<title>src/endpoints/grpc/message.h</title>
<!-- Node1 -->
<g id="node1" class="node">
<title>Node1</title>
<g id="a_node1"><a xlink:title=" ">
<polygon fill="#999999" stroke="#666666" points="127,-228 21,-228 21,-198 127,-198 127,-228"/>
<text text-anchor="start" x="29" y="-216" font-family="Helvetica,sans-Serif" font-size="10.00">src/endpoints/grpc</text>
<text text-anchor="middle" x="74" y="-205" font-family="Helvetica,sans-Serif" font-size="10.00">/message.h</text>
</a>
</g>
</g>
<!-- Node2 -->
<g id="node2" class="node">
<title>Node2</title>
<g id="a_node2"><a xlink:href="grpc_8h.html" target="_top" xlink:title=" ">
<polygon fill="white" stroke="#666666" points="127,-96 21,-96 21,-66 127,-66 127,-96"/>
<text text-anchor="start" x="29" y="-84" font-family="Helvetica,sans-Serif" font-size="10.00">src/endpoints/grpc</text>
<text text-anchor="middle" x="74" y="-73" font-family="Helvetica,sans-Serif" font-size="10.00">/grpc.h</text>
</a>
</g>
</g>
<!-- Node1&#45;&gt;Node2 -->
<g id="edge1" class="edge">
<title>Node1&#45;&gt;Node2</title>
<path fill="none" stroke="#63b8ff" d="M61.81,-188.38C58.23,-180.24 54.8,-170.92 53,-162 50.37,-148.93 50.37,-145.07 53,-132 55.53,-119.45 61.3,-106.12 66.15,-96.39"/>
<polygon fill="#63b8ff" stroke="#63b8ff" points="58.73,-190.05 66.15,-197.61 65.07,-187.08 58.73,-190.05"/>
</g>
<!-- Node4 -->
<g id="node4" class="node">
<title>Node4</title>
<g id="a_node4"><a xlink:href="stream_8h.html" target="_top" xlink:title=" ">
<polygon fill="white" stroke="#666666" points="168,-162 62,-162 62,-132 168,-132 168,-162"/>
<text text-anchor="start" x="70" y="-150" font-family="Helvetica,sans-Serif" font-size="10.00">src/endpoints/grpc</text>
<text text-anchor="middle" x="115" y="-139" font-family="Helvetica,sans-Serif" font-size="10.00">/stream.h</text>
</a>
</g>
</g>
<!-- Node1&#45;&gt;Node4 -->
<g id="edge3" class="edge">
<title>Node1&#45;&gt;Node4</title>
<path fill="none" stroke="#63b8ff" d="M88.58,-189.24C94.36,-180.21 100.84,-170.11 105.93,-162.16"/>
<polygon fill="#63b8ff" stroke="#63b8ff" points="85.55,-187.49 83.1,-197.8 91.44,-191.26 85.55,-187.49"/>
</g>
<!-- Node3 -->
<g id="node3" class="node">
<title>Node3</title>
<g id="a_node3"><a xlink:href="external__executor_8cpp.html" target="_top" xlink:title=" ">
<polygon fill="white" stroke="#666666" points="148,-30 0,-30 0,0 148,0 148,-30"/>
<text text-anchor="start" x="8" y="-18" font-family="Helvetica,sans-Serif" font-size="10.00">src/apps/external_executor</text>
<text text-anchor="middle" x="74" y="-7" font-family="Helvetica,sans-Serif" font-size="10.00">/external_executor.cpp</text>
</a>
</g>
</g>
<!-- Node2&#45;&gt;Node3 -->
<g id="edge2" class="edge">
<title>Node2&#45;&gt;Node3</title>
<path fill="none" stroke="#63b8ff" d="M74,-55.54C74,-46.96 74,-37.61 74,-30.16"/>
<polygon fill="#63b8ff" stroke="#63b8ff" points="70.5,-55.8 74,-65.8 77.5,-55.8 70.5,-55.8"/>
</g>
<!-- Node4&#45;&gt;Node2 -->
<g id="edge4" class="edge">
<title>Node4&#45;&gt;Node2</title>
<path fill="none" stroke="#63b8ff" d="M100.42,-123.24C94.64,-114.21 88.16,-104.11 83.07,-96.16"/>
<polygon fill="#63b8ff" stroke="#63b8ff" points="97.56,-125.26 105.9,-131.8 103.45,-121.49 97.56,-125.26"/>
</g>
</g>
</svg>
