<?xml version="1.0" encoding="UTF-8" standalone="no"?>
<!DOCTYPE svg PUBLIC "-//W3C//DTD SVG 1.1//EN"
 "http://www.w3.org/Graphics/SVG/1.1/DTD/svg11.dtd">
<!-- Generated by graphviz version 2.43.0 (0)
 -->
<!-- Title: src/service/tables/governance_history.h Pages: 1 -->
<svg width="1445pt" height="577pt"
 viewBox="0.00 0.00 1445.02 577.00" xmlns="http://www.w3.org/2000/svg" xmlns:xlink="http://www.w3.org/1999/xlink">
<g id="graph0" class="graph" transform="scale(1 1) rotate(0) translate(4 573)">
<title>src/service/tables/governance_history.h</title>
<!-- Node1 -->
<g id="node1" class="node">
<title>Node1</title>
<g id="a_node1"><a xlink:title=" ">
<polygon fill="#999999" stroke="#666666" points="389.5,-569 266.5,-569 266.5,-539 389.5,-539 389.5,-569"/>
<text text-anchor="start" x="274.5" y="-557" font-family="Helvetica,sans-Serif" font-size="10.00">src/service/tables</text>
<text text-anchor="middle" x="328" y="-546" font-family="Helvetica,sans-Serif" font-size="10.00">/governance_history.h</text>
</a>
</g>
</g>
<!-- Node2 -->
<g id="node2" class="node">
<title>Node2</title>
<g id="a_node2"><a xlink:href="entity__id_8h.html" target="_top" xlink:title=" ">
<polygon fill="white" stroke="#666666" points="371,-437 285,-437 285,-418 371,-418 371,-437"/>
<text text-anchor="middle" x="328" y="-425" font-family="Helvetica,sans-Serif" font-size="10.00">ccf/entity_id.h</text>
</a>
</g>
</g>
<!-- Node1&#45;&gt;Node2 -->
<g id="edge1" class="edge">
<title>Node1&#45;&gt;Node2</title>
<path fill="none" stroke="#63b8ff" d="M328,-538.72C328,-516.12 328,-472.12 328,-447.09"/>
<polygon fill="#63b8ff" stroke="#63b8ff" points="331.5,-447.07 328,-437.07 324.5,-447.07 331.5,-447.07"/>
</g>
<!-- Node25 -->
<g id="node25" class="node">
<title>Node25</title>
<g id="a_node25"><a xlink:href="service_2map_8h.html" target="_top" xlink:title=" ">
<polygon fill="white" stroke="#666666" points="751.5,-497.5 648.5,-497.5 648.5,-478.5 751.5,-478.5 751.5,-497.5"/>
<text text-anchor="middle" x="700" y="-485.5" font-family="Helvetica,sans-Serif" font-size="10.00">ccf/service/map.h</text>
</a>
</g>
</g>
<!-- Node1&#45;&gt;Node25 -->
<g id="edge31" class="edge">
<title>Node1&#45;&gt;Node25</title>
<path fill="none" stroke="#63b8ff" d="M389.85,-542.36C459.41,-530.39 571.62,-511.09 640.3,-499.27"/>
<polygon fill="#63b8ff" stroke="#63b8ff" points="641.25,-502.66 650.52,-497.51 640.07,-495.76 641.25,-502.66"/>
</g>
<!-- Node45 -->
<g id="node45" class="node">
<title>Node45</title>
<g id="a_node45"><a xlink:href="signed__req_8h.html" target="_top" xlink:title=" ">
<polygon fill="white" stroke="#666666" points="215,-503 111,-503 111,-473 215,-473 215,-503"/>
<text text-anchor="start" x="119" y="-491" font-family="Helvetica,sans-Serif" font-size="10.00">ccf/service/signed</text>
<text text-anchor="middle" x="163" y="-480" font-family="Helvetica,sans-Serif" font-size="10.00">_req.h</text>
</a>
</g>
</g>
<!-- Node1&#45;&gt;Node45 -->
<g id="edge84" class="edge">
<title>Node1&#45;&gt;Node45</title>
<path fill="none" stroke="#63b8ff" d="M291.79,-538.95C267.29,-529.45 234.73,-516.82 208.48,-506.64"/>
<polygon fill="#63b8ff" stroke="#63b8ff" points="209.71,-503.37 199.13,-503.01 207.18,-509.89 209.71,-503.37"/>
</g>
<!-- Node3 -->
<g id="node3" class="node">
<title>Node3</title>
<g id="a_node3"><a xlink:href="json_8h.html" target="_top" xlink:title=" ">
<polygon fill="white" stroke="#666666" points="188.5,-382 111.5,-382 111.5,-363 188.5,-363 188.5,-382"/>
<text text-anchor="middle" x="150" y="-370" font-family="Helvetica,sans-Serif" font-size="10.00">ccf/ds/json.h</text>
</a>
</g>
</g>
<!-- Node2&#45;&gt;Node3 -->
<g id="edge2" class="edge">
<title>Node2&#45;&gt;Node3</title>
<path fill="none" stroke="#63b8ff" d="M299.4,-417.98C269.39,-409.05 222.02,-394.94 188.68,-385.02"/>
<polygon fill="#63b8ff" stroke="#63b8ff" points="189.41,-381.58 178.82,-382.08 187.41,-388.29 189.41,-381.58"/>
</g>
<!-- Node5 -->
<g id="node5" class="node">
<title>Node5</title>
<g id="a_node5"><a xlink:title=" ">
<polygon fill="#e0e0e0" stroke="#999999" points="653,-189.5 609,-189.5 609,-170.5 653,-170.5 653,-189.5"/>
<text text-anchor="middle" x="631" y="-177.5" font-family="Helvetica,sans-Serif" font-size="10.00">string</text>
</a>
</g>
</g>
<!-- Node2&#45;&gt;Node5 -->
<g id="edge30" class="edge">
<title>Node2&#45;&gt;Node5</title>
<path fill="none" stroke="#63b8ff" d="M326.66,-417.64C322.47,-386.2 313.11,-279.33 371,-231 450.08,-164.97 501.28,-224.47 600,-195 601.63,-194.51 603.29,-193.96 604.95,-193.35"/>
<polygon fill="#63b8ff" stroke="#63b8ff" points="606.33,-196.57 614.26,-189.55 603.68,-190.09 606.33,-196.57"/>
</g>
<!-- Node18 -->
<g id="node18" class="node">
<title>Node18</title>
<g id="a_node18"><a xlink:href="blit__serialiser_8h.html" target="_top" xlink:title=" ">
<polygon fill="white" stroke="#666666" points="455.5,-327 356.5,-327 356.5,-297 455.5,-297 455.5,-327"/>
<text text-anchor="start" x="364.5" y="-315" font-family="Helvetica,sans-Serif" font-size="10.00">ccf/kv/serialisers</text>
<text text-anchor="middle" x="406" y="-304" font-family="Helvetica,sans-Serif" font-size="10.00">/blit_serialiser.h</text>
</a>
</g>
</g>
<!-- Node2&#45;&gt;Node18 -->
<g id="edge20" class="edge">
<title>Node2&#45;&gt;Node18</title>
<path fill="none" stroke="#63b8ff" d="M333.86,-417.97C345.78,-400.63 373.17,-360.77 390.56,-335.47"/>
<polygon fill="#63b8ff" stroke="#63b8ff" points="393.48,-337.4 396.25,-327.18 387.71,-333.44 393.48,-337.4"/>
</g>
<!-- Node4 -->
<g id="node4" class="node">
<title>Node4</title>
<g id="a_node4"><a xlink:href="include_2ccf_2crypto_2base64_8h.html" target="_top" xlink:title=" ">
<polygon fill="white" stroke="#666666" points="178,-255.5 66,-255.5 66,-236.5 178,-236.5 178,-255.5"/>
<text text-anchor="middle" x="122" y="-243.5" font-family="Helvetica,sans-Serif" font-size="10.00">ccf/crypto/base64.h</text>
</a>
</g>
</g>
<!-- Node3&#45;&gt;Node4 -->
<g id="edge3" class="edge">
<title>Node3&#45;&gt;Node4</title>
<path fill="none" stroke="#63b8ff" d="M148.08,-362.94C143.58,-342.95 132.3,-292.82 126.16,-265.48"/>
<polygon fill="#63b8ff" stroke="#63b8ff" points="129.55,-264.61 123.94,-255.62 122.72,-266.14 129.55,-264.61"/>
</g>
<!-- Node7 -->
<g id="node7" class="node">
<title>Node7</title>
<g id="a_node7"><a xlink:href="include_2ccf_2ds_2json__schema_8h.html" target="_top" xlink:title=" ">
<polygon fill="white" stroke="#666666" points="299.5,-321.5 178.5,-321.5 178.5,-302.5 299.5,-302.5 299.5,-321.5"/>
<text text-anchor="middle" x="239" y="-309.5" font-family="Helvetica,sans-Serif" font-size="10.00">ccf/ds/json_schema.h</text>
</a>
</g>
</g>
<!-- Node3&#45;&gt;Node7 -->
<g id="edge6" class="edge">
<title>Node3&#45;&gt;Node7</title>
<path fill="none" stroke="#63b8ff" d="M163.13,-362.87C177.33,-353.54 200.2,-338.51 217.12,-327.38"/>
<polygon fill="#63b8ff" stroke="#63b8ff" points="219.38,-330.08 225.81,-321.67 215.53,-324.24 219.38,-330.08"/>
</g>
<!-- Node15 -->
<g id="node15" class="node">
<title>Node15</title>
<g id="a_node15"><a xlink:title=" ">
<polygon fill="#e0e0e0" stroke="#999999" points="164.5,-74 85.5,-74 85.5,-55 164.5,-55 164.5,-74"/>
<text text-anchor="middle" x="125" y="-62" font-family="Helvetica,sans-Serif" font-size="10.00">fmt/format.h</text>
</a>
</g>
</g>
<!-- Node3&#45;&gt;Node15 -->
<g id="edge18" class="edge">
<title>Node3&#45;&gt;Node15</title>
<path fill="none" stroke="#63b8ff" d="M111.24,-363.34C91.38,-356.98 68.93,-345.93 57,-327 5.64,-245.48 80.46,-126.44 112.06,-82.56"/>
<polygon fill="#63b8ff" stroke="#63b8ff" points="114.97,-84.51 118.08,-74.38 109.33,-80.36 114.97,-84.51"/>
</g>
<!-- Node17 -->
<g id="node17" class="node">
<title>Node17</title>
<g id="a_node17"><a xlink:title=" ">
<polygon fill="#e0e0e0" stroke="#999999" points="122,-321.5 66,-321.5 66,-302.5 122,-302.5 122,-321.5"/>
<text text-anchor="middle" x="94" y="-309.5" font-family="Helvetica,sans-Serif" font-size="10.00">sstream</text>
</a>
</g>
</g>
<!-- Node3&#45;&gt;Node17 -->
<g id="edge19" class="edge">
<title>Node3&#45;&gt;Node17</title>
<path fill="none" stroke="#63b8ff" d="M141.74,-362.87C133.22,-353.97 119.74,-339.89 109.27,-328.95"/>
<polygon fill="#63b8ff" stroke="#63b8ff" points="111.74,-326.47 102.3,-321.67 106.68,-331.31 111.74,-326.47"/>
</g>
<!-- Node4&#45;&gt;Node5 -->
<g id="edge4" class="edge">
<title>Node4&#45;&gt;Node5</title>
<path fill="none" stroke="#63b8ff" d="M178.08,-236.97C193.29,-234.9 209.76,-232.77 225,-231 391.32,-211.72 438.19,-238.04 600,-195 601.69,-194.55 603.4,-194.02 605.1,-193.43"/>
<polygon fill="#63b8ff" stroke="#63b8ff" points="606.67,-196.57 614.64,-189.59 604.05,-190.08 606.67,-196.57"/>
</g>
<!-- Node6 -->
<g id="node6" class="node">
<title>Node6</title>
<g id="a_node6"><a xlink:title=" ">
<polygon fill="#e0e0e0" stroke="#999999" points="152.5,-19 105.5,-19 105.5,0 152.5,0 152.5,-19"/>
<text text-anchor="middle" x="129" y="-7" font-family="Helvetica,sans-Serif" font-size="10.00">vector</text>
</a>
</g>
</g>
<!-- Node4&#45;&gt;Node6 -->
<g id="edge5" class="edge">
<title>Node4&#45;&gt;Node6</title>
<path fill="none" stroke="#63b8ff" d="M116.06,-236.27C98.01,-208.57 46.8,-120.59 77,-55 82.75,-42.52 93.91,-32.24 104.42,-24.71"/>
<polygon fill="#63b8ff" stroke="#63b8ff" points="106.57,-27.49 112.97,-19.05 102.7,-21.65 106.57,-27.49"/>
</g>
<!-- Node8 -->
<g id="node8" class="node">
<title>Node8</title>
<g id="a_node8"><a xlink:href="nonstd_8h.html" target="_top" xlink:title=" ">
<polygon fill="white" stroke="#666666" points="324,-255.5 234,-255.5 234,-236.5 324,-236.5 324,-255.5"/>
<text text-anchor="middle" x="279" y="-243.5" font-family="Helvetica,sans-Serif" font-size="10.00">ccf/ds/nonstd.h</text>
</a>
</g>
</g>
<!-- Node7&#45;&gt;Node8 -->
<g id="edge7" class="edge">
<title>Node7&#45;&gt;Node8</title>
<path fill="none" stroke="#63b8ff" d="M244.39,-302.37C250.44,-292.69 260.41,-276.74 268.1,-264.44"/>
<polygon fill="#63b8ff" stroke="#63b8ff" points="271.1,-266.24 273.43,-255.91 265.17,-262.53 271.1,-266.24"/>
</g>
<!-- Node14 -->
<g id="node14" class="node">
<title>Node14</title>
<g id="a_node14"><a xlink:title=" ">
<polygon fill="#e0e0e0" stroke="#999999" points="1166,-189.5 1110,-189.5 1110,-170.5 1166,-170.5 1166,-189.5"/>
<text text-anchor="middle" x="1138" y="-177.5" font-family="Helvetica,sans-Serif" font-size="10.00">optional</text>
</a>
</g>
</g>
<!-- Node7&#45;&gt;Node14 -->
<g id="edge15" class="edge">
<title>Node7&#45;&gt;Node14</title>
<path fill="none" stroke="#63b8ff" d="M299.75,-302.56C315.45,-300.56 332.34,-298.55 348,-297 576.33,-274.38 637.11,-301.27 863,-261 952.49,-245.04 1054.4,-211.08 1105.36,-192.96"/>
<polygon fill="#63b8ff" stroke="#63b8ff" points="1106.62,-196.23 1114.86,-189.56 1104.26,-189.64 1106.62,-196.23"/>
</g>
<!-- Node7&#45;&gt;Node15 -->
<g id="edge16" class="edge">
<title>Node7&#45;&gt;Node15</title>
<path fill="none" stroke="#63b8ff" d="M234.24,-302.39C223.74,-283.31 198.06,-235.9 179,-195 160.72,-155.78 141.81,-108.64 131.94,-83.45"/>
<polygon fill="#63b8ff" stroke="#63b8ff" points="135.19,-82.14 128.3,-74.09 128.67,-84.68 135.19,-82.14"/>
</g>
<!-- Node16 -->
<g id="node16" class="node">
<title>Node16</title>
<g id="a_node16"><a xlink:title=" ">
<polygon fill="#e0e0e0" stroke="#999999" points="490,-255.5 380,-255.5 380,-236.5 490,-236.5 490,-255.5"/>
<text text-anchor="middle" x="435" y="-243.5" font-family="Helvetica,sans-Serif" font-size="10.00">nlohmann/json.hpp</text>
</a>
</g>
</g>
<!-- Node7&#45;&gt;Node16 -->
<g id="edge17" class="edge">
<title>Node7&#45;&gt;Node16</title>
<path fill="none" stroke="#63b8ff" d="M265.43,-302.37C299.87,-291.12 360.22,-271.42 398.87,-258.8"/>
<polygon fill="#63b8ff" stroke="#63b8ff" points="400.25,-262.03 408.67,-255.6 398.08,-255.37 400.25,-262.03"/>
</g>
<!-- Node8&#45;&gt;Node5 -->
<g id="edge11" class="edge">
<title>Node8&#45;&gt;Node5</title>
<path fill="none" stroke="#63b8ff" d="M312.58,-236.44C320.86,-234.49 329.72,-232.55 338,-231 453.54,-209.41 487.05,-227.52 600,-195 601.64,-194.53 603.3,-193.98 604.96,-193.39"/>
<polygon fill="#63b8ff" stroke="#63b8ff" points="606.33,-196.61 614.28,-189.61 603.7,-190.13 606.33,-196.61"/>
</g>
<!-- Node8&#45;&gt;Node6 -->
<g id="edge14" class="edge">
<title>Node8&#45;&gt;Node6</title>
<path fill="none" stroke="#63b8ff" d="M261.88,-236.46C246.59,-227.97 224.72,-213.56 212,-195 175.49,-141.72 205.41,-110.87 173,-55 166.57,-43.92 156.73,-33.61 147.99,-25.7"/>
<polygon fill="#63b8ff" stroke="#63b8ff" points="150.25,-23.04 140.39,-19.17 145.69,-28.35 150.25,-23.04"/>
</g>
<!-- Node9 -->
<g id="node9" class="node">
<title>Node9</title>
<g id="a_node9"><a xlink:title=" ">
<polygon fill="#e0e0e0" stroke="#999999" points="285,-189.5 221,-189.5 221,-170.5 285,-170.5 285,-189.5"/>
<text text-anchor="middle" x="253" y="-177.5" font-family="Helvetica,sans-Serif" font-size="10.00">algorithm</text>
</a>
</g>
</g>
<!-- Node8&#45;&gt;Node9 -->
<g id="edge8" class="edge">
<title>Node8&#45;&gt;Node9</title>
<path fill="none" stroke="#63b8ff" d="M275.49,-236.37C271.68,-226.97 265.46,-211.67 260.53,-199.53"/>
<polygon fill="#63b8ff" stroke="#63b8ff" points="263.62,-197.85 256.62,-189.91 257.14,-200.49 263.62,-197.85"/>
</g>
<!-- Node10 -->
<g id="node10" class="node">
<title>Node10</title>
<g id="a_node10"><a xlink:title=" ">
<polygon fill="#e0e0e0" stroke="#999999" points="345,-189.5 303,-189.5 303,-170.5 345,-170.5 345,-189.5"/>
<text text-anchor="middle" x="324" y="-177.5" font-family="Helvetica,sans-Serif" font-size="10.00">array</text>
</a>
</g>
</g>
<!-- Node8&#45;&gt;Node10 -->
<g id="edge9" class="edge">
<title>Node8&#45;&gt;Node10</title>
<path fill="none" stroke="#63b8ff" d="M285.07,-236.37C291.87,-226.69 303.09,-210.74 311.74,-198.44"/>
<polygon fill="#63b8ff" stroke="#63b8ff" points="314.85,-200.1 317.74,-189.91 309.12,-196.07 314.85,-200.1"/>
</g>
<!-- Node11 -->
<g id="node11" class="node">
<title>Node11</title>
<g id="a_node11"><a xlink:title=" ">
<polygon fill="#e0e0e0" stroke="#999999" points="412.5,-189.5 363.5,-189.5 363.5,-170.5 412.5,-170.5 412.5,-189.5"/>
<text text-anchor="middle" x="388" y="-177.5" font-family="Helvetica,sans-Serif" font-size="10.00">cctype</text>
</a>
</g>
</g>
<!-- Node8&#45;&gt;Node11 -->
<g id="edge10" class="edge">
<title>Node8&#45;&gt;Node11</title>
<path fill="none" stroke="#63b8ff" d="M293.7,-236.37C311.82,-225.73 342.85,-207.51 364.34,-194.89"/>
<polygon fill="#63b8ff" stroke="#63b8ff" points="366.33,-197.78 373.18,-189.7 362.79,-191.74 366.33,-197.78"/>
</g>
<!-- Node12 -->
<g id="node12" class="node">
<title>Node12</title>
<g id="a_node12"><a xlink:title=" ">
<polygon fill="#e0e0e0" stroke="#999999" points="503.5,-189.5 430.5,-189.5 430.5,-170.5 503.5,-170.5 503.5,-189.5"/>
<text text-anchor="middle" x="467" y="-177.5" font-family="Helvetica,sans-Serif" font-size="10.00">string_view</text>
</a>
</g>
</g>
<!-- Node8&#45;&gt;Node12 -->
<g id="edge12" class="edge">
<title>Node8&#45;&gt;Node12</title>
<path fill="none" stroke="#63b8ff" d="M304.35,-236.37C337.24,-225.17 394.78,-205.58 431.87,-192.96"/>
<polygon fill="#63b8ff" stroke="#63b8ff" points="433.41,-196.13 441.75,-189.6 431.15,-189.51 433.41,-196.13"/>
</g>
<!-- Node13 -->
<g id="node13" class="node">
<title>Node13</title>
<g id="a_node13"><a xlink:title=" ">
<polygon fill="#e0e0e0" stroke="#999999" points="590.5,-189.5 521.5,-189.5 521.5,-170.5 590.5,-170.5 590.5,-189.5"/>
<text text-anchor="middle" x="556" y="-177.5" font-family="Helvetica,sans-Serif" font-size="10.00">type_traits</text>
</a>
</g>
</g>
<!-- Node8&#45;&gt;Node13 -->
<g id="edge13" class="edge">
<title>Node8&#45;&gt;Node13</title>
<path fill="none" stroke="#63b8ff" d="M314.21,-236.46C322.04,-234.62 330.29,-232.71 338,-231 415.53,-213.83 436.24,-215.32 513,-195 515.77,-194.27 518.63,-193.45 521.5,-192.61"/>
<polygon fill="#63b8ff" stroke="#63b8ff" points="522.61,-195.92 531.13,-189.62 520.54,-189.24 522.61,-195.92"/>
</g>
<!-- Node18&#45;&gt;Node8 -->
<g id="edge21" class="edge">
<title>Node18&#45;&gt;Node8</title>
<path fill="none" stroke="#63b8ff" d="M378.13,-296.95C356.35,-285.98 326.3,-270.83 305.01,-260.11"/>
<polygon fill="#63b8ff" stroke="#63b8ff" points="306.41,-256.89 295.9,-255.52 303.26,-263.14 306.41,-256.89"/>
</g>
<!-- Node19 -->
<g id="node19" class="node">
<title>Node19</title>
<g id="a_node19"><a xlink:href="serialised__entry_8h.html" target="_top" xlink:title=" ">
<polygon fill="white" stroke="#666666" points="867.5,-195 762.5,-195 762.5,-165 867.5,-165 867.5,-195"/>
<text text-anchor="start" x="770.5" y="-183" font-family="Helvetica,sans-Serif" font-size="10.00">ccf/kv/serialisers</text>
<text text-anchor="middle" x="815" y="-172" font-family="Helvetica,sans-Serif" font-size="10.00">/serialised_entry.h</text>
</a>
</g>
</g>
<!-- Node18&#45;&gt;Node19 -->
<g id="edge22" class="edge">
<title>Node18&#45;&gt;Node19</title>
<path fill="none" stroke="#63b8ff" d="M450.16,-296.96C525.68,-272.96 679.4,-224.1 761.12,-198.13"/>
<polygon fill="#63b8ff" stroke="#63b8ff" points="762.25,-201.44 770.72,-195.08 760.13,-194.77 762.25,-201.44"/>
</g>
<!-- Node20 -->
<g id="node20" class="node">
<title>Node20</title>
<g id="a_node20"><a xlink:href="byte__vector_8h.html" target="_top" xlink:title=" ">
<polygon fill="white" stroke="#666666" points="390,-129 290,-129 290,-110 390,-110 390,-129"/>
<text text-anchor="middle" x="340" y="-117" font-family="Helvetica,sans-Serif" font-size="10.00">ccf/byte_vector.h</text>
</a>
</g>
</g>
<!-- Node19&#45;&gt;Node20 -->
<g id="edge23" class="edge">
<title>Node19&#45;&gt;Node20</title>
<path fill="none" stroke="#63b8ff" d="M762.35,-172.52C673.41,-161.56 493.97,-139.46 400.19,-127.91"/>
<polygon fill="#63b8ff" stroke="#63b8ff" points="400.37,-124.41 390.01,-126.66 399.51,-131.36 400.37,-124.41"/>
</g>
<!-- Node20&#45;&gt;Node15 -->
<g id="edge28" class="edge">
<title>Node20&#45;&gt;Node15</title>
<path fill="none" stroke="#63b8ff" d="M305.46,-109.98C268.58,-100.89 210.01,-86.46 169.66,-76.51"/>
<polygon fill="#63b8ff" stroke="#63b8ff" points="170.36,-73.08 159.81,-74.08 168.69,-79.87 170.36,-73.08"/>
</g>
<!-- Node21 -->
<g id="node21" class="node">
<title>Node21</title>
<g id="a_node21"><a xlink:href="siphash_8h.html" target="_top" xlink:title=" ">
<polygon fill="white" stroke="#666666" points="316.5,-74 221.5,-74 221.5,-55 316.5,-55 316.5,-74"/>
<text text-anchor="middle" x="269" y="-62" font-family="Helvetica,sans-Serif" font-size="10.00">ccf/ds/siphash.h</text>
</a>
</g>
</g>
<!-- Node20&#45;&gt;Node21 -->
<g id="edge24" class="edge">
<title>Node20&#45;&gt;Node21</title>
<path fill="none" stroke="#63b8ff" d="M328.59,-109.98C317.89,-102 301.66,-89.88 288.84,-80.31"/>
<polygon fill="#63b8ff" stroke="#63b8ff" points="290.72,-77.35 280.61,-74.17 286.53,-82.96 290.72,-77.35"/>
</g>
<!-- Node24 -->
<g id="node24" class="node">
<title>Node24</title>
<g id="a_node24"><a xlink:title=" ">
<polygon fill="#e0e0e0" stroke="#999999" points="483.5,-74 334.5,-74 334.5,-55 483.5,-55 483.5,-74"/>
<text text-anchor="middle" x="409" y="-62" font-family="Helvetica,sans-Serif" font-size="10.00">small_vector/SmallVector.h</text>
</a>
</g>
</g>
<!-- Node20&#45;&gt;Node24 -->
<g id="edge29" class="edge">
<title>Node20&#45;&gt;Node24</title>
<path fill="none" stroke="#63b8ff" d="M351.09,-109.98C361.49,-102 377.26,-89.88 389.72,-80.31"/>
<polygon fill="#63b8ff" stroke="#63b8ff" points="391.91,-83.04 397.71,-74.17 387.65,-77.49 391.91,-83.04"/>
</g>
<!-- Node21&#45;&gt;Node6 -->
<g id="edge27" class="edge">
<title>Node21&#45;&gt;Node6</title>
<path fill="none" stroke="#63b8ff" d="M246.51,-54.98C223.48,-46.27 187.46,-32.63 161.37,-22.75"/>
<polygon fill="#63b8ff" stroke="#63b8ff" points="162.49,-19.44 151.9,-19.17 160.02,-25.98 162.49,-19.44"/>
</g>
<!-- Node22 -->
<g id="node22" class="node">
<title>Node22</title>
<g id="a_node22"><a xlink:title=" ">
<polygon fill="#e0e0e0" stroke="#999999" points="260.5,-19 207.5,-19 207.5,0 260.5,0 260.5,-19"/>
<text text-anchor="middle" x="234" y="-7" font-family="Helvetica,sans-Serif" font-size="10.00">cstddef</text>
</a>
</g>
</g>
<!-- Node21&#45;&gt;Node22 -->
<g id="edge25" class="edge">
<title>Node21&#45;&gt;Node22</title>
<path fill="none" stroke="#63b8ff" d="M263.22,-54.75C258.38,-47.42 251.32,-36.73 245.36,-27.7"/>
<polygon fill="#63b8ff" stroke="#63b8ff" points="248.1,-25.5 239.67,-19.09 242.26,-29.36 248.1,-25.5"/>
</g>
<!-- Node23 -->
<g id="node23" class="node">
<title>Node23</title>
<g id="a_node23"><a xlink:title=" ">
<polygon fill="#e0e0e0" stroke="#999999" points="329,-19 279,-19 279,0 329,0 329,-19"/>
<text text-anchor="middle" x="304" y="-7" font-family="Helvetica,sans-Serif" font-size="10.00">cstdint</text>
</a>
</g>
</g>
<!-- Node21&#45;&gt;Node23 -->
<g id="edge26" class="edge">
<title>Node21&#45;&gt;Node23</title>
<path fill="none" stroke="#63b8ff" d="M274.78,-54.75C279.62,-47.42 286.68,-36.73 292.64,-27.7"/>
<polygon fill="#63b8ff" stroke="#63b8ff" points="295.74,-29.36 298.33,-19.09 289.9,-25.5 295.74,-29.36"/>
</g>
<!-- Node26 -->
<g id="node26" class="node">
<title>Node26</title>
<g id="a_node26"><a xlink:href="kv_2map_8h.html" target="_top" xlink:title=" ">
<polygon fill="white" stroke="#666666" points="866,-437 786,-437 786,-418 866,-418 866,-437"/>
<text text-anchor="middle" x="826" y="-425" font-family="Helvetica,sans-Serif" font-size="10.00">ccf/kv/map.h</text>
</a>
</g>
</g>
<!-- Node25&#45;&gt;Node26 -->
<g id="edge32" class="edge">
<title>Node25&#45;&gt;Node26</title>
<path fill="none" stroke="#63b8ff" d="M718.32,-478.49C739.41,-468.7 774.26,-452.52 798.58,-441.23"/>
<polygon fill="#63b8ff" stroke="#63b8ff" points="800.06,-444.4 807.66,-437.02 797.11,-438.05 800.06,-444.4"/>
</g>
<!-- Node40 -->
<g id="node40" class="node">
<title>Node40</title>
<g id="a_node40"><a xlink:href="set_8h.html" target="_top" xlink:title=" ">
<polygon fill="white" stroke="#666666" points="781.5,-382 708.5,-382 708.5,-363 781.5,-363 781.5,-382"/>
<text text-anchor="middle" x="745" y="-370" font-family="Helvetica,sans-Serif" font-size="10.00">ccf/kv/set.h</text>
</a>
</g>
</g>
<!-- Node25&#45;&gt;Node40 -->
<g id="edge65" class="edge">
<title>Node25&#45;&gt;Node40</title>
<path fill="none" stroke="#63b8ff" d="M703.38,-478.47C710.68,-460.06 728.03,-416.29 737.87,-391.48"/>
<polygon fill="#63b8ff" stroke="#63b8ff" points="741.15,-392.72 741.58,-382.13 734.64,-390.14 741.15,-392.72"/>
</g>
<!-- Node43 -->
<g id="node43" class="node">
<title>Node43</title>
<g id="a_node43"><a xlink:href="value_8h.html" target="_top" xlink:title=" ">
<polygon fill="white" stroke="#666666" points="690.5,-382 605.5,-382 605.5,-363 690.5,-363 690.5,-382"/>
<text text-anchor="middle" x="648" y="-370" font-family="Helvetica,sans-Serif" font-size="10.00">ccf/kv/value.h</text>
</a>
</g>
</g>
<!-- Node25&#45;&gt;Node43 -->
<g id="edge75" class="edge">
<title>Node25&#45;&gt;Node43</title>
<path fill="none" stroke="#63b8ff" d="M696.09,-478.47C687.66,-460.06 667.61,-416.29 656.24,-391.48"/>
<polygon fill="#63b8ff" stroke="#63b8ff" points="659.3,-389.76 651.95,-382.13 652.94,-392.68 659.3,-389.76"/>
</g>
<!-- Node26&#45;&gt;Node18 -->
<g id="edge60" class="edge">
<title>Node26&#45;&gt;Node18</title>
<path fill="none" stroke="#63b8ff" d="M785.68,-422.6C733.99,-416.93 641.96,-404.53 566,-382 522.11,-368.98 474.19,-347.24 442.35,-331.64"/>
<polygon fill="#63b8ff" stroke="#63b8ff" points="443.52,-328.31 433.01,-327.01 440.41,-334.59 443.52,-328.31"/>
</g>
<!-- Node27 -->
<g id="node27" class="node">
<title>Node27</title>
<g id="a_node27"><a xlink:href="get__name_8h.html" target="_top" xlink:title=" ">
<polygon fill="white" stroke="#666666" points="580.5,-321.5 473.5,-321.5 473.5,-302.5 580.5,-302.5 580.5,-321.5"/>
<text text-anchor="middle" x="527" y="-309.5" font-family="Helvetica,sans-Serif" font-size="10.00">ccf/kv/get_name.h</text>
</a>
</g>
</g>
<!-- Node26&#45;&gt;Node27 -->
<g id="edge33" class="edge">
<title>Node26&#45;&gt;Node27</title>
<path fill="none" stroke="#63b8ff" d="M785.61,-425.63C737.95,-423.09 657.55,-413.91 597,-382 573.05,-369.38 551.91,-345.91 539.29,-329.88"/>
<polygon fill="#63b8ff" stroke="#63b8ff" points="542.02,-327.7 533.19,-321.85 536.45,-331.93 542.02,-327.7"/>
</g>
<!-- Node28 -->
<g id="node28" class="node">
<title>Node28</title>
<g id="a_node28"><a xlink:href="include_2ccf_2kv_2hooks_8h.html" target="_top" xlink:title=" ">
<polygon fill="white" stroke="#666666" points="1015.5,-189.5 928.5,-189.5 928.5,-170.5 1015.5,-170.5 1015.5,-189.5"/>
<text text-anchor="middle" x="972" y="-177.5" font-family="Helvetica,sans-Serif" font-size="10.00">ccf/kv/hooks.h</text>
</a>
</g>
</g>
<!-- Node26&#45;&gt;Node28 -->
<g id="edge35" class="edge">
<title>Node26&#45;&gt;Node28</title>
<path fill="none" stroke="#63b8ff" d="M866.25,-420.08C915.18,-409.89 995.69,-384.86 1032,-327 1039.09,-315.71 1035.15,-309.96 1032,-297 1030.72,-291.73 997.85,-229.56 981.32,-198.48"/>
<polygon fill="#63b8ff" stroke="#63b8ff" points="984.37,-196.77 976.58,-189.58 978.19,-200.06 984.37,-196.77"/>
</g>
<!-- Node32 -->
<g id="node32" class="node">
<title>Node32</title>
<g id="a_node32"><a xlink:href="map__diff_8h.html" target="_top" xlink:title=" ">
<polygon fill="white" stroke="#666666" points="1368.5,-382 1267.5,-382 1267.5,-363 1368.5,-363 1368.5,-382"/>
<text text-anchor="middle" x="1318" y="-370" font-family="Helvetica,sans-Serif" font-size="10.00">ccf/kv/map_diff.h</text>
</a>
</g>
</g>
<!-- Node26&#45;&gt;Node32 -->
<g id="edge39" class="edge">
<title>Node26&#45;&gt;Node32</title>
<path fill="none" stroke="#63b8ff" d="M866.07,-422.56C941.35,-415.1 1109,-398.21 1250,-382 1252.34,-381.73 1254.73,-381.45 1257.14,-381.17"/>
<polygon fill="#63b8ff" stroke="#63b8ff" points="1257.63,-384.63 1267.14,-379.97 1256.8,-377.68 1257.63,-384.63"/>
</g>
<!-- Node35 -->
<g id="node35" class="node">
<title>Node35</title>
<g id="a_node35"><a xlink:href="untyped_8h.html" target="_top" xlink:title=" ">
<polygon fill="white" stroke="#666666" points="1256,-255.5 1158,-255.5 1158,-236.5 1256,-236.5 1256,-255.5"/>
<text text-anchor="middle" x="1207" y="-243.5" font-family="Helvetica,sans-Serif" font-size="10.00">ccf/kv/untyped.h</text>
</a>
</g>
</g>
<!-- Node26&#45;&gt;Node35 -->
<g id="edge64" class="edge">
<title>Node26&#45;&gt;Node35</title>
<path fill="none" stroke="#63b8ff" d="M866.02,-424.91C961.01,-420.72 1193.88,-407.9 1217,-382 1245.99,-349.52 1227.79,-293.36 1215.51,-264.79"/>
<polygon fill="#63b8ff" stroke="#63b8ff" points="1218.67,-263.28 1211.36,-255.61 1212.29,-266.17 1218.67,-263.28"/>
</g>
<!-- Node37 -->
<g id="node37" class="node">
<title>Node37</title>
<g id="a_node37"><a xlink:href="map__handle_8h.html" target="_top" xlink:title=" ">
<polygon fill="white" stroke="#666666" points="1208,-382 1090,-382 1090,-363 1208,-363 1208,-382"/>
<text text-anchor="middle" x="1149" y="-370" font-family="Helvetica,sans-Serif" font-size="10.00">ccf/kv/map_handle.h</text>
</a>
</g>
</g>
<!-- Node26&#45;&gt;Node37 -->
<g id="edge52" class="edge">
<title>Node26&#45;&gt;Node37</title>
<path fill="none" stroke="#63b8ff" d="M866.26,-419.89C921.64,-410.81 1021.84,-394.36 1086.88,-383.69"/>
<polygon fill="#63b8ff" stroke="#63b8ff" points="1087.7,-387.11 1097,-382.03 1086.57,-380.2 1087.7,-387.11"/>
</g>
<!-- Node39 -->
<g id="node39" class="node">
<title>Node39</title>
<g id="a_node39"><a xlink:href="json__serialiser_8h.html" target="_top" xlink:title=" ">
<polygon fill="white" stroke="#666666" points="736.5,-327 637.5,-327 637.5,-297 736.5,-297 736.5,-327"/>
<text text-anchor="start" x="645.5" y="-315" font-family="Helvetica,sans-Serif" font-size="10.00">ccf/kv/serialisers</text>
<text text-anchor="middle" x="687" y="-304" font-family="Helvetica,sans-Serif" font-size="10.00">/json_serialiser.h</text>
</a>
</g>
</g>
<!-- Node26&#45;&gt;Node39 -->
<g id="edge61" class="edge">
<title>Node26&#45;&gt;Node39</title>
<path fill="none" stroke="#63b8ff" d="M823.09,-417.6C818.31,-404.2 807.64,-378.74 791,-363 776.69,-349.47 758.04,-338.96 740.49,-331.14"/>
<polygon fill="#63b8ff" stroke="#63b8ff" points="741.46,-327.75 730.88,-327.07 738.73,-334.2 741.46,-327.75"/>
</g>
<!-- Node27&#45;&gt;Node5 -->
<g id="edge34" class="edge">
<title>Node27&#45;&gt;Node5</title>
<path fill="none" stroke="#63b8ff" d="M532.01,-302.18C540.82,-286.98 560.06,-255.15 580,-231 590.22,-218.63 603.14,-205.99 613.41,-196.51"/>
<polygon fill="#63b8ff" stroke="#63b8ff" points="615.92,-198.96 620.99,-189.66 611.23,-193.77 615.92,-198.96"/>
</g>
<!-- Node29 -->
<g id="node29" class="node">
<title>Node29</title>
<g id="a_node29"><a xlink:href="version_8h.html" target="_top" xlink:title=" ">
<polygon fill="white" stroke="#666666" points="1091,-129 997,-129 997,-110 1091,-110 1091,-129"/>
<text text-anchor="middle" x="1044" y="-117" font-family="Helvetica,sans-Serif" font-size="10.00">ccf/kv/version.h</text>
</a>
</g>
</g>
<!-- Node28&#45;&gt;Node29 -->
<g id="edge36" class="edge">
<title>Node28&#45;&gt;Node29</title>
<path fill="none" stroke="#63b8ff" d="M982.62,-170.37C993.9,-161.21 1011.92,-146.56 1025.53,-135.51"/>
<polygon fill="#63b8ff" stroke="#63b8ff" points="1027.78,-138.19 1033.33,-129.17 1023.36,-132.76 1027.78,-138.19"/>
</g>
<!-- Node30 -->
<g id="node30" class="node">
<title>Node30</title>
<g id="a_node30"><a xlink:title=" ">
<polygon fill="#e0e0e0" stroke="#999999" points="1174.5,-129 1109.5,-129 1109.5,-110 1174.5,-110 1174.5,-129"/>
<text text-anchor="middle" x="1142" y="-117" font-family="Helvetica,sans-Serif" font-size="10.00">functional</text>
</a>
</g>
</g>
<!-- Node28&#45;&gt;Node30 -->
<g id="edge37" class="edge">
<title>Node28&#45;&gt;Node30</title>
<path fill="none" stroke="#63b8ff" d="M996.72,-170.49C1025.93,-160.44 1074.7,-143.66 1107.59,-132.34"/>
<polygon fill="#63b8ff" stroke="#63b8ff" points="1108.93,-135.58 1117.25,-129.02 1106.66,-128.96 1108.93,-135.58"/>
</g>
<!-- Node31 -->
<g id="node31" class="node">
<title>Node31</title>
<g id="a_node31"><a xlink:title=" ">
<polygon fill="#e0e0e0" stroke="#999999" points="979,-129 921,-129 921,-110 979,-110 979,-129"/>
<text text-anchor="middle" x="950" y="-117" font-family="Helvetica,sans-Serif" font-size="10.00">memory</text>
</a>
</g>
</g>
<!-- Node28&#45;&gt;Node31 -->
<g id="edge38" class="edge">
<title>Node28&#45;&gt;Node31</title>
<path fill="none" stroke="#63b8ff" d="M968.75,-170.37C965.63,-162.07 960.82,-149.28 956.85,-138.72"/>
<polygon fill="#63b8ff" stroke="#63b8ff" points="960.06,-137.3 953.26,-129.17 953.5,-139.76 960.06,-137.3"/>
</g>
<!-- Node33 -->
<g id="node33" class="node">
<title>Node33</title>
<g id="a_node33"><a xlink:href="untyped__map__diff_8h.html" target="_top" xlink:title=" ">
<polygon fill="white" stroke="#666666" points="1380,-327 1264,-327 1264,-297 1380,-297 1380,-327"/>
<text text-anchor="start" x="1272" y="-315" font-family="Helvetica,sans-Serif" font-size="10.00">ccf/kv/untyped_map</text>
<text text-anchor="middle" x="1322" y="-304" font-family="Helvetica,sans-Serif" font-size="10.00">_diff.h</text>
</a>
</g>
</g>
<!-- Node32&#45;&gt;Node33 -->
<g id="edge40" class="edge">
<title>Node32&#45;&gt;Node33</title>
<path fill="none" stroke="#63b8ff" d="M1318.59,-362.87C1319.05,-356.11 1319.72,-346.35 1320.34,-337.26"/>
<polygon fill="#63b8ff" stroke="#63b8ff" points="1323.84,-337.33 1321.03,-327.11 1316.86,-336.85 1323.84,-337.33"/>
</g>
<!-- Node33&#45;&gt;Node5 -->
<g id="edge51" class="edge">
<title>Node33&#45;&gt;Node5</title>
<path fill="none" stroke="#63b8ff" d="M1263.87,-302.31C1202.03,-292.89 1101.41,-277.03 1015,-261 946.52,-248.3 742.28,-204.81 662.98,-187.85"/>
<polygon fill="#63b8ff" stroke="#63b8ff" points="663.59,-184.4 653.08,-185.73 662.12,-191.25 663.59,-184.4"/>
</g>
<!-- Node33&#45;&gt;Node14 -->
<g id="edge50" class="edge">
<title>Node33&#45;&gt;Node14</title>
<path fill="none" stroke="#63b8ff" d="M1321.68,-296.8C1320.5,-279 1315.8,-248.68 1298,-231 1257.59,-190.86 1229.01,-213.09 1175,-195 1173.14,-194.38 1171.24,-193.72 1169.33,-193.05"/>
<polygon fill="#63b8ff" stroke="#63b8ff" points="1170.41,-189.71 1159.81,-189.57 1168.01,-196.29 1170.41,-189.71"/>
</g>
<!-- Node33&#45;&gt;Node19 -->
<g id="edge42" class="edge">
<title>Node33&#45;&gt;Node19</title>
<path fill="none" stroke="#63b8ff" d="M1316.38,-296.87C1308.15,-278.26 1290.93,-246.12 1265,-231 1198.41,-192.18 996.54,-204.09 920,-195 906.26,-193.37 891.53,-191.49 877.57,-189.64"/>
<polygon fill="#63b8ff" stroke="#63b8ff" points="877.95,-186.16 867.57,-188.31 877.02,-193.1 877.95,-186.16"/>
</g>
<!-- Node33&#45;&gt;Node29 -->
<g id="edge48" class="edge">
<title>Node33&#45;&gt;Node29</title>
<path fill="none" stroke="#63b8ff" d="M1337.09,-296.96C1365.41,-268.96 1420.59,-205.39 1385,-165 1344.75,-119.32 1179.14,-136.06 1101.21,-128.77"/>
<polygon fill="#63b8ff" stroke="#63b8ff" points="1101.6,-125.29 1091.27,-127.63 1100.8,-132.24 1101.6,-125.29"/>
</g>
<!-- Node33&#45;&gt;Node30 -->
<g id="edge49" class="edge">
<title>Node33&#45;&gt;Node30</title>
<path fill="none" stroke="#63b8ff" d="M1372.12,-296.94C1389.78,-289.31 1407.77,-277.87 1418,-261 1440.13,-224.52 1445.66,-197.48 1418,-165 1388.55,-130.42 1254.66,-122.62 1184.77,-120.92"/>
<polygon fill="#63b8ff" stroke="#63b8ff" points="1184.61,-117.42 1174.53,-120.71 1184.46,-124.42 1184.61,-117.42"/>
</g>
<!-- Node34 -->
<g id="node34" class="node">
<title>Node34</title>
<g id="a_node34"><a xlink:href="abstract__handle_8h.html" target="_top" xlink:title=" ">
<polygon fill="white" stroke="#666666" points="1376,-189.5 1240,-189.5 1240,-170.5 1376,-170.5 1376,-189.5"/>
<text text-anchor="middle" x="1308" y="-177.5" font-family="Helvetica,sans-Serif" font-size="10.00">ccf/kv/abstract_handle.h</text>
</a>
</g>
</g>
<!-- Node33&#45;&gt;Node34 -->
<g id="edge41" class="edge">
<title>Node33&#45;&gt;Node34</title>
<path fill="none" stroke="#63b8ff" d="M1328.06,-296.98C1334.18,-280.89 1341.95,-253.78 1336,-231 1332.91,-219.16 1326.33,-207.15 1320.32,-197.88"/>
<polygon fill="#63b8ff" stroke="#63b8ff" points="1323.19,-195.88 1314.65,-189.61 1317.42,-199.84 1323.19,-195.88"/>
</g>
<!-- Node33&#45;&gt;Node35 -->
<g id="edge43" class="edge">
<title>Node33&#45;&gt;Node35</title>
<path fill="none" stroke="#63b8ff" d="M1296.76,-296.95C1277.22,-286.08 1250.32,-271.11 1231.07,-260.4"/>
<polygon fill="#63b8ff" stroke="#63b8ff" points="1232.74,-257.32 1222.3,-255.52 1229.34,-263.44 1232.74,-257.32"/>
</g>
<!-- Node35&#45;&gt;Node14 -->
<g id="edge47" class="edge">
<title>Node35&#45;&gt;Node14</title>
<path fill="none" stroke="#63b8ff" d="M1197.69,-236.37C1186.85,-226.31 1168.7,-209.48 1155.26,-197.01"/>
<polygon fill="#63b8ff" stroke="#63b8ff" points="1157.31,-194.14 1147.6,-189.91 1152.55,-199.27 1157.31,-194.14"/>
</g>
<!-- Node35&#45;&gt;Node19 -->
<g id="edge45" class="edge">
<title>Node35&#45;&gt;Node19</title>
<path fill="none" stroke="#63b8ff" d="M1173.99,-236.5C1165.85,-234.55 1157.13,-232.59 1149,-231 1098.38,-221.12 959.62,-201.21 877.75,-189.72"/>
<polygon fill="#63b8ff" stroke="#63b8ff" points="878.2,-186.25 867.81,-188.33 877.23,-193.18 878.2,-186.25"/>
</g>
<!-- Node35&#45;&gt;Node28 -->
<g id="edge44" class="edge">
<title>Node35&#45;&gt;Node28</title>
<path fill="none" stroke="#63b8ff" d="M1175.31,-236.37C1133.4,-224.96 1059.49,-204.83 1013.27,-192.24"/>
<polygon fill="#63b8ff" stroke="#63b8ff" points="1014.13,-188.85 1003.57,-189.6 1012.29,-195.6 1014.13,-188.85"/>
</g>
<!-- Node36 -->
<g id="node36" class="node">
<title>Node36</title>
<g id="a_node36"><a xlink:title=" ">
<polygon fill="#e0e0e0" stroke="#999999" points="1222,-189.5 1184,-189.5 1184,-170.5 1222,-170.5 1222,-189.5"/>
<text text-anchor="middle" x="1203" y="-177.5" font-family="Helvetica,sans-Serif" font-size="10.00">map</text>
</a>
</g>
</g>
<!-- Node35&#45;&gt;Node36 -->
<g id="edge46" class="edge">
<title>Node35&#45;&gt;Node36</title>
<path fill="none" stroke="#63b8ff" d="M1206.46,-236.37C1205.88,-227.07 1204.94,-211.98 1204.18,-199.9"/>
<polygon fill="#63b8ff" stroke="#63b8ff" points="1207.67,-199.67 1203.56,-189.91 1200.69,-200.1 1207.67,-199.67"/>
</g>
<!-- Node38 -->
<g id="node38" class="node">
<title>Node38</title>
<g id="a_node38"><a xlink:href="untyped__map__handle_8h.html" target="_top" xlink:title=" ">
<polygon fill="white" stroke="#666666" points="1140,-261 1024,-261 1024,-231 1140,-231 1140,-261"/>
<text text-anchor="start" x="1032" y="-249" font-family="Helvetica,sans-Serif" font-size="10.00">ccf/kv/untyped_map</text>
<text text-anchor="middle" x="1082" y="-238" font-family="Helvetica,sans-Serif" font-size="10.00">_handle.h</text>
</a>
</g>
</g>
<!-- Node37&#45;&gt;Node38 -->
<g id="edge53" class="edge">
<title>Node37&#45;&gt;Node38</title>
<path fill="none" stroke="#63b8ff" d="M1144.39,-362.94C1134.24,-344.07 1109.63,-298.34 1094.53,-270.28"/>
<polygon fill="#63b8ff" stroke="#63b8ff" points="1097.44,-268.31 1089.62,-261.16 1091.28,-271.63 1097.44,-268.31"/>
</g>
<!-- Node38&#45;&gt;Node5 -->
<g id="edge59" class="edge">
<title>Node38&#45;&gt;Node5</title>
<path fill="none" stroke="#63b8ff" d="M1023.96,-236.76C928.05,-223.15 739.52,-196.4 663.71,-185.64"/>
<polygon fill="#63b8ff" stroke="#63b8ff" points="663.76,-182.11 653.37,-184.17 662.78,-189.04 663.76,-182.11"/>
</g>
<!-- Node38&#45;&gt;Node14 -->
<g id="edge58" class="edge">
<title>Node38&#45;&gt;Node14</title>
<path fill="none" stroke="#63b8ff" d="M1094.43,-230.8C1103.07,-220.92 1114.62,-207.72 1123.66,-197.39"/>
<polygon fill="#63b8ff" stroke="#63b8ff" points="1126.31,-199.67 1130.26,-189.84 1121.04,-195.07 1126.31,-199.67"/>
</g>
<!-- Node38&#45;&gt;Node19 -->
<g id="edge55" class="edge">
<title>Node38&#45;&gt;Node19</title>
<path fill="none" stroke="#63b8ff" d="M1023.74,-231.03C980.51,-220.67 921.67,-206.57 877.47,-195.97"/>
<polygon fill="#63b8ff" stroke="#63b8ff" points="878.25,-192.56 867.71,-193.63 876.62,-199.37 878.25,-192.56"/>
</g>
<!-- Node38&#45;&gt;Node29 -->
<g id="edge56" class="edge">
<title>Node38&#45;&gt;Node29</title>
<path fill="none" stroke="#63b8ff" d="M1077.64,-230.72C1070.71,-208.02 1057.19,-163.72 1049.57,-138.75"/>
<polygon fill="#63b8ff" stroke="#63b8ff" points="1052.88,-137.61 1046.62,-129.07 1046.19,-139.66 1052.88,-137.61"/>
</g>
<!-- Node38&#45;&gt;Node30 -->
<g id="edge57" class="edge">
<title>Node38&#45;&gt;Node30</title>
<path fill="none" stroke="#63b8ff" d="M1083.17,-230.94C1085.02,-214.34 1089.67,-186.3 1101,-165 1106.7,-154.29 1115.6,-144.18 1123.66,-136.32"/>
<polygon fill="#63b8ff" stroke="#63b8ff" points="1126.32,-138.62 1131.28,-129.26 1121.56,-133.49 1126.32,-138.62"/>
</g>
<!-- Node38&#45;&gt;Node34 -->
<g id="edge54" class="edge">
<title>Node38&#45;&gt;Node34</title>
<path fill="none" stroke="#63b8ff" d="M1131.6,-230.95C1172.63,-219.34 1230.15,-203.05 1268.21,-192.27"/>
<polygon fill="#63b8ff" stroke="#63b8ff" points="1269.26,-195.61 1277.92,-189.52 1267.35,-188.87 1269.26,-195.61"/>
</g>
<!-- Node39&#45;&gt;Node16 -->
<g id="edge63" class="edge">
<title>Node39&#45;&gt;Node16</title>
<path fill="none" stroke="#63b8ff" d="M637.21,-298.36C590.9,-286.59 522.59,-269.25 478.44,-258.03"/>
<polygon fill="#63b8ff" stroke="#63b8ff" points="479.14,-254.6 468.59,-255.53 477.42,-261.38 479.14,-254.6"/>
</g>
<!-- Node39&#45;&gt;Node19 -->
<g id="edge62" class="edge">
<title>Node39&#45;&gt;Node19</title>
<path fill="none" stroke="#63b8ff" d="M700.94,-296.84C723.35,-274.08 767.53,-229.21 793.84,-202.49"/>
<polygon fill="#63b8ff" stroke="#63b8ff" points="796.55,-204.72 801.08,-195.14 791.57,-199.81 796.55,-204.72"/>
</g>
<!-- Node40&#45;&gt;Node18 -->
<g id="edge68" class="edge">
<title>Node40&#45;&gt;Node18</title>
<path fill="none" stroke="#63b8ff" d="M708.18,-364.44C705.42,-363.94 702.66,-363.46 700,-363 599,-345.73 570.42,-347.11 465.56,-327"/>
<polygon fill="#63b8ff" stroke="#63b8ff" points="465.99,-323.52 455.51,-325.06 464.66,-330.39 465.99,-323.52"/>
</g>
<!-- Node40&#45;&gt;Node27 -->
<g id="edge66" class="edge">
<title>Node40&#45;&gt;Node27</title>
<path fill="none" stroke="#63b8ff" d="M713.3,-362.99C675.04,-352.73 610.59,-335.43 568.42,-324.12"/>
<polygon fill="#63b8ff" stroke="#63b8ff" points="569.3,-320.73 558.74,-321.52 567.49,-327.49 569.3,-320.73"/>
</g>
<!-- Node40&#45;&gt;Node28 -->
<g id="edge67" class="edge">
<title>Node40&#45;&gt;Node28</title>
<path fill="none" stroke="#63b8ff" d="M781.53,-371.09C848.39,-369.5 986.33,-361.93 1016,-327 1024.63,-316.84 1020.93,-309.39 1016,-297 1007.87,-276.55 991.39,-280.91 982,-261 972.88,-241.66 971.08,-216.92 971.12,-200.11"/>
<polygon fill="#63b8ff" stroke="#63b8ff" points="974.62,-199.98 971.37,-189.9 967.62,-199.81 974.62,-199.98"/>
</g>
<!-- Node40&#45;&gt;Node35 -->
<g id="edge74" class="edge">
<title>Node40&#45;&gt;Node35</title>
<path fill="none" stroke="#63b8ff" d="M781.74,-370.2C864.85,-366.78 1064.74,-355.72 1125,-327 1155.09,-312.66 1180.92,-282.81 1195.18,-263.91"/>
<polygon fill="#63b8ff" stroke="#63b8ff" points="1198.16,-265.76 1201.21,-255.62 1192.5,-261.64 1198.16,-265.76"/>
</g>
<!-- Node40&#45;&gt;Node39 -->
<g id="edge69" class="edge">
<title>Node40&#45;&gt;Node39</title>
<path fill="none" stroke="#63b8ff" d="M736.44,-362.87C729.01,-355.37 717.93,-344.2 708.14,-334.33"/>
<polygon fill="#63b8ff" stroke="#63b8ff" points="710.52,-331.75 700.99,-327.11 705.55,-336.68 710.52,-331.75"/>
</g>
<!-- Node41 -->
<g id="node41" class="node">
<title>Node41</title>
<g id="a_node41"><a xlink:href="set__handle_8h.html" target="_top" xlink:title=" ">
<polygon fill="white" stroke="#666666" points="1006.5,-321.5 895.5,-321.5 895.5,-302.5 1006.5,-302.5 1006.5,-321.5"/>
<text text-anchor="middle" x="951" y="-309.5" font-family="Helvetica,sans-Serif" font-size="10.00">ccf/kv/set_handle.h</text>
</a>
</g>
</g>
<!-- Node40&#45;&gt;Node41 -->
<g id="edge70" class="edge">
<title>Node40&#45;&gt;Node41</title>
<path fill="none" stroke="#63b8ff" d="M774.95,-362.99C810.96,-352.77 871.5,-335.58 911.35,-324.26"/>
<polygon fill="#63b8ff" stroke="#63b8ff" points="912.35,-327.62 921.01,-321.52 910.43,-320.88 912.35,-327.62"/>
</g>
<!-- Node41&#45;&gt;Node38 -->
<g id="edge73" class="edge">
<title>Node41&#45;&gt;Node38</title>
<path fill="none" stroke="#63b8ff" d="M968.67,-302.37C987.86,-292.99 1019.12,-277.72 1043.94,-265.59"/>
<polygon fill="#63b8ff" stroke="#63b8ff" points="1045.66,-268.65 1053.11,-261.12 1042.59,-262.36 1045.66,-268.65"/>
</g>
<!-- Node42 -->
<g id="node42" class="node">
<title>Node42</title>
<g id="a_node42"><a xlink:href="unit_8h.html" target="_top" xlink:title=" ">
<polygon fill="white" stroke="#666666" points="853.5,-255.5 776.5,-255.5 776.5,-236.5 853.5,-236.5 853.5,-255.5"/>
<text text-anchor="middle" x="815" y="-243.5" font-family="Helvetica,sans-Serif" font-size="10.00">ccf/kv/unit.h</text>
</a>
</g>
</g>
<!-- Node41&#45;&gt;Node42 -->
<g id="edge71" class="edge">
<title>Node41&#45;&gt;Node42</title>
<path fill="none" stroke="#63b8ff" d="M932.66,-302.37C909.54,-291.49 869.59,-272.69 842.73,-260.05"/>
<polygon fill="#63b8ff" stroke="#63b8ff" points="844.02,-256.79 833.49,-255.7 841.04,-263.12 844.02,-256.79"/>
</g>
<!-- Node42&#45;&gt;Node19 -->
<g id="edge72" class="edge">
<title>Node42&#45;&gt;Node19</title>
<path fill="none" stroke="#63b8ff" d="M815,-236.37C815,-228.49 815,-216.45 815,-205.6"/>
<polygon fill="#63b8ff" stroke="#63b8ff" points="818.5,-205.36 815,-195.36 811.5,-205.36 818.5,-205.36"/>
</g>
<!-- Node43&#45;&gt;Node18 -->
<g id="edge78" class="edge">
<title>Node43&#45;&gt;Node18</title>
<path fill="none" stroke="#63b8ff" d="M612.81,-362.99C574.22,-353.66 511.63,-338.53 465.4,-327.36"/>
<polygon fill="#63b8ff" stroke="#63b8ff" points="466.05,-323.92 455.51,-324.97 464.4,-330.72 466.05,-323.92"/>
</g>
<!-- Node43&#45;&gt;Node27 -->
<g id="edge76" class="edge">
<title>Node43&#45;&gt;Node27</title>
<path fill="none" stroke="#63b8ff" d="M630.41,-362.99C610.24,-353.25 576.98,-337.16 553.64,-325.88"/>
<polygon fill="#63b8ff" stroke="#63b8ff" points="555.14,-322.72 544.62,-321.52 552.1,-329.02 555.14,-322.72"/>
</g>
<!-- Node43&#45;&gt;Node28 -->
<g id="edge77" class="edge">
<title>Node43&#45;&gt;Node28</title>
<path fill="none" stroke="#63b8ff" d="M641.54,-362.54C631.77,-347.8 615.73,-317.99 629,-297 660.54,-247.12 830.33,-208 918.6,-190.7"/>
<polygon fill="#63b8ff" stroke="#63b8ff" points="919.28,-194.13 928.44,-188.8 917.95,-187.26 919.28,-194.13"/>
</g>
<!-- Node43&#45;&gt;Node35 -->
<g id="edge80" class="edge">
<title>Node43&#45;&gt;Node35</title>
<path fill="none" stroke="#63b8ff" d="M690.54,-364.37C693.74,-363.89 696.92,-363.43 700,-363 840.01,-343.59 879.22,-362.66 1016,-327 1077.69,-310.92 1145.56,-278.73 1181.45,-260.47"/>
<polygon fill="#63b8ff" stroke="#63b8ff" points="1183.4,-263.4 1190.69,-255.71 1180.2,-257.17 1183.4,-263.4"/>
</g>
<!-- Node43&#45;&gt;Node39 -->
<g id="edge79" class="edge">
<title>Node43&#45;&gt;Node39</title>
<path fill="none" stroke="#63b8ff" d="M653.75,-362.87C658.56,-355.67 665.62,-345.07 672,-335.49"/>
<polygon fill="#63b8ff" stroke="#63b8ff" points="674.96,-337.38 677.59,-327.11 669.13,-333.49 674.96,-337.38"/>
</g>
<!-- Node44 -->
<g id="node44" class="node">
<title>Node44</title>
<g id="a_node44"><a xlink:href="value__handle_8h.html" target="_top" xlink:title=" ">
<polygon fill="white" stroke="#666666" points="877.5,-321.5 754.5,-321.5 754.5,-302.5 877.5,-302.5 877.5,-321.5"/>
<text text-anchor="middle" x="816" y="-309.5" font-family="Helvetica,sans-Serif" font-size="10.00">ccf/kv/value_handle.h</text>
</a>
</g>
</g>
<!-- Node43&#45;&gt;Node44 -->
<g id="edge81" class="edge">
<title>Node43&#45;&gt;Node44</title>
<path fill="none" stroke="#63b8ff" d="M672.43,-362.99C701.29,-352.94 749.5,-336.16 782,-324.84"/>
<polygon fill="#63b8ff" stroke="#63b8ff" points="783.25,-328.11 791.54,-321.52 780.95,-321.5 783.25,-328.11"/>
</g>
<!-- Node44&#45;&gt;Node38 -->
<g id="edge83" class="edge">
<title>Node44&#45;&gt;Node38</title>
<path fill="none" stroke="#63b8ff" d="M851.6,-302.44C893.03,-292.47 962.37,-275.78 1014.18,-263.32"/>
<polygon fill="#63b8ff" stroke="#63b8ff" points="1015.06,-266.71 1023.96,-260.96 1013.42,-259.9 1015.06,-266.71"/>
</g>
<!-- Node44&#45;&gt;Node42 -->
<g id="edge82" class="edge">
<title>Node44&#45;&gt;Node42</title>
<path fill="none" stroke="#63b8ff" d="M815.87,-302.37C815.72,-293.16 815.49,-278.29 815.3,-266.27"/>
<polygon fill="#63b8ff" stroke="#63b8ff" points="818.8,-265.85 815.14,-255.91 811.8,-265.96 818.8,-265.85"/>
</g>
<!-- Node45&#45;&gt;Node3 -->
<g id="edge87" class="edge">
<title>Node45&#45;&gt;Node3</title>
<path fill="none" stroke="#63b8ff" d="M174.07,-472.97C183.67,-459.02 195.01,-437.01 188,-418 183.94,-406.99 175.81,-396.86 168.1,-389.05"/>
<polygon fill="#63b8ff" stroke="#63b8ff" points="170.39,-386.39 160.71,-382.07 165.58,-391.48 170.39,-386.39"/>
</g>
<!-- Node45&#45;&gt;Node6 -->
<g id="edge88" class="edge">
<title>Node45&#45;&gt;Node6</title>
<path fill="none" stroke="#63b8ff" d="M110.98,-474.22C63.27,-459.02 0,-428.5 0,-373.5 0,-373.5 0,-373.5 0,-118.5 0,-68.63 57.38,-37.24 95.61,-21.86"/>
<polygon fill="#63b8ff" stroke="#63b8ff" points="97.26,-24.98 105.34,-18.12 94.75,-18.44 97.26,-24.98"/>
</g>
<!-- Node46 -->
<g id="node46" class="node">
<title>Node46</title>
<g id="a_node46"><a xlink:href="md__type_8h.html" target="_top" xlink:title=" ">
<polygon fill="white" stroke="#666666" points="178.5,-437 59.5,-437 59.5,-418 178.5,-418 178.5,-437"/>
<text text-anchor="middle" x="119" y="-425" font-family="Helvetica,sans-Serif" font-size="10.00">ccf/crypto/md_type.h</text>
</a>
</g>
</g>
<!-- Node45&#45;&gt;Node46 -->
<g id="edge85" class="edge">
<title>Node45&#45;&gt;Node46</title>
<path fill="none" stroke="#63b8ff" d="M152.35,-472.84C146.16,-464.61 138.31,-454.18 131.79,-445.51"/>
<polygon fill="#63b8ff" stroke="#63b8ff" points="134.4,-443.15 125.59,-437.27 128.81,-447.36 134.4,-443.15"/>
</g>
<!-- Node46&#45;&gt;Node3 -->
<g id="edge86" class="edge">
<title>Node46&#45;&gt;Node3</title>
<path fill="none" stroke="#63b8ff" d="M124.12,-417.75C128.36,-410.49 134.53,-399.95 139.78,-390.98"/>
<polygon fill="#63b8ff" stroke="#63b8ff" points="142.95,-392.49 144.98,-382.09 136.91,-388.95 142.95,-392.49"/>
</g>
</g>
</svg>
