<?xml version="1.0" encoding="UTF-8" standalone="no"?>
<!DOCTYPE svg PUBLIC "-//W3C//DTD SVG 1.1//EN"
 "http://www.w3.org/Graphics/SVG/1.1/DTD/svg11.dtd">
<!-- Generated by graphviz version 2.43.0 (0)
 -->
<!-- Title: src/endpoints/grpc/grpc_status.h Pages: 1 -->
<svg width="1316pt" height="665pt"
 viewBox="0.00 0.00 1315.50 665.00" xmlns="http://www.w3.org/2000/svg" xmlns:xlink="http://www.w3.org/1999/xlink">
<g id="graph0" class="graph" transform="scale(1 1) rotate(0) translate(4 661)">
<title>src/endpoints/grpc/grpc_status.h</title>
<!-- Node1 -->
<g id="node1" class="node">
<title>Node1</title>
<g id="a_node1"><a xlink:title=" ">
<polygon fill="#999999" stroke="#666666" points="472,-657 366,-657 366,-627 472,-627 472,-657"/>
<text text-anchor="start" x="374" y="-645" font-family="Helvetica,sans-Serif" font-size="10.00">src/endpoints/grpc</text>
<text text-anchor="middle" x="419" y="-634" font-family="Helvetica,sans-Serif" font-size="10.00">/grpc_status.h</text>
</a>
</g>
</g>
<!-- Node2 -->
<g id="node2" class="node">
<title>Node2</title>
<g id="a_node2"><a xlink:href="status_8h.html" target="_top" xlink:title=" ">
<polygon fill="white" stroke="#666666" points="239,-591 133,-591 133,-561 239,-561 239,-591"/>
<text text-anchor="start" x="141" y="-579" font-family="Helvetica,sans-Serif" font-size="10.00">src/endpoints/grpc</text>
<text text-anchor="middle" x="186" y="-568" font-family="Helvetica,sans-Serif" font-size="10.00">/status.h</text>
</a>
</g>
</g>
<!-- Node1&#45;&gt;Node2 -->
<g id="edge1" class="edge">
<title>Node1&#45;&gt;Node2</title>
<path fill="none" stroke="#63b8ff" d="M358.03,-624.25C320.39,-613.91 272.65,-600.8 237.01,-591.01"/>
<polygon fill="#63b8ff" stroke="#63b8ff" points="357.3,-627.68 367.87,-626.95 359.15,-620.93 357.3,-627.68"/>
</g>
<!-- Node9 -->
<g id="node9" class="node">
<title>Node9</title>
<g id="a_node9"><a xlink:href="frontend_8h.html" target="_top" xlink:title=" ">
<polygon fill="white" stroke="#666666" points="1121.5,-387.5 992.5,-387.5 992.5,-368.5 1121.5,-368.5 1121.5,-387.5"/>
<text text-anchor="middle" x="1057" y="-375.5" font-family="Helvetica,sans-Serif" font-size="10.00">src/node/rpc/frontend.h</text>
</a>
</g>
</g>
<!-- Node1&#45;&gt;Node9 -->
<g id="edge12" class="edge">
<title>Node1&#45;&gt;Node9</title>
<path fill="none" stroke="#63b8ff" d="M481.12,-624.17C578.68,-596.54 772.42,-536.78 925,-459 970.36,-435.88 1021.1,-403.01 1044.25,-387.6"/>
<polygon fill="#63b8ff" stroke="#63b8ff" points="480.09,-620.83 471.41,-626.91 481.99,-627.56 480.09,-620.83"/>
</g>
<!-- Node20 -->
<g id="node20" class="node">
<title>Node20</title>
<g id="a_node20"><a xlink:href="rpc__context__impl_8h.html" target="_top" xlink:title=" ">
<polygon fill="white" stroke="#666666" points="487,-591 351,-591 351,-561 487,-561 487,-591"/>
<text text-anchor="start" x="359" y="-579" font-family="Helvetica,sans-Serif" font-size="10.00">src/node/rpc/rpc_context</text>
<text text-anchor="middle" x="419" y="-568" font-family="Helvetica,sans-Serif" font-size="10.00">_impl.h</text>
</a>
</g>
</g>
<!-- Node1&#45;&gt;Node20 -->
<g id="edge30" class="edge">
<title>Node1&#45;&gt;Node20</title>
<path fill="none" stroke="#63b8ff" d="M419,-616.54C419,-607.96 419,-598.61 419,-591.16"/>
<polygon fill="#63b8ff" stroke="#63b8ff" points="415.5,-616.8 419,-626.8 422.5,-616.8 415.5,-616.8"/>
</g>
<!-- Node3 -->
<g id="node3" class="node">
<title>Node3</title>
<g id="a_node3"><a xlink:href="executor__code__id_8h.html" target="_top" xlink:title=" ">
<polygon fill="white" stroke="#666666" points="383,-459 235,-459 235,-429 383,-429 383,-459"/>
<text text-anchor="start" x="243" y="-447" font-family="Helvetica,sans-Serif" font-size="10.00">src/apps/external_executor</text>
<text text-anchor="middle" x="309" y="-436" font-family="Helvetica,sans-Serif" font-size="10.00">/executor_code_id.h</text>
</a>
</g>
</g>
<!-- Node2&#45;&gt;Node3 -->
<g id="edge2" class="edge">
<title>Node2&#45;&gt;Node3</title>
<path fill="none" stroke="#63b8ff" d="M206.35,-553.49C231.64,-526.76 274.1,-481.89 295.62,-459.14"/>
<polygon fill="#63b8ff" stroke="#63b8ff" points="203.73,-551.17 199.4,-560.84 208.81,-555.98 203.73,-551.17"/>
</g>
<!-- Node6 -->
<g id="node6" class="node">
<title>Node6</title>
<g id="a_node6"><a xlink:href="stream_8h.html" target="_top" xlink:title=" ">
<polygon fill="white" stroke="#666666" points="106,-459 0,-459 0,-429 106,-429 106,-459"/>
<text text-anchor="start" x="8" y="-447" font-family="Helvetica,sans-Serif" font-size="10.00">src/endpoints/grpc</text>
<text text-anchor="middle" x="53" y="-436" font-family="Helvetica,sans-Serif" font-size="10.00">/stream.h</text>
</a>
</g>
</g>
<!-- Node2&#45;&gt;Node6 -->
<g id="edge6" class="edge">
<title>Node2&#45;&gt;Node6</title>
<path fill="none" stroke="#63b8ff" d="M123.25,-562.88C101.3,-555.52 78.53,-543.76 64,-525 49.23,-505.94 49.34,-476.38 51.01,-459.03"/>
<polygon fill="#63b8ff" stroke="#63b8ff" points="122.32,-566.26 132.91,-565.87 124.39,-559.57 122.32,-566.26"/>
</g>
<!-- Node8 -->
<g id="node8" class="node">
<title>Node8</title>
<g id="a_node8"><a xlink:href="types_8h.html" target="_top" xlink:title=" ">
<polygon fill="white" stroke="#666666" points="179,-525 73,-525 73,-495 179,-495 179,-525"/>
<text text-anchor="start" x="81" y="-513" font-family="Helvetica,sans-Serif" font-size="10.00">src/endpoints/grpc</text>
<text text-anchor="middle" x="126" y="-502" font-family="Helvetica,sans-Serif" font-size="10.00">/types.h</text>
</a>
</g>
</g>
<!-- Node2&#45;&gt;Node8 -->
<g id="edge9" class="edge">
<title>Node2&#45;&gt;Node8</title>
<path fill="none" stroke="#63b8ff" d="M165.72,-553.37C156.99,-544.06 147.04,-533.44 139.28,-525.16"/>
<polygon fill="#63b8ff" stroke="#63b8ff" points="163.29,-555.89 172.68,-560.8 168.4,-551.11 163.29,-555.89"/>
</g>
<!-- Node4 -->
<g id="node4" class="node">
<title>Node4</title>
<g id="a_node4"><a xlink:href="executor__auth__policy_8h.html" target="_top" xlink:title=" ">
<polygon fill="white" stroke="#666666" points="391,-393 243,-393 243,-363 391,-363 391,-393"/>
<text text-anchor="start" x="251" y="-381" font-family="Helvetica,sans-Serif" font-size="10.00">src/apps/external_executor</text>
<text text-anchor="middle" x="317" y="-370" font-family="Helvetica,sans-Serif" font-size="10.00">/executor_auth_policy.h</text>
</a>
</g>
</g>
<!-- Node3&#45;&gt;Node4 -->
<g id="edge3" class="edge">
<title>Node3&#45;&gt;Node4</title>
<path fill="none" stroke="#63b8ff" d="M312.02,-418.83C313.1,-410.17 314.29,-400.7 315.23,-393.16"/>
<polygon fill="#63b8ff" stroke="#63b8ff" points="308.54,-418.44 310.78,-428.8 315.49,-419.31 308.54,-418.44"/>
</g>
<!-- Node5 -->
<g id="node5" class="node">
<title>Node5</title>
<g id="a_node5"><a xlink:href="external__executor_8cpp.html" target="_top" xlink:title=" ">
<polygon fill="white" stroke="#666666" points="340,-327 192,-327 192,-297 340,-297 340,-327"/>
<text text-anchor="start" x="200" y="-315" font-family="Helvetica,sans-Serif" font-size="10.00">src/apps/external_executor</text>
<text text-anchor="middle" x="266" y="-304" font-family="Helvetica,sans-Serif" font-size="10.00">/external_executor.cpp</text>
</a>
</g>
</g>
<!-- Node3&#45;&gt;Node5 -->
<g id="edge5" class="edge">
<title>Node3&#45;&gt;Node5</title>
<path fill="none" stroke="#63b8ff" d="M264.99,-423.69C252.73,-416.01 240.89,-405.88 234,-393 222.14,-370.84 239.63,-343.31 253.05,-327.01"/>
<polygon fill="#63b8ff" stroke="#63b8ff" points="263.52,-426.88 273.93,-428.85 267.02,-420.82 263.52,-426.88"/>
</g>
<!-- Node4&#45;&gt;Node5 -->
<g id="edge4" class="edge">
<title>Node4&#45;&gt;Node5</title>
<path fill="none" stroke="#63b8ff" d="M299.32,-354.81C292.01,-345.64 283.75,-335.28 277.29,-327.16"/>
<polygon fill="#63b8ff" stroke="#63b8ff" points="296.71,-357.16 305.68,-362.8 302.19,-352.79 296.71,-357.16"/>
</g>
<!-- Node7 -->
<g id="node7" class="node">
<title>Node7</title>
<g id="a_node7"><a xlink:href="grpc_8h.html" target="_top" xlink:title=" ">
<polygon fill="white" stroke="#666666" points="187,-393 81,-393 81,-363 187,-363 187,-393"/>
<text text-anchor="start" x="89" y="-381" font-family="Helvetica,sans-Serif" font-size="10.00">src/endpoints/grpc</text>
<text text-anchor="middle" x="134" y="-370" font-family="Helvetica,sans-Serif" font-size="10.00">/grpc.h</text>
</a>
</g>
</g>
<!-- Node6&#45;&gt;Node7 -->
<g id="edge7" class="edge">
<title>Node6&#45;&gt;Node7</title>
<path fill="none" stroke="#63b8ff" d="M78.97,-422.48C91.08,-412.91 105.18,-401.77 116.07,-393.16"/>
<polygon fill="#63b8ff" stroke="#63b8ff" points="76.65,-419.85 70.98,-428.8 80.99,-425.34 76.65,-419.85"/>
</g>
<!-- Node7&#45;&gt;Node5 -->
<g id="edge8" class="edge">
<title>Node7&#45;&gt;Node5</title>
<path fill="none" stroke="#63b8ff" d="M172.13,-358.51C192.84,-348.47 218.03,-336.26 237.1,-327.01"/>
<polygon fill="#63b8ff" stroke="#63b8ff" points="170.44,-355.44 162.97,-362.95 173.49,-361.74 170.44,-355.44"/>
</g>
<!-- Node8&#45;&gt;Node6 -->
<g id="edge11" class="edge">
<title>Node8&#45;&gt;Node6</title>
<path fill="none" stroke="#63b8ff" d="M102.28,-488.2C91.44,-478.7 78.88,-467.69 69.16,-459.16"/>
<polygon fill="#63b8ff" stroke="#63b8ff" points="99.97,-490.84 109.8,-494.8 104.59,-485.57 99.97,-490.84"/>
</g>
<!-- Node8&#45;&gt;Node7 -->
<g id="edge10" class="edge">
<title>Node8&#45;&gt;Node7</title>
<path fill="none" stroke="#63b8ff" d="M127.5,-484.68C129.16,-457.7 131.78,-415.11 133.13,-393.14"/>
<polygon fill="#63b8ff" stroke="#63b8ff" points="123.99,-484.64 126.87,-494.84 130.98,-485.07 123.99,-484.64"/>
</g>
<!-- Node10 -->
<g id="node10" class="node">
<title>Node10</title>
<g id="a_node10"><a xlink:href="acme__challenge__frontend_8h.html" target="_top" xlink:title=" ">
<polygon fill="white" stroke="#666666" points="960,-327 820,-327 820,-297 960,-297 960,-327"/>
<text text-anchor="start" x="828" y="-315" font-family="Helvetica,sans-Serif" font-size="10.00">src/node/acme_challenge</text>
<text text-anchor="middle" x="890" y="-304" font-family="Helvetica,sans-Serif" font-size="10.00">_frontend.h</text>
</a>
</g>
</g>
<!-- Node9&#45;&gt;Node10 -->
<g id="edge13" class="edge">
<title>Node9&#45;&gt;Node10</title>
<path fill="none" stroke="#63b8ff" d="M1025.13,-364.79C997.09,-354.04 956.27,-338.4 926.83,-327.12"/>
<polygon fill="#63b8ff" stroke="#63b8ff" points="1023.89,-368.06 1034.48,-368.37 1026.39,-361.52 1023.89,-368.06"/>
</g>
<!-- Node14 -->
<g id="node14" class="node">
<title>Node14</title>
<g id="a_node14"><a xlink:href="node__state_8h.html" target="_top" xlink:title=" ">
<polygon fill="white" stroke="#666666" points="803,-189.5 679,-189.5 679,-170.5 803,-170.5 803,-189.5"/>
<text text-anchor="middle" x="741" y="-177.5" font-family="Helvetica,sans-Serif" font-size="10.00">src/node/node_state.h</text>
</a>
</g>
</g>
<!-- Node9&#45;&gt;Node14 -->
<g id="edge21" class="edge">
<title>Node9&#45;&gt;Node14</title>
<path fill="none" stroke="#63b8ff" d="M1097.38,-364.56C1115.3,-356.8 1134.63,-344.81 1145,-327 1151.71,-315.48 1152.67,-307.9 1145,-297 1105.52,-240.9 906.15,-204.64 803.02,-189.33"/>
<polygon fill="#63b8ff" stroke="#63b8ff" points="1095.63,-361.49 1087.64,-368.44 1098.23,-367.99 1095.63,-361.49"/>
</g>
<!-- Node16 -->
<g id="node16" class="node">
<title>Node16</title>
<g id="a_node16"><a xlink:href="member__frontend_8h.html" target="_top" xlink:title=" ">
<polygon fill="white" stroke="#666666" points="1209,-195 1089,-195 1089,-165 1209,-165 1209,-195"/>
<text text-anchor="start" x="1097" y="-183" font-family="Helvetica,sans-Serif" font-size="10.00">src/node/rpc/member</text>
<text text-anchor="middle" x="1149" y="-172" font-family="Helvetica,sans-Serif" font-size="10.00">_frontend.h</text>
</a>
</g>
</g>
<!-- Node9&#45;&gt;Node16 -->
<g id="edge22" class="edge">
<title>Node9&#45;&gt;Node16</title>
<path fill="none" stroke="#63b8ff" d="M1121.46,-365.49C1143.13,-358.21 1165.07,-346.34 1178,-327 1201.72,-291.53 1189.08,-272.2 1178,-231 1174.51,-218.01 1166.72,-204.92 1160.1,-195.4"/>
<polygon fill="#63b8ff" stroke="#63b8ff" points="1120.42,-362.14 1111.89,-368.42 1122.48,-368.83 1120.42,-362.14"/>
</g>
<!-- Node17 -->
<g id="node17" class="node">
<title>Node17</title>
<g id="a_node17"><a xlink:href="node__frontend_8h.html" target="_top" xlink:title=" ">
<polygon fill="white" stroke="#666666" points="1136,-321.5 978,-321.5 978,-302.5 1136,-302.5 1136,-321.5"/>
<text text-anchor="middle" x="1057" y="-309.5" font-family="Helvetica,sans-Serif" font-size="10.00">src/node/rpc/node_frontend.h</text>
</a>
</g>
</g>
<!-- Node9&#45;&gt;Node17 -->
<g id="edge24" class="edge">
<title>Node9&#45;&gt;Node17</title>
<path fill="none" stroke="#63b8ff" d="M1057,-358.08C1057,-346.13 1057,-331.22 1057,-321.91"/>
<polygon fill="#63b8ff" stroke="#63b8ff" points="1053.5,-358.37 1057,-368.37 1060.5,-358.37 1053.5,-358.37"/>
</g>
<!-- Node19 -->
<g id="node19" class="node">
<title>Node19</title>
<g id="a_node19"><a xlink:href="user__frontend_8h.html" target="_top" xlink:title=" ">
<polygon fill="white" stroke="#666666" points="1307.5,-129 1152.5,-129 1152.5,-110 1307.5,-110 1307.5,-129"/>
<text text-anchor="middle" x="1230" y="-117" font-family="Helvetica,sans-Serif" font-size="10.00">src/node/rpc/user_frontend.h</text>
</a>
</g>
</g>
<!-- Node9&#45;&gt;Node19 -->
<g id="edge28" class="edge">
<title>Node9&#45;&gt;Node19</title>
<path fill="none" stroke="#63b8ff" d="M1131.33,-366.35C1155.97,-359.16 1181.32,-347.13 1198,-327 1248.23,-266.38 1236.3,-160.15 1231.5,-129.2"/>
<polygon fill="#63b8ff" stroke="#63b8ff" points="1130.34,-362.99 1121.58,-368.96 1132.15,-369.75 1130.34,-362.99"/>
</g>
<!-- Node11 -->
<g id="node11" class="node">
<title>Node11</title>
<g id="a_node11"><a xlink:href="src_2enclave_2enclave_8h.html" target="_top" xlink:title=" ">
<polygon fill="white" stroke="#666666" points="1061,-74 939,-74 939,-55 1061,-55 1061,-74"/>
<text text-anchor="middle" x="1000" y="-62" font-family="Helvetica,sans-Serif" font-size="10.00">src/enclave/enclave.h</text>
</a>
</g>
</g>
<!-- Node10&#45;&gt;Node11 -->
<g id="edge14" class="edge">
<title>Node10&#45;&gt;Node11</title>
<path fill="none" stroke="#63b8ff" d="M956.42,-292.67C971.55,-285.31 985.85,-275.09 995,-261 1034.76,-199.78 1011.26,-103.5 1002.72,-74.23"/>
<polygon fill="#63b8ff" stroke="#63b8ff" points="954.64,-289.64 946.93,-296.9 957.48,-296.03 954.64,-289.64"/>
</g>
<!-- Node13 -->
<g id="node13" class="node">
<title>Node13</title>
<g id="a_node13"><a xlink:href="ccf__acme__client_8h.html" target="_top" xlink:title=" ">
<polygon fill="white" stroke="#666666" points="809.5,-255.5 660.5,-255.5 660.5,-236.5 809.5,-236.5 809.5,-255.5"/>
<text text-anchor="middle" x="735" y="-243.5" font-family="Helvetica,sans-Serif" font-size="10.00">src/node/ccf_acme_client.h</text>
</a>
</g>
</g>
<!-- Node10&#45;&gt;Node13 -->
<g id="edge16" class="edge">
<title>Node10&#45;&gt;Node13</title>
<path fill="none" stroke="#63b8ff" d="M846.65,-293.1C816.9,-280.82 778.75,-265.06 755.63,-255.52"/>
<polygon fill="#63b8ff" stroke="#63b8ff" points="845.41,-296.37 855.98,-296.95 848.08,-289.9 845.41,-296.37"/>
</g>
<!-- Node12 -->
<g id="node12" class="node">
<title>Node12</title>
<g id="a_node12"><a xlink:href="enclave_2main_8cpp.html" target="_top" xlink:title=" ">
<polygon fill="white" stroke="#666666" points="1060,-19 940,-19 940,0 1060,0 1060,-19"/>
<text text-anchor="middle" x="1000" y="-7" font-family="Helvetica,sans-Serif" font-size="10.00">src/enclave/main.cpp</text>
</a>
</g>
</g>
<!-- Node11&#45;&gt;Node12 -->
<g id="edge15" class="edge">
<title>Node11&#45;&gt;Node12</title>
<path fill="none" stroke="#63b8ff" d="M1000,-44.66C1000,-35.93 1000,-25.99 1000,-19.09"/>
<polygon fill="#63b8ff" stroke="#63b8ff" points="996.5,-44.75 1000,-54.75 1003.5,-44.75 996.5,-44.75"/>
</g>
<!-- Node13&#45;&gt;Node14 -->
<g id="edge17" class="edge">
<title>Node13&#45;&gt;Node14</title>
<path fill="none" stroke="#63b8ff" d="M736.77,-226.08C737.89,-214.13 739.29,-199.22 740.17,-189.91"/>
<polygon fill="#63b8ff" stroke="#63b8ff" points="733.26,-226.09 735.81,-236.37 740.23,-226.74 733.26,-226.09"/>
</g>
<!-- Node14&#45;&gt;Node11 -->
<g id="edge18" class="edge">
<title>Node14&#45;&gt;Node11</title>
<path fill="none" stroke="#63b8ff" d="M749.88,-161.31C758.82,-145.38 774.13,-122.58 794,-110 837.44,-82.51 895.25,-71.79 938.57,-67.71"/>
<polygon fill="#63b8ff" stroke="#63b8ff" points="746.76,-159.72 745.15,-170.2 752.94,-163.01 746.76,-159.72"/>
</g>
<!-- Node15 -->
<g id="node15" class="node">
<title>Node15</title>
<g id="a_node15"><a xlink:href="gov__effects_8h.html" target="_top" xlink:title=" ">
<polygon fill="white" stroke="#666666" points="947,-129 803,-129 803,-110 947,-110 947,-129"/>
<text text-anchor="middle" x="875" y="-117" font-family="Helvetica,sans-Serif" font-size="10.00">src/node/rpc/gov_effects.h</text>
</a>
</g>
</g>
<!-- Node14&#45;&gt;Node15 -->
<g id="edge19" class="edge">
<title>Node14&#45;&gt;Node15</title>
<path fill="none" stroke="#63b8ff" d="M769.79,-166.43C795.66,-155.14 832.95,-138.86 855.49,-129.02"/>
<polygon fill="#63b8ff" stroke="#63b8ff" points="768.25,-163.28 760.48,-170.49 771.05,-169.7 768.25,-163.28"/>
</g>
<!-- Node15&#45;&gt;Node11 -->
<g id="edge20" class="edge">
<title>Node15&#45;&gt;Node11</title>
<path fill="none" stroke="#63b8ff" d="M904.41,-106.03C927.53,-96.23 959.13,-82.83 979.55,-74.17"/>
<polygon fill="#63b8ff" stroke="#63b8ff" points="902.92,-102.86 895.08,-109.98 905.66,-109.3 902.92,-102.86"/>
</g>
<!-- Node16&#45;&gt;Node11 -->
<g id="edge23" class="edge">
<title>Node16&#45;&gt;Node11</title>
<path fill="none" stroke="#63b8ff" d="M1127,-157.78C1111.81,-143.58 1090.85,-124.84 1071,-110 1052.59,-96.24 1029.86,-82.51 1015.16,-74.02"/>
<polygon fill="#63b8ff" stroke="#63b8ff" points="1124.7,-160.43 1134.38,-164.75 1129.51,-155.34 1124.7,-160.43"/>
</g>
<!-- Node17&#45;&gt;Node11 -->
<g id="edge25" class="edge">
<title>Node17&#45;&gt;Node11</title>
<path fill="none" stroke="#63b8ff" d="M1057.91,-291.98C1058.98,-255.35 1058.07,-173.06 1033,-110 1027.46,-96.06 1016.41,-82.58 1008.63,-74.18"/>
<polygon fill="#63b8ff" stroke="#63b8ff" points="1054.4,-292.06 1057.52,-302.19 1061.4,-292.33 1054.4,-292.06"/>
</g>
<!-- Node18 -->
<g id="node18" class="node">
<title>Node18</title>
<g id="a_node18"><a xlink:href="jwt__key__auto__refresh_8h.html" target="_top" xlink:title=" ">
<polygon fill="white" stroke="#666666" points="952.5,-261 827.5,-261 827.5,-231 952.5,-231 952.5,-261"/>
<text text-anchor="start" x="835.5" y="-249" font-family="Helvetica,sans-Serif" font-size="10.00">src/node/jwt_key_auto</text>
<text text-anchor="middle" x="890" y="-238" font-family="Helvetica,sans-Serif" font-size="10.00">_refresh.h</text>
</a>
</g>
</g>
<!-- Node17&#45;&gt;Node18 -->
<g id="edge26" class="edge">
<title>Node17&#45;&gt;Node18</title>
<path fill="none" stroke="#63b8ff" d="M1025.13,-298.79C997.09,-288.04 956.27,-272.4 926.83,-261.12"/>
<polygon fill="#63b8ff" stroke="#63b8ff" points="1023.89,-302.06 1034.48,-302.37 1026.39,-295.52 1023.89,-302.06"/>
</g>
<!-- Node18&#45;&gt;Node14 -->
<g id="edge27" class="edge">
<title>Node18&#45;&gt;Node14</title>
<path fill="none" stroke="#63b8ff" d="M847.96,-226.94C819.41,-214.68 782.96,-199.02 760.83,-189.52"/>
<polygon fill="#63b8ff" stroke="#63b8ff" points="846.73,-230.22 857.3,-230.95 849.49,-223.79 846.73,-230.22"/>
</g>
<!-- Node19&#45;&gt;Node11 -->
<g id="edge29" class="edge">
<title>Node19&#45;&gt;Node11</title>
<path fill="none" stroke="#63b8ff" d="M1183.09,-107.69C1140,-97.76 1076.97,-83.24 1037.24,-74.08"/>
<polygon fill="#63b8ff" stroke="#63b8ff" points="1182.52,-111.15 1193.05,-109.98 1184.09,-104.33 1182.52,-111.15"/>
</g>
<!-- Node20&#45;&gt;Node5 -->
<g id="edge31" class="edge">
<title>Node20&#45;&gt;Node5</title>
<path fill="none" stroke="#63b8ff" d="M424.42,-550.79C432.47,-508.1 442.46,-418.68 400,-363 385.47,-343.95 362.85,-332.15 340.31,-324.85"/>
<polygon fill="#63b8ff" stroke="#63b8ff" points="420.94,-550.33 422.39,-560.82 427.8,-551.71 420.94,-550.33"/>
</g>
<!-- Node20&#45;&gt;Node7 -->
<g id="edge34" class="edge">
<title>Node20&#45;&gt;Node7</title>
<path fill="none" stroke="#63b8ff" d="M340.91,-558.56C315.1,-550.9 287.1,-540.06 264,-525 208.27,-488.67 161.67,-422.39 142.89,-393.31"/>
<polygon fill="#63b8ff" stroke="#63b8ff" points="340.11,-561.96 350.68,-561.33 342.02,-555.23 340.11,-561.96"/>
</g>
<!-- Node21 -->
<g id="node21" class="node">
<title>Node21</title>
<g id="a_node21"><a xlink:href="js__generic__base_8cpp.html" target="_top" xlink:title=" ">
<polygon fill="white" stroke="#666666" points="391,-525 273,-525 273,-495 391,-495 391,-525"/>
<text text-anchor="start" x="281" y="-513" font-family="Helvetica,sans-Serif" font-size="10.00">src/apps/js_generic</text>
<text text-anchor="middle" x="332" y="-502" font-family="Helvetica,sans-Serif" font-size="10.00">/js_generic_base.cpp</text>
</a>
</g>
</g>
<!-- Node20&#45;&gt;Node21 -->
<g id="edge32" class="edge">
<title>Node20&#45;&gt;Node21</title>
<path fill="none" stroke="#63b8ff" d="M391.48,-554.75C378.39,-545.13 363.07,-533.86 351.25,-525.16"/>
<polygon fill="#63b8ff" stroke="#63b8ff" points="389.56,-557.69 399.69,-560.8 393.71,-552.05 389.56,-557.69"/>
</g>
<!-- Node22 -->
<g id="node22" class="node">
<title>Node22</title>
<g id="a_node22"><a xlink:href="endpoint__registry_8cpp.html" target="_top" xlink:title=" ">
<polygon fill="white" stroke="#666666" points="575,-525 447,-525 447,-495 575,-495 575,-525"/>
<text text-anchor="start" x="455" y="-513" font-family="Helvetica,sans-Serif" font-size="10.00">src/endpoints/endpoint</text>
<text text-anchor="middle" x="511" y="-502" font-family="Helvetica,sans-Serif" font-size="10.00">_registry.cpp</text>
</a>
</g>
</g>
<!-- Node20&#45;&gt;Node22 -->
<g id="edge33" class="edge">
<title>Node20&#45;&gt;Node22</title>
<path fill="none" stroke="#63b8ff" d="M447.71,-555.03C461.63,-545.34 478.03,-533.94 490.64,-525.16"/>
<polygon fill="#63b8ff" stroke="#63b8ff" points="445.63,-552.21 439.42,-560.8 449.63,-557.96 445.63,-552.21"/>
</g>
<!-- Node23 -->
<g id="node23" class="node">
<title>Node23</title>
<g id="a_node23"><a xlink:href="http__rpc__context_8h.html" target="_top" xlink:title=" ">
<polygon fill="white" stroke="#666666" points="759.5,-519.5 612.5,-519.5 612.5,-500.5 759.5,-500.5 759.5,-519.5"/>
<text text-anchor="middle" x="686" y="-507.5" font-family="Helvetica,sans-Serif" font-size="10.00">src/http/http_rpc_context.h</text>
</a>
</g>
</g>
<!-- Node20&#45;&gt;Node23 -->
<g id="edge35" class="edge">
<title>Node20&#45;&gt;Node23</title>
<path fill="none" stroke="#63b8ff" d="M487.43,-558.6C539.48,-546.12 609,-529.46 650.47,-519.52"/>
<polygon fill="#63b8ff" stroke="#63b8ff" points="486.5,-555.22 477.59,-560.95 488.13,-562.03 486.5,-555.22"/>
</g>
<!-- Node23&#45;&gt;Node18 -->
<g id="edge49" class="edge">
<title>Node23&#45;&gt;Node18</title>
<path fill="none" stroke="#63b8ff" d="M693.51,-490.72C714.14,-440.63 770.64,-304.44 778,-297 794.4,-280.43 817.26,-268.88 838.06,-261.1"/>
<polygon fill="#63b8ff" stroke="#63b8ff" points="690.15,-489.69 689.58,-500.26 696.62,-492.35 690.15,-489.69"/>
</g>
<!-- Node24 -->
<g id="node24" class="node">
<title>Node24</title>
<g id="a_node24"><a xlink:href="http2__parser_8h.html" target="_top" xlink:title=" ">
<polygon fill="white" stroke="#666666" points="677,-453.5 551,-453.5 551,-434.5 677,-434.5 677,-453.5"/>
<text text-anchor="middle" x="614" y="-441.5" font-family="Helvetica,sans-Serif" font-size="10.00">src/http/http2_parser.h</text>
</a>
</g>
</g>
<!-- Node23&#45;&gt;Node24 -->
<g id="edge36" class="edge">
<title>Node23&#45;&gt;Node24</title>
<path fill="none" stroke="#63b8ff" d="M668.76,-493.68C654.79,-481.26 635.58,-464.18 624.02,-453.91"/>
<polygon fill="#63b8ff" stroke="#63b8ff" points="666.49,-496.34 676.29,-500.37 671.14,-491.11 666.49,-496.34"/>
</g>
<!-- Node25 -->
<g id="node25" class="node">
<title>Node25</title>
<g id="a_node25"><a xlink:href="http2__session_8h.html" target="_top" xlink:title=" ">
<polygon fill="white" stroke="#666666" points="725.5,-387.5 592.5,-387.5 592.5,-368.5 725.5,-368.5 725.5,-387.5"/>
<text text-anchor="middle" x="659" y="-375.5" font-family="Helvetica,sans-Serif" font-size="10.00">src/http/http2_session.h</text>
</a>
</g>
</g>
<!-- Node23&#45;&gt;Node25 -->
<g id="edge46" class="edge">
<title>Node23&#45;&gt;Node25</title>
<path fill="none" stroke="#63b8ff" d="M688.58,-490.02C690.21,-473.6 691.15,-449.37 686,-429 682.04,-413.31 672.07,-397.21 665.42,-387.65"/>
<polygon fill="#63b8ff" stroke="#63b8ff" points="685.05,-490.08 687.35,-500.42 692,-490.9 685.05,-490.08"/>
</g>
<!-- Node29 -->
<g id="node29" class="node">
<title>Node29</title>
<g id="a_node29"><a xlink:href="http__session_8h.html" target="_top" xlink:title=" ">
<polygon fill="white" stroke="#666666" points="574.5,-387.5 447.5,-387.5 447.5,-368.5 574.5,-368.5 574.5,-387.5"/>
<text text-anchor="middle" x="511" y="-375.5" font-family="Helvetica,sans-Serif" font-size="10.00">src/http/http_session.h</text>
</a>
</g>
</g>
<!-- Node23&#45;&gt;Node29 -->
<g id="edge47" class="edge">
<title>Node23&#45;&gt;Node29</title>
<path fill="none" stroke="#63b8ff" d="M617.04,-497.86C590.79,-490.59 562.35,-478.64 542,-459 521.42,-439.14 514.27,-404.07 511.99,-387.78"/>
<polygon fill="#63b8ff" stroke="#63b8ff" points="616.41,-501.31 626.96,-500.42 618.16,-494.53 616.41,-501.31"/>
</g>
<!-- Node30 -->
<g id="node30" class="node">
<title>Node30</title>
<g id="a_node30"><a xlink:href="forwarder_8h.html" target="_top" xlink:title=" ">
<polygon fill="white" stroke="#666666" points="916,-453.5 782,-453.5 782,-434.5 916,-434.5 916,-453.5"/>
<text text-anchor="middle" x="849" y="-441.5" font-family="Helvetica,sans-Serif" font-size="10.00">src/node/rpc/forwarder.h</text>
</a>
</g>
</g>
<!-- Node23&#45;&gt;Node30 -->
<g id="edge50" class="edge">
<title>Node23&#45;&gt;Node30</title>
<path fill="none" stroke="#63b8ff" d="M717.39,-496.68C749.6,-484.03 798.88,-464.68 827.11,-453.6"/>
<polygon fill="#63b8ff" stroke="#63b8ff" points="716.01,-493.46 707.98,-500.37 718.57,-499.97 716.01,-493.46"/>
</g>
<!-- Node24&#45;&gt;Node25 -->
<g id="edge37" class="edge">
<title>Node24&#45;&gt;Node25</title>
<path fill="none" stroke="#63b8ff" d="M626.02,-425.91C634.62,-413.68 645.85,-397.7 652.74,-387.91"/>
<polygon fill="#63b8ff" stroke="#63b8ff" points="622.96,-424.18 620.07,-434.37 628.68,-428.2 622.96,-424.18"/>
</g>
<!-- Node26 -->
<g id="node26" class="node">
<title>Node26</title>
<g id="a_node26"><a xlink:href="rpc__sessions_8h.html" target="_top" xlink:title=" ">
<polygon fill="white" stroke="#666666" points="584,-321.5 438,-321.5 438,-302.5 584,-302.5 584,-321.5"/>
<text text-anchor="middle" x="511" y="-309.5" font-family="Helvetica,sans-Serif" font-size="10.00">src/enclave/rpc_sessions.h</text>
</a>
</g>
</g>
<!-- Node25&#45;&gt;Node26 -->
<g id="edge38" class="edge">
<title>Node25&#45;&gt;Node26</title>
<path fill="none" stroke="#63b8ff" d="M629.77,-364.36C600.6,-351.75 556.57,-332.71 531.12,-321.7"/>
<polygon fill="#63b8ff" stroke="#63b8ff" points="628.47,-367.61 639.04,-368.37 631.25,-361.19 628.47,-367.61"/>
</g>
<!-- Node26&#45;&gt;Node11 -->
<g id="edge39" class="edge">
<title>Node26&#45;&gt;Node11</title>
<path fill="none" stroke="#63b8ff" d="M427.65,-303.43C363.22,-294.15 290.12,-273.99 323,-231 398.3,-132.55 786.67,-85.68 938.79,-70.89"/>
<polygon fill="#63b8ff" stroke="#63b8ff" points="427.52,-306.94 437.9,-304.83 428.47,-300.01 427.52,-306.94"/>
</g>
<!-- Node26&#45;&gt;Node13 -->
<g id="edge40" class="edge">
<title>Node26&#45;&gt;Node13</title>
<path fill="none" stroke="#63b8ff" d="M551.03,-299.56C595.17,-286.95 665.2,-266.94 704.91,-255.6"/>
<polygon fill="#63b8ff" stroke="#63b8ff" points="549.86,-296.26 541.21,-302.37 551.79,-302.99 549.86,-296.26"/>
</g>
<!-- Node26&#45;&gt;Node14 -->
<g id="edge41" class="edge">
<title>Node26&#45;&gt;Node14</title>
<path fill="none" stroke="#63b8ff" d="M429.05,-300.74C368.35,-289.87 301.51,-268.87 335,-231 357.38,-205.7 570.73,-190.39 678.84,-184.19"/>
<polygon fill="#63b8ff" stroke="#63b8ff" points="428.67,-304.23 439.12,-302.47 429.85,-297.33 428.67,-304.23"/>
</g>
<!-- Node27 -->
<g id="node27" class="node">
<title>Node27</title>
<g id="a_node27"><a xlink:href="quote__endorsements__client_8h.html" target="_top" xlink:title=" ">
<polygon fill="white" stroke="#666666" points="508,-261 344,-261 344,-231 508,-231 508,-261"/>
<text text-anchor="start" x="352" y="-249" font-family="Helvetica,sans-Serif" font-size="10.00">src/node/quote_endorsements</text>
<text text-anchor="middle" x="426" y="-238" font-family="Helvetica,sans-Serif" font-size="10.00">_client.h</text>
</a>
</g>
</g>
<!-- Node26&#45;&gt;Node27 -->
<g id="edge42" class="edge">
<title>Node26&#45;&gt;Node27</title>
<path fill="none" stroke="#63b8ff" d="M491.5,-296.32C477.45,-285.74 458.62,-271.56 444.75,-261.12"/>
<polygon fill="#63b8ff" stroke="#63b8ff" points="489.44,-299.15 499.54,-302.37 493.65,-293.56 489.44,-299.15"/>
</g>
<!-- Node28 -->
<g id="node28" class="node">
<title>Node28</title>
<g id="a_node28"><a xlink:href="resharing_8h.html" target="_top" xlink:title=" ">
<polygon fill="white" stroke="#666666" points="642,-255.5 526,-255.5 526,-236.5 642,-236.5 642,-255.5"/>
<text text-anchor="middle" x="584" y="-243.5" font-family="Helvetica,sans-Serif" font-size="10.00">src/node/resharing.h</text>
</a>
</g>
</g>
<!-- Node26&#45;&gt;Node28 -->
<g id="edge44" class="edge">
<title>Node26&#45;&gt;Node28</title>
<path fill="none" stroke="#63b8ff" d="M528.48,-295.68C542.64,-283.26 562.12,-266.18 573.84,-255.91"/>
<polygon fill="#63b8ff" stroke="#63b8ff" points="526.06,-293.14 520.85,-302.37 530.67,-298.41 526.06,-293.14"/>
</g>
<!-- Node27&#45;&gt;Node14 -->
<g id="edge43" class="edge">
<title>Node27&#45;&gt;Node14</title>
<path fill="none" stroke="#63b8ff" d="M505.2,-228.91C566.77,-216.4 649.75,-199.54 699.08,-189.52"/>
<polygon fill="#63b8ff" stroke="#63b8ff" points="504.23,-225.53 495.13,-230.95 505.62,-232.39 504.23,-225.53"/>
</g>
<!-- Node28&#45;&gt;Node14 -->
<g id="edge45" class="edge">
<title>Node28&#45;&gt;Node14</title>
<path fill="none" stroke="#63b8ff" d="M614.64,-232.51C645.67,-219.86 692.84,-200.63 719.91,-189.6"/>
<polygon fill="#63b8ff" stroke="#63b8ff" points="613.11,-229.35 605.17,-236.37 615.76,-235.83 613.11,-229.35"/>
</g>
<!-- Node29&#45;&gt;Node26 -->
<g id="edge48" class="edge">
<title>Node29&#45;&gt;Node26</title>
<path fill="none" stroke="#63b8ff" d="M511,-358.08C511,-346.13 511,-331.22 511,-321.91"/>
<polygon fill="#63b8ff" stroke="#63b8ff" points="507.5,-358.37 511,-368.37 514.5,-358.37 507.5,-358.37"/>
</g>
<!-- Node30&#45;&gt;Node9 -->
<g id="edge52" class="edge">
<title>Node30&#45;&gt;Node9</title>
<path fill="none" stroke="#63b8ff" d="M886.69,-431.4C927.71,-418.78 992.34,-398.89 1029.06,-387.6"/>
<polygon fill="#63b8ff" stroke="#63b8ff" points="885.58,-428.08 877.05,-434.37 887.64,-434.77 885.58,-428.08"/>
</g>
<!-- Node30&#45;&gt;Node11 -->
<g id="edge51" class="edge">
<title>Node30&#45;&gt;Node11</title>
<path fill="none" stroke="#63b8ff" d="M836.12,-426.03C815.52,-396.66 780.42,-335.79 811,-297 853.45,-243.16 913.47,-310.41 961,-261 1012.83,-207.13 1004.96,-104.99 1001.24,-74.38"/>
<polygon fill="#63b8ff" stroke="#63b8ff" points="833.49,-428.36 842.2,-434.39 839.15,-424.24 833.49,-428.36"/>
</g>
</g>
</svg>
