<?xml version="1.0" encoding="UTF-8" standalone="no"?>
<!DOCTYPE svg PUBLIC "-//W3C//DTD SVG 1.1//EN"
 "http://www.w3.org/Graphics/SVG/1.1/DTD/svg11.dtd">
<!-- Generated by graphviz version 2.43.0 (0)
 -->
<!-- Title: src/http/http_sig.h Pages: 1 -->
<svg width="1263pt" height="577pt"
 viewBox="0.00 0.00 1262.87 577.00" xmlns="http://www.w3.org/2000/svg" xmlns:xlink="http://www.w3.org/1999/xlink">
<g id="graph0" class="graph" transform="scale(1 1) rotate(0) translate(4 573)">
<title>src/http/http_sig.h</title>
<!-- Node1 -->
<g id="node1" class="node">
<title>Node1</title>
<g id="a_node1"><a xlink:title=" ">
<polygon fill="#999999" stroke="#666666" points="647,-569 543,-569 543,-550 647,-550 647,-569"/>
<text text-anchor="middle" x="595" y="-557" font-family="Helvetica,sans-Serif" font-size="10.00">src/http/http_sig.h</text>
</a>
</g>
</g>
<!-- Node2 -->
<g id="node2" class="node">
<title>Node2</title>
<g id="a_node2"><a xlink:href="rpc__tls__client_8h.html" target="_top" xlink:title=" ">
<polygon fill="white" stroke="#666666" points="345.5,-514 244.5,-514 244.5,-484 345.5,-484 345.5,-514"/>
<text text-anchor="start" x="252.5" y="-502" font-family="Helvetica,sans-Serif" font-size="10.00">src/clients/rpc_tls</text>
<text text-anchor="middle" x="295" y="-491" font-family="Helvetica,sans-Serif" font-size="10.00">_client.h</text>
</a>
</g>
</g>
<!-- Node1&#45;&gt;Node2 -->
<g id="edge1" class="edge">
<title>Node1&#45;&gt;Node2</title>
<path fill="none" stroke="#63b8ff" d="M541.4,-548.05C485.96,-537.24 400.04,-520.48 345.7,-509.89"/>
<polygon fill="#63b8ff" stroke="#63b8ff" points="540.89,-551.51 551.38,-549.99 542.23,-544.64 540.89,-551.51"/>
</g>
<!-- Node7 -->
<g id="node7" class="node">
<title>Node7</title>
<g id="a_node7"><a xlink:href="cose__auth_8cpp.html" target="_top" xlink:title=" ">
<polygon fill="white" stroke="#666666" points="586.5,-514 431.5,-514 431.5,-484 586.5,-484 586.5,-514"/>
<text text-anchor="start" x="439.5" y="-502" font-family="Helvetica,sans-Serif" font-size="10.00">src/endpoints/authentication</text>
<text text-anchor="middle" x="509" y="-491" font-family="Helvetica,sans-Serif" font-size="10.00">/cose_auth.cpp</text>
</a>
</g>
</g>
<!-- Node1&#45;&gt;Node7 -->
<g id="edge7" class="edge">
<title>Node1&#45;&gt;Node7</title>
<path fill="none" stroke="#63b8ff" d="M573.73,-544.03C560.31,-534.9 543.07,-523.17 529.75,-514.11"/>
<polygon fill="#63b8ff" stroke="#63b8ff" points="572.07,-547.14 582.31,-549.87 576.01,-541.35 572.07,-547.14"/>
</g>
<!-- Node8 -->
<g id="node8" class="node">
<title>Node8</title>
<g id="a_node8"><a xlink:href="sig__auth_8cpp.html" target="_top" xlink:title=" ">
<polygon fill="white" stroke="#666666" points="759.5,-514 604.5,-514 604.5,-484 759.5,-484 759.5,-514"/>
<text text-anchor="start" x="612.5" y="-502" font-family="Helvetica,sans-Serif" font-size="10.00">src/endpoints/authentication</text>
<text text-anchor="middle" x="682" y="-491" font-family="Helvetica,sans-Serif" font-size="10.00">/sig_auth.cpp</text>
</a>
</g>
</g>
<!-- Node1&#45;&gt;Node8 -->
<g id="edge8" class="edge">
<title>Node1&#45;&gt;Node8</title>
<path fill="none" stroke="#63b8ff" d="M616.52,-544.03C630.09,-534.9 647.54,-523.17 661.01,-514.11"/>
<polygon fill="#63b8ff" stroke="#63b8ff" points="614.18,-541.38 607.84,-549.87 618.09,-547.19 614.18,-541.38"/>
</g>
<!-- Node9 -->
<g id="node9" class="node">
<title>Node9</title>
<g id="a_node9"><a xlink:href="http__rpc__context_8h.html" target="_top" xlink:title=" ">
<polygon fill="white" stroke="#666666" points="993.5,-508.5 846.5,-508.5 846.5,-489.5 993.5,-489.5 993.5,-508.5"/>
<text text-anchor="middle" x="920" y="-496.5" font-family="Helvetica,sans-Serif" font-size="10.00">src/http/http_rpc_context.h</text>
</a>
</g>
</g>
<!-- Node1&#45;&gt;Node9 -->
<g id="edge9" class="edge">
<title>Node1&#45;&gt;Node9</title>
<path fill="none" stroke="#63b8ff" d="M652.37,-548.17C715.05,-536.89 814.29,-519.03 872.69,-508.52"/>
<polygon fill="#63b8ff" stroke="#63b8ff" points="651.48,-544.78 642.26,-549.99 652.72,-551.67 651.48,-544.78"/>
</g>
<!-- Node3 -->
<g id="node3" class="node">
<title>Node3</title>
<g id="a_node3"><a xlink:href="perf__client_8h.html" target="_top" xlink:title=" ">
<polygon fill="white" stroke="#666666" points="256.5,-393 145.5,-393 145.5,-363 256.5,-363 256.5,-393"/>
<text text-anchor="start" x="153.5" y="-381" font-family="Helvetica,sans-Serif" font-size="10.00">src/clients/perf/perf</text>
<text text-anchor="middle" x="201" y="-370" font-family="Helvetica,sans-Serif" font-size="10.00">_client.h</text>
</a>
</g>
</g>
<!-- Node2&#45;&gt;Node3 -->
<g id="edge2" class="edge">
<title>Node2&#45;&gt;Node3</title>
<path fill="none" stroke="#63b8ff" d="M255.26,-478.85C242.38,-470.91 229.09,-460.57 220,-448 208.14,-431.58 203.68,-408.1 202,-393.2"/>
<polygon fill="#63b8ff" stroke="#63b8ff" points="253.65,-481.96 264.06,-483.96 257.17,-475.91 253.65,-481.96"/>
</g>
<!-- Node6 -->
<g id="node6" class="node">
<title>Node6</title>
<g id="a_node6"><a xlink:href="timing_8h.html" target="_top" xlink:title=" ">
<polygon fill="white" stroke="#666666" points="361,-448 229,-448 229,-429 361,-429 361,-448"/>
<text text-anchor="middle" x="295" y="-436" font-family="Helvetica,sans-Serif" font-size="10.00">src/clients/perf/timing.h</text>
</a>
</g>
</g>
<!-- Node2&#45;&gt;Node6 -->
<g id="edge5" class="edge">
<title>Node2&#45;&gt;Node6</title>
<path fill="none" stroke="#63b8ff" d="M295,-473.75C295,-464.72 295,-455.03 295,-448.27"/>
<polygon fill="#63b8ff" stroke="#63b8ff" points="291.5,-473.84 295,-483.84 298.5,-473.84 291.5,-473.84"/>
</g>
<!-- Node4 -->
<g id="node4" class="node">
<title>Node4</title>
<g id="a_node4"><a xlink:href="tpcc__client_8cpp.html" target="_top" xlink:title=" ">
<polygon fill="white" stroke="#666666" points="116,-327 0,-327 0,-297 116,-297 116,-327"/>
<text text-anchor="start" x="8" y="-315" font-family="Helvetica,sans-Serif" font-size="10.00">src/apps/tpcc/clients</text>
<text text-anchor="middle" x="58" y="-304" font-family="Helvetica,sans-Serif" font-size="10.00">/tpcc_client.cpp</text>
</a>
</g>
</g>
<!-- Node3&#45;&gt;Node4 -->
<g id="edge3" class="edge">
<title>Node3&#45;&gt;Node4</title>
<path fill="none" stroke="#63b8ff" d="M160.3,-358.78C137.75,-348.69 110.16,-336.34 89.31,-327.01"/>
<polygon fill="#63b8ff" stroke="#63b8ff" points="159.06,-362.06 169.62,-362.95 161.92,-355.68 159.06,-362.06"/>
</g>
<!-- Node5 -->
<g id="node5" class="node">
<title>Node5</title>
<g id="a_node5"><a xlink:href="scenario__perf__client_8cpp.html" target="_top" xlink:title=" ">
<polygon fill="white" stroke="#666666" points="267.5,-327 134.5,-327 134.5,-297 267.5,-297 267.5,-327"/>
<text text-anchor="start" x="142.5" y="-315" font-family="Helvetica,sans-Serif" font-size="10.00">src/clients/perf/scenario</text>
<text text-anchor="middle" x="201" y="-304" font-family="Helvetica,sans-Serif" font-size="10.00">_perf_client.cpp</text>
</a>
</g>
</g>
<!-- Node3&#45;&gt;Node5 -->
<g id="edge4" class="edge">
<title>Node3&#45;&gt;Node5</title>
<path fill="none" stroke="#63b8ff" d="M201,-352.54C201,-343.96 201,-334.61 201,-327.16"/>
<polygon fill="#63b8ff" stroke="#63b8ff" points="197.5,-352.8 201,-362.8 204.5,-352.8 197.5,-352.8"/>
</g>
<!-- Node6&#45;&gt;Node3 -->
<g id="edge6" class="edge">
<title>Node6&#45;&gt;Node3</title>
<path fill="none" stroke="#63b8ff" d="M272.59,-423.55C257.81,-414.36 238.51,-402.35 223.68,-393.11"/>
<polygon fill="#63b8ff" stroke="#63b8ff" points="270.79,-426.56 281.13,-428.87 274.49,-420.61 270.79,-426.56"/>
</g>
<!-- Node10 -->
<g id="node10" class="node">
<title>Node10</title>
<g id="a_node10"><a xlink:href="http2__parser_8h.html" target="_top" xlink:title=" ">
<polygon fill="white" stroke="#666666" points="1093,-448 967,-448 967,-429 1093,-429 1093,-448"/>
<text text-anchor="middle" x="1030" y="-436" font-family="Helvetica,sans-Serif" font-size="10.00">src/http/http2_parser.h</text>
</a>
</g>
</g>
<!-- Node9&#45;&gt;Node10 -->
<g id="edge10" class="edge">
<title>Node9&#45;&gt;Node10</title>
<path fill="none" stroke="#63b8ff" d="M945.24,-484.58C966.28,-473.38 995.64,-457.77 1013.7,-448.17"/>
<polygon fill="#63b8ff" stroke="#63b8ff" points="943.42,-481.58 936.23,-489.37 946.7,-487.76 943.42,-481.58"/>
</g>
<!-- Node11 -->
<g id="node11" class="node">
<title>Node11</title>
<g id="a_node11"><a xlink:href="http2__session_8h.html" target="_top" xlink:title=" ">
<polygon fill="white" stroke="#666666" points="1072.5,-387.5 939.5,-387.5 939.5,-368.5 1072.5,-368.5 1072.5,-387.5"/>
<text text-anchor="middle" x="1006" y="-375.5" font-family="Helvetica,sans-Serif" font-size="10.00">src/http/http2_session.h</text>
</a>
</g>
</g>
<!-- Node9&#45;&gt;Node11 -->
<g id="edge25" class="edge">
<title>Node9&#45;&gt;Node11</title>
<path fill="none" stroke="#63b8ff" d="M928.4,-479.77C935.41,-465.39 946.13,-445.13 958,-429 969.69,-413.1 986.1,-397.05 996.39,-387.57"/>
<polygon fill="#63b8ff" stroke="#63b8ff" points="925.12,-478.53 923.99,-489.06 931.44,-481.53 925.12,-478.53"/>
</g>
<!-- Node20 -->
<g id="node20" class="node">
<title>Node20</title>
<g id="a_node20"><a xlink:href="http__session_8h.html" target="_top" xlink:title=" ">
<polygon fill="white" stroke="#666666" points="1217.5,-387.5 1090.5,-387.5 1090.5,-368.5 1217.5,-368.5 1217.5,-387.5"/>
<text text-anchor="middle" x="1154" y="-375.5" font-family="Helvetica,sans-Serif" font-size="10.00">src/http/http_session.h</text>
</a>
</g>
</g>
<!-- Node9&#45;&gt;Node20 -->
<g id="edge26" class="edge">
<title>Node9&#45;&gt;Node20</title>
<path fill="none" stroke="#63b8ff" d="M1001.7,-487.36C1034.93,-480.15 1072.4,-468.1 1102,-448 1125.33,-432.16 1142.44,-402.37 1149.88,-387.67"/>
<polygon fill="#63b8ff" stroke="#63b8ff" points="1000.63,-484.01 991.53,-489.45 1002.03,-490.87 1000.63,-484.01"/>
</g>
<!-- Node21 -->
<g id="node21" class="node">
<title>Node21</title>
<g id="a_node21"><a xlink:href="jwt__key__auto__refresh_8h.html" target="_top" xlink:title=" ">
<polygon fill="white" stroke="#666666" points="739.5,-261 614.5,-261 614.5,-231 739.5,-231 739.5,-261"/>
<text text-anchor="start" x="622.5" y="-249" font-family="Helvetica,sans-Serif" font-size="10.00">src/node/jwt_key_auto</text>
<text text-anchor="middle" x="677" y="-238" font-family="Helvetica,sans-Serif" font-size="10.00">_refresh.h</text>
</a>
</g>
</g>
<!-- Node9&#45;&gt;Node21 -->
<g id="edge28" class="edge">
<title>Node9&#45;&gt;Node21</title>
<path fill="none" stroke="#63b8ff" d="M922.52,-479.28C926.68,-439.89 930.28,-347.88 882,-297 876.96,-291.69 798.14,-273.48 739.74,-260.58"/>
<polygon fill="#63b8ff" stroke="#63b8ff" points="919.03,-478.97 921.32,-489.32 925.98,-479.81 919.03,-478.97"/>
</g>
<!-- Node22 -->
<g id="node22" class="node">
<title>Node22</title>
<g id="a_node22"><a xlink:href="forwarder_8h.html" target="_top" xlink:title=" ">
<polygon fill="white" stroke="#666666" points="596,-448 462,-448 462,-429 596,-429 596,-448"/>
<text text-anchor="middle" x="529" y="-436" font-family="Helvetica,sans-Serif" font-size="10.00">src/node/rpc/forwarder.h</text>
</a>
</g>
</g>
<!-- Node9&#45;&gt;Node22 -->
<g id="edge30" class="edge">
<title>Node9&#45;&gt;Node22</title>
<path fill="none" stroke="#63b8ff" d="M852.83,-487.95C777.54,-476.69 656.76,-458.61 585.92,-448.02"/>
<polygon fill="#63b8ff" stroke="#63b8ff" points="852.74,-491.48 863.15,-489.49 853.77,-484.55 852.74,-491.48"/>
</g>
<!-- Node10&#45;&gt;Node11 -->
<g id="edge11" class="edge">
<title>Node10&#45;&gt;Node11</title>
<path fill="none" stroke="#63b8ff" d="M1022.54,-419.32C1018.22,-408.78 1012.96,-395.98 1009.56,-387.67"/>
<polygon fill="#63b8ff" stroke="#63b8ff" points="1019.43,-420.94 1026.46,-428.87 1025.9,-418.29 1019.43,-420.94"/>
</g>
<!-- Node12 -->
<g id="node12" class="node">
<title>Node12</title>
<g id="a_node12"><a xlink:href="rpc__sessions_8h.html" target="_top" xlink:title=" ">
<polygon fill="white" stroke="#666666" points="1227,-321.5 1081,-321.5 1081,-302.5 1227,-302.5 1227,-321.5"/>
<text text-anchor="middle" x="1154" y="-309.5" font-family="Helvetica,sans-Serif" font-size="10.00">src/enclave/rpc_sessions.h</text>
</a>
</g>
</g>
<!-- Node11&#45;&gt;Node12 -->
<g id="edge12" class="edge">
<title>Node11&#45;&gt;Node12</title>
<path fill="none" stroke="#63b8ff" d="M1035.23,-364.36C1064.4,-351.75 1108.43,-332.71 1133.88,-321.7"/>
<polygon fill="#63b8ff" stroke="#63b8ff" points="1033.75,-361.19 1025.96,-368.37 1036.53,-367.61 1033.75,-361.19"/>
</g>
<!-- Node13 -->
<g id="node13" class="node">
<title>Node13</title>
<g id="a_node13"><a xlink:href="src_2enclave_2enclave_8h.html" target="_top" xlink:title=" ">
<polygon fill="white" stroke="#666666" points="628,-74 506,-74 506,-55 628,-55 628,-74"/>
<text text-anchor="middle" x="567" y="-62" font-family="Helvetica,sans-Serif" font-size="10.00">src/enclave/enclave.h</text>
</a>
</g>
</g>
<!-- Node12&#45;&gt;Node13 -->
<g id="edge13" class="edge">
<title>Node12&#45;&gt;Node13</title>
<path fill="none" stroke="#63b8ff" d="M1189.4,-298.67C1224.69,-284.43 1270.72,-259.3 1249,-231 1172.92,-131.87 780.89,-85.34 628.08,-70.77"/>
<polygon fill="#63b8ff" stroke="#63b8ff" points="1187.86,-295.52 1179.8,-302.4 1190.39,-302.05 1187.86,-295.52"/>
</g>
<!-- Node15 -->
<g id="node15" class="node">
<title>Node15</title>
<g id="a_node15"><a xlink:href="ccf__acme__client_8h.html" target="_top" xlink:title=" ">
<polygon fill="white" stroke="#666666" points="906.5,-255.5 757.5,-255.5 757.5,-236.5 906.5,-236.5 906.5,-255.5"/>
<text text-anchor="middle" x="832" y="-243.5" font-family="Helvetica,sans-Serif" font-size="10.00">src/node/ccf_acme_client.h</text>
</a>
</g>
</g>
<!-- Node12&#45;&gt;Node15 -->
<g id="edge15" class="edge">
<title>Node12&#45;&gt;Node15</title>
<path fill="none" stroke="#63b8ff" d="M1100.74,-300.41C1037.46,-287.84 933.14,-267.1 874.84,-255.51"/>
<polygon fill="#63b8ff" stroke="#63b8ff" points="1100.42,-303.92 1110.91,-302.44 1101.78,-297.05 1100.42,-303.92"/>
</g>
<!-- Node16 -->
<g id="node16" class="node">
<title>Node16</title>
<g id="a_node16"><a xlink:href="node__state_8h.html" target="_top" xlink:title=" ">
<polygon fill="white" stroke="#666666" points="883,-189.5 759,-189.5 759,-170.5 883,-170.5 883,-189.5"/>
<text text-anchor="middle" x="821" y="-177.5" font-family="Helvetica,sans-Serif" font-size="10.00">src/node/node_state.h</text>
</a>
</g>
</g>
<!-- Node12&#45;&gt;Node16 -->
<g id="edge20" class="edge">
<title>Node12&#45;&gt;Node16</title>
<path fill="none" stroke="#63b8ff" d="M1182.67,-297.94C1212.99,-282.4 1253.68,-255.48 1232,-231 1209.27,-205.34 992.23,-190.16 883.06,-184.09"/>
<polygon fill="#63b8ff" stroke="#63b8ff" points="1181.09,-294.82 1173.67,-302.39 1184.19,-301.1 1181.09,-294.82"/>
</g>
<!-- Node18 -->
<g id="node18" class="node">
<title>Node18</title>
<g id="a_node18"><a xlink:href="quote__endorsements__client_8h.html" target="_top" xlink:title=" ">
<polygon fill="white" stroke="#666666" points="1089,-261 925,-261 925,-231 1089,-231 1089,-261"/>
<text text-anchor="start" x="933" y="-249" font-family="Helvetica,sans-Serif" font-size="10.00">src/node/quote_endorsements</text>
<text text-anchor="middle" x="1007" y="-238" font-family="Helvetica,sans-Serif" font-size="10.00">_client.h</text>
</a>
</g>
</g>
<!-- Node12&#45;&gt;Node18 -->
<g id="edge21" class="edge">
<title>Node12&#45;&gt;Node18</title>
<path fill="none" stroke="#63b8ff" d="M1124.97,-298.36C1100.33,-287.63 1064.99,-272.25 1039.42,-261.12"/>
<polygon fill="#63b8ff" stroke="#63b8ff" points="1123.61,-301.59 1134.17,-302.37 1126.4,-295.17 1123.61,-301.59"/>
</g>
<!-- Node19 -->
<g id="node19" class="node">
<title>Node19</title>
<g id="a_node19"><a xlink:href="resharing_8h.html" target="_top" xlink:title=" ">
<polygon fill="white" stroke="#666666" points="1223,-255.5 1107,-255.5 1107,-236.5 1223,-236.5 1223,-255.5"/>
<text text-anchor="middle" x="1165" y="-243.5" font-family="Helvetica,sans-Serif" font-size="10.00">src/node/resharing.h</text>
</a>
</g>
</g>
<!-- Node12&#45;&gt;Node19 -->
<g id="edge23" class="edge">
<title>Node12&#45;&gt;Node19</title>
<path fill="none" stroke="#63b8ff" d="M1157.19,-292.45C1159.25,-280.43 1161.85,-265.32 1163.47,-255.91"/>
<polygon fill="#63b8ff" stroke="#63b8ff" points="1153.73,-291.92 1155.48,-302.37 1160.63,-293.11 1153.73,-291.92"/>
</g>
<!-- Node14 -->
<g id="node14" class="node">
<title>Node14</title>
<g id="a_node14"><a xlink:href="enclave_2main_8cpp.html" target="_top" xlink:title=" ">
<polygon fill="white" stroke="#666666" points="627,-19 507,-19 507,0 627,0 627,-19"/>
<text text-anchor="middle" x="567" y="-7" font-family="Helvetica,sans-Serif" font-size="10.00">src/enclave/main.cpp</text>
</a>
</g>
</g>
<!-- Node13&#45;&gt;Node14 -->
<g id="edge14" class="edge">
<title>Node13&#45;&gt;Node14</title>
<path fill="none" stroke="#63b8ff" d="M567,-44.66C567,-35.93 567,-25.99 567,-19.09"/>
<polygon fill="#63b8ff" stroke="#63b8ff" points="563.5,-44.75 567,-54.75 570.5,-44.75 563.5,-44.75"/>
</g>
<!-- Node15&#45;&gt;Node16 -->
<g id="edge16" class="edge">
<title>Node15&#45;&gt;Node16</title>
<path fill="none" stroke="#63b8ff" d="M828.81,-226.45C826.75,-214.43 824.15,-199.32 822.53,-189.91"/>
<polygon fill="#63b8ff" stroke="#63b8ff" points="825.37,-227.11 830.52,-236.37 832.27,-225.92 825.37,-227.11"/>
</g>
<!-- Node16&#45;&gt;Node13 -->
<g id="edge17" class="edge">
<title>Node16&#45;&gt;Node13</title>
<path fill="none" stroke="#63b8ff" d="M813.15,-160.87C805.31,-144.96 791.73,-122.48 773,-110 730.07,-81.39 671.94,-70.79 628.37,-67.05"/>
<polygon fill="#63b8ff" stroke="#63b8ff" points="810.09,-162.6 817.47,-170.2 816.45,-159.66 810.09,-162.6"/>
</g>
<!-- Node17 -->
<g id="node17" class="node">
<title>Node17</title>
<g id="a_node17"><a xlink:href="gov__effects_8h.html" target="_top" xlink:title=" ">
<polygon fill="white" stroke="#666666" points="764,-129 620,-129 620,-110 764,-110 764,-129"/>
<text text-anchor="middle" x="692" y="-117" font-family="Helvetica,sans-Serif" font-size="10.00">src/node/rpc/gov_effects.h</text>
</a>
</g>
</g>
<!-- Node16&#45;&gt;Node17 -->
<g id="edge18" class="edge">
<title>Node16&#45;&gt;Node17</title>
<path fill="none" stroke="#63b8ff" d="M792.96,-166.28C768.06,-154.99 732.38,-138.81 710.78,-129.02"/>
<polygon fill="#63b8ff" stroke="#63b8ff" points="791.69,-169.55 802.24,-170.49 794.58,-163.18 791.69,-169.55"/>
</g>
<!-- Node17&#45;&gt;Node13 -->
<g id="edge19" class="edge">
<title>Node17&#45;&gt;Node13</title>
<path fill="none" stroke="#63b8ff" d="M662.59,-106.03C639.47,-96.23 607.87,-82.83 587.45,-74.17"/>
<polygon fill="#63b8ff" stroke="#63b8ff" points="661.34,-109.3 671.92,-109.98 664.08,-102.86 661.34,-109.3"/>
</g>
<!-- Node18&#45;&gt;Node16 -->
<g id="edge22" class="edge">
<title>Node18&#45;&gt;Node16</title>
<path fill="none" stroke="#63b8ff" d="M956.36,-227.58C920.47,-215.23 873.86,-199.19 845.75,-189.52"/>
<polygon fill="#63b8ff" stroke="#63b8ff" points="955.59,-231.01 966.18,-230.95 957.86,-224.39 955.59,-231.01"/>
</g>
<!-- Node19&#45;&gt;Node16 -->
<g id="edge24" class="edge">
<title>Node19&#45;&gt;Node16</title>
<path fill="none" stroke="#63b8ff" d="M1114.86,-234.37C1109.18,-233.21 1103.47,-232.06 1098,-231 1018.61,-215.54 926.1,-199.18 870.61,-189.53"/>
<polygon fill="#63b8ff" stroke="#63b8ff" points="1114.5,-237.87 1125,-236.46 1115.91,-231.01 1114.5,-237.87"/>
</g>
<!-- Node20&#45;&gt;Node12 -->
<g id="edge27" class="edge">
<title>Node20&#45;&gt;Node12</title>
<path fill="none" stroke="#63b8ff" d="M1154,-358.08C1154,-346.13 1154,-331.22 1154,-321.91"/>
<polygon fill="#63b8ff" stroke="#63b8ff" points="1150.5,-358.37 1154,-368.37 1157.5,-358.37 1150.5,-358.37"/>
</g>
<!-- Node21&#45;&gt;Node16 -->
<g id="edge29" class="edge">
<title>Node21&#45;&gt;Node16</title>
<path fill="none" stroke="#63b8ff" d="M717.99,-226.78C745.53,-214.54 780.54,-198.98 801.84,-189.52"/>
<polygon fill="#63b8ff" stroke="#63b8ff" points="716.32,-223.7 708.6,-230.95 719.16,-230.09 716.32,-223.7"/>
</g>
<!-- Node22&#45;&gt;Node13 -->
<g id="edge31" class="edge">
<title>Node22&#45;&gt;Node13</title>
<path fill="none" stroke="#63b8ff" d="M452.07,-428.47C384.2,-415.71 296,-385.24 296,-313 296,-313 296,-313 296,-179 296,-88.59 425.92,-68.96 505.84,-65.45"/>
<polygon fill="#63b8ff" stroke="#63b8ff" points="451.46,-431.92 461.92,-430.23 452.69,-425.03 451.46,-431.92"/>
</g>
<!-- Node23 -->
<g id="node23" class="node">
<title>Node23</title>
<g id="a_node23"><a xlink:href="frontend_8h.html" target="_top" xlink:title=" ">
<polygon fill="white" stroke="#666666" points="593.5,-387.5 464.5,-387.5 464.5,-368.5 593.5,-368.5 593.5,-387.5"/>
<text text-anchor="middle" x="529" y="-375.5" font-family="Helvetica,sans-Serif" font-size="10.00">src/node/rpc/frontend.h</text>
</a>
</g>
</g>
<!-- Node22&#45;&gt;Node23 -->
<g id="edge32" class="edge">
<title>Node22&#45;&gt;Node23</title>
<path fill="none" stroke="#63b8ff" d="M529,-418.66C529,-408.24 529,-395.8 529,-387.67"/>
<polygon fill="#63b8ff" stroke="#63b8ff" points="525.5,-418.87 529,-428.87 532.5,-418.87 525.5,-418.87"/>
</g>
<!-- Node23&#45;&gt;Node16 -->
<g id="edge36" class="edge">
<title>Node23&#45;&gt;Node16</title>
<path fill="none" stroke="#63b8ff" d="M530.93,-357.93C533.23,-341.14 538.07,-316.41 548,-297 565.65,-262.49 571.82,-251.03 605,-231 651.96,-202.66 713.57,-190.38 758.97,-185.06"/>
<polygon fill="#63b8ff" stroke="#63b8ff" points="527.43,-357.78 529.72,-368.12 534.38,-358.61 527.43,-357.78"/>
</g>
<!-- Node24 -->
<g id="node24" class="node">
<title>Node24</title>
<g id="a_node24"><a xlink:href="acme__challenge__frontend_8h.html" target="_top" xlink:title=" ">
<polygon fill="white" stroke="#666666" points="873,-327 733,-327 733,-297 873,-297 873,-327"/>
<text text-anchor="start" x="741" y="-315" font-family="Helvetica,sans-Serif" font-size="10.00">src/node/acme_challenge</text>
<text text-anchor="middle" x="803" y="-304" font-family="Helvetica,sans-Serif" font-size="10.00">_frontend.h</text>
</a>
</g>
</g>
<!-- Node23&#45;&gt;Node24 -->
<g id="edge33" class="edge">
<title>Node23&#45;&gt;Node24</title>
<path fill="none" stroke="#63b8ff" d="M575.41,-366.16C621.55,-355.38 692.54,-338.8 742.96,-327.02"/>
<polygon fill="#63b8ff" stroke="#63b8ff" points="574.61,-362.75 565.67,-368.44 576.2,-369.57 574.61,-362.75"/>
</g>
<!-- Node25 -->
<g id="node25" class="node">
<title>Node25</title>
<g id="a_node25"><a xlink:href="member__frontend_8h.html" target="_top" xlink:title=" ">
<polygon fill="white" stroke="#666666" points="444,-195 324,-195 324,-165 444,-165 444,-195"/>
<text text-anchor="start" x="332" y="-183" font-family="Helvetica,sans-Serif" font-size="10.00">src/node/rpc/member</text>
<text text-anchor="middle" x="384" y="-172" font-family="Helvetica,sans-Serif" font-size="10.00">_frontend.h</text>
</a>
</g>
</g>
<!-- Node23&#45;&gt;Node25 -->
<g id="edge37" class="edge">
<title>Node23&#45;&gt;Node25</title>
<path fill="none" stroke="#63b8ff" d="M503.66,-363.36C488.94,-354.49 470.82,-341.82 458,-327 421.93,-285.31 398.03,-222.96 388.57,-195.21"/>
<polygon fill="#63b8ff" stroke="#63b8ff" points="501.9,-366.39 512.31,-368.38 505.41,-360.33 501.9,-366.39"/>
</g>
<!-- Node26 -->
<g id="node26" class="node">
<title>Node26</title>
<g id="a_node26"><a xlink:href="node__frontend_8h.html" target="_top" xlink:title=" ">
<polygon fill="white" stroke="#666666" points="715,-321.5 557,-321.5 557,-302.5 715,-302.5 715,-321.5"/>
<text text-anchor="middle" x="636" y="-309.5" font-family="Helvetica,sans-Serif" font-size="10.00">src/node/rpc/node_frontend.h</text>
</a>
</g>
</g>
<!-- Node23&#45;&gt;Node26 -->
<g id="edge39" class="edge">
<title>Node23&#45;&gt;Node26</title>
<path fill="none" stroke="#63b8ff" d="M552.09,-363.19C573.15,-350.59 603.61,-332.37 621.46,-321.7"/>
<polygon fill="#63b8ff" stroke="#63b8ff" points="550.22,-360.23 543.43,-368.37 553.81,-366.24 550.22,-360.23"/>
</g>
<!-- Node27 -->
<g id="node27" class="node">
<title>Node27</title>
<g id="a_node27"><a xlink:href="user__frontend_8h.html" target="_top" xlink:title=" ">
<polygon fill="white" stroke="#666666" points="519.5,-129 364.5,-129 364.5,-110 519.5,-110 519.5,-129"/>
<text text-anchor="middle" x="442" y="-117" font-family="Helvetica,sans-Serif" font-size="10.00">src/node/rpc/user_frontend.h</text>
</a>
</g>
</g>
<!-- Node23&#45;&gt;Node27 -->
<g id="edge42" class="edge">
<title>Node23&#45;&gt;Node27</title>
<path fill="none" stroke="#63b8ff" d="M522.84,-358.83C505.58,-307.96 457.26,-165.49 444.91,-129.07"/>
<polygon fill="#63b8ff" stroke="#63b8ff" points="519.58,-360.12 526.11,-368.47 526.21,-357.87 519.58,-360.12"/>
</g>
<!-- Node24&#45;&gt;Node13 -->
<g id="edge34" class="edge">
<title>Node24&#45;&gt;Node13</title>
<path fill="none" stroke="#63b8ff" d="M723.11,-295.05C671.93,-284.12 613.53,-270.01 605,-261 591.81,-247.06 572.92,-110.28 568.13,-74.19"/>
<polygon fill="#63b8ff" stroke="#63b8ff" points="722.39,-298.48 732.9,-297.13 723.84,-291.63 722.39,-298.48"/>
</g>
<!-- Node24&#45;&gt;Node15 -->
<g id="edge35" class="edge">
<title>Node24&#45;&gt;Node15</title>
<path fill="none" stroke="#63b8ff" d="M813.6,-287.61C818.61,-276.56 824.28,-264.03 827.99,-255.84"/>
<polygon fill="#63b8ff" stroke="#63b8ff" points="810.38,-286.24 809.44,-296.8 816.75,-289.13 810.38,-286.24"/>
</g>
<!-- Node25&#45;&gt;Node13 -->
<g id="edge38" class="edge">
<title>Node25&#45;&gt;Node13</title>
<path fill="none" stroke="#63b8ff" d="M363.58,-156.86C352.78,-142.41 343.84,-123.75 355,-110 373.73,-86.93 450.09,-75.39 505.82,-69.93"/>
<polygon fill="#63b8ff" stroke="#63b8ff" points="361,-159.24 370.01,-164.81 366.44,-154.83 361,-159.24"/>
</g>
<!-- Node26&#45;&gt;Node13 -->
<g id="edge40" class="edge">
<title>Node26&#45;&gt;Node13</title>
<path fill="none" stroke="#63b8ff" d="M609,-297.42C595.3,-288.97 579.91,-276.7 572,-261 539.32,-196.11 557.78,-103.09 564.72,-74.32"/>
<polygon fill="#63b8ff" stroke="#63b8ff" points="607.26,-300.46 617.67,-302.43 610.76,-294.4 607.26,-300.46"/>
</g>
<!-- Node26&#45;&gt;Node21 -->
<g id="edge41" class="edge">
<title>Node26&#45;&gt;Node21</title>
<path fill="none" stroke="#63b8ff" d="M646.94,-293.92C653.45,-283.76 661.62,-271.01 667.8,-261.36"/>
<polygon fill="#63b8ff" stroke="#63b8ff" points="643.98,-292.06 641.53,-302.37 649.87,-295.84 643.98,-292.06"/>
</g>
<!-- Node27&#45;&gt;Node13 -->
<g id="edge43" class="edge">
<title>Node27&#45;&gt;Node13</title>
<path fill="none" stroke="#63b8ff" d="M471.41,-106.03C494.53,-96.23 526.13,-82.83 546.55,-74.17"/>
<polygon fill="#63b8ff" stroke="#63b8ff" points="469.92,-102.86 462.08,-109.98 472.66,-109.3 469.92,-102.86"/>
</g>
</g>
</svg>
