<?xml version="1.0" encoding="UTF-8" standalone="no"?>
<!DOCTYPE svg PUBLIC "-//W3C//DTD SVG 1.1//EN"
 "http://www.w3.org/Graphics/SVG/1.1/DTD/svg11.dtd">
<!-- Generated by graphviz version 2.43.0 (0)
 -->
<!-- Title: src/http/http_rpc_context.h Pages: 1 -->
<!--zoomable 500 -->
<svg id="main" version="1.1" xmlns="http://www.w3.org/2000/svg" xmlns:xlink="http://www.w3.org/1999/xlink" xml:space="preserve" onload="init(evt)">
<style type="text/css"><![CDATA[
.edge:hover path { stroke: red; }
.edge:hover polygon { stroke: red; fill: red; }
]]></style>
<script type="text/javascript"><![CDATA[
var edges = document.getElementsByTagName('g');
if (edges && edges.length) {
  for (var i=0;i<edges.length;i++) {
    if (edges[i].id.substr(0,4)=='edge') {
      edges[i].setAttribute('class','edge');
    }
  }
}
]]></script>
        <defs>
                <circle id="rim" cx="0" cy="0" r="7"/>
                <circle id="rim2" cx="0" cy="0" r="3.5"/>
                <g id="zoomPlus">
                        <use xlink:href="#rim" fill="#404040">
                                <set attributeName="fill" to="#808080" begin="zoomplus.mouseover" end="zoomplus.mouseout"/>
                        </use>
                        <path d="M-4,0h8M0,-4v8" fill="none" stroke="white" stroke-width="1.5" pointer-events="none"/>
                </g>
                <g id="zoomMin">
                        <use xlink:href="#rim" fill="#404040">
                                <set attributeName="fill" to="#808080" begin="zoomminus.mouseover" end="zoomminus.mouseout"/>
                        </use>
                        <path d="M-4,0h8" fill="none" stroke="white" stroke-width="1.5" pointer-events="none"/>
                </g>
                <g id="dirArrow">
                        <path fill="none" stroke="white" stroke-width="1.5" d="M0,-3.0v7 M-2.5,-0.5L0,-3.0L2.5,-0.5"/>
                </g>
               <g id="resetDef">
                       <use xlink:href="#rim2" fill="#404040">
                               <set attributeName="fill" to="#808080" begin="reset.mouseover" end="reset.mouseout"/>
                       </use>
               </g>
        </defs>

<script type="text/javascript">
var viewWidth = 1029;
var viewHeight = 500;
var sectionId = 'dynsection-1';
</script>
<script xlink:href="svgpan.js"/>
<svg id="graph" class="graph">
<g id="viewport">
<title>src/http/http_rpc_context.h</title>
<!-- Node1 -->
<g id="node1" class="node">
<title>Node1</title>
<g id="a_node1"><a xlink:title=" ">
<polygon fill="#999999" stroke="#666666" points="494.33,-492 347.33,-492 347.33,-473 494.33,-473 494.33,-492"/>
<text text-anchor="middle" x="420.83" y="-480" font-family="Helvetica,sans-Serif" font-size="10.00">src/http/http_rpc_context.h</text>
</a>
</g>
</g>
<!-- Node2 -->
<g id="node2" class="node">
<title>Node2</title>
<g id="a_node2"><a xlink:href="http2__parser_8h.html" target="_top" xlink:title=" ">
<polygon fill="white" stroke="#666666" points="483.83,-437 357.83,-437 357.83,-418 483.83,-418 483.83,-437"/>
<text text-anchor="middle" x="420.83" y="-425" font-family="Helvetica,sans-Serif" font-size="10.00">src/http/http2_parser.h</text>
</a>
</g>
</g>
<!-- Node1&#45;&gt;Node2 -->
<g id="edge1" class="edge">
<title>Node1&#45;&gt;Node2</title>
<path fill="none" stroke="#63b8ff" d="M420.83,-462.66C420.83,-453.93 420.83,-443.99 420.83,-437.09"/>
<polygon fill="#63b8ff" stroke="#63b8ff" points="417.33,-462.75 420.83,-472.75 424.33,-462.75 417.33,-462.75"/>
</g>
<!-- Node3 -->
<g id="node3" class="node">
<title>Node3</title>
<g id="a_node3"><a xlink:href="http2__session_8h.html" target="_top" xlink:title=" ">
<polygon fill="white" stroke="#666666" points="479.33,-382 346.33,-382 346.33,-363 479.33,-363 479.33,-382"/>
<text text-anchor="middle" x="412.83" y="-370" font-family="Helvetica,sans-Serif" font-size="10.00">src/http/http2_session.h</text>
</a>
</g>
</g>
<!-- Node1&#45;&gt;Node3 -->
<g id="edge16" class="edge">
<title>Node1&#45;&gt;Node3</title>
<path fill="none" stroke="#63b8ff" d="M385.86,-468.82C371.73,-461.76 356.87,-451.42 348.83,-437 335.79,-413.62 368.73,-393.14 392.03,-382.12"/>
<polygon fill="#63b8ff" stroke="#63b8ff" points="384.42,-472.01 394.97,-472.99 387.34,-465.64 384.42,-472.01"/>
</g>
<!-- Node12 -->
<g id="node12" class="node">
<title>Node12</title>
<g id="a_node12"><a xlink:href="http__session_8h.html" target="_top" xlink:title=" ">
<polygon fill="white" stroke="#666666" points="328.33,-382 201.33,-382 201.33,-363 328.33,-363 328.33,-382"/>
<text text-anchor="middle" x="264.83" y="-370" font-family="Helvetica,sans-Serif" font-size="10.00">src/http/http_session.h</text>
</a>
</g>
</g>
<!-- Node1&#45;&gt;Node12 -->
<g id="edge17" class="edge">
<title>Node1&#45;&gt;Node12</title>
<path fill="none" stroke="#63b8ff" d="M394.52,-468.19C378.81,-459.87 358.7,-448.58 341.83,-437 316.11,-419.36 288.49,-395.13 274.36,-382.3"/>
<polygon fill="#63b8ff" stroke="#63b8ff" points="393.18,-471.43 403.66,-472.95 396.42,-465.23 393.18,-471.43"/>
</g>
<!-- Node13 -->
<g id="node13" class="node">
<title>Node13</title>
<g id="a_node13"><a xlink:href="jwt__key__auto__refresh_8h.html" target="_top" xlink:title=" ">
<polygon fill="white" stroke="#666666" points="703.33,-261 578.33,-261 578.33,-231 703.33,-231 703.33,-261"/>
<text text-anchor="start" x="586.33" y="-249" font-family="Helvetica,sans-Serif" font-size="10.00">src/node/jwt_key_auto</text>
<text text-anchor="middle" x="640.83" y="-238" font-family="Helvetica,sans-Serif" font-size="10.00">_refresh.h</text>
</a>
</g>
</g>
<!-- Node1&#45;&gt;Node13 -->
<g id="edge19" class="edge">
<title>Node1&#45;&gt;Node13</title>
<path fill="none" stroke="#63b8ff" d="M449.44,-468.28C463.75,-460.64 480.57,-449.96 492.83,-437 541.46,-385.55 521.58,-349.73 568.83,-297 581.83,-282.49 599.83,-269.99 614.58,-261.12"/>
<polygon fill="#63b8ff" stroke="#63b8ff" points="447.79,-465.2 440.48,-472.86 450.98,-471.43 447.79,-465.2"/>
</g>
<!-- Node14 -->
<g id="node14" class="node">
<title>Node14</title>
<g id="a_node14"><a xlink:href="forwarder_8h.html" target="_top" xlink:title=" ">
<polygon fill="white" stroke="#666666" points="881.83,-437 747.83,-437 747.83,-418 881.83,-418 881.83,-437"/>
<text text-anchor="middle" x="814.83" y="-425" font-family="Helvetica,sans-Serif" font-size="10.00">src/node/rpc/forwarder.h</text>
</a>
</g>
</g>
<!-- Node1&#45;&gt;Node14 -->
<g id="edge21" class="edge">
<title>Node1&#45;&gt;Node14</title>
<path fill="none" stroke="#63b8ff" d="M494.3,-471.62C568.26,-461.67 681.17,-446.48 751.35,-437.04"/>
<polygon fill="#63b8ff" stroke="#63b8ff" points="493.57,-468.18 484.13,-472.98 494.51,-475.12 493.57,-468.18"/>
</g>
<!-- Node2&#45;&gt;Node3 -->
<g id="edge2" class="edge">
<title>Node2&#45;&gt;Node3</title>
<path fill="none" stroke="#63b8ff" d="M417.98,-407.66C416.66,-398.93 415.16,-388.99 414.12,-382.09"/>
<polygon fill="#63b8ff" stroke="#63b8ff" points="414.55,-408.38 419.51,-417.75 421.47,-407.34 414.55,-408.38"/>
</g>
<!-- Node4 -->
<g id="node4" class="node">
<title>Node4</title>
<g id="a_node4"><a xlink:href="rpc__sessions_8h.html" target="_top" xlink:title=" ">
<polygon fill="white" stroke="#666666" points="337.83,-321.5 191.83,-321.5 191.83,-302.5 337.83,-302.5 337.83,-321.5"/>
<text text-anchor="middle" x="264.83" y="-309.5" font-family="Helvetica,sans-Serif" font-size="10.00">src/enclave/rpc_sessions.h</text>
</a>
</g>
</g>
<!-- Node3&#45;&gt;Node4 -->
<g id="edge3" class="edge">
<title>Node3&#45;&gt;Node4</title>
<path fill="none" stroke="#63b8ff" d="M381.78,-359.23C353.18,-347.92 311.48,-331.44 286.37,-321.52"/>
<polygon fill="#63b8ff" stroke="#63b8ff" points="380.72,-362.57 391.31,-362.99 383.29,-356.06 380.72,-362.57"/>
</g>
<!-- Node5 -->
<g id="node5" class="node">
<title>Node5</title>
<g id="a_node5"><a xlink:href="src_2enclave_2enclave_8h.html" target="_top" xlink:title=" ">
<polygon fill="white" stroke="#666666" points="811.83,-74 689.83,-74 689.83,-55 811.83,-55 811.83,-74"/>
<text text-anchor="middle" x="750.83" y="-62" font-family="Helvetica,sans-Serif" font-size="10.00">src/enclave/enclave.h</text>
</a>
</g>
</g>
<!-- Node4&#45;&gt;Node5 -->
<g id="edge4" class="edge">
<title>Node4&#45;&gt;Node5</title>
<path fill="none" stroke="#63b8ff" d="M181.47,-310.91C90.05,-307.79 -37.67,-292.78 10.83,-231 95.06,-123.69 527.91,-81.66 689.71,-69.55"/>
<polygon fill="#63b8ff" stroke="#63b8ff" points="181.49,-314.41 191.59,-311.21 181.69,-307.41 181.49,-314.41"/>
</g>
<!-- Node7 -->
<g id="node7" class="node">
<title>Node7</title>
<g id="a_node7"><a xlink:href="ccf__acme__client_8h.html" target="_top" xlink:title=" ">
<polygon fill="white" stroke="#666666" points="522.33,-255.5 373.33,-255.5 373.33,-236.5 522.33,-236.5 522.33,-255.5"/>
<text text-anchor="middle" x="447.83" y="-243.5" font-family="Helvetica,sans-Serif" font-size="10.00">src/node/ccf_acme_client.h</text>
</a>
</g>
</g>
<!-- Node4&#45;&gt;Node7 -->
<g id="edge6" class="edge">
<title>Node4&#45;&gt;Node7</title>
<path fill="none" stroke="#63b8ff" d="M299.14,-299C335.27,-286.36 391.28,-266.78 423.25,-255.6"/>
<polygon fill="#63b8ff" stroke="#63b8ff" points="297.79,-295.76 289.51,-302.37 300.1,-302.37 297.79,-295.76"/>
</g>
<!-- Node8 -->
<g id="node8" class="node">
<title>Node8</title>
<g id="a_node8"><a xlink:href="node__state_8h.html" target="_top" xlink:title=" ">
<polygon fill="white" stroke="#666666" points="519.83,-189.5 395.83,-189.5 395.83,-170.5 519.83,-170.5 519.83,-189.5"/>
<text text-anchor="middle" x="457.83" y="-177.5" font-family="Helvetica,sans-Serif" font-size="10.00">src/node/node_state.h</text>
</a>
</g>
</g>
<!-- Node4&#45;&gt;Node8 -->
<g id="edge11" class="edge">
<title>Node4&#45;&gt;Node8</title>
<path fill="none" stroke="#63b8ff" d="M283.52,-295.9C311.27,-273.51 360.58,-233.81 364.83,-231 389.6,-214.63 420.26,-198.95 439.44,-189.65"/>
<polygon fill="#63b8ff" stroke="#63b8ff" points="281.26,-293.23 275.67,-302.24 285.65,-298.68 281.26,-293.23"/>
</g>
<!-- Node10 -->
<g id="node10" class="node">
<title>Node10</title>
<g id="a_node10"><a xlink:href="quote__endorsements__client_8h.html" target="_top" xlink:title=" ">
<polygon fill="white" stroke="#666666" points="183.83,-261 19.83,-261 19.83,-231 183.83,-231 183.83,-261"/>
<text text-anchor="start" x="27.83" y="-249" font-family="Helvetica,sans-Serif" font-size="10.00">src/node/quote_endorsements</text>
<text text-anchor="middle" x="101.83" y="-238" font-family="Helvetica,sans-Serif" font-size="10.00">_client.h</text>
</a>
</g>
</g>
<!-- Node4&#45;&gt;Node10 -->
<g id="edge12" class="edge">
<title>Node4&#45;&gt;Node10</title>
<path fill="none" stroke="#63b8ff" d="M233.36,-298.65C206.01,-287.9 166.38,-272.35 137.78,-261.12"/>
<polygon fill="#63b8ff" stroke="#63b8ff" points="232.26,-301.97 242.84,-302.37 234.81,-295.46 232.26,-301.97"/>
</g>
<!-- Node11 -->
<g id="node11" class="node">
<title>Node11</title>
<g id="a_node11"><a xlink:href="resharing_8h.html" target="_top" xlink:title=" ">
<polygon fill="white" stroke="#666666" points="317.83,-255.5 201.83,-255.5 201.83,-236.5 317.83,-236.5 317.83,-255.5"/>
<text text-anchor="middle" x="259.83" y="-243.5" font-family="Helvetica,sans-Serif" font-size="10.00">src/node/resharing.h</text>
</a>
</g>
</g>
<!-- Node4&#45;&gt;Node11 -->
<g id="edge14" class="edge">
<title>Node4&#45;&gt;Node11</title>
<path fill="none" stroke="#63b8ff" d="M263.35,-292.08C262.41,-280.13 261.25,-265.22 260.52,-255.91"/>
<polygon fill="#63b8ff" stroke="#63b8ff" points="259.88,-292.67 264.15,-302.37 266.86,-292.13 259.88,-292.67"/>
</g>
<!-- Node6 -->
<g id="node6" class="node">
<title>Node6</title>
<g id="a_node6"><a xlink:href="enclave_2main_8cpp.html" target="_top" xlink:title=" ">
<polygon fill="white" stroke="#666666" points="810.83,-19 690.83,-19 690.83,0 810.83,0 810.83,-19"/>
<text text-anchor="middle" x="750.83" y="-7" font-family="Helvetica,sans-Serif" font-size="10.00">src/enclave/main.cpp</text>
</a>
</g>
</g>
<!-- Node5&#45;&gt;Node6 -->
<g id="edge5" class="edge">
<title>Node5&#45;&gt;Node6</title>
<path fill="none" stroke="#63b8ff" d="M750.83,-44.66C750.83,-35.93 750.83,-25.99 750.83,-19.09"/>
<polygon fill="#63b8ff" stroke="#63b8ff" points="747.33,-44.75 750.83,-54.75 754.33,-44.75 747.33,-44.75"/>
</g>
<!-- Node7&#45;&gt;Node8 -->
<g id="edge7" class="edge">
<title>Node7&#45;&gt;Node8</title>
<path fill="none" stroke="#63b8ff" d="M450.72,-226.45C452.6,-214.43 454.96,-199.32 456.43,-189.91"/>
<polygon fill="#63b8ff" stroke="#63b8ff" points="447.26,-225.95 449.18,-236.37 454.18,-227.03 447.26,-225.95"/>
</g>
<!-- Node8&#45;&gt;Node5 -->
<g id="edge8" class="edge">
<title>Node8&#45;&gt;Node5</title>
<path fill="none" stroke="#63b8ff" d="M472.46,-162.7C487.7,-146.77 513.05,-123.05 539.83,-110 587.11,-86.95 646.04,-75.79 689.6,-70.42"/>
<polygon fill="#63b8ff" stroke="#63b8ff" points="469.7,-160.52 465.45,-170.23 474.83,-165.29 469.7,-160.52"/>
</g>
<!-- Node9 -->
<g id="node9" class="node">
<title>Node9</title>
<g id="a_node9"><a xlink:href="gov__effects_8h.html" target="_top" xlink:title=" ">
<polygon fill="white" stroke="#666666" points="692.83,-129 548.83,-129 548.83,-110 692.83,-110 692.83,-129"/>
<text text-anchor="middle" x="620.83" y="-117" font-family="Helvetica,sans-Serif" font-size="10.00">src/node/rpc/gov_effects.h</text>
</a>
</g>
</g>
<!-- Node8&#45;&gt;Node9 -->
<g id="edge9" class="edge">
<title>Node8&#45;&gt;Node9</title>
<path fill="none" stroke="#63b8ff" d="M491.19,-167.02C522.71,-155.71 569.2,-139.03 597.1,-129.02"/>
<polygon fill="#63b8ff" stroke="#63b8ff" points="489.76,-163.82 481.53,-170.49 492.12,-170.41 489.76,-163.82"/>
</g>
<!-- Node9&#45;&gt;Node5 -->
<g id="edge10" class="edge">
<title>Node9&#45;&gt;Node5</title>
<path fill="none" stroke="#63b8ff" d="M651.09,-106.16C675.16,-96.35 708.22,-82.87 729.56,-74.17"/>
<polygon fill="#63b8ff" stroke="#63b8ff" points="649.65,-102.97 641.71,-109.98 652.29,-109.45 649.65,-102.97"/>
</g>
<!-- Node10&#45;&gt;Node8 -->
<g id="edge13" class="edge">
<title>Node10&#45;&gt;Node8</title>
<path fill="none" stroke="#63b8ff" d="M190.05,-229.14C259.76,-216.61 354.35,-199.6 410.45,-189.52"/>
<polygon fill="#63b8ff" stroke="#63b8ff" points="189.18,-225.74 179.95,-230.95 190.41,-232.63 189.18,-225.74"/>
</g>
<!-- Node11&#45;&gt;Node8 -->
<g id="edge15" class="edge">
<title>Node11&#45;&gt;Node8</title>
<path fill="none" stroke="#63b8ff" d="M296.2,-233.24C335.27,-220.61 396.42,-200.85 431.23,-189.6"/>
<polygon fill="#63b8ff" stroke="#63b8ff" points="294.97,-229.96 286.53,-236.37 297.12,-236.62 294.97,-229.96"/>
</g>
<!-- Node12&#45;&gt;Node4 -->
<g id="edge18" class="edge">
<title>Node12&#45;&gt;Node4</title>
<path fill="none" stroke="#63b8ff" d="M264.83,-352.66C264.83,-342.24 264.83,-329.8 264.83,-321.67"/>
<polygon fill="#63b8ff" stroke="#63b8ff" points="261.33,-352.87 264.83,-362.87 268.33,-352.87 261.33,-352.87"/>
</g>
<!-- Node13&#45;&gt;Node8 -->
<g id="edge20" class="edge">
<title>Node13&#45;&gt;Node8</title>
<path fill="none" stroke="#63b8ff" d="M591.01,-227.58C555.69,-215.23 509.83,-199.19 482.18,-189.52"/>
<polygon fill="#63b8ff" stroke="#63b8ff" points="590.07,-230.96 600.67,-230.95 592.38,-224.35 590.07,-230.96"/>
</g>
<!-- Node14&#45;&gt;Node5 -->
<g id="edge22" class="edge">
<title>Node14&#45;&gt;Node5</title>
<path fill="none" stroke="#63b8ff" d="M889.98,-415.89C948.49,-402.88 1019.83,-374.43 1019.83,-313 1019.83,-313 1019.83,-313 1019.83,-179 1019.83,-147.19 1024.33,-131.43 1000.83,-110 973.82,-85.39 876.99,-73.99 812.06,-69.02"/>
<polygon fill="#63b8ff" stroke="#63b8ff" points="889.04,-412.51 879.97,-417.99 890.48,-419.36 889.04,-412.51"/>
</g>
<!-- Node15 -->
<g id="node15" class="node">
<title>Node15</title>
<g id="a_node15"><a xlink:href="frontend_8h.html" target="_top" xlink:title=" ">
<polygon fill="white" stroke="#666666" points="879.33,-382 750.33,-382 750.33,-363 879.33,-363 879.33,-382"/>
<text text-anchor="middle" x="814.83" y="-370" font-family="Helvetica,sans-Serif" font-size="10.00">src/node/rpc/frontend.h</text>
</a>
</g>
</g>
<!-- Node14&#45;&gt;Node15 -->
<g id="edge23" class="edge">
<title>Node14&#45;&gt;Node15</title>
<path fill="none" stroke="#63b8ff" d="M814.83,-407.66C814.83,-398.93 814.83,-388.99 814.83,-382.09"/>
<polygon fill="#63b8ff" stroke="#63b8ff" points="811.33,-407.75 814.83,-417.75 818.33,-407.75 811.33,-407.75"/>
</g>
<!-- Node15&#45;&gt;Node8 -->
<g id="edge27" class="edge">
<title>Node15&#45;&gt;Node8</title>
<path fill="none" stroke="#63b8ff" d="M739.81,-365.96C677.27,-359.92 594.41,-348.16 568.83,-327 533.59,-297.86 560.3,-266.78 531.83,-231 516.96,-212.32 493.2,-198.02 476.63,-189.59"/>
<polygon fill="#63b8ff" stroke="#63b8ff" points="739.77,-369.47 750.05,-366.92 740.42,-362.5 739.77,-369.47"/>
</g>
<!-- Node16 -->
<g id="node16" class="node">
<title>Node16</title>
<g id="a_node16"><a xlink:href="acme__challenge__frontend_8h.html" target="_top" xlink:title=" ">
<polygon fill="white" stroke="#666666" points="717.83,-327 577.83,-327 577.83,-297 717.83,-297 717.83,-327"/>
<text text-anchor="start" x="585.83" y="-315" font-family="Helvetica,sans-Serif" font-size="10.00">src/node/acme_challenge</text>
<text text-anchor="middle" x="647.83" y="-304" font-family="Helvetica,sans-Serif" font-size="10.00">_frontend.h</text>
</a>
</g>
</g>
<!-- Node15&#45;&gt;Node16 -->
<g id="edge24" class="edge">
<title>Node15&#45;&gt;Node16</title>
<path fill="none" stroke="#63b8ff" d="M780.81,-359.58C753.92,-350.16 716.33,-337 687.98,-327.06"/>
<polygon fill="#63b8ff" stroke="#63b8ff" points="779.95,-362.99 790.54,-362.99 782.26,-356.38 779.95,-362.99"/>
</g>
<!-- Node17 -->
<g id="node17" class="node">
<title>Node17</title>
<g id="a_node17"><a xlink:href="member__frontend_8h.html" target="_top" xlink:title=" ">
<polygon fill="white" stroke="#666666" points="924.83,-195 804.83,-195 804.83,-165 924.83,-165 924.83,-195"/>
<text text-anchor="start" x="812.83" y="-183" font-family="Helvetica,sans-Serif" font-size="10.00">src/node/rpc/member</text>
<text text-anchor="middle" x="864.83" y="-172" font-family="Helvetica,sans-Serif" font-size="10.00">_frontend.h</text>
</a>
</g>
</g>
<!-- Node15&#45;&gt;Node17 -->
<g id="edge28" class="edge">
<title>Node15&#45;&gt;Node17</title>
<path fill="none" stroke="#63b8ff" d="M860.58,-359.36C876.81,-352.61 893.38,-342.36 902.83,-327 929.3,-283.94 894.26,-222.82 875.41,-195.35"/>
<polygon fill="#63b8ff" stroke="#63b8ff" points="859.23,-356.13 851.12,-362.94 861.71,-362.68 859.23,-356.13"/>
</g>
<!-- Node18 -->
<g id="node18" class="node">
<title>Node18</title>
<g id="a_node18"><a xlink:href="node__frontend_8h.html" target="_top" xlink:title=" ">
<polygon fill="white" stroke="#666666" points="893.83,-321.5 735.83,-321.5 735.83,-302.5 893.83,-302.5 893.83,-321.5"/>
<text text-anchor="middle" x="814.83" y="-309.5" font-family="Helvetica,sans-Serif" font-size="10.00">src/node/rpc/node_frontend.h</text>
</a>
</g>
</g>
<!-- Node15&#45;&gt;Node18 -->
<g id="edge30" class="edge">
<title>Node15&#45;&gt;Node18</title>
<path fill="none" stroke="#63b8ff" d="M814.83,-352.66C814.83,-342.24 814.83,-329.8 814.83,-321.67"/>
<polygon fill="#63b8ff" stroke="#63b8ff" points="811.33,-352.87 814.83,-362.87 818.33,-352.87 811.33,-352.87"/>
</g>
<!-- Node19 -->
<g id="node19" class="node">
<title>Node19</title>
<g id="a_node19"><a xlink:href="user__frontend_8h.html" target="_top" xlink:title=" ">
<polygon fill="white" stroke="#666666" points="991.33,-129 836.33,-129 836.33,-110 991.33,-110 991.33,-129"/>
<text text-anchor="middle" x="913.83" y="-117" font-family="Helvetica,sans-Serif" font-size="10.00">src/node/rpc/user_frontend.h</text>
</a>
</g>
</g>
<!-- Node15&#45;&gt;Node19 -->
<g id="edge33" class="edge">
<title>Node15&#45;&gt;Node19</title>
<path fill="none" stroke="#63b8ff" d="M872.18,-359.8C890.51,-353.2 909.07,-342.93 920.83,-327 963.72,-268.88 948.97,-235.63 933.83,-165 931.02,-151.91 924.06,-138.03 919.14,-129.32"/>
<polygon fill="#63b8ff" stroke="#63b8ff" points="871.06,-356.48 862.65,-362.93 873.24,-363.13 871.06,-356.48"/>
</g>
<!-- Node16&#45;&gt;Node5 -->
<g id="edge25" class="edge">
<title>Node16&#45;&gt;Node5</title>
<path fill="none" stroke="#63b8ff" d="M682.89,-291.13C694.06,-283.15 705.43,-272.97 712.83,-261 751.91,-197.76 752.15,-102.85 751.22,-74.07"/>
<polygon fill="#63b8ff" stroke="#63b8ff" points="680.79,-288.32 674.45,-296.81 684.7,-294.13 680.79,-288.32"/>
</g>
<!-- Node16&#45;&gt;Node7 -->
<g id="edge26" class="edge">
<title>Node16&#45;&gt;Node7</title>
<path fill="none" stroke="#63b8ff" d="M594.37,-293.89C555.64,-281.5 504.92,-265.27 474.44,-255.52"/>
<polygon fill="#63b8ff" stroke="#63b8ff" points="593.34,-297.24 603.94,-296.95 595.48,-290.57 593.34,-297.24"/>
</g>
<!-- Node17&#45;&gt;Node5 -->
<g id="edge29" class="edge">
<title>Node17&#45;&gt;Node5</title>
<path fill="none" stroke="#63b8ff" d="M843.08,-157.34C817.8,-132.18 777.3,-91.86 759.59,-74.23"/>
<polygon fill="#63b8ff" stroke="#63b8ff" points="840.83,-160.05 850.39,-164.63 845.77,-155.09 840.83,-160.05"/>
</g>
<!-- Node18&#45;&gt;Node5 -->
<g id="edge31" class="edge">
<title>Node18&#45;&gt;Node5</title>
<path fill="none" stroke="#63b8ff" d="M809.95,-292.29C797.02,-242.71 762.26,-109.36 753.08,-74.13"/>
<polygon fill="#63b8ff" stroke="#63b8ff" points="806.64,-293.47 812.55,-302.26 813.41,-291.7 806.64,-293.47"/>
</g>
<!-- Node18&#45;&gt;Node13 -->
<g id="edge32" class="edge">
<title>Node18&#45;&gt;Node13</title>
<path fill="none" stroke="#63b8ff" d="M781.62,-298.79C752.41,-288.04 709.87,-272.4 679.2,-261.12"/>
<polygon fill="#63b8ff" stroke="#63b8ff" points="780.77,-302.2 791.36,-302.37 783.18,-295.63 780.77,-302.2"/>
</g>
<!-- Node19&#45;&gt;Node5 -->
<g id="edge34" class="edge">
<title>Node19&#45;&gt;Node5</title>
<path fill="none" stroke="#63b8ff" d="M877.84,-106.8C847.42,-96.91 804.55,-82.97 777.22,-74.08"/>
<polygon fill="#63b8ff" stroke="#63b8ff" points="877.05,-110.22 887.64,-109.98 879.21,-103.56 877.05,-110.22"/>
</g>
</g>
</svg>
        <g id="navigator" transform="translate(0 0)" fill="#404254">
                <rect fill="#f2f5e9" fill-opacity="0.5" stroke="#606060" stroke-width=".5" x="0" y="0" width="60" height="60"/>
                <use id="zoomplus" xlink:href="#zoomPlus" x="17" y="9" onmousedown="handleZoom(evt,'in')"/>
                <use id="zoomminus" xlink:href="#zoomMin" x="42" y="9" onmousedown="handleZoom(evt,'out')"/>
                <use id="reset" xlink:href="#resetDef" x="30" y="36" onmousedown="handleReset()"/>
                <g id="arrowUp" xlink:href="#dirArrow" transform="translate(30 24)" onmousedown="handlePan(0,-1)">
                  <use xlink:href="#rim" fill="#404040">
                        <set attributeName="fill" to="#808080" begin="arrowUp.mouseover" end="arrowUp.mouseout"/>
                  </use>
                  <path fill="none" stroke="white" stroke-width="1.5" d="M0,-3.0v7 M-2.5,-0.5L0,-3.0L2.5,-0.5"/>
                </g>
                <g id="arrowRight" xlink:href="#dirArrow" transform="rotate(90) translate(36 -43)" onmousedown="handlePan(1,0)">
                  <use xlink:href="#rim" fill="#404040">
                        <set attributeName="fill" to="#808080" begin="arrowRight.mouseover" end="arrowRight.mouseout"/>
                  </use>
                  <path fill="none" stroke="white" stroke-width="1.5" d="M0,-3.0v7 M-2.5,-0.5L0,-3.0L2.5,-0.5"/>
                </g>
                <g id="arrowDown" xlink:href="#dirArrow" transform="rotate(180) translate(-30 -48)" onmousedown="handlePan(0,1)">
                  <use xlink:href="#rim" fill="#404040">
                        <set attributeName="fill" to="#808080" begin="arrowDown.mouseover" end="arrowDown.mouseout"/>
                  </use>
                  <path fill="none" stroke="white" stroke-width="1.5" d="M0,-3.0v7 M-2.5,-0.5L0,-3.0L2.5,-0.5"/>
                </g>
                <g id="arrowLeft" xlink:href="#dirArrow" transform="rotate(270) translate(-36 17)" onmousedown="handlePan(-1,0)">
                  <use xlink:href="#rim" fill="#404040">
                        <set attributeName="fill" to="#808080" begin="arrowLeft.mouseover" end="arrowLeft.mouseout"/>
                  </use>
                  <path fill="none" stroke="white" stroke-width="1.5" d="M0,-3.0v7 M-2.5,-0.5L0,-3.0L2.5,-0.5"/>
                </g>
        </g>
        <svg viewBox="0 0 15 15" width="100%" height="30px" preserveAspectRatio="xMaxYMin meet">
         <g id="arrow_out" transform="scale(0.3 0.3)">
          <a xlink:href="http__rpc__context_8h__dep__incl_org.svg" target="_base">
           <rect id="button" ry="5" rx="5" y="6" x="6" height="38" width="38"
                fill="#f2f5e9" fill-opacity="0.5" stroke="#606060" stroke-width="1.0"/>
           <path id="arrow"
             d="M 11.500037,31.436501 C 11.940474,20.09759 22.043105,11.32322 32.158766,21.979434 L 37.068811,17.246167 C 37.068811,17.246167 37.088388,32 37.088388,32 L 22.160133,31.978069 C 22.160133,31.978069 26.997745,27.140456 26.997745,27.140456 C 18.528582,18.264221 13.291696,25.230495 11.500037,31.436501 z"
             style="fill:#404040;"/>
          </a>
         </g>
        </svg>
</svg>
