<?xml version="1.0" encoding="UTF-8" standalone="no"?>
<!DOCTYPE svg PUBLIC "-//W3C//DTD SVG 1.1//EN"
 "http://www.w3.org/Graphics/SVG/1.1/DTD/svg11.dtd">
<!-- Generated by graphviz version 2.43.0 (0)
 -->
<!-- Title: Graphical Class Hierarchy Pages: 1 -->
<svg width="304pt" height="396pt"
 viewBox="0.00 0.00 304.00 396.00" xmlns="http://www.w3.org/2000/svg" xmlns:xlink="http://www.w3.org/1999/xlink">
<g id="graph0" class="graph" transform="scale(1 1) rotate(0) translate(4 392)">
<title>Graphical Class Hierarchy</title>
<!-- Node0 -->
<g id="node1" class="node">
<title>Node0</title>
<g id="a_node1"><a xlink:href="classccf_1_1AuthnPolicy.html" target="_top" xlink:title=" ">
<polygon fill="white" stroke="#666666" points="94,-200 0,-200 0,-181 94,-181 94,-200"/>
<text text-anchor="middle" x="47" y="-188" font-family="Helvetica,sans-Serif" font-size="10.00">ccf::AuthnPolicy</text>
</a>
</g>
</g>
<!-- Node1 -->
<g id="node2" class="node">
<title>Node1</title>
<g id="a_node2"><a xlink:href="classccf_1_1EmptyAuthnPolicy.html" target="_top" xlink:title=" ">
<polygon fill="white" stroke="#666666" points="275.5,-388 150.5,-388 150.5,-369 275.5,-369 275.5,-388"/>
<text text-anchor="middle" x="213" y="-376" font-family="Helvetica,sans-Serif" font-size="10.00">ccf::EmptyAuthnPolicy</text>
</a>
</g>
</g>
<!-- Node0&#45;&gt;Node1 -->
<g id="edge1" class="edge">
<title>Node0&#45;&gt;Node1</title>
<path fill="none" stroke="#63b8ff" d="M51.64,-210.14C59.35,-245.93 80.82,-321.64 130,-360.5 135.95,-365.2 142.86,-368.73 150.1,-371.38"/>
<polygon fill="#63b8ff" stroke="#63b8ff" points="55.01,-209.14 49.6,-200.02 48.15,-210.52 55.01,-209.14"/>
</g>
<!-- Node2 -->
<g id="node3" class="node">
<title>Node2</title>
<g id="a_node3"><a xlink:href="classccf_1_1JwtAuthnPolicy.html" target="_top" xlink:title=" ">
<polygon fill="white" stroke="#666666" points="267.5,-351 158.5,-351 158.5,-332 267.5,-332 267.5,-351"/>
<text text-anchor="middle" x="213" y="-339" font-family="Helvetica,sans-Serif" font-size="10.00">ccf::JwtAuthnPolicy</text>
</a>
</g>
</g>
<!-- Node0&#45;&gt;Node2 -->
<g id="edge2" class="edge">
<title>Node0&#45;&gt;Node2</title>
<path fill="none" stroke="#63b8ff" d="M54.48,-209.77C65.32,-238.91 89.95,-293.83 130,-322.5 138.32,-328.45 148.22,-332.57 158.21,-335.41"/>
<polygon fill="#63b8ff" stroke="#63b8ff" points="57.76,-208.54 51.11,-200.3 51.17,-210.89 57.76,-208.54"/>
</g>
<!-- Node3 -->
<g id="node4" class="node">
<title>Node3</title>
<g id="a_node4"><a xlink:href="classccf_1_1MemberCOSESign1AuthnPolicy.html" target="_top" xlink:title=" ">
<polygon fill="white" stroke="#666666" points="292,-313.5 134,-313.5 134,-283.5 292,-283.5 292,-313.5"/>
<text text-anchor="start" x="142" y="-301.5" font-family="Helvetica,sans-Serif" font-size="10.00">ccf::MemberCOSESign1Authn</text>
<text text-anchor="middle" x="213" y="-290.5" font-family="Helvetica,sans-Serif" font-size="10.00">Policy</text>
</a>
</g>
</g>
<!-- Node0&#45;&gt;Node3 -->
<g id="edge3" class="edge">
<title>Node0&#45;&gt;Node3</title>
<path fill="none" stroke="#63b8ff" d="M60.82,-208.27C75.48,-227.33 101.2,-257.19 130,-274.5 135.72,-277.94 141.97,-280.91 148.37,-283.47"/>
<polygon fill="#63b8ff" stroke="#63b8ff" points="63.52,-206.03 54.72,-200.12 57.91,-210.22 63.52,-206.03"/>
</g>
<!-- Node4 -->
<g id="node5" class="node">
<title>Node4</title>
<g id="a_node5"><a xlink:href="classccf_1_1MemberCertAuthnPolicy.html" target="_top" xlink:title=" ">
<polygon fill="white" stroke="#666666" points="290.5,-265 135.5,-265 135.5,-246 290.5,-246 290.5,-265"/>
<text text-anchor="middle" x="213" y="-253" font-family="Helvetica,sans-Serif" font-size="10.00">ccf::MemberCertAuthnPolicy</text>
</a>
</g>
</g>
<!-- Node0&#45;&gt;Node4 -->
<g id="edge4" class="edge">
<title>Node0&#45;&gt;Node4</title>
<path fill="none" stroke="#63b8ff" d="M70.84,-205.64C86.83,-215.65 109,-228.37 130,-236.5 139.68,-240.25 150.29,-243.38 160.58,-245.94"/>
<polygon fill="#63b8ff" stroke="#63b8ff" points="72.51,-202.55 62.2,-200.12 68.74,-208.45 72.51,-202.55"/>
</g>
<!-- Node5 -->
<g id="node6" class="node">
<title>Node5</title>
<g id="a_node6"><a xlink:href="classccf_1_1MemberSignatureAuthnPolicy.html" target="_top" xlink:title=" ">
<polygon fill="white" stroke="#666666" points="289,-227.5 137,-227.5 137,-197.5 289,-197.5 289,-227.5"/>
<text text-anchor="start" x="145" y="-215.5" font-family="Helvetica,sans-Serif" font-size="10.00">ccf::MemberSignatureAuthn</text>
<text text-anchor="middle" x="213" y="-204.5" font-family="Helvetica,sans-Serif" font-size="10.00">Policy</text>
</a>
</g>
</g>
<!-- Node0&#45;&gt;Node5 -->
<g id="edge5" class="edge">
<title>Node0&#45;&gt;Node5</title>
<path fill="none" stroke="#63b8ff" d="M104.33,-198.06C114.78,-199.46 125.84,-200.94 136.75,-202.4"/>
<polygon fill="#63b8ff" stroke="#63b8ff" points="104.5,-194.55 94.12,-196.69 103.57,-201.49 104.5,-194.55"/>
</g>
<!-- Node6 -->
<g id="node7" class="node">
<title>Node6</title>
<g id="a_node7"><a xlink:href="classccf_1_1NodeCertAuthnPolicy.html" target="_top" xlink:title=" ">
<polygon fill="white" stroke="#666666" points="283,-179 143,-179 143,-160 283,-160 283,-179"/>
<text text-anchor="middle" x="213" y="-167" font-family="Helvetica,sans-Serif" font-size="10.00">ccf::NodeCertAuthnPolicy</text>
</a>
</g>
</g>
<!-- Node0&#45;&gt;Node6 -->
<g id="edge6" class="edge">
<title>Node0&#45;&gt;Node6</title>
<path fill="none" stroke="#63b8ff" d="M104.33,-183.29C116.77,-181.69 130.08,-179.99 142.95,-178.34"/>
<polygon fill="#63b8ff" stroke="#63b8ff" points="103.59,-179.85 94.12,-184.59 104.48,-186.8 103.59,-179.85"/>
</g>
<!-- Node7 -->
<g id="node8" class="node">
<title>Node7</title>
<g id="a_node8"><a xlink:href="classccf_1_1UserCertAuthnPolicy.html" target="_top" xlink:title=" ">
<polygon fill="white" stroke="#666666" points="281.5,-142 144.5,-142 144.5,-123 281.5,-123 281.5,-142"/>
<text text-anchor="middle" x="213" y="-130" font-family="Helvetica,sans-Serif" font-size="10.00">ccf::UserCertAuthnPolicy</text>
</a>
</g>
</g>
<!-- Node0&#45;&gt;Node7 -->
<g id="edge7" class="edge">
<title>Node0&#45;&gt;Node7</title>
<path fill="none" stroke="#63b8ff" d="M74.58,-176.06C90.33,-167.95 110.9,-158.17 130,-151.5 140.49,-147.84 151.97,-144.68 162.94,-142.04"/>
<polygon fill="#63b8ff" stroke="#63b8ff" points="72.68,-173.1 65.45,-180.84 75.93,-179.3 72.68,-173.1"/>
</g>
<!-- Node8 -->
<g id="node9" class="node">
<title>Node8</title>
<g id="a_node9"><a xlink:href="classccf_1_1UserSignatureAuthnPolicy.html" target="_top" xlink:title=" ">
<polygon fill="white" stroke="#666666" points="294.5,-105 131.5,-105 131.5,-86 294.5,-86 294.5,-105"/>
<text text-anchor="middle" x="213" y="-93" font-family="Helvetica,sans-Serif" font-size="10.00">ccf::UserSignatureAuthnPolicy</text>
</a>
</g>
</g>
<!-- Node0&#45;&gt;Node8 -->
<g id="edge8" class="edge">
<title>Node0&#45;&gt;Node8</title>
<path fill="none" stroke="#63b8ff" d="M61.93,-173.1C76.9,-155.61 102.29,-129.19 130,-114.5 137.36,-110.6 145.51,-107.49 153.73,-105.02"/>
<polygon fill="#63b8ff" stroke="#63b8ff" points="59.17,-170.95 55.46,-180.88 64.55,-175.43 59.17,-170.95"/>
</g>
<!-- Node9 -->
<g id="node10" class="node">
<title>Node9</title>
<g id="a_node10"><a xlink:href="classexternalexecutor_1_1ExecutorAuthPolicy.html" target="_top" xlink:title=" ">
<polygon fill="white" stroke="#666666" points="286.5,-67.5 139.5,-67.5 139.5,-37.5 286.5,-37.5 286.5,-67.5"/>
<text text-anchor="start" x="147.5" y="-55.5" font-family="Helvetica,sans-Serif" font-size="10.00">externalexecutor::Executor</text>
<text text-anchor="middle" x="213" y="-44.5" font-family="Helvetica,sans-Serif" font-size="10.00">AuthPolicy</text>
</a>
</g>
</g>
<!-- Node0&#45;&gt;Node9 -->
<g id="edge9" class="edge">
<title>Node0&#45;&gt;Node9</title>
<path fill="none" stroke="#63b8ff" d="M56.89,-171.45C69.6,-146.28 95.31,-102.24 130,-77.5 135.45,-73.61 141.52,-70.32 147.82,-67.53"/>
<polygon fill="#63b8ff" stroke="#63b8ff" points="53.63,-170.16 52.39,-180.68 59.92,-173.23 53.63,-170.16"/>
</g>
<!-- Node10 -->
<g id="node11" class="node">
<title>Node10</title>
<g id="a_node11"><a xlink:href="classloggingapp_1_1CustomAuthPolicy.html" target="_top" xlink:title=" ">
<polygon fill="white" stroke="#666666" points="296,-19 130,-19 130,0 296,0 296,-19"/>
<text text-anchor="middle" x="213" y="-7" font-family="Helvetica,sans-Serif" font-size="10.00">loggingapp::CustomAuthPolicy</text>
</a>
</g>
</g>
<!-- Node0&#45;&gt;Node10 -->
<g id="edge10" class="edge">
<title>Node0&#45;&gt;Node10</title>
<path fill="none" stroke="#63b8ff" d="M52.21,-170.84C60.65,-136.41 82.99,-65.36 130,-28.5 134.94,-24.62 140.54,-21.51 146.43,-19.02"/>
<polygon fill="#63b8ff" stroke="#63b8ff" points="48.79,-170.11 49.95,-180.64 55.61,-171.69 48.79,-170.11"/>
</g>
</g>
</svg>
