<?xml version="1.0" encoding="UTF-8" standalone="no"?>
<!DOCTYPE svg PUBLIC "-//W3C//DTD SVG 1.1//EN"
 "http://www.w3.org/Graphics/SVG/1.1/DTD/svg11.dtd">
<!-- Generated by graphviz version 2.43.0 (0)
 -->
<!-- Title: Graphical Class Hierarchy Pages: 1 -->
<svg width="317pt" height="396pt"
 viewBox="0.00 0.00 317.00 396.00" xmlns="http://www.w3.org/2000/svg" xmlns:xlink="http://www.w3.org/1999/xlink">
<g id="graph0" class="graph" transform="scale(1 1) rotate(0) translate(4 392)">
<title>Graphical Class Hierarchy</title>
<!-- Node0 -->
<g id="node1" class="node">
<title>Node0</title>
<g id="a_node1"><a xlink:href="structccf_1_1AuthnIdentity.html" target="_top" xlink:title=" ">
<polygon fill="white" stroke="#666666" points="102,-200 0,-200 0,-181 102,-181 102,-200"/>
<text text-anchor="middle" x="51" y="-188" font-family="Helvetica,sans-Serif" font-size="10.00">ccf::AuthnIdentity</text>
</a>
</g>
</g>
<!-- Node1 -->
<g id="node2" class="node">
<title>Node1</title>
<g id="a_node2"><a xlink:href="structccf_1_1EmptyAuthnIdentity.html" target="_top" xlink:title=" ">
<polygon fill="white" stroke="#666666" points="290.5,-388 156.5,-388 156.5,-369 290.5,-369 290.5,-388"/>
<text text-anchor="middle" x="223.5" y="-376" font-family="Helvetica,sans-Serif" font-size="10.00">ccf::EmptyAuthnIdentity</text>
</a>
</g>
</g>
<!-- Node0&#45;&gt;Node1 -->
<g id="edge1" class="edge">
<title>Node0&#45;&gt;Node1</title>
<path fill="none" stroke="#63b8ff" d="M56.1,-210.19C64.64,-246.06 87.87,-321.9 138,-360.5 143.47,-364.71 149.7,-367.99 156.24,-370.53"/>
<polygon fill="#63b8ff" stroke="#63b8ff" points="59.43,-209.04 53.82,-200.05 52.59,-210.57 59.43,-209.04"/>
</g>
<!-- Node2 -->
<g id="node3" class="node">
<title>Node2</title>
<g id="a_node3"><a xlink:href="structccf_1_1JwtAuthnIdentity.html" target="_top" xlink:title=" ">
<polygon fill="white" stroke="#666666" points="282,-351 165,-351 165,-332 282,-332 282,-351"/>
<text text-anchor="middle" x="223.5" y="-339" font-family="Helvetica,sans-Serif" font-size="10.00">ccf::JwtAuthnIdentity</text>
</a>
</g>
</g>
<!-- Node0&#45;&gt;Node2 -->
<g id="edge2" class="edge">
<title>Node0&#45;&gt;Node2</title>
<path fill="none" stroke="#63b8ff" d="M59.04,-209.81C70.73,-239.01 96.99,-294 138,-322.5 146.03,-328.08 155.42,-332.05 164.98,-334.87"/>
<polygon fill="#63b8ff" stroke="#63b8ff" points="62.25,-208.4 55.4,-200.32 55.72,-210.91 62.25,-208.4"/>
</g>
<!-- Node3 -->
<g id="node4" class="node">
<title>Node3</title>
<g id="a_node4"><a xlink:href="structccf_1_1MemberCOSESign1AuthnIdentity.html" target="_top" xlink:title=" ">
<polygon fill="white" stroke="#666666" points="302.5,-313.5 144.5,-313.5 144.5,-283.5 302.5,-283.5 302.5,-313.5"/>
<text text-anchor="start" x="152.5" y="-301.5" font-family="Helvetica,sans-Serif" font-size="10.00">ccf::MemberCOSESign1Authn</text>
<text text-anchor="middle" x="223.5" y="-290.5" font-family="Helvetica,sans-Serif" font-size="10.00">Identity</text>
</a>
</g>
</g>
<!-- Node0&#45;&gt;Node3 -->
<g id="edge3" class="edge">
<title>Node0&#45;&gt;Node3</title>
<path fill="none" stroke="#63b8ff" d="M65.4,-208.03C80.88,-227.1 108.09,-257.17 138,-274.5 143.94,-277.94 150.4,-280.91 157.02,-283.48"/>
<polygon fill="#63b8ff" stroke="#63b8ff" points="68.1,-205.8 59.15,-200.13 62.61,-210.14 68.1,-205.8"/>
</g>
<!-- Node4 -->
<g id="node5" class="node">
<title>Node4</title>
<g id="a_node5"><a xlink:href="structccf_1_1MemberCertAuthnIdentity.html" target="_top" xlink:title=" ">
<polygon fill="white" stroke="#666666" points="305,-265 142,-265 142,-246 305,-246 305,-265"/>
<text text-anchor="middle" x="223.5" y="-253" font-family="Helvetica,sans-Serif" font-size="10.00">ccf::MemberCertAuthnIdentity</text>
</a>
</g>
</g>
<!-- Node0&#45;&gt;Node4 -->
<g id="edge4" class="edge">
<title>Node0&#45;&gt;Node4</title>
<path fill="none" stroke="#63b8ff" d="M75.57,-205.35C92.41,-215.4 115.91,-228.28 138,-236.5 148.01,-240.22 158.96,-243.34 169.57,-245.91"/>
<polygon fill="#63b8ff" stroke="#63b8ff" points="77.31,-202.32 66.95,-200.11 73.68,-208.3 77.31,-202.32"/>
</g>
<!-- Node5 -->
<g id="node6" class="node">
<title>Node5</title>
<g id="a_node6"><a xlink:href="structccf_1_1MemberSignatureAuthnIdentity.html" target="_top" xlink:title=" ">
<polygon fill="white" stroke="#666666" points="299.5,-227.5 147.5,-227.5 147.5,-197.5 299.5,-197.5 299.5,-227.5"/>
<text text-anchor="start" x="155.5" y="-215.5" font-family="Helvetica,sans-Serif" font-size="10.00">ccf::MemberSignatureAuthn</text>
<text text-anchor="middle" x="223.5" y="-204.5" font-family="Helvetica,sans-Serif" font-size="10.00">Identity</text>
</a>
</g>
</g>
<!-- Node0&#45;&gt;Node5 -->
<g id="edge5" class="edge">
<title>Node0&#45;&gt;Node5</title>
<path fill="none" stroke="#63b8ff" d="M112.41,-198.29C123.71,-199.75 135.66,-201.29 147.34,-202.8"/>
<polygon fill="#63b8ff" stroke="#63b8ff" points="112.6,-194.79 102.23,-196.98 111.7,-201.73 112.6,-194.79"/>
</g>
<!-- Node6 -->
<g id="node7" class="node">
<title>Node6</title>
<g id="a_node7"><a xlink:href="structccf_1_1NodeCertAuthnIdentity.html" target="_top" xlink:title=" ">
<polygon fill="white" stroke="#666666" points="297.5,-179 149.5,-179 149.5,-160 297.5,-160 297.5,-179"/>
<text text-anchor="middle" x="223.5" y="-167" font-family="Helvetica,sans-Serif" font-size="10.00">ccf::NodeCertAuthnIdentity</text>
</a>
</g>
</g>
<!-- Node0&#45;&gt;Node6 -->
<g id="edge6" class="edge">
<title>Node0&#45;&gt;Node6</title>
<path fill="none" stroke="#63b8ff" d="M112.48,-183.05C124.38,-181.59 136.98,-180.03 149.25,-178.52"/>
<polygon fill="#63b8ff" stroke="#63b8ff" points="111.73,-179.62 102.23,-184.31 112.59,-186.56 111.73,-179.62"/>
</g>
<!-- Node7 -->
<g id="node8" class="node">
<title>Node7</title>
<g id="a_node8"><a xlink:href="structccf_1_1UserCertAuthnIdentity.html" target="_top" xlink:title=" ">
<polygon fill="white" stroke="#666666" points="296,-142 151,-142 151,-123 296,-123 296,-142"/>
<text text-anchor="middle" x="223.5" y="-130" font-family="Helvetica,sans-Serif" font-size="10.00">ccf::UserCertAuthnIdentity</text>
</a>
</g>
</g>
<!-- Node0&#45;&gt;Node7 -->
<g id="edge7" class="edge">
<title>Node0&#45;&gt;Node7</title>
<path fill="none" stroke="#63b8ff" d="M79.47,-176.3C96.08,-168.16 117.86,-158.25 138,-151.5 148.84,-147.87 160.68,-144.72 171.99,-142.08"/>
<polygon fill="#63b8ff" stroke="#63b8ff" points="77.73,-173.26 70.35,-180.85 80.86,-179.52 77.73,-173.26"/>
</g>
<!-- Node8 -->
<g id="node9" class="node">
<title>Node8</title>
<g id="a_node9"><a xlink:href="structccf_1_1UserSignatureAuthnIdentity.html" target="_top" xlink:title=" ">
<polygon fill="white" stroke="#666666" points="309,-105 138,-105 138,-86 309,-86 309,-105"/>
<text text-anchor="middle" x="223.5" y="-93" font-family="Helvetica,sans-Serif" font-size="10.00">ccf::UserSignatureAuthnIdentity</text>
</a>
</g>
</g>
<!-- Node0&#45;&gt;Node8 -->
<g id="edge8" class="edge">
<title>Node0&#45;&gt;Node8</title>
<path fill="none" stroke="#63b8ff" d="M66.77,-173.08C82.6,-155.58 109.33,-129.15 138,-114.5 145.63,-110.6 154.05,-107.49 162.54,-105.02"/>
<polygon fill="#63b8ff" stroke="#63b8ff" points="63.9,-171.05 59.92,-180.87 69.15,-175.68 63.9,-171.05"/>
</g>
<!-- Node9 -->
<g id="node10" class="node">
<title>Node9</title>
<g id="a_node10"><a xlink:href="structexternalexecutor_1_1ExecutorIdentity.html" target="_top" xlink:title=" ">
<polygon fill="white" stroke="#666666" points="297,-67.5 150,-67.5 150,-37.5 297,-37.5 297,-67.5"/>
<text text-anchor="start" x="158" y="-55.5" font-family="Helvetica,sans-Serif" font-size="10.00">externalexecutor::Executor</text>
<text text-anchor="middle" x="223.5" y="-44.5" font-family="Helvetica,sans-Serif" font-size="10.00">Identity</text>
</a>
</g>
</g>
<!-- Node0&#45;&gt;Node9 -->
<g id="edge9" class="edge">
<title>Node0&#45;&gt;Node9</title>
<path fill="none" stroke="#63b8ff" d="M61.33,-171.79C74.83,-146.64 102.15,-102.23 138,-77.5 143.54,-73.68 149.67,-70.43 156.03,-67.67"/>
<polygon fill="#63b8ff" stroke="#63b8ff" points="58.06,-170.5 56.56,-180.99 64.27,-173.73 58.06,-170.5"/>
</g>
<!-- Node10 -->
<g id="node11" class="node">
<title>Node10</title>
<g id="a_node11"><a xlink:href="structloggingapp_1_1CustomIdentity.html" target="_top" xlink:title=" ">
<polygon fill="white" stroke="#666666" points="299.5,-19 147.5,-19 147.5,0 299.5,0 299.5,-19"/>
<text text-anchor="middle" x="223.5" y="-7" font-family="Helvetica,sans-Serif" font-size="10.00">loggingapp::CustomIdentity</text>
</a>
</g>
</g>
<!-- Node0&#45;&gt;Node10 -->
<g id="edge10" class="edge">
<title>Node0&#45;&gt;Node10</title>
<path fill="none" stroke="#63b8ff" d="M56.69,-170.79C65.96,-136.28 90.04,-65.11 138,-28.5 143.02,-24.67 148.67,-21.58 154.6,-19.1"/>
<polygon fill="#63b8ff" stroke="#63b8ff" points="53.26,-170.06 54.18,-180.62 60.04,-171.79 53.26,-170.06"/>
</g>
</g>
</svg>
