<?xml version="1.0" encoding="UTF-8" standalone="no"?>
<!DOCTYPE svg PUBLIC "-//W3C//DTD SVG 1.1//EN"
 "http://www.w3.org/Graphics/SVG/1.1/DTD/svg11.dtd">
<!-- Generated by graphviz version 2.43.0 (0)
 -->
<!-- Title: src/http/responder_lookup.h Pages: 1 -->
<svg width="534pt" height="434pt"
 viewBox="0.00 0.00 533.53 434.00" xmlns="http://www.w3.org/2000/svg" xmlns:xlink="http://www.w3.org/1999/xlink">
<g id="graph0" class="graph" transform="scale(1 1) rotate(0) translate(4 430)">
<title>src/http/responder_lookup.h</title>
<!-- Node1 -->
<g id="node1" class="node">
<title>Node1</title>
<g id="a_node1"><a xlink:title=" ">
<polygon fill="#999999" stroke="#666666" points="252.03,-426 147.03,-426 147.03,-396 252.03,-396 252.03,-426"/>
<text text-anchor="start" x="155.03" y="-414" font-family="Helvetica,sans-Serif" font-size="10.00">src/http/responder</text>
<text text-anchor="middle" x="199.53" y="-403" font-family="Helvetica,sans-Serif" font-size="10.00">_lookup.h</text>
</a>
</g>
</g>
<!-- Node2 -->
<g id="node2" class="node">
<title>Node2</title>
<g id="a_node2"><a xlink:href="rpc__sessions_8h.html" target="_top" xlink:title=" ">
<polygon fill="white" stroke="#666666" points="272.53,-305 126.53,-305 126.53,-286 272.53,-286 272.53,-305"/>
<text text-anchor="middle" x="199.53" y="-293" font-family="Helvetica,sans-Serif" font-size="10.00">src/enclave/rpc_sessions.h</text>
</a>
</g>
</g>
<!-- Node1&#45;&gt;Node2 -->
<g id="edge1" class="edge">
<title>Node1&#45;&gt;Node2</title>
<path fill="none" stroke="#63b8ff" d="M182.01,-387.29C173.9,-374.03 166.96,-356.85 171.53,-341 175.48,-327.32 185.01,-313.79 191.86,-305.3"/>
<polygon fill="#63b8ff" stroke="#63b8ff" points="179.21,-389.41 187.68,-395.77 185.03,-385.52 179.21,-389.41"/>
</g>
<!-- Node10 -->
<g id="node10" class="node">
<title>Node10</title>
<g id="a_node10"><a xlink:href="http2__session_8h.html" target="_top" xlink:title=" ">
<polygon fill="white" stroke="#666666" points="314.03,-360 181.03,-360 181.03,-341 314.03,-341 314.03,-360"/>
<text text-anchor="middle" x="247.53" y="-348" font-family="Helvetica,sans-Serif" font-size="10.00">src/http/http2_session.h</text>
</a>
</g>
</g>
<!-- Node1&#45;&gt;Node10 -->
<g id="edge14" class="edge">
<title>Node1&#45;&gt;Node10</title>
<path fill="none" stroke="#63b8ff" d="M217.51,-388.09C225.44,-378.42 234.31,-367.61 240.34,-360.27"/>
<polygon fill="#63b8ff" stroke="#63b8ff" points="214.79,-385.89 211.15,-395.84 220.2,-390.33 214.79,-385.89"/>
</g>
<!-- Node3 -->
<g id="node3" class="node">
<title>Node3</title>
<g id="a_node3"><a xlink:href="src_2enclave_2enclave_8h.html" target="_top" xlink:title=" ">
<polygon fill="white" stroke="#666666" points="160.53,-74 38.53,-74 38.53,-55 160.53,-55 160.53,-74"/>
<text text-anchor="middle" x="99.53" y="-62" font-family="Helvetica,sans-Serif" font-size="10.00">src/enclave/enclave.h</text>
</a>
</g>
</g>
<!-- Node2&#45;&gt;Node3 -->
<g id="edge2" class="edge">
<title>Node2&#45;&gt;Node3</title>
<path fill="none" stroke="#63b8ff" d="M116.43,-284.77C73.21,-277.81 26.7,-266.69 13.53,-250 -33.09,-190.9 57.4,-102.42 89.12,-74.37"/>
<polygon fill="#63b8ff" stroke="#63b8ff" points="116.03,-288.25 126.45,-286.32 117.1,-281.33 116.03,-288.25"/>
</g>
<!-- Node5 -->
<g id="node5" class="node">
<title>Node5</title>
<g id="a_node5"><a xlink:href="ccf__acme__client_8h.html" target="_top" xlink:title=" ">
<polygon fill="white" stroke="#666666" points="172.03,-244.5 23.03,-244.5 23.03,-225.5 172.03,-225.5 172.03,-244.5"/>
<text text-anchor="middle" x="97.53" y="-232.5" font-family="Helvetica,sans-Serif" font-size="10.00">src/node/ccf_acme_client.h</text>
</a>
</g>
</g>
<!-- Node2&#45;&gt;Node5 -->
<g id="edge4" class="edge">
<title>Node2&#45;&gt;Node5</title>
<path fill="none" stroke="#63b8ff" d="M175.59,-280.77C156.12,-269.6 129.24,-254.19 112.64,-244.67"/>
<polygon fill="#63b8ff" stroke="#63b8ff" points="174.06,-283.93 184.48,-285.87 177.55,-277.86 174.06,-283.93"/>
</g>
<!-- Node6 -->
<g id="node6" class="node">
<title>Node6</title>
<g id="a_node6"><a xlink:href="node__state_8h.html" target="_top" xlink:title=" ">
<polygon fill="white" stroke="#666666" points="261.53,-184 137.53,-184 137.53,-165 261.53,-165 261.53,-184"/>
<text text-anchor="middle" x="199.53" y="-172" font-family="Helvetica,sans-Serif" font-size="10.00">src/node/node_state.h</text>
</a>
</g>
</g>
<!-- Node2&#45;&gt;Node6 -->
<g id="edge9" class="edge">
<title>Node2&#45;&gt;Node6</title>
<path fill="none" stroke="#63b8ff" d="M199.53,-275.86C199.53,-249.81 199.53,-203.56 199.53,-184.3"/>
<polygon fill="#63b8ff" stroke="#63b8ff" points="196.03,-275.94 199.53,-285.94 203.03,-275.94 196.03,-275.94"/>
</g>
<!-- Node8 -->
<g id="node8" class="node">
<title>Node8</title>
<g id="a_node8"><a xlink:href="quote__endorsements__client_8h.html" target="_top" xlink:title=" ">
<polygon fill="white" stroke="#666666" points="391.53,-250 227.53,-250 227.53,-220 391.53,-220 391.53,-250"/>
<text text-anchor="start" x="235.53" y="-238" font-family="Helvetica,sans-Serif" font-size="10.00">src/node/quote_endorsements</text>
<text text-anchor="middle" x="309.53" y="-227" font-family="Helvetica,sans-Serif" font-size="10.00">_client.h</text>
</a>
</g>
</g>
<!-- Node2&#45;&gt;Node8 -->
<g id="edge10" class="edge">
<title>Node2&#45;&gt;Node8</title>
<path fill="none" stroke="#63b8ff" d="M224.78,-281.07C242.2,-271.81 265.3,-259.52 282.99,-250.11"/>
<polygon fill="#63b8ff" stroke="#63b8ff" points="222.95,-278.08 215.76,-285.87 226.23,-284.26 222.95,-278.08"/>
</g>
<!-- Node9 -->
<g id="node9" class="node">
<title>Node9</title>
<g id="a_node9"><a xlink:href="resharing_8h.html" target="_top" xlink:title=" ">
<polygon fill="white" stroke="#666666" points="525.53,-244.5 409.53,-244.5 409.53,-225.5 525.53,-225.5 525.53,-244.5"/>
<text text-anchor="middle" x="467.53" y="-232.5" font-family="Helvetica,sans-Serif" font-size="10.00">src/node/resharing.h</text>
</a>
</g>
</g>
<!-- Node2&#45;&gt;Node9 -->
<g id="edge12" class="edge">
<title>Node2&#45;&gt;Node9</title>
<path fill="none" stroke="#63b8ff" d="M248.45,-283.82C300.21,-272.52 380.86,-254.92 428.51,-244.52"/>
<polygon fill="#63b8ff" stroke="#63b8ff" points="247.52,-280.44 238.5,-285.99 249.02,-287.28 247.52,-280.44"/>
</g>
<!-- Node4 -->
<g id="node4" class="node">
<title>Node4</title>
<g id="a_node4"><a xlink:href="enclave_2main_8cpp.html" target="_top" xlink:title=" ">
<polygon fill="white" stroke="#666666" points="159.53,-19 39.53,-19 39.53,0 159.53,0 159.53,-19"/>
<text text-anchor="middle" x="99.53" y="-7" font-family="Helvetica,sans-Serif" font-size="10.00">src/enclave/main.cpp</text>
</a>
</g>
</g>
<!-- Node3&#45;&gt;Node4 -->
<g id="edge3" class="edge">
<title>Node3&#45;&gt;Node4</title>
<path fill="none" stroke="#63b8ff" d="M99.53,-44.66C99.53,-35.93 99.53,-25.99 99.53,-19.09"/>
<polygon fill="#63b8ff" stroke="#63b8ff" points="96.03,-44.75 99.53,-54.75 103.03,-44.75 96.03,-44.75"/>
</g>
<!-- Node5&#45;&gt;Node6 -->
<g id="edge5" class="edge">
<title>Node5&#45;&gt;Node6</title>
<path fill="none" stroke="#63b8ff" d="M121.47,-220.27C140.94,-209.1 167.82,-193.69 184.42,-184.17"/>
<polygon fill="#63b8ff" stroke="#63b8ff" points="119.51,-217.36 112.58,-225.37 123,-223.43 119.51,-217.36"/>
</g>
<!-- Node6&#45;&gt;Node3 -->
<g id="edge6" class="edge">
<title>Node6&#45;&gt;Node3</title>
<path fill="none" stroke="#63b8ff" d="M163.48,-160.95C147.68,-153.81 130.14,-143.37 118.53,-129 105.37,-112.71 101.32,-87.49 100.08,-74.27"/>
<polygon fill="#63b8ff" stroke="#63b8ff" points="162.45,-164.32 173.02,-164.98 165.17,-157.87 162.45,-164.32"/>
</g>
<!-- Node7 -->
<g id="node7" class="node">
<title>Node7</title>
<g id="a_node7"><a xlink:href="gov__effects_8h.html" target="_top" xlink:title=" ">
<polygon fill="white" stroke="#666666" points="271.53,-129 127.53,-129 127.53,-110 271.53,-110 271.53,-129"/>
<text text-anchor="middle" x="199.53" y="-117" font-family="Helvetica,sans-Serif" font-size="10.00">src/node/rpc/gov_effects.h</text>
</a>
</g>
</g>
<!-- Node6&#45;&gt;Node7 -->
<g id="edge7" class="edge">
<title>Node6&#45;&gt;Node7</title>
<path fill="none" stroke="#63b8ff" d="M199.53,-154.66C199.53,-145.93 199.53,-135.99 199.53,-129.09"/>
<polygon fill="#63b8ff" stroke="#63b8ff" points="196.03,-154.75 199.53,-164.75 203.03,-154.75 196.03,-154.75"/>
</g>
<!-- Node7&#45;&gt;Node3 -->
<g id="edge8" class="edge">
<title>Node7&#45;&gt;Node3</title>
<path fill="none" stroke="#63b8ff" d="M174.5,-105.23C156.16,-95.51 131.79,-82.6 115.89,-74.17"/>
<polygon fill="#63b8ff" stroke="#63b8ff" points="172.99,-108.39 183.46,-109.98 176.27,-102.21 172.99,-108.39"/>
</g>
<!-- Node8&#45;&gt;Node6 -->
<g id="edge11" class="edge">
<title>Node8&#45;&gt;Node6</title>
<path fill="none" stroke="#63b8ff" d="M274.2,-215.21C254.57,-204.77 231.09,-192.29 215.78,-184.14"/>
<polygon fill="#63b8ff" stroke="#63b8ff" points="272.71,-218.38 283.18,-219.99 276,-212.2 272.71,-218.38"/>
</g>
<!-- Node9&#45;&gt;Node6 -->
<g id="edge13" class="edge">
<title>Node9&#45;&gt;Node6</title>
<path fill="none" stroke="#63b8ff" d="M418.61,-223.32C366.85,-212.02 286.2,-194.42 238.55,-184.02"/>
<polygon fill="#63b8ff" stroke="#63b8ff" points="418.04,-226.78 428.56,-225.49 419.54,-219.94 418.04,-226.78"/>
</g>
<!-- Node10&#45;&gt;Node2 -->
<g id="edge15" class="edge">
<title>Node10&#45;&gt;Node2</title>
<path fill="none" stroke="#63b8ff" d="M232.8,-333.24C224.39,-323.95 214.18,-312.68 207.31,-305.09"/>
<polygon fill="#63b8ff" stroke="#63b8ff" points="230.3,-335.69 239.6,-340.75 235.49,-330.99 230.3,-335.69"/>
</g>
</g>
</svg>
