<?xml version="1.0" encoding="UTF-8" standalone="no"?>
<!DOCTYPE svg PUBLIC "-//W3C//DTD SVG 1.1//EN"
 "http://www.w3.org/Graphics/SVG/1.1/DTD/svg11.dtd">
<!-- Generated by graphviz version 2.43.0 (0)
 -->
<!-- Title: src/http/responder_lookup.h Pages: 1 -->
<svg width="2364pt" height="423pt"
 viewBox="0.00 0.00 2364.00 423.00" xmlns="http://www.w3.org/2000/svg" xmlns:xlink="http://www.w3.org/1999/xlink">
<g id="graph0" class="graph" transform="scale(1 1) rotate(0) translate(4 419)">
<title>src/http/responder_lookup.h</title>
<!-- Node1 -->
<g id="node1" class="node">
<title>Node1</title>
<g id="a_node1"><a xlink:title=" ">
<polygon fill="#999999" stroke="#666666" points="1226.5,-415 1121.5,-415 1121.5,-385 1226.5,-385 1226.5,-415"/>
<text text-anchor="start" x="1129.5" y="-403" font-family="Helvetica,sans-Serif" font-size="10.00">src/http/responder</text>
<text text-anchor="middle" x="1174" y="-392" font-family="Helvetica,sans-Serif" font-size="10.00">_lookup.h</text>
</a>
</g>
</g>
<!-- Node2 -->
<g id="node2" class="node">
<title>Node2</title>
<g id="a_node2"><a xlink:href="odata__error_8h.html" target="_top" xlink:title=" ">
<polygon fill="white" stroke="#666666" points="1084,-239 986,-239 986,-220 1084,-220 1084,-239"/>
<text text-anchor="middle" x="1035" y="-227" font-family="Helvetica,sans-Serif" font-size="10.00">ccf/odata_error.h</text>
</a>
</g>
</g>
<!-- Node1&#45;&gt;Node2 -->
<g id="edge1" class="edge">
<title>Node1&#45;&gt;Node2</title>
<path fill="none" stroke="#63b8ff" d="M1162.39,-384.92C1136.87,-353.99 1076.02,-280.23 1048.7,-247.1"/>
<polygon fill="#63b8ff" stroke="#63b8ff" points="1051.29,-244.74 1042.22,-239.25 1045.89,-249.2 1051.29,-244.74"/>
</g>
<!-- Node19 -->
<g id="node19" class="node">
<title>Node19</title>
<g id="a_node19"><a xlink:href="locking_8h.html" target="_top" xlink:title=" ">
<polygon fill="white" stroke="#666666" points="719,-349 623,-349 623,-330 719,-330 719,-349"/>
<text text-anchor="middle" x="671" y="-337" font-family="Helvetica,sans-Serif" font-size="10.00">ccf/pal/locking.h</text>
</a>
</g>
</g>
<!-- Node1&#45;&gt;Node19 -->
<g id="edge21" class="edge">
<title>Node1&#45;&gt;Node19</title>
<path fill="none" stroke="#63b8ff" d="M1121.12,-392.85C1026.23,-381.81 827.79,-358.73 729.18,-347.27"/>
<polygon fill="#63b8ff" stroke="#63b8ff" points="729.44,-343.77 719.1,-346.09 728.63,-350.73 729.44,-343.77"/>
</g>
<!-- Node21 -->
<g id="node21" class="node">
<title>Node21</title>
<g id="a_node21"><a xlink:href="http2__types_8h.html" target="_top" xlink:title=" ">
<polygon fill="white" stroke="#666666" points="1280.5,-349 1197.5,-349 1197.5,-330 1280.5,-330 1280.5,-349"/>
<text text-anchor="middle" x="1239" y="-337" font-family="Helvetica,sans-Serif" font-size="10.00">http2_types.h</text>
</a>
</g>
</g>
<!-- Node1&#45;&gt;Node21 -->
<g id="edge23" class="edge">
<title>Node1&#45;&gt;Node21</title>
<path fill="none" stroke="#63b8ff" d="M1189.73,-384.84C1199.36,-376.17 1211.69,-365.08 1221.61,-356.15"/>
<polygon fill="#63b8ff" stroke="#63b8ff" points="1224.17,-358.56 1229.26,-349.27 1219.49,-353.35 1224.17,-358.56"/>
</g>
<!-- Node50 -->
<g id="node50" class="node">
<title>Node50</title>
<g id="a_node50"><a xlink:title=" ">
<polygon fill="#e0e0e0" stroke="#999999" points="1391.5,-349 1298.5,-349 1298.5,-330 1391.5,-330 1391.5,-349"/>
<text text-anchor="middle" x="1345" y="-337" font-family="Helvetica,sans-Serif" font-size="10.00">unordered_map</text>
</a>
</g>
</g>
<!-- Node1&#45;&gt;Node50 -->
<g id="edge87" class="edge">
<title>Node1&#45;&gt;Node50</title>
<path fill="none" stroke="#63b8ff" d="M1214.96,-384.99C1244,-375.05 1282.55,-361.86 1310.12,-352.43"/>
<polygon fill="#63b8ff" stroke="#63b8ff" points="1311.42,-355.69 1319.75,-349.14 1309.15,-349.06 1311.42,-355.69"/>
</g>
<!-- Node3 -->
<g id="node3" class="node">
<title>Node3</title>
<g id="a_node3"><a xlink:href="json_8h.html" target="_top" xlink:title=" ">
<polygon fill="white" stroke="#666666" points="937.5,-184 860.5,-184 860.5,-165 937.5,-165 937.5,-184"/>
<text text-anchor="middle" x="899" y="-172" font-family="Helvetica,sans-Serif" font-size="10.00">ccf/ds/json.h</text>
</a>
</g>
</g>
<!-- Node2&#45;&gt;Node3 -->
<g id="edge2" class="edge">
<title>Node2&#45;&gt;Node3</title>
<path fill="none" stroke="#63b8ff" d="M1013.15,-219.98C990.88,-211.3 956.1,-197.75 930.78,-187.88"/>
<polygon fill="#63b8ff" stroke="#63b8ff" points="931.84,-184.54 921.25,-184.17 929.29,-191.06 931.84,-184.54"/>
</g>
<!-- Node18 -->
<g id="node18" class="node">
<title>Node18</title>
<g id="a_node18"><a xlink:href="http__status_8h.html" target="_top" xlink:title=" ">
<polygon fill="white" stroke="#666666" points="1046,-74 948,-74 948,-55 1046,-55 1046,-74"/>
<text text-anchor="middle" x="997" y="-62" font-family="Helvetica,sans-Serif" font-size="10.00">ccf/http_status.h</text>
</a>
</g>
</g>
<!-- Node2&#45;&gt;Node18 -->
<g id="edge20" class="edge">
<title>Node2&#45;&gt;Node18</title>
<path fill="none" stroke="#63b8ff" d="M1032.96,-219.74C1027,-194.2 1009.57,-119.43 1001.37,-84.23"/>
<polygon fill="#63b8ff" stroke="#63b8ff" points="1004.73,-83.25 999.05,-74.31 997.92,-84.84 1004.73,-83.25"/>
</g>
<!-- Node4 -->
<g id="node4" class="node">
<title>Node4</title>
<g id="a_node4"><a xlink:href="include_2ccf_2crypto_2base64_8h.html" target="_top" xlink:title=" ">
<polygon fill="white" stroke="#666666" points="1798,-74 1686,-74 1686,-55 1798,-55 1798,-74"/>
<text text-anchor="middle" x="1742" y="-62" font-family="Helvetica,sans-Serif" font-size="10.00">ccf/crypto/base64.h</text>
</a>
</g>
</g>
<!-- Node3&#45;&gt;Node4 -->
<g id="edge3" class="edge">
<title>Node3&#45;&gt;Node4</title>
<path fill="none" stroke="#63b8ff" d="M937.51,-170.36C1014.38,-163.94 1192.23,-148.25 1341,-129 1463.43,-113.16 1606.02,-89.27 1683.89,-75.76"/>
<polygon fill="#63b8ff" stroke="#63b8ff" points="1684.73,-79.17 1693.98,-74.01 1683.53,-72.27 1684.73,-79.17"/>
</g>
<!-- Node7 -->
<g id="node7" class="node">
<title>Node7</title>
<g id="a_node7"><a xlink:href="include_2ccf_2ds_2json__schema_8h.html" target="_top" xlink:title=" ">
<polygon fill="white" stroke="#666666" points="853.5,-129 732.5,-129 732.5,-110 853.5,-110 853.5,-129"/>
<text text-anchor="middle" x="793" y="-117" font-family="Helvetica,sans-Serif" font-size="10.00">ccf/ds/json_schema.h</text>
</a>
</g>
</g>
<!-- Node3&#45;&gt;Node7 -->
<g id="edge6" class="edge">
<title>Node3&#45;&gt;Node7</title>
<path fill="none" stroke="#63b8ff" d="M881.97,-164.98C865.07,-156.54 838.94,-143.47 819.36,-133.68"/>
<polygon fill="#63b8ff" stroke="#63b8ff" points="820.85,-130.51 810.34,-129.17 817.72,-136.77 820.85,-130.51"/>
</g>
<!-- Node15 -->
<g id="node15" class="node">
<title>Node15</title>
<g id="a_node15"><a xlink:title=" ">
<polygon fill="#e0e0e0" stroke="#999999" points="688.5,-19 609.5,-19 609.5,0 688.5,0 688.5,-19"/>
<text text-anchor="middle" x="649" y="-7" font-family="Helvetica,sans-Serif" font-size="10.00">fmt/format.h</text>
</a>
</g>
</g>
<!-- Node3&#45;&gt;Node15 -->
<g id="edge18" class="edge">
<title>Node3&#45;&gt;Node15</title>
<path fill="none" stroke="#63b8ff" d="M897.39,-164.74C892.84,-142.63 877.76,-84.22 841,-55 819.31,-37.75 748.2,-24.52 698.89,-17.12"/>
<polygon fill="#63b8ff" stroke="#63b8ff" points="699.13,-13.62 688.73,-15.63 698.12,-20.54 699.13,-13.62"/>
</g>
<!-- Node17 -->
<g id="node17" class="node">
<title>Node17</title>
<g id="a_node17"><a xlink:title=" ">
<polygon fill="#e0e0e0" stroke="#999999" points="688,-74 632,-74 632,-55 688,-55 688,-74"/>
<text text-anchor="middle" x="660" y="-62" font-family="Helvetica,sans-Serif" font-size="10.00">sstream</text>
</a>
</g>
</g>
<!-- Node3&#45;&gt;Node17 -->
<g id="edge19" class="edge">
<title>Node3&#45;&gt;Node17</title>
<path fill="none" stroke="#63b8ff" d="M860.3,-169.61C823.3,-164.57 766.96,-153.33 724,-129 703.25,-117.25 684.52,-96.99 672.77,-82.51"/>
<polygon fill="#63b8ff" stroke="#63b8ff" points="675.32,-80.09 666.39,-74.38 669.8,-84.41 675.32,-80.09"/>
</g>
<!-- Node5 -->
<g id="node5" class="node">
<title>Node5</title>
<g id="a_node5"><a xlink:title=" ">
<polygon fill="#e0e0e0" stroke="#999999" points="1396,-19 1352,-19 1352,0 1396,0 1396,-19"/>
<text text-anchor="middle" x="1374" y="-7" font-family="Helvetica,sans-Serif" font-size="10.00">string</text>
</a>
</g>
</g>
<!-- Node4&#45;&gt;Node5 -->
<g id="edge4" class="edge">
<title>Node4&#45;&gt;Node5</title>
<path fill="none" stroke="#63b8ff" d="M1685.71,-55.39C1607.67,-44.15 1469.16,-24.21 1406.45,-15.17"/>
<polygon fill="#63b8ff" stroke="#63b8ff" points="1406.75,-11.68 1396.36,-13.72 1405.75,-18.61 1406.75,-11.68"/>
</g>
<!-- Node6 -->
<g id="node6" class="node">
<title>Node6</title>
<g id="a_node6"><a xlink:title=" ">
<polygon fill="#e0e0e0" stroke="#999999" points="1974.5,-19 1927.5,-19 1927.5,0 1974.5,0 1974.5,-19"/>
<text text-anchor="middle" x="1951" y="-7" font-family="Helvetica,sans-Serif" font-size="10.00">vector</text>
</a>
</g>
</g>
<!-- Node4&#45;&gt;Node6 -->
<g id="edge5" class="edge">
<title>Node4&#45;&gt;Node6</title>
<path fill="none" stroke="#63b8ff" d="M1775.58,-54.98C1814.56,-45.1 1878.47,-28.89 1917.44,-19.01"/>
<polygon fill="#63b8ff" stroke="#63b8ff" points="1918.42,-22.37 1927.25,-16.52 1916.7,-15.59 1918.42,-22.37"/>
</g>
<!-- Node8 -->
<g id="node8" class="node">
<title>Node8</title>
<g id="a_node8"><a xlink:href="nonstd_8h.html" target="_top" xlink:title=" ">
<polygon fill="white" stroke="#666666" points="1192,-74 1102,-74 1102,-55 1192,-55 1192,-74"/>
<text text-anchor="middle" x="1147" y="-62" font-family="Helvetica,sans-Serif" font-size="10.00">ccf/ds/nonstd.h</text>
</a>
</g>
</g>
<!-- Node7&#45;&gt;Node8 -->
<g id="edge7" class="edge">
<title>Node7&#45;&gt;Node8</title>
<path fill="none" stroke="#63b8ff" d="M849.88,-109.98C916.39,-100.03 1025.74,-83.66 1091.6,-73.79"/>
<polygon fill="#63b8ff" stroke="#63b8ff" points="1092.42,-77.21 1101.79,-72.27 1091.38,-70.29 1092.42,-77.21"/>
</g>
<!-- Node14 -->
<g id="node14" class="node">
<title>Node14</title>
<g id="a_node14"><a xlink:title=" ">
<polygon fill="#e0e0e0" stroke="#999999" points="83,-74 27,-74 27,-55 83,-55 83,-74"/>
<text text-anchor="middle" x="55" y="-62" font-family="Helvetica,sans-Serif" font-size="10.00">optional</text>
</a>
</g>
</g>
<!-- Node7&#45;&gt;Node14 -->
<g id="edge15" class="edge">
<title>Node7&#45;&gt;Node14</title>
<path fill="none" stroke="#63b8ff" d="M732.21,-114.91C576.6,-105.69 171.16,-81.43 93.3,-73.65"/>
<polygon fill="#63b8ff" stroke="#63b8ff" points="93.53,-70.15 83.19,-72.47 92.72,-77.11 93.53,-70.15"/>
</g>
<!-- Node7&#45;&gt;Node15 -->
<g id="edge16" class="edge">
<title>Node7&#45;&gt;Node15</title>
<path fill="none" stroke="#63b8ff" d="M803.4,-109.67C817.29,-96.8 838.65,-72.53 825,-55 809.61,-35.23 745.46,-22.86 699.05,-16.31"/>
<polygon fill="#63b8ff" stroke="#63b8ff" points="699.23,-12.81 688.85,-14.93 698.29,-19.74 699.23,-12.81"/>
</g>
<!-- Node16 -->
<g id="node16" class="node">
<title>Node16</title>
<g id="a_node16"><a xlink:title=" ">
<polygon fill="#e0e0e0" stroke="#999999" points="816,-74 706,-74 706,-55 816,-55 816,-74"/>
<text text-anchor="middle" x="761" y="-62" font-family="Helvetica,sans-Serif" font-size="10.00">nlohmann/json.hpp</text>
</a>
</g>
</g>
<!-- Node7&#45;&gt;Node16 -->
<g id="edge17" class="edge">
<title>Node7&#45;&gt;Node16</title>
<path fill="none" stroke="#63b8ff" d="M787.72,-109.75C783.29,-102.42 776.84,-91.73 771.38,-82.7"/>
<polygon fill="#63b8ff" stroke="#63b8ff" points="774.35,-80.84 766.19,-74.09 768.36,-84.46 774.35,-80.84"/>
</g>
<!-- Node8&#45;&gt;Node5 -->
<g id="edge11" class="edge">
<title>Node8&#45;&gt;Node5</title>
<path fill="none" stroke="#63b8ff" d="M1186.91,-54.98C1224.51,-46.84 1282.65,-33.93 1341.8,-19.22"/>
<polygon fill="#63b8ff" stroke="#63b8ff" points="1342.83,-22.57 1351.68,-16.75 1341.13,-15.78 1342.83,-22.57"/>
</g>
<!-- Node8&#45;&gt;Node6 -->
<g id="edge14" class="edge">
<title>Node8&#45;&gt;Node6</title>
<path fill="none" stroke="#63b8ff" d="M1192.17,-60.54C1217.41,-58.89 1249.45,-56.81 1278,-55 1536.64,-38.61 1601.62,-39.05 1860,-19 1879,-17.53 1900.19,-15.56 1917.35,-13.9"/>
<polygon fill="#63b8ff" stroke="#63b8ff" points="1917.84,-17.37 1927.45,-12.9 1917.15,-10.4 1917.84,-17.37"/>
</g>
<!-- Node9 -->
<g id="node9" class="node">
<title>Node9</title>
<g id="a_node9"><a xlink:title=" ">
<polygon fill="#e0e0e0" stroke="#999999" points="1216,-19 1152,-19 1152,0 1216,0 1216,-19"/>
<text text-anchor="middle" x="1184" y="-7" font-family="Helvetica,sans-Serif" font-size="10.00">algorithm</text>
</a>
</g>
</g>
<!-- Node8&#45;&gt;Node9 -->
<g id="edge8" class="edge">
<title>Node8&#45;&gt;Node9</title>
<path fill="none" stroke="#63b8ff" d="M1153.11,-54.75C1158.28,-47.34 1165.85,-36.5 1172.19,-27.41"/>
<polygon fill="#63b8ff" stroke="#63b8ff" points="1175.15,-29.29 1178,-19.09 1169.41,-25.29 1175.15,-29.29"/>
</g>
<!-- Node10 -->
<g id="node10" class="node">
<title>Node10</title>
<g id="a_node10"><a xlink:title=" ">
<polygon fill="#e0e0e0" stroke="#999999" points="1641,-19 1599,-19 1599,0 1641,0 1641,-19"/>
<text text-anchor="middle" x="1620" y="-7" font-family="Helvetica,sans-Serif" font-size="10.00">array</text>
</a>
</g>
</g>
<!-- Node8&#45;&gt;Node10 -->
<g id="edge9" class="edge">
<title>Node8&#45;&gt;Node10</title>
<path fill="none" stroke="#63b8ff" d="M1192.35,-58.42C1287.73,-47.73 1506.99,-23.16 1588.62,-14.02"/>
<polygon fill="#63b8ff" stroke="#63b8ff" points="1589.21,-17.47 1598.76,-12.88 1588.43,-10.52 1589.21,-17.47"/>
</g>
<!-- Node11 -->
<g id="node11" class="node">
<title>Node11</title>
<g id="a_node11"><a xlink:title=" ">
<polygon fill="#e0e0e0" stroke="#999999" points="1133.5,-19 1084.5,-19 1084.5,0 1133.5,0 1133.5,-19"/>
<text text-anchor="middle" x="1109" y="-7" font-family="Helvetica,sans-Serif" font-size="10.00">cctype</text>
</a>
</g>
</g>
<!-- Node8&#45;&gt;Node11 -->
<g id="edge10" class="edge">
<title>Node8&#45;&gt;Node11</title>
<path fill="none" stroke="#63b8ff" d="M1140.73,-54.75C1135.41,-47.34 1127.64,-36.5 1121.12,-27.41"/>
<polygon fill="#63b8ff" stroke="#63b8ff" points="1123.83,-25.18 1115.16,-19.09 1118.14,-29.26 1123.83,-25.18"/>
</g>
<!-- Node12 -->
<g id="node12" class="node">
<title>Node12</title>
<g id="a_node12"><a xlink:title=" ">
<polygon fill="#e0e0e0" stroke="#999999" points="1850.5,-19 1777.5,-19 1777.5,0 1850.5,0 1850.5,-19"/>
<text text-anchor="middle" x="1814" y="-7" font-family="Helvetica,sans-Serif" font-size="10.00">string_view</text>
</a>
</g>
</g>
<!-- Node8&#45;&gt;Node12 -->
<g id="edge12" class="edge">
<title>Node8&#45;&gt;Node12</title>
<path fill="none" stroke="#63b8ff" d="M1192.06,-59.92C1313.06,-50.31 1644.2,-23.99 1767.19,-14.22"/>
<polygon fill="#63b8ff" stroke="#63b8ff" points="1767.71,-17.69 1777.41,-13.41 1767.16,-10.71 1767.71,-17.69"/>
</g>
<!-- Node13 -->
<g id="node13" class="node">
<title>Node13</title>
<g id="a_node13"><a xlink:title=" ">
<polygon fill="#e0e0e0" stroke="#999999" points="832.5,-19 763.5,-19 763.5,0 832.5,0 832.5,-19"/>
<text text-anchor="middle" x="798" y="-7" font-family="Helvetica,sans-Serif" font-size="10.00">type_traits</text>
</a>
</g>
</g>
<!-- Node8&#45;&gt;Node13 -->
<g id="edge13" class="edge">
<title>Node8&#45;&gt;Node13</title>
<path fill="none" stroke="#63b8ff" d="M1101.73,-56.63C1034.68,-46.44 909.71,-27.47 842.88,-17.32"/>
<polygon fill="#63b8ff" stroke="#63b8ff" points="843.09,-13.81 832.67,-15.77 842.04,-20.73 843.09,-13.81"/>
</g>
<!-- Node20 -->
<g id="node20" class="node">
<title>Node20</title>
<g id="a_node20"><a xlink:title=" ">
<polygon fill="#e0e0e0" stroke="#999999" points="312,-294 264,-294 264,-275 312,-275 312,-294"/>
<text text-anchor="middle" x="288" y="-282" font-family="Helvetica,sans-Serif" font-size="10.00">mutex</text>
</a>
</g>
</g>
<!-- Node19&#45;&gt;Node20 -->
<g id="edge22" class="edge">
<title>Node19&#45;&gt;Node20</title>
<path fill="none" stroke="#63b8ff" d="M622.79,-333.69C555.9,-326.71 431.28,-312.52 326,-294 324.73,-293.78 323.43,-293.54 322.12,-293.29"/>
<polygon fill="#63b8ff" stroke="#63b8ff" points="322.55,-289.8 312.06,-291.23 321.15,-296.66 322.55,-289.8"/>
</g>
<!-- Node21&#45;&gt;Node5 -->
<g id="edge85" class="edge">
<title>Node21&#45;&gt;Node5</title>
<path fill="none" stroke="#63b8ff" d="M1236.44,-329.91C1231.25,-311.74 1220,-268 1220,-230.5 1220,-230.5 1220,-230.5 1220,-118.5 1220,-82.85 1240.78,-76.78 1269,-55 1290.88,-38.11 1320.13,-26.41 1342.2,-19.26"/>
<polygon fill="#63b8ff" stroke="#63b8ff" points="1343.26,-22.59 1351.78,-16.29 1341.19,-15.91 1343.26,-22.59"/>
</g>
<!-- Node21&#45;&gt;Node6 -->
<g id="edge86" class="edge">
<title>Node21&#45;&gt;Node6</title>
<path fill="none" stroke="#63b8ff" d="M1280.72,-331.35C1283.86,-330.87 1286.98,-330.42 1290,-330 1434.83,-309.97 1471.68,-310.16 1617,-294 1742.57,-280.03 2182,-356.85 2182,-230.5 2182,-230.5 2182,-230.5 2182,-118.5 2182,-32.53 2049.08,-14.84 1984.9,-11.31"/>
<polygon fill="#63b8ff" stroke="#63b8ff" points="1985,-7.81 1974.85,-10.85 1984.68,-14.81 1985,-7.81"/>
</g>
<!-- Node21&#45;&gt;Node8 -->
<g id="edge24" class="edge">
<title>Node21&#45;&gt;Node8</title>
<path fill="none" stroke="#63b8ff" d="M1228.98,-329.8C1210.51,-312.76 1173,-272.91 1173,-230.5 1173,-230.5 1173,-230.5 1173,-173.5 1173,-141.15 1161.83,-104.82 1154.14,-83.62"/>
<polygon fill="#63b8ff" stroke="#63b8ff" points="1157.32,-82.13 1150.51,-74.01 1150.77,-84.6 1157.32,-82.13"/>
</g>
<!-- Node21&#45;&gt;Node14 -->
<g id="edge84" class="edge">
<title>Node21&#45;&gt;Node14</title>
<path fill="none" stroke="#63b8ff" d="M1197.44,-337.94C1020.64,-335.01 340,-318.04 340,-230.5 340,-230.5 340,-230.5 340,-173.5 340,-147.39 170.56,-97.34 92.98,-75.79"/>
<polygon fill="#63b8ff" stroke="#63b8ff" points="93.68,-72.35 83.11,-73.06 91.81,-79.1 93.68,-72.35"/>
</g>
<!-- Node21&#45;&gt;Node18 -->
<g id="edge58" class="edge">
<title>Node21&#45;&gt;Node18</title>
<path fill="none" stroke="#63b8ff" d="M1219.26,-329.93C1187.85,-314.8 1130,-280.18 1130,-230.5 1130,-230.5 1130,-230.5 1130,-173.5 1130,-123.87 1073.5,-93.05 1034.15,-77.61"/>
<polygon fill="#63b8ff" stroke="#63b8ff" points="1035.15,-74.25 1024.56,-74.02 1032.69,-80.8 1035.15,-74.25"/>
</g>
<!-- Node22 -->
<g id="node22" class="node">
<title>Node22</title>
<g id="a_node22"><a xlink:href="http__configuration_8h.html" target="_top" xlink:title=" ">
<polygon fill="white" stroke="#666666" points="928.5,-239 797.5,-239 797.5,-220 928.5,-220 928.5,-239"/>
<text text-anchor="middle" x="863" y="-227" font-family="Helvetica,sans-Serif" font-size="10.00">ccf/http_configuration.h</text>
</a>
</g>
</g>
<!-- Node21&#45;&gt;Node22 -->
<g id="edge25" class="edge">
<title>Node21&#45;&gt;Node22</title>
<path fill="none" stroke="#63b8ff" d="M1209.18,-329.94C1141.86,-310.6 978.07,-263.55 902.46,-241.83"/>
<polygon fill="#63b8ff" stroke="#63b8ff" points="903.4,-238.46 892.82,-239.07 901.47,-245.19 903.4,-238.46"/>
</g>
<!-- Node36 -->
<g id="node36" class="node">
<title>Node36</title>
<g id="a_node36"><a xlink:href="http__header__map_8h.html" target="_top" xlink:title=" ">
<polygon fill="white" stroke="#666666" points="1570,-74 1442,-74 1442,-55 1570,-55 1570,-74"/>
<text text-anchor="middle" x="1506" y="-62" font-family="Helvetica,sans-Serif" font-size="10.00">ccf/http_header_map.h</text>
</a>
</g>
</g>
<!-- Node21&#45;&gt;Node36 -->
<g id="edge51" class="edge">
<title>Node21&#45;&gt;Node36</title>
<path fill="none" stroke="#63b8ff" d="M1280.03,-329.93C1327.7,-319.66 1401.13,-302.74 1411,-294 1433.71,-273.9 1436,-260.83 1436,-230.5 1436,-230.5 1436,-230.5 1436,-173.5 1436,-135.43 1467.01,-100.19 1487.75,-80.89"/>
<polygon fill="#63b8ff" stroke="#63b8ff" points="1490.25,-83.34 1495.37,-74.07 1485.58,-78.13 1490.25,-83.34"/>
</g>
<!-- Node37 -->
<g id="node37" class="node">
<title>Node37</title>
<g id="a_node37"><a xlink:href="http__responder_8h.html" target="_top" xlink:title=" ">
<polygon fill="white" stroke="#666666" points="1402,-294 1286,-294 1286,-275 1402,-275 1402,-294"/>
<text text-anchor="middle" x="1344" y="-282" font-family="Helvetica,sans-Serif" font-size="10.00">ccf/http_responder.h</text>
</a>
</g>
</g>
<!-- Node21&#45;&gt;Node37 -->
<g id="edge54" class="edge">
<title>Node21&#45;&gt;Node37</title>
<path fill="none" stroke="#63b8ff" d="M1255.87,-329.98C1272.61,-321.54 1298.5,-308.47 1317.89,-298.68"/>
<polygon fill="#63b8ff" stroke="#63b8ff" points="1319.47,-301.8 1326.82,-294.17 1316.32,-295.55 1319.47,-301.8"/>
</g>
<!-- Node39 -->
<g id="node39" class="node">
<title>Node39</title>
<g id="a_node39"><a xlink:href="rest__verb_8h.html" target="_top" xlink:title=" ">
<polygon fill="white" stroke="#666666" points="1839.5,-184 1750.5,-184 1750.5,-165 1839.5,-165 1839.5,-184"/>
<text text-anchor="middle" x="1795" y="-172" font-family="Helvetica,sans-Serif" font-size="10.00">ccf/rest_verb.h</text>
</a>
</g>
</g>
<!-- Node21&#45;&gt;Node39 -->
<g id="edge59" class="edge">
<title>Node21&#45;&gt;Node39</title>
<path fill="none" stroke="#63b8ff" d="M1280.73,-331.4C1283.86,-330.91 1286.98,-330.44 1290,-330 1418.97,-311.28 1457.07,-334.3 1581,-294 1657.7,-269.06 1738.37,-215.91 1774.91,-190.13"/>
<polygon fill="#63b8ff" stroke="#63b8ff" points="1777.11,-192.86 1783.22,-184.2 1773.05,-187.16 1777.11,-192.86"/>
</g>
<!-- Node46 -->
<g id="node46" class="node">
<title>Node46</title>
<g id="a_node46"><a xlink:href="http__builder_8h.html" target="_top" xlink:title=" ">
<polygon fill="white" stroke="#666666" points="1331.5,-129 1248.5,-129 1248.5,-110 1331.5,-110 1331.5,-129"/>
<text text-anchor="middle" x="1290" y="-117" font-family="Helvetica,sans-Serif" font-size="10.00">http_builder.h</text>
</a>
</g>
</g>
<!-- Node21&#45;&gt;Node46 -->
<g id="edge72" class="edge">
<title>Node21&#45;&gt;Node46</title>
<path fill="none" stroke="#63b8ff" d="M1241,-329.95C1248.5,-297.88 1275.1,-184.2 1285.64,-139.12"/>
<polygon fill="#63b8ff" stroke="#63b8ff" points="1289.09,-139.76 1287.96,-129.22 1282.27,-138.16 1289.09,-139.76"/>
</g>
<!-- Node48 -->
<g id="node48" class="node">
<title>Node48</title>
<g id="a_node48"><a xlink:title=" ">
<polygon fill="#e0e0e0" stroke="#999999" points="1496,-294 1464,-294 1464,-275 1496,-275 1496,-294"/>
<text text-anchor="middle" x="1480" y="-282" font-family="Helvetica,sans-Serif" font-size="10.00">list</text>
</a>
</g>
</g>
<!-- Node21&#45;&gt;Node48 -->
<g id="edge82" class="edge">
<title>Node21&#45;&gt;Node48</title>
<path fill="none" stroke="#63b8ff" d="M1280.83,-330.55C1323.54,-322.23 1391.66,-308.4 1450,-294 1451.27,-293.69 1452.57,-293.36 1453.88,-293.01"/>
<polygon fill="#63b8ff" stroke="#63b8ff" points="1455.14,-296.3 1463.86,-290.29 1453.29,-289.55 1455.14,-296.3"/>
</g>
<!-- Node49 -->
<g id="node49" class="node">
<title>Node49</title>
<g id="a_node49"><a xlink:title=" ">
<polygon fill="#e0e0e0" stroke="#999999" points="1572,-294 1514,-294 1514,-275 1572,-275 1572,-294"/>
<text text-anchor="middle" x="1543" y="-282" font-family="Helvetica,sans-Serif" font-size="10.00">memory</text>
</a>
</g>
</g>
<!-- Node21&#45;&gt;Node49 -->
<g id="edge83" class="edge">
<title>Node21&#45;&gt;Node49</title>
<path fill="none" stroke="#63b8ff" d="M1280.68,-331.56C1345.53,-320.75 1466.43,-300.59 1503.83,-294.01"/>
<polygon fill="#63b8ff" stroke="#63b8ff" points="1504.78,-297.39 1513.99,-292.16 1503.52,-290.51 1504.78,-297.39"/>
</g>
<!-- Node22&#45;&gt;Node3 -->
<g id="edge26" class="edge">
<title>Node22&#45;&gt;Node3</title>
<path fill="none" stroke="#63b8ff" d="M868.94,-219.75C873.98,-212.34 881.34,-201.5 887.51,-192.41"/>
<polygon fill="#63b8ff" stroke="#63b8ff" points="890.44,-194.33 893.17,-184.09 884.65,-190.39 890.44,-194.33"/>
</g>
<!-- Node22&#45;&gt;Node14 -->
<g id="edge50" class="edge">
<title>Node22&#45;&gt;Node14</title>
<path fill="none" stroke="#63b8ff" d="M817.67,-219.94C772.17,-211.25 700.12,-197.23 638,-184 530.54,-161.12 501.28,-163.58 397,-129 377.17,-122.42 374.1,-115.7 354,-110 244.01,-78.81 209.5,-94.27 93.23,-74.05"/>
<polygon fill="#63b8ff" stroke="#63b8ff" points="93.69,-70.58 83.23,-72.26 92.45,-77.47 93.69,-70.58"/>
</g>
<!-- Node23 -->
<g id="node23" class="node">
<title>Node23</title>
<g id="a_node23"><a xlink:href="unit__strings_8h.html" target="_top" xlink:title=" ">
<polygon fill="white" stroke="#666666" points="761,-184 647,-184 647,-165 761,-165 761,-184"/>
<text text-anchor="middle" x="704" y="-172" font-family="Helvetica,sans-Serif" font-size="10.00">ccf/ds/unit_strings.h</text>
</a>
</g>
</g>
<!-- Node22&#45;&gt;Node23 -->
<g id="edge27" class="edge">
<title>Node22&#45;&gt;Node23</title>
<path fill="none" stroke="#63b8ff" d="M837.45,-219.98C810.88,-211.13 769.06,-197.19 739.33,-187.28"/>
<polygon fill="#63b8ff" stroke="#63b8ff" points="740.34,-183.92 729.75,-184.08 738.13,-190.56 740.34,-183.92"/>
</g>
<!-- Node23&#45;&gt;Node5 -->
<g id="edge49" class="edge">
<title>Node23&#45;&gt;Node5</title>
<path fill="none" stroke="#63b8ff" d="M759.65,-164.98C791.45,-158.43 831.2,-147.31 863,-129 903.85,-105.47 896.16,-74.67 939,-55 1018.19,-18.64 1238.96,-33.87 1341.61,-18.78"/>
<polygon fill="#63b8ff" stroke="#63b8ff" points="1342.46,-22.18 1351.76,-17.11 1341.32,-15.28 1342.46,-22.18"/>
</g>
<!-- Node23&#45;&gt;Node8 -->
<g id="edge45" class="edge">
<title>Node23&#45;&gt;Node8</title>
<path fill="none" stroke="#63b8ff" d="M741.94,-164.94C780.71,-156.14 842.63,-141.94 896,-129 969.36,-111.22 1054.48,-89.44 1104.37,-76.56"/>
<polygon fill="#63b8ff" stroke="#63b8ff" points="1105.35,-79.92 1114.16,-74.03 1103.6,-73.15 1105.35,-79.92"/>
</g>
<!-- Node23&#45;&gt;Node16 -->
<g id="edge48" class="edge">
<title>Node23&#45;&gt;Node16</title>
<path fill="none" stroke="#63b8ff" d="M705.61,-164.86C708.2,-152.24 714.04,-128.26 724,-110 729.57,-99.79 737.67,-89.71 744.87,-81.73"/>
<polygon fill="#63b8ff" stroke="#63b8ff" points="747.6,-83.95 751.91,-74.27 742.5,-79.14 747.6,-83.95"/>
</g>
<!-- Node24 -->
<g id="node24" class="node">
<title>Node24</title>
<g id="a_node24"><a xlink:href="logger_8h.html" target="_top" xlink:title=" ">
<polygon fill="white" stroke="#666666" points="493.5,-129 406.5,-129 406.5,-110 493.5,-110 493.5,-129"/>
<text text-anchor="middle" x="450" y="-117" font-family="Helvetica,sans-Serif" font-size="10.00">ccf/ds/logger.h</text>
</a>
</g>
</g>
<!-- Node23&#45;&gt;Node24 -->
<g id="edge28" class="edge">
<title>Node23&#45;&gt;Node24</title>
<path fill="none" stroke="#63b8ff" d="M663.19,-164.98C619.07,-155.78 548.67,-141.09 500.95,-131.13"/>
<polygon fill="#63b8ff" stroke="#63b8ff" points="501.63,-127.7 491.13,-129.08 500.2,-134.55 501.63,-127.7"/>
</g>
<!-- Node34 -->
<g id="node34" class="node">
<title>Node34</title>
<g id="a_node34"><a xlink:title=" ">
<polygon fill="#e0e0e0" stroke="#999999" points="572.5,-129 511.5,-129 511.5,-110 572.5,-110 572.5,-129"/>
<text text-anchor="middle" x="542" y="-117" font-family="Helvetica,sans-Serif" font-size="10.00">charconv</text>
</a>
</g>
</g>
<!-- Node23&#45;&gt;Node34 -->
<g id="edge46" class="edge">
<title>Node23&#45;&gt;Node34</title>
<path fill="none" stroke="#63b8ff" d="M677.97,-164.98C650.89,-156.13 608.29,-142.19 577.99,-132.28"/>
<polygon fill="#63b8ff" stroke="#63b8ff" points="578.82,-128.87 568.23,-129.08 576.65,-135.52 578.82,-128.87"/>
</g>
<!-- Node35 -->
<g id="node35" class="node">
<title>Node35</title>
<g id="a_node35"><a xlink:title=" ">
<polygon fill="#e0e0e0" stroke="#999999" points="637.5,-129 590.5,-129 590.5,-110 637.5,-110 637.5,-129"/>
<text text-anchor="middle" x="614" y="-117" font-family="Helvetica,sans-Serif" font-size="10.00">cmath</text>
</a>
</g>
</g>
<!-- Node23&#45;&gt;Node35 -->
<g id="edge47" class="edge">
<title>Node23&#45;&gt;Node35</title>
<path fill="none" stroke="#63b8ff" d="M689.54,-164.98C675.58,-156.77 654.21,-144.18 637.75,-134.49"/>
<polygon fill="#63b8ff" stroke="#63b8ff" points="639.12,-131.23 628.72,-129.17 635.56,-137.26 639.12,-131.23"/>
</g>
<!-- Node24&#45;&gt;Node13 -->
<g id="edge44" class="edge">
<title>Node24&#45;&gt;Node13</title>
<path fill="none" stroke="#63b8ff" d="M479.95,-109.99C507.61,-101.82 549.64,-88.58 585,-74 602.46,-66.8 605.3,-61.59 623,-55 666.19,-38.93 717.47,-26.64 753.32,-19.09"/>
<polygon fill="#63b8ff" stroke="#63b8ff" points="754.38,-22.45 763.46,-16.99 752.96,-15.59 754.38,-22.45"/>
</g>
<!-- Node24&#45;&gt;Node14 -->
<g id="edge42" class="edge">
<title>Node24&#45;&gt;Node14</title>
<path fill="none" stroke="#63b8ff" d="M406.31,-111.97C401.49,-111.29 396.64,-110.62 392,-110 262.14,-92.7 226.04,-96.85 93.36,-74.07"/>
<polygon fill="#63b8ff" stroke="#63b8ff" points="93.67,-70.57 83.22,-72.31 92.47,-77.47 93.67,-70.57"/>
</g>
<!-- Node24&#45;&gt;Node15 -->
<g id="edge39" class="edge">
<title>Node24&#45;&gt;Node15</title>
<path fill="none" stroke="#63b8ff" d="M406.39,-111.43C352.12,-102.18 265.39,-85.79 256,-74 250.74,-67.4 250.37,-61.3 256,-55 278.5,-29.81 498.63,-17.05 599.26,-12.5"/>
<polygon fill="#63b8ff" stroke="#63b8ff" points="599.65,-15.98 609.48,-12.04 599.34,-8.99 599.65,-15.98"/>
</g>
<!-- Node24&#45;&gt;Node16 -->
<g id="edge41" class="edge">
<title>Node24&#45;&gt;Node16</title>
<path fill="none" stroke="#63b8ff" d="M493.57,-111.07C547.62,-101.86 640.04,-86.11 700.82,-75.76"/>
<polygon fill="#63b8ff" stroke="#63b8ff" points="701.77,-79.14 711.04,-74.01 700.59,-72.24 701.77,-79.14"/>
</g>
<!-- Node24&#45;&gt;Node17 -->
<g id="edge43" class="edge">
<title>Node24&#45;&gt;Node17</title>
<path fill="none" stroke="#63b8ff" d="M483.74,-109.98C521.5,-100.46 582.53,-85.05 621.95,-75.1"/>
<polygon fill="#63b8ff" stroke="#63b8ff" points="622.89,-78.48 631.73,-72.63 621.18,-71.69 622.89,-78.48"/>
</g>
<!-- Node25 -->
<g id="node25" class="node">
<title>Node25</title>
<g id="a_node25"><a xlink:href="enum__formatter_8h.html" target="_top" xlink:title=" ">
<polygon fill="white" stroke="#666666" points="401,-74 265,-74 265,-55 401,-55 401,-74"/>
<text text-anchor="middle" x="333" y="-62" font-family="Helvetica,sans-Serif" font-size="10.00">ccf/ds/enum_formatter.h</text>
</a>
</g>
</g>
<!-- Node24&#45;&gt;Node25 -->
<g id="edge29" class="edge">
<title>Node24&#45;&gt;Node25</title>
<path fill="none" stroke="#63b8ff" d="M431.2,-109.98C412.38,-101.46 383.18,-88.23 361.5,-78.41"/>
<polygon fill="#63b8ff" stroke="#63b8ff" points="362.69,-75.11 352.14,-74.17 359.8,-81.48 362.69,-75.11"/>
</g>
<!-- Node26 -->
<g id="node26" class="node">
<title>Node26</title>
<g id="a_node26"><a xlink:href="thread__ids_8h.html" target="_top" xlink:title=" ">
<polygon fill="white" stroke="#666666" points="209,-74 101,-74 101,-55 209,-55 209,-74"/>
<text text-anchor="middle" x="155" y="-62" font-family="Helvetica,sans-Serif" font-size="10.00">ccf/ds/thread_ids.h</text>
</a>
</g>
</g>
<!-- Node24&#45;&gt;Node26 -->
<g id="edge31" class="edge">
<title>Node24&#45;&gt;Node26</title>
<path fill="none" stroke="#63b8ff" d="M406.47,-110.68C355.07,-101.44 269.38,-86.05 212.54,-75.84"/>
<polygon fill="#63b8ff" stroke="#63b8ff" points="213.08,-72.38 202.62,-74.06 211.85,-79.27 213.08,-72.38"/>
</g>
<!-- Node32 -->
<g id="node32" class="node">
<title>Node32</title>
<g id="a_node32"><a xlink:title=" ">
<polygon fill="#e0e0e0" stroke="#999999" points="498.5,-74 419.5,-74 419.5,-55 498.5,-55 498.5,-74"/>
<text text-anchor="middle" x="459" y="-62" font-family="Helvetica,sans-Serif" font-size="10.00">fmt/chrono.h</text>
</a>
</g>
</g>
<!-- Node24&#45;&gt;Node32 -->
<g id="edge38" class="edge">
<title>Node24&#45;&gt;Node32</title>
<path fill="none" stroke="#63b8ff" d="M451.49,-109.75C452.67,-102.8 454.36,-92.85 455.84,-84.13"/>
<polygon fill="#63b8ff" stroke="#63b8ff" points="459.32,-84.53 457.54,-74.09 452.42,-83.36 459.32,-84.53"/>
</g>
<!-- Node33 -->
<g id="node33" class="node">
<title>Node33</title>
<g id="a_node33"><a xlink:title=" ">
<polygon fill="#e0e0e0" stroke="#999999" points="576,-74 516,-74 516,-55 576,-55 576,-74"/>
<text text-anchor="middle" x="546" y="-62" font-family="Helvetica,sans-Serif" font-size="10.00">iostream</text>
</a>
</g>
</g>
<!-- Node24&#45;&gt;Node33 -->
<g id="edge40" class="edge">
<title>Node24&#45;&gt;Node33</title>
<path fill="none" stroke="#63b8ff" d="M465.42,-109.98C480.45,-101.69 503.54,-88.94 521.16,-79.22"/>
<polygon fill="#63b8ff" stroke="#63b8ff" points="523.23,-82.07 530.3,-74.17 519.85,-75.94 523.23,-82.07"/>
</g>
<!-- Node25&#45;&gt;Node15 -->
<g id="edge30" class="edge">
<title>Node25&#45;&gt;Node15</title>
<path fill="none" stroke="#63b8ff" d="M383.77,-54.98C443.02,-45.05 540.36,-28.72 599.19,-18.85"/>
<polygon fill="#63b8ff" stroke="#63b8ff" points="600.07,-22.25 609.36,-17.15 598.92,-15.35 600.07,-22.25"/>
</g>
<!-- Node26&#45;&gt;Node15 -->
<g id="edge32" class="edge">
<title>Node26&#45;&gt;Node15</title>
<path fill="none" stroke="#63b8ff" d="M209.18,-56.63C213.85,-56.06 218.51,-55.52 223,-55 358.92,-39.41 519.52,-23.24 599.11,-15.38"/>
<polygon fill="#63b8ff" stroke="#63b8ff" points="599.72,-18.84 609.33,-14.37 599.03,-11.87 599.72,-18.84"/>
</g>
<!-- Node27 -->
<g id="node27" class="node">
<title>Node27</title>
<g id="a_node27"><a xlink:title=" ">
<polygon fill="#e0e0e0" stroke="#999999" points="152,-19 66,-19 66,0 152,0 152,-19"/>
<text text-anchor="middle" x="109" y="-7" font-family="Helvetica,sans-Serif" font-size="10.00">fmt/ostream.h</text>
</a>
</g>
</g>
<!-- Node26&#45;&gt;Node27 -->
<g id="edge33" class="edge">
<title>Node26&#45;&gt;Node27</title>
<path fill="none" stroke="#63b8ff" d="M147.4,-54.75C140.84,-47.18 131.18,-36.05 123.19,-26.84"/>
<polygon fill="#63b8ff" stroke="#63b8ff" points="125.65,-24.35 116.45,-19.09 120.37,-28.94 125.65,-24.35"/>
</g>
<!-- Node28 -->
<g id="node28" class="node">
<title>Node28</title>
<g id="a_node28"><a xlink:title=" ">
<polygon fill="#e0e0e0" stroke="#999999" points="231.5,-19 170.5,-19 170.5,0 231.5,0 231.5,-19"/>
<text text-anchor="middle" x="201" y="-7" font-family="Helvetica,sans-Serif" font-size="10.00">fmt/std.h</text>
</a>
</g>
</g>
<!-- Node26&#45;&gt;Node28 -->
<g id="edge34" class="edge">
<title>Node26&#45;&gt;Node28</title>
<path fill="none" stroke="#63b8ff" d="M162.6,-54.75C169.16,-47.18 178.82,-36.05 186.81,-26.84"/>
<polygon fill="#63b8ff" stroke="#63b8ff" points="189.63,-28.94 193.55,-19.09 184.35,-24.35 189.63,-28.94"/>
</g>
<!-- Node29 -->
<g id="node29" class="node">
<title>Node29</title>
<g id="a_node29"><a xlink:title=" ">
<polygon fill="#e0e0e0" stroke="#999999" points="294,-19 250,-19 250,0 294,0 294,-19"/>
<text text-anchor="middle" x="272" y="-7" font-family="Helvetica,sans-Serif" font-size="10.00">limits</text>
</a>
</g>
</g>
<!-- Node26&#45;&gt;Node29 -->
<g id="edge35" class="edge">
<title>Node26&#45;&gt;Node29</title>
<path fill="none" stroke="#63b8ff" d="M173.8,-54.98C192.62,-46.46 221.82,-33.23 243.5,-23.41"/>
<polygon fill="#63b8ff" stroke="#63b8ff" points="245.2,-26.48 252.86,-19.17 242.31,-20.11 245.2,-26.48"/>
</g>
<!-- Node30 -->
<g id="node30" class="node">
<title>Node30</title>
<g id="a_node30"><a xlink:title=" ">
<polygon fill="#e0e0e0" stroke="#999999" points="1334,-19 1296,-19 1296,0 1334,0 1334,-19"/>
<text text-anchor="middle" x="1315" y="-7" font-family="Helvetica,sans-Serif" font-size="10.00">map</text>
</a>
</g>
</g>
<!-- Node26&#45;&gt;Node30 -->
<g id="edge36" class="edge">
<title>Node26&#45;&gt;Node30</title>
<path fill="none" stroke="#63b8ff" d="M209.22,-58.47C224.35,-57.19 240.81,-55.92 256,-55 686.17,-28.92 794.96,-47.27 1225,-19 1245.23,-17.67 1267.96,-15.52 1285.52,-13.71"/>
<polygon fill="#63b8ff" stroke="#63b8ff" points="1286.13,-17.17 1295.71,-12.64 1285.4,-10.2 1286.13,-17.17"/>
</g>
<!-- Node31 -->
<g id="node31" class="node">
<title>Node31</title>
<g id="a_node31"><a xlink:title=" ">
<polygon fill="#e0e0e0" stroke="#999999" points="48,-19 0,-19 0,0 48,0 48,-19"/>
<text text-anchor="middle" x="24" y="-7" font-family="Helvetica,sans-Serif" font-size="10.00">thread</text>
</a>
</g>
</g>
<!-- Node26&#45;&gt;Node31 -->
<g id="edge37" class="edge">
<title>Node26&#45;&gt;Node31</title>
<path fill="none" stroke="#63b8ff" d="M133.95,-54.98C112.59,-46.34 79.3,-32.87 54.94,-23.02"/>
<polygon fill="#63b8ff" stroke="#63b8ff" points="56.01,-19.68 45.43,-19.17 53.39,-26.17 56.01,-19.68"/>
</g>
<!-- Node36&#45;&gt;Node5 -->
<g id="edge53" class="edge">
<title>Node36&#45;&gt;Node5</title>
<path fill="none" stroke="#63b8ff" d="M1484.79,-54.98C1463.27,-46.34 1429.72,-32.87 1405.17,-23.02"/>
<polygon fill="#63b8ff" stroke="#63b8ff" points="1406.18,-19.65 1395.59,-19.17 1403.57,-26.14 1406.18,-19.65"/>
</g>
<!-- Node36&#45;&gt;Node30 -->
<g id="edge52" class="edge">
<title>Node36&#45;&gt;Node30</title>
<path fill="none" stroke="#63b8ff" d="M1473.76,-54.99C1442.82,-46.75 1394.54,-33.74 1344.04,-19.24"/>
<polygon fill="#63b8ff" stroke="#63b8ff" points="1344.84,-15.83 1334.26,-16.42 1342.9,-22.56 1344.84,-15.83"/>
</g>
<!-- Node37&#45;&gt;Node2 -->
<g id="edge56" class="edge">
<title>Node37&#45;&gt;Node2</title>
<path fill="none" stroke="#63b8ff" d="M1294.35,-274.98C1239.8,-265.63 1152.21,-250.6 1094.14,-240.64"/>
<polygon fill="#63b8ff" stroke="#63b8ff" points="1094.46,-237.15 1084.01,-238.91 1093.28,-244.05 1094.46,-237.15"/>
</g>
<!-- Node37&#45;&gt;Node36 -->
<g id="edge55" class="edge">
<title>Node37&#45;&gt;Node36</title>
<path fill="none" stroke="#63b8ff" d="M1352.22,-274.94C1360.03,-266.42 1371.64,-252.67 1379,-239 1407.66,-185.79 1382.94,-156.12 1422,-110 1434.3,-95.47 1452.58,-85 1468.94,-77.88"/>
<polygon fill="#63b8ff" stroke="#63b8ff" points="1470.35,-81.08 1478.29,-74.07 1467.71,-74.6 1470.35,-81.08"/>
</g>
<!-- Node38 -->
<g id="node38" class="node">
<title>Node38</title>
<g id="a_node38"><a xlink:title=" ">
<polygon fill="#e0e0e0" stroke="#999999" points="1369.5,-239 1304.5,-239 1304.5,-220 1369.5,-220 1369.5,-239"/>
<text text-anchor="middle" x="1337" y="-227" font-family="Helvetica,sans-Serif" font-size="10.00">functional</text>
</a>
</g>
</g>
<!-- Node37&#45;&gt;Node38 -->
<g id="edge57" class="edge">
<title>Node37&#45;&gt;Node38</title>
<path fill="none" stroke="#63b8ff" d="M1342.84,-274.75C1341.93,-267.8 1340.61,-257.85 1339.46,-249.13"/>
<polygon fill="#63b8ff" stroke="#63b8ff" points="1342.91,-248.54 1338.13,-239.09 1335.97,-249.46 1342.91,-248.54"/>
</g>
<!-- Node39&#45;&gt;Node5 -->
<g id="edge71" class="edge">
<title>Node39&#45;&gt;Node5</title>
<path fill="none" stroke="#63b8ff" d="M1799.78,-164.69C1810.86,-142.97 1835.26,-86.32 1807,-55 1780.25,-25.36 1502.53,-14.33 1406.47,-11.38"/>
<polygon fill="#63b8ff" stroke="#63b8ff" points="1406.3,-7.88 1396.2,-11.08 1406.09,-14.87 1406.3,-7.88"/>
</g>
<!-- Node40 -->
<g id="node40" class="node">
<title>Node40</title>
<g id="a_node40"><a xlink:href="include_2ccf_2ds_2hash_8h.html" target="_top" xlink:title=" ">
<polygon fill="white" stroke="#666666" points="2082,-129 2002,-129 2002,-110 2082,-110 2082,-129"/>
<text text-anchor="middle" x="2042" y="-117" font-family="Helvetica,sans-Serif" font-size="10.00">ccf/ds/hash.h</text>
</a>
</g>
</g>
<!-- Node39&#45;&gt;Node40 -->
<g id="edge60" class="edge">
<title>Node39&#45;&gt;Node40</title>
<path fill="none" stroke="#63b8ff" d="M1834.68,-164.98C1877.5,-155.8 1945.76,-141.15 1992.16,-131.19"/>
<polygon fill="#63b8ff" stroke="#63b8ff" points="1992.96,-134.6 2002,-129.08 1991.49,-127.76 1992.96,-134.6"/>
</g>
<!-- Node45 -->
<g id="node45" class="node">
<title>Node45</title>
<g id="a_node45"><a xlink:title=" ">
<polygon fill="#e0e0e0" stroke="#999999" points="1668,-74 1588,-74 1588,-55 1668,-55 1668,-74"/>
<text text-anchor="middle" x="1628" y="-62" font-family="Helvetica,sans-Serif" font-size="10.00">llhttp/llhttp.h</text>
</a>
</g>
</g>
<!-- Node39&#45;&gt;Node45 -->
<g id="edge70" class="edge">
<title>Node39&#45;&gt;Node45</title>
<path fill="none" stroke="#63b8ff" d="M1781.62,-164.84C1752.91,-146.28 1685.19,-102.49 1650.04,-79.75"/>
<polygon fill="#63b8ff" stroke="#63b8ff" points="1651.75,-76.69 1641.45,-74.2 1647.94,-82.57 1651.75,-76.69"/>
</g>
<!-- Node40&#45;&gt;Node6 -->
<g id="edge69" class="edge">
<title>Node40&#45;&gt;Node6</title>
<path fill="none" stroke="#63b8ff" d="M2071.08,-109.93C2102.28,-99.25 2144.96,-79.39 2126,-55 2108.82,-32.9 2030.44,-19.98 1984.61,-14.18"/>
<polygon fill="#63b8ff" stroke="#63b8ff" points="1984.89,-10.69 1974.54,-12.96 1984.05,-17.64 1984.89,-10.69"/>
</g>
<!-- Node40&#45;&gt;Node10 -->
<g id="edge65" class="edge">
<title>Node40&#45;&gt;Node10</title>
<path fill="none" stroke="#63b8ff" d="M2014.59,-109.91C1988.81,-101.58 1949.31,-88.15 1916,-74 1898.62,-66.62 1895.94,-60.89 1878,-55 1798.74,-28.98 1700.52,-17.4 1651.26,-12.92"/>
<polygon fill="#63b8ff" stroke="#63b8ff" points="1651.5,-9.43 1641.24,-12.05 1650.9,-16.4 1651.5,-9.43"/>
</g>
<!-- Node40&#45;&gt;Node12 -->
<g id="edge68" class="edge">
<title>Node40&#45;&gt;Node12</title>
<path fill="none" stroke="#63b8ff" d="M2025.83,-109.99C2001.99,-97.52 1955.91,-73.74 1916,-55 1891.95,-43.71 1864.31,-31.71 1843.88,-23.02"/>
<polygon fill="#63b8ff" stroke="#63b8ff" points="1845.04,-19.71 1834.47,-19.04 1842.31,-26.16 1845.04,-19.71"/>
</g>
<!-- Node41 -->
<g id="node41" class="node">
<title>Node41</title>
<g id="a_node41"><a xlink:href="siphash_8h.html" target="_top" xlink:title=" ">
<polygon fill="white" stroke="#666666" points="2305.5,-74 2210.5,-74 2210.5,-55 2305.5,-55 2305.5,-74"/>
<text text-anchor="middle" x="2258" y="-62" font-family="Helvetica,sans-Serif" font-size="10.00">ccf/ds/siphash.h</text>
</a>
</g>
</g>
<!-- Node40&#45;&gt;Node41 -->
<g id="edge61" class="edge">
<title>Node40&#45;&gt;Node41</title>
<path fill="none" stroke="#63b8ff" d="M2076.7,-109.98C2113.75,-100.89 2172.59,-86.46 2213.13,-76.51"/>
<polygon fill="#63b8ff" stroke="#63b8ff" points="2214.15,-79.86 2223.02,-74.08 2212.48,-73.07 2214.15,-79.86"/>
</g>
<!-- Node43 -->
<g id="node43" class="node">
<title>Node43</title>
<g id="a_node43"><a xlink:title=" ">
<polygon fill="#e0e0e0" stroke="#999999" points="2356,-19 2306,-19 2306,0 2356,0 2356,-19"/>
<text text-anchor="middle" x="2331" y="-7" font-family="Helvetica,sans-Serif" font-size="10.00">cstdint</text>
</a>
</g>
</g>
<!-- Node40&#45;&gt;Node43 -->
<g id="edge66" class="edge">
<title>Node40&#45;&gt;Node43</title>
<path fill="none" stroke="#63b8ff" d="M2082.25,-117.22C2149.75,-114.24 2281.71,-104.57 2315,-74 2327.16,-62.84 2330.67,-43.91 2331.44,-29.62"/>
<polygon fill="#63b8ff" stroke="#63b8ff" points="2334.94,-29.43 2331.57,-19.39 2327.94,-29.34 2334.94,-29.43"/>
</g>
<!-- Node44 -->
<g id="node44" class="node">
<title>Node44</title>
<g id="a_node44"><a xlink:title=" ">
<polygon fill="#e0e0e0" stroke="#999999" points="2116.5,-74 1967.5,-74 1967.5,-55 2116.5,-55 2116.5,-74"/>
<text text-anchor="middle" x="2042" y="-62" font-family="Helvetica,sans-Serif" font-size="10.00">small_vector/SmallVector.h</text>
</a>
</g>
</g>
<!-- Node40&#45;&gt;Node44 -->
<g id="edge67" class="edge">
<title>Node40&#45;&gt;Node44</title>
<path fill="none" stroke="#63b8ff" d="M2042,-109.75C2042,-102.8 2042,-92.85 2042,-84.13"/>
<polygon fill="#63b8ff" stroke="#63b8ff" points="2045.5,-84.09 2042,-74.09 2038.5,-84.09 2045.5,-84.09"/>
</g>
<!-- Node41&#45;&gt;Node6 -->
<g id="edge64" class="edge">
<title>Node41&#45;&gt;Node6</title>
<path fill="none" stroke="#63b8ff" d="M2210.37,-55.28C2147.71,-44.46 2039.17,-25.72 1984.51,-16.28"/>
<polygon fill="#63b8ff" stroke="#63b8ff" points="1985.09,-12.83 1974.64,-14.58 1983.9,-19.73 1985.09,-12.83"/>
</g>
<!-- Node42 -->
<g id="node42" class="node">
<title>Node42</title>
<g id="a_node42"><a xlink:title=" ">
<polygon fill="#e0e0e0" stroke="#999999" points="2284.5,-19 2231.5,-19 2231.5,0 2284.5,0 2284.5,-19"/>
<text text-anchor="middle" x="2258" y="-7" font-family="Helvetica,sans-Serif" font-size="10.00">cstddef</text>
</a>
</g>
</g>
<!-- Node41&#45;&gt;Node42 -->
<g id="edge62" class="edge">
<title>Node41&#45;&gt;Node42</title>
<path fill="none" stroke="#63b8ff" d="M2258,-54.75C2258,-47.8 2258,-37.85 2258,-29.13"/>
<polygon fill="#63b8ff" stroke="#63b8ff" points="2261.5,-29.09 2258,-19.09 2254.5,-29.09 2261.5,-29.09"/>
</g>
<!-- Node41&#45;&gt;Node43 -->
<g id="edge63" class="edge">
<title>Node41&#45;&gt;Node43</title>
<path fill="none" stroke="#63b8ff" d="M2269.73,-54.98C2280.73,-47 2297.42,-34.88 2310.6,-25.31"/>
<polygon fill="#63b8ff" stroke="#63b8ff" points="2313.02,-27.88 2319.06,-19.17 2308.91,-22.21 2313.02,-27.88"/>
</g>
<!-- Node46&#45;&gt;Node5 -->
<g id="edge80" class="edge">
<title>Node46&#45;&gt;Node5</title>
<path fill="none" stroke="#63b8ff" d="M1284.82,-109.96C1277.71,-97.04 1267.01,-72.21 1278,-55 1285.42,-43.38 1317.13,-30.09 1342.11,-21.08"/>
<polygon fill="#63b8ff" stroke="#63b8ff" points="1343.35,-24.36 1351.62,-17.74 1341.03,-17.75 1343.35,-24.36"/>
</g>
<!-- Node46&#45;&gt;Node6 -->
<g id="edge81" class="edge">
<title>Node46&#45;&gt;Node6</title>
<path fill="none" stroke="#63b8ff" d="M1331.56,-116.69C1437.8,-111.77 1717.22,-96.98 1807,-74 1851.28,-62.67 1899.17,-39.03 1927.05,-24.01"/>
<polygon fill="#63b8ff" stroke="#63b8ff" points="1928.95,-26.96 1936.04,-19.09 1925.59,-20.82 1928.95,-26.96"/>
</g>
<!-- Node46&#45;&gt;Node8 -->
<g id="edge73" class="edge">
<title>Node46&#45;&gt;Node8</title>
<path fill="none" stroke="#63b8ff" d="M1267.02,-109.98C1243.5,-101.27 1206.71,-87.63 1180.06,-77.75"/>
<polygon fill="#63b8ff" stroke="#63b8ff" points="1180.99,-74.36 1170.39,-74.17 1178.55,-80.93 1180.99,-74.36"/>
</g>
<!-- Node46&#45;&gt;Node15 -->
<g id="edge77" class="edge">
<title>Node46&#45;&gt;Node15</title>
<path fill="none" stroke="#63b8ff" d="M1248.43,-112.12C1207.99,-105.21 1145.17,-92.63 1093,-74 1075.22,-67.65 1073.11,-60.33 1055,-55 1021.54,-45.14 799.62,-24.15 698.75,-14.96"/>
<polygon fill="#63b8ff" stroke="#63b8ff" points="698.78,-11.45 688.5,-14.03 698.15,-18.42 698.78,-11.45"/>
</g>
<!-- Node46&#45;&gt;Node18 -->
<g id="edge76" class="edge">
<title>Node46&#45;&gt;Node18</title>
<path fill="none" stroke="#63b8ff" d="M1248.33,-110.96C1197.51,-101.77 1111.33,-86.18 1054.29,-75.86"/>
<polygon fill="#63b8ff" stroke="#63b8ff" points="1054.81,-72.4 1044.35,-74.06 1053.57,-79.29 1054.81,-72.4"/>
</g>
<!-- Node46&#45;&gt;Node30 -->
<g id="edge79" class="edge">
<title>Node46&#45;&gt;Node30</title>
<path fill="none" stroke="#63b8ff" d="M1331.74,-112.16C1354.55,-106.34 1380.95,-95.21 1395,-74 1411.2,-49.53 1373.03,-30.16 1344.01,-19.53"/>
<polygon fill="#63b8ff" stroke="#63b8ff" points="1344.82,-16.1 1334.23,-16.13 1342.53,-22.72 1344.82,-16.1"/>
</g>
<!-- Node46&#45;&gt;Node36 -->
<g id="edge75" class="edge">
<title>Node46&#45;&gt;Node36</title>
<path fill="none" stroke="#63b8ff" d="M1324.7,-109.98C1361.75,-100.89 1420.59,-86.46 1461.13,-76.51"/>
<polygon fill="#63b8ff" stroke="#63b8ff" points="1462.15,-79.86 1471.02,-74.08 1460.48,-73.07 1462.15,-79.86"/>
</g>
<!-- Node46&#45;&gt;Node45 -->
<g id="edge78" class="edge">
<title>Node46&#45;&gt;Node45</title>
<path fill="none" stroke="#63b8ff" d="M1331.52,-112.15C1399.66,-101.73 1531.59,-81.51 1577.86,-74.14"/>
<polygon fill="#63b8ff" stroke="#63b8ff" points="1578.58,-77.57 1587.9,-72.52 1577.47,-70.66 1578.58,-77.57"/>
</g>
<!-- Node47 -->
<g id="node47" class="node">
<title>Node47</title>
<g id="a_node47"><a xlink:href="http__consts_8h.html" target="_top" xlink:title=" ">
<polygon fill="white" stroke="#666666" points="1385.5,-74 1286.5,-74 1286.5,-55 1385.5,-55 1385.5,-74"/>
<text text-anchor="middle" x="1336" y="-62" font-family="Helvetica,sans-Serif" font-size="10.00">ccf/http_consts.h</text>
</a>
</g>
</g>
<!-- Node46&#45;&gt;Node47 -->
<g id="edge74" class="edge">
<title>Node46&#45;&gt;Node47</title>
<path fill="none" stroke="#63b8ff" d="M1297.6,-109.75C1304.16,-102.18 1313.82,-91.05 1321.81,-81.84"/>
<polygon fill="#63b8ff" stroke="#63b8ff" points="1324.63,-83.94 1328.55,-74.09 1319.35,-79.35 1324.63,-83.94"/>
</g>
</g>
</svg>
