<?xml version="1.0" encoding="UTF-8" standalone="no"?>
<!DOCTYPE svg PUBLIC "-//W3C//DTD SVG 1.1//EN"
 "http://www.w3.org/Graphics/SVG/1.1/DTD/svg11.dtd">
<!-- Generated by graphviz version 2.43.0 (0)
 -->
<!-- Title: src/consensus/aft/revealed_nonces.h Pages: 1 -->
<svg width="1410pt" height="566pt"
 viewBox="0.00 0.00 1409.50 566.00" xmlns="http://www.w3.org/2000/svg" xmlns:xlink="http://www.w3.org/1999/xlink">
<g id="graph0" class="graph" transform="scale(1 1) rotate(0) translate(4 562)">
<title>src/consensus/aft/revealed_nonces.h</title>
<!-- Node1 -->
<g id="node1" class="node">
<title>Node1</title>
<g id="a_node1"><a xlink:title=" ">
<polygon fill="#999999" stroke="#666666" points="482,-558 336,-558 336,-528 482,-528 482,-558"/>
<text text-anchor="start" x="344" y="-546" font-family="Helvetica,sans-Serif" font-size="10.00">src/consensus/aft/revealed</text>
<text text-anchor="middle" x="409" y="-535" font-family="Helvetica,sans-Serif" font-size="10.00">_nonces.h</text>
</a>
</g>
</g>
<!-- Node2 -->
<g id="node2" class="node">
<title>Node2</title>
<g id="a_node2"><a xlink:href="entity__id_8h.html" target="_top" xlink:title=" ">
<polygon fill="white" stroke="#666666" points="488,-437 402,-437 402,-418 488,-418 488,-437"/>
<text text-anchor="middle" x="445" y="-425" font-family="Helvetica,sans-Serif" font-size="10.00">ccf/entity_id.h</text>
</a>
</g>
</g>
<!-- Node1&#45;&gt;Node2 -->
<g id="edge1" class="edge">
<title>Node1&#45;&gt;Node2</title>
<path fill="none" stroke="#63b8ff" d="M413.56,-527.63C420.06,-507.12 432.01,-469.47 439.15,-446.93"/>
<polygon fill="#63b8ff" stroke="#63b8ff" points="442.54,-447.82 442.23,-437.23 435.87,-445.7 442.54,-447.82"/>
</g>
<!-- Node5 -->
<g id="node5" class="node">
<title>Node5</title>
<g id="a_node5"><a xlink:title=" ">
<polygon fill="#e0e0e0" stroke="#999999" points="634,-189.5 590,-189.5 590,-170.5 634,-170.5 634,-189.5"/>
<text text-anchor="middle" x="612" y="-177.5" font-family="Helvetica,sans-Serif" font-size="10.00">string</text>
</a>
</g>
</g>
<!-- Node1&#45;&gt;Node5 -->
<g id="edge84" class="edge">
<title>Node1&#45;&gt;Node5</title>
<path fill="none" stroke="#63b8ff" d="M401.58,-527.74C391.3,-506.65 374,-465.62 374,-428.5 374,-428.5 374,-428.5 374,-311 374,-205.93 481.68,-232.06 580,-195 581.21,-194.54 582.45,-194.06 583.69,-193.57"/>
<polygon fill="#63b8ff" stroke="#63b8ff" points="585.29,-196.69 593.18,-189.62 582.61,-190.23 585.29,-196.69"/>
</g>
<!-- Node6 -->
<g id="node6" class="node">
<title>Node6</title>
<g id="a_node6"><a xlink:title=" ">
<polygon fill="#e0e0e0" stroke="#999999" points="134.5,-19 87.5,-19 87.5,0 134.5,0 134.5,-19"/>
<text text-anchor="middle" x="111" y="-7" font-family="Helvetica,sans-Serif" font-size="10.00">vector</text>
</a>
</g>
</g>
<!-- Node1&#45;&gt;Node6 -->
<g id="edge85" class="edge">
<title>Node1&#45;&gt;Node6</title>
<path fill="none" stroke="#63b8ff" d="M335.88,-536.72C218.24,-526.2 0,-497.4 0,-428.5 0,-428.5 0,-428.5 0,-118.5 0,-72.98 48.54,-40.44 81.42,-23.61"/>
<polygon fill="#63b8ff" stroke="#63b8ff" points="83.2,-26.64 90.64,-19.09 80.12,-20.35 83.2,-26.64"/>
</g>
<!-- Node25 -->
<g id="node25" class="node">
<title>Node25</title>
<g id="a_node25"><a xlink:href="service_2map_8h.html" target="_top" xlink:title=" ">
<polygon fill="white" stroke="#666666" points="848.5,-492 745.5,-492 745.5,-473 848.5,-473 848.5,-492"/>
<text text-anchor="middle" x="797" y="-480" font-family="Helvetica,sans-Serif" font-size="10.00">ccf/service/map.h</text>
</a>
</g>
</g>
<!-- Node1&#45;&gt;Node25 -->
<g id="edge31" class="edge">
<title>Node1&#45;&gt;Node25</title>
<path fill="none" stroke="#63b8ff" d="M482.44,-530.93C555.47,-519.92 666.28,-503.21 735.01,-492.85"/>
<polygon fill="#63b8ff" stroke="#63b8ff" points="735.89,-496.25 745.26,-491.3 734.85,-489.33 735.89,-496.25"/>
</g>
<!-- Node3 -->
<g id="node3" class="node">
<title>Node3</title>
<g id="a_node3"><a xlink:href="json_8h.html" target="_top" xlink:title=" ">
<polygon fill="white" stroke="#666666" points="216.5,-382 139.5,-382 139.5,-363 216.5,-363 216.5,-382"/>
<text text-anchor="middle" x="178" y="-370" font-family="Helvetica,sans-Serif" font-size="10.00">ccf/ds/json.h</text>
</a>
</g>
</g>
<!-- Node2&#45;&gt;Node3 -->
<g id="edge2" class="edge">
<title>Node2&#45;&gt;Node3</title>
<path fill="none" stroke="#63b8ff" d="M402.1,-417.98C354.25,-408.49 276.98,-393.15 226.84,-383.2"/>
<polygon fill="#63b8ff" stroke="#63b8ff" points="227.37,-379.73 216.88,-381.22 226.01,-386.6 227.37,-379.73"/>
</g>
<!-- Node2&#45;&gt;Node5 -->
<g id="edge30" class="edge">
<title>Node2&#45;&gt;Node5</title>
<path fill="none" stroke="#63b8ff" d="M440.91,-417.97C431.12,-396.25 408.76,-337.67 431,-297 447.97,-265.97 539.01,-217.31 585.15,-194.13"/>
<polygon fill="#63b8ff" stroke="#63b8ff" points="586.89,-197.18 594.28,-189.58 583.76,-190.91 586.89,-197.18"/>
</g>
<!-- Node18 -->
<g id="node18" class="node">
<title>Node18</title>
<g id="a_node18"><a xlink:href="blit__serialiser_8h.html" target="_top" xlink:title=" ">
<polygon fill="white" stroke="#666666" points="539.5,-327 440.5,-327 440.5,-297 539.5,-297 539.5,-327"/>
<text text-anchor="start" x="448.5" y="-315" font-family="Helvetica,sans-Serif" font-size="10.00">ccf/kv/serialisers</text>
<text text-anchor="middle" x="490" y="-304" font-family="Helvetica,sans-Serif" font-size="10.00">/blit_serialiser.h</text>
</a>
</g>
</g>
<!-- Node2&#45;&gt;Node18 -->
<g id="edge20" class="edge">
<title>Node2&#45;&gt;Node18</title>
<path fill="none" stroke="#63b8ff" d="M448.38,-417.97C455.14,-400.93 470.51,-362.16 480.56,-336.8"/>
<polygon fill="#63b8ff" stroke="#63b8ff" points="483.95,-337.77 484.38,-327.18 477.44,-335.19 483.95,-337.77"/>
</g>
<!-- Node4 -->
<g id="node4" class="node">
<title>Node4</title>
<g id="a_node4"><a xlink:href="include_2ccf_2crypto_2base64_8h.html" target="_top" xlink:title=" ">
<polygon fill="white" stroke="#666666" points="178,-255.5 66,-255.5 66,-236.5 178,-236.5 178,-255.5"/>
<text text-anchor="middle" x="122" y="-243.5" font-family="Helvetica,sans-Serif" font-size="10.00">ccf/crypto/base64.h</text>
</a>
</g>
</g>
<!-- Node3&#45;&gt;Node4 -->
<g id="edge3" class="edge">
<title>Node3&#45;&gt;Node4</title>
<path fill="none" stroke="#63b8ff" d="M168.68,-362.85C160.21,-354.48 148.01,-341.02 141,-327 131.25,-307.49 126.37,-282.78 124.02,-266.02"/>
<polygon fill="#63b8ff" stroke="#63b8ff" points="127.47,-265.35 122.77,-255.85 120.52,-266.21 127.47,-265.35"/>
</g>
<!-- Node7 -->
<g id="node7" class="node">
<title>Node7</title>
<g id="a_node7"><a xlink:href="include_2ccf_2ds_2json__schema_8h.html" target="_top" xlink:title=" ">
<polygon fill="white" stroke="#666666" points="345.5,-321.5 224.5,-321.5 224.5,-302.5 345.5,-302.5 345.5,-321.5"/>
<text text-anchor="middle" x="285" y="-309.5" font-family="Helvetica,sans-Serif" font-size="10.00">ccf/ds/json_schema.h</text>
</a>
</g>
</g>
<!-- Node3&#45;&gt;Node7 -->
<g id="edge6" class="edge">
<title>Node3&#45;&gt;Node7</title>
<path fill="none" stroke="#63b8ff" d="M193.79,-362.87C211.33,-353.28 239.88,-337.67 260.37,-326.47"/>
<polygon fill="#63b8ff" stroke="#63b8ff" points="262.05,-329.54 269.15,-321.67 258.69,-323.39 262.05,-329.54"/>
</g>
<!-- Node15 -->
<g id="node15" class="node">
<title>Node15</title>
<g id="a_node15"><a xlink:title=" ">
<polygon fill="#e0e0e0" stroke="#999999" points="145.5,-74 66.5,-74 66.5,-55 145.5,-55 145.5,-74"/>
<text text-anchor="middle" x="106" y="-62" font-family="Helvetica,sans-Serif" font-size="10.00">fmt/format.h</text>
</a>
</g>
</g>
<!-- Node3&#45;&gt;Node15 -->
<g id="edge18" class="edge">
<title>Node3&#45;&gt;Node15</title>
<path fill="none" stroke="#63b8ff" d="M161.85,-362.9C134.1,-347.07 78.3,-310.37 57,-261 29.88,-198.16 72.81,-117.21 94.58,-82.51"/>
<polygon fill="#63b8ff" stroke="#63b8ff" points="97.59,-84.31 100.08,-74.01 91.71,-80.5 97.59,-84.31"/>
</g>
<!-- Node17 -->
<g id="node17" class="node">
<title>Node17</title>
<g id="a_node17"><a xlink:title=" ">
<polygon fill="#e0e0e0" stroke="#999999" points="206,-321.5 150,-321.5 150,-302.5 206,-302.5 206,-321.5"/>
<text text-anchor="middle" x="178" y="-309.5" font-family="Helvetica,sans-Serif" font-size="10.00">sstream</text>
</a>
</g>
</g>
<!-- Node3&#45;&gt;Node17 -->
<g id="edge19" class="edge">
<title>Node3&#45;&gt;Node17</title>
<path fill="none" stroke="#63b8ff" d="M178,-362.87C178,-354.75 178,-342.31 178,-331.89"/>
<polygon fill="#63b8ff" stroke="#63b8ff" points="181.5,-331.67 178,-321.67 174.5,-331.67 181.5,-331.67"/>
</g>
<!-- Node4&#45;&gt;Node5 -->
<g id="edge4" class="edge">
<title>Node4&#45;&gt;Node5</title>
<path fill="none" stroke="#63b8ff" d="M178.31,-238.65C199.8,-236.23 224.53,-233.47 247,-231 394.97,-214.72 436.14,-233.28 580,-195 581.89,-194.5 583.81,-193.9 585.73,-193.24"/>
<polygon fill="#63b8ff" stroke="#63b8ff" points="587.06,-196.47 595.07,-189.55 584.49,-189.96 587.06,-196.47"/>
</g>
<!-- Node4&#45;&gt;Node6 -->
<g id="edge5" class="edge">
<title>Node4&#45;&gt;Node6</title>
<path fill="none" stroke="#63b8ff" d="M117.44,-236.43C104.73,-211.95 68.99,-139.29 57,-74 55.47,-65.69 53.4,-62.64 57,-55 63.01,-42.26 74.66,-31.92 85.61,-24.44"/>
<polygon fill="#63b8ff" stroke="#63b8ff" points="87.54,-27.36 94.11,-19.05 83.79,-21.44 87.54,-27.36"/>
</g>
<!-- Node8 -->
<g id="node8" class="node">
<title>Node8</title>
<g id="a_node8"><a xlink:href="nonstd_8h.html" target="_top" xlink:title=" ">
<polygon fill="white" stroke="#666666" points="346,-255.5 256,-255.5 256,-236.5 346,-236.5 346,-255.5"/>
<text text-anchor="middle" x="301" y="-243.5" font-family="Helvetica,sans-Serif" font-size="10.00">ccf/ds/nonstd.h</text>
</a>
</g>
</g>
<!-- Node7&#45;&gt;Node8 -->
<g id="edge7" class="edge">
<title>Node7&#45;&gt;Node8</title>
<path fill="none" stroke="#63b8ff" d="M287.16,-302.37C289.48,-293.07 293.26,-277.98 296.28,-265.9"/>
<polygon fill="#63b8ff" stroke="#63b8ff" points="299.74,-266.46 298.77,-255.91 292.95,-264.76 299.74,-266.46"/>
</g>
<!-- Node14 -->
<g id="node14" class="node">
<title>Node14</title>
<g id="a_node14"><a xlink:title=" ">
<polygon fill="#e0e0e0" stroke="#999999" points="984,-189.5 928,-189.5 928,-170.5 984,-170.5 984,-189.5"/>
<text text-anchor="middle" x="956" y="-177.5" font-family="Helvetica,sans-Serif" font-size="10.00">optional</text>
</a>
</g>
</g>
<!-- Node7&#45;&gt;Node14 -->
<g id="edge15" class="edge">
<title>Node7&#45;&gt;Node14</title>
<path fill="none" stroke="#63b8ff" d="M308.31,-302.45C353.9,-286.06 458.33,-250.16 549,-231 549.28,-230.94 816.27,-198.16 917.61,-185.71"/>
<polygon fill="#63b8ff" stroke="#63b8ff" points="918.23,-189.16 927.73,-184.47 917.37,-182.22 918.23,-189.16"/>
</g>
<!-- Node7&#45;&gt;Node15 -->
<g id="edge16" class="edge">
<title>Node7&#45;&gt;Node15</title>
<path fill="none" stroke="#63b8ff" d="M272.72,-302.45C248.26,-284.87 193.02,-242.36 160,-195 135.13,-159.33 118.69,-110.44 111.01,-84.11"/>
<polygon fill="#63b8ff" stroke="#63b8ff" points="114.33,-82.99 108.26,-74.31 107.59,-84.89 114.33,-82.99"/>
</g>
<!-- Node16 -->
<g id="node16" class="node">
<title>Node16</title>
<g id="a_node16"><a xlink:title=" ">
<polygon fill="#e0e0e0" stroke="#999999" points="668,-255.5 558,-255.5 558,-236.5 668,-236.5 668,-255.5"/>
<text text-anchor="middle" x="613" y="-243.5" font-family="Helvetica,sans-Serif" font-size="10.00">nlohmann/json.hpp</text>
</a>
</g>
</g>
<!-- Node7&#45;&gt;Node16 -->
<g id="edge17" class="edge">
<title>Node7&#45;&gt;Node16</title>
<path fill="none" stroke="#63b8ff" d="M329.94,-302.46C381.62,-292.6 468.98,-275.85 544,-261 549.68,-259.87 555.63,-258.69 561.54,-257.5"/>
<polygon fill="#63b8ff" stroke="#63b8ff" points="562.31,-260.91 571.42,-255.5 560.92,-254.05 562.31,-260.91"/>
</g>
<!-- Node8&#45;&gt;Node5 -->
<g id="edge11" class="edge">
<title>Node8&#45;&gt;Node5</title>
<path fill="none" stroke="#63b8ff" d="M335.23,-236.44C343.33,-234.54 351.95,-232.61 360,-231 457.15,-211.55 484.98,-223.08 580,-195 581.68,-194.5 583.39,-193.94 585.09,-193.33"/>
<polygon fill="#63b8ff" stroke="#63b8ff" points="586.7,-196.46 594.69,-189.51 584.11,-189.96 586.7,-196.46"/>
</g>
<!-- Node8&#45;&gt;Node6 -->
<g id="edge14" class="edge">
<title>Node8&#45;&gt;Node6</title>
<path fill="none" stroke="#63b8ff" d="M264.05,-236.45C240.54,-229.18 211.2,-216.41 193,-195 151.17,-145.78 186.09,-111.05 154,-55 147.77,-44.12 138.28,-33.91 129.81,-26.02"/>
<polygon fill="#63b8ff" stroke="#63b8ff" points="131.93,-23.23 122.12,-19.23 127.29,-28.47 131.93,-23.23"/>
</g>
<!-- Node9 -->
<g id="node9" class="node">
<title>Node9</title>
<g id="a_node9"><a xlink:title=" ">
<polygon fill="#e0e0e0" stroke="#999999" points="266,-189.5 202,-189.5 202,-170.5 266,-170.5 266,-189.5"/>
<text text-anchor="middle" x="234" y="-177.5" font-family="Helvetica,sans-Serif" font-size="10.00">algorithm</text>
</a>
</g>
</g>
<!-- Node8&#45;&gt;Node9 -->
<g id="edge8" class="edge">
<title>Node8&#45;&gt;Node9</title>
<path fill="none" stroke="#63b8ff" d="M291.96,-236.37C281.43,-226.31 263.81,-209.48 250.76,-197.01"/>
<polygon fill="#63b8ff" stroke="#63b8ff" points="252.97,-194.28 243.32,-189.91 248.14,-199.34 252.97,-194.28"/>
</g>
<!-- Node10 -->
<g id="node10" class="node">
<title>Node10</title>
<g id="a_node10"><a xlink:title=" ">
<polygon fill="#e0e0e0" stroke="#999999" points="326,-189.5 284,-189.5 284,-170.5 326,-170.5 326,-189.5"/>
<text text-anchor="middle" x="305" y="-177.5" font-family="Helvetica,sans-Serif" font-size="10.00">array</text>
</a>
</g>
</g>
<!-- Node8&#45;&gt;Node10 -->
<g id="edge9" class="edge">
<title>Node8&#45;&gt;Node10</title>
<path fill="none" stroke="#63b8ff" d="M301.54,-236.37C302.12,-227.07 303.06,-211.98 303.82,-199.9"/>
<polygon fill="#63b8ff" stroke="#63b8ff" points="307.31,-200.1 304.44,-189.91 300.33,-199.67 307.31,-200.1"/>
</g>
<!-- Node11 -->
<g id="node11" class="node">
<title>Node11</title>
<g id="a_node11"><a xlink:title=" ">
<polygon fill="#e0e0e0" stroke="#999999" points="393.5,-189.5 344.5,-189.5 344.5,-170.5 393.5,-170.5 393.5,-189.5"/>
<text text-anchor="middle" x="369" y="-177.5" font-family="Helvetica,sans-Serif" font-size="10.00">cctype</text>
</a>
</g>
</g>
<!-- Node8&#45;&gt;Node11 -->
<g id="edge10" class="edge">
<title>Node8&#45;&gt;Node11</title>
<path fill="none" stroke="#63b8ff" d="M310.17,-236.37C320.86,-226.31 338.74,-209.48 351.99,-197.01"/>
<polygon fill="#63b8ff" stroke="#63b8ff" points="354.65,-199.31 359.54,-189.91 349.86,-194.21 354.65,-199.31"/>
</g>
<!-- Node12 -->
<g id="node12" class="node">
<title>Node12</title>
<g id="a_node12"><a xlink:title=" ">
<polygon fill="#e0e0e0" stroke="#999999" points="484.5,-189.5 411.5,-189.5 411.5,-170.5 484.5,-170.5 484.5,-189.5"/>
<text text-anchor="middle" x="448" y="-177.5" font-family="Helvetica,sans-Serif" font-size="10.00">string_view</text>
</a>
</g>
</g>
<!-- Node8&#45;&gt;Node12 -->
<g id="edge12" class="edge">
<title>Node8&#45;&gt;Node12</title>
<path fill="none" stroke="#63b8ff" d="M320.83,-236.37C346.03,-225.39 389.76,-206.36 418.79,-193.72"/>
<polygon fill="#63b8ff" stroke="#63b8ff" points="420.25,-196.9 428.02,-189.7 417.45,-190.48 420.25,-196.9"/>
</g>
<!-- Node13 -->
<g id="node13" class="node">
<title>Node13</title>
<g id="a_node13"><a xlink:title=" ">
<polygon fill="#e0e0e0" stroke="#999999" points="571.5,-189.5 502.5,-189.5 502.5,-170.5 571.5,-170.5 571.5,-189.5"/>
<text text-anchor="middle" x="537" y="-177.5" font-family="Helvetica,sans-Serif" font-size="10.00">type_traits</text>
</a>
</g>
</g>
<!-- Node8&#45;&gt;Node13 -->
<g id="edge13" class="edge">
<title>Node8&#45;&gt;Node13</title>
<path fill="none" stroke="#63b8ff" d="M336.19,-236.43C374.81,-226.89 438.57,-210.74 493,-195 495.74,-194.21 498.58,-193.36 501.42,-192.5"/>
<polygon fill="#63b8ff" stroke="#63b8ff" points="502.5,-195.83 511.01,-189.52 500.42,-189.14 502.5,-195.83"/>
</g>
<!-- Node18&#45;&gt;Node8 -->
<g id="edge21" class="edge">
<title>Node18&#45;&gt;Node8</title>
<path fill="none" stroke="#63b8ff" d="M448.52,-296.95C414.79,-285.53 367.74,-269.6 335.91,-258.82"/>
<polygon fill="#63b8ff" stroke="#63b8ff" points="336.75,-255.41 326.15,-255.52 334.5,-262.04 336.75,-255.41"/>
</g>
<!-- Node19 -->
<g id="node19" class="node">
<title>Node19</title>
<g id="a_node19"><a xlink:href="serialised__entry_8h.html" target="_top" xlink:title=" ">
<polygon fill="white" stroke="#666666" points="833.5,-195 728.5,-195 728.5,-165 833.5,-165 833.5,-195"/>
<text text-anchor="start" x="736.5" y="-183" font-family="Helvetica,sans-Serif" font-size="10.00">ccf/kv/serialisers</text>
<text text-anchor="middle" x="781" y="-172" font-family="Helvetica,sans-Serif" font-size="10.00">/serialised_entry.h</text>
</a>
</g>
</g>
<!-- Node18&#45;&gt;Node19 -->
<g id="edge22" class="edge">
<title>Node18&#45;&gt;Node19</title>
<path fill="none" stroke="#63b8ff" d="M539.84,-298.75C590.93,-286.02 664.61,-267.12 677,-261 708.06,-245.67 738.91,-220.33 758.85,-202.28"/>
<polygon fill="#63b8ff" stroke="#63b8ff" points="761.46,-204.63 766.44,-195.27 756.71,-199.48 761.46,-204.63"/>
</g>
<!-- Node20 -->
<g id="node20" class="node">
<title>Node20</title>
<g id="a_node20"><a xlink:href="byte__vector_8h.html" target="_top" xlink:title=" ">
<polygon fill="white" stroke="#666666" points="371,-129 271,-129 271,-110 371,-110 371,-129"/>
<text text-anchor="middle" x="321" y="-117" font-family="Helvetica,sans-Serif" font-size="10.00">ccf/byte_vector.h</text>
</a>
</g>
</g>
<!-- Node19&#45;&gt;Node20 -->
<g id="edge23" class="edge">
<title>Node19&#45;&gt;Node20</title>
<path fill="none" stroke="#63b8ff" d="M728.23,-172.29C642.11,-161.34 471.87,-139.69 381.18,-128.15"/>
<polygon fill="#63b8ff" stroke="#63b8ff" points="381.42,-124.66 371.06,-126.87 380.53,-131.6 381.42,-124.66"/>
</g>
<!-- Node20&#45;&gt;Node15 -->
<g id="edge28" class="edge">
<title>Node20&#45;&gt;Node15</title>
<path fill="none" stroke="#63b8ff" d="M286.46,-109.98C249.58,-100.89 191.01,-86.46 150.66,-76.51"/>
<polygon fill="#63b8ff" stroke="#63b8ff" points="151.36,-73.08 140.81,-74.08 149.69,-79.87 151.36,-73.08"/>
</g>
<!-- Node21 -->
<g id="node21" class="node">
<title>Node21</title>
<g id="a_node21"><a xlink:href="siphash_8h.html" target="_top" xlink:title=" ">
<polygon fill="white" stroke="#666666" points="297.5,-74 202.5,-74 202.5,-55 297.5,-55 297.5,-74"/>
<text text-anchor="middle" x="250" y="-62" font-family="Helvetica,sans-Serif" font-size="10.00">ccf/ds/siphash.h</text>
</a>
</g>
</g>
<!-- Node20&#45;&gt;Node21 -->
<g id="edge24" class="edge">
<title>Node20&#45;&gt;Node21</title>
<path fill="none" stroke="#63b8ff" d="M309.59,-109.98C298.89,-102 282.66,-89.88 269.84,-80.31"/>
<polygon fill="#63b8ff" stroke="#63b8ff" points="271.72,-77.35 261.61,-74.17 267.53,-82.96 271.72,-77.35"/>
</g>
<!-- Node24 -->
<g id="node24" class="node">
<title>Node24</title>
<g id="a_node24"><a xlink:title=" ">
<polygon fill="#e0e0e0" stroke="#999999" points="464.5,-74 315.5,-74 315.5,-55 464.5,-55 464.5,-74"/>
<text text-anchor="middle" x="390" y="-62" font-family="Helvetica,sans-Serif" font-size="10.00">small_vector/SmallVector.h</text>
</a>
</g>
</g>
<!-- Node20&#45;&gt;Node24 -->
<g id="edge29" class="edge">
<title>Node20&#45;&gt;Node24</title>
<path fill="none" stroke="#63b8ff" d="M332.09,-109.98C342.49,-102 358.26,-89.88 370.72,-80.31"/>
<polygon fill="#63b8ff" stroke="#63b8ff" points="372.91,-83.04 378.71,-74.17 368.65,-77.49 372.91,-83.04"/>
</g>
<!-- Node21&#45;&gt;Node6 -->
<g id="edge27" class="edge">
<title>Node21&#45;&gt;Node6</title>
<path fill="none" stroke="#63b8ff" d="M227.67,-54.98C204.8,-46.27 169.04,-32.63 143.14,-22.75"/>
<polygon fill="#63b8ff" stroke="#63b8ff" points="144.33,-19.46 133.74,-19.17 141.84,-26 144.33,-19.46"/>
</g>
<!-- Node22 -->
<g id="node22" class="node">
<title>Node22</title>
<g id="a_node22"><a xlink:title=" ">
<polygon fill="#e0e0e0" stroke="#999999" points="311.5,-19 258.5,-19 258.5,0 311.5,0 311.5,-19"/>
<text text-anchor="middle" x="285" y="-7" font-family="Helvetica,sans-Serif" font-size="10.00">cstddef</text>
</a>
</g>
</g>
<!-- Node21&#45;&gt;Node22 -->
<g id="edge25" class="edge">
<title>Node21&#45;&gt;Node22</title>
<path fill="none" stroke="#63b8ff" d="M255.78,-54.75C260.62,-47.42 267.68,-36.73 273.64,-27.7"/>
<polygon fill="#63b8ff" stroke="#63b8ff" points="276.74,-29.36 279.33,-19.09 270.9,-25.5 276.74,-29.36"/>
</g>
<!-- Node23 -->
<g id="node23" class="node">
<title>Node23</title>
<g id="a_node23"><a xlink:title=" ">
<polygon fill="#e0e0e0" stroke="#999999" points="240,-19 190,-19 190,0 240,0 240,-19"/>
<text text-anchor="middle" x="215" y="-7" font-family="Helvetica,sans-Serif" font-size="10.00">cstdint</text>
</a>
</g>
</g>
<!-- Node21&#45;&gt;Node23 -->
<g id="edge26" class="edge">
<title>Node21&#45;&gt;Node23</title>
<path fill="none" stroke="#63b8ff" d="M244.22,-54.75C239.38,-47.42 232.32,-36.73 226.36,-27.7"/>
<polygon fill="#63b8ff" stroke="#63b8ff" points="229.1,-25.5 220.67,-19.09 223.26,-29.36 229.1,-25.5"/>
</g>
<!-- Node26 -->
<g id="node26" class="node">
<title>Node26</title>
<g id="a_node26"><a xlink:href="kv_2map_8h.html" target="_top" xlink:title=" ">
<polygon fill="white" stroke="#666666" points="952,-437 872,-437 872,-418 952,-418 952,-437"/>
<text text-anchor="middle" x="912" y="-425" font-family="Helvetica,sans-Serif" font-size="10.00">ccf/kv/map.h</text>
</a>
</g>
</g>
<!-- Node25&#45;&gt;Node26 -->
<g id="edge32" class="edge">
<title>Node25&#45;&gt;Node26</title>
<path fill="none" stroke="#63b8ff" d="M815.48,-472.98C833.98,-464.46 862.68,-451.23 883.98,-441.41"/>
<polygon fill="#63b8ff" stroke="#63b8ff" points="885.57,-444.53 893.19,-437.17 882.64,-438.18 885.57,-444.53"/>
</g>
<!-- Node40 -->
<g id="node40" class="node">
<title>Node40</title>
<g id="a_node40"><a xlink:href="set_8h.html" target="_top" xlink:title=" ">
<polygon fill="white" stroke="#666666" points="871.5,-382 798.5,-382 798.5,-363 871.5,-363 871.5,-382"/>
<text text-anchor="middle" x="835" y="-370" font-family="Helvetica,sans-Serif" font-size="10.00">ccf/kv/set.h</text>
</a>
</g>
</g>
<!-- Node25&#45;&gt;Node40 -->
<g id="edge65" class="edge">
<title>Node25&#45;&gt;Node40</title>
<path fill="none" stroke="#63b8ff" d="M800.11,-472.66C806.32,-455.01 820.37,-415.09 828.62,-391.64"/>
<polygon fill="#63b8ff" stroke="#63b8ff" points="831.94,-392.75 831.95,-382.16 825.33,-390.43 831.94,-392.75"/>
</g>
<!-- Node43 -->
<g id="node43" class="node">
<title>Node43</title>
<g id="a_node43"><a xlink:href="value_8h.html" target="_top" xlink:title=" ">
<polygon fill="white" stroke="#666666" points="780.5,-382 695.5,-382 695.5,-363 780.5,-363 780.5,-382"/>
<text text-anchor="middle" x="738" y="-370" font-family="Helvetica,sans-Serif" font-size="10.00">ccf/kv/value.h</text>
</a>
</g>
</g>
<!-- Node25&#45;&gt;Node43 -->
<g id="edge75" class="edge">
<title>Node25&#45;&gt;Node43</title>
<path fill="none" stroke="#63b8ff" d="M792.17,-472.66C782.44,-454.85 760.32,-414.37 747.56,-391.01"/>
<polygon fill="#63b8ff" stroke="#63b8ff" points="750.6,-389.26 742.73,-382.16 744.45,-392.61 750.6,-389.26"/>
</g>
<!-- Node26&#45;&gt;Node18 -->
<g id="edge60" class="edge">
<title>Node26&#45;&gt;Node18</title>
<path fill="none" stroke="#63b8ff" d="M871.74,-422.37C820.61,-416.47 729.99,-403.87 655,-382 609.83,-368.83 560.32,-347.07 527.43,-331.51"/>
<polygon fill="#63b8ff" stroke="#63b8ff" points="528.73,-328.25 518.2,-327.1 525.72,-334.57 528.73,-328.25"/>
</g>
<!-- Node27 -->
<g id="node27" class="node">
<title>Node27</title>
<g id="a_node27"><a xlink:href="get__name_8h.html" target="_top" xlink:title=" ">
<polygon fill="white" stroke="#666666" points="664.5,-321.5 557.5,-321.5 557.5,-302.5 664.5,-302.5 664.5,-321.5"/>
<text text-anchor="middle" x="611" y="-309.5" font-family="Helvetica,sans-Serif" font-size="10.00">ccf/kv/get_name.h</text>
</a>
</g>
</g>
<!-- Node26&#45;&gt;Node27 -->
<g id="edge33" class="edge">
<title>Node26&#45;&gt;Node27</title>
<path fill="none" stroke="#63b8ff" d="M871.91,-425.13C825,-422.1 746.1,-412.46 686,-382 660.97,-369.31 638.16,-345.86 624.43,-329.85"/>
<polygon fill="#63b8ff" stroke="#63b8ff" points="626.86,-327.3 617.78,-321.84 621.48,-331.77 626.86,-327.3"/>
</g>
<!-- Node28 -->
<g id="node28" class="node">
<title>Node28</title>
<g id="a_node28"><a xlink:href="include_2ccf_2kv_2hooks_8h.html" target="_top" xlink:title=" ">
<polygon fill="white" stroke="#666666" points="1401.5,-189.5 1314.5,-189.5 1314.5,-170.5 1401.5,-170.5 1401.5,-189.5"/>
<text text-anchor="middle" x="1358" y="-177.5" font-family="Helvetica,sans-Serif" font-size="10.00">ccf/kv/hooks.h</text>
</a>
</g>
</g>
<!-- Node26&#45;&gt;Node28 -->
<g id="edge35" class="edge">
<title>Node26&#45;&gt;Node28</title>
<path fill="none" stroke="#63b8ff" d="M952.13,-427.39C1017.49,-427.52 1149.96,-422.2 1253,-382 1328.06,-352.72 1359.9,-336.52 1388,-261 1396.04,-239.38 1383.25,-214.51 1371.96,-198.32"/>
<polygon fill="#63b8ff" stroke="#63b8ff" points="1374.45,-195.79 1365.66,-189.87 1368.84,-199.98 1374.45,-195.79"/>
</g>
<!-- Node32 -->
<g id="node32" class="node">
<title>Node32</title>
<g id="a_node32"><a xlink:href="map__diff_8h.html" target="_top" xlink:title=" ">
<polygon fill="white" stroke="#666666" points="1209.5,-382 1108.5,-382 1108.5,-363 1209.5,-363 1209.5,-382"/>
<text text-anchor="middle" x="1159" y="-370" font-family="Helvetica,sans-Serif" font-size="10.00">ccf/kv/map_diff.h</text>
</a>
</g>
</g>
<!-- Node26&#45;&gt;Node32 -->
<g id="edge39" class="edge">
<title>Node26&#45;&gt;Node32</title>
<path fill="none" stroke="#63b8ff" d="M951.68,-417.98C994.5,-408.8 1062.76,-394.15 1109.16,-384.19"/>
<polygon fill="#63b8ff" stroke="#63b8ff" points="1109.96,-387.6 1119,-382.08 1108.49,-380.76 1109.96,-387.6"/>
</g>
<!-- Node35 -->
<g id="node35" class="node">
<title>Node35</title>
<g id="a_node35"><a xlink:href="untyped_8h.html" target="_top" xlink:title=" ">
<polygon fill="white" stroke="#666666" points="1330,-255.5 1232,-255.5 1232,-236.5 1330,-236.5 1330,-255.5"/>
<text text-anchor="middle" x="1281" y="-243.5" font-family="Helvetica,sans-Serif" font-size="10.00">ccf/kv/untyped.h</text>
</a>
</g>
</g>
<!-- Node26&#45;&gt;Node35 -->
<g id="edge64" class="edge">
<title>Node26&#45;&gt;Node35</title>
<path fill="none" stroke="#63b8ff" d="M952.41,-427.14C1012.71,-426.69 1128.7,-420.3 1218,-382 1254.36,-366.4 1270.7,-362.59 1288,-327 1297.4,-307.66 1292.93,-282.59 1287.9,-265.71"/>
<polygon fill="#63b8ff" stroke="#63b8ff" points="1291.12,-264.33 1284.64,-255.95 1284.48,-266.54 1291.12,-264.33"/>
</g>
<!-- Node37 -->
<g id="node37" class="node">
<title>Node37</title>
<g id="a_node37"><a xlink:href="map__handle_8h.html" target="_top" xlink:title=" ">
<polygon fill="white" stroke="#666666" points="1078,-382 960,-382 960,-363 1078,-363 1078,-382"/>
<text text-anchor="middle" x="1019" y="-370" font-family="Helvetica,sans-Serif" font-size="10.00">ccf/kv/map_handle.h</text>
</a>
</g>
</g>
<!-- Node26&#45;&gt;Node37 -->
<g id="edge52" class="edge">
<title>Node26&#45;&gt;Node37</title>
<path fill="none" stroke="#63b8ff" d="M929.19,-417.98C946.25,-409.54 972.63,-396.47 992.4,-386.68"/>
<polygon fill="#63b8ff" stroke="#63b8ff" points="994.09,-389.75 1001.5,-382.17 990.98,-383.47 994.09,-389.75"/>
</g>
<!-- Node39 -->
<g id="node39" class="node">
<title>Node39</title>
<g id="a_node39"><a xlink:href="json__serialiser_8h.html" target="_top" xlink:title=" ">
<polygon fill="white" stroke="#666666" points="781.5,-327 682.5,-327 682.5,-297 781.5,-297 781.5,-327"/>
<text text-anchor="start" x="690.5" y="-315" font-family="Helvetica,sans-Serif" font-size="10.00">ccf/kv/serialisers</text>
<text text-anchor="middle" x="732" y="-304" font-family="Helvetica,sans-Serif" font-size="10.00">/json_serialiser.h</text>
</a>
</g>
</g>
<!-- Node26&#45;&gt;Node39 -->
<g id="edge61" class="edge">
<title>Node26&#45;&gt;Node39</title>
<path fill="none" stroke="#63b8ff" d="M909.9,-417.79C906.18,-404.18 897.15,-377.89 880,-363 866.29,-351.1 826.42,-337.96 791.52,-328.15"/>
<polygon fill="#63b8ff" stroke="#63b8ff" points="792.41,-324.76 781.83,-325.47 790.54,-331.51 792.41,-324.76"/>
</g>
<!-- Node27&#45;&gt;Node5 -->
<g id="edge34" class="edge">
<title>Node27&#45;&gt;Node5</title>
<path fill="none" stroke="#63b8ff" d="M593.11,-302.34C578.23,-294.03 558.07,-279.96 549,-261 543.25,-248.97 543.2,-243.01 549,-231 556.5,-215.47 571.43,-203.29 584.87,-194.84"/>
<polygon fill="#63b8ff" stroke="#63b8ff" points="586.97,-197.66 593.83,-189.59 583.43,-191.62 586.97,-197.66"/>
</g>
<!-- Node29 -->
<g id="node29" class="node">
<title>Node29</title>
<g id="a_node29"><a xlink:href="version_8h.html" target="_top" xlink:title=" ">
<polygon fill="white" stroke="#666666" points="1281,-129 1187,-129 1187,-110 1281,-110 1281,-129"/>
<text text-anchor="middle" x="1234" y="-117" font-family="Helvetica,sans-Serif" font-size="10.00">ccf/kv/version.h</text>
</a>
</g>
</g>
<!-- Node28&#45;&gt;Node29 -->
<g id="edge36" class="edge">
<title>Node28&#45;&gt;Node29</title>
<path fill="none" stroke="#63b8ff" d="M1339.97,-170.49C1319.31,-160.75 1285.22,-144.66 1261.3,-133.38"/>
<polygon fill="#63b8ff" stroke="#63b8ff" points="1262.59,-130.12 1252.05,-129.02 1259.6,-136.45 1262.59,-130.12"/>
</g>
<!-- Node30 -->
<g id="node30" class="node">
<title>Node30</title>
<g id="a_node30"><a xlink:title=" ">
<polygon fill="#e0e0e0" stroke="#999999" points="1168.5,-129 1103.5,-129 1103.5,-110 1168.5,-110 1168.5,-129"/>
<text text-anchor="middle" x="1136" y="-117" font-family="Helvetica,sans-Serif" font-size="10.00">functional</text>
</a>
</g>
</g>
<!-- Node28&#45;&gt;Node30 -->
<g id="edge37" class="edge">
<title>Node28&#45;&gt;Node30</title>
<path fill="none" stroke="#63b8ff" d="M1325.77,-170.48C1318.91,-168.67 1311.72,-166.77 1305,-165 1261.93,-153.64 1212.68,-140.67 1178.5,-131.68"/>
<polygon fill="#63b8ff" stroke="#63b8ff" points="1178.96,-128.18 1168.4,-129.02 1177.18,-134.95 1178.96,-128.18"/>
</g>
<!-- Node31 -->
<g id="node31" class="node">
<title>Node31</title>
<g id="a_node31"><a xlink:title=" ">
<polygon fill="#e0e0e0" stroke="#999999" points="1387,-129 1329,-129 1329,-110 1387,-110 1387,-129"/>
<text text-anchor="middle" x="1358" y="-117" font-family="Helvetica,sans-Serif" font-size="10.00">memory</text>
</a>
</g>
</g>
<!-- Node28&#45;&gt;Node31 -->
<g id="edge38" class="edge">
<title>Node28&#45;&gt;Node31</title>
<path fill="none" stroke="#63b8ff" d="M1358,-170.37C1358,-162.25 1358,-149.81 1358,-139.39"/>
<polygon fill="#63b8ff" stroke="#63b8ff" points="1361.5,-139.17 1358,-129.17 1354.5,-139.17 1361.5,-139.17"/>
</g>
<!-- Node33 -->
<g id="node33" class="node">
<title>Node33</title>
<g id="a_node33"><a xlink:href="untyped__map__diff_8h.html" target="_top" xlink:title=" ">
<polygon fill="white" stroke="#666666" points="1224,-327 1108,-327 1108,-297 1224,-297 1224,-327"/>
<text text-anchor="start" x="1116" y="-315" font-family="Helvetica,sans-Serif" font-size="10.00">ccf/kv/untyped_map</text>
<text text-anchor="middle" x="1166" y="-304" font-family="Helvetica,sans-Serif" font-size="10.00">_diff.h</text>
</a>
</g>
</g>
<!-- Node32&#45;&gt;Node33 -->
<g id="edge40" class="edge">
<title>Node32&#45;&gt;Node33</title>
<path fill="none" stroke="#63b8ff" d="M1160.03,-362.87C1160.84,-356.11 1162.01,-346.35 1163.1,-337.26"/>
<polygon fill="#63b8ff" stroke="#63b8ff" points="1166.6,-337.46 1164.31,-327.11 1159.65,-336.63 1166.6,-337.46"/>
</g>
<!-- Node33&#45;&gt;Node5 -->
<g id="edge51" class="edge">
<title>Node33&#45;&gt;Node5</title>
<path fill="none" stroke="#63b8ff" d="M1107.91,-302.5C1030.81,-290.95 902.02,-270.64 882,-261 863.84,-252.26 866,-240.05 848,-231 812.5,-213.15 699.95,-194.29 644.09,-185.72"/>
<polygon fill="#63b8ff" stroke="#63b8ff" points="644.44,-182.24 634.03,-184.2 643.39,-189.16 644.44,-182.24"/>
</g>
<!-- Node33&#45;&gt;Node14 -->
<g id="edge50" class="edge">
<title>Node33&#45;&gt;Node14</title>
<path fill="none" stroke="#63b8ff" d="M1149.29,-296.92C1128.81,-280.06 1092.68,-251.51 1059,-231 1035.4,-216.63 1007.07,-203.13 986.1,-193.78"/>
<polygon fill="#63b8ff" stroke="#63b8ff" points="987.3,-190.49 976.73,-189.67 984.48,-196.9 987.3,-190.49"/>
</g>
<!-- Node33&#45;&gt;Node19 -->
<g id="edge42" class="edge">
<title>Node33&#45;&gt;Node19</title>
<path fill="none" stroke="#63b8ff" d="M1107.74,-301.69C1047.31,-291.54 957.23,-274.89 925,-261 903.6,-251.78 902.05,-242.87 882,-231 862.7,-219.58 840.43,-208.36 821.72,-199.45"/>
<polygon fill="#63b8ff" stroke="#63b8ff" points="823.12,-196.24 812.58,-195.14 820.14,-202.57 823.12,-196.24"/>
</g>
<!-- Node33&#45;&gt;Node29 -->
<g id="edge48" class="edge">
<title>Node33&#45;&gt;Node29</title>
<path fill="none" stroke="#63b8ff" d="M1171,-296.99C1183.06,-263.21 1213.75,-177.23 1227.35,-139.14"/>
<polygon fill="#63b8ff" stroke="#63b8ff" points="1230.77,-139.96 1230.84,-129.36 1224.18,-137.6 1230.77,-139.96"/>
</g>
<!-- Node33&#45;&gt;Node30 -->
<g id="edge49" class="edge">
<title>Node33&#45;&gt;Node30</title>
<path fill="none" stroke="#63b8ff" d="M1164.69,-296.82C1162.16,-270.64 1156.02,-212.98 1147,-165 1145.38,-156.4 1143.12,-146.97 1141.07,-139.02"/>
<polygon fill="#63b8ff" stroke="#63b8ff" points="1144.44,-138.06 1138.49,-129.3 1137.68,-139.86 1144.44,-138.06"/>
</g>
<!-- Node34 -->
<g id="node34" class="node">
<title>Node34</title>
<g id="a_node34"><a xlink:href="abstract__handle_8h.html" target="_top" xlink:title=" ">
<polygon fill="white" stroke="#666666" points="1138,-189.5 1002,-189.5 1002,-170.5 1138,-170.5 1138,-189.5"/>
<text text-anchor="middle" x="1070" y="-177.5" font-family="Helvetica,sans-Serif" font-size="10.00">ccf/kv/abstract_handle.h</text>
</a>
</g>
</g>
<!-- Node33&#45;&gt;Node34 -->
<g id="edge41" class="edge">
<title>Node33&#45;&gt;Node34</title>
<path fill="none" stroke="#63b8ff" d="M1155.54,-296.84C1137.72,-272.71 1101.54,-223.71 1082.44,-197.85"/>
<polygon fill="#63b8ff" stroke="#63b8ff" points="1085.22,-195.71 1076.46,-189.75 1079.59,-199.87 1085.22,-195.71"/>
</g>
<!-- Node33&#45;&gt;Node35 -->
<g id="edge43" class="edge">
<title>Node33&#45;&gt;Node35</title>
<path fill="none" stroke="#63b8ff" d="M1191.24,-296.95C1210.78,-286.08 1237.68,-271.11 1256.93,-260.4"/>
<polygon fill="#63b8ff" stroke="#63b8ff" points="1258.66,-263.44 1265.7,-255.52 1255.26,-257.32 1258.66,-263.44"/>
</g>
<!-- Node35&#45;&gt;Node14 -->
<g id="edge47" class="edge">
<title>Node35&#45;&gt;Node14</title>
<path fill="none" stroke="#63b8ff" d="M1231.97,-239.37C1174.16,-232.07 1075.48,-217.55 993,-195 990.71,-194.37 988.36,-193.66 986.01,-192.9"/>
<polygon fill="#63b8ff" stroke="#63b8ff" points="987.11,-189.57 976.51,-189.55 984.78,-196.17 987.11,-189.57"/>
</g>
<!-- Node35&#45;&gt;Node19 -->
<g id="edge45" class="edge">
<title>Node35&#45;&gt;Node19</title>
<path fill="none" stroke="#63b8ff" d="M1231.69,-238.69C1140.22,-226.98 944.44,-201.92 843.72,-189.03"/>
<polygon fill="#63b8ff" stroke="#63b8ff" points="844.04,-185.54 833.68,-187.74 843.16,-192.48 844.04,-185.54"/>
</g>
<!-- Node35&#45;&gt;Node28 -->
<g id="edge44" class="edge">
<title>Node35&#45;&gt;Node28</title>
<path fill="none" stroke="#63b8ff" d="M1291.38,-236.37C1303.72,-226.12 1324.51,-208.84 1339.59,-196.31"/>
<polygon fill="#63b8ff" stroke="#63b8ff" points="1341.83,-198.99 1347.29,-189.91 1337.36,-193.61 1341.83,-198.99"/>
</g>
<!-- Node36 -->
<g id="node36" class="node">
<title>Node36</title>
<g id="a_node36"><a xlink:title=" ">
<polygon fill="#e0e0e0" stroke="#999999" points="1296,-189.5 1258,-189.5 1258,-170.5 1296,-170.5 1296,-189.5"/>
<text text-anchor="middle" x="1277" y="-177.5" font-family="Helvetica,sans-Serif" font-size="10.00">map</text>
</a>
</g>
</g>
<!-- Node35&#45;&gt;Node36 -->
<g id="edge46" class="edge">
<title>Node35&#45;&gt;Node36</title>
<path fill="none" stroke="#63b8ff" d="M1280.46,-236.37C1279.88,-227.07 1278.94,-211.98 1278.18,-199.9"/>
<polygon fill="#63b8ff" stroke="#63b8ff" points="1281.67,-199.67 1277.56,-189.91 1274.69,-200.1 1281.67,-199.67"/>
</g>
<!-- Node38 -->
<g id="node38" class="node">
<title>Node38</title>
<g id="a_node38"><a xlink:href="untyped__map__handle_8h.html" target="_top" xlink:title=" ">
<polygon fill="white" stroke="#666666" points="1050,-261 934,-261 934,-231 1050,-231 1050,-261"/>
<text text-anchor="start" x="942" y="-249" font-family="Helvetica,sans-Serif" font-size="10.00">ccf/kv/untyped_map</text>
<text text-anchor="middle" x="992" y="-238" font-family="Helvetica,sans-Serif" font-size="10.00">_handle.h</text>
</a>
</g>
</g>
<!-- Node37&#45;&gt;Node38 -->
<g id="edge53" class="edge">
<title>Node37&#45;&gt;Node38</title>
<path fill="none" stroke="#63b8ff" d="M1030.93,-362.8C1040.83,-354.77 1054.19,-341.87 1060,-327 1064.85,-314.58 1066.02,-308.9 1060,-297 1053.67,-284.5 1042.59,-274.36 1031.18,-266.56"/>
<polygon fill="#63b8ff" stroke="#63b8ff" points="1032.79,-263.44 1022.46,-261.06 1029.05,-269.36 1032.79,-263.44"/>
</g>
<!-- Node38&#45;&gt;Node5 -->
<g id="edge59" class="edge">
<title>Node38&#45;&gt;Node5</title>
<path fill="none" stroke="#63b8ff" d="M933.87,-235.21C852.73,-221.54 708.27,-197.21 644.17,-186.42"/>
<polygon fill="#63b8ff" stroke="#63b8ff" points="644.68,-182.95 634.24,-184.75 643.52,-189.86 644.68,-182.95"/>
</g>
<!-- Node38&#45;&gt;Node14 -->
<g id="edge58" class="edge">
<title>Node38&#45;&gt;Node14</title>
<path fill="none" stroke="#63b8ff" d="M984.01,-230.8C978.67,-221.31 971.61,-208.76 965.92,-198.63"/>
<polygon fill="#63b8ff" stroke="#63b8ff" points="968.93,-196.84 960.97,-189.84 962.83,-200.28 968.93,-196.84"/>
</g>
<!-- Node38&#45;&gt;Node19 -->
<g id="edge55" class="edge">
<title>Node38&#45;&gt;Node19</title>
<path fill="none" stroke="#63b8ff" d="M945.7,-230.95C913.68,-221.24 870.9,-208.27 836.97,-197.98"/>
<polygon fill="#63b8ff" stroke="#63b8ff" points="837.78,-194.57 827.2,-195.01 835.75,-201.26 837.78,-194.57"/>
</g>
<!-- Node38&#45;&gt;Node29 -->
<g id="edge56" class="edge">
<title>Node38&#45;&gt;Node29</title>
<path fill="none" stroke="#63b8ff" d="M963.42,-230.88C935.07,-215.03 898.57,-188.47 919,-165 955.22,-123.38 1104.73,-135.91 1176.69,-128.79"/>
<polygon fill="#63b8ff" stroke="#63b8ff" points="1177.21,-132.25 1186.73,-127.58 1176.38,-125.3 1177.21,-132.25"/>
</g>
<!-- Node38&#45;&gt;Node30 -->
<g id="edge57" class="edge">
<title>Node38&#45;&gt;Node30</title>
<path fill="none" stroke="#63b8ff" d="M946.64,-230.95C908.18,-216.7 862.68,-192.84 886,-165 911.95,-134.03 1028.9,-124.59 1093.24,-121.73"/>
<polygon fill="#63b8ff" stroke="#63b8ff" points="1093.62,-125.22 1103.47,-121.32 1093.34,-118.23 1093.62,-125.22"/>
</g>
<!-- Node38&#45;&gt;Node34 -->
<g id="edge54" class="edge">
<title>Node38&#45;&gt;Node34</title>
<path fill="none" stroke="#63b8ff" d="M1009.31,-230.8C1021.71,-220.62 1038.4,-206.93 1051.13,-196.48"/>
<polygon fill="#63b8ff" stroke="#63b8ff" points="1053.71,-198.89 1059.22,-189.84 1049.27,-193.48 1053.71,-198.89"/>
</g>
<!-- Node39&#45;&gt;Node16 -->
<g id="edge63" class="edge">
<title>Node39&#45;&gt;Node16</title>
<path fill="none" stroke="#63b8ff" d="M705.88,-296.95C685.66,-286.08 657.82,-271.11 637.91,-260.4"/>
<polygon fill="#63b8ff" stroke="#63b8ff" points="639.3,-257.17 628.84,-255.52 635.99,-263.34 639.3,-257.17"/>
</g>
<!-- Node39&#45;&gt;Node19 -->
<g id="edge62" class="edge">
<title>Node39&#45;&gt;Node19</title>
<path fill="none" stroke="#63b8ff" d="M734.6,-296.78C737.82,-280.51 744.03,-253.24 753,-231 756.68,-221.88 761.69,-212.36 766.46,-204.09"/>
<polygon fill="#63b8ff" stroke="#63b8ff" points="769.53,-205.77 771.65,-195.39 763.52,-202.18 769.53,-205.77"/>
</g>
<!-- Node40&#45;&gt;Node18 -->
<g id="edge68" class="edge">
<title>Node40&#45;&gt;Node18</title>
<path fill="none" stroke="#63b8ff" d="M798.36,-364.61C795.2,-364.05 792.04,-363.51 789,-363 685.31,-345.68 656,-347.59 549.47,-327.19"/>
<polygon fill="#63b8ff" stroke="#63b8ff" points="550.09,-323.75 539.61,-325.28 548.76,-330.62 550.09,-323.75"/>
</g>
<!-- Node40&#45;&gt;Node27 -->
<g id="edge66" class="edge">
<title>Node40&#45;&gt;Node27</title>
<path fill="none" stroke="#63b8ff" d="M802.43,-362.99C763.03,-352.7 696.61,-335.36 653.29,-324.04"/>
<polygon fill="#63b8ff" stroke="#63b8ff" points="654.17,-320.66 643.61,-321.52 652.4,-327.43 654.17,-320.66"/>
</g>
<!-- Node40&#45;&gt;Node28 -->
<g id="edge67" class="edge">
<title>Node40&#45;&gt;Node28</title>
<path fill="none" stroke="#63b8ff" d="M871.76,-368.45C976.25,-359.72 1268.75,-334.73 1288,-327 1332.06,-309.3 1351.25,-303.7 1372,-261 1381.6,-241.26 1374.34,-215.94 1367.18,-199.13"/>
<polygon fill="#63b8ff" stroke="#63b8ff" points="1370.28,-197.48 1362.89,-189.89 1363.93,-200.43 1370.28,-197.48"/>
</g>
<!-- Node40&#45;&gt;Node35 -->
<g id="edge74" class="edge">
<title>Node40&#45;&gt;Node35</title>
<path fill="none" stroke="#63b8ff" d="M871.79,-368.9C973.42,-361.55 1251.54,-340.31 1266,-327 1282.7,-311.62 1284.35,-284.04 1283.26,-265.63"/>
<polygon fill="#63b8ff" stroke="#63b8ff" points="1286.73,-265.18 1282.34,-255.54 1279.76,-265.81 1286.73,-265.18"/>
</g>
<!-- Node40&#45;&gt;Node39 -->
<g id="edge69" class="edge">
<title>Node40&#45;&gt;Node39</title>
<path fill="none" stroke="#63b8ff" d="M819.8,-362.87C805.7,-354.86 784.2,-342.65 766.01,-332.31"/>
<polygon fill="#63b8ff" stroke="#63b8ff" points="767.28,-329.01 756.85,-327.11 763.82,-335.1 767.28,-329.01"/>
</g>
<!-- Node41 -->
<g id="node41" class="node">
<title>Node41</title>
<g id="a_node41"><a xlink:href="set__handle_8h.html" target="_top" xlink:title=" ">
<polygon fill="white" stroke="#666666" points="1051.5,-321.5 940.5,-321.5 940.5,-302.5 1051.5,-302.5 1051.5,-321.5"/>
<text text-anchor="middle" x="996" y="-309.5" font-family="Helvetica,sans-Serif" font-size="10.00">ccf/kv/set_handle.h</text>
</a>
</g>
</g>
<!-- Node40&#45;&gt;Node41 -->
<g id="edge70" class="edge">
<title>Node40&#45;&gt;Node41</title>
<path fill="none" stroke="#63b8ff" d="M858.41,-362.99C885.95,-352.99 931.87,-336.3 963.01,-324.99"/>
<polygon fill="#63b8ff" stroke="#63b8ff" points="964.36,-328.22 972.56,-321.52 961.97,-321.64 964.36,-328.22"/>
</g>
<!-- Node41&#45;&gt;Node38 -->
<g id="edge73" class="edge">
<title>Node41&#45;&gt;Node38</title>
<path fill="none" stroke="#63b8ff" d="M995.46,-302.37C994.97,-294.49 994.22,-282.45 993.54,-271.6"/>
<polygon fill="#63b8ff" stroke="#63b8ff" points="997.01,-271.12 992.9,-261.36 990.03,-271.56 997.01,-271.12"/>
</g>
<!-- Node42 -->
<g id="node42" class="node">
<title>Node42</title>
<g id="a_node42"><a xlink:href="unit_8h.html" target="_top" xlink:title=" ">
<polygon fill="white" stroke="#666666" points="839.5,-255.5 762.5,-255.5 762.5,-236.5 839.5,-236.5 839.5,-255.5"/>
<text text-anchor="middle" x="801" y="-243.5" font-family="Helvetica,sans-Serif" font-size="10.00">ccf/kv/unit.h</text>
</a>
</g>
</g>
<!-- Node41&#45;&gt;Node42 -->
<g id="edge71" class="edge">
<title>Node41&#45;&gt;Node42</title>
<path fill="none" stroke="#63b8ff" d="M969.7,-302.37C935.44,-291.12 875.39,-271.42 836.95,-258.8"/>
<polygon fill="#63b8ff" stroke="#63b8ff" points="837.79,-255.39 827.19,-255.6 835.6,-262.04 837.79,-255.39"/>
</g>
<!-- Node42&#45;&gt;Node19 -->
<g id="edge72" class="edge">
<title>Node42&#45;&gt;Node19</title>
<path fill="none" stroke="#63b8ff" d="M798.3,-236.37C795.79,-228.32 791.92,-215.94 788.48,-204.93"/>
<polygon fill="#63b8ff" stroke="#63b8ff" points="791.81,-203.86 785.49,-195.36 785.13,-205.95 791.81,-203.86"/>
</g>
<!-- Node43&#45;&gt;Node18 -->
<g id="edge78" class="edge">
<title>Node43&#45;&gt;Node18</title>
<path fill="none" stroke="#63b8ff" d="M701.2,-362.96C664.93,-354.52 607.67,-341.16 549.41,-327.33"/>
<polygon fill="#63b8ff" stroke="#63b8ff" points="550.21,-323.92 539.67,-325.01 548.59,-330.73 550.21,-323.92"/>
</g>
<!-- Node43&#45;&gt;Node27 -->
<g id="edge76" class="edge">
<title>Node43&#45;&gt;Node27</title>
<path fill="none" stroke="#63b8ff" d="M719.53,-362.99C698.28,-353.2 663.15,-337.02 638.63,-325.73"/>
<polygon fill="#63b8ff" stroke="#63b8ff" points="640.04,-322.52 629.49,-321.52 637.11,-328.88 640.04,-322.52"/>
</g>
<!-- Node43&#45;&gt;Node28 -->
<g id="edge77" class="edge">
<title>Node43&#45;&gt;Node28</title>
<path fill="none" stroke="#63b8ff" d="M780.54,-364.12C783.4,-363.71 786.24,-363.33 789,-363 893.43,-350.34 1163.67,-366.91 1261,-327 1271.5,-322.69 1333.06,-270.67 1339,-261 1350.53,-242.22 1355.07,-217 1356.85,-199.93"/>
<polygon fill="#63b8ff" stroke="#63b8ff" points="1360.37,-199.85 1357.69,-189.6 1353.39,-199.28 1360.37,-199.85"/>
</g>
<!-- Node43&#45;&gt;Node35 -->
<g id="edge80" class="edge">
<title>Node43&#45;&gt;Node35</title>
<path fill="none" stroke="#63b8ff" d="M780.54,-364.14C783.4,-363.72 786.24,-363.34 789,-363 887.24,-350.85 1148.9,-379.22 1233,-327 1255.54,-313.01 1268.88,-284.18 1275.57,-265.22"/>
<polygon fill="#63b8ff" stroke="#63b8ff" points="1278.93,-266.22 1278.69,-255.62 1272.27,-264.05 1278.93,-266.22"/>
</g>
<!-- Node43&#45;&gt;Node39 -->
<g id="edge79" class="edge">
<title>Node43&#45;&gt;Node39</title>
<path fill="none" stroke="#63b8ff" d="M737.11,-362.87C736.42,-356.11 735.42,-346.35 734.49,-337.26"/>
<polygon fill="#63b8ff" stroke="#63b8ff" points="737.95,-336.71 733.45,-327.11 730.99,-337.42 737.95,-336.71"/>
</g>
<!-- Node44 -->
<g id="node44" class="node">
<title>Node44</title>
<g id="a_node44"><a xlink:href="value__handle_8h.html" target="_top" xlink:title=" ">
<polygon fill="white" stroke="#666666" points="922.5,-321.5 799.5,-321.5 799.5,-302.5 922.5,-302.5 922.5,-321.5"/>
<text text-anchor="middle" x="861" y="-309.5" font-family="Helvetica,sans-Serif" font-size="10.00">ccf/kv/value_handle.h</text>
</a>
</g>
</g>
<!-- Node43&#45;&gt;Node44 -->
<g id="edge81" class="edge">
<title>Node43&#45;&gt;Node44</title>
<path fill="none" stroke="#63b8ff" d="M755.89,-362.99C776.38,-353.25 810.19,-337.16 833.92,-325.88"/>
<polygon fill="#63b8ff" stroke="#63b8ff" points="835.57,-328.97 843.09,-321.52 832.56,-322.65 835.57,-328.97"/>
</g>
<!-- Node44&#45;&gt;Node38 -->
<g id="edge83" class="edge">
<title>Node44&#45;&gt;Node38</title>
<path fill="none" stroke="#63b8ff" d="M878.67,-302.37C897.86,-292.99 929.12,-277.72 953.94,-265.59"/>
<polygon fill="#63b8ff" stroke="#63b8ff" points="955.66,-268.65 963.11,-261.12 952.59,-262.36 955.66,-268.65"/>
</g>
<!-- Node44&#45;&gt;Node42 -->
<g id="edge82" class="edge">
<title>Node44&#45;&gt;Node42</title>
<path fill="none" stroke="#63b8ff" d="M852.91,-302.37C843.57,-292.4 827.99,-275.79 816.34,-263.36"/>
<polygon fill="#63b8ff" stroke="#63b8ff" points="818.74,-260.81 809.35,-255.91 813.63,-265.59 818.74,-260.81"/>
</g>
</g>
</svg>
