<?xml version="1.0" encoding="UTF-8" standalone="no"?>
<!DOCTYPE svg PUBLIC "-//W3C//DTD SVG 1.1//EN"
 "http://www.w3.org/Graphics/SVG/1.1/DTD/svg11.dtd">
<!-- Generated by graphviz version 2.43.0 (0)
 -->
<!-- Title: src/enclave/rpc_map.h Pages: 1 -->
<!--zoomable 511 -->
<svg id="main" version="1.1" xmlns="http://www.w3.org/2000/svg" xmlns:xlink="http://www.w3.org/1999/xlink" xml:space="preserve" onload="init(evt)">
<style type="text/css"><![CDATA[
.edge:hover path { stroke: red; }
.edge:hover polygon { stroke: red; fill: red; }
]]></style>
<script type="text/javascript"><![CDATA[
var edges = document.getElementsByTagName('g');
if (edges && edges.length) {
  for (var i=0;i<edges.length;i++) {
    if (edges[i].id.substr(0,4)=='edge') {
      edges[i].setAttribute('class','edge');
    }
  }
}
]]></script>
        <defs>
                <circle id="rim" cx="0" cy="0" r="7"/>
                <circle id="rim2" cx="0" cy="0" r="3.5"/>
                <g id="zoomPlus">
                        <use xlink:href="#rim" fill="#404040">
                                <set attributeName="fill" to="#808080" begin="zoomplus.mouseover" end="zoomplus.mouseout"/>
                        </use>
                        <path d="M-4,0h8M0,-4v8" fill="none" stroke="white" stroke-width="1.5" pointer-events="none"/>
                </g>
                <g id="zoomMin">
                        <use xlink:href="#rim" fill="#404040">
                                <set attributeName="fill" to="#808080" begin="zoomminus.mouseover" end="zoomminus.mouseout"/>
                        </use>
                        <path d="M-4,0h8" fill="none" stroke="white" stroke-width="1.5" pointer-events="none"/>
                </g>
                <g id="dirArrow">
                        <path fill="none" stroke="white" stroke-width="1.5" d="M0,-3.0v7 M-2.5,-0.5L0,-3.0L2.5,-0.5"/>
                </g>
               <g id="resetDef">
                       <use xlink:href="#rim2" fill="#404040">
                               <set attributeName="fill" to="#808080" begin="reset.mouseover" end="reset.mouseout"/>
                       </use>
               </g>
        </defs>

<script type="text/javascript">
var viewWidth = 1242;
var viewHeight = 511;
var sectionId = 'dynsection-1';
</script>
<script xlink:href="svgpan.js"/>
<svg id="graph" class="graph">
<g id="viewport">
<title>src/enclave/rpc_map.h</title>
<!-- Node1 -->
<g id="node1" class="node">
<title>Node1</title>
<g id="a_node1"><a xlink:title=" ">
<polygon fill="#999999" stroke="#666666" points="521,-503 395,-503 395,-484 521,-484 521,-503"/>
<text text-anchor="middle" x="458" y="-491" font-family="Helvetica,sans-Serif" font-size="10.00">src/enclave/rpc_map.h</text>
</a>
</g>
</g>
<!-- Node2 -->
<g id="node2" class="node">
<title>Node2</title>
<g id="a_node2"><a xlink:href="src_2enclave_2enclave_8h.html" target="_top" xlink:title=" ">
<polygon fill="white" stroke="#666666" points="1006,-74 884,-74 884,-55 1006,-55 1006,-74"/>
<text text-anchor="middle" x="945" y="-62" font-family="Helvetica,sans-Serif" font-size="10.00">src/enclave/enclave.h</text>
</a>
</g>
</g>
<!-- Node1&#45;&gt;Node2 -->
<g id="edge1" class="edge">
<title>Node1&#45;&gt;Node2</title>
<path fill="none" stroke="#63b8ff" d="M384.57,-489.4C255.15,-481.93 0,-457.26 0,-379 0,-379 0,-379 0,-179 0,-89.67 674.32,-70.27 883.72,-66.4"/>
<polygon fill="#63b8ff" stroke="#63b8ff" points="384.62,-492.91 394.8,-489.97 385.01,-485.92 384.62,-492.91"/>
</g>
<!-- Node4 -->
<g id="node4" class="node">
<title>Node4</title>
<g id="a_node4"><a xlink:href="http2__session_8h.html" target="_top" xlink:title=" ">
<polygon fill="white" stroke="#666666" points="524.5,-448 391.5,-448 391.5,-429 524.5,-429 524.5,-448"/>
<text text-anchor="middle" x="458" y="-436" font-family="Helvetica,sans-Serif" font-size="10.00">src/http/http2_session.h</text>
</a>
</g>
</g>
<!-- Node1&#45;&gt;Node4 -->
<g id="edge3" class="edge">
<title>Node1&#45;&gt;Node4</title>
<path fill="none" stroke="#63b8ff" d="M458,-473.66C458,-464.93 458,-454.99 458,-448.09"/>
<polygon fill="#63b8ff" stroke="#63b8ff" points="454.5,-473.75 458,-483.75 461.5,-473.75 454.5,-473.75"/>
</g>
<!-- Node11 -->
<g id="node11" class="node">
<title>Node11</title>
<g id="a_node11"><a xlink:href="http__session_8h.html" target="_top" xlink:title=" ">
<polygon fill="white" stroke="#666666" points="373.5,-448 246.5,-448 246.5,-429 373.5,-429 373.5,-448"/>
<text text-anchor="middle" x="310" y="-436" font-family="Helvetica,sans-Serif" font-size="10.00">src/http/http_session.h</text>
</a>
</g>
</g>
<!-- Node1&#45;&gt;Node11 -->
<g id="edge16" class="edge">
<title>Node1&#45;&gt;Node11</title>
<path fill="none" stroke="#63b8ff" d="M424.63,-480.55C397.15,-470.71 358.83,-456.98 334.21,-448.17"/>
<polygon fill="#63b8ff" stroke="#63b8ff" points="423.63,-483.91 434.22,-483.98 425.99,-477.32 423.63,-483.91"/>
</g>
<!-- Node12 -->
<g id="node12" class="node">
<title>Node12</title>
<g id="a_node12"><a xlink:href="node__client_8h.html" target="_top" xlink:title=" ">
<polygon fill="white" stroke="#666666" points="678,-448 552,-448 552,-429 678,-429 678,-448"/>
<text text-anchor="middle" x="615" y="-436" font-family="Helvetica,sans-Serif" font-size="10.00">src/node/node_client.h</text>
</a>
</g>
</g>
<!-- Node1&#45;&gt;Node12 -->
<g id="edge18" class="edge">
<title>Node1&#45;&gt;Node12</title>
<path fill="none" stroke="#63b8ff" d="M493.05,-480.67C522.32,-470.79 563.37,-456.93 589.58,-448.08"/>
<polygon fill="#63b8ff" stroke="#63b8ff" points="491.58,-477.47 483.22,-483.98 493.82,-484.1 491.58,-477.47"/>
</g>
<!-- Node19 -->
<g id="node19" class="node">
<title>Node19</title>
<g id="a_node19"><a xlink:href="forwarder_8h.html" target="_top" xlink:title=" ">
<polygon fill="white" stroke="#666666" points="1072,-448 938,-448 938,-429 1072,-429 1072,-448"/>
<text text-anchor="middle" x="1005" y="-436" font-family="Helvetica,sans-Serif" font-size="10.00">src/node/rpc/forwarder.h</text>
</a>
</g>
</g>
<!-- Node1&#45;&gt;Node19 -->
<g id="edge31" class="edge">
<title>Node1&#45;&gt;Node19</title>
<path fill="none" stroke="#63b8ff" d="M531.05,-485.42C637.76,-475.08 834.75,-456 937.95,-446"/>
<polygon fill="#63b8ff" stroke="#63b8ff" points="530.63,-481.95 521.01,-486.39 531.31,-488.91 530.63,-481.95"/>
</g>
<!-- Node3 -->
<g id="node3" class="node">
<title>Node3</title>
<g id="a_node3"><a xlink:href="enclave_2main_8cpp.html" target="_top" xlink:title=" ">
<polygon fill="white" stroke="#666666" points="1005,-19 885,-19 885,0 1005,0 1005,-19"/>
<text text-anchor="middle" x="945" y="-7" font-family="Helvetica,sans-Serif" font-size="10.00">src/enclave/main.cpp</text>
</a>
</g>
</g>
<!-- Node2&#45;&gt;Node3 -->
<g id="edge2" class="edge">
<title>Node2&#45;&gt;Node3</title>
<path fill="none" stroke="#63b8ff" d="M945,-44.66C945,-35.93 945,-25.99 945,-19.09"/>
<polygon fill="#63b8ff" stroke="#63b8ff" points="941.5,-44.75 945,-54.75 948.5,-44.75 941.5,-44.75"/>
</g>
<!-- Node5 -->
<g id="node5" class="node">
<title>Node5</title>
<g id="a_node5"><a xlink:href="rpc__sessions_8h.html" target="_top" xlink:title=" ">
<polygon fill="white" stroke="#666666" points="383,-321.5 237,-321.5 237,-302.5 383,-302.5 383,-321.5"/>
<text text-anchor="middle" x="310" y="-309.5" font-family="Helvetica,sans-Serif" font-size="10.00">src/enclave/rpc_sessions.h</text>
</a>
</g>
</g>
<!-- Node4&#45;&gt;Node5 -->
<g id="edge4" class="edge">
<title>Node4&#45;&gt;Node5</title>
<path fill="none" stroke="#63b8ff" d="M439.89,-422.26C408.51,-395.87 345.03,-342.47 320.24,-321.62"/>
<polygon fill="#63b8ff" stroke="#63b8ff" points="437.92,-425.18 447.83,-428.94 442.43,-419.83 437.92,-425.18"/>
</g>
<!-- Node5&#45;&gt;Node2 -->
<g id="edge5" class="edge">
<title>Node5&#45;&gt;Node2</title>
<path fill="none" stroke="#63b8ff" d="M226.66,-310.59C135.3,-307.17 7.79,-291.85 57,-231 161.41,-101.91 700.64,-73.14 883.94,-67.05"/>
<polygon fill="#63b8ff" stroke="#63b8ff" points="226.66,-314.09 236.77,-310.93 226.9,-307.09 226.66,-314.09"/>
</g>
<!-- Node6 -->
<g id="node6" class="node">
<title>Node6</title>
<g id="a_node6"><a xlink:href="ccf__acme__client_8h.html" target="_top" xlink:title=" ">
<polygon fill="white" stroke="#666666" points="568.5,-255.5 419.5,-255.5 419.5,-236.5 568.5,-236.5 568.5,-255.5"/>
<text text-anchor="middle" x="494" y="-243.5" font-family="Helvetica,sans-Serif" font-size="10.00">src/node/ccf_acme_client.h</text>
</a>
</g>
</g>
<!-- Node5&#45;&gt;Node6 -->
<g id="edge6" class="edge">
<title>Node5&#45;&gt;Node6</title>
<path fill="none" stroke="#63b8ff" d="M344.5,-299C380.83,-286.36 437.15,-266.78 469.28,-255.6"/>
<polygon fill="#63b8ff" stroke="#63b8ff" points="343.11,-295.78 334.82,-302.37 345.41,-302.39 343.11,-295.78"/>
</g>
<!-- Node7 -->
<g id="node7" class="node">
<title>Node7</title>
<g id="a_node7"><a xlink:href="node__state_8h.html" target="_top" xlink:title=" ">
<polygon fill="white" stroke="#666666" points="725,-189.5 601,-189.5 601,-170.5 725,-170.5 725,-189.5"/>
<text text-anchor="middle" x="663" y="-177.5" font-family="Helvetica,sans-Serif" font-size="10.00">src/node/node_state.h</text>
</a>
</g>
</g>
<!-- Node5&#45;&gt;Node7 -->
<g id="edge11" class="edge">
<title>Node5&#45;&gt;Node7</title>
<path fill="none" stroke="#63b8ff" d="M328.92,-295.97C358,-272.87 410.41,-231.27 411,-231 471.94,-202.84 548.32,-190.51 600.93,-185.13"/>
<polygon fill="#63b8ff" stroke="#63b8ff" points="326.38,-293.52 320.73,-302.48 330.74,-299 326.38,-293.52"/>
</g>
<!-- Node9 -->
<g id="node9" class="node">
<title>Node9</title>
<g id="a_node9"><a xlink:href="quote__endorsements__client_8h.html" target="_top" xlink:title=" ">
<polygon fill="white" stroke="#666666" points="230,-261 66,-261 66,-231 230,-231 230,-261"/>
<text text-anchor="start" x="74" y="-249" font-family="Helvetica,sans-Serif" font-size="10.00">src/node/quote_endorsements</text>
<text text-anchor="middle" x="148" y="-238" font-family="Helvetica,sans-Serif" font-size="10.00">_client.h</text>
</a>
</g>
</g>
<!-- Node5&#45;&gt;Node9 -->
<g id="edge12" class="edge">
<title>Node5&#45;&gt;Node9</title>
<path fill="none" stroke="#63b8ff" d="M278.73,-298.65C251.54,-287.9 212.16,-272.35 183.73,-261.12"/>
<polygon fill="#63b8ff" stroke="#63b8ff" points="277.57,-301.95 288.15,-302.37 280.14,-295.44 277.57,-301.95"/>
</g>
<!-- Node10 -->
<g id="node10" class="node">
<title>Node10</title>
<g id="a_node10"><a xlink:href="resharing_8h.html" target="_top" xlink:title=" ">
<polygon fill="white" stroke="#666666" points="364,-255.5 248,-255.5 248,-236.5 364,-236.5 364,-255.5"/>
<text text-anchor="middle" x="306" y="-243.5" font-family="Helvetica,sans-Serif" font-size="10.00">src/node/resharing.h</text>
</a>
</g>
</g>
<!-- Node5&#45;&gt;Node10 -->
<g id="edge14" class="edge">
<title>Node5&#45;&gt;Node10</title>
<path fill="none" stroke="#63b8ff" d="M308.82,-292.08C308.07,-280.13 307.14,-265.22 306.56,-255.91"/>
<polygon fill="#63b8ff" stroke="#63b8ff" points="305.34,-292.61 309.46,-302.37 312.33,-292.17 305.34,-292.61"/>
</g>
<!-- Node6&#45;&gt;Node7 -->
<g id="edge7" class="edge">
<title>Node6&#45;&gt;Node7</title>
<path fill="none" stroke="#63b8ff" d="M526.54,-232.68C559.94,-220.03 611.03,-200.68 640.3,-189.6"/>
<polygon fill="#63b8ff" stroke="#63b8ff" points="524.9,-229.55 516.79,-236.37 527.38,-236.1 524.9,-229.55"/>
</g>
<!-- Node7&#45;&gt;Node2 -->
<g id="edge8" class="edge">
<title>Node7&#45;&gt;Node2</title>
<path fill="none" stroke="#63b8ff" d="M693.48,-166.73C750.93,-143.61 873.91,-94.11 923.56,-74.13"/>
<polygon fill="#63b8ff" stroke="#63b8ff" points="692.17,-163.49 684.2,-170.47 694.78,-169.98 692.17,-163.49"/>
</g>
<!-- Node8 -->
<g id="node8" class="node">
<title>Node8</title>
<g id="a_node8"><a xlink:href="gov__effects_8h.html" target="_top" xlink:title=" ">
<polygon fill="white" stroke="#666666" points="776,-129 632,-129 632,-110 776,-110 776,-129"/>
<text text-anchor="middle" x="704" y="-117" font-family="Helvetica,sans-Serif" font-size="10.00">src/node/rpc/gov_effects.h</text>
</a>
</g>
</g>
<!-- Node7&#45;&gt;Node8 -->
<g id="edge9" class="edge">
<title>Node7&#45;&gt;Node8</title>
<path fill="none" stroke="#63b8ff" d="M674.82,-162.13C682.38,-151.35 691.86,-137.82 697.93,-129.17"/>
<polygon fill="#63b8ff" stroke="#63b8ff" points="671.92,-160.17 669.05,-170.37 677.66,-164.19 671.92,-160.17"/>
</g>
<!-- Node8&#45;&gt;Node2 -->
<g id="edge10" class="edge">
<title>Node8&#45;&gt;Node2</title>
<path fill="none" stroke="#63b8ff" d="M752.58,-107.82C797.75,-97.88 864.17,-83.28 905.98,-74.08"/>
<polygon fill="#63b8ff" stroke="#63b8ff" points="751.74,-104.42 742.72,-109.98 753.24,-111.26 751.74,-104.42"/>
</g>
<!-- Node9&#45;&gt;Node7 -->
<g id="edge13" class="edge">
<title>Node9&#45;&gt;Node7</title>
<path fill="none" stroke="#63b8ff" d="M240.38,-230.84C374.67,-212.74 520.06,-196.42 600.77,-187.64"/>
<polygon fill="#63b8ff" stroke="#63b8ff" points="239.76,-227.39 230.32,-232.2 240.7,-234.33 239.76,-227.39"/>
</g>
<!-- Node10&#45;&gt;Node7 -->
<g id="edge15" class="edge">
<title>Node10&#45;&gt;Node7</title>
<path fill="none" stroke="#63b8ff" d="M359.23,-234.54C365.55,-233.33 371.92,-232.12 378,-231 460.12,-215.81 555.78,-199.26 612.75,-189.53"/>
<polygon fill="#63b8ff" stroke="#63b8ff" points="358.54,-231.1 349.38,-236.43 359.86,-237.98 358.54,-231.1"/>
</g>
<!-- Node11&#45;&gt;Node5 -->
<g id="edge17" class="edge">
<title>Node11&#45;&gt;Node5</title>
<path fill="none" stroke="#63b8ff" d="M310,-418.74C310,-391.36 310,-341.58 310,-321.62"/>
<polygon fill="#63b8ff" stroke="#63b8ff" points="306.5,-418.94 310,-428.94 313.5,-418.94 306.5,-418.94"/>
</g>
<!-- Node13 -->
<g id="node13" class="node">
<title>Node13</title>
<g id="a_node13"><a xlink:href="orc__requests_8h.html" target="_top" xlink:title=" ">
<polygon fill="white" stroke="#666666" points="854.5,-393 735.5,-393 735.5,-363 854.5,-363 854.5,-393"/>
<text text-anchor="start" x="743.5" y="-381" font-family="Helvetica,sans-Serif" font-size="10.00">src/consensus/aft/orc</text>
<text text-anchor="middle" x="795" y="-370" font-family="Helvetica,sans-Serif" font-size="10.00">_requests.h</text>
</a>
</g>
</g>
<!-- Node12&#45;&gt;Node13 -->
<g id="edge19" class="edge">
<title>Node12&#45;&gt;Node13</title>
<path fill="none" stroke="#63b8ff" d="M650.91,-425.83C679.93,-416.4 720.89,-403.09 751.73,-393.06"/>
<polygon fill="#63b8ff" stroke="#63b8ff" points="649.6,-422.57 641.17,-428.99 651.77,-429.23 649.6,-422.57"/>
</g>
<!-- Node14 -->
<g id="node14" class="node">
<title>Node14</title>
<g id="a_node14"><a xlink:href="raft_8h.html" target="_top" xlink:title=" ">
<polygon fill="white" stroke="#666666" points="702.5,-321.5 573.5,-321.5 573.5,-302.5 702.5,-302.5 702.5,-321.5"/>
<text text-anchor="middle" x="638" y="-309.5" font-family="Helvetica,sans-Serif" font-size="10.00">src/consensus/aft/raft.h</text>
</a>
</g>
</g>
<!-- Node12&#45;&gt;Node14 -->
<g id="edge26" class="edge">
<title>Node12&#45;&gt;Node14</title>
<path fill="none" stroke="#63b8ff" d="M650.75,-424.78C664.99,-417.74 679.89,-407.44 688,-393 694.53,-381.37 693.1,-375.32 688,-363 680.67,-345.31 663.71,-330.61 651.57,-321.83"/>
<polygon fill="#63b8ff" stroke="#63b8ff" points="649.23,-421.62 641.57,-428.94 652.12,-428 649.23,-421.62"/>
</g>
<!-- Node17 -->
<g id="node17" class="node">
<title>Node17</title>
<g id="a_node17"><a xlink:href="http__node__client_8h.html" target="_top" xlink:title=" ">
<polygon fill="white" stroke="#666666" points="697,-261 587,-261 587,-231 697,-231 697,-261"/>
<text text-anchor="start" x="595" y="-249" font-family="Helvetica,sans-Serif" font-size="10.00">src/node/http_node</text>
<text text-anchor="middle" x="642" y="-238" font-family="Helvetica,sans-Serif" font-size="10.00">_client.h</text>
</a>
</g>
</g>
<!-- Node12&#45;&gt;Node17 -->
<g id="edge27" class="edge">
<title>Node12&#45;&gt;Node17</title>
<path fill="none" stroke="#63b8ff" d="M579.25,-424.78C565.01,-417.74 550.11,-407.44 542,-393 535.47,-381.37 539.77,-376.15 542,-363 547.18,-332.37 545.83,-321.44 565,-297 577,-281.7 595.05,-269.63 610.66,-261.18"/>
<polygon fill="#63b8ff" stroke="#63b8ff" points="577.88,-428 588.43,-428.94 580.77,-421.62 577.88,-428"/>
</g>
<!-- Node18 -->
<g id="node18" class="node">
<title>Node18</title>
<g id="a_node18"><a xlink:href="retired__nodes__cleanup_8h.html" target="_top" xlink:title=" ">
<polygon fill="white" stroke="#666666" points="679,-393 551,-393 551,-363 679,-363 679,-393"/>
<text text-anchor="start" x="559" y="-381" font-family="Helvetica,sans-Serif" font-size="10.00">src/node/retired_nodes</text>
<text text-anchor="middle" x="615" y="-370" font-family="Helvetica,sans-Serif" font-size="10.00">_cleanup.h</text>
</a>
</g>
</g>
<!-- Node12&#45;&gt;Node18 -->
<g id="edge29" class="edge">
<title>Node12&#45;&gt;Node18</title>
<path fill="none" stroke="#63b8ff" d="M615,-418.65C615,-410.36 615,-400.78 615,-393.11"/>
<polygon fill="#63b8ff" stroke="#63b8ff" points="611.5,-418.87 615,-428.87 618.5,-418.87 611.5,-418.87"/>
</g>
<!-- Node13&#45;&gt;Node14 -->
<g id="edge20" class="edge">
<title>Node13&#45;&gt;Node14</title>
<path fill="none" stroke="#63b8ff" d="M751.09,-359.1C720.95,-346.82 682.31,-331.06 658.89,-321.52"/>
<polygon fill="#63b8ff" stroke="#63b8ff" points="749.96,-362.42 760.55,-362.95 752.61,-355.94 749.96,-362.42"/>
</g>
<!-- Node15 -->
<g id="node15" class="node">
<title>Node15</title>
<g id="a_node15"><a xlink:href="node__frontend_8h.html" target="_top" xlink:title=" ">
<polygon fill="white" stroke="#666666" points="879,-321.5 721,-321.5 721,-302.5 879,-302.5 879,-321.5"/>
<text text-anchor="middle" x="800" y="-309.5" font-family="Helvetica,sans-Serif" font-size="10.00">src/node/rpc/node_frontend.h</text>
</a>
</g>
</g>
<!-- Node13&#45;&gt;Node15 -->
<g id="edge22" class="edge">
<title>Node13&#45;&gt;Node15</title>
<path fill="none" stroke="#63b8ff" d="M796.91,-352.6C797.75,-341.8 798.69,-329.78 799.31,-321.84"/>
<polygon fill="#63b8ff" stroke="#63b8ff" points="793.4,-352.55 796.11,-362.8 800.38,-353.1 793.4,-352.55"/>
</g>
<!-- Node14&#45;&gt;Node7 -->
<g id="edge21" class="edge">
<title>Node14&#45;&gt;Node7</title>
<path fill="none" stroke="#63b8ff" d="M667.39,-297.57C681.84,-289.26 697.86,-277.09 706,-261 719.31,-234.69 690.23,-204.13 673.59,-189.57"/>
<polygon fill="#63b8ff" stroke="#63b8ff" points="665.39,-294.67 658.22,-302.47 668.69,-300.84 665.39,-294.67"/>
</g>
<!-- Node15&#45;&gt;Node2 -->
<g id="edge23" class="edge">
<title>Node15&#45;&gt;Node2</title>
<path fill="none" stroke="#63b8ff" d="M835.64,-298.3C853.7,-290.2 874.58,-277.98 888,-261 935.14,-201.37 943.3,-104.01 944.71,-74.35"/>
<polygon fill="#63b8ff" stroke="#63b8ff" points="833.82,-295.27 825.97,-302.39 836.54,-301.72 833.82,-295.27"/>
</g>
<!-- Node16 -->
<g id="node16" class="node">
<title>Node16</title>
<g id="a_node16"><a xlink:href="jwt__key__auto__refresh_8h.html" target="_top" xlink:title=" ">
<polygon fill="white" stroke="#666666" points="878.5,-261 753.5,-261 753.5,-231 878.5,-231 878.5,-261"/>
<text text-anchor="start" x="761.5" y="-249" font-family="Helvetica,sans-Serif" font-size="10.00">src/node/jwt_key_auto</text>
<text text-anchor="middle" x="816" y="-238" font-family="Helvetica,sans-Serif" font-size="10.00">_refresh.h</text>
</a>
</g>
</g>
<!-- Node15&#45;&gt;Node16 -->
<g id="edge24" class="edge">
<title>Node15&#45;&gt;Node16</title>
<path fill="none" stroke="#63b8ff" d="M804.66,-292.35C807.13,-282.47 810.12,-270.51 812.41,-261.36"/>
<polygon fill="#63b8ff" stroke="#63b8ff" points="801.19,-291.82 802.16,-302.37 807.98,-293.52 801.19,-291.82"/>
</g>
<!-- Node16&#45;&gt;Node7 -->
<g id="edge25" class="edge">
<title>Node16&#45;&gt;Node7</title>
<path fill="none" stroke="#63b8ff" d="M772.83,-226.94C743.51,-214.68 706.09,-199.02 683.36,-189.52"/>
<polygon fill="#63b8ff" stroke="#63b8ff" points="771.85,-230.32 782.42,-230.95 774.55,-223.87 771.85,-230.32"/>
</g>
<!-- Node17&#45;&gt;Node7 -->
<g id="edge28" class="edge">
<title>Node17&#45;&gt;Node7</title>
<path fill="none" stroke="#63b8ff" d="M649.78,-221.28C653.38,-210.31 657.44,-197.94 660.1,-189.84"/>
<polygon fill="#63b8ff" stroke="#63b8ff" points="646.45,-220.2 646.66,-230.8 653.1,-222.39 646.45,-220.2"/>
</g>
<!-- Node18&#45;&gt;Node14 -->
<g id="edge30" class="edge">
<title>Node18&#45;&gt;Node14</title>
<path fill="none" stroke="#63b8ff" d="M623.53,-353.28C627.47,-342.31 631.91,-329.94 634.82,-321.84"/>
<polygon fill="#63b8ff" stroke="#63b8ff" points="620.19,-352.2 620.1,-362.8 626.78,-354.57 620.19,-352.2"/>
</g>
<!-- Node19&#45;&gt;Node2 -->
<g id="edge32" class="edge">
<title>Node19&#45;&gt;Node2</title>
<path fill="none" stroke="#63b8ff" d="M1082.2,-427.55C1148.34,-414.19 1233,-383.35 1233,-313 1233,-313 1233,-313 1233,-179 1233,-147.19 1237.64,-131.28 1214,-110 1184.19,-83.16 1075.93,-72.35 1006.17,-68.11"/>
<polygon fill="#63b8ff" stroke="#63b8ff" points="1081.34,-424.16 1072.17,-429.48 1082.65,-431.03 1081.34,-424.16"/>
</g>
<!-- Node20 -->
<g id="node20" class="node">
<title>Node20</title>
<g id="a_node20"><a xlink:href="frontend_8h.html" target="_top" xlink:title=" ">
<polygon fill="white" stroke="#666666" points="1069.5,-387.5 940.5,-387.5 940.5,-368.5 1069.5,-368.5 1069.5,-387.5"/>
<text text-anchor="middle" x="1005" y="-375.5" font-family="Helvetica,sans-Serif" font-size="10.00">src/node/rpc/frontend.h</text>
</a>
</g>
</g>
<!-- Node19&#45;&gt;Node20 -->
<g id="edge33" class="edge">
<title>Node19&#45;&gt;Node20</title>
<path fill="none" stroke="#63b8ff" d="M1005,-418.66C1005,-408.24 1005,-395.8 1005,-387.67"/>
<polygon fill="#63b8ff" stroke="#63b8ff" points="1001.5,-418.87 1005,-428.87 1008.5,-418.87 1001.5,-418.87"/>
</g>
<!-- Node20&#45;&gt;Node7 -->
<g id="edge37" class="edge">
<title>Node20&#45;&gt;Node7</title>
<path fill="none" stroke="#63b8ff" d="M975.08,-363.81C958.71,-355.32 939.16,-342.88 926,-327 896.73,-291.66 922.91,-260.78 888,-231 863.8,-210.35 782.86,-196.07 725.01,-188.2"/>
<polygon fill="#63b8ff" stroke="#63b8ff" points="973.76,-367.06 984.27,-368.36 976.86,-360.79 973.76,-367.06"/>
</g>
<!-- Node20&#45;&gt;Node15 -->
<g id="edge40" class="edge">
<title>Node20&#45;&gt;Node15</title>
<path fill="none" stroke="#63b8ff" d="M967.6,-365.32C927.16,-352.7 863.65,-332.87 827.54,-321.6"/>
<polygon fill="#63b8ff" stroke="#63b8ff" points="966.76,-368.73 977.35,-368.37 968.85,-362.05 966.76,-368.73"/>
</g>
<!-- Node21 -->
<g id="node21" class="node">
<title>Node21</title>
<g id="a_node21"><a xlink:href="acme__challenge__frontend_8h.html" target="_top" xlink:title=" ">
<polygon fill="white" stroke="#666666" points="1075,-327 935,-327 935,-297 1075,-297 1075,-327"/>
<text text-anchor="start" x="943" y="-315" font-family="Helvetica,sans-Serif" font-size="10.00">src/node/acme_challenge</text>
<text text-anchor="middle" x="1005" y="-304" font-family="Helvetica,sans-Serif" font-size="10.00">_frontend.h</text>
</a>
</g>
</g>
<!-- Node20&#45;&gt;Node21 -->
<g id="edge34" class="edge">
<title>Node20&#45;&gt;Node21</title>
<path fill="none" stroke="#63b8ff" d="M1005,-358.35C1005,-348.47 1005,-336.51 1005,-327.36"/>
<polygon fill="#63b8ff" stroke="#63b8ff" points="1001.5,-358.37 1005,-368.37 1008.5,-358.37 1001.5,-358.37"/>
</g>
<!-- Node22 -->
<g id="node22" class="node">
<title>Node22</title>
<g id="a_node22"><a xlink:href="member__frontend_8h.html" target="_top" xlink:title=" ">
<polygon fill="white" stroke="#666666" points="1131,-195 1011,-195 1011,-165 1131,-165 1131,-195"/>
<text text-anchor="start" x="1019" y="-183" font-family="Helvetica,sans-Serif" font-size="10.00">src/node/rpc/member</text>
<text text-anchor="middle" x="1071" y="-172" font-family="Helvetica,sans-Serif" font-size="10.00">_frontend.h</text>
</a>
</g>
</g>
<!-- Node20&#45;&gt;Node22 -->
<g id="edge38" class="edge">
<title>Node20&#45;&gt;Node22</title>
<path fill="none" stroke="#63b8ff" d="M1040.09,-364.18C1056.55,-356.19 1074.58,-344.12 1084,-327 1107.69,-283.98 1088.27,-222.84 1077.28,-195.36"/>
<polygon fill="#63b8ff" stroke="#63b8ff" points="1038.35,-361.13 1030.66,-368.42 1041.22,-367.51 1038.35,-361.13"/>
</g>
<!-- Node23 -->
<g id="node23" class="node">
<title>Node23</title>
<g id="a_node23"><a xlink:href="user__frontend_8h.html" target="_top" xlink:title=" ">
<polygon fill="white" stroke="#666666" points="1204.5,-129 1049.5,-129 1049.5,-110 1204.5,-110 1204.5,-129"/>
<text text-anchor="middle" x="1127" y="-117" font-family="Helvetica,sans-Serif" font-size="10.00">src/node/rpc/user_frontend.h</text>
</a>
</g>
</g>
<!-- Node20&#45;&gt;Node23 -->
<g id="edge41" class="edge">
<title>Node20&#45;&gt;Node23</title>
<path fill="none" stroke="#63b8ff" d="M1044.83,-364.93C1064.6,-357.06 1087.33,-344.87 1102,-327 1148.94,-269.85 1150.47,-238.21 1140,-165 1138.18,-152.25 1133.55,-138.06 1130.34,-129.2"/>
<polygon fill="#63b8ff" stroke="#63b8ff" points="1043.56,-361.67 1035.42,-368.45 1046.01,-368.23 1043.56,-361.67"/>
</g>
<!-- Node21&#45;&gt;Node2 -->
<g id="edge35" class="edge">
<title>Node21&#45;&gt;Node2</title>
<path fill="none" stroke="#63b8ff" d="M1000.09,-286.68C992.28,-248.72 976.15,-173.21 959,-110 955.61,-97.49 950.99,-83.24 948,-74.3"/>
<polygon fill="#63b8ff" stroke="#63b8ff" points="996.72,-287.67 1002.15,-296.77 1003.58,-286.27 996.72,-287.67"/>
</g>
<!-- Node21&#45;&gt;Node6 -->
<g id="edge36" class="edge">
<title>Node21&#45;&gt;Node6</title>
<path fill="none" stroke="#63b8ff" d="M924.57,-301.34C912.32,-299.88 899.82,-298.39 888,-297 750.25,-280.76 715.34,-280.41 578,-261 566.58,-259.39 554.32,-257.46 542.8,-255.55"/>
<polygon fill="#63b8ff" stroke="#63b8ff" points="924.44,-304.85 934.78,-302.56 925.27,-297.9 924.44,-304.85"/>
</g>
<!-- Node22&#45;&gt;Node2 -->
<g id="edge39" class="edge">
<title>Node22&#45;&gt;Node2</title>
<path fill="none" stroke="#63b8ff" d="M1048.61,-157.66C1034.05,-143.89 1014.57,-125.7 997,-110 982.82,-97.33 966.05,-83.12 955.47,-74.24"/>
<polygon fill="#63b8ff" stroke="#63b8ff" points="1046.48,-160.46 1056.15,-164.8 1051.3,-155.38 1046.48,-160.46"/>
</g>
<!-- Node23&#45;&gt;Node2 -->
<g id="edge42" class="edge">
<title>Node23&#45;&gt;Node2</title>
<path fill="none" stroke="#63b8ff" d="M1088.14,-107.18C1054.1,-97.27 1005.38,-83.08 974.47,-74.08"/>
<polygon fill="#63b8ff" stroke="#63b8ff" points="1087.18,-110.55 1097.76,-109.98 1089.14,-103.83 1087.18,-110.55"/>
</g>
</g>
</svg>
        <g id="navigator" transform="translate(0 0)" fill="#404254">
                <rect fill="#f2f5e9" fill-opacity="0.5" stroke="#606060" stroke-width=".5" x="0" y="0" width="60" height="60"/>
                <use id="zoomplus" xlink:href="#zoomPlus" x="17" y="9" onmousedown="handleZoom(evt,'in')"/>
                <use id="zoomminus" xlink:href="#zoomMin" x="42" y="9" onmousedown="handleZoom(evt,'out')"/>
                <use id="reset" xlink:href="#resetDef" x="30" y="36" onmousedown="handleReset()"/>
                <g id="arrowUp" xlink:href="#dirArrow" transform="translate(30 24)" onmousedown="handlePan(0,-1)">
                  <use xlink:href="#rim" fill="#404040">
                        <set attributeName="fill" to="#808080" begin="arrowUp.mouseover" end="arrowUp.mouseout"/>
                  </use>
                  <path fill="none" stroke="white" stroke-width="1.5" d="M0,-3.0v7 M-2.5,-0.5L0,-3.0L2.5,-0.5"/>
                </g>
                <g id="arrowRight" xlink:href="#dirArrow" transform="rotate(90) translate(36 -43)" onmousedown="handlePan(1,0)">
                  <use xlink:href="#rim" fill="#404040">
                        <set attributeName="fill" to="#808080" begin="arrowRight.mouseover" end="arrowRight.mouseout"/>
                  </use>
                  <path fill="none" stroke="white" stroke-width="1.5" d="M0,-3.0v7 M-2.5,-0.5L0,-3.0L2.5,-0.5"/>
                </g>
                <g id="arrowDown" xlink:href="#dirArrow" transform="rotate(180) translate(-30 -48)" onmousedown="handlePan(0,1)">
                  <use xlink:href="#rim" fill="#404040">
                        <set attributeName="fill" to="#808080" begin="arrowDown.mouseover" end="arrowDown.mouseout"/>
                  </use>
                  <path fill="none" stroke="white" stroke-width="1.5" d="M0,-3.0v7 M-2.5,-0.5L0,-3.0L2.5,-0.5"/>
                </g>
                <g id="arrowLeft" xlink:href="#dirArrow" transform="rotate(270) translate(-36 17)" onmousedown="handlePan(-1,0)">
                  <use xlink:href="#rim" fill="#404040">
                        <set attributeName="fill" to="#808080" begin="arrowLeft.mouseover" end="arrowLeft.mouseout"/>
                  </use>
                  <path fill="none" stroke="white" stroke-width="1.5" d="M0,-3.0v7 M-2.5,-0.5L0,-3.0L2.5,-0.5"/>
                </g>
        </g>
        <svg viewBox="0 0 15 15" width="100%" height="30px" preserveAspectRatio="xMaxYMin meet">
         <g id="arrow_out" transform="scale(0.3 0.3)">
          <a xlink:href="rpc__map_8h__dep__incl_org.svg" target="_base">
           <rect id="button" ry="5" rx="5" y="6" x="6" height="38" width="38"
                fill="#f2f5e9" fill-opacity="0.5" stroke="#606060" stroke-width="1.0"/>
           <path id="arrow"
             d="M 11.500037,31.436501 C 11.940474,20.09759 22.043105,11.32322 32.158766,21.979434 L 37.068811,17.246167 C 37.068811,17.246167 37.088388,32 37.088388,32 L 22.160133,31.978069 C 22.160133,31.978069 26.997745,27.140456 26.997745,27.140456 C 18.528582,18.264221 13.291696,25.230495 11.500037,31.436501 z"
             style="fill:#404040;"/>
          </a>
         </g>
        </svg>
</svg>
