<?xml version="1.0" encoding="UTF-8" standalone="no"?>
<!DOCTYPE svg PUBLIC "-//W3C//DTD SVG 1.1//EN"
 "http://www.w3.org/Graphics/SVG/1.1/DTD/svg11.dtd">
<!-- Generated by graphviz version 2.43.0 (0)
 -->
<!-- Title: src/enclave/rpc_handler.h Pages: 1 -->
<svg width="1543pt" height="588pt"
 viewBox="0.00 0.00 1542.71 588.00" xmlns="http://www.w3.org/2000/svg" xmlns:xlink="http://www.w3.org/1999/xlink">
<g id="graph0" class="graph" transform="scale(1 1) rotate(0) translate(4 584)">
<title>src/enclave/rpc_handler.h</title>
<!-- Node1 -->
<g id="node1" class="node">
<title>Node1</title>
<g id="a_node1"><a xlink:title=" ">
<polygon fill="#999999" stroke="#666666" points="1214.5,-580 1074.5,-580 1074.5,-561 1214.5,-561 1214.5,-580"/>
<text text-anchor="middle" x="1144.5" y="-568" font-family="Helvetica,sans-Serif" font-size="10.00">src/enclave/rpc_handler.h</text>
</a>
</g>
</g>
<!-- Node2 -->
<g id="node2" class="node">
<title>Node2</title>
<g id="a_node2"><a xlink:href="raft__types_8h.html" target="_top" xlink:title=" ">
<polygon fill="white" stroke="#666666" points="698.5,-525 578.5,-525 578.5,-495 698.5,-495 698.5,-525"/>
<text text-anchor="start" x="586.5" y="-513" font-family="Helvetica,sans-Serif" font-size="10.00">src/consensus/aft/raft</text>
<text text-anchor="middle" x="638.5" y="-502" font-family="Helvetica,sans-Serif" font-size="10.00">_types.h</text>
</a>
</g>
</g>
<!-- Node1&#45;&gt;Node2 -->
<g id="edge1" class="edge">
<title>Node1&#45;&gt;Node2</title>
<path fill="none" stroke="#63b8ff" d="M1064.2,-560.22C962.6,-548.47 789.92,-528.51 698.85,-517.98"/>
<polygon fill="#63b8ff" stroke="#63b8ff" points="1064.07,-563.72 1074.41,-561.4 1064.88,-556.77 1064.07,-563.72"/>
</g>
<!-- Node20 -->
<g id="node20" class="node">
<title>Node20</title>
<g id="a_node20"><a xlink:href="rpc__map_8h.html" target="_top" xlink:title=" ">
<polygon fill="white" stroke="#666666" points="1283.5,-519.5 1157.5,-519.5 1157.5,-500.5 1283.5,-500.5 1283.5,-519.5"/>
<text text-anchor="middle" x="1220.5" y="-507.5" font-family="Helvetica,sans-Serif" font-size="10.00">src/enclave/rpc_map.h</text>
</a>
</g>
</g>
<!-- Node1&#45;&gt;Node20 -->
<g id="edge30" class="edge">
<title>Node1&#45;&gt;Node20</title>
<path fill="none" stroke="#63b8ff" d="M1163.94,-554.54C1178.29,-543.49 1197.32,-528.84 1209.24,-519.67"/>
<polygon fill="#63b8ff" stroke="#63b8ff" points="1161.5,-551.99 1155.71,-560.87 1165.77,-557.54 1161.5,-551.99"/>
</g>
<!-- Node22 -->
<g id="node22" class="node">
<title>Node22</title>
<g id="a_node22"><a xlink:href="rpc__sessions_8h.html" target="_top" xlink:title=" ">
<polygon fill="white" stroke="#666666" points="1325.5,-387.5 1179.5,-387.5 1179.5,-368.5 1325.5,-368.5 1325.5,-387.5"/>
<text text-anchor="middle" x="1252.5" y="-375.5" font-family="Helvetica,sans-Serif" font-size="10.00">src/enclave/rpc_sessions.h</text>
</a>
</g>
</g>
<!-- Node1&#45;&gt;Node22 -->
<g id="edge56" class="edge">
<title>Node1&#45;&gt;Node22</title>
<path fill="none" stroke="#63b8ff" d="M1217.06,-559.4C1317.96,-543.66 1492.36,-509.73 1528.5,-459 1536.24,-448.14 1537.05,-439.23 1528.5,-429 1503.1,-398.58 1398.44,-386.63 1325.57,-381.96"/>
<polygon fill="#63b8ff" stroke="#63b8ff" points="1216.29,-555.98 1206.93,-560.96 1217.35,-562.9 1216.29,-555.98"/>
</g>
<!-- Node25 -->
<g id="node25" class="node">
<title>Node25</title>
<g id="a_node25"><a xlink:href="http__session_8h.html" target="_top" xlink:title=" ">
<polygon fill="white" stroke="#666666" points="1519,-453.5 1392,-453.5 1392,-434.5 1519,-434.5 1519,-453.5"/>
<text text-anchor="middle" x="1455.5" y="-441.5" font-family="Helvetica,sans-Serif" font-size="10.00">src/http/http_session.h</text>
</a>
</g>
</g>
<!-- Node1&#45;&gt;Node25 -->
<g id="edge57" class="edge">
<title>Node1&#45;&gt;Node25</title>
<path fill="none" stroke="#63b8ff" d="M1188.23,-558.38C1218.04,-550.31 1258.17,-538.48 1292.5,-525 1348.54,-502.99 1411.69,-469.29 1440.15,-453.6"/>
<polygon fill="#63b8ff" stroke="#63b8ff" points="1187.3,-555.01 1178.54,-560.97 1189.1,-561.77 1187.3,-555.01"/>
</g>
<!-- Node27 -->
<g id="node27" class="node">
<title>Node27</title>
<g id="a_node27"><a xlink:href="frontend_8h.html" target="_top" xlink:title=" ">
<polygon fill="white" stroke="#666666" points="250,-387.5 121,-387.5 121,-368.5 250,-368.5 250,-387.5"/>
<text text-anchor="middle" x="185.5" y="-375.5" font-family="Helvetica,sans-Serif" font-size="10.00">src/node/rpc/frontend.h</text>
</a>
</g>
</g>
<!-- Node1&#45;&gt;Node27 -->
<g id="edge64" class="edge">
<title>Node1&#45;&gt;Node27</title>
<path fill="none" stroke="#63b8ff" d="M1064.12,-567.75C818.68,-561.57 91.47,-536.79 22.5,-459 13.65,-449.02 14.57,-439.72 22.5,-429 30.24,-418.53 104.38,-398.82 149.96,-387.53"/>
<polygon fill="#63b8ff" stroke="#63b8ff" points="1064.31,-571.25 1074.39,-568 1064.48,-564.26 1064.31,-571.25"/>
</g>
<!-- Node31 -->
<g id="node31" class="node">
<title>Node31</title>
<g id="a_node31"><a xlink:href="node__to__node_8h.html" target="_top" xlink:title=" ">
<polygon fill="white" stroke="#666666" points="1090.5,-519.5 952.5,-519.5 952.5,-500.5 1090.5,-500.5 1090.5,-519.5"/>
<text text-anchor="middle" x="1021.5" y="-507.5" font-family="Helvetica,sans-Serif" font-size="10.00">src/node/node_to_node.h</text>
</a>
</g>
</g>
<!-- Node1&#45;&gt;Node31 -->
<g id="edge58" class="edge">
<title>Node1&#45;&gt;Node31</title>
<path fill="none" stroke="#63b8ff" d="M1117.45,-556.63C1093.72,-545.35 1059.91,-529.27 1039.41,-519.52"/>
<polygon fill="#63b8ff" stroke="#63b8ff" points="1116.08,-559.86 1126.61,-560.99 1119.09,-553.54 1116.08,-559.86"/>
</g>
<!-- Node3 -->
<g id="node3" class="node">
<title>Node3</title>
<g id="a_node3"><a xlink:href="request__message_8h.html" target="_top" xlink:title=" ">
<polygon fill="white" stroke="#666666" points="330,-459 205,-459 205,-429 330,-429 330,-459"/>
<text text-anchor="start" x="213" y="-447" font-family="Helvetica,sans-Serif" font-size="10.00">src/consensus/aft/impl</text>
<text text-anchor="middle" x="267.5" y="-436" font-family="Helvetica,sans-Serif" font-size="10.00">/request_message.h</text>
</a>
</g>
</g>
<!-- Node2&#45;&gt;Node3 -->
<g id="edge2" class="edge">
<title>Node2&#45;&gt;Node3</title>
<path fill="none" stroke="#63b8ff" d="M568.45,-497.32C508.86,-487.32 421.02,-472.46 344.5,-459 339.82,-458.18 334.97,-457.32 330.1,-456.44"/>
<polygon fill="#63b8ff" stroke="#63b8ff" points="568.06,-500.8 578.5,-499 569.21,-493.9 568.06,-500.8"/>
</g>
<!-- Node4 -->
<g id="node4" class="node">
<title>Node4</title>
<g id="a_node4"><a xlink:href="state_8h.html" target="_top" xlink:title=" ">
<polygon fill="white" stroke="#666666" points="792,-393 667,-393 667,-363 792,-363 792,-393"/>
<text text-anchor="start" x="675" y="-381" font-family="Helvetica,sans-Serif" font-size="10.00">src/consensus/aft/impl</text>
<text text-anchor="middle" x="729.5" y="-370" font-family="Helvetica,sans-Serif" font-size="10.00">/state.h</text>
</a>
</g>
</g>
<!-- Node2&#45;&gt;Node4 -->
<g id="edge3" class="edge">
<title>Node2&#45;&gt;Node4</title>
<path fill="none" stroke="#63b8ff" d="M677.26,-489.49C689.53,-481.57 702.08,-471.34 710.5,-459 724.17,-438.95 728.06,-410.25 729.14,-393.23"/>
<polygon fill="#63b8ff" stroke="#63b8ff" points="675.16,-486.67 668.43,-494.85 678.8,-492.66 675.16,-486.67"/>
</g>
<!-- Node5 -->
<g id="node5" class="node">
<title>Node5</title>
<g id="a_node5"><a xlink:href="raft_8h.html" target="_top" xlink:title=" ">
<polygon fill="white" stroke="#666666" points="703,-321.5 574,-321.5 574,-302.5 703,-302.5 703,-321.5"/>
<text text-anchor="middle" x="638.5" y="-309.5" font-family="Helvetica,sans-Serif" font-size="10.00">src/consensus/aft/raft.h</text>
</a>
</g>
</g>
<!-- Node2&#45;&gt;Node5 -->
<g id="edge12" class="edge">
<title>Node2&#45;&gt;Node5</title>
<path fill="none" stroke="#63b8ff" d="M568.52,-495.7C477.9,-476.81 328.04,-439.31 298.5,-393 291.33,-381.76 289.73,-373.04 298.5,-363 337.75,-318.08 505.62,-336.55 564.5,-327 574.57,-325.37 585.37,-323.43 595.52,-321.53"/>
<polygon fill="#63b8ff" stroke="#63b8ff" points="567.95,-499.16 578.45,-497.74 569.36,-492.3 567.95,-499.16"/>
</g>
<!-- Node11 -->
<g id="node11" class="node">
<title>Node11</title>
<g id="a_node11"><a xlink:href="node__connections_8h.html" target="_top" xlink:title=" ">
<polygon fill="white" stroke="#666666" points="187,-453.5 32,-453.5 32,-434.5 187,-434.5 187,-453.5"/>
<text text-anchor="middle" x="109.5" y="-441.5" font-family="Helvetica,sans-Serif" font-size="10.00">src/host/node_connections.h</text>
</a>
</g>
</g>
<!-- Node2&#45;&gt;Node11 -->
<g id="edge13" class="edge">
<title>Node2&#45;&gt;Node11</title>
<path fill="none" stroke="#63b8ff" d="M568.12,-502.13C480.62,-493.34 326.78,-477.08 195.5,-459 183.81,-457.39 171.26,-455.46 159.46,-453.56"/>
<polygon fill="#63b8ff" stroke="#63b8ff" points="567.9,-505.63 578.19,-503.14 568.59,-498.66 567.9,-505.63"/>
</g>
<!-- Node13 -->
<g id="node13" class="node">
<title>Node13</title>
<g id="a_node13"><a xlink:href="node__client_8h.html" target="_top" xlink:title=" ">
<polygon fill="white" stroke="#666666" points="701.5,-453.5 575.5,-453.5 575.5,-434.5 701.5,-434.5 701.5,-453.5"/>
<text text-anchor="middle" x="638.5" y="-441.5" font-family="Helvetica,sans-Serif" font-size="10.00">src/node/node_client.h</text>
</a>
</g>
</g>
<!-- Node2&#45;&gt;Node13 -->
<g id="edge15" class="edge">
<title>Node2&#45;&gt;Node13</title>
<path fill="none" stroke="#63b8ff" d="M638.5,-484.6C638.5,-473.8 638.5,-461.78 638.5,-453.84"/>
<polygon fill="#63b8ff" stroke="#63b8ff" points="635,-484.8 638.5,-494.8 642,-484.8 635,-484.8"/>
</g>
<!-- Node19 -->
<g id="node19" class="node">
<title>Node19</title>
<g id="a_node19"><a xlink:href="resharing__tracker_8h.html" target="_top" xlink:title=" ">
<polygon fill="white" stroke="#666666" points="917,-393 810,-393 810,-363 917,-363 917,-393"/>
<text text-anchor="start" x="818" y="-381" font-family="Helvetica,sans-Serif" font-size="10.00">src/node/resharing</text>
<text text-anchor="middle" x="863.5" y="-370" font-family="Helvetica,sans-Serif" font-size="10.00">_tracker.h</text>
</a>
</g>
</g>
<!-- Node2&#45;&gt;Node19 -->
<g id="edge27" class="edge">
<title>Node2&#45;&gt;Node19</title>
<path fill="none" stroke="#63b8ff" d="M674.33,-489.99C691.44,-480.8 712.13,-469.51 730.5,-459 769.56,-436.65 814.26,-409.42 840.61,-393.18"/>
<polygon fill="#63b8ff" stroke="#63b8ff" points="672.4,-487.06 665.24,-494.86 675.71,-493.23 672.4,-487.06"/>
</g>
<!-- Node4&#45;&gt;Node5 -->
<g id="edge4" class="edge">
<title>Node4&#45;&gt;Node5</title>
<path fill="none" stroke="#63b8ff" d="M700.88,-356.87C684.04,-345.03 663.59,-330.65 650.81,-321.66"/>
<polygon fill="#63b8ff" stroke="#63b8ff" points="699.11,-359.91 709.3,-362.8 703.14,-354.18 699.11,-359.91"/>
</g>
<!-- Node10 -->
<g id="node10" class="node">
<title>Node10</title>
<g id="a_node10"><a xlink:href="resharing_8h.html" target="_top" xlink:title=" ">
<polygon fill="white" stroke="#666666" points="858.5,-321.5 742.5,-321.5 742.5,-302.5 858.5,-302.5 858.5,-321.5"/>
<text text-anchor="middle" x="800.5" y="-309.5" font-family="Helvetica,sans-Serif" font-size="10.00">src/node/resharing.h</text>
</a>
</g>
</g>
<!-- Node4&#45;&gt;Node10 -->
<g id="edge10" class="edge">
<title>Node4&#45;&gt;Node10</title>
<path fill="none" stroke="#63b8ff" d="M752.87,-355.93C765.72,-344.35 780.97,-330.61 790.69,-321.84"/>
<polygon fill="#63b8ff" stroke="#63b8ff" points="750.34,-353.5 745.26,-362.8 755.03,-358.7 750.34,-353.5"/>
</g>
<!-- Node6 -->
<g id="node6" class="node">
<title>Node6</title>
<g id="a_node6"><a xlink:href="node__state_8h.html" target="_top" xlink:title=" ">
<polygon fill="white" stroke="#666666" points="817.5,-189.5 693.5,-189.5 693.5,-170.5 817.5,-170.5 817.5,-189.5"/>
<text text-anchor="middle" x="755.5" y="-177.5" font-family="Helvetica,sans-Serif" font-size="10.00">src/node/node_state.h</text>
</a>
</g>
</g>
<!-- Node5&#45;&gt;Node6 -->
<g id="edge5" class="edge">
<title>Node5&#45;&gt;Node6</title>
<path fill="none" stroke="#63b8ff" d="M659.39,-296.15C671.77,-286.82 687.37,-274.09 699.5,-261 721.17,-237.62 741.21,-205.44 750.33,-189.99"/>
<polygon fill="#63b8ff" stroke="#63b8ff" points="657.01,-293.56 651.03,-302.31 661.16,-299.19 657.01,-293.56"/>
</g>
<!-- Node7 -->
<g id="node7" class="node">
<title>Node7</title>
<g id="a_node7"><a xlink:href="src_2enclave_2enclave_8h.html" target="_top" xlink:title=" ">
<polygon fill="white" stroke="#666666" points="716.5,-74 594.5,-74 594.5,-55 716.5,-55 716.5,-74"/>
<text text-anchor="middle" x="655.5" y="-62" font-family="Helvetica,sans-Serif" font-size="10.00">src/enclave/enclave.h</text>
</a>
</g>
</g>
<!-- Node6&#45;&gt;Node7 -->
<g id="edge6" class="edge">
<title>Node6&#45;&gt;Node7</title>
<path fill="none" stroke="#63b8ff" d="M723.61,-166.08C706.8,-157.77 687.11,-145.44 674.5,-129 661.75,-112.38 657.53,-87.3 656.15,-74.18"/>
<polygon fill="#63b8ff" stroke="#63b8ff" points="722.56,-169.45 733.1,-170.5 725.51,-163.1 722.56,-169.45"/>
</g>
<!-- Node9 -->
<g id="node9" class="node">
<title>Node9</title>
<g id="a_node9"><a xlink:href="gov__effects_8h.html" target="_top" xlink:title=" ">
<polygon fill="white" stroke="#666666" points="827.5,-129 683.5,-129 683.5,-110 827.5,-110 827.5,-129"/>
<text text-anchor="middle" x="755.5" y="-117" font-family="Helvetica,sans-Serif" font-size="10.00">src/node/rpc/gov_effects.h</text>
</a>
</g>
</g>
<!-- Node6&#45;&gt;Node9 -->
<g id="edge8" class="edge">
<title>Node6&#45;&gt;Node9</title>
<path fill="none" stroke="#63b8ff" d="M755.5,-160.16C755.5,-149.74 755.5,-137.3 755.5,-129.17"/>
<polygon fill="#63b8ff" stroke="#63b8ff" points="752,-160.37 755.5,-170.37 759,-160.37 752,-160.37"/>
</g>
<!-- Node8 -->
<g id="node8" class="node">
<title>Node8</title>
<g id="a_node8"><a xlink:href="enclave_2main_8cpp.html" target="_top" xlink:title=" ">
<polygon fill="white" stroke="#666666" points="715.5,-19 595.5,-19 595.5,0 715.5,0 715.5,-19"/>
<text text-anchor="middle" x="655.5" y="-7" font-family="Helvetica,sans-Serif" font-size="10.00">src/enclave/main.cpp</text>
</a>
</g>
</g>
<!-- Node7&#45;&gt;Node8 -->
<g id="edge7" class="edge">
<title>Node7&#45;&gt;Node8</title>
<path fill="none" stroke="#63b8ff" d="M655.5,-44.66C655.5,-35.93 655.5,-25.99 655.5,-19.09"/>
<polygon fill="#63b8ff" stroke="#63b8ff" points="652,-44.75 655.5,-54.75 659,-44.75 652,-44.75"/>
</g>
<!-- Node9&#45;&gt;Node7 -->
<g id="edge9" class="edge">
<title>Node9&#45;&gt;Node7</title>
<path fill="none" stroke="#63b8ff" d="M730.47,-105.23C712.13,-95.51 687.76,-82.6 671.86,-74.17"/>
<polygon fill="#63b8ff" stroke="#63b8ff" points="728.96,-108.39 739.43,-109.98 732.24,-102.21 728.96,-108.39"/>
</g>
<!-- Node10&#45;&gt;Node6 -->
<g id="edge11" class="edge">
<title>Node10&#45;&gt;Node6</title>
<path fill="none" stroke="#63b8ff" d="M790.16,-293.71C784.88,-284.3 778.71,-272.3 774.5,-261 765.14,-235.85 759.28,-204.49 756.83,-189.61"/>
<polygon fill="#63b8ff" stroke="#63b8ff" points="787.18,-295.55 795.22,-302.45 793.24,-292.04 787.18,-295.55"/>
</g>
<!-- Node12 -->
<g id="node12" class="node">
<title>Node12</title>
<g id="a_node12"><a xlink:href="host_2main_8cpp.html" target="_top" xlink:title=" ">
<polygon fill="white" stroke="#666666" points="103,-387.5 0,-387.5 0,-368.5 103,-368.5 103,-387.5"/>
<text text-anchor="middle" x="51.5" y="-375.5" font-family="Helvetica,sans-Serif" font-size="10.00">src/host/main.cpp</text>
</a>
</g>
</g>
<!-- Node11&#45;&gt;Node12 -->
<g id="edge14" class="edge">
<title>Node11&#45;&gt;Node12</title>
<path fill="none" stroke="#63b8ff" d="M94.66,-426.62C83.5,-414.31 68.62,-397.89 59.57,-387.91"/>
<polygon fill="#63b8ff" stroke="#63b8ff" points="92.37,-429.31 101.68,-434.37 97.56,-424.61 92.37,-429.31"/>
</g>
<!-- Node13&#45;&gt;Node5 -->
<g id="edge22" class="edge">
<title>Node13&#45;&gt;Node5</title>
<path fill="none" stroke="#63b8ff" d="M638.5,-424.23C638.5,-395.72 638.5,-342.59 638.5,-321.73"/>
<polygon fill="#63b8ff" stroke="#63b8ff" points="635,-424.47 638.5,-434.47 642,-424.47 635,-424.47"/>
</g>
<!-- Node14 -->
<g id="node14" class="node">
<title>Node14</title>
<g id="a_node14"><a xlink:href="orc__requests_8h.html" target="_top" xlink:title=" ">
<polygon fill="white" stroke="#666666" points="426,-393 307,-393 307,-363 426,-363 426,-393"/>
<text text-anchor="start" x="315" y="-381" font-family="Helvetica,sans-Serif" font-size="10.00">src/consensus/aft/orc</text>
<text text-anchor="middle" x="366.5" y="-370" font-family="Helvetica,sans-Serif" font-size="10.00">_requests.h</text>
</a>
</g>
</g>
<!-- Node13&#45;&gt;Node14 -->
<g id="edge16" class="edge">
<title>Node13&#45;&gt;Node14</title>
<path fill="none" stroke="#63b8ff" d="M592.14,-432.09C546.33,-421.31 476.05,-404.78 426.11,-393.02"/>
<polygon fill="#63b8ff" stroke="#63b8ff" points="591.56,-435.55 602.1,-434.44 593.17,-428.74 591.56,-435.55"/>
</g>
<!-- Node17 -->
<g id="node17" class="node">
<title>Node17</title>
<g id="a_node17"><a xlink:href="http__node__client_8h.html" target="_top" xlink:title=" ">
<polygon fill="white" stroke="#666666" points="893.5,-261 783.5,-261 783.5,-231 893.5,-231 893.5,-261"/>
<text text-anchor="start" x="791.5" y="-249" font-family="Helvetica,sans-Serif" font-size="10.00">src/node/http_node</text>
<text text-anchor="middle" x="838.5" y="-238" font-family="Helvetica,sans-Serif" font-size="10.00">_client.h</text>
</a>
</g>
</g>
<!-- Node13&#45;&gt;Node17 -->
<g id="edge23" class="edge">
<title>Node13&#45;&gt;Node17</title>
<path fill="none" stroke="#63b8ff" d="M711.79,-440.67C787.9,-436.53 899.57,-425.01 926.5,-393 963.37,-349.18 894.23,-288.19 858.27,-261.02"/>
<polygon fill="#63b8ff" stroke="#63b8ff" points="711.58,-437.18 701.77,-441.19 711.93,-444.17 711.58,-437.18"/>
</g>
<!-- Node18 -->
<g id="node18" class="node">
<title>Node18</title>
<g id="a_node18"><a xlink:href="retired__nodes__cleanup_8h.html" target="_top" xlink:title=" ">
<polygon fill="white" stroke="#666666" points="610.5,-393 482.5,-393 482.5,-363 610.5,-363 610.5,-393"/>
<text text-anchor="start" x="490.5" y="-381" font-family="Helvetica,sans-Serif" font-size="10.00">src/node/retired_nodes</text>
<text text-anchor="middle" x="546.5" y="-370" font-family="Helvetica,sans-Serif" font-size="10.00">_cleanup.h</text>
</a>
</g>
</g>
<!-- Node13&#45;&gt;Node18 -->
<g id="edge25" class="edge">
<title>Node13&#45;&gt;Node18</title>
<path fill="none" stroke="#63b8ff" d="M617.82,-428.62C602.58,-418.01 581.94,-403.66 566.79,-393.12"/>
<polygon fill="#63b8ff" stroke="#63b8ff" points="615.88,-431.53 626.09,-434.37 619.88,-425.78 615.88,-431.53"/>
</g>
<!-- Node14&#45;&gt;Node5 -->
<g id="edge17" class="edge">
<title>Node14&#45;&gt;Node5</title>
<path fill="none" stroke="#63b8ff" d="M436.21,-360.6C489.23,-348.12 560.06,-331.46 602.3,-321.52"/>
<polygon fill="#63b8ff" stroke="#63b8ff" points="435.12,-357.26 426.19,-362.95 436.73,-364.07 435.12,-357.26"/>
</g>
<!-- Node15 -->
<g id="node15" class="node">
<title>Node15</title>
<g id="a_node15"><a xlink:href="node__frontend_8h.html" target="_top" xlink:title=" ">
<polygon fill="white" stroke="#666666" points="555.5,-321.5 397.5,-321.5 397.5,-302.5 555.5,-302.5 555.5,-321.5"/>
<text text-anchor="middle" x="476.5" y="-309.5" font-family="Helvetica,sans-Serif" font-size="10.00">src/node/rpc/node_frontend.h</text>
</a>
</g>
</g>
<!-- Node14&#45;&gt;Node15 -->
<g id="edge18" class="edge">
<title>Node14&#45;&gt;Node15</title>
<path fill="none" stroke="#63b8ff" d="M399.48,-357.81C420.24,-345.73 446.02,-330.73 461.86,-321.52"/>
<polygon fill="#63b8ff" stroke="#63b8ff" points="397.52,-354.9 390.64,-362.95 401.04,-360.95 397.52,-354.9"/>
</g>
<!-- Node15&#45;&gt;Node7 -->
<g id="edge19" class="edge">
<title>Node15&#45;&gt;Node7</title>
<path fill="none" stroke="#63b8ff" d="M436.56,-298.44C418.85,-290.66 399.73,-278.68 389.5,-261 382.82,-249.46 383.02,-242.66 389.5,-231 440.35,-139.48 565.13,-92.02 623.91,-74.1"/>
<polygon fill="#63b8ff" stroke="#63b8ff" points="435.61,-301.84 446.19,-302.35 438.24,-295.35 435.61,-301.84"/>
</g>
<!-- Node16 -->
<g id="node16" class="node">
<title>Node16</title>
<g id="a_node16"><a xlink:href="jwt__key__auto__refresh_8h.html" target="_top" xlink:title=" ">
<polygon fill="white" stroke="#666666" points="523,-261 398,-261 398,-231 523,-231 523,-261"/>
<text text-anchor="start" x="406" y="-249" font-family="Helvetica,sans-Serif" font-size="10.00">src/node/jwt_key_auto</text>
<text text-anchor="middle" x="460.5" y="-238" font-family="Helvetica,sans-Serif" font-size="10.00">_refresh.h</text>
</a>
</g>
</g>
<!-- Node15&#45;&gt;Node16 -->
<g id="edge20" class="edge">
<title>Node15&#45;&gt;Node16</title>
<path fill="none" stroke="#63b8ff" d="M471.84,-292.35C469.37,-282.47 466.38,-270.51 464.09,-261.36"/>
<polygon fill="#63b8ff" stroke="#63b8ff" points="468.52,-293.52 474.34,-302.37 475.31,-291.82 468.52,-293.52"/>
</g>
<!-- Node16&#45;&gt;Node6 -->
<g id="edge21" class="edge">
<title>Node16&#45;&gt;Node6</title>
<path fill="none" stroke="#63b8ff" d="M532.87,-229.3C590.63,-216.77 669.37,-199.69 716.07,-189.55"/>
<polygon fill="#63b8ff" stroke="#63b8ff" points="532.09,-225.89 523.06,-231.43 533.58,-232.73 532.09,-225.89"/>
</g>
<!-- Node17&#45;&gt;Node6 -->
<g id="edge24" class="edge">
<title>Node17&#45;&gt;Node6</title>
<path fill="none" stroke="#63b8ff" d="M812.02,-224.58C796.84,-212.87 778.55,-198.77 766.97,-189.84"/>
<polygon fill="#63b8ff" stroke="#63b8ff" points="810.02,-227.46 820.08,-230.8 814.3,-221.92 810.02,-227.46"/>
</g>
<!-- Node18&#45;&gt;Node5 -->
<g id="edge26" class="edge">
<title>Node18&#45;&gt;Node5</title>
<path fill="none" stroke="#63b8ff" d="M575.43,-356.87C592.46,-345.03 613.13,-330.65 626.05,-321.66"/>
<polygon fill="#63b8ff" stroke="#63b8ff" points="573.13,-354.21 566.92,-362.8 577.13,-359.96 573.13,-354.21"/>
</g>
<!-- Node19&#45;&gt;Node5 -->
<g id="edge28" class="edge">
<title>Node19&#45;&gt;Node5</title>
<path fill="none" stroke="#63b8ff" d="M804.46,-360.21C760.76,-347.78 703.03,-331.35 668.44,-321.52"/>
<polygon fill="#63b8ff" stroke="#63b8ff" points="803.55,-363.59 814.12,-362.95 805.46,-356.85 803.55,-363.59"/>
</g>
<!-- Node19&#45;&gt;Node10 -->
<g id="edge29" class="edge">
<title>Node19&#45;&gt;Node10</title>
<path fill="none" stroke="#63b8ff" d="M842.44,-355.6C831.11,-344.1 817.75,-330.52 809.21,-321.84"/>
<polygon fill="#63b8ff" stroke="#63b8ff" points="840.01,-358.13 849.52,-362.8 845,-353.21 840.01,-358.13"/>
</g>
<!-- Node20&#45;&gt;Node7 -->
<g id="edge31" class="edge">
<title>Node20&#45;&gt;Node7</title>
<path fill="none" stroke="#63b8ff" d="M1273.82,-497.66C1297.99,-490.18 1325.38,-478.11 1344.5,-459 1394.01,-409.53 1403.5,-382.99 1403.5,-313 1403.5,-313 1403.5,-313 1403.5,-179 1403.5,-152.91 1529.79,-176.38 1238.5,-110 1140.52,-87.67 845.35,-73.26 716.63,-67.88"/>
<polygon fill="#63b8ff" stroke="#63b8ff" points="1272.67,-494.35 1264.04,-500.5 1274.62,-501.07 1272.67,-494.35"/>
</g>
<!-- Node20&#45;&gt;Node13 -->
<g id="edge43" class="edge">
<title>Node20&#45;&gt;Node13</title>
<path fill="none" stroke="#63b8ff" d="M1147.19,-500.43C1131.46,-498.62 1114.93,-496.73 1099.5,-495 957.29,-479.06 790.32,-461.15 701.52,-451.69"/>
<polygon fill="#63b8ff" stroke="#63b8ff" points="1147.06,-503.94 1157.4,-501.61 1147.86,-496.99 1147.06,-503.94"/>
</g>
<!-- Node21 -->
<g id="node21" class="node">
<title>Node21</title>
<g id="a_node21"><a xlink:href="http2__session_8h.html" target="_top" xlink:title=" ">
<polygon fill="white" stroke="#666666" points="1335,-453.5 1202,-453.5 1202,-434.5 1335,-434.5 1335,-453.5"/>
<text text-anchor="middle" x="1268.5" y="-441.5" font-family="Helvetica,sans-Serif" font-size="10.00">src/http/http2_session.h</text>
</a>
</g>
</g>
<!-- Node20&#45;&gt;Node21 -->
<g id="edge32" class="edge">
<title>Node20&#45;&gt;Node21</title>
<path fill="none" stroke="#63b8ff" d="M1233.05,-492.27C1242.26,-479.99 1254.4,-463.8 1261.82,-453.91"/>
<polygon fill="#63b8ff" stroke="#63b8ff" points="1230.17,-490.27 1226.97,-500.37 1235.77,-494.47 1230.17,-490.27"/>
</g>
<!-- Node20&#45;&gt;Node25 -->
<g id="edge41" class="edge">
<title>Node20&#45;&gt;Node25</title>
<path fill="none" stroke="#63b8ff" d="M1261.91,-497.72C1308.19,-485.12 1382.1,-464.99 1423.93,-453.6"/>
<polygon fill="#63b8ff" stroke="#63b8ff" points="1260.92,-494.36 1252.19,-500.37 1262.76,-501.12 1260.92,-494.36"/>
</g>
<!-- Node26 -->
<g id="node26" class="node">
<title>Node26</title>
<g id="a_node26"><a xlink:href="forwarder_8h.html" target="_top" xlink:title=" ">
<polygon fill="white" stroke="#666666" points="1183.5,-453.5 1049.5,-453.5 1049.5,-434.5 1183.5,-434.5 1183.5,-453.5"/>
<text text-anchor="middle" x="1116.5" y="-441.5" font-family="Helvetica,sans-Serif" font-size="10.00">src/node/rpc/forwarder.h</text>
</a>
</g>
</g>
<!-- Node20&#45;&gt;Node26 -->
<g id="edge44" class="edge">
<title>Node20&#45;&gt;Node26</title>
<path fill="none" stroke="#63b8ff" d="M1197.78,-495.02C1177.33,-482.43 1147.9,-464.32 1130.64,-453.7"/>
<polygon fill="#63b8ff" stroke="#63b8ff" points="1196.12,-498.11 1206.47,-500.37 1199.79,-492.15 1196.12,-498.11"/>
</g>
<!-- Node21&#45;&gt;Node22 -->
<g id="edge33" class="edge">
<title>Node21&#45;&gt;Node22</title>
<path fill="none" stroke="#63b8ff" d="M1263.86,-424.45C1260.86,-412.43 1257.08,-397.32 1254.73,-387.91"/>
<polygon fill="#63b8ff" stroke="#63b8ff" points="1260.52,-425.52 1266.34,-434.37 1267.31,-423.82 1260.52,-425.52"/>
</g>
<!-- Node22&#45;&gt;Node6 -->
<g id="edge37" class="edge">
<title>Node22&#45;&gt;Node6</title>
<path fill="none" stroke="#63b8ff" d="M1235.46,-361.35C1195.26,-324.52 1097.26,-235.1 1088.5,-231 1041.65,-209.05 900.4,-193.55 817.68,-186.07"/>
<polygon fill="#63b8ff" stroke="#63b8ff" points="1233.16,-363.99 1242.89,-368.17 1237.89,-358.83 1233.16,-363.99"/>
</g>
<!-- Node22&#45;&gt;Node7 -->
<g id="edge34" class="edge">
<title>Node22&#45;&gt;Node7</title>
<path fill="none" stroke="#63b8ff" d="M1269.14,-361.07C1291.24,-338.12 1327.5,-293.38 1327.5,-247 1327.5,-247 1327.5,-247 1327.5,-179 1327.5,-117.36 882.27,-80.87 716.62,-69.42"/>
<polygon fill="#63b8ff" stroke="#63b8ff" points="1266.57,-358.69 1262,-368.25 1271.53,-363.63 1266.57,-358.69"/>
</g>
<!-- Node22&#45;&gt;Node10 -->
<g id="edge40" class="edge">
<title>Node22&#45;&gt;Node10</title>
<path fill="none" stroke="#63b8ff" d="M1182.01,-367.02C1093.04,-354.42 941.64,-332.98 858.84,-321.26"/>
<polygon fill="#63b8ff" stroke="#63b8ff" points="1181.62,-370.5 1192.01,-368.44 1182.6,-363.57 1181.62,-370.5"/>
</g>
<!-- Node23 -->
<g id="node23" class="node">
<title>Node23</title>
<g id="a_node23"><a xlink:href="ccf__acme__client_8h.html" target="_top" xlink:title=" ">
<polygon fill="white" stroke="#666666" points="690,-255.5 541,-255.5 541,-236.5 690,-236.5 690,-255.5"/>
<text text-anchor="middle" x="615.5" y="-243.5" font-family="Helvetica,sans-Serif" font-size="10.00">src/node/ccf_acme_client.h</text>
</a>
</g>
</g>
<!-- Node22&#45;&gt;Node23 -->
<g id="edge35" class="edge">
<title>Node22&#45;&gt;Node23</title>
<path fill="none" stroke="#63b8ff" d="M1202.15,-366.39C1128.64,-350.93 987.63,-321.4 867.5,-297 794.5,-282.17 709.51,-265.41 659.23,-255.55"/>
<polygon fill="#63b8ff" stroke="#63b8ff" points="1201.55,-369.84 1212.06,-368.47 1203,-362.99 1201.55,-369.84"/>
</g>
<!-- Node24 -->
<g id="node24" class="node">
<title>Node24</title>
<g id="a_node24"><a xlink:href="quote__endorsements__client_8h.html" target="_top" xlink:title=" ">
<polygon fill="white" stroke="#666666" points="1299.5,-261 1135.5,-261 1135.5,-231 1299.5,-231 1299.5,-261"/>
<text text-anchor="start" x="1143.5" y="-249" font-family="Helvetica,sans-Serif" font-size="10.00">src/node/quote_endorsements</text>
<text text-anchor="middle" x="1217.5" y="-238" font-family="Helvetica,sans-Serif" font-size="10.00">_client.h</text>
</a>
</g>
</g>
<!-- Node22&#45;&gt;Node24 -->
<g id="edge38" class="edge">
<title>Node22&#45;&gt;Node24</title>
<path fill="none" stroke="#63b8ff" d="M1247.57,-358.67C1240.5,-332.43 1227.65,-284.72 1221.29,-261.07"/>
<polygon fill="#63b8ff" stroke="#63b8ff" points="1244.22,-359.72 1250.2,-368.47 1250.98,-357.9 1244.22,-359.72"/>
</g>
<!-- Node23&#45;&gt;Node6 -->
<g id="edge36" class="edge">
<title>Node23&#45;&gt;Node6</title>
<path fill="none" stroke="#63b8ff" d="M643.51,-232.19C671.1,-219.58 712.5,-200.66 736.47,-189.7"/>
<polygon fill="#63b8ff" stroke="#63b8ff" points="642.02,-229.03 634.38,-236.37 644.93,-235.39 642.02,-229.03"/>
</g>
<!-- Node24&#45;&gt;Node6 -->
<g id="edge39" class="edge">
<title>Node24&#45;&gt;Node6</title>
<path fill="none" stroke="#63b8ff" d="M1125.33,-231.54C1124.04,-231.36 1122.77,-231.18 1121.5,-231 1014.82,-215.93 890.53,-199.11 817.69,-189.32"/>
<polygon fill="#63b8ff" stroke="#63b8ff" points="1124.89,-235.02 1135.29,-232.96 1125.88,-228.09 1124.89,-235.02"/>
</g>
<!-- Node25&#45;&gt;Node22 -->
<g id="edge42" class="edge">
<title>Node25&#45;&gt;Node22</title>
<path fill="none" stroke="#63b8ff" d="M1418.46,-431.32C1378.42,-418.7 1315.53,-398.87 1279.77,-387.6"/>
<polygon fill="#63b8ff" stroke="#63b8ff" points="1417.53,-434.7 1428.12,-434.37 1419.64,-428.02 1417.53,-434.7"/>
</g>
<!-- Node26&#45;&gt;Node7 -->
<g id="edge45" class="edge">
<title>Node26&#45;&gt;Node7</title>
<path fill="none" stroke="#63b8ff" d="M1174.49,-432.6C1234.87,-421.31 1322.36,-403.51 1334.5,-393 1363.34,-368.05 1365.5,-351.13 1365.5,-313 1365.5,-313 1365.5,-313 1365.5,-179 1365.5,-163.94 1359.95,-147.43 1185.5,-110 1018.48,-74.16 816.07,-66.88 716.65,-65.6"/>
<polygon fill="#63b8ff" stroke="#63b8ff" points="1173.5,-429.22 1164.3,-434.49 1174.78,-436.11 1173.5,-429.22"/>
</g>
<!-- Node26&#45;&gt;Node27 -->
<g id="edge46" class="edge">
<title>Node26&#45;&gt;Node27</title>
<path fill="none" stroke="#63b8ff" d="M1039.17,-439.88C893.87,-433.66 570.19,-418.11 298.5,-393 282.26,-391.5 264.75,-389.51 248.48,-387.51"/>
<polygon fill="#63b8ff" stroke="#63b8ff" points="1039.19,-443.38 1049.32,-440.31 1039.48,-436.39 1039.19,-443.38"/>
</g>
<!-- Node27&#45;&gt;Node6 -->
<g id="edge50" class="edge">
<title>Node27&#45;&gt;Node6</title>
<path fill="none" stroke="#63b8ff" d="M260.35,-368.68C291.4,-361.86 325.86,-349.48 350.5,-327 384.52,-295.96 353.13,-259.25 389.5,-231 435.65,-195.15 601.59,-185.01 693.37,-182.13"/>
<polygon fill="#63b8ff" stroke="#63b8ff" points="259.5,-365.28 250.4,-370.7 260.9,-372.14 259.5,-365.28"/>
</g>
<!-- Node27&#45;&gt;Node15 -->
<g id="edge53" class="edge">
<title>Node27&#45;&gt;Node15</title>
<path fill="none" stroke="#63b8ff" d="M234.35,-366.26C291.6,-353.67 385.31,-333.06 437.79,-321.51"/>
<polygon fill="#63b8ff" stroke="#63b8ff" points="233.46,-362.87 224.44,-368.44 234.96,-369.71 233.46,-362.87"/>
</g>
<!-- Node28 -->
<g id="node28" class="node">
<title>Node28</title>
<g id="a_node28"><a xlink:href="acme__challenge__frontend_8h.html" target="_top" xlink:title=" ">
<polygon fill="white" stroke="#666666" points="341.5,-327 201.5,-327 201.5,-297 341.5,-297 341.5,-327"/>
<text text-anchor="start" x="209.5" y="-315" font-family="Helvetica,sans-Serif" font-size="10.00">src/node/acme_challenge</text>
<text text-anchor="middle" x="271.5" y="-304" font-family="Helvetica,sans-Serif" font-size="10.00">_frontend.h</text>
</a>
</g>
</g>
<!-- Node27&#45;&gt;Node28 -->
<g id="edge47" class="edge">
<title>Node27&#45;&gt;Node28</title>
<path fill="none" stroke="#63b8ff" d="M205.23,-362.32C219.44,-351.74 238.5,-337.56 252.53,-327.12"/>
<polygon fill="#63b8ff" stroke="#63b8ff" points="203.03,-359.59 197.1,-368.37 207.21,-365.21 203.03,-359.59"/>
</g>
<!-- Node29 -->
<g id="node29" class="node">
<title>Node29</title>
<g id="a_node29"><a xlink:href="member__frontend_8h.html" target="_top" xlink:title=" ">
<polygon fill="white" stroke="#666666" points="143.5,-195 23.5,-195 23.5,-165 143.5,-165 143.5,-195"/>
<text text-anchor="start" x="31.5" y="-183" font-family="Helvetica,sans-Serif" font-size="10.00">src/node/rpc/member</text>
<text text-anchor="middle" x="83.5" y="-172" font-family="Helvetica,sans-Serif" font-size="10.00">_frontend.h</text>
</a>
</g>
</g>
<!-- Node27&#45;&gt;Node29 -->
<g id="edge51" class="edge">
<title>Node27&#45;&gt;Node29</title>
<path fill="none" stroke="#63b8ff" d="M176.31,-359.33C156.27,-320.82 108.99,-229.98 90.8,-195.04"/>
<polygon fill="#63b8ff" stroke="#63b8ff" points="173.26,-361.07 180.99,-368.33 179.47,-357.84 173.26,-361.07"/>
</g>
<!-- Node30 -->
<g id="node30" class="node">
<title>Node30</title>
<g id="a_node30"><a xlink:href="user__frontend_8h.html" target="_top" xlink:title=" ">
<polygon fill="white" stroke="#666666" points="265,-129 110,-129 110,-110 265,-110 265,-129"/>
<text text-anchor="middle" x="187.5" y="-117" font-family="Helvetica,sans-Serif" font-size="10.00">src/node/rpc/user_frontend.h</text>
</a>
</g>
</g>
<!-- Node27&#45;&gt;Node30 -->
<g id="edge54" class="edge">
<title>Node27&#45;&gt;Node30</title>
<path fill="none" stroke="#63b8ff" d="M185.65,-358.18C186.05,-306.76 187.15,-165.34 187.43,-129.07"/>
<polygon fill="#63b8ff" stroke="#63b8ff" points="182.14,-358.44 185.57,-368.47 189.14,-358.49 182.14,-358.44"/>
</g>
<!-- Node28&#45;&gt;Node7 -->
<g id="edge48" class="edge">
<title>Node28&#45;&gt;Node7</title>
<path fill="none" stroke="#63b8ff" d="M288.24,-288.79C322.04,-245.82 403.11,-151.87 495.5,-110 532.79,-93.1 577.94,-81.26 610.76,-74.06"/>
<polygon fill="#63b8ff" stroke="#63b8ff" points="285.3,-286.86 281.94,-296.91 290.83,-291.15 285.3,-286.86"/>
</g>
<!-- Node28&#45;&gt;Node23 -->
<g id="edge49" class="edge">
<title>Node28&#45;&gt;Node23</title>
<path fill="none" stroke="#63b8ff" d="M351.74,-296.07C419.51,-283.46 514.16,-265.85 569.72,-255.52"/>
<polygon fill="#63b8ff" stroke="#63b8ff" points="350.72,-292.7 341.53,-297.97 352,-299.58 350.72,-292.7"/>
</g>
<!-- Node29&#45;&gt;Node7 -->
<g id="edge52" class="edge">
<title>Node29&#45;&gt;Node7</title>
<path fill="none" stroke="#63b8ff" d="M82.79,-154.62C83.77,-139.44 87.79,-120.8 100.5,-110 137.46,-78.58 457.74,-69.07 594.27,-66.43"/>
<polygon fill="#63b8ff" stroke="#63b8ff" points="79.29,-154.82 82.55,-164.9 86.29,-154.99 79.29,-154.82"/>
</g>
<!-- Node30&#45;&gt;Node7 -->
<g id="edge55" class="edge">
<title>Node30&#45;&gt;Node7</title>
<path fill="none" stroke="#63b8ff" d="M272.63,-108.86C365.57,-98.33 512.08,-81.74 594.3,-72.43"/>
<polygon fill="#63b8ff" stroke="#63b8ff" points="272.23,-105.38 262.69,-109.98 273.02,-112.34 272.23,-105.38"/>
</g>
<!-- Node31&#45;&gt;Node5 -->
<g id="edge59" class="edge">
<title>Node31&#45;&gt;Node5</title>
<path fill="none" stroke="#63b8ff" d="M942.02,-505.08C830.35,-498.75 633.22,-484.37 566.5,-459 519.12,-440.99 496.76,-438.03 473.5,-393 467.38,-381.15 465.56,-373.71 473.5,-363 481.32,-352.45 555.97,-332.87 602.14,-321.59"/>
<polygon fill="#63b8ff" stroke="#63b8ff" points="942.04,-508.59 952.22,-505.65 942.43,-501.6 942.04,-508.59"/>
</g>
<!-- Node31&#45;&gt;Node6 -->
<g id="edge60" class="edge">
<title>Node31&#45;&gt;Node6</title>
<path fill="none" stroke="#63b8ff" d="M1018.84,-490.38C1010.8,-440.88 982.19,-304.8 902.5,-231 878.57,-208.84 844.42,-196.45 815.06,-189.56"/>
<polygon fill="#63b8ff" stroke="#63b8ff" points="1015.39,-490.94 1020.36,-500.3 1022.3,-489.88 1015.39,-490.94"/>
</g>
<!-- Node31&#45;&gt;Node26 -->
<g id="edge63" class="edge">
<title>Node31&#45;&gt;Node26</title>
<path fill="none" stroke="#63b8ff" d="M1042.76,-494.68C1061.42,-482.11 1087.96,-464.23 1103.59,-453.7"/>
<polygon fill="#63b8ff" stroke="#63b8ff" points="1040.65,-491.88 1034.31,-500.37 1044.56,-497.68 1040.65,-491.88"/>
</g>
<!-- Node32 -->
<g id="node32" class="node">
<title>Node32</title>
<g id="a_node32"><a xlink:href="node__to__node__channel__manager_8h.html" target="_top" xlink:title=" ">
<polygon fill="white" stroke="#666666" points="1079,-261 950,-261 950,-231 1079,-231 1079,-261"/>
<text text-anchor="start" x="958" y="-249" font-family="Helvetica,sans-Serif" font-size="10.00">src/node/node_to_node</text>
<text text-anchor="middle" x="1014.5" y="-238" font-family="Helvetica,sans-Serif" font-size="10.00">_channel_manager.h</text>
</a>
</g>
</g>
<!-- Node31&#45;&gt;Node32 -->
<g id="edge61" class="edge">
<title>Node31&#45;&gt;Node32</title>
<path fill="none" stroke="#63b8ff" d="M1021,-490.27C1019.67,-440.41 1016.06,-305.26 1014.88,-261.14"/>
<polygon fill="#63b8ff" stroke="#63b8ff" points="1017.5,-490.38 1021.27,-500.28 1024.5,-490.19 1017.5,-490.38"/>
</g>
<!-- Node32&#45;&gt;Node6 -->
<g id="edge62" class="edge">
<title>Node32&#45;&gt;Node6</title>
<path fill="none" stroke="#63b8ff" d="M947.81,-228.52C897.35,-216.05 830.11,-199.44 789.97,-189.52"/>
<polygon fill="#63b8ff" stroke="#63b8ff" points="947.11,-231.95 957.66,-230.95 948.79,-225.16 947.11,-231.95"/>
</g>
</g>
</svg>
