<?xml version="1.0" encoding="UTF-8" standalone="no"?>
<!DOCTYPE svg PUBLIC "-//W3C//DTD SVG 1.1//EN"
 "http://www.w3.org/Graphics/SVG/1.1/DTD/svg11.dtd">
<!-- Generated by graphviz version 2.43.0 (0)
 -->
<!-- Title: src/node/session_metrics.h Pages: 1 -->
<!--zoomable 654 -->
<svg id="main" version="1.1" xmlns="http://www.w3.org/2000/svg" xmlns:xlink="http://www.w3.org/1999/xlink" xml:space="preserve" onload="init(evt)">
<style type="text/css"><![CDATA[
.edge:hover path { stroke: red; }
.edge:hover polygon { stroke: red; fill: red; }
]]></style>
<script type="text/javascript"><![CDATA[
var edges = document.getElementsByTagName('g');
if (edges && edges.length) {
  for (var i=0;i<edges.length;i++) {
    if (edges[i].id.substr(0,4)=='edge') {
      edges[i].setAttribute('class','edge');
    }
  }
}
]]></script>
        <defs>
                <circle id="rim" cx="0" cy="0" r="7"/>
                <circle id="rim2" cx="0" cy="0" r="3.5"/>
                <g id="zoomPlus">
                        <use xlink:href="#rim" fill="#404040">
                                <set attributeName="fill" to="#808080" begin="zoomplus.mouseover" end="zoomplus.mouseout"/>
                        </use>
                        <path d="M-4,0h8M0,-4v8" fill="none" stroke="white" stroke-width="1.5" pointer-events="none"/>
                </g>
                <g id="zoomMin">
                        <use xlink:href="#rim" fill="#404040">
                                <set attributeName="fill" to="#808080" begin="zoomminus.mouseover" end="zoomminus.mouseout"/>
                        </use>
                        <path d="M-4,0h8" fill="none" stroke="white" stroke-width="1.5" pointer-events="none"/>
                </g>
                <g id="dirArrow">
                        <path fill="none" stroke="white" stroke-width="1.5" d="M0,-3.0v7 M-2.5,-0.5L0,-3.0L2.5,-0.5"/>
                </g>
               <g id="resetDef">
                       <use xlink:href="#rim2" fill="#404040">
                               <set attributeName="fill" to="#808080" begin="reset.mouseover" end="reset.mouseout"/>
                       </use>
               </g>
        </defs>

<script type="text/javascript">
var viewWidth = 2233;
var viewHeight = 654;
var sectionId = 'dynsection-1';
</script>
<script xlink:href="svgpan.js"/>
<svg id="graph" class="graph">
<g id="viewport">
<title>src/node/session_metrics.h</title>
<!-- Node1 -->
<g id="node1" class="node">
<title>Node1</title>
<g id="a_node1"><a xlink:title=" ">
<polygon fill="#999999" stroke="#666666" points="1480,-646 1331,-646 1331,-627 1480,-627 1480,-646"/>
<text text-anchor="middle" x="1405.5" y="-634" font-family="Helvetica,sans-Serif" font-size="10.00">src/node/session_metrics.h</text>
</a>
</g>
</g>
<!-- Node2 -->
<g id="node2" class="node">
<title>Node2</title>
<g id="a_node2"><a xlink:href="rpc__sessions_8h.html" target="_top" xlink:title=" ">
<polygon fill="white" stroke="#666666" points="375.5,-332.5 229.5,-332.5 229.5,-313.5 375.5,-313.5 375.5,-332.5"/>
<text text-anchor="middle" x="302.5" y="-320.5" font-family="Helvetica,sans-Serif" font-size="10.00">src/enclave/rpc_sessions.h</text>
</a>
</g>
</g>
<!-- Node1&#45;&gt;Node2 -->
<g id="edge1" class="edge">
<title>Node1&#45;&gt;Node2</title>
<path fill="none" stroke="#63b8ff" d="M1320.33,-636.01C1045.75,-636.56 201.5,-629.07 201.5,-516.5 201.5,-516.5 201.5,-516.5 201.5,-454 201.5,-397.7 261.31,-351.06 288.88,-332.56"/>
<polygon fill="#63b8ff" stroke="#63b8ff" points="1320.65,-639.51 1330.64,-635.99 1320.63,-632.51 1320.65,-639.51"/>
</g>
<!-- Node10 -->
<g id="node10" class="node">
<title>Node10</title>
<g id="a_node10"><a xlink:href="node__frontend_8h.html" target="_top" xlink:title=" ">
<polygon fill="white" stroke="#666666" points="1429.5,-332.5 1271.5,-332.5 1271.5,-313.5 1429.5,-313.5 1429.5,-332.5"/>
<text text-anchor="middle" x="1350.5" y="-320.5" font-family="Helvetica,sans-Serif" font-size="10.00">src/node/rpc/node_frontend.h</text>
</a>
</g>
</g>
<!-- Node1&#45;&gt;Node10 -->
<g id="edge14" class="edge">
<title>Node1&#45;&gt;Node10</title>
<path fill="none" stroke="#63b8ff" d="M1393.45,-618.37C1378.94,-596.03 1356.5,-555.21 1356.5,-516.5 1356.5,-516.5 1356.5,-516.5 1356.5,-454 1356.5,-408.14 1352.73,-353.27 1351.17,-332.51"/>
<polygon fill="#63b8ff" stroke="#63b8ff" points="1390.61,-620.41 1399.09,-626.76 1396.41,-616.5 1390.61,-620.41"/>
</g>
<!-- Node12 -->
<g id="node12" class="node">
<title>Node12</title>
<g id="a_node12"><a xlink:href="node__interface_8h.html" target="_top" xlink:title=" ">
<polygon fill="white" stroke="#666666" points="1636,-525 1475,-525 1475,-506 1636,-506 1636,-525"/>
<text text-anchor="middle" x="1555.5" y="-513" font-family="Helvetica,sans-Serif" font-size="10.00">src/node/rpc/node_interface.h</text>
</a>
</g>
</g>
<!-- Node1&#45;&gt;Node12 -->
<g id="edge18" class="edge">
<title>Node1&#45;&gt;Node12</title>
<path fill="none" stroke="#63b8ff" d="M1424.33,-620.56C1455.99,-595.44 1518.93,-545.51 1544.41,-525.3"/>
<polygon fill="#63b8ff" stroke="#63b8ff" points="1421.95,-617.98 1416.29,-626.94 1426.3,-623.47 1421.95,-617.98"/>
</g>
<!-- Node34 -->
<g id="node34" class="node">
<title>Node34</title>
<g id="a_node34"><a xlink:href="node__operation__interface_8h.html" target="_top" xlink:title=" ">
<polygon fill="white" stroke="#666666" points="1698,-591 1543,-591 1543,-561 1698,-561 1698,-591"/>
<text text-anchor="start" x="1551" y="-579" font-family="Helvetica,sans-Serif" font-size="10.00">src/node/rpc/node_operation</text>
<text text-anchor="middle" x="1620.5" y="-568" font-family="Helvetica,sans-Serif" font-size="10.00">_interface.h</text>
</a>
</g>
</g>
<!-- Node1&#45;&gt;Node34 -->
<g id="edge64" class="edge">
<title>Node1&#45;&gt;Node34</title>
<path fill="none" stroke="#63b8ff" d="M1446.58,-624.32C1481.34,-614.86 1531.34,-601.26 1568.81,-591.06"/>
<polygon fill="#63b8ff" stroke="#63b8ff" points="1445.49,-620.99 1436.76,-626.99 1447.33,-627.75 1445.49,-620.99"/>
</g>
<!-- Node3 -->
<g id="node3" class="node">
<title>Node3</title>
<g id="a_node3"><a xlink:href="src_2enclave_2enclave_8h.html" target="_top" xlink:title=" ">
<polygon fill="white" stroke="#666666" points="1539.5,-74 1417.5,-74 1417.5,-55 1539.5,-55 1539.5,-74"/>
<text text-anchor="middle" x="1478.5" y="-62" font-family="Helvetica,sans-Serif" font-size="10.00">src/enclave/enclave.h</text>
</a>
</g>
</g>
<!-- Node2&#45;&gt;Node3 -->
<g id="edge2" class="edge">
<title>Node2&#45;&gt;Node3</title>
<path fill="none" stroke="#63b8ff" d="M308.25,-303.82C315.16,-285.15 328.63,-256.77 350.5,-242 659.65,-33.15 810.76,-166.79 1179.5,-110 1263.01,-97.14 1359.74,-82.85 1420.03,-74.02"/>
<polygon fill="#63b8ff" stroke="#63b8ff" points="304.94,-302.7 305,-313.29 311.56,-304.97 304.94,-302.7"/>
</g>
<!-- Node5 -->
<g id="node5" class="node">
<title>Node5</title>
<g id="a_node5"><a xlink:href="ccf__acme__client_8h.html" target="_top" xlink:title=" ">
<polygon fill="white" stroke="#666666" points="1392,-266.5 1243,-266.5 1243,-247.5 1392,-247.5 1392,-266.5"/>
<text text-anchor="middle" x="1317.5" y="-254.5" font-family="Helvetica,sans-Serif" font-size="10.00">src/node/ccf_acme_client.h</text>
</a>
</g>
</g>
<!-- Node2&#45;&gt;Node5 -->
<g id="edge4" class="edge">
<title>Node2&#45;&gt;Node5</title>
<path fill="none" stroke="#63b8ff" d="M385.78,-313.96C409.87,-311.82 436.22,-309.64 460.5,-308 804.09,-284.8 892.09,-308.71 1234.5,-272 1247,-270.66 1260.46,-268.64 1272.84,-266.55"/>
<polygon fill="#63b8ff" stroke="#63b8ff" points="385.25,-310.5 375.61,-314.88 385.88,-317.47 385.25,-310.5"/>
</g>
<!-- Node6 -->
<g id="node6" class="node">
<title>Node6</title>
<g id="a_node6"><a xlink:href="node__state_8h.html" target="_top" xlink:title=" ">
<polygon fill="white" stroke="#666666" points="1224.5,-200.5 1100.5,-200.5 1100.5,-181.5 1224.5,-181.5 1224.5,-200.5"/>
<text text-anchor="middle" x="1162.5" y="-188.5" font-family="Helvetica,sans-Serif" font-size="10.00">src/node/node_state.h</text>
</a>
</g>
</g>
<!-- Node2&#45;&gt;Node6 -->
<g id="edge9" class="edge">
<title>Node2&#45;&gt;Node6</title>
<path fill="none" stroke="#63b8ff" d="M353.1,-311.11C390.14,-302.41 441.26,-288.91 484.5,-272 511.53,-261.43 514.6,-249.99 542.5,-242 646.06,-212.34 964.74,-198.54 1100.36,-193.9"/>
<polygon fill="#63b8ff" stroke="#63b8ff" points="352,-307.77 343.05,-313.43 353.58,-314.59 352,-307.77"/>
</g>
<!-- Node8 -->
<g id="node8" class="node">
<title>Node8</title>
<g id="a_node8"><a xlink:href="quote__endorsements__client_8h.html" target="_top" xlink:title=" ">
<polygon fill="white" stroke="#666666" points="715.5,-272 551.5,-272 551.5,-242 715.5,-242 715.5,-272"/>
<text text-anchor="start" x="559.5" y="-260" font-family="Helvetica,sans-Serif" font-size="10.00">src/node/quote_endorsements</text>
<text text-anchor="middle" x="633.5" y="-249" font-family="Helvetica,sans-Serif" font-size="10.00">_client.h</text>
</a>
</g>
</g>
<!-- Node2&#45;&gt;Node8 -->
<g id="edge10" class="edge">
<title>Node2&#45;&gt;Node8</title>
<path fill="none" stroke="#63b8ff" d="M356.82,-311.5C412.5,-300.73 499.43,-283.92 560.97,-272.02"/>
<polygon fill="#63b8ff" stroke="#63b8ff" points="355.95,-308.1 346.8,-313.44 357.28,-314.97 355.95,-308.1"/>
</g>
<!-- Node9 -->
<g id="node9" class="node">
<title>Node9</title>
<g id="a_node9"><a xlink:href="resharing_8h.html" target="_top" xlink:title=" ">
<polygon fill="white" stroke="#666666" points="475.5,-266.5 359.5,-266.5 359.5,-247.5 475.5,-247.5 475.5,-266.5"/>
<text text-anchor="middle" x="417.5" y="-254.5" font-family="Helvetica,sans-Serif" font-size="10.00">src/node/resharing.h</text>
</a>
</g>
</g>
<!-- Node2&#45;&gt;Node9 -->
<g id="edge12" class="edge">
<title>Node2&#45;&gt;Node9</title>
<path fill="none" stroke="#63b8ff" d="M327.01,-308.36C349.65,-295.76 382.61,-277.42 401.87,-266.7"/>
<polygon fill="#63b8ff" stroke="#63b8ff" points="325.05,-305.45 318.01,-313.37 328.45,-311.56 325.05,-305.45"/>
</g>
<!-- Node4 -->
<g id="node4" class="node">
<title>Node4</title>
<g id="a_node4"><a xlink:href="enclave_2main_8cpp.html" target="_top" xlink:title=" ">
<polygon fill="white" stroke="#666666" points="1538.5,-19 1418.5,-19 1418.5,0 1538.5,0 1538.5,-19"/>
<text text-anchor="middle" x="1478.5" y="-7" font-family="Helvetica,sans-Serif" font-size="10.00">src/enclave/main.cpp</text>
</a>
</g>
</g>
<!-- Node3&#45;&gt;Node4 -->
<g id="edge3" class="edge">
<title>Node3&#45;&gt;Node4</title>
<path fill="none" stroke="#63b8ff" d="M1478.5,-44.66C1478.5,-35.93 1478.5,-25.99 1478.5,-19.09"/>
<polygon fill="#63b8ff" stroke="#63b8ff" points="1475,-44.75 1478.5,-54.75 1482,-44.75 1475,-44.75"/>
</g>
<!-- Node5&#45;&gt;Node6 -->
<g id="edge5" class="edge">
<title>Node5&#45;&gt;Node6</title>
<path fill="none" stroke="#63b8ff" d="M1287.28,-243.52C1256.74,-230.91 1210.34,-211.75 1183.57,-200.7"/>
<polygon fill="#63b8ff" stroke="#63b8ff" points="1286.02,-246.79 1296.6,-247.37 1288.69,-240.32 1286.02,-246.79"/>
</g>
<!-- Node6&#45;&gt;Node3 -->
<g id="edge6" class="edge">
<title>Node6&#45;&gt;Node3</title>
<path fill="none" stroke="#63b8ff" d="M1168.37,-171.59C1175.32,-152.94 1188.78,-124.78 1210.5,-110 1243.35,-87.65 1349.06,-75.44 1417.49,-69.71"/>
<polygon fill="#63b8ff" stroke="#63b8ff" points="1164.97,-170.71 1165.01,-181.31 1171.58,-173 1164.97,-170.71"/>
</g>
<!-- Node7 -->
<g id="node7" class="node">
<title>Node7</title>
<g id="a_node7"><a xlink:href="gov__effects_8h.html" target="_top" xlink:title=" ">
<polygon fill="white" stroke="#666666" points="1363.5,-134.5 1219.5,-134.5 1219.5,-115.5 1363.5,-115.5 1363.5,-134.5"/>
<text text-anchor="middle" x="1291.5" y="-122.5" font-family="Helvetica,sans-Serif" font-size="10.00">src/node/rpc/gov_effects.h</text>
</a>
</g>
</g>
<!-- Node6&#45;&gt;Node7 -->
<g id="edge7" class="edge">
<title>Node6&#45;&gt;Node7</title>
<path fill="none" stroke="#63b8ff" d="M1188.98,-176.86C1214.4,-164.25 1252.07,-145.56 1273.97,-134.7"/>
<polygon fill="#63b8ff" stroke="#63b8ff" points="1187.3,-173.79 1179.9,-181.37 1190.41,-180.06 1187.3,-173.79"/>
</g>
<!-- Node7&#45;&gt;Node3 -->
<g id="edge8" class="edge">
<title>Node7&#45;&gt;Node3</title>
<path fill="none" stroke="#63b8ff" d="M1328.38,-112.46C1364.55,-101.15 1418.85,-84.16 1451.28,-74.02"/>
<polygon fill="#63b8ff" stroke="#63b8ff" points="1327.19,-109.17 1318.69,-115.49 1329.28,-115.85 1327.19,-109.17"/>
</g>
<!-- Node8&#45;&gt;Node6 -->
<g id="edge11" class="edge">
<title>Node8&#45;&gt;Node6</title>
<path fill="none" stroke="#63b8ff" d="M725.72,-242.37C726.65,-242.24 727.58,-242.12 728.5,-242 860.67,-224.65 1015.91,-207.56 1100.26,-198.55"/>
<polygon fill="#63b8ff" stroke="#63b8ff" points="725.05,-238.93 715.61,-243.73 725.99,-245.86 725.05,-238.93"/>
</g>
<!-- Node9&#45;&gt;Node6 -->
<g id="edge13" class="edge">
<title>Node9&#45;&gt;Node6</title>
<path fill="none" stroke="#63b8ff" d="M474.58,-245.89C483.89,-244.45 493.45,-243.09 502.5,-242 721.56,-215.71 983.28,-200.73 1100.45,-194.88"/>
<polygon fill="#63b8ff" stroke="#63b8ff" points="473.93,-242.45 464.6,-247.49 475.03,-249.37 473.93,-242.45"/>
</g>
<!-- Node10&#45;&gt;Node3 -->
<g id="edge15" class="edge">
<title>Node10&#45;&gt;Node3</title>
<path fill="none" stroke="#63b8ff" d="M1369.95,-306.6C1380.45,-297.47 1392.97,-285.13 1401.5,-272 1446.31,-203.01 1470.17,-104.25 1476.66,-74.39"/>
<polygon fill="#63b8ff" stroke="#63b8ff" points="1367.5,-304.09 1362.08,-313.2 1371.99,-309.46 1367.5,-304.09"/>
</g>
<!-- Node11 -->
<g id="node11" class="node">
<title>Node11</title>
<g id="a_node11"><a xlink:href="jwt__key__auto__refresh_8h.html" target="_top" xlink:title=" ">
<polygon fill="white" stroke="#666666" points="1225,-272 1100,-272 1100,-242 1225,-242 1225,-272"/>
<text text-anchor="start" x="1108" y="-260" font-family="Helvetica,sans-Serif" font-size="10.00">src/node/jwt_key_auto</text>
<text text-anchor="middle" x="1162.5" y="-249" font-family="Helvetica,sans-Serif" font-size="10.00">_refresh.h</text>
</a>
</g>
</g>
<!-- Node10&#45;&gt;Node11 -->
<g id="edge16" class="edge">
<title>Node10&#45;&gt;Node11</title>
<path fill="none" stroke="#63b8ff" d="M1315.45,-310.07C1283.86,-299.31 1237.39,-283.49 1203.96,-272.12"/>
<polygon fill="#63b8ff" stroke="#63b8ff" points="1314.55,-313.46 1325.15,-313.37 1316.81,-306.83 1314.55,-313.46"/>
</g>
<!-- Node11&#45;&gt;Node6 -->
<g id="edge17" class="edge">
<title>Node11&#45;&gt;Node6</title>
<path fill="none" stroke="#63b8ff" d="M1162.5,-231.6C1162.5,-220.8 1162.5,-208.78 1162.5,-200.84"/>
<polygon fill="#63b8ff" stroke="#63b8ff" points="1159,-231.8 1162.5,-241.8 1166,-231.8 1159,-231.8"/>
</g>
<!-- Node12&#45;&gt;Node10 -->
<g id="edge61" class="edge">
<title>Node12&#45;&gt;Node10</title>
<path fill="none" stroke="#63b8ff" d="M1523.62,-501.79C1506.55,-494.09 1485.75,-483.2 1469.5,-470 1416.45,-426.91 1370.71,-356.87 1355.7,-332.6"/>
<polygon fill="#63b8ff" stroke="#63b8ff" points="1522.61,-505.17 1533.18,-505.95 1525.4,-498.75 1522.61,-505.17"/>
</g>
<!-- Node13 -->
<g id="node13" class="node">
<title>Node13</title>
<g id="a_node13"><a xlink:href="wrap_8cpp.html" target="_top" xlink:title=" ">
<polygon fill="white" stroke="#666666" points="826,-266.5 737,-266.5 737,-247.5 826,-247.5 826,-266.5"/>
<text text-anchor="middle" x="781.5" y="-254.5" font-family="Helvetica,sans-Serif" font-size="10.00">src/js/wrap.cpp</text>
</a>
</g>
</g>
<!-- Node12&#45;&gt;Node13 -->
<g id="edge19" class="edge">
<title>Node12&#45;&gt;Node13</title>
<path fill="none" stroke="#63b8ff" d="M1464.4,-514.94C1218.95,-513.97 553.35,-496.51 419.5,-338 410.9,-327.81 410.64,-317.97 419.5,-308 464.84,-256.99 657.34,-284.16 724.5,-272 732.72,-270.51 741.52,-268.54 749.69,-266.55"/>
<polygon fill="#63b8ff" stroke="#63b8ff" points="1464.7,-518.44 1474.71,-514.97 1464.72,-511.44 1464.7,-518.44"/>
</g>
<!-- Node14 -->
<g id="node14" class="node">
<title>Node14</title>
<g id="a_node14"><a xlink:href="wrap_8h.html" target="_top" xlink:title=" ">
<polygon fill="white" stroke="#666666" points="992.5,-398.5 914.5,-398.5 914.5,-379.5 992.5,-379.5 992.5,-398.5"/>
<text text-anchor="middle" x="953.5" y="-386.5" font-family="Helvetica,sans-Serif" font-size="10.00">src/js/wrap.h</text>
</a>
</g>
</g>
<!-- Node12&#45;&gt;Node14 -->
<g id="edge20" class="edge">
<title>Node12&#45;&gt;Node14</title>
<path fill="none" stroke="#63b8ff" d="M1504.26,-503.9C1386.39,-479.53 1098.07,-419.9 992.8,-398.13"/>
<polygon fill="#63b8ff" stroke="#63b8ff" points="1503.62,-507.34 1514.12,-505.94 1505.04,-500.49 1503.62,-507.34"/>
</g>
<!-- Node21 -->
<g id="node21" class="node">
<title>Node21</title>
<g id="a_node21"><a xlink:href="member__frontend_8h.html" target="_top" xlink:title=" ">
<polygon fill="white" stroke="#666666" points="1801.5,-338 1681.5,-338 1681.5,-308 1801.5,-308 1801.5,-338"/>
<text text-anchor="start" x="1689.5" y="-326" font-family="Helvetica,sans-Serif" font-size="10.00">src/node/rpc/member</text>
<text text-anchor="middle" x="1741.5" y="-315" font-family="Helvetica,sans-Serif" font-size="10.00">_frontend.h</text>
</a>
</g>
</g>
<!-- Node12&#45;&gt;Node21 -->
<g id="edge53" class="edge">
<title>Node12&#45;&gt;Node21</title>
<path fill="none" stroke="#63b8ff" d="M1588.87,-501.86C1605.87,-494.33 1626.13,-483.59 1641.5,-470 1686.39,-430.32 1720.91,-366.38 1734.82,-338.16"/>
<polygon fill="#63b8ff" stroke="#63b8ff" points="1587.14,-498.79 1579.3,-505.92 1589.88,-505.24 1587.14,-498.79"/>
</g>
<!-- Node22 -->
<g id="node22" class="node">
<title>Node22</title>
<g id="a_node22"><a xlink:href="historical__queries_8h.html" target="_top" xlink:title=" ">
<polygon fill="white" stroke="#666666" points="1882.5,-206 1776.5,-206 1776.5,-176 1882.5,-176 1882.5,-206"/>
<text text-anchor="start" x="1784.5" y="-194" font-family="Helvetica,sans-Serif" font-size="10.00">src/node/historical</text>
<text text-anchor="middle" x="1829.5" y="-183" font-family="Helvetica,sans-Serif" font-size="10.00">_queries.h</text>
</a>
</g>
</g>
<!-- Node12&#45;&gt;Node22 -->
<g id="edge37" class="edge">
<title>Node12&#45;&gt;Node22</title>
<path fill="none" stroke="#63b8ff" d="M1596.15,-502.82C1618.74,-495.33 1646.8,-484.31 1669.5,-470 1742.13,-424.23 1771.33,-414.38 1810.5,-338 1833.01,-294.1 1832.38,-233.41 1830.7,-206.2"/>
<polygon fill="#63b8ff" stroke="#63b8ff" points="1594.96,-499.53 1586.51,-505.92 1597.1,-506.19 1594.96,-499.53"/>
</g>
<!-- Node24 -->
<g id="node24" class="node">
<title>Node24</title>
<g id="a_node24"><a xlink:href="node__configuration__subsystem_8h.html" target="_top" xlink:title=" ">
<polygon fill="white" stroke="#666666" points="1632.5,-470 1478.5,-470 1478.5,-440 1632.5,-440 1632.5,-470"/>
<text text-anchor="start" x="1486.5" y="-458" font-family="Helvetica,sans-Serif" font-size="10.00">src/node/node_configuration</text>
<text text-anchor="middle" x="1555.5" y="-447" font-family="Helvetica,sans-Serif" font-size="10.00">_subsystem.h</text>
</a>
</g>
</g>
<!-- Node12&#45;&gt;Node24 -->
<g id="edge41" class="edge">
<title>Node12&#45;&gt;Node24</title>
<path fill="none" stroke="#63b8ff" d="M1555.5,-495.65C1555.5,-487.36 1555.5,-477.78 1555.5,-470.11"/>
<polygon fill="#63b8ff" stroke="#63b8ff" points="1552,-495.87 1555.5,-505.87 1559,-495.87 1552,-495.87"/>
</g>
<!-- Node28 -->
<g id="node28" class="node">
<title>Node28</title>
<g id="a_node28"><a xlink:href="acme__subsystem_8h.html" target="_top" xlink:title=" ">
<polygon fill="white" stroke="#666666" points="173,-200.5 0,-200.5 0,-181.5 173,-181.5 173,-200.5"/>
<text text-anchor="middle" x="86.5" y="-188.5" font-family="Helvetica,sans-Serif" font-size="10.00">src/node/rpc/acme_subsystem.h</text>
</a>
</g>
</g>
<!-- Node12&#45;&gt;Node28 -->
<g id="edge51" class="edge">
<title>Node12&#45;&gt;Node28</title>
<path fill="none" stroke="#63b8ff" d="M1464.68,-512.88C1265.61,-508.86 796.17,-496.79 639.5,-470 437.42,-435.44 366.07,-454.69 197.5,-338 142.52,-299.94 103.05,-226.08 90.64,-200.76"/>
<polygon fill="#63b8ff" stroke="#63b8ff" points="1464.74,-516.38 1474.81,-513.08 1464.88,-509.38 1464.74,-516.38"/>
</g>
<!-- Node29 -->
<g id="node29" class="node">
<title>Node29</title>
<g id="a_node29"><a xlink:href="network__identity__subsystem_8h.html" target="_top" xlink:title=" ">
<polygon fill="white" stroke="#666666" points="1960,-470 1833,-470 1833,-440 1960,-440 1960,-470"/>
<text text-anchor="start" x="1841" y="-458" font-family="Helvetica,sans-Serif" font-size="10.00">src/node/rpc/network</text>
<text text-anchor="middle" x="1896.5" y="-447" font-family="Helvetica,sans-Serif" font-size="10.00">_identity_subsystem.h</text>
</a>
</g>
</g>
<!-- Node12&#45;&gt;Node29 -->
<g id="edge54" class="edge">
<title>Node12&#45;&gt;Node29</title>
<path fill="none" stroke="#63b8ff" d="M1614.95,-504.3C1675.93,-493.84 1770.46,-477.62 1832.91,-466.91"/>
<polygon fill="#63b8ff" stroke="#63b8ff" points="1614.35,-500.85 1605.08,-505.99 1615.53,-507.75 1614.35,-500.85"/>
</g>
<!-- Node33 -->
<g id="node33" class="node">
<title>Node33</title>
<g id="a_node33"><a xlink:href="node__operation_8h.html" target="_top" xlink:title=" ">
<polygon fill="white" stroke="#666666" points="2142.5,-464.5 1978.5,-464.5 1978.5,-445.5 2142.5,-445.5 2142.5,-464.5"/>
<text text-anchor="middle" x="2060.5" y="-452.5" font-family="Helvetica,sans-Serif" font-size="10.00">src/node/rpc/node_operation.h</text>
</a>
</g>
</g>
<!-- Node12&#45;&gt;Node33 -->
<g id="edge62" class="edge">
<title>Node12&#45;&gt;Node33</title>
<path fill="none" stroke="#63b8ff" d="M1646.17,-505.95C1730.14,-497.75 1858.43,-484.51 1969.5,-470 1981.86,-468.39 1995.14,-466.46 2007.63,-464.55"/>
<polygon fill="#63b8ff" stroke="#63b8ff" points="1645.77,-502.48 1636.16,-506.93 1646.45,-509.44 1645.77,-502.48"/>
</g>
<!-- Node14&#45;&gt;Node3 -->
<g id="edge22" class="edge">
<title>Node14&#45;&gt;Node3</title>
<path fill="none" stroke="#63b8ff" d="M904.1,-387.96C747.98,-387.39 272.47,-382.03 220.5,-338 192.62,-314.38 201.5,-294.54 201.5,-258 201.5,-258 201.5,-258 201.5,-190 201.5,-66.3 1162.9,-63.53 1417.34,-64.97"/>
<polygon fill="#63b8ff" stroke="#63b8ff" points="904.33,-391.46 914.34,-387.99 904.36,-384.46 904.33,-391.46"/>
</g>
<!-- Node14&#45;&gt;Node6 -->
<g id="edge33" class="edge">
<title>Node14&#45;&gt;Node6</title>
<path fill="none" stroke="#63b8ff" d="M1003.12,-386.18C1073.5,-382.43 1196.88,-371.18 1224.5,-338 1233.03,-327.75 1232.6,-318.59 1224.5,-308 1187.28,-259.37 1128.72,-320.63 1091.5,-272 1070.51,-244.57 1117.5,-214.77 1144.77,-200.52"/>
<polygon fill="#63b8ff" stroke="#63b8ff" points="1002.53,-382.7 992.72,-386.7 1002.88,-389.69 1002.53,-382.7"/>
</g>
<!-- Node14&#45;&gt;Node10 -->
<g id="edge36" class="edge">
<title>Node14&#45;&gt;Node10</title>
<path fill="none" stroke="#63b8ff" d="M1002.79,-380.05C1077.9,-367.95 1220.39,-344.97 1297.6,-332.53"/>
<polygon fill="#63b8ff" stroke="#63b8ff" points="1001.97,-376.64 992.65,-381.69 1003.08,-383.55 1001.97,-376.64"/>
</g>
<!-- Node14&#45;&gt;Node13 -->
<g id="edge32" class="edge">
<title>Node14&#45;&gt;Node13</title>
<path fill="none" stroke="#63b8ff" d="M904.12,-386.67C785.07,-382.96 489.9,-370.53 460.5,-338 398.57,-269.47 357.09,-341.97 724.5,-272 732.61,-270.46 741.29,-268.49 749.38,-266.52"/>
<polygon fill="#63b8ff" stroke="#63b8ff" points="904.3,-390.18 914.4,-386.98 904.51,-383.18 904.3,-390.18"/>
</g>
<!-- Node15 -->
<g id="node15" class="node">
<title>Node15</title>
<g id="a_node15"><a xlink:href="js__generic__base_8cpp.html" target="_top" xlink:title=" ">
<polygon fill="white" stroke="#666666" points="721.5,-338 603.5,-338 603.5,-308 721.5,-308 721.5,-338"/>
<text text-anchor="start" x="611.5" y="-326" font-family="Helvetica,sans-Serif" font-size="10.00">src/apps/js_generic</text>
<text text-anchor="middle" x="662.5" y="-315" font-family="Helvetica,sans-Serif" font-size="10.00">/js_generic_base.cpp</text>
</a>
</g>
</g>
<!-- Node14&#45;&gt;Node15 -->
<g id="edge21" class="edge">
<title>Node14&#45;&gt;Node15</title>
<path fill="none" stroke="#63b8ff" d="M904.55,-377.23C854.12,-366.14 775.48,-348.85 721.61,-337"/>
<polygon fill="#63b8ff" stroke="#63b8ff" points="904.04,-380.71 914.56,-379.44 905.54,-373.87 904.04,-380.71"/>
</g>
<!-- Node16 -->
<g id="node16" class="node">
<title>Node16</title>
<g id="a_node16"><a xlink:href="consensus_8cpp.html" target="_top" xlink:title=" ">
<polygon fill="white" stroke="#666666" points="585.5,-332.5 469.5,-332.5 469.5,-313.5 585.5,-313.5 585.5,-332.5"/>
<text text-anchor="middle" x="527.5" y="-320.5" font-family="Helvetica,sans-Serif" font-size="10.00">src/js/consensus.cpp</text>
</a>
</g>
</g>
<!-- Node14&#45;&gt;Node16 -->
<g id="edge23" class="edge">
<title>Node14&#45;&gt;Node16</title>
<path fill="none" stroke="#63b8ff" d="M904.13,-382.2C834.77,-373.8 704.63,-357.15 594.5,-338 585.25,-336.39 575.33,-334.44 566.03,-332.52"/>
<polygon fill="#63b8ff" stroke="#63b8ff" points="903.97,-385.7 914.32,-383.42 904.81,-378.75 903.97,-385.7"/>
</g>
<!-- Node17 -->
<g id="node17" class="node">
<title>Node17</title>
<g id="a_node17"><a xlink:href="conv_8cpp.html" target="_top" xlink:title=" ">
<polygon fill="white" stroke="#666666" points="827.5,-332.5 739.5,-332.5 739.5,-313.5 827.5,-313.5 827.5,-332.5"/>
<text text-anchor="middle" x="783.5" y="-320.5" font-family="Helvetica,sans-Serif" font-size="10.00">src/js/conv.cpp</text>
</a>
</g>
</g>
<!-- Node14&#45;&gt;Node17 -->
<g id="edge25" class="edge">
<title>Node14&#45;&gt;Node17</title>
<path fill="none" stroke="#63b8ff" d="M921.2,-375.84C887.61,-363.2 835.9,-343.73 806.33,-332.6"/>
<polygon fill="#63b8ff" stroke="#63b8ff" points="919.98,-379.12 930.57,-379.37 922.45,-372.57 919.98,-379.12"/>
</g>
<!-- Node18 -->
<g id="node18" class="node">
<title>Node18</title>
<g id="a_node18"><a xlink:href="crypto_8cpp.html" target="_top" xlink:title=" ">
<polygon fill="white" stroke="#666666" points="941.5,-332.5 845.5,-332.5 845.5,-313.5 941.5,-313.5 941.5,-332.5"/>
<text text-anchor="middle" x="893.5" y="-320.5" font-family="Helvetica,sans-Serif" font-size="10.00">src/js/crypto.cpp</text>
</a>
</g>
</g>
<!-- Node14&#45;&gt;Node18 -->
<g id="edge27" class="edge">
<title>Node14&#45;&gt;Node18</title>
<path fill="none" stroke="#63b8ff" d="M938.48,-371.98C926.9,-359.62 911.3,-342.99 901.85,-332.91"/>
<polygon fill="#63b8ff" stroke="#63b8ff" points="936.02,-374.47 945.41,-379.37 941.12,-369.68 936.02,-374.47"/>
</g>
<!-- Node19 -->
<g id="node19" class="node">
<title>Node19</title>
<g id="a_node19"><a xlink:href="historical_8cpp.html" target="_top" xlink:title=" ">
<polygon fill="white" stroke="#666666" points="1069.5,-332.5 959.5,-332.5 959.5,-313.5 1069.5,-313.5 1069.5,-332.5"/>
<text text-anchor="middle" x="1014.5" y="-320.5" font-family="Helvetica,sans-Serif" font-size="10.00">src/js/historical.cpp</text>
</a>
</g>
</g>
<!-- Node14&#45;&gt;Node19 -->
<g id="edge29" class="edge">
<title>Node14&#45;&gt;Node19</title>
<path fill="none" stroke="#63b8ff" d="M968.77,-371.98C980.55,-359.62 996.4,-342.99 1006.01,-332.91"/>
<polygon fill="#63b8ff" stroke="#63b8ff" points="966.09,-369.72 961.73,-379.37 971.16,-374.54 966.09,-369.72"/>
</g>
<!-- Node20 -->
<g id="node20" class="node">
<title>Node20</title>
<g id="a_node20"><a xlink:href="openenclave_8cpp.html" target="_top" xlink:title=" ">
<polygon fill="white" stroke="#666666" points="1215.5,-332.5 1087.5,-332.5 1087.5,-313.5 1215.5,-313.5 1215.5,-332.5"/>
<text text-anchor="middle" x="1151.5" y="-320.5" font-family="Helvetica,sans-Serif" font-size="10.00">src/js/openenclave.cpp</text>
</a>
</g>
</g>
<!-- Node14&#45;&gt;Node20 -->
<g id="edge31" class="edge">
<title>Node14&#45;&gt;Node20</title>
<path fill="none" stroke="#63b8ff" d="M989.87,-376.24C1028.94,-363.61 1090.1,-343.85 1124.9,-332.6"/>
<polygon fill="#63b8ff" stroke="#63b8ff" points="988.64,-372.96 980.2,-379.37 990.79,-379.62 988.64,-372.96"/>
</g>
<!-- Node14&#45;&gt;Node21 -->
<g id="edge34" class="edge">
<title>Node14&#45;&gt;Node21</title>
<path fill="none" stroke="#63b8ff" d="M1002.73,-385.35C1114.95,-379.09 1398.34,-362.1 1634.5,-338 1649.69,-336.45 1666.05,-334.47 1681.3,-332.49"/>
<polygon fill="#63b8ff" stroke="#63b8ff" points="1002.51,-381.85 992.72,-385.9 1002.9,-388.84 1002.51,-381.85"/>
</g>
<!-- Node16&#45;&gt;Node13 -->
<g id="edge24" class="edge">
<title>Node16&#45;&gt;Node13</title>
<path fill="none" stroke="#63b8ff" d="M571.38,-310.94C621.46,-298.32 702.28,-277.96 747.71,-266.51"/>
<polygon fill="#63b8ff" stroke="#63b8ff" points="570.33,-307.6 561.49,-313.44 572.04,-314.39 570.33,-307.6"/>
</g>
<!-- Node17&#45;&gt;Node13 -->
<g id="edge26" class="edge">
<title>Node17&#45;&gt;Node13</title>
<path fill="none" stroke="#63b8ff" d="M782.91,-303.08C782.54,-291.13 782.07,-276.22 781.78,-266.91"/>
<polygon fill="#63b8ff" stroke="#63b8ff" points="779.42,-303.48 783.23,-313.37 786.42,-303.26 779.42,-303.48"/>
</g>
<!-- Node18&#45;&gt;Node13 -->
<g id="edge28" class="edge">
<title>Node18&#45;&gt;Node13</title>
<path fill="none" stroke="#63b8ff" d="M869.63,-308.36C847.58,-295.76 815.48,-277.42 796.72,-266.7"/>
<polygon fill="#63b8ff" stroke="#63b8ff" points="867.98,-311.45 878.4,-313.37 871.45,-305.37 867.98,-311.45"/>
</g>
<!-- Node19&#45;&gt;Node13 -->
<g id="edge30" class="edge">
<title>Node19&#45;&gt;Node13</title>
<path fill="none" stroke="#63b8ff" d="M973.15,-310.64C927.25,-298.03 854.19,-277.97 812.8,-266.6"/>
<polygon fill="#63b8ff" stroke="#63b8ff" points="972.51,-314.09 983.08,-313.37 974.36,-307.34 972.51,-314.09"/>
</g>
<!-- Node21&#45;&gt;Node3 -->
<g id="edge35" class="edge">
<title>Node21&#45;&gt;Node3</title>
<path fill="none" stroke="#63b8ff" d="M1740.85,-297.79C1738.28,-253.62 1726.29,-159.95 1671.5,-110 1652.32,-92.51 1588.61,-80.17 1539.59,-72.99"/>
<polygon fill="#63b8ff" stroke="#63b8ff" points="1737.35,-298.06 1741.31,-307.89 1744.35,-297.74 1737.35,-298.06"/>
</g>
<!-- Node22&#45;&gt;Node3 -->
<g id="edge38" class="edge">
<title>Node22&#45;&gt;Node3</title>
<path fill="none" stroke="#63b8ff" d="M1846.67,-167.32C1857.71,-149.78 1867.61,-125.88 1853.5,-110 1833.06,-86.99 1640.9,-73.8 1539.89,-68.4"/>
<polygon fill="#63b8ff" stroke="#63b8ff" points="1843.61,-165.59 1840.91,-175.84 1849.41,-169.51 1843.61,-165.59"/>
</g>
<!-- Node23 -->
<g id="node23" class="node">
<title>Node23</title>
<g id="a_node23"><a xlink:href="historical__transaction__fetcher_8h.html" target="_top" xlink:title=" ">
<polygon fill="white" stroke="#666666" points="1844,-140 1719,-140 1719,-110 1844,-110 1844,-140"/>
<text text-anchor="start" x="1727" y="-128" font-family="Helvetica,sans-Serif" font-size="10.00">src/indexing/historical</text>
<text text-anchor="middle" x="1781.5" y="-117" font-family="Helvetica,sans-Serif" font-size="10.00">_transaction_fetcher.h</text>
</a>
</g>
</g>
<!-- Node22&#45;&gt;Node23 -->
<g id="edge39" class="edge">
<title>Node22&#45;&gt;Node23</title>
<path fill="none" stroke="#63b8ff" d="M1812.64,-167.53C1805.82,-158.43 1798.15,-148.19 1792.12,-140.16"/>
<polygon fill="#63b8ff" stroke="#63b8ff" points="1810.05,-169.9 1818.85,-175.8 1815.65,-165.7 1810.05,-169.9"/>
</g>
<!-- Node23&#45;&gt;Node3 -->
<g id="edge40" class="edge">
<title>Node23&#45;&gt;Node3</title>
<path fill="none" stroke="#63b8ff" d="M1708.87,-109.98C1650.83,-98.77 1571.38,-83.43 1522.57,-74.01"/>
<polygon fill="#63b8ff" stroke="#63b8ff" points="1708.24,-113.42 1718.72,-111.88 1709.56,-106.55 1708.24,-113.42"/>
</g>
<!-- Node25 -->
<g id="node25" class="node">
<title>Node25</title>
<g id="a_node25"><a xlink:href="frontend_8h.html" target="_top" xlink:title=" ">
<polygon fill="white" stroke="#666666" points="1620,-398.5 1491,-398.5 1491,-379.5 1620,-379.5 1620,-398.5"/>
<text text-anchor="middle" x="1555.5" y="-386.5" font-family="Helvetica,sans-Serif" font-size="10.00">src/node/rpc/frontend.h</text>
</a>
</g>
</g>
<!-- Node24&#45;&gt;Node25 -->
<g id="edge42" class="edge">
<title>Node24&#45;&gt;Node25</title>
<path fill="none" stroke="#63b8ff" d="M1555.5,-429.6C1555.5,-418.8 1555.5,-406.78 1555.5,-398.84"/>
<polygon fill="#63b8ff" stroke="#63b8ff" points="1552,-429.8 1555.5,-439.8 1559,-429.8 1552,-429.8"/>
</g>
<!-- Node25&#45;&gt;Node6 -->
<g id="edge46" class="edge">
<title>Node25&#45;&gt;Node6</title>
<path fill="none" stroke="#63b8ff" d="M1529.36,-374.48C1513.17,-365.4 1492.49,-352.48 1476.5,-338 1436.37,-301.65 1447.46,-270.62 1401.5,-242 1347.88,-208.61 1275.71,-197.15 1224.75,-193.41"/>
<polygon fill="#63b8ff" stroke="#63b8ff" points="1527.85,-377.65 1538.31,-379.37 1531.21,-371.5 1527.85,-377.65"/>
</g>
<!-- Node25&#45;&gt;Node10 -->
<g id="edge48" class="edge">
<title>Node25&#45;&gt;Node10</title>
<path fill="none" stroke="#63b8ff" d="M1518.1,-376.32C1477.66,-363.7 1414.15,-343.87 1378.04,-332.6"/>
<polygon fill="#63b8ff" stroke="#63b8ff" points="1517.26,-379.73 1527.85,-379.37 1519.35,-373.05 1517.26,-379.73"/>
</g>
<!-- Node25&#45;&gt;Node21 -->
<g id="edge47" class="edge">
<title>Node25&#45;&gt;Node21</title>
<path fill="none" stroke="#63b8ff" d="M1590.18,-376.07C1621.43,-365.31 1667.41,-349.49 1700.48,-338.12"/>
<polygon fill="#63b8ff" stroke="#63b8ff" points="1588.9,-372.81 1580.58,-379.37 1591.18,-379.42 1588.9,-372.81"/>
</g>
<!-- Node26 -->
<g id="node26" class="node">
<title>Node26</title>
<g id="a_node26"><a xlink:href="acme__challenge__frontend_8h.html" target="_top" xlink:title=" ">
<polygon fill="white" stroke="#666666" points="1625.5,-338 1485.5,-338 1485.5,-308 1625.5,-308 1625.5,-338"/>
<text text-anchor="start" x="1493.5" y="-326" font-family="Helvetica,sans-Serif" font-size="10.00">src/node/acme_challenge</text>
<text text-anchor="middle" x="1555.5" y="-315" font-family="Helvetica,sans-Serif" font-size="10.00">_frontend.h</text>
</a>
</g>
</g>
<!-- Node25&#45;&gt;Node26 -->
<g id="edge43" class="edge">
<title>Node25&#45;&gt;Node26</title>
<path fill="none" stroke="#63b8ff" d="M1555.5,-369.35C1555.5,-359.47 1555.5,-347.51 1555.5,-338.36"/>
<polygon fill="#63b8ff" stroke="#63b8ff" points="1552,-369.37 1555.5,-379.37 1559,-369.37 1552,-369.37"/>
</g>
<!-- Node27 -->
<g id="node27" class="node">
<title>Node27</title>
<g id="a_node27"><a xlink:href="user__frontend_8h.html" target="_top" xlink:title=" ">
<polygon fill="white" stroke="#666666" points="1662,-134.5 1507,-134.5 1507,-115.5 1662,-115.5 1662,-134.5"/>
<text text-anchor="middle" x="1584.5" y="-122.5" font-family="Helvetica,sans-Serif" font-size="10.00">src/node/rpc/user_frontend.h</text>
</a>
</g>
</g>
<!-- Node25&#45;&gt;Node27 -->
<g id="edge49" class="edge">
<title>Node25&#45;&gt;Node27</title>
<path fill="none" stroke="#63b8ff" d="M1590.59,-375.18C1607.05,-367.19 1625.08,-355.12 1634.5,-338 1673.89,-266.45 1611.21,-164.71 1590.67,-134.67"/>
<polygon fill="#63b8ff" stroke="#63b8ff" points="1588.85,-372.13 1581.16,-379.42 1591.72,-378.51 1588.85,-372.13"/>
</g>
<!-- Node26&#45;&gt;Node3 -->
<g id="edge44" class="edge">
<title>Node26&#45;&gt;Node3</title>
<path fill="none" stroke="#63b8ff" d="M1547.7,-298.21C1536.42,-263.54 1515.08,-197.05 1498.5,-140 1491.62,-116.34 1484.3,-88.2 1480.72,-74.25"/>
<polygon fill="#63b8ff" stroke="#63b8ff" points="1544.44,-299.48 1550.87,-307.9 1551.09,-297.31 1544.44,-299.48"/>
</g>
<!-- Node26&#45;&gt;Node5 -->
<g id="edge45" class="edge">
<title>Node26&#45;&gt;Node5</title>
<path fill="none" stroke="#63b8ff" d="M1493.34,-305.29C1447.08,-292.84 1385.83,-276.37 1349.17,-266.52"/>
<polygon fill="#63b8ff" stroke="#63b8ff" points="1492.7,-308.74 1503.27,-307.95 1494.52,-301.98 1492.7,-308.74"/>
</g>
<!-- Node27&#45;&gt;Node3 -->
<g id="edge50" class="edge">
<title>Node27&#45;&gt;Node3</title>
<path fill="none" stroke="#63b8ff" d="M1559.9,-110.42C1539.64,-99.24 1511.53,-83.73 1494.2,-74.17"/>
<polygon fill="#63b8ff" stroke="#63b8ff" points="1558.41,-113.6 1568.86,-115.37 1561.8,-107.47 1558.41,-113.6"/>
</g>
<!-- Node28&#45;&gt;Node3 -->
<g id="edge52" class="edge">
<title>Node28&#45;&gt;Node3</title>
<path fill="none" stroke="#63b8ff" d="M100.48,-173.93C118.4,-154.64 151.49,-123.23 187.5,-110 303.47,-67.38 1176.47,-65.16 1417.19,-65.37"/>
<polygon fill="#63b8ff" stroke="#63b8ff" points="97.87,-171.6 93.76,-181.37 103.06,-176.29 97.87,-171.6"/>
</g>
<!-- Node29&#45;&gt;Node3 -->
<g id="edge56" class="edge">
<title>Node29&#45;&gt;Node3</title>
<path fill="none" stroke="#63b8ff" d="M1896.96,-429.74C1897.93,-371.39 1899.47,-224.44 1891.5,-176 1886.5,-145.63 1894.28,-129.54 1870.5,-110 1821.35,-69.61 1637.15,-64.41 1539.75,-64.59"/>
<polygon fill="#63b8ff" stroke="#63b8ff" points="1893.46,-429.81 1896.79,-439.87 1900.46,-429.93 1893.46,-429.81"/>
</g>
<!-- Node30 -->
<g id="node30" class="node">
<title>Node30</title>
<g id="a_node30"><a xlink:href="external__executor_8cpp.html" target="_top" xlink:title=" ">
<polygon fill="white" stroke="#666666" points="2196.5,-338 2048.5,-338 2048.5,-308 2196.5,-308 2196.5,-338"/>
<text text-anchor="start" x="2056.5" y="-326" font-family="Helvetica,sans-Serif" font-size="10.00">src/apps/external_executor</text>
<text text-anchor="middle" x="2122.5" y="-315" font-family="Helvetica,sans-Serif" font-size="10.00">/external_executor.cpp</text>
</a>
</g>
</g>
<!-- Node29&#45;&gt;Node30 -->
<g id="edge55" class="edge">
<title>Node29&#45;&gt;Node30</title>
<path fill="none" stroke="#63b8ff" d="M1968.07,-437.37C2005.87,-427.66 2047.65,-415.15 2063.5,-404 2088.06,-386.72 2106.49,-355.97 2115.78,-338.05"/>
<polygon fill="#63b8ff" stroke="#63b8ff" points="1966.89,-434.06 1958.05,-439.91 1968.6,-440.85 1966.89,-434.06"/>
</g>
<!-- Node31 -->
<g id="node31" class="node">
<title>Node31</title>
<g id="a_node31"><a xlink:href="historical__queries__adapter_8cpp.html" target="_top" xlink:title=" ">
<polygon fill="white" stroke="#666666" points="2030.5,-338 1910.5,-338 1910.5,-308 2030.5,-308 2030.5,-338"/>
<text text-anchor="start" x="1918.5" y="-326" font-family="Helvetica,sans-Serif" font-size="10.00">src/node/historical</text>
<text text-anchor="middle" x="1970.5" y="-315" font-family="Helvetica,sans-Serif" font-size="10.00">_queries_adapter.cpp</text>
</a>
</g>
</g>
<!-- Node29&#45;&gt;Node31 -->
<g id="edge57" class="edge">
<title>Node29&#45;&gt;Node31</title>
<path fill="none" stroke="#63b8ff" d="M1908.49,-430.79C1916.92,-414.71 1928.59,-392.88 1939.5,-374 1946.55,-361.8 1955.01,-348.22 1961.31,-338.3"/>
<polygon fill="#63b8ff" stroke="#63b8ff" points="1905.22,-429.5 1903.7,-439.98 1911.43,-432.73 1905.22,-429.5"/>
</g>
<!-- Node32 -->
<g id="node32" class="node">
<title>Node32</title>
<g id="a_node32"><a xlink:href="historical__queries__utils_8h.html" target="_top" xlink:title=" ">
<polygon fill="white" stroke="#666666" points="2054.5,-404 1948.5,-404 1948.5,-374 2054.5,-374 2054.5,-404"/>
<text text-anchor="start" x="1956.5" y="-392" font-family="Helvetica,sans-Serif" font-size="10.00">src/node/historical</text>
<text text-anchor="middle" x="2001.5" y="-381" font-family="Helvetica,sans-Serif" font-size="10.00">_queries_utils.h</text>
</a>
</g>
</g>
<!-- Node29&#45;&gt;Node32 -->
<g id="edge58" class="edge">
<title>Node29&#45;&gt;Node32</title>
<path fill="none" stroke="#63b8ff" d="M1928.17,-434.69C1944.38,-424.82 1963.75,-413.01 1978.51,-404.01"/>
<polygon fill="#63b8ff" stroke="#63b8ff" points="1926.26,-431.76 1919.54,-439.95 1929.9,-437.74 1926.26,-431.76"/>
</g>
<!-- Node32&#45;&gt;Node30 -->
<g id="edge59" class="edge">
<title>Node32&#45;&gt;Node30</title>
<path fill="none" stroke="#63b8ff" d="M2036.97,-369.24C2055.85,-359.25 2078.68,-347.18 2096.01,-338.01"/>
<polygon fill="#63b8ff" stroke="#63b8ff" points="2035.26,-366.19 2028.05,-373.95 2038.53,-372.37 2035.26,-366.19"/>
</g>
<!-- Node32&#45;&gt;Node31 -->
<g id="edge60" class="edge">
<title>Node32&#45;&gt;Node31</title>
<path fill="none" stroke="#63b8ff" d="M1990.2,-364.68C1985.9,-355.79 1981.13,-345.95 1977.36,-338.16"/>
<polygon fill="#63b8ff" stroke="#63b8ff" points="1987.11,-366.32 1994.62,-373.8 1993.41,-363.27 1987.11,-366.32"/>
</g>
<!-- Node33&#45;&gt;Node3 -->
<g id="edge63" class="edge">
<title>Node33&#45;&gt;Node3</title>
<path fill="none" stroke="#63b8ff" d="M2099.8,-442.13C2148.32,-424.76 2224.5,-387.39 2224.5,-324 2224.5,-324 2224.5,-324 2224.5,-190 2224.5,-120.74 1717.71,-81.07 1539.55,-69.27"/>
<polygon fill="#63b8ff" stroke="#63b8ff" points="2098.51,-438.87 2090.2,-445.44 2100.79,-445.49 2098.51,-438.87"/>
</g>
<!-- Node34&#45;&gt;Node12 -->
<g id="edge66" class="edge">
<title>Node34&#45;&gt;Node12</title>
<path fill="none" stroke="#63b8ff" d="M1597.12,-553.96C1586.14,-544.07 1573.65,-532.83 1565.24,-525.27"/>
<polygon fill="#63b8ff" stroke="#63b8ff" points="1594.99,-556.75 1604.77,-560.84 1599.67,-551.55 1594.99,-556.75"/>
</g>
<!-- Node34&#45;&gt;Node21 -->
<g id="edge65" class="edge">
<title>Node34&#45;&gt;Node21</title>
<path fill="none" stroke="#63b8ff" d="M1636.69,-552.03C1658.5,-520.16 1697.25,-460.1 1720.5,-404 1729.68,-381.85 1735.82,-354.55 1738.98,-338.25"/>
<polygon fill="#63b8ff" stroke="#63b8ff" points="1633.57,-550.4 1630.76,-560.61 1639.32,-554.38 1633.57,-550.4"/>
</g>
<!-- Node34&#45;&gt;Node33 -->
<g id="edge67" class="edge">
<title>Node34&#45;&gt;Node33</title>
<path fill="none" stroke="#63b8ff" d="M1682.19,-558.33C1718.16,-548.61 1764.4,-536.11 1805.5,-525 1886.08,-503.21 1980.97,-477.53 2029.1,-464.5"/>
<polygon fill="#63b8ff" stroke="#63b8ff" points="1681.08,-555.01 1672.33,-561 1682.9,-561.77 1681.08,-555.01"/>
</g>
</g>
</svg>
        <g id="navigator" transform="translate(0 0)" fill="#404254">
                <rect fill="#f2f5e9" fill-opacity="0.5" stroke="#606060" stroke-width=".5" x="0" y="0" width="60" height="60"/>
                <use id="zoomplus" xlink:href="#zoomPlus" x="17" y="9" onmousedown="handleZoom(evt,'in')"/>
                <use id="zoomminus" xlink:href="#zoomMin" x="42" y="9" onmousedown="handleZoom(evt,'out')"/>
                <use id="reset" xlink:href="#resetDef" x="30" y="36" onmousedown="handleReset()"/>
                <g id="arrowUp" xlink:href="#dirArrow" transform="translate(30 24)" onmousedown="handlePan(0,-1)">
                  <use xlink:href="#rim" fill="#404040">
                        <set attributeName="fill" to="#808080" begin="arrowUp.mouseover" end="arrowUp.mouseout"/>
                  </use>
                  <path fill="none" stroke="white" stroke-width="1.5" d="M0,-3.0v7 M-2.5,-0.5L0,-3.0L2.5,-0.5"/>
                </g>
                <g id="arrowRight" xlink:href="#dirArrow" transform="rotate(90) translate(36 -43)" onmousedown="handlePan(1,0)">
                  <use xlink:href="#rim" fill="#404040">
                        <set attributeName="fill" to="#808080" begin="arrowRight.mouseover" end="arrowRight.mouseout"/>
                  </use>
                  <path fill="none" stroke="white" stroke-width="1.5" d="M0,-3.0v7 M-2.5,-0.5L0,-3.0L2.5,-0.5"/>
                </g>
                <g id="arrowDown" xlink:href="#dirArrow" transform="rotate(180) translate(-30 -48)" onmousedown="handlePan(0,1)">
                  <use xlink:href="#rim" fill="#404040">
                        <set attributeName="fill" to="#808080" begin="arrowDown.mouseover" end="arrowDown.mouseout"/>
                  </use>
                  <path fill="none" stroke="white" stroke-width="1.5" d="M0,-3.0v7 M-2.5,-0.5L0,-3.0L2.5,-0.5"/>
                </g>
                <g id="arrowLeft" xlink:href="#dirArrow" transform="rotate(270) translate(-36 17)" onmousedown="handlePan(-1,0)">
                  <use xlink:href="#rim" fill="#404040">
                        <set attributeName="fill" to="#808080" begin="arrowLeft.mouseover" end="arrowLeft.mouseout"/>
                  </use>
                  <path fill="none" stroke="white" stroke-width="1.5" d="M0,-3.0v7 M-2.5,-0.5L0,-3.0L2.5,-0.5"/>
                </g>
        </g>
        <svg viewBox="0 0 15 15" width="100%" height="30px" preserveAspectRatio="xMaxYMin meet">
         <g id="arrow_out" transform="scale(0.3 0.3)">
          <a xlink:href="session__metrics_8h__dep__incl_org.svg" target="_base">
           <rect id="button" ry="5" rx="5" y="6" x="6" height="38" width="38"
                fill="#f2f5e9" fill-opacity="0.5" stroke="#606060" stroke-width="1.0"/>
           <path id="arrow"
             d="M 11.500037,31.436501 C 11.940474,20.09759 22.043105,11.32322 32.158766,21.979434 L 37.068811,17.246167 C 37.068811,17.246167 37.088388,32 37.088388,32 L 22.160133,31.978069 C 22.160133,31.978069 26.997745,27.140456 26.997745,27.140456 C 18.528582,18.264221 13.291696,25.230495 11.500037,31.436501 z"
             style="fill:#404040;"/>
          </a>
         </g>
        </svg>
</svg>
