<?xml version="1.0" encoding="UTF-8" standalone="no"?>
<!DOCTYPE svg PUBLIC "-//W3C//DTD SVG 1.1//EN"
 "http://www.w3.org/Graphics/SVG/1.1/DTD/svg11.dtd">
<!-- Generated by graphviz version 2.43.0 (0)
 -->
<!-- Title: src/crypto/sha256_hash.cpp Pages: 1 -->
<svg width="1534pt" height="610pt"
 viewBox="0.00 0.00 1534.05 610.00" xmlns="http://www.w3.org/2000/svg" xmlns:xlink="http://www.w3.org/1999/xlink">
<g id="graph0" class="graph" transform="scale(1 1) rotate(0) translate(4 606)">
<title>src/crypto/sha256_hash.cpp</title>
<!-- Node1 -->
<g id="node1" class="node">
<title>Node1</title>
<g id="a_node1"><a xlink:title=" ">
<polygon fill="#999999" stroke="#666666" points="179,-602 27,-602 27,-583 179,-583 179,-602"/>
<text text-anchor="middle" x="103" y="-590" font-family="Helvetica,sans-Serif" font-size="10.00">src/crypto/sha256_hash.cpp</text>
</a>
</g>
</g>
<!-- Node2 -->
<g id="node2" class="node">
<title>Node2</title>
<g id="a_node2"><a xlink:href="sha256__hash_8h.html" target="_top" xlink:title=" ">
<polygon fill="white" stroke="#666666" points="276,-547 136,-547 136,-528 276,-528 276,-547"/>
<text text-anchor="middle" x="206" y="-535" font-family="Helvetica,sans-Serif" font-size="10.00">ccf/crypto/sha256_hash.h</text>
</a>
</g>
</g>
<!-- Node1&#45;&gt;Node2 -->
<g id="edge1" class="edge">
<title>Node1&#45;&gt;Node2</title>
<path fill="none" stroke="#63b8ff" d="M119.55,-582.98C135.89,-574.57 161.13,-561.59 180.13,-551.81"/>
<polygon fill="#63b8ff" stroke="#63b8ff" points="181.86,-554.86 189.15,-547.17 178.66,-548.63 181.86,-554.86"/>
</g>
<!-- Node46 -->
<g id="node46" class="node">
<title>Node46</title>
<g id="a_node46"><a xlink:href="hex_8h.html" target="_top" xlink:title=" ">
<polygon fill="white" stroke="#666666" points="119.5,-255.5 44.5,-255.5 44.5,-236.5 119.5,-236.5 119.5,-255.5"/>
<text text-anchor="middle" x="82" y="-243.5" font-family="Helvetica,sans-Serif" font-size="10.00">ccf/ds/hex.h</text>
</a>
</g>
</g>
<!-- Node1&#45;&gt;Node46 -->
<g id="edge85" class="edge">
<title>Node1&#45;&gt;Node46</title>
<path fill="none" stroke="#63b8ff" d="M95.98,-582.87C82.43,-565.3 54,-523.65 54,-483.5 54,-483.5 54,-483.5 54,-371.5 54,-332.88 66.98,-289.14 75.27,-265.15"/>
<polygon fill="#63b8ff" stroke="#63b8ff" points="78.61,-266.2 78.68,-255.6 72.01,-263.84 78.61,-266.2"/>
</g>
<!-- Node3 -->
<g id="node3" class="node">
<title>Node3</title>
<g id="a_node3"><a xlink:href="json_8h.html" target="_top" xlink:title=" ">
<polygon fill="white" stroke="#666666" points="298.5,-382 221.5,-382 221.5,-363 298.5,-363 298.5,-382"/>
<text text-anchor="middle" x="260" y="-370" font-family="Helvetica,sans-Serif" font-size="10.00">ccf/ds/json.h</text>
</a>
</g>
</g>
<!-- Node2&#45;&gt;Node3 -->
<g id="edge2" class="edge">
<title>Node2&#45;&gt;Node3</title>
<path fill="none" stroke="#63b8ff" d="M208.9,-527.74C217.36,-502.2 242.13,-427.43 253.79,-392.23"/>
<polygon fill="#63b8ff" stroke="#63b8ff" points="257.26,-392.9 257.08,-382.31 250.62,-390.7 257.26,-392.9"/>
</g>
<!-- Node10 -->
<g id="node10" class="node">
<title>Node10</title>
<g id="a_node10"><a xlink:title=" ">
<polygon fill="#e0e0e0" stroke="#999999" points="440,-189.5 398,-189.5 398,-170.5 440,-170.5 440,-189.5"/>
<text text-anchor="middle" x="419" y="-177.5" font-family="Helvetica,sans-Serif" font-size="10.00">array</text>
</a>
</g>
</g>
<!-- Node2&#45;&gt;Node10 -->
<g id="edge82" class="edge">
<title>Node2&#45;&gt;Node10</title>
<path fill="none" stroke="#63b8ff" d="M262.82,-527.98C317.52,-516.17 392,-488.99 392,-428.5 392,-428.5 392,-428.5 392,-311 392,-270.44 404.76,-224.22 412.73,-199.28"/>
<polygon fill="#63b8ff" stroke="#63b8ff" points="416.09,-200.29 415.9,-189.7 409.44,-198.09 416.09,-200.29"/>
</g>
<!-- Node15 -->
<g id="node15" class="node">
<title>Node15</title>
<g id="a_node15"><a xlink:title=" ">
<polygon fill="#e0e0e0" stroke="#999999" points="339.5,-74 260.5,-74 260.5,-55 339.5,-55 339.5,-74"/>
<text text-anchor="middle" x="300" y="-62" font-family="Helvetica,sans-Serif" font-size="10.00">fmt/format.h</text>
</a>
</g>
</g>
<!-- Node2&#45;&gt;Node15 -->
<g id="edge84" class="edge">
<title>Node2&#45;&gt;Node15</title>
<path fill="none" stroke="#63b8ff" d="M197.44,-527.83C181.31,-510.52 148,-469.79 148,-428.5 148,-428.5 148,-428.5 148,-179 148,-123.92 212.86,-92.37 257.84,-77.11"/>
<polygon fill="#63b8ff" stroke="#63b8ff" points="258.96,-80.43 267.39,-74.01 256.8,-73.77 258.96,-80.43"/>
</g>
<!-- Node18 -->
<g id="node18" class="node">
<title>Node18</title>
<g id="a_node18"><a xlink:href="service_2map_8h.html" target="_top" xlink:title=" ">
<polygon fill="white" stroke="#666666" points="1004.5,-492 901.5,-492 901.5,-473 1004.5,-473 1004.5,-492"/>
<text text-anchor="middle" x="953" y="-480" font-family="Helvetica,sans-Serif" font-size="10.00">ccf/service/map.h</text>
</a>
</g>
</g>
<!-- Node2&#45;&gt;Node18 -->
<g id="edge20" class="edge">
<title>Node2&#45;&gt;Node18</title>
<path fill="none" stroke="#63b8ff" d="M276.28,-531.51C421.58,-521.2 753,-497.69 890.96,-487.9"/>
<polygon fill="#63b8ff" stroke="#63b8ff" points="891.61,-491.36 901.34,-487.17 891.11,-484.38 891.61,-491.36"/>
</g>
<!-- Node45 -->
<g id="node45" class="node">
<title>Node45</title>
<g id="a_node45"><a xlink:title=" ">
<polygon fill="#e0e0e0" stroke="#999999" points="40,-189.5 0,-189.5 0,-170.5 40,-170.5 40,-189.5"/>
<text text-anchor="middle" x="20" y="-177.5" font-family="Helvetica,sans-Serif" font-size="10.00">span</text>
</a>
</g>
</g>
<!-- Node2&#45;&gt;Node45 -->
<g id="edge83" class="edge">
<title>Node2&#45;&gt;Node45</title>
<path fill="none" stroke="#63b8ff" d="M179.58,-527.87C127.37,-508.98 16,-458.68 16,-373.5 16,-373.5 16,-373.5 16,-311 16,-271.43 17.87,-225.12 19.06,-199.83"/>
<polygon fill="#63b8ff" stroke="#63b8ff" points="22.57,-199.67 19.56,-189.51 15.58,-199.33 22.57,-199.67"/>
</g>
<!-- Node4 -->
<g id="node4" class="node">
<title>Node4</title>
<g id="a_node4"><a xlink:href="include_2ccf_2crypto_2base64_8h.html" target="_top" xlink:title=" ">
<polygon fill="white" stroke="#666666" points="288,-255.5 176,-255.5 176,-236.5 288,-236.5 288,-255.5"/>
<text text-anchor="middle" x="232" y="-243.5" font-family="Helvetica,sans-Serif" font-size="10.00">ccf/crypto/base64.h</text>
</a>
</g>
</g>
<!-- Node3&#45;&gt;Node4 -->
<g id="edge3" class="edge">
<title>Node3&#45;&gt;Node4</title>
<path fill="none" stroke="#63b8ff" d="M249.56,-362.87C240.58,-354.7 228.26,-341.55 223,-327 215.67,-306.73 220.44,-281.85 225.39,-265.27"/>
<polygon fill="#63b8ff" stroke="#63b8ff" points="228.74,-266.3 228.54,-255.7 222.09,-264.11 228.74,-266.3"/>
</g>
<!-- Node7 -->
<g id="node7" class="node">
<title>Node7</title>
<g id="a_node7"><a xlink:href="include_2ccf_2ds_2json__schema_8h.html" target="_top" xlink:title=" ">
<polygon fill="white" stroke="#666666" points="571.5,-321.5 450.5,-321.5 450.5,-302.5 571.5,-302.5 571.5,-321.5"/>
<text text-anchor="middle" x="511" y="-309.5" font-family="Helvetica,sans-Serif" font-size="10.00">ccf/ds/json_schema.h</text>
</a>
</g>
</g>
<!-- Node3&#45;&gt;Node7 -->
<g id="edge6" class="edge">
<title>Node3&#45;&gt;Node7</title>
<path fill="none" stroke="#63b8ff" d="M296.5,-362.99C340.93,-352.64 416.01,-335.14 464.53,-323.83"/>
<polygon fill="#63b8ff" stroke="#63b8ff" points="465.51,-327.2 474.46,-321.52 463.92,-320.38 465.51,-327.2"/>
</g>
<!-- Node3&#45;&gt;Node15 -->
<g id="edge18" class="edge">
<title>Node3&#45;&gt;Node15</title>
<path fill="none" stroke="#63b8ff" d="M270.4,-362.85C279.37,-354.68 291.67,-341.53 297,-327 299.08,-321.34 298.9,-116.03 299,-110 299.13,-101.49 299.34,-92.07 299.53,-84.1"/>
<polygon fill="#63b8ff" stroke="#63b8ff" points="303.03,-84.11 299.77,-74.03 296.03,-83.94 303.03,-84.11"/>
</g>
<!-- Node17 -->
<g id="node17" class="node">
<title>Node17</title>
<g id="a_node17"><a xlink:title=" ">
<polygon fill="#e0e0e0" stroke="#999999" points="288,-321.5 232,-321.5 232,-302.5 288,-302.5 288,-321.5"/>
<text text-anchor="middle" x="260" y="-309.5" font-family="Helvetica,sans-Serif" font-size="10.00">sstream</text>
</a>
</g>
</g>
<!-- Node3&#45;&gt;Node17 -->
<g id="edge19" class="edge">
<title>Node3&#45;&gt;Node17</title>
<path fill="none" stroke="#63b8ff" d="M260,-362.87C260,-354.75 260,-342.31 260,-331.89"/>
<polygon fill="#63b8ff" stroke="#63b8ff" points="263.5,-331.67 260,-321.67 256.5,-331.67 263.5,-331.67"/>
</g>
<!-- Node5 -->
<g id="node5" class="node">
<title>Node5</title>
<g id="a_node5"><a xlink:title=" ">
<polygon fill="#e0e0e0" stroke="#999999" points="380,-189.5 336,-189.5 336,-170.5 380,-170.5 380,-189.5"/>
<text text-anchor="middle" x="358" y="-177.5" font-family="Helvetica,sans-Serif" font-size="10.00">string</text>
</a>
</g>
</g>
<!-- Node4&#45;&gt;Node5 -->
<g id="edge4" class="edge">
<title>Node4&#45;&gt;Node5</title>
<path fill="none" stroke="#63b8ff" d="M248.99,-236.37C270.22,-225.59 306.78,-207.02 331.65,-194.38"/>
<polygon fill="#63b8ff" stroke="#63b8ff" points="333.54,-197.35 340.87,-189.7 330.37,-191.11 333.54,-197.35"/>
</g>
<!-- Node6 -->
<g id="node6" class="node">
<title>Node6</title>
<g id="a_node6"><a xlink:title=" ">
<polygon fill="#e0e0e0" stroke="#999999" points="460.5,-19 413.5,-19 413.5,0 460.5,0 460.5,-19"/>
<text text-anchor="middle" x="437" y="-7" font-family="Helvetica,sans-Serif" font-size="10.00">vector</text>
</a>
</g>
</g>
<!-- Node4&#45;&gt;Node6 -->
<g id="edge5" class="edge">
<title>Node4&#45;&gt;Node6</title>
<path fill="none" stroke="#63b8ff" d="M229.8,-236.48C222.76,-207.12 203.9,-108.94 251,-55 270.74,-32.4 355.32,-19.53 403.34,-13.92"/>
<polygon fill="#63b8ff" stroke="#63b8ff" points="403.74,-17.39 413.28,-12.8 402.95,-10.44 403.74,-17.39"/>
</g>
<!-- Node8 -->
<g id="node8" class="node">
<title>Node8</title>
<g id="a_node8"><a xlink:href="nonstd_8h.html" target="_top" xlink:title=" ">
<polygon fill="white" stroke="#666666" points="752,-255.5 662,-255.5 662,-236.5 752,-236.5 752,-255.5"/>
<text text-anchor="middle" x="707" y="-243.5" font-family="Helvetica,sans-Serif" font-size="10.00">ccf/ds/nonstd.h</text>
</a>
</g>
</g>
<!-- Node7&#45;&gt;Node8 -->
<g id="edge7" class="edge">
<title>Node7&#45;&gt;Node8</title>
<path fill="none" stroke="#63b8ff" d="M537.43,-302.37C571.87,-291.12 632.22,-271.42 670.87,-258.8"/>
<polygon fill="#63b8ff" stroke="#63b8ff" points="672.25,-262.03 680.67,-255.6 670.08,-255.37 672.25,-262.03"/>
</g>
<!-- Node14 -->
<g id="node14" class="node">
<title>Node14</title>
<g id="a_node14"><a xlink:title=" ">
<polygon fill="#e0e0e0" stroke="#999999" points="918,-189.5 862,-189.5 862,-170.5 918,-170.5 918,-189.5"/>
<text text-anchor="middle" x="890" y="-177.5" font-family="Helvetica,sans-Serif" font-size="10.00">optional</text>
</a>
</g>
</g>
<!-- Node7&#45;&gt;Node14 -->
<g id="edge15" class="edge">
<title>Node7&#45;&gt;Node14</title>
<path fill="none" stroke="#63b8ff" d="M555.83,-302.46C625.16,-289.2 751.48,-264.76 761,-261 803.13,-244.36 846.84,-214 871.02,-195.84"/>
<polygon fill="#63b8ff" stroke="#63b8ff" points="873.17,-198.6 879,-189.75 868.93,-193.04 873.17,-198.6"/>
</g>
<!-- Node7&#45;&gt;Node15 -->
<g id="edge16" class="edge">
<title>Node7&#45;&gt;Node15</title>
<path fill="none" stroke="#63b8ff" d="M483.02,-302.39C440.97,-287.83 362.63,-253.99 327,-195 305.8,-159.89 301.04,-110.75 300.1,-84.24"/>
<polygon fill="#63b8ff" stroke="#63b8ff" points="303.59,-84 299.89,-74.07 296.59,-84.14 303.59,-84"/>
</g>
<!-- Node16 -->
<g id="node16" class="node">
<title>Node16</title>
<g id="a_node16"><a xlink:title=" ">
<polygon fill="#e0e0e0" stroke="#999999" points="644,-255.5 534,-255.5 534,-236.5 644,-236.5 644,-255.5"/>
<text text-anchor="middle" x="589" y="-243.5" font-family="Helvetica,sans-Serif" font-size="10.00">nlohmann/json.hpp</text>
</a>
</g>
</g>
<!-- Node7&#45;&gt;Node16 -->
<g id="edge17" class="edge">
<title>Node7&#45;&gt;Node16</title>
<path fill="none" stroke="#63b8ff" d="M521.52,-302.37C534.08,-292.06 555.31,-274.65 570.6,-262.09"/>
<polygon fill="#63b8ff" stroke="#63b8ff" points="572.89,-264.75 578.4,-255.7 568.45,-259.34 572.89,-264.75"/>
</g>
<!-- Node8&#45;&gt;Node5 -->
<g id="edge11" class="edge">
<title>Node8&#45;&gt;Node5</title>
<path fill="none" stroke="#63b8ff" d="M676.59,-236.44C668.93,-234.48 660.7,-232.52 653,-231 536.82,-208.1 502.81,-227.71 389,-195 387.36,-194.53 385.7,-193.99 384.04,-193.39"/>
<polygon fill="#63b8ff" stroke="#63b8ff" points="385.3,-190.13 374.72,-189.61 382.67,-196.62 385.3,-190.13"/>
</g>
<!-- Node8&#45;&gt;Node6 -->
<g id="edge14" class="edge">
<title>Node8&#45;&gt;Node6</title>
<path fill="none" stroke="#63b8ff" d="M674.87,-236.48C623.65,-222.86 528.92,-197.43 526,-195 472.55,-150.4 448.8,-66.13 440.59,-28.94"/>
<polygon fill="#63b8ff" stroke="#63b8ff" points="443.98,-28.08 438.52,-19 437.13,-29.5 443.98,-28.08"/>
</g>
<!-- Node9 -->
<g id="node9" class="node">
<title>Node9</title>
<g id="a_node9"><a xlink:title=" ">
<polygon fill="#e0e0e0" stroke="#999999" points="844,-189.5 780,-189.5 780,-170.5 844,-170.5 844,-189.5"/>
<text text-anchor="middle" x="812" y="-177.5" font-family="Helvetica,sans-Serif" font-size="10.00">algorithm</text>
</a>
</g>
</g>
<!-- Node8&#45;&gt;Node9 -->
<g id="edge8" class="edge">
<title>Node8&#45;&gt;Node9</title>
<path fill="none" stroke="#63b8ff" d="M721.16,-236.37C738.54,-225.78 768.24,-207.67 788.93,-195.06"/>
<polygon fill="#63b8ff" stroke="#63b8ff" points="791.01,-197.89 797.73,-189.7 787.37,-191.92 791.01,-197.89"/>
</g>
<!-- Node8&#45;&gt;Node10 -->
<g id="edge9" class="edge">
<title>Node8&#45;&gt;Node10</title>
<path fill="none" stroke="#63b8ff" d="M675.69,-236.46C668.27,-234.55 660.38,-232.62 653,-231 565.21,-211.71 540.39,-219.82 454,-195 452.07,-194.44 450.09,-193.82 448.11,-193.15"/>
<polygon fill="#63b8ff" stroke="#63b8ff" points="448.97,-189.74 438.38,-189.56 446.55,-196.3 448.97,-189.74"/>
</g>
<!-- Node11 -->
<g id="node11" class="node">
<title>Node11</title>
<g id="a_node11"><a xlink:title=" ">
<polygon fill="#e0e0e0" stroke="#999999" points="583.5,-189.5 534.5,-189.5 534.5,-170.5 583.5,-170.5 583.5,-189.5"/>
<text text-anchor="middle" x="559" y="-177.5" font-family="Helvetica,sans-Serif" font-size="10.00">cctype</text>
</a>
</g>
</g>
<!-- Node8&#45;&gt;Node11 -->
<g id="edge10" class="edge">
<title>Node8&#45;&gt;Node11</title>
<path fill="none" stroke="#63b8ff" d="M687.04,-236.37C661.66,-225.39 617.64,-206.36 588.41,-193.72"/>
<polygon fill="#63b8ff" stroke="#63b8ff" points="589.68,-190.46 579.12,-189.7 586.91,-196.88 589.68,-190.46"/>
</g>
<!-- Node12 -->
<g id="node12" class="node">
<title>Node12</title>
<g id="a_node12"><a xlink:title=" ">
<polygon fill="#e0e0e0" stroke="#999999" points="674.5,-189.5 601.5,-189.5 601.5,-170.5 674.5,-170.5 674.5,-189.5"/>
<text text-anchor="middle" x="638" y="-177.5" font-family="Helvetica,sans-Serif" font-size="10.00">string_view</text>
</a>
</g>
</g>
<!-- Node8&#45;&gt;Node12 -->
<g id="edge12" class="edge">
<title>Node8&#45;&gt;Node12</title>
<path fill="none" stroke="#63b8ff" d="M697.69,-236.37C686.85,-226.31 668.7,-209.48 655.26,-197.01"/>
<polygon fill="#63b8ff" stroke="#63b8ff" points="657.31,-194.14 647.6,-189.91 652.55,-199.27 657.31,-194.14"/>
</g>
<!-- Node13 -->
<g id="node13" class="node">
<title>Node13</title>
<g id="a_node13"><a xlink:title=" ">
<polygon fill="#e0e0e0" stroke="#999999" points="761.5,-189.5 692.5,-189.5 692.5,-170.5 761.5,-170.5 761.5,-189.5"/>
<text text-anchor="middle" x="727" y="-177.5" font-family="Helvetica,sans-Serif" font-size="10.00">type_traits</text>
</a>
</g>
</g>
<!-- Node8&#45;&gt;Node13 -->
<g id="edge13" class="edge">
<title>Node8&#45;&gt;Node13</title>
<path fill="none" stroke="#63b8ff" d="M709.7,-236.37C712.63,-226.97 717.42,-211.67 721.21,-199.53"/>
<polygon fill="#63b8ff" stroke="#63b8ff" points="724.57,-200.49 724.22,-189.91 717.89,-198.41 724.57,-200.49"/>
</g>
<!-- Node19 -->
<g id="node19" class="node">
<title>Node19</title>
<g id="a_node19"><a xlink:href="kv_2map_8h.html" target="_top" xlink:title=" ">
<polygon fill="white" stroke="#666666" points="959,-437 879,-437 879,-418 959,-418 959,-437"/>
<text text-anchor="middle" x="919" y="-425" font-family="Helvetica,sans-Serif" font-size="10.00">ccf/kv/map.h</text>
</a>
</g>
</g>
<!-- Node18&#45;&gt;Node19 -->
<g id="edge21" class="edge">
<title>Node18&#45;&gt;Node19</title>
<path fill="none" stroke="#63b8ff" d="M947.39,-472.75C942.68,-465.42 935.83,-454.73 930.03,-445.7"/>
<polygon fill="#63b8ff" stroke="#63b8ff" points="932.86,-443.62 924.51,-437.09 926.96,-447.4 932.86,-443.62"/>
</g>
<!-- Node40 -->
<g id="node40" class="node">
<title>Node40</title>
<g id="a_node40"><a xlink:href="set_8h.html" target="_top" xlink:title=" ">
<polygon fill="white" stroke="#666666" points="1186.5,-382 1113.5,-382 1113.5,-363 1186.5,-363 1186.5,-382"/>
<text text-anchor="middle" x="1150" y="-370" font-family="Helvetica,sans-Serif" font-size="10.00">ccf/kv/set.h</text>
</a>
</g>
</g>
<!-- Node18&#45;&gt;Node40 -->
<g id="edge63" class="edge">
<title>Node18&#45;&gt;Node40</title>
<path fill="none" stroke="#63b8ff" d="M968.79,-472.84C1003.09,-454.04 1084.64,-409.33 1125.61,-386.87"/>
<polygon fill="#63b8ff" stroke="#63b8ff" points="1127.32,-389.92 1134.41,-382.05 1123.96,-383.79 1127.32,-389.92"/>
</g>
<!-- Node43 -->
<g id="node43" class="node">
<title>Node43</title>
<g id="a_node43"><a xlink:href="value_8h.html" target="_top" xlink:title=" ">
<polygon fill="white" stroke="#666666" points="1095.5,-382 1010.5,-382 1010.5,-363 1095.5,-363 1095.5,-382"/>
<text text-anchor="middle" x="1053" y="-370" font-family="Helvetica,sans-Serif" font-size="10.00">ccf/kv/value.h</text>
</a>
</g>
</g>
<!-- Node18&#45;&gt;Node43 -->
<g id="edge73" class="edge">
<title>Node18&#45;&gt;Node43</title>
<path fill="none" stroke="#63b8ff" d="M961.18,-472.66C977.97,-454.54 1016.51,-412.91 1037.93,-389.77"/>
<polygon fill="#63b8ff" stroke="#63b8ff" points="1040.76,-391.87 1044.98,-382.16 1035.62,-387.12 1040.76,-391.87"/>
</g>
<!-- Node20 -->
<g id="node20" class="node">
<title>Node20</title>
<g id="a_node20"><a xlink:href="get__name_8h.html" target="_top" xlink:title=" ">
<polygon fill="white" stroke="#666666" points="735.5,-321.5 628.5,-321.5 628.5,-302.5 735.5,-302.5 735.5,-321.5"/>
<text text-anchor="middle" x="682" y="-309.5" font-family="Helvetica,sans-Serif" font-size="10.00">ccf/kv/get_name.h</text>
</a>
</g>
</g>
<!-- Node19&#45;&gt;Node20 -->
<g id="edge22" class="edge">
<title>Node19&#45;&gt;Node20</title>
<path fill="none" stroke="#63b8ff" d="M878.76,-421.07C844.45,-415.17 794.69,-403.56 756,-382 731.66,-368.43 709.07,-345.19 695.41,-329.47"/>
<polygon fill="#63b8ff" stroke="#63b8ff" points="697.91,-327 688.78,-321.62 692.56,-331.52 697.91,-327"/>
</g>
<!-- Node21 -->
<g id="node21" class="node">
<title>Node21</title>
<g id="a_node21"><a xlink:href="include_2ccf_2kv_2hooks_8h.html" target="_top" xlink:title=" ">
<polygon fill="white" stroke="#666666" points="1492.5,-189.5 1405.5,-189.5 1405.5,-170.5 1492.5,-170.5 1492.5,-189.5"/>
<text text-anchor="middle" x="1449" y="-177.5" font-family="Helvetica,sans-Serif" font-size="10.00">ccf/kv/hooks.h</text>
</a>
</g>
</g>
<!-- Node19&#45;&gt;Node21 -->
<g id="edge24" class="edge">
<title>Node19&#45;&gt;Node21</title>
<path fill="none" stroke="#63b8ff" d="M959.4,-425.63C1079.04,-422.16 1427.8,-405.4 1503,-327 1532.66,-296.07 1530.64,-269.59 1512,-231 1504.5,-215.47 1489.57,-203.29 1476.13,-194.84"/>
<polygon fill="#63b8ff" stroke="#63b8ff" points="1477.57,-191.62 1467.17,-189.59 1474.03,-197.66 1477.57,-191.62"/>
</g>
<!-- Node25 -->
<g id="node25" class="node">
<title>Node25</title>
<g id="a_node25"><a xlink:href="map__diff_8h.html" target="_top" xlink:title=" ">
<polygon fill="white" stroke="#666666" points="865.5,-382 764.5,-382 764.5,-363 865.5,-363 865.5,-382"/>
<text text-anchor="middle" x="815" y="-370" font-family="Helvetica,sans-Serif" font-size="10.00">ccf/kv/map_diff.h</text>
</a>
</g>
</g>
<!-- Node19&#45;&gt;Node25 -->
<g id="edge28" class="edge">
<title>Node19&#45;&gt;Node25</title>
<path fill="none" stroke="#63b8ff" d="M902.29,-417.98C885.79,-409.57 860.3,-396.59 841.12,-386.81"/>
<polygon fill="#63b8ff" stroke="#63b8ff" points="842.51,-383.59 832.01,-382.17 839.33,-389.83 842.51,-383.59"/>
</g>
<!-- Node34 -->
<g id="node34" class="node">
<title>Node34</title>
<g id="a_node34"><a xlink:href="untyped_8h.html" target="_top" xlink:title=" ">
<polygon fill="white" stroke="#666666" points="1263,-255.5 1165,-255.5 1165,-236.5 1263,-236.5 1263,-255.5"/>
<text text-anchor="middle" x="1214" y="-243.5" font-family="Helvetica,sans-Serif" font-size="10.00">ccf/kv/untyped.h</text>
</a>
</g>
</g>
<!-- Node19&#45;&gt;Node34 -->
<g id="edge62" class="edge">
<title>Node19&#45;&gt;Node34</title>
<path fill="none" stroke="#63b8ff" d="M915.58,-417.97C907.07,-395.21 887.74,-332.36 918,-297 951.63,-257.69 1097.12,-270.37 1148,-261 1153.68,-259.95 1159.63,-258.79 1165.52,-257.59"/>
<polygon fill="#63b8ff" stroke="#63b8ff" points="1166.25,-261.02 1175.33,-255.57 1164.83,-254.16 1166.25,-261.02"/>
</g>
<!-- Node36 -->
<g id="node36" class="node">
<title>Node36</title>
<g id="a_node36"><a xlink:href="map__handle_8h.html" target="_top" xlink:title=" ">
<polygon fill="white" stroke="#666666" points="672,-382 554,-382 554,-363 672,-363 672,-382"/>
<text text-anchor="middle" x="613" y="-370" font-family="Helvetica,sans-Serif" font-size="10.00">ccf/kv/map_handle.h</text>
</a>
</g>
</g>
<!-- Node19&#45;&gt;Node36 -->
<g id="edge48" class="edge">
<title>Node19&#45;&gt;Node36</title>
<path fill="none" stroke="#63b8ff" d="M879,-419.57C826.21,-410.43 732.87,-394.26 671.98,-383.71"/>
<polygon fill="#63b8ff" stroke="#63b8ff" points="672.57,-380.27 662.12,-382.01 671.38,-387.16 672.57,-380.27"/>
</g>
<!-- Node38 -->
<g id="node38" class="node">
<title>Node38</title>
<g id="a_node38"><a xlink:href="blit__serialiser_8h.html" target="_top" xlink:title=" ">
<polygon fill="white" stroke="#666666" points="1181.5,-327 1082.5,-327 1082.5,-297 1181.5,-297 1181.5,-327"/>
<text text-anchor="start" x="1090.5" y="-315" font-family="Helvetica,sans-Serif" font-size="10.00">ccf/kv/serialisers</text>
<text text-anchor="middle" x="1132" y="-304" font-family="Helvetica,sans-Serif" font-size="10.00">/blit_serialiser.h</text>
</a>
</g>
</g>
<!-- Node19&#45;&gt;Node38 -->
<g id="edge56" class="edge">
<title>Node19&#45;&gt;Node38</title>
<path fill="none" stroke="#63b8ff" d="M928.57,-417.69C943.39,-404.42 973.18,-379.12 1002,-363 1025.37,-349.92 1052.85,-338.8 1076.51,-330.4"/>
<polygon fill="#63b8ff" stroke="#63b8ff" points="1077.75,-333.67 1086.05,-327.08 1075.45,-327.06 1077.75,-333.67"/>
</g>
<!-- Node39 -->
<g id="node39" class="node">
<title>Node39</title>
<g id="a_node39"><a xlink:href="json__serialiser_8h.html" target="_top" xlink:title=" ">
<polygon fill="white" stroke="#666666" points="1025.5,-327 926.5,-327 926.5,-297 1025.5,-297 1025.5,-327"/>
<text text-anchor="start" x="934.5" y="-315" font-family="Helvetica,sans-Serif" font-size="10.00">ccf/kv/serialisers</text>
<text text-anchor="middle" x="976" y="-304" font-family="Helvetica,sans-Serif" font-size="10.00">/json_serialiser.h</text>
</a>
</g>
</g>
<!-- Node19&#45;&gt;Node39 -->
<g id="edge59" class="edge">
<title>Node19&#45;&gt;Node39</title>
<path fill="none" stroke="#63b8ff" d="M923.28,-417.97C931.92,-400.78 951.66,-361.47 964.38,-336.13"/>
<polygon fill="#63b8ff" stroke="#63b8ff" points="967.52,-337.69 968.88,-327.18 961.26,-334.55 967.52,-337.69"/>
</g>
<!-- Node20&#45;&gt;Node5 -->
<g id="edge23" class="edge">
<title>Node20&#45;&gt;Node5</title>
<path fill="none" stroke="#63b8ff" d="M629.51,-302.47C572.16,-292.62 484.39,-275.88 454,-261 421.22,-244.95 390.06,-215.45 372.55,-197.1"/>
<polygon fill="#63b8ff" stroke="#63b8ff" points="374.89,-194.48 365.51,-189.55 369.77,-199.25 374.89,-194.48"/>
</g>
<!-- Node22 -->
<g id="node22" class="node">
<title>Node22</title>
<g id="a_node22"><a xlink:href="version_8h.html" target="_top" xlink:title=" ">
<polygon fill="white" stroke="#666666" points="1125,-129 1031,-129 1031,-110 1125,-110 1125,-129"/>
<text text-anchor="middle" x="1078" y="-117" font-family="Helvetica,sans-Serif" font-size="10.00">ccf/kv/version.h</text>
</a>
</g>
</g>
<!-- Node21&#45;&gt;Node22 -->
<g id="edge25" class="edge">
<title>Node21&#45;&gt;Node22</title>
<path fill="none" stroke="#63b8ff" d="M1405.22,-170.43C1395.3,-168.57 1384.8,-166.66 1375,-165 1369.12,-164 1219.78,-141.68 1135.16,-129.04"/>
<polygon fill="#63b8ff" stroke="#63b8ff" points="1135.58,-125.56 1125.18,-127.55 1134.55,-132.48 1135.58,-125.56"/>
</g>
<!-- Node23 -->
<g id="node23" class="node">
<title>Node23</title>
<g id="a_node23"><a xlink:title=" ">
<polygon fill="#e0e0e0" stroke="#999999" points="1208.5,-129 1143.5,-129 1143.5,-110 1208.5,-110 1208.5,-129"/>
<text text-anchor="middle" x="1176" y="-117" font-family="Helvetica,sans-Serif" font-size="10.00">functional</text>
</a>
</g>
</g>
<!-- Node21&#45;&gt;Node23 -->
<g id="edge26" class="edge">
<title>Node21&#45;&gt;Node23</title>
<path fill="none" stroke="#63b8ff" d="M1409.3,-170.49C1358.56,-159.62 1271.05,-140.87 1218.84,-129.68"/>
<polygon fill="#63b8ff" stroke="#63b8ff" points="1219.4,-126.22 1208.89,-127.55 1217.93,-133.07 1219.4,-126.22"/>
</g>
<!-- Node24 -->
<g id="node24" class="node">
<title>Node24</title>
<g id="a_node24"><a xlink:title=" ">
<polygon fill="#e0e0e0" stroke="#999999" points="1478,-129 1420,-129 1420,-110 1478,-110 1478,-129"/>
<text text-anchor="middle" x="1449" y="-117" font-family="Helvetica,sans-Serif" font-size="10.00">memory</text>
</a>
</g>
</g>
<!-- Node21&#45;&gt;Node24 -->
<g id="edge27" class="edge">
<title>Node21&#45;&gt;Node24</title>
<path fill="none" stroke="#63b8ff" d="M1449,-170.37C1449,-162.25 1449,-149.81 1449,-139.39"/>
<polygon fill="#63b8ff" stroke="#63b8ff" points="1452.5,-139.17 1449,-129.17 1445.5,-139.17 1452.5,-139.17"/>
</g>
<!-- Node26 -->
<g id="node26" class="node">
<title>Node26</title>
<g id="a_node26"><a xlink:href="untyped__map__diff_8h.html" target="_top" xlink:title=" ">
<polygon fill="white" stroke="#666666" points="870,-327 754,-327 754,-297 870,-297 870,-327"/>
<text text-anchor="start" x="762" y="-315" font-family="Helvetica,sans-Serif" font-size="10.00">ccf/kv/untyped_map</text>
<text text-anchor="middle" x="812" y="-304" font-family="Helvetica,sans-Serif" font-size="10.00">_diff.h</text>
</a>
</g>
</g>
<!-- Node25&#45;&gt;Node26 -->
<g id="edge29" class="edge">
<title>Node25&#45;&gt;Node26</title>
<path fill="none" stroke="#63b8ff" d="M814.56,-362.87C814.21,-356.11 813.71,-346.35 813.24,-337.26"/>
<polygon fill="#63b8ff" stroke="#63b8ff" points="816.73,-336.92 812.72,-327.11 809.74,-337.28 816.73,-336.92"/>
</g>
<!-- Node26&#45;&gt;Node5 -->
<g id="edge47" class="edge">
<title>Node26&#45;&gt;Node5</title>
<path fill="none" stroke="#63b8ff" d="M753.94,-298.63C750.92,-298.06 747.93,-297.51 745,-297 633.13,-277.37 598.31,-300.97 492,-261 469.15,-252.41 466.84,-243.7 446,-231 424.98,-218.19 400.62,-204.43 382.87,-194.6"/>
<polygon fill="#63b8ff" stroke="#63b8ff" points="384.19,-191.33 373.75,-189.57 380.81,-197.46 384.19,-191.33"/>
</g>
<!-- Node26&#45;&gt;Node14 -->
<g id="edge46" class="edge">
<title>Node26&#45;&gt;Node14</title>
<path fill="none" stroke="#63b8ff" d="M820.5,-296.84C834.85,-272.92 863.86,-224.56 879.48,-198.53"/>
<polygon fill="#63b8ff" stroke="#63b8ff" points="882.61,-200.12 884.75,-189.75 876.6,-196.52 882.61,-200.12"/>
</g>
<!-- Node26&#45;&gt;Node22 -->
<g id="edge44" class="edge">
<title>Node26&#45;&gt;Node22</title>
<path fill="none" stroke="#63b8ff" d="M753.93,-298.7C750.91,-298.11 747.92,-297.54 745,-297 696.3,-287.93 557.08,-298.75 525,-261 514.29,-248.4 503.98,-188.51 526,-165 559.31,-129.44 886,-122.29 1020.55,-120.86"/>
<polygon fill="#63b8ff" stroke="#63b8ff" points="1020.7,-124.36 1030.66,-120.76 1020.63,-117.36 1020.7,-124.36"/>
</g>
<!-- Node26&#45;&gt;Node23 -->
<g id="edge45" class="edge">
<title>Node26&#45;&gt;Node23</title>
<path fill="none" stroke="#63b8ff" d="M870.28,-301.25C946.42,-288.35 1071.15,-266.59 1080,-261 1104.33,-245.64 1147.21,-172.32 1166.33,-138.13"/>
<polygon fill="#63b8ff" stroke="#63b8ff" points="1169.47,-139.68 1171.25,-129.24 1163.34,-136.29 1169.47,-139.68"/>
</g>
<!-- Node27 -->
<g id="node27" class="node">
<title>Node27</title>
<g id="a_node27"><a xlink:href="abstract__handle_8h.html" target="_top" xlink:title=" ">
<polygon fill="white" stroke="#666666" points="1072,-189.5 936,-189.5 936,-170.5 1072,-170.5 1072,-189.5"/>
<text text-anchor="middle" x="1004" y="-177.5" font-family="Helvetica,sans-Serif" font-size="10.00">ccf/kv/abstract_handle.h</text>
</a>
</g>
</g>
<!-- Node26&#45;&gt;Node27 -->
<g id="edge30" class="edge">
<title>Node26&#45;&gt;Node27</title>
<path fill="none" stroke="#63b8ff" d="M832.91,-296.84C869.65,-271.97 945.38,-220.69 982.52,-195.55"/>
<polygon fill="#63b8ff" stroke="#63b8ff" points="984.76,-198.25 991.08,-189.75 980.84,-192.46 984.76,-198.25"/>
</g>
<!-- Node28 -->
<g id="node28" class="node">
<title>Node28</title>
<g id="a_node28"><a xlink:href="serialised__entry_8h.html" target="_top" xlink:title=" ">
<polygon fill="white" stroke="#666666" points="1365.5,-195 1260.5,-195 1260.5,-165 1365.5,-165 1365.5,-195"/>
<text text-anchor="start" x="1268.5" y="-183" font-family="Helvetica,sans-Serif" font-size="10.00">ccf/kv/serialisers</text>
<text text-anchor="middle" x="1313" y="-172" font-family="Helvetica,sans-Serif" font-size="10.00">/serialised_entry.h</text>
</a>
</g>
</g>
<!-- Node26&#45;&gt;Node28 -->
<g id="edge31" class="edge">
<title>Node26&#45;&gt;Node28</title>
<path fill="none" stroke="#63b8ff" d="M870.13,-299.51C874.82,-298.64 879.48,-297.79 884,-297 985.47,-279.16 1017.42,-299.46 1113,-261 1134.62,-252.3 1135.11,-241.32 1156,-231 1185.84,-216.26 1220.99,-204.59 1250.45,-196.25"/>
<polygon fill="#63b8ff" stroke="#63b8ff" points="1251.51,-199.59 1260.21,-193.54 1249.64,-192.84 1251.51,-199.59"/>
</g>
<!-- Node26&#45;&gt;Node34 -->
<g id="edge39" class="edge">
<title>Node26&#45;&gt;Node34</title>
<path fill="none" stroke="#63b8ff" d="M870.11,-299.4C874.8,-298.56 879.48,-297.74 884,-297 1002.15,-277.56 1033.12,-282.01 1151,-261 1156.52,-260.02 1162.28,-258.88 1167.98,-257.7"/>
<polygon fill="#63b8ff" stroke="#63b8ff" points="1169.08,-261.04 1178.12,-255.52 1167.61,-254.2 1169.08,-261.04"/>
</g>
<!-- Node29 -->
<g id="node29" class="node">
<title>Node29</title>
<g id="a_node29"><a xlink:href="byte__vector_8h.html" target="_top" xlink:title=" ">
<polygon fill="white" stroke="#666666" points="1327,-129 1227,-129 1227,-110 1327,-110 1327,-129"/>
<text text-anchor="middle" x="1277" y="-117" font-family="Helvetica,sans-Serif" font-size="10.00">ccf/byte_vector.h</text>
</a>
</g>
</g>
<!-- Node28&#45;&gt;Node29 -->
<g id="edge32" class="edge">
<title>Node28&#45;&gt;Node29</title>
<path fill="none" stroke="#63b8ff" d="M1304.29,-164.84C1299.33,-156.78 1293.07,-146.62 1287.8,-138.06"/>
<polygon fill="#63b8ff" stroke="#63b8ff" points="1290.62,-135.95 1282.39,-129.27 1284.65,-139.62 1290.62,-135.95"/>
</g>
<!-- Node29&#45;&gt;Node15 -->
<g id="edge37" class="edge">
<title>Node29&#45;&gt;Node15</title>
<path fill="none" stroke="#63b8ff" d="M1226.83,-110.94C1223.84,-110.6 1220.88,-110.28 1218,-110 887.89,-78.29 488.72,-68.74 350.2,-66.27"/>
<polygon fill="#63b8ff" stroke="#63b8ff" points="349.97,-62.76 339.91,-66.09 349.85,-69.76 349.97,-62.76"/>
</g>
<!-- Node30 -->
<g id="node30" class="node">
<title>Node30</title>
<g id="a_node30"><a xlink:href="siphash_8h.html" target="_top" xlink:title=" ">
<polygon fill="white" stroke="#666666" points="868.5,-74 773.5,-74 773.5,-55 868.5,-55 868.5,-74"/>
<text text-anchor="middle" x="821" y="-62" font-family="Helvetica,sans-Serif" font-size="10.00">ccf/ds/siphash.h</text>
</a>
</g>
</g>
<!-- Node29&#45;&gt;Node30 -->
<g id="edge33" class="edge">
<title>Node29&#45;&gt;Node30</title>
<path fill="none" stroke="#63b8ff" d="M1226.8,-111.16C1223.83,-110.76 1220.87,-110.37 1218,-110 1097.52,-94.57 956.08,-79.43 878.74,-71.4"/>
<polygon fill="#63b8ff" stroke="#63b8ff" points="879.03,-67.91 868.72,-70.36 878.31,-74.87 879.03,-67.91"/>
</g>
<!-- Node33 -->
<g id="node33" class="node">
<title>Node33</title>
<g id="a_node33"><a xlink:title=" ">
<polygon fill="#e0e0e0" stroke="#999999" points="1351.5,-74 1202.5,-74 1202.5,-55 1351.5,-55 1351.5,-74"/>
<text text-anchor="middle" x="1277" y="-62" font-family="Helvetica,sans-Serif" font-size="10.00">small_vector/SmallVector.h</text>
</a>
</g>
</g>
<!-- Node29&#45;&gt;Node33 -->
<g id="edge38" class="edge">
<title>Node29&#45;&gt;Node33</title>
<path fill="none" stroke="#63b8ff" d="M1277,-109.75C1277,-102.8 1277,-92.85 1277,-84.13"/>
<polygon fill="#63b8ff" stroke="#63b8ff" points="1280.5,-84.09 1277,-74.09 1273.5,-84.09 1280.5,-84.09"/>
</g>
<!-- Node30&#45;&gt;Node6 -->
<g id="edge36" class="edge">
<title>Node30&#45;&gt;Node6</title>
<path fill="none" stroke="#63b8ff" d="M773.14,-56.89C694.33,-46.02 539.14,-24.6 470.74,-15.16"/>
<polygon fill="#63b8ff" stroke="#63b8ff" points="470.91,-11.65 460.53,-13.75 469.96,-18.58 470.91,-11.65"/>
</g>
<!-- Node31 -->
<g id="node31" class="node">
<title>Node31</title>
<g id="a_node31"><a xlink:title=" ">
<polygon fill="#e0e0e0" stroke="#999999" points="812.5,-19 759.5,-19 759.5,0 812.5,0 812.5,-19"/>
<text text-anchor="middle" x="786" y="-7" font-family="Helvetica,sans-Serif" font-size="10.00">cstddef</text>
</a>
</g>
</g>
<!-- Node30&#45;&gt;Node31 -->
<g id="edge34" class="edge">
<title>Node30&#45;&gt;Node31</title>
<path fill="none" stroke="#63b8ff" d="M815.22,-54.75C810.38,-47.42 803.32,-36.73 797.36,-27.7"/>
<polygon fill="#63b8ff" stroke="#63b8ff" points="800.1,-25.5 791.67,-19.09 794.26,-29.36 800.1,-25.5"/>
</g>
<!-- Node32 -->
<g id="node32" class="node">
<title>Node32</title>
<g id="a_node32"><a xlink:title=" ">
<polygon fill="#e0e0e0" stroke="#999999" points="881,-19 831,-19 831,0 881,0 881,-19"/>
<text text-anchor="middle" x="856" y="-7" font-family="Helvetica,sans-Serif" font-size="10.00">cstdint</text>
</a>
</g>
</g>
<!-- Node30&#45;&gt;Node32 -->
<g id="edge35" class="edge">
<title>Node30&#45;&gt;Node32</title>
<path fill="none" stroke="#63b8ff" d="M826.78,-54.75C831.62,-47.42 838.68,-36.73 844.64,-27.7"/>
<polygon fill="#63b8ff" stroke="#63b8ff" points="847.74,-29.36 850.33,-19.09 841.9,-25.5 847.74,-29.36"/>
</g>
<!-- Node34&#45;&gt;Node14 -->
<g id="edge43" class="edge">
<title>Node34&#45;&gt;Node14</title>
<path fill="none" stroke="#63b8ff" d="M1164.89,-239.32C1107.24,-231.99 1009.08,-217.46 927,-195 924.71,-194.37 922.36,-193.66 920.01,-192.89"/>
<polygon fill="#63b8ff" stroke="#63b8ff" points="921.11,-189.57 910.51,-189.55 918.78,-196.17 921.11,-189.57"/>
</g>
<!-- Node34&#45;&gt;Node21 -->
<g id="edge40" class="edge">
<title>Node34&#45;&gt;Node21</title>
<path fill="none" stroke="#63b8ff" d="M1245.69,-236.37C1287.6,-224.96 1361.51,-204.83 1407.73,-192.24"/>
<polygon fill="#63b8ff" stroke="#63b8ff" points="1408.71,-195.6 1417.43,-189.6 1406.87,-188.85 1408.71,-195.6"/>
</g>
<!-- Node34&#45;&gt;Node28 -->
<g id="edge41" class="edge">
<title>Node34&#45;&gt;Node28</title>
<path fill="none" stroke="#63b8ff" d="M1227.35,-236.37C1241.48,-227.24 1264.23,-212.53 1282.74,-200.56"/>
<polygon fill="#63b8ff" stroke="#63b8ff" points="1284.67,-203.48 1291.16,-195.12 1280.87,-197.61 1284.67,-203.48"/>
</g>
<!-- Node35 -->
<g id="node35" class="node">
<title>Node35</title>
<g id="a_node35"><a xlink:title=" ">
<polygon fill="#e0e0e0" stroke="#999999" points="1242,-189.5 1204,-189.5 1204,-170.5 1242,-170.5 1242,-189.5"/>
<text text-anchor="middle" x="1223" y="-177.5" font-family="Helvetica,sans-Serif" font-size="10.00">map</text>
</a>
</g>
</g>
<!-- Node34&#45;&gt;Node35 -->
<g id="edge42" class="edge">
<title>Node34&#45;&gt;Node35</title>
<path fill="none" stroke="#63b8ff" d="M1215.21,-236.37C1216.52,-227.07 1218.64,-211.98 1220.34,-199.9"/>
<polygon fill="#63b8ff" stroke="#63b8ff" points="1223.82,-200.3 1221.75,-189.91 1216.89,-199.32 1223.82,-200.3"/>
</g>
<!-- Node37 -->
<g id="node37" class="node">
<title>Node37</title>
<g id="a_node37"><a xlink:href="untyped__map__handle_8h.html" target="_top" xlink:title=" ">
<polygon fill="white" stroke="#666666" points="1071,-261 955,-261 955,-231 1071,-231 1071,-261"/>
<text text-anchor="start" x="963" y="-249" font-family="Helvetica,sans-Serif" font-size="10.00">ccf/kv/untyped_map</text>
<text text-anchor="middle" x="1013" y="-238" font-family="Helvetica,sans-Serif" font-size="10.00">_handle.h</text>
</a>
</g>
</g>
<!-- Node36&#45;&gt;Node37 -->
<g id="edge49" class="edge">
<title>Node36&#45;&gt;Node37</title>
<path fill="none" stroke="#63b8ff" d="M610.73,-362.73C607.29,-347.18 602.84,-314.74 620,-297 642.15,-274.11 838.09,-258.16 944.66,-251.1"/>
<polygon fill="#63b8ff" stroke="#63b8ff" points="944.93,-254.59 954.68,-250.44 944.48,-247.6 944.93,-254.59"/>
</g>
<!-- Node37&#45;&gt;Node5 -->
<g id="edge55" class="edge">
<title>Node37&#45;&gt;Node5</title>
<path fill="none" stroke="#63b8ff" d="M954.99,-241.49C810.63,-232.6 442.94,-208.89 389,-195 387.31,-194.56 385.6,-194.04 383.89,-193.46"/>
<polygon fill="#63b8ff" stroke="#63b8ff" points="384.93,-190.11 374.35,-189.65 382.33,-196.61 384.93,-190.11"/>
</g>
<!-- Node37&#45;&gt;Node14 -->
<g id="edge54" class="edge">
<title>Node37&#45;&gt;Node14</title>
<path fill="none" stroke="#63b8ff" d="M986.01,-230.95C965.01,-220.03 936.07,-204.97 915.47,-194.25"/>
<polygon fill="#63b8ff" stroke="#63b8ff" points="916.86,-191.03 906.37,-189.52 913.62,-197.24 916.86,-191.03"/>
</g>
<!-- Node37&#45;&gt;Node22 -->
<g id="edge52" class="edge">
<title>Node37&#45;&gt;Node22</title>
<path fill="none" stroke="#63b8ff" d="M1043.46,-230.94C1057.62,-222.66 1073.06,-210.69 1081,-195 1089.75,-177.71 1087.24,-155.17 1083.65,-139.43"/>
<polygon fill="#63b8ff" stroke="#63b8ff" points="1086.92,-138.12 1080.99,-129.35 1080.15,-139.91 1086.92,-138.12"/>
</g>
<!-- Node37&#45;&gt;Node23 -->
<g id="edge53" class="edge">
<title>Node37&#45;&gt;Node23</title>
<path fill="none" stroke="#63b8ff" d="M1040.06,-230.88C1057.01,-221.56 1078.98,-208.6 1097,-195 1120.83,-177.01 1145.42,-152.76 1160.7,-136.89"/>
<polygon fill="#63b8ff" stroke="#63b8ff" points="1163.44,-139.09 1167.79,-129.43 1158.36,-134.26 1163.44,-139.09"/>
</g>
<!-- Node37&#45;&gt;Node27 -->
<g id="edge50" class="edge">
<title>Node37&#45;&gt;Node27</title>
<path fill="none" stroke="#63b8ff" d="M1011,-230.8C1009.72,-221.7 1008.05,-209.79 1006.66,-199.9"/>
<polygon fill="#63b8ff" stroke="#63b8ff" points="1010.1,-199.26 1005.24,-189.84 1003.17,-200.23 1010.1,-199.26"/>
</g>
<!-- Node37&#45;&gt;Node28 -->
<g id="edge51" class="edge">
<title>Node37&#45;&gt;Node28</title>
<path fill="none" stroke="#63b8ff" d="M1071.25,-233.02C1117.21,-223.5 1183.2,-209.72 1250.34,-195.13"/>
<polygon fill="#63b8ff" stroke="#63b8ff" points="1251.22,-198.52 1260.25,-192.97 1249.73,-191.68 1251.22,-198.52"/>
</g>
<!-- Node38&#45;&gt;Node8 -->
<g id="edge57" class="edge">
<title>Node38&#45;&gt;Node8</title>
<path fill="none" stroke="#63b8ff" d="M1082.42,-303.53C1002.43,-291.49 845.5,-267.86 762.12,-255.3"/>
<polygon fill="#63b8ff" stroke="#63b8ff" points="762.49,-251.82 752.08,-253.79 761.45,-258.74 762.49,-251.82"/>
</g>
<!-- Node38&#45;&gt;Node28 -->
<g id="edge58" class="edge">
<title>Node38&#45;&gt;Node28</title>
<path fill="none" stroke="#63b8ff" d="M1181.84,-298.06C1231.48,-284.94 1300.91,-265.91 1305,-261 1317.73,-245.72 1318.77,-222.68 1317.19,-205.24"/>
<polygon fill="#63b8ff" stroke="#63b8ff" points="1320.65,-204.72 1315.94,-195.23 1313.7,-205.58 1320.65,-204.72"/>
</g>
<!-- Node39&#45;&gt;Node16 -->
<g id="edge61" class="edge">
<title>Node39&#45;&gt;Node16</title>
<path fill="none" stroke="#63b8ff" d="M926.21,-303.68C849.12,-292.28 704.39,-270.59 653,-261 647.55,-259.98 641.85,-258.85 636.2,-257.67"/>
<polygon fill="#63b8ff" stroke="#63b8ff" points="636.66,-254.19 626.15,-255.53 635.2,-261.04 636.66,-254.19"/>
</g>
<!-- Node39&#45;&gt;Node28 -->
<g id="edge60" class="edge">
<title>Node39&#45;&gt;Node28</title>
<path fill="none" stroke="#63b8ff" d="M1025.79,-303.77C1107.53,-291.75 1262.13,-268.23 1272,-261 1290.5,-247.44 1301.27,-223.09 1307.09,-204.8"/>
<polygon fill="#63b8ff" stroke="#63b8ff" points="1310.48,-205.69 1309.9,-195.11 1303.75,-203.74 1310.48,-205.69"/>
</g>
<!-- Node40&#45;&gt;Node20 -->
<g id="edge64" class="edge">
<title>Node40&#45;&gt;Node20</title>
<path fill="none" stroke="#63b8ff" d="M1113.21,-364.28C1110.43,-363.82 1107.68,-363.39 1105,-363 945.85,-340.06 903.77,-352.49 745,-327 739.12,-326.06 732.96,-324.9 726.9,-323.66"/>
<polygon fill="#63b8ff" stroke="#63b8ff" points="727.36,-320.18 716.85,-321.52 725.9,-327.03 727.36,-320.18"/>
</g>
<!-- Node40&#45;&gt;Node21 -->
<g id="edge65" class="edge">
<title>Node40&#45;&gt;Node21</title>
<path fill="none" stroke="#63b8ff" d="M1186.66,-371.55C1263.08,-370.87 1435.81,-365.06 1478,-327 1510.12,-298.03 1509.5,-271.38 1494,-231 1488.84,-217.54 1478.19,-205.44 1468.55,-196.51"/>
<polygon fill="#63b8ff" stroke="#63b8ff" points="1470.67,-193.72 1460.83,-189.8 1466.08,-199 1470.67,-193.72"/>
</g>
<!-- Node40&#45;&gt;Node34 -->
<g id="edge72" class="edge">
<title>Node40&#45;&gt;Node34</title>
<path fill="none" stroke="#63b8ff" d="M1186.62,-371.97C1261.03,-372.05 1425.85,-367.54 1461,-327 1469.73,-316.93 1469.44,-307.32 1461,-297 1449.12,-282.47 1342.23,-264.96 1273.01,-254.99"/>
<polygon fill="#63b8ff" stroke="#63b8ff" points="1273.48,-251.52 1263.09,-253.57 1272.49,-258.45 1273.48,-251.52"/>
</g>
<!-- Node40&#45;&gt;Node38 -->
<g id="edge66" class="edge">
<title>Node40&#45;&gt;Node38</title>
<path fill="none" stroke="#63b8ff" d="M1147.34,-362.87C1145.24,-356.03 1142.2,-346.14 1139.37,-336.97"/>
<polygon fill="#63b8ff" stroke="#63b8ff" points="1142.63,-335.64 1136.34,-327.11 1135.94,-337.7 1142.63,-335.64"/>
</g>
<!-- Node40&#45;&gt;Node39 -->
<g id="edge67" class="edge">
<title>Node40&#45;&gt;Node39</title>
<path fill="none" stroke="#63b8ff" d="M1124.7,-362.99C1099.33,-354.46 1059.54,-341.09 1027.5,-330.32"/>
<polygon fill="#63b8ff" stroke="#63b8ff" points="1028.43,-326.93 1017.83,-327.06 1026.2,-333.57 1028.43,-326.93"/>
</g>
<!-- Node41 -->
<g id="node41" class="node">
<title>Node41</title>
<g id="a_node41"><a xlink:href="set__handle_8h.html" target="_top" xlink:title=" ">
<polygon fill="white" stroke="#666666" points="1451.5,-321.5 1340.5,-321.5 1340.5,-302.5 1451.5,-302.5 1451.5,-321.5"/>
<text text-anchor="middle" x="1396" y="-309.5" font-family="Helvetica,sans-Serif" font-size="10.00">ccf/kv/set_handle.h</text>
</a>
</g>
</g>
<!-- Node40&#45;&gt;Node41 -->
<g id="edge68" class="edge">
<title>Node40&#45;&gt;Node41</title>
<path fill="none" stroke="#63b8ff" d="M1185.77,-362.99C1229.31,-352.64 1302.9,-335.14 1350.45,-323.83"/>
<polygon fill="#63b8ff" stroke="#63b8ff" points="1351.27,-327.24 1360.19,-321.52 1349.65,-320.43 1351.27,-327.24"/>
</g>
<!-- Node41&#45;&gt;Node37 -->
<g id="edge71" class="edge">
<title>Node41&#45;&gt;Node37</title>
<path fill="none" stroke="#63b8ff" d="M1358.85,-302.48C1350.07,-300.57 1340.72,-298.64 1332,-297 1245.84,-280.84 1145.9,-265.76 1081.18,-256.48"/>
<polygon fill="#63b8ff" stroke="#63b8ff" points="1081.49,-252.99 1071.1,-255.04 1080.5,-259.92 1081.49,-252.99"/>
</g>
<!-- Node42 -->
<g id="node42" class="node">
<title>Node42</title>
<g id="a_node42"><a xlink:href="unit_8h.html" target="_top" xlink:title=" ">
<polygon fill="white" stroke="#666666" points="1434.5,-255.5 1357.5,-255.5 1357.5,-236.5 1434.5,-236.5 1434.5,-255.5"/>
<text text-anchor="middle" x="1396" y="-243.5" font-family="Helvetica,sans-Serif" font-size="10.00">ccf/kv/unit.h</text>
</a>
</g>
</g>
<!-- Node41&#45;&gt;Node42 -->
<g id="edge69" class="edge">
<title>Node41&#45;&gt;Node42</title>
<path fill="none" stroke="#63b8ff" d="M1396,-302.37C1396,-293.16 1396,-278.29 1396,-266.27"/>
<polygon fill="#63b8ff" stroke="#63b8ff" points="1399.5,-265.91 1396,-255.91 1392.5,-265.91 1399.5,-265.91"/>
</g>
<!-- Node42&#45;&gt;Node28 -->
<g id="edge70" class="edge">
<title>Node42&#45;&gt;Node28</title>
<path fill="none" stroke="#63b8ff" d="M1384.81,-236.37C1373.23,-227.44 1354.74,-213.19 1339.43,-201.38"/>
<polygon fill="#63b8ff" stroke="#63b8ff" points="1341.36,-198.45 1331.31,-195.12 1337.09,-203.99 1341.36,-198.45"/>
</g>
<!-- Node43&#45;&gt;Node20 -->
<g id="edge74" class="edge">
<title>Node43&#45;&gt;Node20</title>
<path fill="none" stroke="#63b8ff" d="M1010.49,-366.39C950.92,-358.98 839.33,-344.27 745,-327 739.56,-326 733.87,-324.87 728.24,-323.69"/>
<polygon fill="#63b8ff" stroke="#63b8ff" points="728.73,-320.22 718.22,-321.54 727.26,-327.06 728.73,-320.22"/>
</g>
<!-- Node43&#45;&gt;Node21 -->
<g id="edge75" class="edge">
<title>Node43&#45;&gt;Node21</title>
<path fill="none" stroke="#63b8ff" d="M1095.54,-364.33C1098.74,-363.86 1101.92,-363.41 1105,-363 1144.41,-357.79 1434.34,-356.49 1461,-327 1493.04,-291.56 1471.6,-229.52 1457.91,-199"/>
<polygon fill="#63b8ff" stroke="#63b8ff" points="1460.92,-197.17 1453.49,-189.61 1454.58,-200.15 1460.92,-197.17"/>
</g>
<!-- Node43&#45;&gt;Node34 -->
<g id="edge78" class="edge">
<title>Node43&#45;&gt;Node34</title>
<path fill="none" stroke="#63b8ff" d="M1052.99,-362.92C1053.45,-347.66 1056.57,-315.66 1074,-297 1087.28,-282.78 1133.51,-267.96 1169.25,-258.18"/>
<polygon fill="#63b8ff" stroke="#63b8ff" points="1170.26,-261.53 1179.02,-255.56 1168.45,-254.77 1170.26,-261.53"/>
</g>
<!-- Node43&#45;&gt;Node38 -->
<g id="edge76" class="edge">
<title>Node43&#45;&gt;Node38</title>
<path fill="none" stroke="#63b8ff" d="M1064.66,-362.87C1075.18,-355.08 1091.06,-343.32 1104.76,-333.17"/>
<polygon fill="#63b8ff" stroke="#63b8ff" points="1106.99,-335.88 1112.94,-327.11 1102.82,-330.25 1106.99,-335.88"/>
</g>
<!-- Node43&#45;&gt;Node39 -->
<g id="edge77" class="edge">
<title>Node43&#45;&gt;Node39</title>
<path fill="none" stroke="#63b8ff" d="M1041.64,-362.87C1031.38,-355.08 1015.9,-343.32 1002.55,-333.17"/>
<polygon fill="#63b8ff" stroke="#63b8ff" points="1004.66,-330.38 994.58,-327.11 1000.42,-335.95 1004.66,-330.38"/>
</g>
<!-- Node44 -->
<g id="node44" class="node">
<title>Node44</title>
<g id="a_node44"><a xlink:href="value__handle_8h.html" target="_top" xlink:title=" ">
<polygon fill="white" stroke="#666666" points="1322.5,-321.5 1199.5,-321.5 1199.5,-302.5 1322.5,-302.5 1322.5,-321.5"/>
<text text-anchor="middle" x="1261" y="-309.5" font-family="Helvetica,sans-Serif" font-size="10.00">ccf/kv/value_handle.h</text>
</a>
</g>
</g>
<!-- Node43&#45;&gt;Node44 -->
<g id="edge79" class="edge">
<title>Node43&#45;&gt;Node44</title>
<path fill="none" stroke="#63b8ff" d="M1083.24,-362.99C1119.6,-352.77 1180.73,-335.58 1220.97,-324.26"/>
<polygon fill="#63b8ff" stroke="#63b8ff" points="1222.04,-327.59 1230.72,-321.52 1220.14,-320.85 1222.04,-327.59"/>
</g>
<!-- Node44&#45;&gt;Node37 -->
<g id="edge81" class="edge">
<title>Node44&#45;&gt;Node37</title>
<path fill="none" stroke="#63b8ff" d="M1227.81,-302.44C1189.41,-292.52 1125.28,-275.98 1077.07,-263.53"/>
<polygon fill="#63b8ff" stroke="#63b8ff" points="1077.9,-260.13 1067.35,-261.02 1076.15,-266.91 1077.9,-260.13"/>
</g>
<!-- Node44&#45;&gt;Node42 -->
<g id="edge80" class="edge">
<title>Node44&#45;&gt;Node42</title>
<path fill="none" stroke="#63b8ff" d="M1279.21,-302.37C1302.15,-291.49 1341.81,-272.69 1368.47,-260.05"/>
<polygon fill="#63b8ff" stroke="#63b8ff" points="1370.11,-263.15 1377.65,-255.7 1367.12,-256.82 1370.11,-263.15"/>
</g>
<!-- Node46&#45;&gt;Node5 -->
<g id="edge88" class="edge">
<title>Node46&#45;&gt;Node5</title>
<path fill="none" stroke="#63b8ff" d="M118.94,-236.44C173.36,-223.82 274.19,-200.43 325.77,-188.47"/>
<polygon fill="#63b8ff" stroke="#63b8ff" points="326.75,-191.84 335.7,-186.17 325.17,-185.02 326.75,-191.84"/>
</g>
<!-- Node46&#45;&gt;Node6 -->
<g id="edge89" class="edge">
<title>Node46&#45;&gt;Node6</title>
<path fill="none" stroke="#63b8ff" d="M81.16,-236.22C79.39,-212.21 78.05,-144.9 114,-110 195.56,-30.83 338.64,-14.5 403.43,-11.24"/>
<polygon fill="#63b8ff" stroke="#63b8ff" points="403.66,-14.74 413.5,-10.81 403.36,-7.74 403.66,-14.74"/>
</g>
<!-- Node46&#45;&gt;Node15 -->
<g id="edge86" class="edge">
<title>Node46&#45;&gt;Node15</title>
<path fill="none" stroke="#63b8ff" d="M82.7,-236.23C85.11,-212.22 95.16,-144.94 134,-110 165.7,-81.49 213.73,-70.94 249.99,-67.19"/>
<polygon fill="#63b8ff" stroke="#63b8ff" points="250.7,-70.64 260.35,-66.26 250.08,-63.66 250.7,-70.64"/>
</g>
<!-- Node46&#45;&gt;Node45 -->
<g id="edge87" class="edge">
<title>Node46&#45;&gt;Node45</title>
<path fill="none" stroke="#63b8ff" d="M73.64,-236.37C63.99,-226.4 47.89,-209.79 35.85,-197.36"/>
<polygon fill="#63b8ff" stroke="#63b8ff" points="38.1,-194.65 28.63,-189.91 33.07,-199.52 38.1,-194.65"/>
</g>
</g>
</svg>
