<?xml version="1.0" encoding="UTF-8" standalone="no"?>
<!DOCTYPE svg PUBLIC "-//W3C//DTD SVG 1.1//EN"
 "http://www.w3.org/Graphics/SVG/1.1/DTD/svg11.dtd">
<!-- Generated by graphviz version 2.43.0 (0)
 -->
<!-- Title: include/ccf/node/startup_config.h Pages: 1 -->
<svg width="2278pt" height="676pt"
 viewBox="0.00 0.00 2277.52 676.00" xmlns="http://www.w3.org/2000/svg" xmlns:xlink="http://www.w3.org/1999/xlink">
<g id="graph0" class="graph" transform="scale(1 1) rotate(0) translate(4 672)">
<title>include/ccf/node/startup_config.h</title>
<!-- Node1 -->
<g id="node1" class="node">
<title>Node1</title>
<g id="a_node1"><a xlink:title=" ">
<polygon fill="#999999" stroke="#666666" points="555.52,-668 421.52,-668 421.52,-638 555.52,-638 555.52,-668"/>
<text text-anchor="start" x="429.52" y="-656" font-family="Helvetica,sans-Serif" font-size="10.00">include/ccf/node/startup</text>
<text text-anchor="middle" x="488.52" y="-645" font-family="Helvetica,sans-Serif" font-size="10.00">_config.h</text>
</a>
</g>
</g>
<!-- Node2 -->
<g id="node2" class="node">
<title>Node2</title>
<g id="a_node2"><a xlink:href="node__configuration__interface_8h.html" target="_top" xlink:title=" ">
<polygon fill="white" stroke="#666666" points="477.02,-602 334.02,-602 334.02,-572 477.02,-572 477.02,-602"/>
<text text-anchor="start" x="342.02" y="-590" font-family="Helvetica,sans-Serif" font-size="10.00">include/ccf/node/node</text>
<text text-anchor="middle" x="405.52" y="-579" font-family="Helvetica,sans-Serif" font-size="10.00">_configuration_interface.h</text>
</a>
</g>
</g>
<!-- Node1&#45;&gt;Node2 -->
<g id="edge1" class="edge">
<title>Node1&#45;&gt;Node2</title>
<path fill="none" stroke="#63b8ff" d="M461.9,-631.48C449.5,-621.91 435.05,-610.77 423.89,-602.16"/>
<polygon fill="#63b8ff" stroke="#63b8ff" points="460.04,-634.46 470.1,-637.8 464.32,-628.92 460.04,-634.46"/>
</g>
<!-- Node15 -->
<g id="node15" class="node">
<title>Node15</title>
<g id="a_node15"><a xlink:href="common_2configuration_8h.html" target="_top" xlink:title=" ">
<polygon fill="white" stroke="#666666" points="655.52,-596.5 503.52,-596.5 503.52,-577.5 655.52,-577.5 655.52,-596.5"/>
<text text-anchor="middle" x="579.52" y="-584.5" font-family="Helvetica,sans-Serif" font-size="10.00">src/common/configuration.h</text>
</a>
</g>
</g>
<!-- Node1&#45;&gt;Node15 -->
<g id="edge21" class="edge">
<title>Node1&#45;&gt;Node15</title>
<path fill="none" stroke="#63b8ff" d="M517.14,-631.87C533.98,-620.03 554.43,-605.65 567.21,-596.66"/>
<polygon fill="#63b8ff" stroke="#63b8ff" points="514.88,-629.18 508.71,-637.8 518.91,-634.91 514.88,-629.18"/>
</g>
<!-- Node3 -->
<g id="node3" class="node">
<title>Node3</title>
<g id="a_node3"><a xlink:href="node__configuration__subsystem_8h.html" target="_top" xlink:title=" ">
<polygon fill="white" stroke="#666666" points="457.52,-470 303.52,-470 303.52,-440 457.52,-440 457.52,-470"/>
<text text-anchor="start" x="311.52" y="-458" font-family="Helvetica,sans-Serif" font-size="10.00">src/node/node_configuration</text>
<text text-anchor="middle" x="380.52" y="-447" font-family="Helvetica,sans-Serif" font-size="10.00">_subsystem.h</text>
</a>
</g>
</g>
<!-- Node2&#45;&gt;Node3 -->
<g id="edge2" class="edge">
<title>Node2&#45;&gt;Node3</title>
<path fill="none" stroke="#63b8ff" d="M400.84,-561.68C395.65,-534.7 387.46,-492.11 383.24,-470.14"/>
<polygon fill="#63b8ff" stroke="#63b8ff" points="397.47,-562.68 402.79,-571.84 404.34,-561.36 397.47,-562.68"/>
</g>
<!-- Node4 -->
<g id="node4" class="node">
<title>Node4</title>
<g id="a_node4"><a xlink:href="frontend_8h.html" target="_top" xlink:title=" ">
<polygon fill="white" stroke="#666666" points="445.02,-398.5 316.02,-398.5 316.02,-379.5 445.02,-379.5 445.02,-398.5"/>
<text text-anchor="middle" x="380.52" y="-386.5" font-family="Helvetica,sans-Serif" font-size="10.00">src/node/rpc/frontend.h</text>
</a>
</g>
</g>
<!-- Node3&#45;&gt;Node4 -->
<g id="edge3" class="edge">
<title>Node3&#45;&gt;Node4</title>
<path fill="none" stroke="#63b8ff" d="M380.52,-429.6C380.52,-418.8 380.52,-406.78 380.52,-398.84"/>
<polygon fill="#63b8ff" stroke="#63b8ff" points="377.02,-429.8 380.52,-439.8 384.02,-429.8 377.02,-429.8"/>
</g>
<!-- Node5 -->
<g id="node5" class="node">
<title>Node5</title>
<g id="a_node5"><a xlink:href="acme__challenge__frontend_8h.html" target="_top" xlink:title=" ">
<polygon fill="white" stroke="#666666" points="159.52,-338 19.52,-338 19.52,-308 159.52,-308 159.52,-338"/>
<text text-anchor="start" x="27.52" y="-326" font-family="Helvetica,sans-Serif" font-size="10.00">src/node/acme_challenge</text>
<text text-anchor="middle" x="89.52" y="-315" font-family="Helvetica,sans-Serif" font-size="10.00">_frontend.h</text>
</a>
</g>
</g>
<!-- Node4&#45;&gt;Node5 -->
<g id="edge4" class="edge">
<title>Node4&#45;&gt;Node5</title>
<path fill="none" stroke="#63b8ff" d="M331.54,-377.23C282.54,-366.45 206.94,-349.83 153.29,-338.02"/>
<polygon fill="#63b8ff" stroke="#63b8ff" points="331.06,-380.71 341.57,-379.44 332.56,-373.87 331.06,-380.71"/>
</g>
<!-- Node9 -->
<g id="node9" class="node">
<title>Node9</title>
<g id="a_node9"><a xlink:href="node__state_8h.html" target="_top" xlink:title=" ">
<polygon fill="white" stroke="#666666" points="547.52,-200.5 423.52,-200.5 423.52,-181.5 547.52,-181.5 547.52,-200.5"/>
<text text-anchor="middle" x="485.52" y="-188.5" font-family="Helvetica,sans-Serif" font-size="10.00">src/node/node_state.h</text>
</a>
</g>
</g>
<!-- Node4&#45;&gt;Node9 -->
<g id="edge12" class="edge">
<title>Node4&#45;&gt;Node9</title>
<path fill="none" stroke="#63b8ff" d="M316.1,-377.26C267.21,-366.01 212.07,-344.73 235.52,-308 277.74,-241.86 368.47,-212.85 428.22,-200.55"/>
<polygon fill="#63b8ff" stroke="#63b8ff" points="315.57,-380.72 326.09,-379.44 317.07,-373.89 315.57,-380.72"/>
</g>
<!-- Node11 -->
<g id="node11" class="node">
<title>Node11</title>
<g id="a_node11"><a xlink:href="member__frontend_8h.html" target="_top" xlink:title=" ">
<polygon fill="white" stroke="#666666" points="521.52,-338 401.52,-338 401.52,-308 521.52,-308 521.52,-338"/>
<text text-anchor="start" x="409.52" y="-326" font-family="Helvetica,sans-Serif" font-size="10.00">src/node/rpc/member</text>
<text text-anchor="middle" x="461.52" y="-315" font-family="Helvetica,sans-Serif" font-size="10.00">_frontend.h</text>
</a>
</g>
</g>
<!-- Node4&#45;&gt;Node11 -->
<g id="edge13" class="edge">
<title>Node4&#45;&gt;Node11</title>
<path fill="none" stroke="#63b8ff" d="M399.48,-373.02C412.82,-362.48 430.56,-348.46 443.65,-338.12"/>
<polygon fill="#63b8ff" stroke="#63b8ff" points="397.12,-370.42 391.44,-379.37 401.46,-375.92 397.12,-370.42"/>
</g>
<!-- Node12 -->
<g id="node12" class="node">
<title>Node12</title>
<g id="a_node12"><a xlink:href="node__frontend_8h.html" target="_top" xlink:title=" ">
<polygon fill="white" stroke="#666666" points="697.52,-332.5 539.52,-332.5 539.52,-313.5 697.52,-313.5 697.52,-332.5"/>
<text text-anchor="middle" x="618.52" y="-320.5" font-family="Helvetica,sans-Serif" font-size="10.00">src/node/rpc/node_frontend.h</text>
</a>
</g>
</g>
<!-- Node4&#45;&gt;Node12 -->
<g id="edge15" class="edge">
<title>Node4&#45;&gt;Node12</title>
<path fill="none" stroke="#63b8ff" d="M422.46,-376.72C469.33,-364.12 544.18,-343.99 586.55,-332.6"/>
<polygon fill="#63b8ff" stroke="#63b8ff" points="421.36,-373.39 412.62,-379.37 423.18,-380.15 421.36,-373.39"/>
</g>
<!-- Node14 -->
<g id="node14" class="node">
<title>Node14</title>
<g id="a_node14"><a xlink:href="user__frontend_8h.html" target="_top" xlink:title=" ">
<polygon fill="white" stroke="#666666" points="802.02,-266.5 647.02,-266.5 647.02,-247.5 802.02,-247.5 802.02,-266.5"/>
<text text-anchor="middle" x="724.52" y="-254.5" font-family="Helvetica,sans-Serif" font-size="10.00">src/node/rpc/user_frontend.h</text>
</a>
</g>
</g>
<!-- Node4&#45;&gt;Node14 -->
<g id="edge19" class="edge">
<title>Node4&#45;&gt;Node14</title>
<path fill="none" stroke="#63b8ff" d="M328.4,-376.92C279.17,-364.18 216.95,-340.73 246.52,-308 272.94,-278.74 560.32,-276.19 599.52,-272 615.69,-270.27 633.04,-268.36 649.51,-266.52"/>
<polygon fill="#63b8ff" stroke="#63b8ff" points="327.8,-380.38 338.35,-379.4 329.5,-373.59 327.8,-380.38"/>
</g>
<!-- Node6 -->
<g id="node6" class="node">
<title>Node6</title>
<g id="a_node6"><a xlink:href="src_2enclave_2enclave_8h.html" target="_top" xlink:title=" ">
<polygon fill="white" stroke="#666666" points="971.52,-74 849.52,-74 849.52,-55 971.52,-55 971.52,-74"/>
<text text-anchor="middle" x="910.52" y="-62" font-family="Helvetica,sans-Serif" font-size="10.00">src/enclave/enclave.h</text>
</a>
</g>
</g>
<!-- Node5&#45;&gt;Node6 -->
<g id="edge5" class="edge">
<title>Node5&#45;&gt;Node6</title>
<path fill="none" stroke="#63b8ff" d="M38.97,-302.99C25.74,-295.44 13.08,-285.31 5.52,-272 -1.07,-260.41 -2.22,-252.86 5.52,-242 110.05,-95.4 212.37,-147.26 388.52,-110 552.47,-75.32 750.82,-67.51 849.13,-65.85"/>
<polygon fill="#63b8ff" stroke="#63b8ff" points="37.68,-306.27 48.16,-307.81 40.93,-300.07 37.68,-306.27"/>
</g>
<!-- Node8 -->
<g id="node8" class="node">
<title>Node8</title>
<g id="a_node8"><a xlink:href="ccf__acme__client_8h.html" target="_top" xlink:title=" ">
<polygon fill="white" stroke="#666666" points="164.02,-266.5 15.02,-266.5 15.02,-247.5 164.02,-247.5 164.02,-266.5"/>
<text text-anchor="middle" x="89.52" y="-254.5" font-family="Helvetica,sans-Serif" font-size="10.00">src/node/ccf_acme_client.h</text>
</a>
</g>
</g>
<!-- Node5&#45;&gt;Node8 -->
<g id="edge7" class="edge">
<title>Node5&#45;&gt;Node8</title>
<path fill="none" stroke="#63b8ff" d="M89.52,-297.6C89.52,-286.8 89.52,-274.78 89.52,-266.84"/>
<polygon fill="#63b8ff" stroke="#63b8ff" points="86.02,-297.8 89.52,-307.8 93.02,-297.8 86.02,-297.8"/>
</g>
<!-- Node7 -->
<g id="node7" class="node">
<title>Node7</title>
<g id="a_node7"><a xlink:href="enclave_2main_8cpp.html" target="_top" xlink:title=" ">
<polygon fill="white" stroke="#666666" points="970.52,-19 850.52,-19 850.52,0 970.52,0 970.52,-19"/>
<text text-anchor="middle" x="910.52" y="-7" font-family="Helvetica,sans-Serif" font-size="10.00">src/enclave/main.cpp</text>
</a>
</g>
</g>
<!-- Node6&#45;&gt;Node7 -->
<g id="edge6" class="edge">
<title>Node6&#45;&gt;Node7</title>
<path fill="none" stroke="#63b8ff" d="M910.52,-44.66C910.52,-35.93 910.52,-25.99 910.52,-19.09"/>
<polygon fill="#63b8ff" stroke="#63b8ff" points="907.02,-44.75 910.52,-54.75 914.02,-44.75 907.02,-44.75"/>
</g>
<!-- Node8&#45;&gt;Node9 -->
<g id="edge8" class="edge">
<title>Node8&#45;&gt;Node9</title>
<path fill="none" stroke="#63b8ff" d="M152.63,-245.8C230.19,-233.26 360.39,-212.22 432.84,-200.51"/>
<polygon fill="#63b8ff" stroke="#63b8ff" points="151.83,-242.38 142.51,-247.44 152.94,-249.29 151.83,-242.38"/>
</g>
<!-- Node9&#45;&gt;Node6 -->
<g id="edge9" class="edge">
<title>Node9&#45;&gt;Node6</title>
<path fill="none" stroke="#63b8ff" d="M454.3,-177.32C421.08,-162.08 376.25,-135.38 399.52,-110 429.38,-77.42 720.16,-68.61 849.28,-66.3"/>
<polygon fill="#63b8ff" stroke="#63b8ff" points="453.17,-180.64 463.73,-181.48 456,-174.24 453.17,-180.64"/>
</g>
<!-- Node10 -->
<g id="node10" class="node">
<title>Node10</title>
<g id="a_node10"><a xlink:href="gov__effects_8h.html" target="_top" xlink:title=" ">
<polygon fill="white" stroke="#666666" points="552.52,-134.5 408.52,-134.5 408.52,-115.5 552.52,-115.5 552.52,-134.5"/>
<text text-anchor="middle" x="480.52" y="-122.5" font-family="Helvetica,sans-Serif" font-size="10.00">src/node/rpc/gov_effects.h</text>
</a>
</g>
</g>
<!-- Node9&#45;&gt;Node10 -->
<g id="edge10" class="edge">
<title>Node9&#45;&gt;Node10</title>
<path fill="none" stroke="#63b8ff" d="M484.04,-171.08C483.11,-159.13 481.94,-144.22 481.21,-134.91"/>
<polygon fill="#63b8ff" stroke="#63b8ff" points="480.58,-171.67 484.84,-181.37 487.55,-171.13 480.58,-171.67"/>
</g>
<!-- Node10&#45;&gt;Node6 -->
<g id="edge11" class="edge">
<title>Node10&#45;&gt;Node6</title>
<path fill="none" stroke="#63b8ff" d="M541.54,-113.81C549.93,-112.49 558.43,-111.18 566.52,-110 665.28,-95.58 780.36,-81.18 849.23,-72.81"/>
<polygon fill="#63b8ff" stroke="#63b8ff" points="540.73,-110.4 531.41,-115.43 541.83,-117.31 540.73,-110.4"/>
</g>
<!-- Node11&#45;&gt;Node6 -->
<g id="edge14" class="edge">
<title>Node11&#45;&gt;Node6</title>
<path fill="none" stroke="#63b8ff" d="M452.63,-298.01C447.92,-280.89 445.19,-258.12 456.52,-242 483.68,-203.35 513.08,-224.55 556.52,-206 644.63,-168.38 660.05,-144.25 749.52,-110 790.14,-94.45 838.43,-81.84 871.46,-74.07"/>
<polygon fill="#63b8ff" stroke="#63b8ff" points="449.38,-299.34 455.7,-307.84 456.06,-297.25 449.38,-299.34"/>
</g>
<!-- Node12&#45;&gt;Node6 -->
<g id="edge16" class="edge">
<title>Node12&#45;&gt;Node6</title>
<path fill="none" stroke="#63b8ff" d="M619.43,-303C621.09,-285.7 625.72,-260.16 638.52,-242 703.21,-150.2 832.26,-94.29 886.07,-74.08"/>
<polygon fill="#63b8ff" stroke="#63b8ff" points="615.9,-303.25 618.68,-313.47 622.88,-303.74 615.9,-303.25"/>
</g>
<!-- Node13 -->
<g id="node13" class="node">
<title>Node13</title>
<g id="a_node13"><a xlink:href="jwt__key__auto__refresh_8h.html" target="_top" xlink:title=" ">
<polygon fill="white" stroke="#666666" points="590.02,-272 465.02,-272 465.02,-242 590.02,-242 590.02,-272"/>
<text text-anchor="start" x="473.02" y="-260" font-family="Helvetica,sans-Serif" font-size="10.00">src/node/jwt_key_auto</text>
<text text-anchor="middle" x="527.52" y="-249" font-family="Helvetica,sans-Serif" font-size="10.00">_refresh.h</text>
</a>
</g>
</g>
<!-- Node12&#45;&gt;Node13 -->
<g id="edge17" class="edge">
<title>Node12&#45;&gt;Node13</title>
<path fill="none" stroke="#63b8ff" d="M598.06,-307.62C582.99,-297.01 562.58,-282.66 547.59,-272.12"/>
<polygon fill="#63b8ff" stroke="#63b8ff" points="596.05,-310.48 606.25,-313.37 600.08,-304.75 596.05,-310.48"/>
</g>
<!-- Node13&#45;&gt;Node9 -->
<g id="edge18" class="edge">
<title>Node13&#45;&gt;Node9</title>
<path fill="none" stroke="#63b8ff" d="M512.61,-233.28C505.25,-222.07 496.8,-209.19 491.32,-200.84"/>
<polygon fill="#63b8ff" stroke="#63b8ff" points="509.78,-235.36 518.2,-241.8 515.64,-231.52 509.78,-235.36"/>
</g>
<!-- Node14&#45;&gt;Node6 -->
<g id="edge20" class="edge">
<title>Node14&#45;&gt;Node6</title>
<path fill="none" stroke="#63b8ff" d="M740.13,-240.01C777.85,-201.38 872.99,-103.94 901.99,-74.23"/>
<polygon fill="#63b8ff" stroke="#63b8ff" points="737.48,-237.72 732.99,-247.32 742.48,-242.61 737.48,-237.72"/>
</g>
<!-- Node15&#45;&gt;Node4 -->
<g id="edge24" class="edge">
<title>Node15&#45;&gt;Node4</title>
<path fill="none" stroke="#63b8ff" d="M551.72,-572.47C536.38,-563.82 517.97,-551.36 505.52,-536 476.52,-500.23 496.71,-474.77 466.52,-440 449.53,-420.44 422.93,-406.63 403.81,-398.56"/>
<polygon fill="#63b8ff" stroke="#63b8ff" points="550.33,-575.69 560.8,-577.35 553.65,-569.53 550.33,-575.69"/>
</g>
<!-- Node16 -->
<g id="node16" class="node">
<title>Node16</title>
<g id="a_node16"><a xlink:href="host_2configuration_8h.html" target="_top" xlink:title=" ">
<polygon fill="white" stroke="#666666" points="645.02,-530.5 514.02,-530.5 514.02,-511.5 645.02,-511.5 645.02,-530.5"/>
<text text-anchor="middle" x="579.52" y="-518.5" font-family="Helvetica,sans-Serif" font-size="10.00">src/host/configuration.h</text>
</a>
</g>
</g>
<!-- Node15&#45;&gt;Node16 -->
<g id="edge22" class="edge">
<title>Node15&#45;&gt;Node16</title>
<path fill="none" stroke="#63b8ff" d="M579.52,-567.08C579.52,-555.13 579.52,-540.22 579.52,-530.91"/>
<polygon fill="#63b8ff" stroke="#63b8ff" points="576.02,-567.37 579.52,-577.37 583.02,-567.37 576.02,-567.37"/>
</g>
<!-- Node18 -->
<g id="node18" class="node">
<title>Node18</title>
<g id="a_node18"><a xlink:href="node__call__types_8h.html" target="_top" xlink:title=" ">
<polygon fill="white" stroke="#666666" points="788.02,-536 663.02,-536 663.02,-506 788.02,-506 788.02,-536"/>
<text text-anchor="start" x="671.02" y="-524" font-family="Helvetica,sans-Serif" font-size="10.00">src/node/rpc/node_call</text>
<text text-anchor="middle" x="725.52" y="-513" font-family="Helvetica,sans-Serif" font-size="10.00">_types.h</text>
</a>
</g>
</g>
<!-- Node15&#45;&gt;Node18 -->
<g id="edge25" class="edge">
<title>Node15&#45;&gt;Node18</title>
<path fill="none" stroke="#63b8ff" d="M608.67,-573.22C633.14,-562.5 668.03,-547.2 693.32,-536.12"/>
<polygon fill="#63b8ff" stroke="#63b8ff" points="606.96,-570.15 599.21,-577.37 609.77,-576.56 606.96,-570.15"/>
</g>
<!-- Node24 -->
<g id="node24" class="node">
<title>Node24</title>
<g id="a_node24"><a xlink:href="node__interface_8h.html" target="_top" xlink:title=" ">
<polygon fill="white" stroke="#666666" points="1078.02,-530.5 917.02,-530.5 917.02,-511.5 1078.02,-511.5 1078.02,-530.5"/>
<text text-anchor="middle" x="997.52" y="-518.5" font-family="Helvetica,sans-Serif" font-size="10.00">src/node/rpc/node_interface.h</text>
</a>
</g>
</g>
<!-- Node15&#45;&gt;Node24 -->
<g id="edge38" class="edge">
<title>Node15&#45;&gt;Node24</title>
<path fill="none" stroke="#63b8ff" d="M645.39,-575.91C727.17,-563.39 865.21,-542.26 941.91,-530.51"/>
<polygon fill="#63b8ff" stroke="#63b8ff" points="644.81,-572.46 635.46,-577.44 645.87,-579.38 644.81,-572.46"/>
</g>
<!-- Node17 -->
<g id="node17" class="node">
<title>Node17</title>
<g id="a_node17"><a xlink:href="host_2main_8cpp.html" target="_top" xlink:title=" ">
<polygon fill="white" stroke="#666666" points="631.02,-464.5 528.02,-464.5 528.02,-445.5 631.02,-445.5 631.02,-464.5"/>
<text text-anchor="middle" x="579.52" y="-452.5" font-family="Helvetica,sans-Serif" font-size="10.00">src/host/main.cpp</text>
</a>
</g>
</g>
<!-- Node16&#45;&gt;Node17 -->
<g id="edge23" class="edge">
<title>Node16&#45;&gt;Node17</title>
<path fill="none" stroke="#63b8ff" d="M579.52,-501.08C579.52,-489.13 579.52,-474.22 579.52,-464.91"/>
<polygon fill="#63b8ff" stroke="#63b8ff" points="576.02,-501.37 579.52,-511.37 583.02,-501.37 576.02,-501.37"/>
</g>
<!-- Node19 -->
<g id="node19" class="node">
<title>Node19</title>
<g id="a_node19"><a xlink:href="call__types_8h.html" target="_top" xlink:title=" ">
<polygon fill="white" stroke="#666666" points="790.02,-464.5 653.02,-464.5 653.02,-445.5 790.02,-445.5 790.02,-464.5"/>
<text text-anchor="middle" x="721.52" y="-452.5" font-family="Helvetica,sans-Serif" font-size="10.00">src/node/rpc/call_types.h</text>
</a>
</g>
</g>
<!-- Node18&#45;&gt;Node19 -->
<g id="edge26" class="edge">
<title>Node18&#45;&gt;Node19</title>
<path fill="none" stroke="#63b8ff" d="M723.99,-495.6C723.32,-484.8 722.57,-472.78 722.07,-464.84"/>
<polygon fill="#63b8ff" stroke="#63b8ff" points="720.51,-496.03 724.63,-505.8 727.5,-495.6 720.51,-496.03"/>
</g>
<!-- Node19&#45;&gt;Node11 -->
<g id="edge31" class="edge">
<title>Node19&#45;&gt;Node11</title>
<path fill="none" stroke="#63b8ff" d="M679.72,-442.57C650.55,-433.84 611.17,-420.5 578.52,-404 540.75,-384.91 500.91,-355.36 478.84,-338.02"/>
<polygon fill="#63b8ff" stroke="#63b8ff" points="679,-446 689.58,-445.46 680.97,-439.29 679,-446"/>
</g>
<!-- Node20 -->
<g id="node20" class="node">
<title>Node20</title>
<g id="a_node20"><a xlink:href="common__endpoint__registry_8cpp.html" target="_top" xlink:title=" ">
<polygon fill="white" stroke="#666666" points="383.52,-338 255.52,-338 255.52,-308 383.52,-308 383.52,-338"/>
<text text-anchor="start" x="263.52" y="-326" font-family="Helvetica,sans-Serif" font-size="10.00">src/endpoints/common</text>
<text text-anchor="middle" x="319.52" y="-315" font-family="Helvetica,sans-Serif" font-size="10.00">_endpoint_registry.cpp</text>
</a>
</g>
</g>
<!-- Node19&#45;&gt;Node20 -->
<g id="edge27" class="edge">
<title>Node19&#45;&gt;Node20</title>
<path fill="none" stroke="#63b8ff" d="M669.73,-443.35C629.39,-434.47 572.24,-420.62 523.52,-404 491.87,-393.2 485.54,-386.48 454.52,-374 422.75,-361.22 386.32,-347.8 359.32,-338.08"/>
<polygon fill="#63b8ff" stroke="#63b8ff" points="669.09,-446.79 679.61,-445.5 670.58,-439.95 669.09,-446.79"/>
</g>
<!-- Node21 -->
<g id="node21" class="node">
<title>Node21</title>
<g id="a_node21"><a xlink:href="wrap_8cpp.html" target="_top" xlink:title=" ">
<polygon fill="white" stroke="#666666" points="1316.02,-266.5 1227.02,-266.5 1227.02,-247.5 1316.02,-247.5 1316.02,-266.5"/>
<text text-anchor="middle" x="1271.52" y="-254.5" font-family="Helvetica,sans-Serif" font-size="10.00">src/js/wrap.cpp</text>
</a>
</g>
</g>
<!-- Node19&#45;&gt;Node21 -->
<g id="edge28" class="edge">
<title>Node19&#45;&gt;Node21</title>
<path fill="none" stroke="#63b8ff" d="M737.59,-437.84C769.48,-406.85 844.38,-339.37 921.52,-308 1025.14,-265.86 1158.61,-258.38 1226.91,-257.57"/>
<polygon fill="#63b8ff" stroke="#63b8ff" points="734.76,-435.71 730.1,-445.22 739.68,-440.69 734.76,-435.71"/>
</g>
<!-- Node22 -->
<g id="node22" class="node">
<title>Node22</title>
<g id="a_node22"><a xlink:href="resharing_8h.html" target="_top" xlink:title=" ">
<polygon fill="white" stroke="#666666" points="831.52,-332.5 715.52,-332.5 715.52,-313.5 831.52,-313.5 831.52,-332.5"/>
<text text-anchor="middle" x="773.52" y="-320.5" font-family="Helvetica,sans-Serif" font-size="10.00">src/node/resharing.h</text>
</a>
</g>
</g>
<!-- Node19&#45;&gt;Node22 -->
<g id="edge29" class="edge">
<title>Node19&#45;&gt;Node22</title>
<path fill="none" stroke="#63b8ff" d="M730.2,-436.09C734.67,-426.63 740.1,-414.78 744.52,-404 754.95,-378.58 765.53,-347.87 770.54,-332.97"/>
<polygon fill="#63b8ff" stroke="#63b8ff" points="726.97,-434.72 725.81,-445.25 733.29,-437.74 726.97,-434.72"/>
</g>
<!-- Node23 -->
<g id="node23" class="node">
<title>Node23</title>
<g id="a_node23"><a xlink:href="serialization_8h.html" target="_top" xlink:title=" ">
<polygon fill="white" stroke="#666666" points="735.52,-398.5 587.52,-398.5 587.52,-379.5 735.52,-379.5 735.52,-398.5"/>
<text text-anchor="middle" x="661.52" y="-386.5" font-family="Helvetica,sans-Serif" font-size="10.00">src/node/rpc/serialization.h</text>
</a>
</g>
</g>
<!-- Node19&#45;&gt;Node23 -->
<g id="edge32" class="edge">
<title>Node19&#45;&gt;Node23</title>
<path fill="none" stroke="#63b8ff" d="M706.5,-437.98C694.91,-425.62 679.32,-408.99 669.87,-398.91"/>
<polygon fill="#63b8ff" stroke="#63b8ff" points="704.03,-440.47 713.43,-445.37 709.14,-435.68 704.03,-440.47"/>
</g>
<!-- Node22&#45;&gt;Node9 -->
<g id="edge30" class="edge">
<title>Node22&#45;&gt;Node9</title>
<path fill="none" stroke="#63b8ff" d="M790.58,-306.36C807.32,-289.13 828.11,-261.33 811.52,-242 778.19,-203.17 632.46,-194.19 547.55,-192.3"/>
<polygon fill="#63b8ff" stroke="#63b8ff" points="788.02,-303.96 783.32,-313.46 792.92,-308.97 788.02,-303.96"/>
</g>
<!-- Node23&#45;&gt;Node9 -->
<g id="edge34" class="edge">
<title>Node23&#45;&gt;Node9</title>
<path fill="none" stroke="#63b8ff" d="M729.69,-377.66C774.32,-369.33 826.83,-356.04 840.52,-338 854.77,-319.23 841.99,-255.01 828.52,-242 789.5,-204.33 635.38,-194.92 547.59,-192.65"/>
<polygon fill="#63b8ff" stroke="#63b8ff" points="728.94,-374.24 719.72,-379.46 730.19,-381.12 728.94,-374.24"/>
</g>
<!-- Node23&#45;&gt;Node11 -->
<g id="edge36" class="edge">
<title>Node23&#45;&gt;Node11</title>
<path fill="none" stroke="#63b8ff" d="M624.67,-376.21C591.06,-365.45 541.34,-349.54 505.63,-338.12"/>
<polygon fill="#63b8ff" stroke="#63b8ff" points="623.95,-379.65 634.55,-379.37 626.09,-372.99 623.95,-379.65"/>
</g>
<!-- Node23&#45;&gt;Node12 -->
<g id="edge37" class="edge">
<title>Node23&#45;&gt;Node12</title>
<path fill="none" stroke="#63b8ff" d="M650.03,-370.91C641.82,-358.68 631.08,-342.7 624.5,-332.91"/>
<polygon fill="#63b8ff" stroke="#63b8ff" points="647.24,-373.02 655.72,-379.37 653.05,-369.12 647.24,-373.02"/>
</g>
<!-- Node23&#45;&gt;Node20 -->
<g id="edge33" class="edge">
<title>Node23&#45;&gt;Node20</title>
<path fill="none" stroke="#63b8ff" d="M605.2,-377.63C550.76,-367.58 465.97,-351.87 392.52,-338 389.6,-337.45 386.62,-336.88 383.61,-336.31"/>
<polygon fill="#63b8ff" stroke="#63b8ff" points="604.86,-381.13 615.33,-379.5 606.13,-374.24 604.86,-381.13"/>
</g>
<!-- Node23&#45;&gt;Node22 -->
<g id="edge35" class="edge">
<title>Node23&#45;&gt;Node22</title>
<path fill="none" stroke="#63b8ff" d="M685.39,-374.36C707.44,-361.76 739.53,-343.42 758.29,-332.7"/>
<polygon fill="#63b8ff" stroke="#63b8ff" points="683.57,-371.37 676.62,-379.37 687.04,-377.45 683.57,-371.37"/>
</g>
<!-- Node24&#45;&gt;Node3 -->
<g id="edge60" class="edge">
<title>Node24&#45;&gt;Node3</title>
<path fill="none" stroke="#63b8ff" d="M906.84,-510.59C785.39,-498 572,-475.86 457.8,-464.02"/>
<polygon fill="#63b8ff" stroke="#63b8ff" points="906.55,-514.08 916.86,-511.63 907.27,-507.12 906.55,-514.08"/>
</g>
<!-- Node24&#45;&gt;Node11 -->
<g id="edge63" class="edge">
<title>Node24&#45;&gt;Node11</title>
<path fill="none" stroke="#63b8ff" d="M971.82,-506.6C953.05,-496.71 927.05,-482.81 904.52,-470 832.42,-429.02 822.32,-402.71 744.52,-374 654.04,-340.61 625.35,-355.59 530.52,-338 527.63,-337.46 524.68,-336.91 521.71,-336.34"/>
<polygon fill="#63b8ff" stroke="#63b8ff" points="970.45,-509.83 980.93,-511.38 973.7,-503.63 970.45,-509.83"/>
</g>
<!-- Node24&#45;&gt;Node12 -->
<g id="edge71" class="edge">
<title>Node24&#45;&gt;Node12</title>
<path fill="none" stroke="#63b8ff" d="M971.78,-506.46C956.84,-497.62 938.47,-484.96 925.52,-470 894.29,-433.94 915.52,-402.83 877.52,-374 869.22,-367.7 741.81,-345.09 668.85,-332.54"/>
<polygon fill="#63b8ff" stroke="#63b8ff" points="970.14,-509.55 980.56,-511.45 973.6,-503.47 970.14,-509.55"/>
</g>
<!-- Node24&#45;&gt;Node21 -->
<g id="edge39" class="edge">
<title>Node24&#45;&gt;Node21</title>
<path fill="none" stroke="#63b8ff" d="M997.03,-501.13C997.05,-459.76 1003.23,-360.61 1058.52,-308 1082.39,-285.28 1171.74,-270.39 1226.85,-263.15"/>
<polygon fill="#63b8ff" stroke="#63b8ff" points="993.53,-501.22 997.15,-511.18 1000.53,-501.14 993.53,-501.22"/>
</g>
<!-- Node25 -->
<g id="node25" class="node">
<title>Node25</title>
<g id="a_node25"><a xlink:href="wrap_8h.html" target="_top" xlink:title=" ">
<polygon fill="white" stroke="#666666" points="1146.52,-398.5 1068.52,-398.5 1068.52,-379.5 1146.52,-379.5 1146.52,-398.5"/>
<text text-anchor="middle" x="1107.52" y="-386.5" font-family="Helvetica,sans-Serif" font-size="10.00">src/js/wrap.h</text>
</a>
</g>
</g>
<!-- Node24&#45;&gt;Node25 -->
<g id="edge40" class="edge">
<title>Node24&#45;&gt;Node25</title>
<path fill="none" stroke="#63b8ff" d="M1011.21,-503.82C1034.7,-476.06 1081.93,-420.24 1100.13,-398.73"/>
<polygon fill="#63b8ff" stroke="#63b8ff" points="1008.52,-501.58 1004.74,-511.47 1013.87,-506.1 1008.52,-501.58"/>
</g>
<!-- Node32 -->
<g id="node32" class="node">
<title>Node32</title>
<g id="a_node32"><a xlink:href="historical__queries_8h.html" target="_top" xlink:title=" ">
<polygon fill="white" stroke="#666666" points="1155.52,-206 1049.52,-206 1049.52,-176 1155.52,-176 1155.52,-206"/>
<text text-anchor="start" x="1057.52" y="-194" font-family="Helvetica,sans-Serif" font-size="10.00">src/node/historical</text>
<text text-anchor="middle" x="1102.52" y="-183" font-family="Helvetica,sans-Serif" font-size="10.00">_queries.h</text>
</a>
</g>
</g>
<!-- Node24&#45;&gt;Node32 -->
<g id="edge56" class="edge">
<title>Node24&#45;&gt;Node32</title>
<path fill="none" stroke="#63b8ff" d="M1088.47,-515.58C1308.5,-503.67 1851.52,-466.54 1851.52,-390 1851.52,-390 1851.52,-390 1851.52,-322 1851.52,-251.31 1326.9,-207.89 1155.78,-195.6"/>
<polygon fill="#63b8ff" stroke="#63b8ff" points="1088.04,-512.1 1078.24,-516.13 1088.42,-519.09 1088.04,-512.1"/>
</g>
<!-- Node34 -->
<g id="node34" class="node">
<title>Node34</title>
<g id="a_node34"><a xlink:href="acme__subsystem_8h.html" target="_top" xlink:title=" ">
<polygon fill="white" stroke="#666666" points="1623.02,-200.5 1450.02,-200.5 1450.02,-181.5 1623.02,-181.5 1623.02,-200.5"/>
<text text-anchor="middle" x="1536.52" y="-188.5" font-family="Helvetica,sans-Serif" font-size="10.00">src/node/rpc/acme_subsystem.h</text>
</a>
</g>
</g>
<!-- Node24&#45;&gt;Node34 -->
<g id="edge61" class="edge">
<title>Node24&#45;&gt;Node34</title>
<path fill="none" stroke="#63b8ff" d="M1088.31,-517.29C1252.33,-511.77 1591.67,-497.4 1706.52,-470 1792.86,-449.4 1889.52,-478.77 1889.52,-390 1889.52,-390 1889.52,-390 1889.52,-322 1889.52,-259.3 1690.96,-217.53 1591.67,-200.56"/>
<polygon fill="#63b8ff" stroke="#63b8ff" points="1088.12,-513.79 1078.24,-517.62 1088.36,-520.79 1088.12,-513.79"/>
</g>
<!-- Node35 -->
<g id="node35" class="node">
<title>Node35</title>
<g id="a_node35"><a xlink:href="network__identity__subsystem_8h.html" target="_top" xlink:title=" ">
<polygon fill="white" stroke="#666666" points="2055.02,-470 1928.02,-470 1928.02,-440 2055.02,-440 2055.02,-470"/>
<text text-anchor="start" x="1936.02" y="-458" font-family="Helvetica,sans-Serif" font-size="10.00">src/node/rpc/network</text>
<text text-anchor="middle" x="1991.52" y="-447" font-family="Helvetica,sans-Serif" font-size="10.00">_identity_subsystem.h</text>
</a>
</g>
</g>
<!-- Node24&#45;&gt;Node35 -->
<g id="edge64" class="edge">
<title>Node24&#45;&gt;Node35</title>
<path fill="none" stroke="#63b8ff" d="M1088.04,-518.08C1251.37,-513.93 1606.06,-501.78 1903.52,-470 1911.36,-469.16 1919.57,-468.1 1927.7,-466.94"/>
<polygon fill="#63b8ff" stroke="#63b8ff" points="1087.94,-514.58 1078.04,-518.33 1088.12,-521.58 1087.94,-514.58"/>
</g>
<!-- Node39 -->
<g id="node39" class="node">
<title>Node39</title>
<g id="a_node39"><a xlink:href="node__operation_8h.html" target="_top" xlink:title=" ">
<polygon fill="white" stroke="#666666" points="2235.52,-134.5 2071.52,-134.5 2071.52,-115.5 2235.52,-115.5 2235.52,-134.5"/>
<text text-anchor="middle" x="2153.52" y="-122.5" font-family="Helvetica,sans-Serif" font-size="10.00">src/node/rpc/node_operation.h</text>
</a>
</g>
</g>
<!-- Node24&#45;&gt;Node39 -->
<g id="edge72" class="edge">
<title>Node24&#45;&gt;Node39</title>
<path fill="none" stroke="#63b8ff" d="M1088.14,-520.24C1378.91,-519.83 2269.52,-508.88 2269.52,-390 2269.52,-390 2269.52,-390 2269.52,-256 2269.52,-197.02 2202.21,-152.46 2170.14,-134.58"/>
<polygon fill="#63b8ff" stroke="#63b8ff" points="1088.05,-516.74 1078.05,-520.25 1088.06,-523.74 1088.05,-516.74"/>
</g>
<!-- Node25&#45;&gt;Node6 -->
<g id="edge42" class="edge">
<title>Node25&#45;&gt;Node6</title>
<path fill="none" stroke="#63b8ff" d="M1077.42,-375.04C1037.91,-355.76 973.52,-315.52 973.52,-258 973.52,-258 973.52,-258 973.52,-190 973.52,-141.79 935.45,-93.3 918.5,-74.1"/>
<polygon fill="#63b8ff" stroke="#63b8ff" points="1076.34,-378.4 1086.87,-379.49 1079.32,-372.07 1076.34,-378.4"/>
</g>
<!-- Node25&#45;&gt;Node9 -->
<g id="edge53" class="edge">
<title>Node25&#45;&gt;Node9</title>
<path fill="none" stroke="#63b8ff" d="M1087.97,-373.5C1046.35,-343.46 944.9,-274.49 848.52,-242 746.79,-207.71 621.45,-196.9 547.82,-193.52"/>
<polygon fill="#63b8ff" stroke="#63b8ff" points="1086,-376.4 1096.14,-379.46 1090.12,-370.74 1086,-376.4"/>
</g>
<!-- Node25&#45;&gt;Node11 -->
<g id="edge54" class="edge">
<title>Node25&#45;&gt;Node11</title>
<path fill="none" stroke="#63b8ff" d="M1058.43,-384.47C938.31,-375.71 632.05,-352.65 530.52,-338 527.61,-337.58 524.65,-337.12 521.66,-336.62"/>
<polygon fill="#63b8ff" stroke="#63b8ff" points="1058.22,-387.96 1068.44,-385.2 1058.73,-380.98 1058.22,-387.96"/>
</g>
<!-- Node25&#45;&gt;Node12 -->
<g id="edge55" class="edge">
<title>Node25&#45;&gt;Node12</title>
<path fill="none" stroke="#63b8ff" d="M1058.29,-382.4C982.58,-373.67 833.06,-355.95 706.52,-338 694.72,-336.33 682.06,-334.39 670.13,-332.51"/>
<polygon fill="#63b8ff" stroke="#63b8ff" points="1058.13,-385.91 1068.47,-383.57 1058.93,-378.95 1058.13,-385.91"/>
</g>
<!-- Node25&#45;&gt;Node21 -->
<g id="edge52" class="edge">
<title>Node25&#45;&gt;Node21</title>
<path fill="none" stroke="#63b8ff" d="M1090.21,-372.4C1073.48,-355.42 1052.82,-328.04 1068.52,-308 1087.83,-283.36 1173.28,-269.22 1226.98,-262.62"/>
<polygon fill="#63b8ff" stroke="#63b8ff" points="1087.84,-374.98 1097.47,-379.4 1092.7,-369.94 1087.84,-374.98"/>
</g>
<!-- Node26 -->
<g id="node26" class="node">
<title>Node26</title>
<g id="a_node26"><a xlink:href="js__generic__base_8cpp.html" target="_top" xlink:title=" ">
<polygon fill="white" stroke="#666666" points="1195.52,-338 1077.52,-338 1077.52,-308 1195.52,-308 1195.52,-338"/>
<text text-anchor="start" x="1085.52" y="-326" font-family="Helvetica,sans-Serif" font-size="10.00">src/apps/js_generic</text>
<text text-anchor="middle" x="1136.52" y="-315" font-family="Helvetica,sans-Serif" font-size="10.00">/js_generic_base.cpp</text>
</a>
</g>
</g>
<!-- Node25&#45;&gt;Node26 -->
<g id="edge41" class="edge">
<title>Node25&#45;&gt;Node26</title>
<path fill="none" stroke="#63b8ff" d="M1115.68,-369.98C1120.21,-359.98 1125.77,-347.71 1130.01,-338.36"/>
<polygon fill="#63b8ff" stroke="#63b8ff" points="1112.37,-368.82 1111.43,-379.37 1118.74,-371.7 1112.37,-368.82"/>
</g>
<!-- Node27 -->
<g id="node27" class="node">
<title>Node27</title>
<g id="a_node27"><a xlink:href="consensus_8cpp.html" target="_top" xlink:title=" ">
<polygon fill="white" stroke="#666666" points="1329.52,-332.5 1213.52,-332.5 1213.52,-313.5 1329.52,-313.5 1329.52,-332.5"/>
<text text-anchor="middle" x="1271.52" y="-320.5" font-family="Helvetica,sans-Serif" font-size="10.00">src/js/consensus.cpp</text>
</a>
</g>
</g>
<!-- Node25&#45;&gt;Node27 -->
<g id="edge43" class="edge">
<title>Node25&#45;&gt;Node27</title>
<path fill="none" stroke="#63b8ff" d="M1139.1,-375.68C1171.51,-363.03 1221.09,-343.68 1249.49,-332.6"/>
<polygon fill="#63b8ff" stroke="#63b8ff" points="1137.68,-372.47 1129.64,-379.37 1140.22,-378.99 1137.68,-372.47"/>
</g>
<!-- Node28 -->
<g id="node28" class="node">
<title>Node28</title>
<g id="a_node28"><a xlink:href="conv_8cpp.html" target="_top" xlink:title=" ">
<polygon fill="white" stroke="#666666" points="1435.52,-332.5 1347.52,-332.5 1347.52,-313.5 1435.52,-313.5 1435.52,-332.5"/>
<text text-anchor="middle" x="1391.52" y="-320.5" font-family="Helvetica,sans-Serif" font-size="10.00">src/js/conv.cpp</text>
</a>
</g>
</g>
<!-- Node25&#45;&gt;Node28 -->
<g id="edge45" class="edge">
<title>Node25&#45;&gt;Node28</title>
<path fill="none" stroke="#63b8ff" d="M1156.77,-378.01C1203.64,-368.35 1276.07,-353 1338.52,-338 1345.55,-336.31 1353.08,-334.39 1360.19,-332.53"/>
<polygon fill="#63b8ff" stroke="#63b8ff" points="1155.97,-374.6 1146.88,-380.04 1157.38,-381.46 1155.97,-374.6"/>
</g>
<!-- Node29 -->
<g id="node29" class="node">
<title>Node29</title>
<g id="a_node29"><a xlink:href="crypto_8cpp.html" target="_top" xlink:title=" ">
<polygon fill="white" stroke="#666666" points="1549.52,-332.5 1453.52,-332.5 1453.52,-313.5 1549.52,-313.5 1549.52,-332.5"/>
<text text-anchor="middle" x="1501.52" y="-320.5" font-family="Helvetica,sans-Serif" font-size="10.00">src/js/crypto.cpp</text>
</a>
</g>
</g>
<!-- Node25&#45;&gt;Node29 -->
<g id="edge47" class="edge">
<title>Node25&#45;&gt;Node29</title>
<path fill="none" stroke="#63b8ff" d="M1156.73,-382.16C1222.59,-374.02 1342.88,-357.98 1444.52,-338 1452.52,-336.43 1461.08,-334.47 1469.08,-332.52"/>
<polygon fill="#63b8ff" stroke="#63b8ff" points="1156.14,-378.71 1146.64,-383.4 1156.99,-385.66 1156.14,-378.71"/>
</g>
<!-- Node30 -->
<g id="node30" class="node">
<title>Node30</title>
<g id="a_node30"><a xlink:href="historical_8cpp.html" target="_top" xlink:title=" ">
<polygon fill="white" stroke="#666666" points="1677.52,-332.5 1567.52,-332.5 1567.52,-313.5 1677.52,-313.5 1677.52,-332.5"/>
<text text-anchor="middle" x="1622.52" y="-320.5" font-family="Helvetica,sans-Serif" font-size="10.00">src/js/historical.cpp</text>
</a>
</g>
</g>
<!-- Node25&#45;&gt;Node30 -->
<g id="edge49" class="edge">
<title>Node25&#45;&gt;Node30</title>
<path fill="none" stroke="#63b8ff" d="M1156.78,-384.24C1239.95,-377.52 1413.34,-361.86 1558.52,-338 1567.72,-336.49 1577.59,-334.51 1586.77,-332.51"/>
<polygon fill="#63b8ff" stroke="#63b8ff" points="1156.31,-380.77 1146.62,-385.06 1156.86,-387.75 1156.31,-380.77"/>
</g>
<!-- Node31 -->
<g id="node31" class="node">
<title>Node31</title>
<g id="a_node31"><a xlink:href="openenclave_8cpp.html" target="_top" xlink:title=" ">
<polygon fill="white" stroke="#666666" points="1823.52,-332.5 1695.52,-332.5 1695.52,-313.5 1823.52,-313.5 1823.52,-332.5"/>
<text text-anchor="middle" x="1759.52" y="-320.5" font-family="Helvetica,sans-Serif" font-size="10.00">src/js/openenclave.cpp</text>
</a>
</g>
</g>
<!-- Node25&#45;&gt;Node31 -->
<g id="edge51" class="edge">
<title>Node25&#45;&gt;Node31</title>
<path fill="none" stroke="#63b8ff" d="M1156.76,-385.47C1256.89,-379.94 1491.3,-365.07 1686.52,-338 1697.13,-336.53 1708.53,-334.54 1719.1,-332.52"/>
<polygon fill="#63b8ff" stroke="#63b8ff" points="1156.44,-381.98 1146.64,-386.02 1156.82,-388.97 1156.44,-381.98"/>
</g>
<!-- Node27&#45;&gt;Node21 -->
<g id="edge44" class="edge">
<title>Node27&#45;&gt;Node21</title>
<path fill="none" stroke="#63b8ff" d="M1271.52,-303.08C1271.52,-291.13 1271.52,-276.22 1271.52,-266.91"/>
<polygon fill="#63b8ff" stroke="#63b8ff" points="1268.02,-303.37 1271.52,-313.37 1275.02,-303.37 1268.02,-303.37"/>
</g>
<!-- Node28&#45;&gt;Node21 -->
<g id="edge46" class="edge">
<title>Node28&#45;&gt;Node21</title>
<path fill="none" stroke="#63b8ff" d="M1366.26,-308.53C1342.62,-295.92 1308.02,-277.47 1287.83,-266.7"/>
<polygon fill="#63b8ff" stroke="#63b8ff" points="1364.86,-311.75 1375.33,-313.37 1368.16,-305.57 1364.86,-311.75"/>
</g>
<!-- Node29&#45;&gt;Node21 -->
<g id="edge48" class="edge">
<title>Node29&#45;&gt;Node21</title>
<path fill="none" stroke="#63b8ff" d="M1460.7,-310.64C1415.39,-298.03 1343.27,-277.97 1302.41,-266.6"/>
<polygon fill="#63b8ff" stroke="#63b8ff" points="1459.93,-314.06 1470.5,-313.37 1461.8,-307.32 1459.93,-314.06"/>
</g>
<!-- Node30&#45;&gt;Node21 -->
<g id="edge50" class="edge">
<title>Node30&#45;&gt;Node21</title>
<path fill="none" stroke="#63b8ff" d="M1574.86,-311.34C1569.36,-310.18 1563.82,-309.04 1558.52,-308 1473.16,-291.24 1372.94,-274.43 1316.37,-265.2"/>
<polygon fill="#63b8ff" stroke="#63b8ff" points="1574.16,-314.77 1584.67,-313.44 1575.63,-307.92 1574.16,-314.77"/>
</g>
<!-- Node32&#45;&gt;Node6 -->
<g id="edge57" class="edge">
<title>Node32&#45;&gt;Node6</title>
<path fill="none" stroke="#63b8ff" d="M1074.25,-170.15C1043.08,-148.29 996.15,-115.48 987.52,-110 966.8,-96.84 942.11,-82.86 926.38,-74.16"/>
<polygon fill="#63b8ff" stroke="#63b8ff" points="1072.39,-173.12 1082.59,-176 1076.41,-167.39 1072.39,-173.12"/>
</g>
<!-- Node33 -->
<g id="node33" class="node">
<title>Node33</title>
<g id="a_node33"><a xlink:href="historical__transaction__fetcher_8h.html" target="_top" xlink:title=" ">
<polygon fill="white" stroke="#666666" points="1165.02,-140 1040.02,-140 1040.02,-110 1165.02,-110 1165.02,-140"/>
<text text-anchor="start" x="1048.02" y="-128" font-family="Helvetica,sans-Serif" font-size="10.00">src/indexing/historical</text>
<text text-anchor="middle" x="1102.52" y="-117" font-family="Helvetica,sans-Serif" font-size="10.00">_transaction_fetcher.h</text>
</a>
</g>
</g>
<!-- Node32&#45;&gt;Node33 -->
<g id="edge58" class="edge">
<title>Node32&#45;&gt;Node33</title>
<path fill="none" stroke="#63b8ff" d="M1102.52,-165.54C1102.52,-156.96 1102.52,-147.61 1102.52,-140.16"/>
<polygon fill="#63b8ff" stroke="#63b8ff" points="1099.02,-165.8 1102.52,-175.8 1106.02,-165.8 1099.02,-165.8"/>
</g>
<!-- Node33&#45;&gt;Node6 -->
<g id="edge59" class="edge">
<title>Node33&#45;&gt;Node6</title>
<path fill="none" stroke="#63b8ff" d="M1046.78,-107.02C1011.31,-96.21 966.88,-82.67 938.59,-74.05"/>
<polygon fill="#63b8ff" stroke="#63b8ff" points="1045.94,-110.42 1056.53,-109.99 1047.98,-103.73 1045.94,-110.42"/>
</g>
<!-- Node34&#45;&gt;Node6 -->
<g id="edge62" class="edge">
<title>Node34&#45;&gt;Node6</title>
<path fill="none" stroke="#63b8ff" d="M1490.64,-179.08C1422.07,-162.94 1288.69,-132.22 1174.52,-110 1102.77,-96.04 1019.56,-82.44 966.03,-74.02"/>
<polygon fill="#63b8ff" stroke="#63b8ff" points="1490.14,-182.56 1500.68,-181.45 1491.75,-175.75 1490.14,-182.56"/>
</g>
<!-- Node35&#45;&gt;Node6 -->
<g id="edge66" class="edge">
<title>Node35&#45;&gt;Node6</title>
<path fill="none" stroke="#63b8ff" d="M1972.87,-431.95C1953.97,-407.31 1927.52,-365.41 1927.52,-324 1927.52,-324 1927.52,-324 1927.52,-190 1927.52,-93.17 1191.72,-70.99 971.85,-66.52"/>
<polygon fill="#63b8ff" stroke="#63b8ff" points="1970.23,-434.25 1979.18,-439.92 1975.71,-429.91 1970.23,-434.25"/>
</g>
<!-- Node36 -->
<g id="node36" class="node">
<title>Node36</title>
<g id="a_node36"><a xlink:href="external__executor_8cpp.html" target="_top" xlink:title=" ">
<polygon fill="white" stroke="#666666" points="2103.52,-338 1955.52,-338 1955.52,-308 2103.52,-308 2103.52,-338"/>
<text text-anchor="start" x="1963.52" y="-326" font-family="Helvetica,sans-Serif" font-size="10.00">src/apps/external_executor</text>
<text text-anchor="middle" x="2029.52" y="-315" font-family="Helvetica,sans-Serif" font-size="10.00">/external_executor.cpp</text>
</a>
</g>
</g>
<!-- Node35&#45;&gt;Node36 -->
<g id="edge65" class="edge">
<title>Node35&#45;&gt;Node36</title>
<path fill="none" stroke="#63b8ff" d="M1996.39,-429.87C1999.83,-413.88 2004.83,-392.52 2010.52,-374 2014.28,-361.75 2019.51,-348.18 2023.53,-338.27"/>
<polygon fill="#63b8ff" stroke="#63b8ff" points="1992.9,-429.47 1994.27,-439.98 1999.75,-430.91 1992.9,-429.47"/>
</g>
<!-- Node37 -->
<g id="node37" class="node">
<title>Node37</title>
<g id="a_node37"><a xlink:href="historical__queries__adapter_8cpp.html" target="_top" xlink:title=" ">
<polygon fill="white" stroke="#666666" points="2241.52,-338 2121.52,-338 2121.52,-308 2241.52,-308 2241.52,-338"/>
<text text-anchor="start" x="2129.52" y="-326" font-family="Helvetica,sans-Serif" font-size="10.00">src/node/historical</text>
<text text-anchor="middle" x="2181.52" y="-315" font-family="Helvetica,sans-Serif" font-size="10.00">_queries_adapter.cpp</text>
</a>
</g>
</g>
<!-- Node35&#45;&gt;Node37 -->
<g id="edge67" class="edge">
<title>Node35&#45;&gt;Node37</title>
<path fill="none" stroke="#63b8ff" d="M2064.94,-439.07C2088.99,-431.53 2114.61,-420.37 2134.52,-404 2156.05,-386.3 2169.94,-355.99 2176.69,-338.19"/>
<polygon fill="#63b8ff" stroke="#63b8ff" points="2063.7,-435.79 2055.11,-441.99 2065.7,-442.5 2063.7,-435.79"/>
</g>
<!-- Node38 -->
<g id="node38" class="node">
<title>Node38</title>
<g id="a_node38"><a xlink:href="historical__queries__utils_8h.html" target="_top" xlink:title=" ">
<polygon fill="white" stroke="#666666" points="2125.52,-404 2019.52,-404 2019.52,-374 2125.52,-374 2125.52,-404"/>
<text text-anchor="start" x="2027.52" y="-392" font-family="Helvetica,sans-Serif" font-size="10.00">src/node/historical</text>
<text text-anchor="middle" x="2072.52" y="-381" font-family="Helvetica,sans-Serif" font-size="10.00">_queries_utils.h</text>
</a>
</g>
</g>
<!-- Node35&#45;&gt;Node38 -->
<g id="edge68" class="edge">
<title>Node35&#45;&gt;Node38</title>
<path fill="none" stroke="#63b8ff" d="M2017.49,-433.48C2029.6,-423.91 2043.7,-412.77 2054.59,-404.16"/>
<polygon fill="#63b8ff" stroke="#63b8ff" points="2015.17,-430.85 2009.49,-439.8 2019.51,-436.34 2015.17,-430.85"/>
</g>
<!-- Node38&#45;&gt;Node36 -->
<g id="edge69" class="edge">
<title>Node38&#45;&gt;Node36</title>
<path fill="none" stroke="#63b8ff" d="M2057.23,-365.24C2051.16,-356.21 2044.37,-346.11 2039.03,-338.16"/>
<polygon fill="#63b8ff" stroke="#63b8ff" points="2054.49,-367.45 2062.97,-373.8 2060.3,-363.54 2054.49,-367.45"/>
</g>
<!-- Node38&#45;&gt;Node37 -->
<g id="edge70" class="edge">
<title>Node38&#45;&gt;Node37</title>
<path fill="none" stroke="#63b8ff" d="M2105.4,-368.69C2122.22,-358.82 2142.33,-347.01 2157.65,-338.01"/>
<polygon fill="#63b8ff" stroke="#63b8ff" points="2103.29,-365.87 2096.44,-373.95 2106.83,-371.91 2103.29,-365.87"/>
</g>
<!-- Node39&#45;&gt;Node6 -->
<g id="edge73" class="edge">
<title>Node39&#45;&gt;Node6</title>
<path fill="none" stroke="#63b8ff" d="M2061.18,-117.44C2024.01,-114.92 1980.74,-112.14 1941.52,-110 1573.44,-89.91 1131.04,-73.37 971.55,-67.65"/>
<polygon fill="#63b8ff" stroke="#63b8ff" points="2061.28,-120.96 2071.49,-118.15 2061.76,-113.97 2061.28,-120.96"/>
</g>
</g>
</svg>
