<?xml version="1.0" encoding="UTF-8" standalone="no"?>
<!DOCTYPE svg PUBLIC "-//W3C//DTD SVG 1.1//EN"
 "http://www.w3.org/Graphics/SVG/1.1/DTD/svg11.dtd">
<!-- Generated by graphviz version 2.43.0 (0)
 -->
<!-- Title: src/endpoints/grpc/status.h Pages: 1 -->
<svg width="339pt" height="302pt"
 viewBox="0.00 0.00 339.00 302.00" xmlns="http://www.w3.org/2000/svg" xmlns:xlink="http://www.w3.org/1999/xlink">
<g id="graph0" class="graph" transform="scale(1 1) rotate(0) translate(4 298)">
<title>src/endpoints/grpc/status.h</title>
<!-- Node1 -->
<g id="node1" class="node">
<title>Node1</title>
<g id="a_node1"><a xlink:title=" ">
<polygon fill="#999999" stroke="#666666" points="250,-294 144,-294 144,-264 250,-264 250,-294"/>
<text text-anchor="start" x="152" y="-282" font-family="Helvetica,sans-Serif" font-size="10.00">src/endpoints/grpc</text>
<text text-anchor="middle" x="197" y="-271" font-family="Helvetica,sans-Serif" font-size="10.00">/status.h</text>
</a>
</g>
</g>
<!-- Node2 -->
<g id="node2" class="node">
<title>Node2</title>
<g id="a_node2"><a xlink:href="executor__code__id_8h.html" target="_top" xlink:title=" ">
<polygon fill="white" stroke="#666666" points="167,-162 19,-162 19,-132 167,-132 167,-162"/>
<text text-anchor="start" x="27" y="-150" font-family="Helvetica,sans-Serif" font-size="10.00">src/apps/external_executor</text>
<text text-anchor="middle" x="93" y="-139" font-family="Helvetica,sans-Serif" font-size="10.00">/executor_code_id.h</text>
</a>
</g>
</g>
<!-- Node1&#45;&gt;Node2 -->
<g id="edge1" class="edge">
<title>Node1&#45;&gt;Node2</title>
<path fill="none" stroke="#63b8ff" d="M179.24,-255.8C157.79,-228.99 122.36,-184.7 104.31,-162.14"/>
<polygon fill="#63b8ff" stroke="#63b8ff" points="176.69,-258.22 185.67,-263.84 182.16,-253.85 176.69,-258.22"/>
</g>
<!-- Node5 -->
<g id="node5" class="node">
<title>Node5</title>
<g id="a_node5"><a xlink:href="stream_8h.html" target="_top" xlink:title=" ">
<polygon fill="white" stroke="#666666" points="291,-162 185,-162 185,-132 291,-132 291,-162"/>
<text text-anchor="start" x="193" y="-150" font-family="Helvetica,sans-Serif" font-size="10.00">src/endpoints/grpc</text>
<text text-anchor="middle" x="238" y="-139" font-family="Helvetica,sans-Serif" font-size="10.00">/stream.h</text>
</a>
</g>
</g>
<!-- Node1&#45;&gt;Node5 -->
<g id="edge5" class="edge">
<title>Node1&#45;&gt;Node5</title>
<path fill="none" stroke="#63b8ff" d="M201.56,-253.77C204.87,-237.73 209.84,-216.36 216,-198 220.16,-185.59 226.23,-172.03 230.94,-162.17"/>
<polygon fill="#63b8ff" stroke="#63b8ff" points="198.06,-253.42 199.54,-263.91 204.93,-254.79 198.06,-253.42"/>
</g>
<!-- Node7 -->
<g id="node7" class="node">
<title>Node7</title>
<g id="a_node7"><a xlink:href="types_8h.html" target="_top" xlink:title=" ">
<polygon fill="white" stroke="#666666" points="331,-228 225,-228 225,-198 331,-198 331,-228"/>
<text text-anchor="start" x="233" y="-216" font-family="Helvetica,sans-Serif" font-size="10.00">src/endpoints/grpc</text>
<text text-anchor="middle" x="278" y="-205" font-family="Helvetica,sans-Serif" font-size="10.00">/types.h</text>
</a>
</g>
</g>
<!-- Node1&#45;&gt;Node7 -->
<g id="edge8" class="edge">
<title>Node1&#45;&gt;Node7</title>
<path fill="none" stroke="#63b8ff" d="M222.97,-257.48C235.08,-247.91 249.18,-236.77 260.07,-228.16"/>
<polygon fill="#63b8ff" stroke="#63b8ff" points="220.65,-254.85 214.98,-263.8 224.99,-260.34 220.65,-254.85"/>
</g>
<!-- Node3 -->
<g id="node3" class="node">
<title>Node3</title>
<g id="a_node3"><a xlink:href="executor__auth__policy_8h.html" target="_top" xlink:title=" ">
<polygon fill="white" stroke="#666666" points="148,-96 0,-96 0,-66 148,-66 148,-96"/>
<text text-anchor="start" x="8" y="-84" font-family="Helvetica,sans-Serif" font-size="10.00">src/apps/external_executor</text>
<text text-anchor="middle" x="74" y="-73" font-family="Helvetica,sans-Serif" font-size="10.00">/executor_auth_policy.h</text>
</a>
</g>
</g>
<!-- Node2&#45;&gt;Node3 -->
<g id="edge2" class="edge">
<title>Node2&#45;&gt;Node3</title>
<path fill="none" stroke="#63b8ff" d="M85.91,-122.11C83.31,-113.38 80.47,-103.78 78.2,-96.16"/>
<polygon fill="#63b8ff" stroke="#63b8ff" points="82.58,-123.21 88.78,-131.8 89.29,-121.21 82.58,-123.21"/>
</g>
<!-- Node4 -->
<g id="node4" class="node">
<title>Node4</title>
<g id="a_node4"><a xlink:href="external__executor_8cpp.html" target="_top" xlink:title=" ">
<polygon fill="white" stroke="#666666" points="250,-30 102,-30 102,0 250,0 250,-30"/>
<text text-anchor="start" x="110" y="-18" font-family="Helvetica,sans-Serif" font-size="10.00">src/apps/external_executor</text>
<text text-anchor="middle" x="176" y="-7" font-family="Helvetica,sans-Serif" font-size="10.00">/external_executor.cpp</text>
</a>
</g>
</g>
<!-- Node2&#45;&gt;Node4 -->
<g id="edge4" class="edge">
<title>Node2&#45;&gt;Node4</title>
<path fill="none" stroke="#63b8ff" d="M126.72,-126.25C137.86,-118.18 149.36,-107.92 157,-96 170.1,-75.57 174.18,-47 175.44,-30.1"/>
<polygon fill="#63b8ff" stroke="#63b8ff" points="124.61,-123.45 118.33,-131.98 128.56,-129.23 124.61,-123.45"/>
</g>
<!-- Node3&#45;&gt;Node4 -->
<g id="edge3" class="edge">
<title>Node3&#45;&gt;Node4</title>
<path fill="none" stroke="#63b8ff" d="M105.21,-60.42C120.86,-50.6 139.46,-38.93 153.67,-30.01"/>
<polygon fill="#63b8ff" stroke="#63b8ff" points="102.99,-57.68 96.38,-65.95 106.72,-63.6 102.99,-57.68"/>
</g>
<!-- Node6 -->
<g id="node6" class="node">
<title>Node6</title>
<g id="a_node6"><a xlink:href="grpc_8h.html" target="_top" xlink:title=" ">
<polygon fill="white" stroke="#666666" points="310,-96 204,-96 204,-66 310,-66 310,-96"/>
<text text-anchor="start" x="212" y="-84" font-family="Helvetica,sans-Serif" font-size="10.00">src/endpoints/grpc</text>
<text text-anchor="middle" x="257" y="-73" font-family="Helvetica,sans-Serif" font-size="10.00">/grpc.h</text>
</a>
</g>
</g>
<!-- Node5&#45;&gt;Node6 -->
<g id="edge6" class="edge">
<title>Node5&#45;&gt;Node6</title>
<path fill="none" stroke="#63b8ff" d="M245.09,-122.11C247.69,-113.38 250.53,-103.78 252.8,-96.16"/>
<polygon fill="#63b8ff" stroke="#63b8ff" points="241.71,-121.21 242.22,-131.8 248.42,-123.21 241.71,-121.21"/>
</g>
<!-- Node6&#45;&gt;Node4 -->
<g id="edge7" class="edge">
<title>Node6&#45;&gt;Node4</title>
<path fill="none" stroke="#63b8ff" d="M231.03,-59.48C218.92,-49.91 204.82,-38.77 193.93,-30.16"/>
<polygon fill="#63b8ff" stroke="#63b8ff" points="229.01,-62.34 239.02,-65.8 233.35,-56.85 229.01,-62.34"/>
</g>
<!-- Node7&#45;&gt;Node5 -->
<g id="edge10" class="edge">
<title>Node7&#45;&gt;Node5</title>
<path fill="none" stroke="#63b8ff" d="M263.78,-189.24C258.13,-180.21 251.82,-170.11 246.85,-162.16"/>
<polygon fill="#63b8ff" stroke="#63b8ff" points="260.85,-191.17 269.12,-197.8 266.79,-187.46 260.85,-191.17"/>
</g>
<!-- Node7&#45;&gt;Node6 -->
<g id="edge9" class="edge">
<title>Node7&#45;&gt;Node6</title>
<path fill="none" stroke="#63b8ff" d="M292.07,-188.66C299.95,-172.52 306.93,-150.68 300,-132 294.82,-118.04 283.82,-105.37 274.23,-96.27"/>
<polygon fill="#63b8ff" stroke="#63b8ff" points="288.76,-187.42 287.16,-197.89 294.95,-190.71 288.76,-187.42"/>
</g>
</g>
</svg>
