<?xml version="1.0" encoding="UTF-8" standalone="no"?>
<!DOCTYPE svg PUBLIC "-//W3C//DTD SVG 1.1//EN"
 "http://www.w3.org/Graphics/SVG/1.1/DTD/svg11.dtd">
<!-- Generated by graphviz version 2.43.0 (0)
 -->
<!-- Title: ccf::MemberCOSESign1AuthnIdentity Pages: 1 -->
<svg width="485pt" height="181pt"
 viewBox="0.00 0.00 485.00 181.00" xmlns="http://www.w3.org/2000/svg" xmlns:xlink="http://www.w3.org/1999/xlink">
<g id="graph0" class="graph" transform="scale(1 1) rotate(0) translate(4 177)">
<title>ccf::MemberCOSESign1AuthnIdentity</title>
<!-- Node1 -->
<g id="node1" class="node">
<title>Node1</title>
<g id="a_node1"><a xlink:title=" ">
<polygon fill="#999999" stroke="#666666" points="477,-104.5 319,-104.5 319,-74.5 477,-74.5 477,-104.5"/>
<text text-anchor="start" x="327" y="-92.5" font-family="Helvetica,sans-Serif" font-size="10.00">ccf::MemberCOSESign1Authn</text>
<text text-anchor="middle" x="398" y="-81.5" font-family="Helvetica,sans-Serif" font-size="10.00">Identity</text>
</a>
</g>
</g>
<!-- Node2 -->
<g id="node2" class="node">
<title>Node2</title>
<g id="a_node2"><a xlink:href="structccf_1_1AuthnIdentity.html" target="_top" xlink:title=" ">
<polygon fill="white" stroke="#666666" points="148,-173 46,-173 46,-154 148,-154 148,-173"/>
<text text-anchor="middle" x="97" y="-161" font-family="Helvetica,sans-Serif" font-size="10.00">ccf::AuthnIdentity</text>
</a>
</g>
</g>
<!-- Node2&#45;&gt;Node1 -->
<g id="edge1" class="edge">
<title>Node2&#45;&gt;Node1</title>
<path fill="none" stroke="#63b8ff" d="M158.41,-157.06C199.21,-151.82 253.99,-143.04 301,-129.5 323.38,-123.05 347.58,-112.95 366.09,-104.51"/>
<polygon fill="#63b8ff" stroke="#63b8ff" points="157.84,-153.6 148.35,-158.32 158.71,-160.55 157.84,-153.6"/>
</g>
<!-- Node3 -->
<g id="node3" class="node">
<title>Node3</title>
<g id="a_node3"><a xlink:href="structccf_1_1EntityId.html" target="_top" xlink:title=" ">
<polygon fill="white" stroke="#666666" points="194,-136 0,-136 0,-117 194,-117 194,-136"/>
<text text-anchor="middle" x="97" y="-124" font-family="Helvetica,sans-Serif" font-size="10.00">ccf::EntityId&lt; MemberIdFormatter &gt;</text>
</a>
</g>
</g>
<!-- Node3&#45;&gt;Node1 -->
<g id="edge2" class="edge">
<title>Node3&#45;&gt;Node1</title>
<path fill="none" stroke="#9a32cd" stroke-dasharray="5,2" d="M204.17,-115.95C235.4,-112.58 269.61,-108.65 301,-104.5 306.85,-103.73 312.9,-102.88 318.98,-102.01"/>
<polygon fill="#9a32cd" stroke="#9a32cd" points="203.72,-112.47 194.15,-117.02 204.46,-119.44 203.72,-112.47"/>
<text text-anchor="middle" x="256.5" y="-117.5" font-family="Helvetica,sans-Serif" font-size="10.00"> member_id</text>
</g>
<!-- Node4 -->
<g id="node4" class="node">
<title>Node4</title>
<g id="a_node4"><a xlink:href="classcrypto_1_1Pem.html" target="_top" xlink:title=" ">
<polygon fill="white" stroke="#666666" points="134.5,-99 59.5,-99 59.5,-80 134.5,-80 134.5,-99"/>
<text text-anchor="middle" x="97" y="-87" font-family="Helvetica,sans-Serif" font-size="10.00">crypto::Pem</text>
</a>
</g>
</g>
<!-- Node4&#45;&gt;Node1 -->
<g id="edge3" class="edge">
<title>Node4&#45;&gt;Node1</title>
<path fill="none" stroke="#9a32cd" stroke-dasharray="5,2" d="M144.76,-89.5C191.3,-89.5 263.57,-89.5 318.84,-89.5"/>
<polygon fill="#9a32cd" stroke="#9a32cd" points="144.66,-86 134.66,-89.5 144.66,-93 144.66,-86"/>
<text text-anchor="middle" x="256.5" y="-92.5" font-family="Helvetica,sans-Serif" font-size="10.00"> member_cert</text>
</g>
<!-- Node5 -->
<g id="node5" class="node">
<title>Node5</title>
<g id="a_node5"><a xlink:href="structccf_1_1ProtectedHeader.html" target="_top" xlink:title=" ">
<polygon fill="white" stroke="#666666" points="156,-62 38,-62 38,-43 156,-43 156,-62"/>
<text text-anchor="middle" x="97" y="-50" font-family="Helvetica,sans-Serif" font-size="10.00">ccf::ProtectedHeader</text>
</a>
</g>
</g>
<!-- Node5&#45;&gt;Node1 -->
<g id="edge4" class="edge">
<title>Node5&#45;&gt;Node1</title>
<path fill="none" stroke="#9a32cd" stroke-dasharray="5,2" d="M166.31,-59.09C205.73,-63.1 256.22,-68.58 301,-74.5 306.85,-75.27 312.9,-76.12 318.98,-76.99"/>
<polygon fill="#9a32cd" stroke="#9a32cd" points="166.58,-55.6 156.28,-58.08 165.87,-62.57 166.58,-55.6"/>
<text text-anchor="middle" x="256.5" y="-77.5" font-family="Helvetica,sans-Serif" font-size="10.00"> protected_header</text>
</g>
<!-- Node6 -->
<g id="node6" class="node">
<title>Node6</title>
<g id="a_node6"><a xlink:title=" ">
<polygon fill="white" stroke="#666666" points="170,-19 24,-19 24,0 170,0 170,-19"/>
<text text-anchor="middle" x="97" y="-7" font-family="Helvetica,sans-Serif" font-size="10.00">std::span&lt; const uint8_t &gt;</text>
</a>
</g>
</g>
<!-- Node6&#45;&gt;Node1 -->
<g id="edge5" class="edge">
<title>Node6&#45;&gt;Node1</title>
<path fill="none" stroke="#9a32cd" stroke-dasharray="5,2" d="M180.71,-14.15C218.14,-17.96 262.53,-24.89 301,-37.5 327.84,-46.3 355.96,-62.47 374.77,-74.45"/>
<polygon fill="#9a32cd" stroke="#9a32cd" points="180.63,-10.62 170.34,-13.15 179.97,-17.59 180.63,-10.62"/>
<text text-anchor="middle" x="256.5" y="-51.5" font-family="Helvetica,sans-Serif" font-size="10.00"> content</text>
<text text-anchor="middle" x="256.5" y="-40.5" font-family="Helvetica,sans-Serif" font-size="10.00">envelope</text>
</g>
</g>
</svg>
