<?xml version="1.0" encoding="UTF-8" standalone="no"?>
<!DOCTYPE svg PUBLIC "-//W3C//DTD SVG 1.1//EN"
 "http://www.w3.org/Graphics/SVG/1.1/DTD/svg11.dtd">
<!-- Generated by graphviz version 2.43.0 (0)
 -->
<!-- Title: ccf::historical::StateCacheImpl Pages: 1 -->
<svg width="2187pt" height="392pt"
 viewBox="0.00 0.00 2187.00 392.00" xmlns="http://www.w3.org/2000/svg" xmlns:xlink="http://www.w3.org/1999/xlink">
<g id="graph0" class="graph" transform="scale(1 1) rotate(0) translate(4 388)">
<title>ccf::historical::StateCacheImpl</title>
<!-- Node1 -->
<g id="node1" class="node">
<title>Node1</title>
<g id="a_node1"><a xlink:title=" ">
<polygon fill="#999999" stroke="#666666" points="2179,-201.5 2015,-201.5 2015,-182.5 2179,-182.5 2179,-201.5"/>
<text text-anchor="middle" x="2097" y="-189.5" font-family="Helvetica,sans-Serif" font-size="10.00">ccf::historical::StateCacheImpl</text>
</a>
</g>
</g>
<!-- Node2 -->
<g id="node2" class="node">
<title>Node2</title>
<g id="a_node2"><a xlink:href="classkv_1_1Store.html" target="_top" xlink:title=" ">
<polygon fill="white" stroke="#666666" points="1800,-292.5 1741,-292.5 1741,-273.5 1800,-273.5 1800,-292.5"/>
<text text-anchor="middle" x="1770.5" y="-280.5" font-family="Helvetica,sans-Serif" font-size="10.00">kv::Store</text>
</a>
</g>
</g>
<!-- Node2&#45;&gt;Node1 -->
<g id="edge1" class="edge">
<title>Node2&#45;&gt;Node1</title>
<path fill="none" stroke="#9a32cd" stroke-dasharray="5,2" d="M1810.22,-282.12C1856.03,-280.05 1934.04,-273.22 1997,-251 2030.77,-239.08 2065.72,-214.99 2083.69,-201.57"/>
<polygon fill="#9a32cd" stroke="#9a32cd" points="1809.97,-278.63 1800.12,-282.53 1810.25,-285.62 1809.97,-278.63"/>
<text text-anchor="middle" x="1934.5" y="-279" font-family="Helvetica,sans-Serif" font-size="10.00"> source_store</text>
</g>
<!-- Node3 -->
<g id="node3" class="node">
<title>Node3</title>
<g id="a_node3"><a xlink:href="classkv_1_1AbstractStore.html" target="_top" xlink:title=" ">
<polygon fill="white" stroke="#666666" points="1556,-240.5 1456,-240.5 1456,-221.5 1556,-221.5 1556,-240.5"/>
<text text-anchor="middle" x="1506" y="-228.5" font-family="Helvetica,sans-Serif" font-size="10.00">kv::AbstractStore</text>
</a>
</g>
</g>
<!-- Node3&#45;&gt;Node2 -->
<g id="edge2" class="edge">
<title>Node3&#45;&gt;Node2</title>
<path fill="none" stroke="#63b8ff" d="M1565.01,-242.49C1619.47,-253.28 1698.67,-268.97 1740.73,-277.3"/>
<polygon fill="#63b8ff" stroke="#63b8ff" points="1565.64,-239.05 1555.15,-240.54 1564.28,-245.91 1565.64,-239.05"/>
</g>
<!-- Node4 -->
<g id="node4" class="node">
<title>Node4</title>
<g id="a_node4"><a xlink:href="classkv_1_1StoreState.html" target="_top" xlink:title=" ">
<polygon fill="white" stroke="#666666" points="1548.5,-314.5 1463.5,-314.5 1463.5,-295.5 1548.5,-295.5 1548.5,-314.5"/>
<text text-anchor="middle" x="1506" y="-302.5" font-family="Helvetica,sans-Serif" font-size="10.00">kv::StoreState</text>
</a>
</g>
</g>
<!-- Node4&#45;&gt;Node2 -->
<g id="edge3" class="edge">
<title>Node4&#45;&gt;Node2</title>
<path fill="none" stroke="#63b8ff" d="M1558.74,-300.66C1613.19,-296.1 1696.94,-289.08 1740.67,-285.42"/>
<polygon fill="#63b8ff" stroke="#63b8ff" points="1558.27,-297.19 1548.59,-301.51 1558.85,-304.17 1558.27,-297.19"/>
</g>
<!-- Node5 -->
<g id="node5" class="node">
<title>Node5</title>
<g id="a_node5"><a xlink:title=" ">
<polygon fill="white" stroke="#666666" points="1207.5,-371.5 1138.5,-371.5 1138.5,-352.5 1207.5,-352.5 1207.5,-371.5"/>
<text text-anchor="middle" x="1173" y="-359.5" font-family="Helvetica,sans-Serif" font-size="10.00">std::mutex</text>
</a>
</g>
</g>
<!-- Node5&#45;&gt;Node1 -->
<g id="edge17" class="edge">
<title>Node5&#45;&gt;Node1</title>
<path fill="none" stroke="#9a32cd" stroke-dasharray="5,2" d="M1217.7,-365.79C1234.64,-367.09 1254.21,-368.37 1272,-369 1335.07,-371.25 1350.91,-370.52 1414,-369 1675.34,-362.71 1764.62,-410.76 1997,-291 2039.78,-268.95 2075.61,-221.79 2089.65,-201.55"/>
<polygon fill="#9a32cd" stroke="#9a32cd" points="1217.78,-362.29 1207.53,-364.99 1217.23,-369.26 1217.78,-362.29"/>
<text text-anchor="middle" x="1633.5" y="-376" font-family="Helvetica,sans-Serif" font-size="10.00"> requests_lock</text>
</g>
<!-- Node5&#45;&gt;Node4 -->
<g id="edge4" class="edge">
<title>Node5&#45;&gt;Node4</title>
<path fill="none" stroke="#9a32cd" stroke-dasharray="5,2" d="M1215.77,-349.66C1233.06,-344.89 1253.38,-339.69 1272,-336 1338.45,-322.82 1416.69,-313.7 1463.49,-308.91"/>
<polygon fill="#9a32cd" stroke="#9a32cd" points="1214.66,-346.34 1205.98,-352.41 1216.55,-353.08 1214.66,-346.34"/>
<text text-anchor="middle" x="1343" y="-361" font-family="Helvetica,sans-Serif" font-size="10.00"> commit_lock</text>
<text text-anchor="middle" x="1343" y="-350" font-family="Helvetica,sans-Serif" font-size="10.00">maps_lock</text>
<text text-anchor="middle" x="1343" y="-339" font-family="Helvetica,sans-Serif" font-size="10.00">version_lock</text>
</g>
<!-- Node6 -->
<g id="node6" class="node">
<title>Node6</title>
<g id="a_node6"><a xlink:title=" ">
<polygon fill="white" stroke="#666666" points="1244.5,-328 1101.5,-328 1101.5,-276 1244.5,-276 1244.5,-328"/>
<text text-anchor="start" x="1109.5" y="-316" font-family="Helvetica,sans-Serif" font-size="10.00">std::map&lt; std::string,</text>
<text text-anchor="start" x="1109.5" y="-305" font-family="Helvetica,sans-Serif" font-size="10.00"> std::pair&lt; kv::Version,</text>
<text text-anchor="start" x="1109.5" y="-294" font-family="Helvetica,sans-Serif" font-size="10.00"> std::shared_ptr&lt; untyped</text>
<text text-anchor="middle" x="1173" y="-283" font-family="Helvetica,sans-Serif" font-size="10.00">::Map &gt; &gt; &gt;</text>
</a>
</g>
</g>
<!-- Node6&#45;&gt;Node4 -->
<g id="edge5" class="edge">
<title>Node6&#45;&gt;Node4</title>
<path fill="none" stroke="#9a32cd" stroke-dasharray="5,2" d="M1254.66,-301.34C1301.23,-301.12 1360.92,-301.13 1414,-302 1430.12,-302.27 1447.84,-302.8 1463.33,-303.34"/>
<polygon fill="#9a32cd" stroke="#9a32cd" points="1254.61,-297.84 1244.63,-301.39 1254.65,-304.84 1254.61,-297.84"/>
<text text-anchor="middle" x="1343" y="-305" font-family="Helvetica,sans-Serif" font-size="10.00"> maps</text>
</g>
<!-- Node7 -->
<g id="node7" class="node">
<title>Node7</title>
<g id="a_node7"><a xlink:title=" ">
<polygon fill="white" stroke="#666666" points="953,-311.5 888,-311.5 888,-292.5 953,-292.5 953,-311.5"/>
<text text-anchor="middle" x="920.5" y="-299.5" font-family="Helvetica,sans-Serif" font-size="10.00">std::string</text>
</a>
</g>
</g>
<!-- Node7&#45;&gt;Node6 -->
<g id="edge6" class="edge">
<title>Node7&#45;&gt;Node6</title>
<path fill="none" stroke="#9a32cd" stroke-dasharray="5,2" d="M963.32,-302C1000.92,-302 1056.91,-302 1101.44,-302"/>
<polygon fill="#9a32cd" stroke="#9a32cd" points="963.23,-298.5 953.23,-302 963.23,-305.5 963.23,-298.5"/>
<text text-anchor="middle" x="1049.5" y="-305" font-family="Helvetica,sans-Serif" font-size="10.00"> keys</text>
</g>
<!-- Node8 -->
<g id="node8" class="node">
<title>Node8</title>
<g id="a_node8"><a xlink:title=" ">
<polygon fill="white" stroke="#666666" points="669,-317 565,-317 565,-287 669,-287 669,-317"/>
<text text-anchor="start" x="573" y="-305" font-family="Helvetica,sans-Serif" font-size="10.00">std::basic_string&lt;</text>
<text text-anchor="middle" x="617" y="-294" font-family="Helvetica,sans-Serif" font-size="10.00"> Char &gt;</text>
</a>
</g>
</g>
<!-- Node8&#45;&gt;Node7 -->
<g id="edge7" class="edge">
<title>Node8&#45;&gt;Node7</title>
<path fill="none" stroke="#63b8ff" d="M679.36,-302C742.45,-302 838.23,-302 887.6,-302"/>
<polygon fill="#63b8ff" stroke="#63b8ff" points="679.15,-298.5 669.15,-302 679.15,-305.5 679.15,-298.5"/>
</g>
<!-- Node9 -->
<g id="node9" class="node">
<title>Node9</title>
<g id="a_node9"><a xlink:title=" ">
<polygon fill="white" stroke="#666666" points="1240,-258 1106,-258 1106,-206 1240,-206 1240,-258"/>
<text text-anchor="start" x="1114" y="-246" font-family="Helvetica,sans-Serif" font-size="10.00">std::unordered_map</text>
<text text-anchor="start" x="1114" y="-235" font-family="Helvetica,sans-Serif" font-size="10.00">&lt; Version, std::tuple</text>
<text text-anchor="start" x="1114" y="-224" font-family="Helvetica,sans-Serif" font-size="10.00">&lt; std::unique_ptr&lt; kv</text>
<text text-anchor="middle" x="1173" y="-213" font-family="Helvetica,sans-Serif" font-size="10.00">::PendingTx &gt;, bool &gt; &gt;</text>
</a>
</g>
</g>
<!-- Node9&#45;&gt;Node4 -->
<g id="edge8" class="edge">
<title>Node9&#45;&gt;Node4</title>
<path fill="none" stroke="#9a32cd" stroke-dasharray="5,2" d="M1250.15,-248.79C1316.28,-263.38 1409.6,-283.96 1463.04,-295.75"/>
<polygon fill="#9a32cd" stroke="#9a32cd" points="1250.71,-245.33 1240.19,-246.6 1249.2,-252.17 1250.71,-245.33"/>
<text text-anchor="middle" x="1343" y="-286" font-family="Helvetica,sans-Serif" font-size="10.00"> pending_txs</text>
</g>
<!-- Node10 -->
<g id="node10" class="node">
<title>Node10</title>
<g id="a_node10"><a xlink:href="classkv_1_1ExecutionWrapperStore.html" target="_top" xlink:title=" ">
<polygon fill="white" stroke="#666666" points="1580,-277.5 1432,-277.5 1432,-258.5 1580,-258.5 1580,-277.5"/>
<text text-anchor="middle" x="1506" y="-265.5" font-family="Helvetica,sans-Serif" font-size="10.00">kv::ExecutionWrapperStore</text>
</a>
</g>
</g>
<!-- Node10&#45;&gt;Node2 -->
<g id="edge9" class="edge">
<title>Node10&#45;&gt;Node2</title>
<path fill="none" stroke="#63b8ff" d="M1590.28,-272.76C1641.9,-275.71 1705,-279.31 1740.89,-281.37"/>
<polygon fill="#63b8ff" stroke="#63b8ff" points="1590.3,-269.25 1580.12,-272.18 1589.9,-276.24 1590.3,-269.25"/>
</g>
<!-- Node11 -->
<g id="node11" class="node">
<title>Node11</title>
<g id="a_node11"><a xlink:href="classkv_1_1ReadOnlyStore.html" target="_top" xlink:title=" ">
<polygon fill="white" stroke="#666666" points="1559.5,-351.5 1452.5,-351.5 1452.5,-332.5 1559.5,-332.5 1559.5,-351.5"/>
<text text-anchor="middle" x="1506" y="-339.5" font-family="Helvetica,sans-Serif" font-size="10.00">kv::ReadOnlyStore</text>
</a>
</g>
</g>
<!-- Node11&#45;&gt;Node2 -->
<g id="edge10" class="edge">
<title>Node11&#45;&gt;Node2</title>
<path fill="none" stroke="#63b8ff" d="M1564.78,-330.41C1595.75,-324.07 1634.52,-315.9 1669,-308 1693.36,-302.42 1720.9,-295.53 1740.98,-290.39"/>
<polygon fill="#63b8ff" stroke="#63b8ff" points="1563.69,-327.06 1554.59,-332.49 1565.09,-333.92 1563.69,-327.06"/>
</g>
<!-- Node12 -->
<g id="node12" class="node">
<title>Node12</title>
<g id="a_node12"><a xlink:title=" ">
<polygon fill="white" stroke="#666666" points="1828,-255 1713,-255 1713,-225 1828,-225 1828,-255"/>
<text text-anchor="start" x="1721" y="-243" font-family="Helvetica,sans-Serif" font-size="10.00">std::shared_ptr&lt; ccf</text>
<text text-anchor="middle" x="1770.5" y="-232" font-family="Helvetica,sans-Serif" font-size="10.00">::LedgerSecrets &gt;</text>
</a>
</g>
</g>
<!-- Node12&#45;&gt;Node1 -->
<g id="edge11" class="edge">
<title>Node12&#45;&gt;Node1</title>
<path fill="none" stroke="#9a32cd" stroke-dasharray="5,2" d="M1837.95,-230.37C1882.87,-223.83 1943.52,-214.97 1997,-207 2008.78,-205.25 2021.34,-203.36 2033.43,-201.53"/>
<polygon fill="#9a32cd" stroke="#9a32cd" points="1837.43,-226.9 1828.04,-231.81 1838.44,-233.83 1837.43,-226.9"/>
<text text-anchor="middle" x="1934.5" y="-239" font-family="Helvetica,sans-Serif" font-size="10.00"> historical_ledger_secrets</text>
<text text-anchor="middle" x="1934.5" y="-228" font-family="Helvetica,sans-Serif" font-size="10.00">source_ledger_secrets</text>
</g>
<!-- Node13 -->
<g id="node13" class="node">
<title>Node13</title>
<g id="a_node13"><a xlink:href="classccf_1_1LedgerSecrets.html" target="_top" xlink:title=" ">
<polygon fill="white" stroke="#666666" points="1558.5,-203.5 1453.5,-203.5 1453.5,-184.5 1558.5,-184.5 1558.5,-203.5"/>
<text text-anchor="middle" x="1506" y="-191.5" font-family="Helvetica,sans-Serif" font-size="10.00">ccf::LedgerSecrets</text>
</a>
</g>
</g>
<!-- Node13&#45;&gt;Node12 -->
<g id="edge12" class="edge">
<title>Node13&#45;&gt;Node12</title>
<path fill="none" stroke="#9a32cd" stroke-dasharray="5,2" d="M1568.87,-192.37C1599.55,-193.12 1636.83,-196.38 1669,-206 1677.77,-208.62 1678.55,-212.48 1687,-216 1695.26,-219.44 1704.18,-222.59 1713,-225.39"/>
<polygon fill="#9a32cd" stroke="#9a32cd" points="1568.79,-188.87 1558.73,-192.21 1568.68,-195.87 1568.79,-188.87"/>
<text text-anchor="middle" x="1633.5" y="-209" font-family="Helvetica,sans-Serif" font-size="10.00"> ptr</text>
</g>
<!-- Node14 -->
<g id="node14" class="node">
<title>Node14</title>
<g id="a_node14"><a xlink:title=" ">
<polygon fill="white" stroke="#666666" points="1841,-207 1700,-207 1700,-177 1841,-177 1841,-207"/>
<text text-anchor="start" x="1708" y="-195" font-family="Helvetica,sans-Serif" font-size="10.00">std::shared_ptr&lt; Abstract</text>
<text text-anchor="middle" x="1770.5" y="-184" font-family="Helvetica,sans-Serif" font-size="10.00">Writer &gt;</text>
</a>
</g>
</g>
<!-- Node14&#45;&gt;Node1 -->
<g id="edge13" class="edge">
<title>Node14&#45;&gt;Node1</title>
<path fill="none" stroke="#9a32cd" stroke-dasharray="5,2" d="M1851.18,-192C1900.91,-192 1964.74,-192 2014.76,-192"/>
<polygon fill="#9a32cd" stroke="#9a32cd" points="1851.11,-188.5 1841.11,-192 1851.11,-195.5 1851.11,-188.5"/>
<text text-anchor="middle" x="1934.5" y="-195" font-family="Helvetica,sans-Serif" font-size="10.00"> to_host</text>
</g>
<!-- Node15 -->
<g id="node15" class="node">
<title>Node15</title>
<g id="a_node15"><a xlink:title=" ">
<polygon fill="white" stroke="#666666" points="1827,-159 1714,-159 1714,-129 1827,-129 1827,-159"/>
<text text-anchor="start" x="1722" y="-147" font-family="Helvetica,sans-Serif" font-size="10.00">std::shared_ptr&lt; kv</text>
<text text-anchor="middle" x="1770.5" y="-136" font-family="Helvetica,sans-Serif" font-size="10.00">::TxEncryptor &gt;</text>
</a>
</g>
</g>
<!-- Node15&#45;&gt;Node1 -->
<g id="edge14" class="edge">
<title>Node15&#45;&gt;Node1</title>
<path fill="none" stroke="#9a32cd" stroke-dasharray="5,2" d="M1837.04,-153.5C1882.05,-160.05 1943.15,-168.98 1997,-177 2008.78,-178.75 2021.34,-180.64 2033.43,-182.47"/>
<polygon fill="#9a32cd" stroke="#9a32cd" points="1837.51,-150.03 1827.11,-152.06 1836.51,-156.96 1837.51,-150.03"/>
<text text-anchor="middle" x="1934.5" y="-180" font-family="Helvetica,sans-Serif" font-size="10.00"> historical_encryptor</text>
</g>
<!-- Node16 -->
<g id="node16" class="node">
<title>Node16</title>
<g id="a_node16"><a xlink:href="classkv_1_1TxEncryptor.html" target="_top" xlink:title=" ">
<polygon fill="white" stroke="#666666" points="1572.5,-158.5 1439.5,-158.5 1439.5,-139.5 1572.5,-139.5 1572.5,-158.5"/>
<text text-anchor="middle" x="1506" y="-146.5" font-family="Helvetica,sans-Serif" font-size="10.00">kv::TxEncryptor&lt; T, S &gt;</text>
</a>
</g>
</g>
<!-- Node16&#45;&gt;Node15 -->
<g id="edge15" class="edge">
<title>Node16&#45;&gt;Node15</title>
<path fill="none" stroke="#9a32cd" stroke-dasharray="5,2" d="M1582.7,-147.56C1624.49,-146.76 1675.5,-145.79 1713.65,-145.06"/>
<polygon fill="#9a32cd" stroke="#9a32cd" points="1582.49,-144.06 1572.56,-147.75 1582.63,-151.06 1582.49,-144.06"/>
<text text-anchor="middle" x="1633.5" y="-150" font-family="Helvetica,sans-Serif" font-size="10.00"> ptr</text>
</g>
<!-- Node17 -->
<g id="node17" class="node">
<title>Node17</title>
<g id="a_node17"><a xlink:href="classkv_1_1AbstractTxEncryptor.html" target="_top" xlink:title=" ">
<polygon fill="white" stroke="#666666" points="1239.5,-175.5 1106.5,-175.5 1106.5,-156.5 1239.5,-156.5 1239.5,-175.5"/>
<text text-anchor="middle" x="1173" y="-163.5" font-family="Helvetica,sans-Serif" font-size="10.00">kv::AbstractTxEncryptor</text>
</a>
</g>
</g>
<!-- Node17&#45;&gt;Node16 -->
<g id="edge16" class="edge">
<title>Node17&#45;&gt;Node16</title>
<path fill="none" stroke="#63b8ff" d="M1249.87,-162.1C1307.08,-159.16 1384.77,-155.18 1439.33,-152.37"/>
<polygon fill="#63b8ff" stroke="#63b8ff" points="1249.6,-158.61 1239.79,-162.62 1249.96,-165.6 1249.6,-158.61"/>
</g>
<!-- Node18 -->
<g id="node18" class="node">
<title>Node18</title>
<g id="a_node18"><a xlink:title=" ">
<polygon fill="white" stroke="#666666" points="1854,-110.5 1687,-110.5 1687,-69.5 1854,-69.5 1854,-110.5"/>
<text text-anchor="start" x="1695" y="-98.5" font-family="Helvetica,sans-Serif" font-size="10.00">std::map&lt; CompoundHandle,</text>
<text text-anchor="start" x="1695" y="-87.5" font-family="Helvetica,sans-Serif" font-size="10.00"> ccf::historical::StateCacheImpl</text>
<text text-anchor="middle" x="1770.5" y="-76.5" font-family="Helvetica,sans-Serif" font-size="10.00">::Request &gt;</text>
</a>
</g>
</g>
<!-- Node18&#45;&gt;Node1 -->
<g id="edge18" class="edge">
<title>Node18&#45;&gt;Node1</title>
<path fill="none" stroke="#9a32cd" stroke-dasharray="5,2" d="M1864.27,-106.81C1905.54,-115.56 1954.35,-127.66 1997,-143 2027.32,-153.9 2060.48,-171.6 2079.7,-182.48"/>
<polygon fill="#9a32cd" stroke="#9a32cd" points="1864.73,-103.33 1854.22,-104.71 1863.3,-110.18 1864.73,-103.33"/>
<text text-anchor="middle" x="1934.5" y="-146" font-family="Helvetica,sans-Serif" font-size="10.00"> requests</text>
</g>
<!-- Node19 -->
<g id="node19" class="node">
<title>Node19</title>
<g id="a_node19"><a xlink:href="structccf_1_1historical_1_1StateCacheImpl_1_1Request.html" target="_top" xlink:title=" ">
<polygon fill="white" stroke="#666666" points="1577.5,-98 1434.5,-98 1434.5,-68 1577.5,-68 1577.5,-98"/>
<text text-anchor="start" x="1442.5" y="-86" font-family="Helvetica,sans-Serif" font-size="10.00">ccf::historical::StateCache</text>
<text text-anchor="middle" x="1506" y="-75" font-family="Helvetica,sans-Serif" font-size="10.00">Impl::Request</text>
</a>
</g>
</g>
<!-- Node19&#45;&gt;Node18 -->
<g id="edge19" class="edge">
<title>Node19&#45;&gt;Node18</title>
<path fill="none" stroke="#9a32cd" stroke-dasharray="5,2" d="M1587.7,-85.15C1619.08,-85.99 1654.99,-86.95 1686.57,-87.79"/>
<polygon fill="#9a32cd" stroke="#9a32cd" points="1587.78,-81.65 1577.69,-84.89 1587.59,-88.65 1587.78,-81.65"/>
<text text-anchor="middle" x="1633.5" y="-91" font-family="Helvetica,sans-Serif" font-size="10.00"> elements</text>
</g>
<!-- Node20 -->
<g id="node20" class="node">
<title>Node20</title>
<g id="a_node20"><a xlink:href="classds_1_1ContiguousSet.html" target="_top" xlink:title=" ">
<polygon fill="white" stroke="#666666" points="1229.5,-30 1116.5,-30 1116.5,0 1229.5,0 1229.5,-30"/>
<text text-anchor="start" x="1124.5" y="-18" font-family="Helvetica,sans-Serif" font-size="10.00">ds::ContiguousSet&lt;</text>
<text text-anchor="middle" x="1173" y="-7" font-family="Helvetica,sans-Serif" font-size="10.00"> ccf::SeqNo &gt;</text>
</a>
</g>
</g>
<!-- Node20&#45;&gt;Node19 -->
<g id="edge20" class="edge">
<title>Node20&#45;&gt;Node19</title>
<path fill="none" stroke="#9a32cd" stroke-dasharray="5,2" d="M1239.56,-25.63C1287.96,-33.81 1355.33,-45.91 1414,-59 1425.96,-61.67 1438.72,-64.83 1450.79,-67.98"/>
<polygon fill="#9a32cd" stroke="#9a32cd" points="1239.97,-22.15 1229.53,-23.94 1238.81,-29.05 1239.97,-22.15"/>
<text text-anchor="middle" x="1343" y="-62" font-family="Helvetica,sans-Serif" font-size="10.00"> requested_seqnos</text>
</g>
<!-- Node21 -->
<g id="node21" class="node">
<title>Node21</title>
<g id="a_node21"><a xlink:title=" ">
<polygon fill="white" stroke="#666666" points="1235.5,-138 1110.5,-138 1110.5,-108 1235.5,-108 1235.5,-138"/>
<text text-anchor="start" x="1118.5" y="-126" font-family="Helvetica,sans-Serif" font-size="10.00">std::map&lt; ccf::SeqNo,</text>
<text text-anchor="middle" x="1173" y="-115" font-family="Helvetica,sans-Serif" font-size="10.00"> StoreDetailsPtr &gt;</text>
</a>
</g>
</g>
<!-- Node21&#45;&gt;Node19 -->
<g id="edge21" class="edge">
<title>Node21&#45;&gt;Node19</title>
<path fill="none" stroke="#9a32cd" stroke-dasharray="5,2" d="M1246.04,-114.29C1301.85,-107.55 1378.76,-98.26 1434.25,-91.55"/>
<polygon fill="#9a32cd" stroke="#9a32cd" points="1245.38,-110.85 1235.87,-115.52 1246.22,-117.8 1245.38,-110.85"/>
<text text-anchor="middle" x="1343" y="-125" font-family="Helvetica,sans-Serif" font-size="10.00"> requested_stores</text>
<text text-anchor="middle" x="1343" y="-114" font-family="Helvetica,sans-Serif" font-size="10.00">supporting_signatures</text>
</g>
<!-- Node22 -->
<g id="node22" class="node">
<title>Node22</title>
<g id="a_node22"><a xlink:title=" ">
<polygon fill="white" stroke="#666666" points="979.5,-132.5 861.5,-132.5 861.5,-113.5 979.5,-113.5 979.5,-132.5"/>
<text text-anchor="middle" x="920.5" y="-120.5" font-family="Helvetica,sans-Serif" font-size="10.00">std::shared_ptr&lt; T &gt;</text>
</a>
</g>
</g>
<!-- Node22&#45;&gt;Node21 -->
<g id="edge22" class="edge">
<title>Node22&#45;&gt;Node21</title>
<path fill="none" stroke="#9a32cd" stroke-dasharray="5,2" d="M989.96,-123C1027.55,-123 1073.8,-123 1110.28,-123"/>
<polygon fill="#9a32cd" stroke="#9a32cd" points="989.6,-119.5 979.6,-123 989.6,-126.5 989.6,-119.5"/>
<text text-anchor="middle" x="1049.5" y="-126" font-family="Helvetica,sans-Serif" font-size="10.00"> elements</text>
</g>
<!-- Node23 -->
<g id="node23" class="node">
<title>Node23</title>
<g id="a_node23"><a xlink:title=" ">
<polygon fill="white" stroke="#666666" points="631.5,-132.5 602.5,-132.5 602.5,-113.5 631.5,-113.5 631.5,-132.5"/>
<text text-anchor="middle" x="617" y="-120.5" font-family="Helvetica,sans-Serif" font-size="10.00">T</text>
</a>
</g>
</g>
<!-- Node23&#45;&gt;Node22 -->
<g id="edge23" class="edge">
<title>Node23&#45;&gt;Node22</title>
<path fill="none" stroke="#9a32cd" stroke-dasharray="5,2" d="M641.86,-123C688.87,-123 794.68,-123 861.25,-123"/>
<polygon fill="#9a32cd" stroke="#9a32cd" points="641.74,-119.5 631.74,-123 641.74,-126.5 641.74,-119.5"/>
<text text-anchor="middle" x="769.5" y="-126" font-family="Helvetica,sans-Serif" font-size="10.00"> ptr</text>
</g>
<!-- Node24 -->
<g id="node24" class="node">
<title>Node24</title>
<g id="a_node24"><a xlink:title=" ">
<polygon fill="white" stroke="#666666" points="1254,-89.5 1092,-89.5 1092,-48.5 1254,-48.5 1254,-89.5"/>
<text text-anchor="start" x="1100" y="-77.5" font-family="Helvetica,sans-Serif" font-size="10.00">std::unique_ptr&lt; ccf</text>
<text text-anchor="start" x="1100" y="-66.5" font-family="Helvetica,sans-Serif" font-size="10.00">::historical::StateCacheImpl</text>
<text text-anchor="middle" x="1173" y="-55.5" font-family="Helvetica,sans-Serif" font-size="10.00">::LedgerSecretRecoveryInfo &gt;</text>
</a>
</g>
</g>
<!-- Node24&#45;&gt;Node19 -->
<g id="edge24" class="edge">
<title>Node24&#45;&gt;Node19</title>
<path fill="none" stroke="#9a32cd" stroke-dasharray="5,2" d="M1264.3,-72.82C1317.82,-75.08 1384.67,-77.91 1434.33,-80.01"/>
<polygon fill="#9a32cd" stroke="#9a32cd" points="1264.26,-69.31 1254.13,-72.39 1263.97,-76.31 1264.26,-69.31"/>
<text text-anchor="middle" x="1343" y="-82" font-family="Helvetica,sans-Serif" font-size="10.00"> ledger_secret_recovery_info</text>
</g>
<!-- Node25 -->
<g id="node25" class="node">
<title>Node25</title>
<g id="a_node25"><a xlink:href="structccf_1_1historical_1_1StateCacheImpl_1_1LedgerSecretRecoveryInfo.html" target="_top" xlink:title=" ">
<polygon fill="white" stroke="#666666" points="1007,-84 834,-84 834,-54 1007,-54 1007,-84"/>
<text text-anchor="start" x="842" y="-72" font-family="Helvetica,sans-Serif" font-size="10.00">ccf::historical::StateCache</text>
<text text-anchor="middle" x="920.5" y="-61" font-family="Helvetica,sans-Serif" font-size="10.00">Impl::LedgerSecretRecoveryInfo</text>
</a>
</g>
</g>
<!-- Node25&#45;&gt;Node24 -->
<g id="edge25" class="edge">
<title>Node25&#45;&gt;Node24</title>
<path fill="none" stroke="#9a32cd" stroke-dasharray="5,2" d="M1017.11,-69C1041.81,-69 1068.13,-69 1091.94,-69"/>
<polygon fill="#9a32cd" stroke="#9a32cd" points="1017.01,-65.5 1007.01,-69 1017.01,-72.5 1017.01,-65.5"/>
<text text-anchor="middle" x="1049.5" y="-72" font-family="Helvetica,sans-Serif" font-size="10.00"> ptr</text>
</g>
<!-- Node26 -->
<g id="node26" class="node">
<title>Node26</title>
<g id="a_node26"><a xlink:title=" ">
<polygon fill="white" stroke="#666666" points="705,-78.5 529,-78.5 529,-59.5 705,-59.5 705,-78.5"/>
<text text-anchor="middle" x="617" y="-66.5" font-family="Helvetica,sans-Serif" font-size="10.00">std::shared_ptr&lt; LedgerSecret &gt;</text>
</a>
</g>
</g>
<!-- Node26&#45;&gt;Node25 -->
<g id="edge26" class="edge">
<title>Node26&#45;&gt;Node25</title>
<path fill="none" stroke="#9a32cd" stroke-dasharray="5,2" d="M715.3,-69C753.45,-69 796.84,-69 833.79,-69"/>
<polygon fill="#9a32cd" stroke="#9a32cd" points="715.21,-65.5 705.21,-69 715.21,-72.5 715.21,-65.5"/>
<text text-anchor="middle" x="769.5" y="-72" font-family="Helvetica,sans-Serif" font-size="10.00"> last_ledger_secret</text>
</g>
<!-- Node27 -->
<g id="node27" class="node">
<title>Node27</title>
<g id="a_node27"><a xlink:href="structccf_1_1LedgerSecret.html" target="_top" xlink:title=" ">
<polygon fill="white" stroke="#666666" points="476,-78.5 376,-78.5 376,-59.5 476,-59.5 476,-78.5"/>
<text text-anchor="middle" x="426" y="-66.5" font-family="Helvetica,sans-Serif" font-size="10.00">ccf::LedgerSecret</text>
</a>
</g>
</g>
<!-- Node27&#45;&gt;Node26 -->
<g id="edge27" class="edge">
<title>Node27&#45;&gt;Node26</title>
<path fill="none" stroke="#9a32cd" stroke-dasharray="5,2" d="M486.22,-69C499.69,-69 514.28,-69 528.64,-69"/>
<polygon fill="#9a32cd" stroke="#9a32cd" points="486.16,-65.5 476.16,-69 486.16,-72.5 486.16,-65.5"/>
<text text-anchor="middle" x="502.5" y="-72" font-family="Helvetica,sans-Serif" font-size="10.00"> ptr</text>
</g>
<!-- Node28 -->
<g id="node28" class="node">
<title>Node28</title>
<g id="a_node28"><a xlink:title=" ">
<polygon fill="white" stroke="#666666" points="293,-99.5 168,-99.5 168,-80.5 293,-80.5 293,-99.5"/>
<text text-anchor="middle" x="230.5" y="-87.5" font-family="Helvetica,sans-Serif" font-size="10.00">std::vector&lt; uint8_t &gt;</text>
</a>
</g>
</g>
<!-- Node28&#45;&gt;Node27 -->
<g id="edge28" class="edge">
<title>Node28&#45;&gt;Node27</title>
<path fill="none" stroke="#9a32cd" stroke-dasharray="5,2" d="M303.43,-82.19C327.51,-79.58 353.8,-76.73 375.75,-74.35"/>
<polygon fill="#9a32cd" stroke="#9a32cd" points="302.82,-78.74 293.26,-83.3 303.58,-85.7 302.82,-78.74"/>
<text text-anchor="middle" x="336" y="-84" font-family="Helvetica,sans-Serif" font-size="10.00"> raw_key</text>
</g>
<!-- Node29 -->
<g id="node29" class="node">
<title>Node29</title>
<g id="a_node29"><a xlink:title=" ">
<polygon fill="white" stroke="#666666" points="296,-62 165,-62 165,-32 296,-32 296,-62"/>
<text text-anchor="start" x="173" y="-50" font-family="Helvetica,sans-Serif" font-size="10.00">std::shared_ptr&lt; crypto</text>
<text text-anchor="middle" x="230.5" y="-39" font-family="Helvetica,sans-Serif" font-size="10.00">::KeyAesGcm &gt;</text>
</a>
</g>
</g>
<!-- Node29&#45;&gt;Node27 -->
<g id="edge29" class="edge">
<title>Node29&#45;&gt;Node27</title>
<path fill="none" stroke="#9a32cd" stroke-dasharray="5,2" d="M306.43,-55.52C329.76,-58.17 354.89,-61.03 375.98,-63.43"/>
<polygon fill="#9a32cd" stroke="#9a32cd" points="306.53,-52.01 296.2,-54.36 305.74,-58.96 306.53,-52.01"/>
<text text-anchor="middle" x="336" y="-65" font-family="Helvetica,sans-Serif" font-size="10.00"> key</text>
</g>
<!-- Node30 -->
<g id="node30" class="node">
<title>Node30</title>
<g id="a_node30"><a xlink:href="classcrypto_1_1KeyAesGcm.html" target="_top" xlink:title=" ">
<polygon fill="white" stroke="#666666" points="112,-56.5 0,-56.5 0,-37.5 112,-37.5 112,-56.5"/>
<text text-anchor="middle" x="56" y="-44.5" font-family="Helvetica,sans-Serif" font-size="10.00">crypto::KeyAesGcm</text>
</a>
</g>
</g>
<!-- Node30&#45;&gt;Node29 -->
<g id="edge30" class="edge">
<title>Node30&#45;&gt;Node29</title>
<path fill="none" stroke="#9a32cd" stroke-dasharray="5,2" d="M122.06,-47C136.03,-47 150.78,-47 164.74,-47"/>
<polygon fill="#9a32cd" stroke="#9a32cd" points="122.05,-43.5 112.05,-47 122.05,-50.5 122.05,-43.5"/>
<text text-anchor="middle" x="138.5" y="-50" font-family="Helvetica,sans-Serif" font-size="10.00"> ptr</text>
</g>
<!-- Node31 -->
<g id="node31" class="node">
<title>Node31</title>
<g id="a_node31"><a xlink:title=" ">
<polygon fill="white" stroke="#666666" points="1833.5,-51.5 1707.5,-51.5 1707.5,-32.5 1833.5,-32.5 1833.5,-51.5"/>
<text text-anchor="middle" x="1770.5" y="-39.5" font-family="Helvetica,sans-Serif" font-size="10.00">std::set&lt; ccf::SeqNo &gt;</text>
</a>
</g>
</g>
<!-- Node31&#45;&gt;Node1 -->
<g id="edge31" class="edge">
<title>Node31&#45;&gt;Node1</title>
<path fill="none" stroke="#9a32cd" stroke-dasharray="5,2" d="M1843.6,-48.7C1889.78,-55.39 1949.69,-68.68 1997,-95 2038.22,-117.93 2074.35,-162.61 2089.03,-182.29"/>
<polygon fill="#9a32cd" stroke="#9a32cd" points="1844.05,-45.23 1833.67,-47.33 1843.1,-52.16 1844.05,-45.23"/>
<text text-anchor="middle" x="1934.5" y="-98" font-family="Helvetica,sans-Serif" font-size="10.00"> pending_fetches</text>
</g>
</g>
</svg>
