<?xml version="1.0" encoding="UTF-8" standalone="no"?>
<!DOCTYPE svg PUBLIC "-//W3C//DTD SVG 1.1//EN"
 "http://www.w3.org/Graphics/SVG/1.1/DTD/svg11.dtd">
<!-- Generated by graphviz version 2.43.0 (0)
 -->
<!-- Title: ccf::historical::StateCache Pages: 1 -->
<svg width="2367pt" height="451pt"
 viewBox="0.00 0.00 2367.00 451.00" xmlns="http://www.w3.org/2000/svg" xmlns:xlink="http://www.w3.org/1999/xlink">
<g id="graph0" class="graph" transform="scale(1 1) rotate(0) translate(4 447)">
<title>ccf::historical::StateCache</title>
<!-- Node1 -->
<g id="node1" class="node">
<title>Node1</title>
<g id="a_node1"><a xlink:title=" ">
<polygon fill="#999999" stroke="#666666" points="2359,-163.5 2216,-163.5 2216,-144.5 2359,-144.5 2359,-163.5"/>
<text text-anchor="middle" x="2287.5" y="-151.5" font-family="Helvetica,sans-Serif" font-size="10.00">ccf::historical::StateCache</text>
</a>
</g>
</g>
<!-- Node2 -->
<g id="node2" class="node">
<title>Node2</title>
<g id="a_node2"><a xlink:href="classccf_1_1historical_1_1StateCacheImpl.html" target="_top" xlink:title=" ">
<polygon fill="white" stroke="#666666" points="2179,-238.5 2015,-238.5 2015,-219.5 2179,-219.5 2179,-238.5"/>
<text text-anchor="middle" x="2097" y="-226.5" font-family="Helvetica,sans-Serif" font-size="10.00">ccf::historical::StateCacheImpl</text>
</a>
</g>
</g>
<!-- Node2&#45;&gt;Node1 -->
<g id="edge1" class="edge">
<title>Node2&#45;&gt;Node1</title>
<path fill="none" stroke="#63b8ff" d="M2131.77,-215.57C2169.35,-200.61 2229.16,-176.81 2262.34,-163.61"/>
<polygon fill="#63b8ff" stroke="#63b8ff" points="2130.25,-212.4 2122.26,-219.35 2132.84,-218.9 2130.25,-212.4"/>
</g>
<!-- Node3 -->
<g id="node3" class="node">
<title>Node3</title>
<g id="a_node3"><a xlink:href="classkv_1_1Store.html" target="_top" xlink:title=" ">
<polygon fill="white" stroke="#666666" points="1800,-311.5 1741,-311.5 1741,-292.5 1800,-292.5 1800,-311.5"/>
<text text-anchor="middle" x="1770.5" y="-299.5" font-family="Helvetica,sans-Serif" font-size="10.00">kv::Store</text>
</a>
</g>
</g>
<!-- Node3&#45;&gt;Node2 -->
<g id="edge2" class="edge">
<title>Node3&#45;&gt;Node2</title>
<path fill="none" stroke="#9a32cd" stroke-dasharray="5,2" d="M1810.2,-300.75C1855.68,-298.46 1933.07,-292.04 1997,-274 2027.16,-265.49 2059.83,-249.09 2079.08,-238.62"/>
<polygon fill="#9a32cd" stroke="#9a32cd" points="1810,-297.25 1800.17,-301.21 1810.32,-304.24 1810,-297.25"/>
<text text-anchor="middle" x="1934.5" y="-299" font-family="Helvetica,sans-Serif" font-size="10.00"> source_store</text>
</g>
<!-- Node4 -->
<g id="node4" class="node">
<title>Node4</title>
<g id="a_node4"><a xlink:href="classkv_1_1AbstractStore.html" target="_top" xlink:title=" ">
<polygon fill="white" stroke="#666666" points="1556,-246.5 1456,-246.5 1456,-227.5 1556,-227.5 1556,-246.5"/>
<text text-anchor="middle" x="1506" y="-234.5" font-family="Helvetica,sans-Serif" font-size="10.00">kv::AbstractStore</text>
</a>
</g>
</g>
<!-- Node4&#45;&gt;Node3 -->
<g id="edge3" class="edge">
<title>Node4&#45;&gt;Node3</title>
<path fill="none" stroke="#63b8ff" d="M1555.77,-248.92C1563.87,-250.93 1572.18,-253.01 1580,-255 1627.64,-267.11 1639.27,-271.26 1687,-283 1704.84,-287.39 1724.93,-292.02 1740.82,-295.61"/>
<polygon fill="#63b8ff" stroke="#63b8ff" points="1556.6,-245.52 1546.05,-246.52 1554.91,-252.32 1556.6,-245.52"/>
</g>
<!-- Node5 -->
<g id="node5" class="node">
<title>Node5</title>
<g id="a_node5"><a xlink:href="classkv_1_1StoreState.html" target="_top" xlink:title=" ">
<polygon fill="white" stroke="#666666" points="1548.5,-320.5 1463.5,-320.5 1463.5,-301.5 1548.5,-301.5 1548.5,-320.5"/>
<text text-anchor="middle" x="1506" y="-308.5" font-family="Helvetica,sans-Serif" font-size="10.00">kv::StoreState</text>
</a>
</g>
</g>
<!-- Node5&#45;&gt;Node3 -->
<g id="edge4" class="edge">
<title>Node5&#45;&gt;Node3</title>
<path fill="none" stroke="#63b8ff" d="M1558.74,-309.23C1613.19,-307.36 1696.94,-304.49 1740.67,-302.99"/>
<polygon fill="#63b8ff" stroke="#63b8ff" points="1558.47,-305.73 1548.59,-309.57 1558.71,-312.73 1558.47,-305.73"/>
</g>
<!-- Node6 -->
<g id="node6" class="node">
<title>Node6</title>
<g id="a_node6"><a xlink:title=" ">
<polygon fill="white" stroke="#666666" points="1207.5,-388.5 1138.5,-388.5 1138.5,-369.5 1207.5,-369.5 1207.5,-388.5"/>
<text text-anchor="middle" x="1173" y="-376.5" font-family="Helvetica,sans-Serif" font-size="10.00">std::mutex</text>
</a>
</g>
</g>
<!-- Node6&#45;&gt;Node2 -->
<g id="edge18" class="edge">
<title>Node6&#45;&gt;Node2</title>
<path fill="none" stroke="#9a32cd" stroke-dasharray="5,2" d="M1217.85,-377.73C1265.97,-376.34 1345.49,-374.03 1414,-372 1674.41,-364.28 1758.34,-415.47 1997,-311 2036.25,-293.82 2072.31,-256.28 2087.89,-238.59"/>
<polygon fill="#9a32cd" stroke="#9a32cd" points="1217.68,-374.24 1207.78,-378.02 1217.88,-381.23 1217.68,-374.24"/>
<text text-anchor="middle" x="1633.5" y="-380" font-family="Helvetica,sans-Serif" font-size="10.00"> requests_lock</text>
</g>
<!-- Node6&#45;&gt;Node5 -->
<g id="edge5" class="edge">
<title>Node6&#45;&gt;Node5</title>
<path fill="none" stroke="#9a32cd" stroke-dasharray="5,2" d="M1206.6,-365.45C1233.77,-354.2 1268.57,-339.89 1272,-339 1337.47,-322.03 1416,-315.3 1463.13,-312.66"/>
<polygon fill="#9a32cd" stroke="#9a32cd" points="1204.91,-362.36 1197.01,-369.43 1207.59,-368.83 1204.91,-362.36"/>
<text text-anchor="middle" x="1343" y="-364" font-family="Helvetica,sans-Serif" font-size="10.00"> commit_lock</text>
<text text-anchor="middle" x="1343" y="-353" font-family="Helvetica,sans-Serif" font-size="10.00">maps_lock</text>
<text text-anchor="middle" x="1343" y="-342" font-family="Helvetica,sans-Serif" font-size="10.00">version_lock</text>
</g>
<!-- Node7 -->
<g id="node7" class="node">
<title>Node7</title>
<g id="a_node7"><a xlink:title=" ">
<polygon fill="white" stroke="#666666" points="1244.5,-337 1101.5,-337 1101.5,-285 1244.5,-285 1244.5,-337"/>
<text text-anchor="start" x="1109.5" y="-325" font-family="Helvetica,sans-Serif" font-size="10.00">std::map&lt; std::string,</text>
<text text-anchor="start" x="1109.5" y="-314" font-family="Helvetica,sans-Serif" font-size="10.00"> std::pair&lt; kv::Version,</text>
<text text-anchor="start" x="1109.5" y="-303" font-family="Helvetica,sans-Serif" font-size="10.00"> std::shared_ptr&lt; untyped</text>
<text text-anchor="middle" x="1173" y="-292" font-family="Helvetica,sans-Serif" font-size="10.00">::Map &gt; &gt; &gt;</text>
</a>
</g>
</g>
<!-- Node7&#45;&gt;Node5 -->
<g id="edge6" class="edge">
<title>Node7&#45;&gt;Node5</title>
<path fill="none" stroke="#9a32cd" stroke-dasharray="5,2" d="M1255,-305.65C1260.75,-305.39 1266.46,-305.17 1272,-305 1335.08,-303.07 1350.92,-302.92 1414,-305 1430.14,-305.53 1447.87,-306.59 1463.35,-307.68"/>
<polygon fill="#9a32cd" stroke="#9a32cd" points="1254.45,-302.18 1244.63,-306.16 1254.79,-309.17 1254.45,-302.18"/>
<text text-anchor="middle" x="1343" y="-308" font-family="Helvetica,sans-Serif" font-size="10.00"> maps</text>
</g>
<!-- Node8 -->
<g id="node8" class="node">
<title>Node8</title>
<g id="a_node8"><a xlink:title=" ">
<polygon fill="white" stroke="#666666" points="953,-320.5 888,-320.5 888,-301.5 953,-301.5 953,-320.5"/>
<text text-anchor="middle" x="920.5" y="-308.5" font-family="Helvetica,sans-Serif" font-size="10.00">std::string</text>
</a>
</g>
</g>
<!-- Node8&#45;&gt;Node7 -->
<g id="edge7" class="edge">
<title>Node8&#45;&gt;Node7</title>
<path fill="none" stroke="#9a32cd" stroke-dasharray="5,2" d="M963.32,-311C1000.92,-311 1056.91,-311 1101.44,-311"/>
<polygon fill="#9a32cd" stroke="#9a32cd" points="963.23,-307.5 953.23,-311 963.23,-314.5 963.23,-307.5"/>
<text text-anchor="middle" x="1049.5" y="-314" font-family="Helvetica,sans-Serif" font-size="10.00"> keys</text>
</g>
<!-- Node9 -->
<g id="node9" class="node">
<title>Node9</title>
<g id="a_node9"><a xlink:title=" ">
<polygon fill="white" stroke="#666666" points="669,-326 565,-326 565,-296 669,-296 669,-326"/>
<text text-anchor="start" x="573" y="-314" font-family="Helvetica,sans-Serif" font-size="10.00">std::basic_string&lt;</text>
<text text-anchor="middle" x="617" y="-303" font-family="Helvetica,sans-Serif" font-size="10.00"> Char &gt;</text>
</a>
</g>
</g>
<!-- Node9&#45;&gt;Node8 -->
<g id="edge8" class="edge">
<title>Node9&#45;&gt;Node8</title>
<path fill="none" stroke="#63b8ff" d="M679.36,-311C742.45,-311 838.23,-311 887.6,-311"/>
<polygon fill="#63b8ff" stroke="#63b8ff" points="679.15,-307.5 669.15,-311 679.15,-314.5 679.15,-307.5"/>
</g>
<!-- Node10 -->
<g id="node10" class="node">
<title>Node10</title>
<g id="a_node10"><a xlink:title=" ">
<polygon fill="white" stroke="#666666" points="1240,-267 1106,-267 1106,-215 1240,-215 1240,-267"/>
<text text-anchor="start" x="1114" y="-255" font-family="Helvetica,sans-Serif" font-size="10.00">std::unordered_map</text>
<text text-anchor="start" x="1114" y="-244" font-family="Helvetica,sans-Serif" font-size="10.00">&lt; Version, std::tuple</text>
<text text-anchor="start" x="1114" y="-233" font-family="Helvetica,sans-Serif" font-size="10.00">&lt; std::unique_ptr&lt; kv</text>
<text text-anchor="middle" x="1173" y="-222" font-family="Helvetica,sans-Serif" font-size="10.00">::PendingTx &gt;, bool &gt; &gt;</text>
</a>
</g>
</g>
<!-- Node10&#45;&gt;Node5 -->
<g id="edge9" class="edge">
<title>Node10&#45;&gt;Node5</title>
<path fill="none" stroke="#9a32cd" stroke-dasharray="5,2" d="M1250.02,-254.8C1297.33,-263.65 1359.37,-275.76 1414,-288 1432.29,-292.1 1452.51,-297.16 1469.23,-301.48"/>
<polygon fill="#9a32cd" stroke="#9a32cd" points="1250.63,-251.35 1240.16,-252.96 1249.35,-258.23 1250.63,-251.35"/>
<text text-anchor="middle" x="1343" y="-291" font-family="Helvetica,sans-Serif" font-size="10.00"> pending_txs</text>
</g>
<!-- Node11 -->
<g id="node11" class="node">
<title>Node11</title>
<g id="a_node11"><a xlink:href="classkv_1_1ExecutionWrapperStore.html" target="_top" xlink:title=" ">
<polygon fill="white" stroke="#666666" points="1580,-283.5 1432,-283.5 1432,-264.5 1580,-264.5 1580,-283.5"/>
<text text-anchor="middle" x="1506" y="-271.5" font-family="Helvetica,sans-Serif" font-size="10.00">kv::ExecutionWrapperStore</text>
</a>
</g>
</g>
<!-- Node11&#45;&gt;Node3 -->
<g id="edge10" class="edge">
<title>Node11&#45;&gt;Node3</title>
<path fill="none" stroke="#63b8ff" d="M1590.28,-282.88C1641.9,-288.39 1705,-295.12 1740.89,-298.95"/>
<polygon fill="#63b8ff" stroke="#63b8ff" points="1590.44,-279.38 1580.12,-281.8 1589.69,-286.34 1590.44,-279.38"/>
</g>
<!-- Node12 -->
<g id="node12" class="node">
<title>Node12</title>
<g id="a_node12"><a xlink:href="classkv_1_1ReadOnlyStore.html" target="_top" xlink:title=" ">
<polygon fill="white" stroke="#666666" points="1559.5,-357.5 1452.5,-357.5 1452.5,-338.5 1559.5,-338.5 1559.5,-357.5"/>
<text text-anchor="middle" x="1506" y="-345.5" font-family="Helvetica,sans-Serif" font-size="10.00">kv::ReadOnlyStore</text>
</a>
</g>
</g>
<!-- Node12&#45;&gt;Node3 -->
<g id="edge11" class="edge">
<title>Node12&#45;&gt;Node3</title>
<path fill="none" stroke="#63b8ff" d="M1569.48,-337.29C1599.57,-332.11 1636.17,-325.78 1669,-320 1693.27,-315.73 1720.81,-310.79 1740.92,-307.17"/>
<polygon fill="#63b8ff" stroke="#63b8ff" points="1568.81,-333.86 1559.54,-339 1569.99,-340.76 1568.81,-333.86"/>
</g>
<!-- Node13 -->
<g id="node13" class="node">
<title>Node13</title>
<g id="a_node13"><a xlink:title=" ">
<polygon fill="white" stroke="#666666" points="1828,-274 1713,-274 1713,-244 1828,-244 1828,-274"/>
<text text-anchor="start" x="1721" y="-262" font-family="Helvetica,sans-Serif" font-size="10.00">std::shared_ptr&lt; ccf</text>
<text text-anchor="middle" x="1770.5" y="-251" font-family="Helvetica,sans-Serif" font-size="10.00">::LedgerSecrets &gt;</text>
</a>
</g>
</g>
<!-- Node13&#45;&gt;Node2 -->
<g id="edge12" class="edge">
<title>Node13&#45;&gt;Node2</title>
<path fill="none" stroke="#9a32cd" stroke-dasharray="5,2" d="M1838,-252.85C1889.23,-248.12 1960.31,-241.54 2014.89,-236.5"/>
<polygon fill="#9a32cd" stroke="#9a32cd" points="1837.66,-249.37 1828.02,-253.77 1838.3,-256.34 1837.66,-249.37"/>
<text text-anchor="middle" x="1934.5" y="-264" font-family="Helvetica,sans-Serif" font-size="10.00"> historical_ledger_secrets</text>
<text text-anchor="middle" x="1934.5" y="-253" font-family="Helvetica,sans-Serif" font-size="10.00">source_ledger_secrets</text>
</g>
<!-- Node14 -->
<g id="node14" class="node">
<title>Node14</title>
<g id="a_node14"><a xlink:href="classccf_1_1LedgerSecrets.html" target="_top" xlink:title=" ">
<polygon fill="white" stroke="#666666" points="1558.5,-209.5 1453.5,-209.5 1453.5,-190.5 1558.5,-190.5 1558.5,-209.5"/>
<text text-anchor="middle" x="1506" y="-197.5" font-family="Helvetica,sans-Serif" font-size="10.00">ccf::LedgerSecrets</text>
</a>
</g>
</g>
<!-- Node14&#45;&gt;Node13 -->
<g id="edge13" class="edge">
<title>Node14&#45;&gt;Node13</title>
<path fill="none" stroke="#9a32cd" stroke-dasharray="5,2" d="M1568.89,-193.1C1600.55,-192.32 1638.69,-195.82 1669,-212 1680.45,-218.11 1676.25,-227.73 1687,-235 1694.78,-240.27 1703.73,-244.39 1712.8,-247.63"/>
<polygon fill="#9a32cd" stroke="#9a32cd" points="1568.71,-189.6 1558.85,-193.49 1568.98,-196.6 1568.71,-189.6"/>
<text text-anchor="middle" x="1633.5" y="-215" font-family="Helvetica,sans-Serif" font-size="10.00"> ptr</text>
</g>
<!-- Node15 -->
<g id="node15" class="node">
<title>Node15</title>
<g id="a_node15"><a xlink:title=" ">
<polygon fill="white" stroke="#666666" points="1841,-226 1700,-226 1700,-196 1841,-196 1841,-226"/>
<text text-anchor="start" x="1708" y="-214" font-family="Helvetica,sans-Serif" font-size="10.00">std::shared_ptr&lt; Abstract</text>
<text text-anchor="middle" x="1770.5" y="-203" font-family="Helvetica,sans-Serif" font-size="10.00">Writer &gt;</text>
</a>
</g>
</g>
<!-- Node15&#45;&gt;Node2 -->
<g id="edge14" class="edge">
<title>Node15&#45;&gt;Node2</title>
<path fill="none" stroke="#9a32cd" stroke-dasharray="5,2" d="M1851.36,-210.03C1894.54,-210.11 1948.76,-211.18 1997,-215 2010.06,-216.04 2024.03,-217.68 2037.24,-219.48"/>
<polygon fill="#9a32cd" stroke="#9a32cd" points="1851.19,-206.53 1841.19,-210.03 1851.19,-213.53 1851.19,-206.53"/>
<text text-anchor="middle" x="1934.5" y="-218" font-family="Helvetica,sans-Serif" font-size="10.00"> to_host</text>
</g>
<!-- Node16 -->
<g id="node16" class="node">
<title>Node16</title>
<g id="a_node16"><a xlink:title=" ">
<polygon fill="white" stroke="#666666" points="1827,-178 1714,-178 1714,-148 1827,-148 1827,-178"/>
<text text-anchor="start" x="1722" y="-166" font-family="Helvetica,sans-Serif" font-size="10.00">std::shared_ptr&lt; kv</text>
<text text-anchor="middle" x="1770.5" y="-155" font-family="Helvetica,sans-Serif" font-size="10.00">::TxEncryptor &gt;</text>
</a>
</g>
</g>
<!-- Node16&#45;&gt;Node2 -->
<g id="edge15" class="edge">
<title>Node16&#45;&gt;Node2</title>
<path fill="none" stroke="#9a32cd" stroke-dasharray="5,2" d="M1837.15,-169.51C1882.45,-174.75 1943.86,-183.36 1997,-196 2022.91,-202.16 2051.71,-212.13 2071.53,-219.5"/>
<polygon fill="#9a32cd" stroke="#9a32cd" points="1837.49,-166.03 1827.16,-168.38 1836.7,-172.98 1837.49,-166.03"/>
<text text-anchor="middle" x="1934.5" y="-199" font-family="Helvetica,sans-Serif" font-size="10.00"> historical_encryptor</text>
</g>
<!-- Node17 -->
<g id="node17" class="node">
<title>Node17</title>
<g id="a_node17"><a xlink:href="classkv_1_1TxEncryptor.html" target="_top" xlink:title=" ">
<polygon fill="white" stroke="#666666" points="1572.5,-172.5 1439.5,-172.5 1439.5,-153.5 1572.5,-153.5 1572.5,-172.5"/>
<text text-anchor="middle" x="1506" y="-160.5" font-family="Helvetica,sans-Serif" font-size="10.00">kv::TxEncryptor&lt; T, S &gt;</text>
</a>
</g>
</g>
<!-- Node17&#45;&gt;Node16 -->
<g id="edge16" class="edge">
<title>Node17&#45;&gt;Node16</title>
<path fill="none" stroke="#9a32cd" stroke-dasharray="5,2" d="M1582.7,-163C1624.49,-163 1675.5,-163 1713.65,-163"/>
<polygon fill="#9a32cd" stroke="#9a32cd" points="1582.56,-159.5 1572.56,-163 1582.56,-166.5 1582.56,-159.5"/>
<text text-anchor="middle" x="1633.5" y="-166" font-family="Helvetica,sans-Serif" font-size="10.00"> ptr</text>
</g>
<!-- Node18 -->
<g id="node18" class="node">
<title>Node18</title>
<g id="a_node18"><a xlink:href="classkv_1_1AbstractTxEncryptor.html" target="_top" xlink:title=" ">
<polygon fill="white" stroke="#666666" points="1239.5,-175.5 1106.5,-175.5 1106.5,-156.5 1239.5,-156.5 1239.5,-175.5"/>
<text text-anchor="middle" x="1173" y="-163.5" font-family="Helvetica,sans-Serif" font-size="10.00">kv::AbstractTxEncryptor</text>
</a>
</g>
</g>
<!-- Node18&#45;&gt;Node17 -->
<g id="edge17" class="edge">
<title>Node18&#45;&gt;Node17</title>
<path fill="none" stroke="#63b8ff" d="M1249.87,-165.31C1307.08,-164.79 1384.77,-164.09 1439.33,-163.6"/>
<polygon fill="#63b8ff" stroke="#63b8ff" points="1249.76,-161.81 1239.79,-165.4 1249.82,-168.81 1249.76,-161.81"/>
</g>
<!-- Node19 -->
<g id="node19" class="node">
<title>Node19</title>
<g id="a_node19"><a xlink:title=" ">
<polygon fill="white" stroke="#666666" points="1854,-129.5 1687,-129.5 1687,-88.5 1854,-88.5 1854,-129.5"/>
<text text-anchor="start" x="1695" y="-117.5" font-family="Helvetica,sans-Serif" font-size="10.00">std::map&lt; CompoundHandle,</text>
<text text-anchor="start" x="1695" y="-106.5" font-family="Helvetica,sans-Serif" font-size="10.00"> ccf::historical::StateCacheImpl</text>
<text text-anchor="middle" x="1770.5" y="-95.5" font-family="Helvetica,sans-Serif" font-size="10.00">::Request &gt;</text>
</a>
</g>
</g>
<!-- Node19&#45;&gt;Node2 -->
<g id="edge19" class="edge">
<title>Node19&#45;&gt;Node2</title>
<path fill="none" stroke="#9a32cd" stroke-dasharray="5,2" d="M1863.92,-121.6C1905.75,-129.37 1955.1,-141.51 1997,-160 2032.27,-175.56 2067.98,-204.4 2085.28,-219.39"/>
<polygon fill="#9a32cd" stroke="#9a32cd" points="1864.47,-118.14 1854.01,-119.81 1863.23,-125.03 1864.47,-118.14"/>
<text text-anchor="middle" x="1934.5" y="-163" font-family="Helvetica,sans-Serif" font-size="10.00"> requests</text>
</g>
<!-- Node20 -->
<g id="node20" class="node">
<title>Node20</title>
<g id="a_node20"><a xlink:href="structccf_1_1historical_1_1StateCacheImpl_1_1Request.html" target="_top" xlink:title=" ">
<polygon fill="white" stroke="#666666" points="1577.5,-98 1434.5,-98 1434.5,-68 1577.5,-68 1577.5,-98"/>
<text text-anchor="start" x="1442.5" y="-86" font-family="Helvetica,sans-Serif" font-size="10.00">ccf::historical::StateCache</text>
<text text-anchor="middle" x="1506" y="-75" font-family="Helvetica,sans-Serif" font-size="10.00">Impl::Request</text>
</a>
</g>
</g>
<!-- Node20&#45;&gt;Node19 -->
<g id="edge20" class="edge">
<title>Node20&#45;&gt;Node19</title>
<path fill="none" stroke="#9a32cd" stroke-dasharray="5,2" d="M1587.7,-90.99C1619.08,-94.1 1654.99,-97.66 1686.57,-100.79"/>
<polygon fill="#9a32cd" stroke="#9a32cd" points="1587.99,-87.5 1577.69,-90 1587.3,-94.47 1587.99,-87.5"/>
<text text-anchor="middle" x="1633.5" y="-102" font-family="Helvetica,sans-Serif" font-size="10.00"> elements</text>
</g>
<!-- Node21 -->
<g id="node21" class="node">
<title>Node21</title>
<g id="a_node21"><a xlink:href="classds_1_1ContiguousSet.html" target="_top" xlink:title=" ">
<polygon fill="white" stroke="#666666" points="1229.5,-30 1116.5,-30 1116.5,0 1229.5,0 1229.5,-30"/>
<text text-anchor="start" x="1124.5" y="-18" font-family="Helvetica,sans-Serif" font-size="10.00">ds::ContiguousSet&lt;</text>
<text text-anchor="middle" x="1173" y="-7" font-family="Helvetica,sans-Serif" font-size="10.00"> ccf::SeqNo &gt;</text>
</a>
</g>
</g>
<!-- Node21&#45;&gt;Node20 -->
<g id="edge21" class="edge">
<title>Node21&#45;&gt;Node20</title>
<path fill="none" stroke="#9a32cd" stroke-dasharray="5,2" d="M1239.56,-25.63C1287.96,-33.81 1355.33,-45.91 1414,-59 1425.96,-61.67 1438.72,-64.83 1450.79,-67.98"/>
<polygon fill="#9a32cd" stroke="#9a32cd" points="1239.97,-22.15 1229.53,-23.94 1238.81,-29.05 1239.97,-22.15"/>
<text text-anchor="middle" x="1343" y="-62" font-family="Helvetica,sans-Serif" font-size="10.00"> requested_seqnos</text>
</g>
<!-- Node22 -->
<g id="node22" class="node">
<title>Node22</title>
<g id="a_node22"><a xlink:title=" ">
<polygon fill="white" stroke="#666666" points="1235.5,-138 1110.5,-138 1110.5,-108 1235.5,-108 1235.5,-138"/>
<text text-anchor="start" x="1118.5" y="-126" font-family="Helvetica,sans-Serif" font-size="10.00">std::map&lt; ccf::SeqNo,</text>
<text text-anchor="middle" x="1173" y="-115" font-family="Helvetica,sans-Serif" font-size="10.00"> StoreDetailsPtr &gt;</text>
</a>
</g>
</g>
<!-- Node22&#45;&gt;Node20 -->
<g id="edge22" class="edge">
<title>Node22&#45;&gt;Node20</title>
<path fill="none" stroke="#9a32cd" stroke-dasharray="5,2" d="M1246.04,-114.29C1301.85,-107.55 1378.76,-98.26 1434.25,-91.55"/>
<polygon fill="#9a32cd" stroke="#9a32cd" points="1245.38,-110.85 1235.87,-115.52 1246.22,-117.8 1245.38,-110.85"/>
<text text-anchor="middle" x="1343" y="-125" font-family="Helvetica,sans-Serif" font-size="10.00"> requested_stores</text>
<text text-anchor="middle" x="1343" y="-114" font-family="Helvetica,sans-Serif" font-size="10.00">supporting_signatures</text>
</g>
<!-- Node23 -->
<g id="node23" class="node">
<title>Node23</title>
<g id="a_node23"><a xlink:title=" ">
<polygon fill="white" stroke="#666666" points="979.5,-132.5 861.5,-132.5 861.5,-113.5 979.5,-113.5 979.5,-132.5"/>
<text text-anchor="middle" x="920.5" y="-120.5" font-family="Helvetica,sans-Serif" font-size="10.00">std::shared_ptr&lt; T &gt;</text>
</a>
</g>
</g>
<!-- Node23&#45;&gt;Node22 -->
<g id="edge23" class="edge">
<title>Node23&#45;&gt;Node22</title>
<path fill="none" stroke="#9a32cd" stroke-dasharray="5,2" d="M989.96,-123C1027.55,-123 1073.8,-123 1110.28,-123"/>
<polygon fill="#9a32cd" stroke="#9a32cd" points="989.6,-119.5 979.6,-123 989.6,-126.5 989.6,-119.5"/>
<text text-anchor="middle" x="1049.5" y="-126" font-family="Helvetica,sans-Serif" font-size="10.00"> elements</text>
</g>
<!-- Node24 -->
<g id="node24" class="node">
<title>Node24</title>
<g id="a_node24"><a xlink:title=" ">
<polygon fill="white" stroke="#666666" points="631.5,-132.5 602.5,-132.5 602.5,-113.5 631.5,-113.5 631.5,-132.5"/>
<text text-anchor="middle" x="617" y="-120.5" font-family="Helvetica,sans-Serif" font-size="10.00">T</text>
</a>
</g>
</g>
<!-- Node24&#45;&gt;Node23 -->
<g id="edge24" class="edge">
<title>Node24&#45;&gt;Node23</title>
<path fill="none" stroke="#9a32cd" stroke-dasharray="5,2" d="M641.86,-123C688.87,-123 794.68,-123 861.25,-123"/>
<polygon fill="#9a32cd" stroke="#9a32cd" points="641.74,-119.5 631.74,-123 641.74,-126.5 641.74,-119.5"/>
<text text-anchor="middle" x="769.5" y="-126" font-family="Helvetica,sans-Serif" font-size="10.00"> ptr</text>
</g>
<!-- Node25 -->
<g id="node25" class="node">
<title>Node25</title>
<g id="a_node25"><a xlink:title=" ">
<polygon fill="white" stroke="#666666" points="1254,-89.5 1092,-89.5 1092,-48.5 1254,-48.5 1254,-89.5"/>
<text text-anchor="start" x="1100" y="-77.5" font-family="Helvetica,sans-Serif" font-size="10.00">std::unique_ptr&lt; ccf</text>
<text text-anchor="start" x="1100" y="-66.5" font-family="Helvetica,sans-Serif" font-size="10.00">::historical::StateCacheImpl</text>
<text text-anchor="middle" x="1173" y="-55.5" font-family="Helvetica,sans-Serif" font-size="10.00">::LedgerSecretRecoveryInfo &gt;</text>
</a>
</g>
</g>
<!-- Node25&#45;&gt;Node20 -->
<g id="edge25" class="edge">
<title>Node25&#45;&gt;Node20</title>
<path fill="none" stroke="#9a32cd" stroke-dasharray="5,2" d="M1264.3,-72.82C1317.82,-75.08 1384.67,-77.91 1434.33,-80.01"/>
<polygon fill="#9a32cd" stroke="#9a32cd" points="1264.26,-69.31 1254.13,-72.39 1263.97,-76.31 1264.26,-69.31"/>
<text text-anchor="middle" x="1343" y="-82" font-family="Helvetica,sans-Serif" font-size="10.00"> ledger_secret_recovery_info</text>
</g>
<!-- Node26 -->
<g id="node26" class="node">
<title>Node26</title>
<g id="a_node26"><a xlink:href="structccf_1_1historical_1_1StateCacheImpl_1_1LedgerSecretRecoveryInfo.html" target="_top" xlink:title=" ">
<polygon fill="white" stroke="#666666" points="1007,-84 834,-84 834,-54 1007,-54 1007,-84"/>
<text text-anchor="start" x="842" y="-72" font-family="Helvetica,sans-Serif" font-size="10.00">ccf::historical::StateCache</text>
<text text-anchor="middle" x="920.5" y="-61" font-family="Helvetica,sans-Serif" font-size="10.00">Impl::LedgerSecretRecoveryInfo</text>
</a>
</g>
</g>
<!-- Node26&#45;&gt;Node25 -->
<g id="edge26" class="edge">
<title>Node26&#45;&gt;Node25</title>
<path fill="none" stroke="#9a32cd" stroke-dasharray="5,2" d="M1017.11,-69C1041.81,-69 1068.13,-69 1091.94,-69"/>
<polygon fill="#9a32cd" stroke="#9a32cd" points="1017.01,-65.5 1007.01,-69 1017.01,-72.5 1017.01,-65.5"/>
<text text-anchor="middle" x="1049.5" y="-72" font-family="Helvetica,sans-Serif" font-size="10.00"> ptr</text>
</g>
<!-- Node27 -->
<g id="node27" class="node">
<title>Node27</title>
<g id="a_node27"><a xlink:title=" ">
<polygon fill="white" stroke="#666666" points="705,-78.5 529,-78.5 529,-59.5 705,-59.5 705,-78.5"/>
<text text-anchor="middle" x="617" y="-66.5" font-family="Helvetica,sans-Serif" font-size="10.00">std::shared_ptr&lt; LedgerSecret &gt;</text>
</a>
</g>
</g>
<!-- Node27&#45;&gt;Node26 -->
<g id="edge27" class="edge">
<title>Node27&#45;&gt;Node26</title>
<path fill="none" stroke="#9a32cd" stroke-dasharray="5,2" d="M715.3,-69C753.45,-69 796.84,-69 833.79,-69"/>
<polygon fill="#9a32cd" stroke="#9a32cd" points="715.21,-65.5 705.21,-69 715.21,-72.5 715.21,-65.5"/>
<text text-anchor="middle" x="769.5" y="-72" font-family="Helvetica,sans-Serif" font-size="10.00"> last_ledger_secret</text>
</g>
<!-- Node28 -->
<g id="node28" class="node">
<title>Node28</title>
<g id="a_node28"><a xlink:href="structccf_1_1LedgerSecret.html" target="_top" xlink:title=" ">
<polygon fill="white" stroke="#666666" points="476,-78.5 376,-78.5 376,-59.5 476,-59.5 476,-78.5"/>
<text text-anchor="middle" x="426" y="-66.5" font-family="Helvetica,sans-Serif" font-size="10.00">ccf::LedgerSecret</text>
</a>
</g>
</g>
<!-- Node28&#45;&gt;Node27 -->
<g id="edge28" class="edge">
<title>Node28&#45;&gt;Node27</title>
<path fill="none" stroke="#9a32cd" stroke-dasharray="5,2" d="M486.22,-69C499.69,-69 514.28,-69 528.64,-69"/>
<polygon fill="#9a32cd" stroke="#9a32cd" points="486.16,-65.5 476.16,-69 486.16,-72.5 486.16,-65.5"/>
<text text-anchor="middle" x="502.5" y="-72" font-family="Helvetica,sans-Serif" font-size="10.00"> ptr</text>
</g>
<!-- Node29 -->
<g id="node29" class="node">
<title>Node29</title>
<g id="a_node29"><a xlink:title=" ">
<polygon fill="white" stroke="#666666" points="293,-98.5 168,-98.5 168,-79.5 293,-79.5 293,-98.5"/>
<text text-anchor="middle" x="230.5" y="-86.5" font-family="Helvetica,sans-Serif" font-size="10.00">std::vector&lt; uint8_t &gt;</text>
</a>
</g>
</g>
<!-- Node29&#45;&gt;Node28 -->
<g id="edge29" class="edge">
<title>Node29&#45;&gt;Node28</title>
<path fill="none" stroke="#9a32cd" stroke-dasharray="5,2" d="M303.43,-81.57C327.51,-79.08 353.8,-76.36 375.75,-74.09"/>
<polygon fill="#9a32cd" stroke="#9a32cd" points="302.84,-78.11 293.26,-82.62 303.56,-85.07 302.84,-78.11"/>
<text text-anchor="middle" x="336" y="-84" font-family="Helvetica,sans-Serif" font-size="10.00"> raw_key</text>
</g>
<!-- Node30 -->
<g id="node30" class="node">
<title>Node30</title>
<g id="a_node30"><a xlink:title=" ">
<polygon fill="white" stroke="#666666" points="296,-61 165,-61 165,-31 296,-31 296,-61"/>
<text text-anchor="start" x="173" y="-49" font-family="Helvetica,sans-Serif" font-size="10.00">std::shared_ptr&lt; crypto</text>
<text text-anchor="middle" x="230.5" y="-38" font-family="Helvetica,sans-Serif" font-size="10.00">::KeyAesGcm &gt;</text>
</a>
</g>
</g>
<!-- Node30&#45;&gt;Node28 -->
<g id="edge30" class="edge">
<title>Node30&#45;&gt;Node28</title>
<path fill="none" stroke="#9a32cd" stroke-dasharray="5,2" d="M306.43,-54.91C329.76,-57.68 354.89,-60.67 375.98,-63.17"/>
<polygon fill="#9a32cd" stroke="#9a32cd" points="306.54,-51.4 296.2,-53.69 305.72,-58.35 306.54,-51.4"/>
<text text-anchor="middle" x="336" y="-64" font-family="Helvetica,sans-Serif" font-size="10.00"> key</text>
</g>
<!-- Node31 -->
<g id="node31" class="node">
<title>Node31</title>
<g id="a_node31"><a xlink:href="classcrypto_1_1KeyAesGcm.html" target="_top" xlink:title=" ">
<polygon fill="white" stroke="#666666" points="112,-55.5 0,-55.5 0,-36.5 112,-36.5 112,-55.5"/>
<text text-anchor="middle" x="56" y="-43.5" font-family="Helvetica,sans-Serif" font-size="10.00">crypto::KeyAesGcm</text>
</a>
</g>
</g>
<!-- Node31&#45;&gt;Node30 -->
<g id="edge31" class="edge">
<title>Node31&#45;&gt;Node30</title>
<path fill="none" stroke="#9a32cd" stroke-dasharray="5,2" d="M122.06,-46C136.03,-46 150.78,-46 164.74,-46"/>
<polygon fill="#9a32cd" stroke="#9a32cd" points="122.05,-42.5 112.05,-46 122.05,-49.5 122.05,-42.5"/>
<text text-anchor="middle" x="138.5" y="-49" font-family="Helvetica,sans-Serif" font-size="10.00"> ptr</text>
</g>
<!-- Node32 -->
<g id="node32" class="node">
<title>Node32</title>
<g id="a_node32"><a xlink:title=" ">
<polygon fill="white" stroke="#666666" points="1833.5,-433.5 1707.5,-433.5 1707.5,-414.5 1833.5,-414.5 1833.5,-433.5"/>
<text text-anchor="middle" x="1770.5" y="-421.5" font-family="Helvetica,sans-Serif" font-size="10.00">std::set&lt; ccf::SeqNo &gt;</text>
</a>
</g>
</g>
<!-- Node32&#45;&gt;Node2 -->
<g id="edge32" class="edge">
<title>Node32&#45;&gt;Node2</title>
<path fill="none" stroke="#9a32cd" stroke-dasharray="5,2" d="M1844.07,-432.35C1891.24,-434.12 1952.09,-429.17 1997,-400 2057.99,-360.39 2085.86,-269.11 2093.64,-238.91"/>
<polygon fill="#9a32cd" stroke="#9a32cd" points="1844.08,-428.84 1833.92,-431.86 1843.74,-435.84 1844.08,-428.84"/>
<text text-anchor="middle" x="1934.5" y="-435" font-family="Helvetica,sans-Serif" font-size="10.00"> pending_fetches</text>
</g>
<!-- Node33 -->
<g id="node33" class="node">
<title>Node33</title>
<g id="a_node33"><a xlink:href="classccf_1_1historical_1_1AbstractStateCache.html" target="_top" xlink:title=" ">
<polygon fill="white" stroke="#666666" points="2161,-148 2033,-148 2033,-118 2161,-118 2161,-148"/>
<text text-anchor="start" x="2041" y="-136" font-family="Helvetica,sans-Serif" font-size="10.00">ccf::historical::Abstract</text>
<text text-anchor="middle" x="2097" y="-125" font-family="Helvetica,sans-Serif" font-size="10.00">StateCache</text>
</a>
</g>
</g>
<!-- Node33&#45;&gt;Node1 -->
<g id="edge33" class="edge">
<title>Node33&#45;&gt;Node1</title>
<path fill="none" stroke="#63b8ff" d="M2171.06,-141.14C2185.73,-142.77 2201.13,-144.49 2215.73,-146.12"/>
<polygon fill="#63b8ff" stroke="#63b8ff" points="2171.36,-137.65 2161.03,-140.02 2170.58,-144.61 2171.36,-137.65"/>
</g>
<!-- Node34 -->
<g id="node34" class="node">
<title>Node34</title>
<g id="a_node34"><a xlink:href="classccf_1_1AbstractNodeSubSystem.html" target="_top" xlink:title=" ">
<polygon fill="white" stroke="#666666" points="1849,-70.5 1692,-70.5 1692,-51.5 1849,-51.5 1849,-70.5"/>
<text text-anchor="middle" x="1770.5" y="-58.5" font-family="Helvetica,sans-Serif" font-size="10.00">ccf::AbstractNodeSubSystem</text>
</a>
</g>
</g>
<!-- Node34&#45;&gt;Node33 -->
<g id="edge34" class="edge">
<title>Node34&#45;&gt;Node33</title>
<path fill="none" stroke="#63b8ff" d="M1859.16,-71.04C1901.24,-76.86 1952.14,-85.38 1997,-97 2018.24,-102.5 2041.33,-110.76 2059.85,-117.98"/>
<polygon fill="#63b8ff" stroke="#63b8ff" points="1859.6,-67.57 1849.22,-69.69 1858.66,-74.51 1859.6,-67.57"/>
</g>
</g>
</svg>
