<?xml version="1.0" encoding="UTF-8" standalone="no"?>
<!DOCTYPE svg PUBLIC "-//W3C//DTD SVG 1.1//EN"
 "http://www.w3.org/Graphics/SVG/1.1/DTD/svg11.dtd">
<!-- Generated by graphviz version 2.43.0 (0)
 -->
<!-- Title: src/service/tables/governance_history.h Pages: 1 -->
<!--zoomable 522 -->
<svg id="main" version="1.1" xmlns="http://www.w3.org/2000/svg" xmlns:xlink="http://www.w3.org/1999/xlink" xml:space="preserve" onload="init(evt)">
<style type="text/css"><![CDATA[
.edge:hover path { stroke: red; }
.edge:hover polygon { stroke: red; fill: red; }
]]></style>
<script type="text/javascript"><![CDATA[
var edges = document.getElementsByTagName('g');
if (edges && edges.length) {
  for (var i=0;i<edges.length;i++) {
    if (edges[i].id.substr(0,4)=='edge') {
      edges[i].setAttribute('class','edge');
    }
  }
}
]]></script>
        <defs>
                <circle id="rim" cx="0" cy="0" r="7"/>
                <circle id="rim2" cx="0" cy="0" r="3.5"/>
                <g id="zoomPlus">
                        <use xlink:href="#rim" fill="#404040">
                                <set attributeName="fill" to="#808080" begin="zoomplus.mouseover" end="zoomplus.mouseout"/>
                        </use>
                        <path d="M-4,0h8M0,-4v8" fill="none" stroke="white" stroke-width="1.5" pointer-events="none"/>
                </g>
                <g id="zoomMin">
                        <use xlink:href="#rim" fill="#404040">
                                <set attributeName="fill" to="#808080" begin="zoomminus.mouseover" end="zoomminus.mouseout"/>
                        </use>
                        <path d="M-4,0h8" fill="none" stroke="white" stroke-width="1.5" pointer-events="none"/>
                </g>
                <g id="dirArrow">
                        <path fill="none" stroke="white" stroke-width="1.5" d="M0,-3.0v7 M-2.5,-0.5L0,-3.0L2.5,-0.5"/>
                </g>
               <g id="resetDef">
                       <use xlink:href="#rim2" fill="#404040">
                               <set attributeName="fill" to="#808080" begin="reset.mouseover" end="reset.mouseout"/>
                       </use>
               </g>
        </defs>

<script type="text/javascript">
var viewWidth = 1305;
var viewHeight = 522;
var sectionId = 'dynsection-0';
</script>
<script xlink:href="svgpan.js"/>
<svg id="graph" class="graph">
<g id="viewport">
<title>src/service/tables/governance_history.h</title>
<!-- Node1 -->
<g id="node1" class="node">
<title>Node1</title>
<g id="a_node1"><a xlink:title=" ">
<polygon fill="#999999" stroke="#666666" points="352.5,-514 229.5,-514 229.5,-484 352.5,-484 352.5,-514"/>
<text text-anchor="start" x="237.5" y="-502" font-family="Helvetica,sans-Serif" font-size="10.00">src/service/tables</text>
<text text-anchor="middle" x="291" y="-491" font-family="Helvetica,sans-Serif" font-size="10.00">/governance_history.h</text>
</a>
</g>
</g>
<!-- Node2 -->
<g id="node2" class="node">
<title>Node2</title>
<g id="a_node2"><a xlink:href="entity__id_8h.html" target="_top" xlink:title=" ">
<polygon fill="white" stroke="#666666" points="334,-382 248,-382 248,-363 334,-363 334,-382"/>
<text text-anchor="middle" x="291" y="-370" font-family="Helvetica,sans-Serif" font-size="10.00">ccf/entity_id.h</text>
</a>
</g>
</g>
<!-- Node1&#45;&gt;Node2 -->
<g id="edge1" class="edge">
<title>Node1&#45;&gt;Node2</title>
<path fill="none" stroke="#63b8ff" d="M291,-483.72C291,-461.12 291,-417.12 291,-392.09"/>
<polygon fill="#63b8ff" stroke="#63b8ff" points="294.5,-392.07 291,-382.07 287.5,-392.07 294.5,-392.07"/>
</g>
<!-- Node25 -->
<g id="node25" class="node">
<title>Node25</title>
<g id="a_node25"><a xlink:href="service_2map_8h.html" target="_top" xlink:title=" ">
<polygon fill="white" stroke="#666666" points="769.5,-442.5 666.5,-442.5 666.5,-423.5 769.5,-423.5 769.5,-442.5"/>
<text text-anchor="middle" x="718" y="-430.5" font-family="Helvetica,sans-Serif" font-size="10.00">ccf/service/map.h</text>
</a>
</g>
</g>
<!-- Node1&#45;&gt;Node25 -->
<g id="edge31" class="edge">
<title>Node1&#45;&gt;Node25</title>
<path fill="none" stroke="#63b8ff" d="M352.63,-488.76C433.7,-476.61 575.32,-455.39 656.38,-443.24"/>
<polygon fill="#63b8ff" stroke="#63b8ff" points="657.07,-446.67 666.44,-441.73 656.03,-439.75 657.07,-446.67"/>
</g>
<!-- Node43 -->
<g id="node43" class="node">
<title>Node43</title>
<g id="a_node43"><a xlink:href="signed__req_8h.html" target="_top" xlink:title=" ">
<polygon fill="white" stroke="#666666" points="178,-448 74,-448 74,-418 178,-418 178,-448"/>
<text text-anchor="start" x="82" y="-436" font-family="Helvetica,sans-Serif" font-size="10.00">ccf/service/signed</text>
<text text-anchor="middle" x="126" y="-425" font-family="Helvetica,sans-Serif" font-size="10.00">_req.h</text>
</a>
</g>
</g>
<!-- Node1&#45;&gt;Node43 -->
<g id="edge75" class="edge">
<title>Node1&#45;&gt;Node43</title>
<path fill="none" stroke="#63b8ff" d="M254.79,-483.95C230.29,-474.45 197.73,-461.82 171.48,-451.64"/>
<polygon fill="#63b8ff" stroke="#63b8ff" points="172.71,-448.37 162.13,-448.01 170.18,-454.89 172.71,-448.37"/>
</g>
<!-- Node3 -->
<g id="node3" class="node">
<title>Node3</title>
<g id="a_node3"><a xlink:href="json_8h.html" target="_top" xlink:title=" ">
<polygon fill="white" stroke="#666666" points="208.5,-321.5 131.5,-321.5 131.5,-302.5 208.5,-302.5 208.5,-321.5"/>
<text text-anchor="middle" x="170" y="-309.5" font-family="Helvetica,sans-Serif" font-size="10.00">ccf/ds/json.h</text>
</a>
</g>
</g>
<!-- Node2&#45;&gt;Node3 -->
<g id="edge2" class="edge">
<title>Node2&#45;&gt;Node3</title>
<path fill="none" stroke="#63b8ff" d="M273.41,-362.99C253.24,-353.25 219.98,-337.16 196.64,-325.88"/>
<polygon fill="#63b8ff" stroke="#63b8ff" points="198.14,-322.72 187.62,-321.52 195.1,-329.02 198.14,-322.72"/>
</g>
<!-- Node5 -->
<g id="node5" class="node">
<title>Node5</title>
<g id="a_node5"><a xlink:title=" ">
<polygon fill="#e0e0e0" stroke="#999999" points="665,-129 621,-129 621,-110 665,-110 665,-129"/>
<text text-anchor="middle" x="643" y="-117" font-family="Helvetica,sans-Serif" font-size="10.00">string</text>
</a>
</g>
</g>
<!-- Node2&#45;&gt;Node5 -->
<g id="edge30" class="edge">
<title>Node2&#45;&gt;Node5</title>
<path fill="none" stroke="#63b8ff" d="M294.58,-362.77C301.04,-347.83 315.88,-317.06 336,-297 358.02,-275.04 375.88,-284.71 396,-261 425.69,-226.01 398.81,-194.45 434,-165 493.48,-115.23 530.51,-145.12 610.7,-129.01"/>
<polygon fill="#63b8ff" stroke="#63b8ff" points="611.68,-132.38 620.7,-126.81 610.18,-125.54 611.68,-132.38"/>
</g>
<!-- Node18 -->
<g id="node18" class="node">
<title>Node18</title>
<g id="a_node18"><a xlink:href="blit__serialiser_8h.html" target="_top" xlink:title=" ">
<polygon fill="white" stroke="#666666" points="591.5,-327 492.5,-327 492.5,-297 591.5,-297 591.5,-327"/>
<text text-anchor="start" x="500.5" y="-315" font-family="Helvetica,sans-Serif" font-size="10.00">ccf/kv/serialisers</text>
<text text-anchor="middle" x="542" y="-304" font-family="Helvetica,sans-Serif" font-size="10.00">/blit_serialiser.h</text>
</a>
</g>
</g>
<!-- Node2&#45;&gt;Node18 -->
<g id="edge20" class="edge">
<title>Node2&#45;&gt;Node18</title>
<path fill="none" stroke="#63b8ff" d="M328.18,-362.94C364.83,-354.5 422.69,-341.12 482.44,-327.12"/>
<polygon fill="#63b8ff" stroke="#63b8ff" points="483.49,-330.47 492.43,-324.78 481.9,-323.66 483.49,-330.47"/>
</g>
<!-- Node4 -->
<g id="node4" class="node">
<title>Node4</title>
<g id="a_node4"><a xlink:href="include_2ccf_2crypto_2base64_8h.html" target="_top" xlink:title=" ">
<polygon fill="white" stroke="#666666" points="230,-189.5 118,-189.5 118,-170.5 230,-170.5 230,-189.5"/>
<text text-anchor="middle" x="174" y="-177.5" font-family="Helvetica,sans-Serif" font-size="10.00">ccf/crypto/base64.h</text>
</a>
</g>
</g>
<!-- Node3&#45;&gt;Node4 -->
<g id="edge3" class="edge">
<title>Node3&#45;&gt;Node4</title>
<path fill="none" stroke="#63b8ff" d="M170.26,-302.47C170.9,-281.82 172.53,-228.72 173.41,-200.04"/>
<polygon fill="#63b8ff" stroke="#63b8ff" points="176.92,-199.83 173.73,-189.73 169.93,-199.62 176.92,-199.83"/>
</g>
<!-- Node7 -->
<g id="node7" class="node">
<title>Node7</title>
<g id="a_node7"><a xlink:href="include_2ccf_2ds_2json__schema_8h.html" target="_top" xlink:title=" ">
<polygon fill="white" stroke="#666666" points="386.5,-255.5 265.5,-255.5 265.5,-236.5 386.5,-236.5 386.5,-255.5"/>
<text text-anchor="middle" x="326" y="-243.5" font-family="Helvetica,sans-Serif" font-size="10.00">ccf/ds/json_schema.h</text>
</a>
</g>
</g>
<!-- Node3&#45;&gt;Node7 -->
<g id="edge6" class="edge">
<title>Node3&#45;&gt;Node7</title>
<path fill="none" stroke="#63b8ff" d="M191.04,-302.37C217.98,-291.32 264.86,-272.08 295.66,-259.45"/>
<polygon fill="#63b8ff" stroke="#63b8ff" points="297.12,-262.63 305.05,-255.6 294.47,-256.15 297.12,-262.63"/>
</g>
<!-- Node15 -->
<g id="node15" class="node">
<title>Node15</title>
<g id="a_node15"><a xlink:title=" ">
<polygon fill="#e0e0e0" stroke="#999999" points="235.5,-74 156.5,-74 156.5,-55 235.5,-55 235.5,-74"/>
<text text-anchor="middle" x="196" y="-62" font-family="Helvetica,sans-Serif" font-size="10.00">fmt/format.h</text>
</a>
</g>
</g>
<!-- Node3&#45;&gt;Node15 -->
<g id="edge18" class="edge">
<title>Node3&#45;&gt;Node15</title>
<path fill="none" stroke="#63b8ff" d="M161.34,-302.2C140.23,-279.63 89.2,-217.72 109,-165 122.4,-129.32 155.04,-98.05 176.31,-80.49"/>
<polygon fill="#63b8ff" stroke="#63b8ff" points="178.75,-83.02 184.37,-74.04 174.38,-77.55 178.75,-83.02"/>
</g>
<!-- Node17 -->
<g id="node17" class="node">
<title>Node17</title>
<g id="a_node17"><a xlink:title=" ">
<polygon fill="#e0e0e0" stroke="#999999" points="84,-255.5 28,-255.5 28,-236.5 84,-236.5 84,-255.5"/>
<text text-anchor="middle" x="56" y="-243.5" font-family="Helvetica,sans-Serif" font-size="10.00">sstream</text>
</a>
</g>
</g>
<!-- Node3&#45;&gt;Node17 -->
<g id="edge19" class="edge">
<title>Node3&#45;&gt;Node17</title>
<path fill="none" stroke="#63b8ff" d="M154.63,-302.37C135.59,-291.68 102.93,-273.35 80.44,-260.72"/>
<polygon fill="#63b8ff" stroke="#63b8ff" points="81.93,-257.54 71.5,-255.7 78.5,-263.65 81.93,-257.54"/>
</g>
<!-- Node4&#45;&gt;Node5 -->
<g id="edge4" class="edge">
<title>Node4&#45;&gt;Node5</title>
<path fill="none" stroke="#63b8ff" d="M230.23,-171.96C248.64,-169.7 269.18,-167.2 288,-165 428.67,-148.55 467.95,-155.89 610.74,-128.96"/>
<polygon fill="#63b8ff" stroke="#63b8ff" points="611.58,-132.36 620.75,-127.05 610.27,-125.49 611.58,-132.36"/>
</g>
<!-- Node6 -->
<g id="node6" class="node">
<title>Node6</title>
<g id="a_node6"><a xlink:title=" ">
<polygon fill="#e0e0e0" stroke="#999999" points="279.5,-19 232.5,-19 232.5,0 279.5,0 279.5,-19"/>
<text text-anchor="middle" x="256" y="-7" font-family="Helvetica,sans-Serif" font-size="10.00">vector</text>
</a>
</g>
</g>
<!-- Node4&#45;&gt;Node6 -->
<g id="edge5" class="edge">
<title>Node4&#45;&gt;Node6</title>
<path fill="none" stroke="#63b8ff" d="M168.13,-170.35C154.37,-148.89 123.04,-92.29 148,-55 164.46,-30.41 197.24,-19.4 222.39,-14.47"/>
<polygon fill="#63b8ff" stroke="#63b8ff" points="223.03,-17.91 232.28,-12.76 221.83,-11.01 223.03,-17.91"/>
</g>
<!-- Node8 -->
<g id="node8" class="node">
<title>Node8</title>
<g id="a_node8"><a xlink:href="nonstd_8h.html" target="_top" xlink:title=" ">
<polygon fill="white" stroke="#666666" points="387,-189.5 297,-189.5 297,-170.5 387,-170.5 387,-189.5"/>
<text text-anchor="middle" x="342" y="-177.5" font-family="Helvetica,sans-Serif" font-size="10.00">ccf/ds/nonstd.h</text>
</a>
</g>
</g>
<!-- Node7&#45;&gt;Node8 -->
<g id="edge7" class="edge">
<title>Node7&#45;&gt;Node8</title>
<path fill="none" stroke="#63b8ff" d="M328.16,-236.37C330.48,-227.07 334.26,-211.98 337.28,-199.9"/>
<polygon fill="#63b8ff" stroke="#63b8ff" points="340.74,-200.46 339.77,-189.91 333.95,-198.76 340.74,-200.46"/>
</g>
<!-- Node14 -->
<g id="node14" class="node">
<title>Node14</title>
<g id="a_node14"><a xlink:title=" ">
<polygon fill="#e0e0e0" stroke="#999999" points="741,-189.5 685,-189.5 685,-170.5 741,-170.5 741,-189.5"/>
<text text-anchor="middle" x="713" y="-177.5" font-family="Helvetica,sans-Serif" font-size="10.00">optional</text>
</a>
</g>
</g>
<!-- Node7&#45;&gt;Node14 -->
<g id="edge15" class="edge">
<title>Node7&#45;&gt;Node14</title>
<path fill="none" stroke="#63b8ff" d="M386.55,-240.42C456.96,-234.16 576.28,-220.66 676,-195 678.44,-194.37 680.95,-193.63 683.45,-192.83"/>
<polygon fill="#63b8ff" stroke="#63b8ff" points="684.62,-196.13 692.9,-189.52 682.31,-189.52 684.62,-196.13"/>
</g>
<!-- Node7&#45;&gt;Node15 -->
<g id="edge16" class="edge">
<title>Node7&#45;&gt;Node15</title>
<path fill="none" stroke="#63b8ff" d="M317.25,-236.14C301.98,-220.87 269.23,-188.96 239,-165 216.68,-147.32 199.33,-154.16 186,-129 178.58,-114.99 182.47,-96.98 187.41,-83.72"/>
<polygon fill="#63b8ff" stroke="#63b8ff" points="190.73,-84.85 191.39,-74.27 184.28,-82.13 190.73,-84.85"/>
</g>
<!-- Node16 -->
<g id="node16" class="node">
<title>Node16</title>
<g id="a_node16"><a xlink:title=" ">
<polygon fill="#e0e0e0" stroke="#999999" points="553,-189.5 443,-189.5 443,-170.5 553,-170.5 553,-189.5"/>
<text text-anchor="middle" x="498" y="-177.5" font-family="Helvetica,sans-Serif" font-size="10.00">nlohmann/json.hpp</text>
</a>
</g>
</g>
<!-- Node7&#45;&gt;Node16 -->
<g id="edge17" class="edge">
<title>Node7&#45;&gt;Node16</title>
<path fill="none" stroke="#63b8ff" d="M349.2,-236.37C379.16,-225.22 431.48,-205.75 465.42,-193.12"/>
<polygon fill="#63b8ff" stroke="#63b8ff" points="466.75,-196.36 474.9,-189.6 464.3,-189.8 466.75,-196.36"/>
</g>
<!-- Node8&#45;&gt;Node5 -->
<g id="edge11" class="edge">
<title>Node8&#45;&gt;Node5</title>
<path fill="none" stroke="#63b8ff" d="M376.24,-170.48C384.33,-168.58 392.95,-166.64 401,-165 491.12,-146.64 517.4,-149.39 610.84,-129.07"/>
<polygon fill="#63b8ff" stroke="#63b8ff" points="611.7,-132.46 620.71,-126.89 610.2,-125.63 611.7,-132.46"/>
</g>
<!-- Node8&#45;&gt;Node6 -->
<g id="edge14" class="edge">
<title>Node8&#45;&gt;Node6</title>
<path fill="none" stroke="#63b8ff" d="M348.76,-170.29C358.19,-156.99 373.19,-130.96 364,-110 346.97,-71.15 306.46,-40.77 280.18,-24.26"/>
<polygon fill="#63b8ff" stroke="#63b8ff" points="281.9,-21.21 271.54,-19.01 278.26,-27.19 281.9,-21.21"/>
</g>
<!-- Node9 -->
<g id="node9" class="node">
<title>Node9</title>
<g id="a_node9"><a xlink:title=" ">
<polygon fill="#e0e0e0" stroke="#999999" points="475,-129 411,-129 411,-110 475,-110 475,-129"/>
<text text-anchor="middle" x="443" y="-117" font-family="Helvetica,sans-Serif" font-size="10.00">algorithm</text>
</a>
</g>
</g>
<!-- Node8&#45;&gt;Node9 -->
<g id="edge8" class="edge">
<title>Node8&#45;&gt;Node9</title>
<path fill="none" stroke="#63b8ff" d="M356.9,-170.37C373.31,-160.86 399.93,-145.45 419.23,-134.27"/>
<polygon fill="#63b8ff" stroke="#63b8ff" points="421.14,-137.21 428.04,-129.17 417.63,-131.15 421.14,-137.21"/>
</g>
<!-- Node10 -->
<g id="node10" class="node">
<title>Node10</title>
<g id="a_node10"><a xlink:title=" ">
<polygon fill="#e0e0e0" stroke="#999999" points="535,-129 493,-129 493,-110 535,-110 535,-129"/>
<text text-anchor="middle" x="514" y="-117" font-family="Helvetica,sans-Serif" font-size="10.00">array</text>
</a>
</g>
</g>
<!-- Node8&#45;&gt;Node10 -->
<g id="edge9" class="edge">
<title>Node8&#45;&gt;Node10</title>
<path fill="none" stroke="#63b8ff" d="M367.01,-170.49C397.75,-160.04 449.89,-142.3 483.1,-131.01"/>
<polygon fill="#63b8ff" stroke="#63b8ff" points="484.42,-134.26 492.76,-127.73 482.16,-127.63 484.42,-134.26"/>
</g>
<!-- Node11 -->
<g id="node11" class="node">
<title>Node11</title>
<g id="a_node11"><a xlink:title=" ">
<polygon fill="#e0e0e0" stroke="#999999" points="602.5,-129 553.5,-129 553.5,-110 602.5,-110 602.5,-129"/>
<text text-anchor="middle" x="578" y="-117" font-family="Helvetica,sans-Serif" font-size="10.00">cctype</text>
</a>
</g>
</g>
<!-- Node8&#45;&gt;Node11 -->
<g id="edge10" class="edge">
<title>Node8&#45;&gt;Node11</title>
<path fill="none" stroke="#63b8ff" d="M376.68,-170.44C414.96,-160.99 478.67,-145.24 543.5,-129.12"/>
<polygon fill="#63b8ff" stroke="#63b8ff" points="544.63,-132.45 553.49,-126.64 542.94,-125.65 544.63,-132.45"/>
</g>
<!-- Node12 -->
<g id="node12" class="node">
<title>Node12</title>
<g id="a_node12"><a xlink:title=" ">
<polygon fill="#e0e0e0" stroke="#999999" points="267.5,-129 194.5,-129 194.5,-110 267.5,-110 267.5,-129"/>
<text text-anchor="middle" x="231" y="-117" font-family="Helvetica,sans-Serif" font-size="10.00">string_view</text>
</a>
</g>
</g>
<!-- Node8&#45;&gt;Node12 -->
<g id="edge12" class="edge">
<title>Node8&#45;&gt;Node12</title>
<path fill="none" stroke="#63b8ff" d="M325.62,-170.37C307.42,-160.78 277.8,-145.17 256.55,-133.97"/>
<polygon fill="#63b8ff" stroke="#63b8ff" points="257.92,-130.73 247.45,-129.17 254.66,-136.93 257.92,-130.73"/>
</g>
<!-- Node13 -->
<g id="node13" class="node">
<title>Node13</title>
<g id="a_node13"><a xlink:title=" ">
<polygon fill="#e0e0e0" stroke="#999999" points="354.5,-129 285.5,-129 285.5,-110 354.5,-110 354.5,-129"/>
<text text-anchor="middle" x="320" y="-117" font-family="Helvetica,sans-Serif" font-size="10.00">type_traits</text>
</a>
</g>
</g>
<!-- Node8&#45;&gt;Node13 -->
<g id="edge13" class="edge">
<title>Node8&#45;&gt;Node13</title>
<path fill="none" stroke="#63b8ff" d="M338.75,-170.37C335.63,-162.07 330.82,-149.28 326.85,-138.72"/>
<polygon fill="#63b8ff" stroke="#63b8ff" points="330.06,-137.3 323.26,-129.17 323.5,-139.76 330.06,-137.3"/>
</g>
<!-- Node18&#45;&gt;Node8 -->
<g id="edge21" class="edge">
<title>Node18&#45;&gt;Node8</title>
<path fill="none" stroke="#63b8ff" d="M520.22,-296.84C481.79,-271.86 402.39,-220.25 363.89,-195.23"/>
<polygon fill="#63b8ff" stroke="#63b8ff" points="365.75,-192.26 355.46,-189.75 361.94,-198.13 365.75,-192.26"/>
</g>
<!-- Node19 -->
<g id="node19" class="node">
<title>Node19</title>
<g id="a_node19"><a xlink:href="serialised__entry_8h.html" target="_top" xlink:title=" ">
<polygon fill="white" stroke="#666666" points="1252.5,-195 1147.5,-195 1147.5,-165 1252.5,-165 1252.5,-195"/>
<text text-anchor="start" x="1155.5" y="-183" font-family="Helvetica,sans-Serif" font-size="10.00">ccf/kv/serialisers</text>
<text text-anchor="middle" x="1200" y="-172" font-family="Helvetica,sans-Serif" font-size="10.00">/serialised_entry.h</text>
</a>
</g>
</g>
<!-- Node18&#45;&gt;Node19 -->
<g id="edge22" class="edge">
<title>Node18&#45;&gt;Node19</title>
<path fill="none" stroke="#63b8ff" d="M591.79,-298.64C594.9,-298.04 597.99,-297.49 601,-297 692.83,-282.22 932.77,-298.24 1018,-261 1036.16,-253.06 1033.91,-241.03 1051,-231 1077.62,-215.38 1109.8,-203.8 1137.44,-195.74"/>
<polygon fill="#63b8ff" stroke="#63b8ff" points="1138.72,-199.02 1147.39,-192.93 1136.82,-192.28 1138.72,-199.02"/>
</g>
<!-- Node20 -->
<g id="node20" class="node">
<title>Node20</title>
<g id="a_node20"><a xlink:href="byte__vector_8h.html" target="_top" xlink:title=" ">
<polygon fill="white" stroke="#666666" points="783,-129 683,-129 683,-110 783,-110 783,-129"/>
<text text-anchor="middle" x="733" y="-117" font-family="Helvetica,sans-Serif" font-size="10.00">ccf/byte_vector.h</text>
</a>
</g>
</g>
<!-- Node19&#45;&gt;Node20 -->
<g id="edge23" class="edge">
<title>Node19&#45;&gt;Node20</title>
<path fill="none" stroke="#63b8ff" d="M1147.31,-166.68C1144.17,-166.08 1141.05,-165.51 1138,-165 1016.48,-144.67 872.84,-131.4 793.43,-125"/>
<polygon fill="#63b8ff" stroke="#63b8ff" points="793.38,-121.49 783.13,-124.18 792.82,-128.46 793.38,-121.49"/>
</g>
<!-- Node20&#45;&gt;Node15 -->
<g id="edge28" class="edge">
<title>Node20&#45;&gt;Node15</title>
<path fill="none" stroke="#63b8ff" d="M682.81,-111.09C679.83,-110.71 676.88,-110.34 674,-110 518.12,-91.53 332.87,-76.15 245.85,-69.31"/>
<polygon fill="#63b8ff" stroke="#63b8ff" points="245.97,-65.81 235.73,-68.52 245.43,-72.79 245.97,-65.81"/>
</g>
<!-- Node21 -->
<g id="node21" class="node">
<title>Node21</title>
<g id="a_node21"><a xlink:href="siphash_8h.html" target="_top" xlink:title=" ">
<polygon fill="white" stroke="#666666" points="573.5,-74 478.5,-74 478.5,-55 573.5,-55 573.5,-74"/>
<text text-anchor="middle" x="526" y="-62" font-family="Helvetica,sans-Serif" font-size="10.00">ccf/ds/siphash.h</text>
</a>
</g>
</g>
<!-- Node20&#45;&gt;Node21 -->
<g id="edge24" class="edge">
<title>Node20&#45;&gt;Node21</title>
<path fill="none" stroke="#63b8ff" d="M699.74,-109.98C664.39,-100.93 608.33,-86.58 569.49,-76.64"/>
<polygon fill="#63b8ff" stroke="#63b8ff" points="570.07,-73.17 559.52,-74.08 568.34,-79.95 570.07,-73.17"/>
</g>
<!-- Node24 -->
<g id="node24" class="node">
<title>Node24</title>
<g id="a_node24"><a xlink:title=" ">
<polygon fill="#e0e0e0" stroke="#999999" points="807.5,-74 658.5,-74 658.5,-55 807.5,-55 807.5,-74"/>
<text text-anchor="middle" x="733" y="-62" font-family="Helvetica,sans-Serif" font-size="10.00">small_vector/SmallVector.h</text>
</a>
</g>
</g>
<!-- Node20&#45;&gt;Node24 -->
<g id="edge29" class="edge">
<title>Node20&#45;&gt;Node24</title>
<path fill="none" stroke="#63b8ff" d="M733,-109.75C733,-102.8 733,-92.85 733,-84.13"/>
<polygon fill="#63b8ff" stroke="#63b8ff" points="736.5,-84.09 733,-74.09 729.5,-84.09 736.5,-84.09"/>
</g>
<!-- Node21&#45;&gt;Node6 -->
<g id="edge27" class="edge">
<title>Node21&#45;&gt;Node6</title>
<path fill="none" stroke="#63b8ff" d="M482.62,-54.98C428.87,-44.43 338.45,-26.68 289.65,-17.11"/>
<polygon fill="#63b8ff" stroke="#63b8ff" points="290.1,-13.63 279.61,-15.13 288.75,-20.5 290.1,-13.63"/>
</g>
<!-- Node22 -->
<g id="node22" class="node">
<title>Node22</title>
<g id="a_node22"><a xlink:title=" ">
<polygon fill="#e0e0e0" stroke="#999999" points="587.5,-19 534.5,-19 534.5,0 587.5,0 587.5,-19"/>
<text text-anchor="middle" x="561" y="-7" font-family="Helvetica,sans-Serif" font-size="10.00">cstddef</text>
</a>
</g>
</g>
<!-- Node21&#45;&gt;Node22 -->
<g id="edge25" class="edge">
<title>Node21&#45;&gt;Node22</title>
<path fill="none" stroke="#63b8ff" d="M531.78,-54.75C536.62,-47.42 543.68,-36.73 549.64,-27.7"/>
<polygon fill="#63b8ff" stroke="#63b8ff" points="552.74,-29.36 555.33,-19.09 546.9,-25.5 552.74,-29.36"/>
</g>
<!-- Node23 -->
<g id="node23" class="node">
<title>Node23</title>
<g id="a_node23"><a xlink:title=" ">
<polygon fill="#e0e0e0" stroke="#999999" points="516,-19 466,-19 466,0 516,0 516,-19"/>
<text text-anchor="middle" x="491" y="-7" font-family="Helvetica,sans-Serif" font-size="10.00">cstdint</text>
</a>
</g>
</g>
<!-- Node21&#45;&gt;Node23 -->
<g id="edge26" class="edge">
<title>Node21&#45;&gt;Node23</title>
<path fill="none" stroke="#63b8ff" d="M520.22,-54.75C515.38,-47.42 508.32,-36.73 502.36,-27.7"/>
<polygon fill="#63b8ff" stroke="#63b8ff" points="505.1,-25.5 496.67,-19.09 499.26,-29.36 505.1,-25.5"/>
</g>
<!-- Node26 -->
<g id="node26" class="node">
<title>Node26</title>
<g id="a_node26"><a xlink:href="kv_2map_8h.html" target="_top" xlink:title=" ">
<polygon fill="white" stroke="#666666" points="703,-382 623,-382 623,-363 703,-363 703,-382"/>
<text text-anchor="middle" x="663" y="-370" font-family="Helvetica,sans-Serif" font-size="10.00">ccf/kv/map.h</text>
</a>
</g>
</g>
<!-- Node25&#45;&gt;Node26 -->
<g id="edge32" class="edge">
<title>Node25&#45;&gt;Node26</title>
<path fill="none" stroke="#63b8ff" d="M709.88,-423.37C701.6,-414.55 688.53,-400.66 678.3,-389.77"/>
<polygon fill="#63b8ff" stroke="#63b8ff" points="680.55,-387.06 671.15,-382.17 675.45,-391.85 680.55,-387.06"/>
</g>
<!-- Node38 -->
<g id="node38" class="node">
<title>Node38</title>
<g id="a_node38"><a xlink:href="set_8h.html" target="_top" xlink:title=" ">
<polygon fill="white" stroke="#666666" points="907.5,-382 834.5,-382 834.5,-363 907.5,-363 907.5,-382"/>
<text text-anchor="middle" x="871" y="-370" font-family="Helvetica,sans-Serif" font-size="10.00">ccf/kv/set.h</text>
</a>
</g>
</g>
<!-- Node25&#45;&gt;Node38 -->
<g id="edge56" class="edge">
<title>Node25&#45;&gt;Node38</title>
<path fill="none" stroke="#63b8ff" d="M740.25,-423.49C766.31,-413.53 809.68,-396.95 839.27,-385.63"/>
<polygon fill="#63b8ff" stroke="#63b8ff" points="840.64,-388.86 848.73,-382.02 838.14,-382.32 840.64,-388.86"/>
</g>
<!-- Node41 -->
<g id="node41" class="node">
<title>Node41</title>
<g id="a_node41"><a xlink:href="value_8h.html" target="_top" xlink:title=" ">
<polygon fill="white" stroke="#666666" points="816.5,-382 731.5,-382 731.5,-363 816.5,-363 816.5,-382"/>
<text text-anchor="middle" x="774" y="-370" font-family="Helvetica,sans-Serif" font-size="10.00">ccf/kv/value.h</text>
</a>
</g>
</g>
<!-- Node25&#45;&gt;Node41 -->
<g id="edge66" class="edge">
<title>Node25&#45;&gt;Node41</title>
<path fill="none" stroke="#63b8ff" d="M726.26,-423.37C734.78,-414.47 748.26,-400.39 758.73,-389.45"/>
<polygon fill="#63b8ff" stroke="#63b8ff" points="761.32,-391.81 765.7,-382.17 756.26,-386.97 761.32,-391.81"/>
</g>
<!-- Node26&#45;&gt;Node18 -->
<g id="edge47" class="edge">
<title>Node26&#45;&gt;Node18</title>
<path fill="none" stroke="#63b8ff" d="M645.41,-362.99C628.43,-354.79 602.17,-342.09 580.36,-331.55"/>
<polygon fill="#63b8ff" stroke="#63b8ff" points="581.85,-328.38 571.32,-327.18 578.8,-334.68 581.85,-328.38"/>
</g>
<!-- Node27 -->
<g id="node27" class="node">
<title>Node27</title>
<g id="a_node27"><a xlink:href="get__name_8h.html" target="_top" xlink:title=" ">
<polygon fill="white" stroke="#666666" points="716.5,-321.5 609.5,-321.5 609.5,-302.5 716.5,-302.5 716.5,-321.5"/>
<text text-anchor="middle" x="663" y="-309.5" font-family="Helvetica,sans-Serif" font-size="10.00">ccf/kv/get_name.h</text>
</a>
</g>
</g>
<!-- Node26&#45;&gt;Node27 -->
<g id="edge33" class="edge">
<title>Node26&#45;&gt;Node27</title>
<path fill="none" stroke="#63b8ff" d="M663,-362.87C663,-354.75 663,-342.31 663,-331.89"/>
<polygon fill="#63b8ff" stroke="#63b8ff" points="666.5,-331.67 663,-321.67 659.5,-331.67 666.5,-331.67"/>
</g>
<!-- Node28 -->
<g id="node28" class="node">
<title>Node28</title>
<g id="a_node28"><a xlink:href="include_2ccf_2kv_2hooks_8h.html" target="_top" xlink:title=" ">
<polygon fill="white" stroke="#666666" points="836.5,-255.5 749.5,-255.5 749.5,-236.5 836.5,-236.5 836.5,-255.5"/>
<text text-anchor="middle" x="793" y="-243.5" font-family="Helvetica,sans-Serif" font-size="10.00">ccf/kv/hooks.h</text>
</a>
</g>
</g>
<!-- Node26&#45;&gt;Node28 -->
<g id="edge35" class="edge">
<title>Node26&#45;&gt;Node28</title>
<path fill="none" stroke="#63b8ff" d="M622.87,-372.07C545.97,-372.22 382.3,-367.62 347,-327 338.25,-316.94 338.11,-306.94 347,-297 372.75,-268.2 626.24,-254.02 739.18,-249.09"/>
<polygon fill="#63b8ff" stroke="#63b8ff" points="739.5,-252.58 749.34,-248.65 739.2,-245.58 739.5,-252.58"/>
</g>
<!-- Node32 -->
<g id="node32" class="node">
<title>Node32</title>
<g id="a_node32"><a xlink:href="map__handle_8h.html" target="_top" xlink:title=" ">
<polygon fill="white" stroke="#666666" points="474,-321.5 356,-321.5 356,-302.5 474,-302.5 474,-321.5"/>
<text text-anchor="middle" x="415" y="-309.5" font-family="Helvetica,sans-Serif" font-size="10.00">ccf/kv/map_handle.h</text>
</a>
</g>
</g>
<!-- Node26&#45;&gt;Node32 -->
<g id="edge39" class="edge">
<title>Node26&#45;&gt;Node32</title>
<path fill="none" stroke="#63b8ff" d="M626.94,-362.99C583.04,-352.64 508.85,-335.14 460.92,-323.83"/>
<polygon fill="#63b8ff" stroke="#63b8ff" points="461.64,-320.41 451.1,-321.52 460.03,-327.22 461.64,-320.41"/>
</g>
<!-- Node35 -->
<g id="node35" class="node">
<title>Node35</title>
<g id="a_node35"><a xlink:href="json__serialiser_8h.html" target="_top" xlink:title=" ">
<polygon fill="white" stroke="#666666" points="833.5,-327 734.5,-327 734.5,-297 833.5,-297 833.5,-327"/>
<text text-anchor="start" x="742.5" y="-315" font-family="Helvetica,sans-Serif" font-size="10.00">ccf/kv/serialisers</text>
<text text-anchor="middle" x="784" y="-304" font-family="Helvetica,sans-Serif" font-size="10.00">/json_serialiser.h</text>
</a>
</g>
</g>
<!-- Node26&#45;&gt;Node35 -->
<g id="edge48" class="edge">
<title>Node26&#45;&gt;Node35</title>
<path fill="none" stroke="#63b8ff" d="M680.59,-362.99C697.57,-354.79 723.83,-342.09 745.64,-331.55"/>
<polygon fill="#63b8ff" stroke="#63b8ff" points="747.2,-334.68 754.68,-327.18 744.15,-328.38 747.2,-334.68"/>
</g>
<!-- Node36 -->
<g id="node36" class="node">
<title>Node36</title>
<g id="a_node36"><a xlink:href="untyped_8h.html" target="_top" xlink:title=" ">
<polygon fill="white" stroke="#666666" points="1026,-321.5 928,-321.5 928,-302.5 1026,-302.5 1026,-321.5"/>
<text text-anchor="middle" x="977" y="-309.5" font-family="Helvetica,sans-Serif" font-size="10.00">ccf/kv/untyped.h</text>
</a>
</g>
</g>
<!-- Node26&#45;&gt;Node36 -->
<g id="edge51" class="edge">
<title>Node26&#45;&gt;Node36</title>
<path fill="none" stroke="#63b8ff" d="M703.09,-364.03C758.45,-353.72 858.56,-335.07 921.21,-323.39"/>
<polygon fill="#63b8ff" stroke="#63b8ff" points="922.12,-326.79 931.31,-321.51 920.83,-319.9 922.12,-326.79"/>
</g>
<!-- Node27&#45;&gt;Node5 -->
<g id="edge34" class="edge">
<title>Node27&#45;&gt;Node5</title>
<path fill="none" stroke="#63b8ff" d="M656.27,-302.33C642.43,-283.86 611.12,-238.76 600,-195 596.72,-182.08 595,-177.36 600,-165 604.69,-153.41 614,-143.16 622.76,-135.43"/>
<polygon fill="#63b8ff" stroke="#63b8ff" points="625,-138.12 630.51,-129.07 620.56,-132.71 625,-138.12"/>
</g>
<!-- Node29 -->
<g id="node29" class="node">
<title>Node29</title>
<g id="a_node29"><a xlink:href="version_8h.html" target="_top" xlink:title=" ">
<polygon fill="white" stroke="#666666" points="937,-189.5 843,-189.5 843,-170.5 937,-170.5 937,-189.5"/>
<text text-anchor="middle" x="890" y="-177.5" font-family="Helvetica,sans-Serif" font-size="10.00">ccf/kv/version.h</text>
</a>
</g>
</g>
<!-- Node28&#45;&gt;Node29 -->
<g id="edge36" class="edge">
<title>Node28&#45;&gt;Node29</title>
<path fill="none" stroke="#63b8ff" d="M806.08,-236.37C822.06,-225.82 849.33,-207.84 868.43,-195.23"/>
<polygon fill="#63b8ff" stroke="#63b8ff" points="870.4,-198.13 876.82,-189.7 866.54,-192.28 870.4,-198.13"/>
</g>
<!-- Node30 -->
<g id="node30" class="node">
<title>Node30</title>
<g id="a_node30"><a xlink:title=" ">
<polygon fill="#e0e0e0" stroke="#999999" points="824.5,-189.5 759.5,-189.5 759.5,-170.5 824.5,-170.5 824.5,-189.5"/>
<text text-anchor="middle" x="792" y="-177.5" font-family="Helvetica,sans-Serif" font-size="10.00">functional</text>
</a>
</g>
</g>
<!-- Node28&#45;&gt;Node30 -->
<g id="edge37" class="edge">
<title>Node28&#45;&gt;Node30</title>
<path fill="none" stroke="#63b8ff" d="M792.87,-236.37C792.72,-227.16 792.49,-212.29 792.3,-200.27"/>
<polygon fill="#63b8ff" stroke="#63b8ff" points="795.8,-199.85 792.14,-189.91 788.8,-199.96 795.8,-199.85"/>
</g>
<!-- Node31 -->
<g id="node31" class="node">
<title>Node31</title>
<g id="a_node31"><a xlink:title=" ">
<polygon fill="#e0e0e0" stroke="#999999" points="667,-189.5 609,-189.5 609,-170.5 667,-170.5 667,-189.5"/>
<text text-anchor="middle" x="638" y="-177.5" font-family="Helvetica,sans-Serif" font-size="10.00">memory</text>
</a>
</g>
</g>
<!-- Node28&#45;&gt;Node31 -->
<g id="edge38" class="edge">
<title>Node28&#45;&gt;Node31</title>
<path fill="none" stroke="#63b8ff" d="M772.1,-236.37C745.4,-225.35 699.01,-206.19 668.41,-193.55"/>
<polygon fill="#63b8ff" stroke="#63b8ff" points="669.65,-190.28 659.07,-189.7 666.98,-196.75 669.65,-190.28"/>
</g>
<!-- Node33 -->
<g id="node33" class="node">
<title>Node33</title>
<g id="a_node33"><a xlink:href="untyped__map__handle_8h.html" target="_top" xlink:title=" ">
<polygon fill="white" stroke="#666666" points="1009,-261 893,-261 893,-231 1009,-231 1009,-261"/>
<text text-anchor="start" x="901" y="-249" font-family="Helvetica,sans-Serif" font-size="10.00">ccf/kv/untyped_map</text>
<text text-anchor="middle" x="951" y="-238" font-family="Helvetica,sans-Serif" font-size="10.00">_handle.h</text>
</a>
</g>
</g>
<!-- Node32&#45;&gt;Node33 -->
<g id="edge40" class="edge">
<title>Node32&#45;&gt;Node33</title>
<path fill="none" stroke="#63b8ff" d="M453.56,-302.46C463.45,-300.47 474.09,-298.49 484,-297 643.88,-272.89 685.4,-279.69 846,-261 857.85,-259.62 870.43,-258.04 882.61,-256.45"/>
<polygon fill="#63b8ff" stroke="#63b8ff" points="883.27,-259.9 892.73,-255.12 882.36,-252.96 883.27,-259.9"/>
</g>
<!-- Node33&#45;&gt;Node5 -->
<g id="edge46" class="edge">
<title>Node33&#45;&gt;Node5</title>
<path fill="none" stroke="#63b8ff" d="M954.94,-230.78C958.93,-212.95 962.42,-182.6 946,-165 906.35,-122.51 749.48,-139.3 675.55,-128.76"/>
<polygon fill="#63b8ff" stroke="#63b8ff" points="675.71,-125.23 665.26,-126.99 674.53,-132.13 675.71,-125.23"/>
</g>
<!-- Node33&#45;&gt;Node14 -->
<g id="edge45" class="edge">
<title>Node33&#45;&gt;Node14</title>
<path fill="none" stroke="#63b8ff" d="M892.78,-232.2C852.63,-222.94 798.2,-209.55 751,-195 748.87,-194.34 746.69,-193.64 744.49,-192.9"/>
<polygon fill="#63b8ff" stroke="#63b8ff" points="745.56,-189.56 734.97,-189.55 743.24,-196.17 745.56,-189.56"/>
</g>
<!-- Node33&#45;&gt;Node19 -->
<g id="edge42" class="edge">
<title>Node33&#45;&gt;Node19</title>
<path fill="none" stroke="#63b8ff" d="M1005.64,-230.95C1044.53,-220.96 1096.85,-207.51 1137.41,-197.09"/>
<polygon fill="#63b8ff" stroke="#63b8ff" points="1138.38,-200.45 1147.19,-194.57 1136.63,-193.67 1138.38,-200.45"/>
</g>
<!-- Node33&#45;&gt;Node29 -->
<g id="edge43" class="edge">
<title>Node33&#45;&gt;Node29</title>
<path fill="none" stroke="#63b8ff" d="M937.46,-230.8C927.95,-220.82 915.22,-207.46 905.33,-197.09"/>
<polygon fill="#63b8ff" stroke="#63b8ff" points="907.86,-194.67 898.43,-189.84 902.8,-199.5 907.86,-194.67"/>
</g>
<!-- Node33&#45;&gt;Node30 -->
<g id="edge44" class="edge">
<title>Node33&#45;&gt;Node30</title>
<path fill="none" stroke="#63b8ff" d="M916.11,-230.95C888.22,-219.73 849.51,-204.15 822.77,-193.39"/>
<polygon fill="#63b8ff" stroke="#63b8ff" points="823.74,-190 813.16,-189.52 821.13,-196.5 823.74,-190"/>
</g>
<!-- Node34 -->
<g id="node34" class="node">
<title>Node34</title>
<g id="a_node34"><a xlink:href="abstract__handle_8h.html" target="_top" xlink:title=" ">
<polygon fill="white" stroke="#666666" points="1129,-189.5 993,-189.5 993,-170.5 1129,-170.5 1129,-189.5"/>
<text text-anchor="middle" x="1061" y="-177.5" font-family="Helvetica,sans-Serif" font-size="10.00">ccf/kv/abstract_handle.h</text>
</a>
</g>
</g>
<!-- Node33&#45;&gt;Node34 -->
<g id="edge41" class="edge">
<title>Node33&#45;&gt;Node34</title>
<path fill="none" stroke="#63b8ff" d="M975.14,-230.95C993.67,-220.18 1019.1,-205.38 1037.47,-194.69"/>
<polygon fill="#63b8ff" stroke="#63b8ff" points="1039.48,-197.57 1046.36,-189.52 1035.96,-191.52 1039.48,-197.57"/>
</g>
<!-- Node35&#45;&gt;Node16 -->
<g id="edge50" class="edge">
<title>Node35&#45;&gt;Node16</title>
<path fill="none" stroke="#63b8ff" d="M753.12,-296.96C697.23,-271.56 580.12,-218.33 526.23,-193.83"/>
<polygon fill="#63b8ff" stroke="#63b8ff" points="527.49,-190.56 516.94,-189.61 524.59,-196.93 527.49,-190.56"/>
</g>
<!-- Node35&#45;&gt;Node19 -->
<g id="edge49" class="edge">
<title>Node35&#45;&gt;Node19</title>
<path fill="none" stroke="#63b8ff" d="M833.59,-304.27C899.61,-294.87 1012.51,-277.14 1051,-261 1072.49,-251.99 1073.84,-242.68 1094,-231 1114.12,-219.34 1137.41,-208.13 1157.02,-199.29"/>
<polygon fill="#63b8ff" stroke="#63b8ff" points="1158.61,-202.41 1166.32,-195.14 1155.76,-196.01 1158.61,-202.41"/>
</g>
<!-- Node36&#45;&gt;Node14 -->
<g id="edge55" class="edge">
<title>Node36&#45;&gt;Node14</title>
<path fill="none" stroke="#63b8ff" d="M958.99,-302.49C939.85,-293.18 908.98,-277.39 884,-261 866.01,-249.19 864.74,-241.58 846,-231 843.69,-229.7 784.36,-207.54 745.74,-193.17"/>
<polygon fill="#63b8ff" stroke="#63b8ff" points="746.52,-189.73 735.93,-189.52 744.08,-196.29 746.52,-189.73"/>
</g>
<!-- Node36&#45;&gt;Node19 -->
<g id="edge53" class="edge">
<title>Node36&#45;&gt;Node19</title>
<path fill="none" stroke="#63b8ff" d="M1011.51,-302.44C1058.7,-290.52 1138.84,-269.43 1150,-261 1169.19,-246.51 1182.81,-222.33 1190.94,-204.34"/>
<polygon fill="#63b8ff" stroke="#63b8ff" points="1194.19,-205.65 1194.9,-195.08 1187.75,-202.9 1194.19,-205.65"/>
</g>
<!-- Node36&#45;&gt;Node28 -->
<g id="edge52" class="edge">
<title>Node36&#45;&gt;Node28</title>
<path fill="none" stroke="#63b8ff" d="M952.18,-302.37C920,-291.17 863.68,-271.58 827.38,-258.96"/>
<polygon fill="#63b8ff" stroke="#63b8ff" points="828.31,-255.58 817.72,-255.6 826.01,-262.19 828.31,-255.58"/>
</g>
<!-- Node37 -->
<g id="node37" class="node">
<title>Node37</title>
<g id="a_node37"><a xlink:title=" ">
<polygon fill="#e0e0e0" stroke="#999999" points="1141,-255.5 1103,-255.5 1103,-236.5 1141,-236.5 1141,-255.5"/>
<text text-anchor="middle" x="1122" y="-243.5" font-family="Helvetica,sans-Serif" font-size="10.00">map</text>
</a>
</g>
</g>
<!-- Node36&#45;&gt;Node37 -->
<g id="edge54" class="edge">
<title>Node36&#45;&gt;Node37</title>
<path fill="none" stroke="#63b8ff" d="M996.56,-302.37C1021.45,-291.38 1064.65,-272.31 1093.29,-259.67"/>
<polygon fill="#63b8ff" stroke="#63b8ff" points="1095.02,-262.73 1102.75,-255.49 1092.19,-256.33 1095.02,-262.73"/>
</g>
<!-- Node38&#45;&gt;Node18 -->
<g id="edge59" class="edge">
<title>Node38&#45;&gt;Node18</title>
<path fill="none" stroke="#63b8ff" d="M834.18,-364.46C831.41,-363.96 828.66,-363.46 826,-363 729.35,-346.14 702.03,-346.65 601.48,-327"/>
<polygon fill="#63b8ff" stroke="#63b8ff" points="602,-323.53 591.52,-325.03 600.65,-330.4 602,-323.53"/>
</g>
<!-- Node38&#45;&gt;Node27 -->
<g id="edge57" class="edge">
<title>Node38&#45;&gt;Node27</title>
<path fill="none" stroke="#63b8ff" d="M840.76,-362.99C804.4,-352.77 743.27,-335.58 703.03,-324.26"/>
<polygon fill="#63b8ff" stroke="#63b8ff" points="703.86,-320.85 693.28,-321.52 701.96,-327.59 703.86,-320.85"/>
</g>
<!-- Node38&#45;&gt;Node28 -->
<g id="edge58" class="edge">
<title>Node38&#45;&gt;Node28</title>
<path fill="none" stroke="#63b8ff" d="M871.59,-362.99C872.21,-348.39 871.69,-318.11 859,-297 849.71,-281.54 833.66,-269.22 819.72,-260.68"/>
<polygon fill="#63b8ff" stroke="#63b8ff" points="821.36,-257.58 810.95,-255.61 817.86,-263.64 821.36,-257.58"/>
</g>
<!-- Node38&#45;&gt;Node35 -->
<g id="edge60" class="edge">
<title>Node38&#45;&gt;Node35</title>
<path fill="none" stroke="#63b8ff" d="M858.16,-362.87C846.47,-355 828.75,-343.09 813.57,-332.89"/>
<polygon fill="#63b8ff" stroke="#63b8ff" points="815.24,-329.79 804.99,-327.11 811.34,-335.6 815.24,-329.79"/>
</g>
<!-- Node38&#45;&gt;Node36 -->
<g id="edge65" class="edge">
<title>Node38&#45;&gt;Node36</title>
<path fill="none" stroke="#63b8ff" d="M886.64,-362.87C903.94,-353.32 932.05,-337.81 952.33,-326.62"/>
<polygon fill="#63b8ff" stroke="#63b8ff" points="954.23,-329.56 961.3,-321.67 950.85,-323.43 954.23,-329.56"/>
</g>
<!-- Node39 -->
<g id="node39" class="node">
<title>Node39</title>
<g id="a_node39"><a xlink:href="set__handle_8h.html" target="_top" xlink:title=" ">
<polygon fill="white" stroke="#666666" points="1296.5,-321.5 1185.5,-321.5 1185.5,-302.5 1296.5,-302.5 1296.5,-321.5"/>
<text text-anchor="middle" x="1241" y="-309.5" font-family="Helvetica,sans-Serif" font-size="10.00">ccf/kv/set_handle.h</text>
</a>
</g>
</g>
<!-- Node38&#45;&gt;Node39 -->
<g id="edge61" class="edge">
<title>Node38&#45;&gt;Node39</title>
<path fill="none" stroke="#63b8ff" d="M907.88,-367C965.51,-359.76 1080.34,-344.58 1177,-327 1182.53,-326 1188.3,-324.86 1194.02,-323.67"/>
<polygon fill="#63b8ff" stroke="#63b8ff" points="1195.14,-327.01 1204.2,-321.52 1193.69,-320.17 1195.14,-327.01"/>
</g>
<!-- Node39&#45;&gt;Node33 -->
<g id="edge64" class="edge">
<title>Node39&#45;&gt;Node33</title>
<path fill="none" stroke="#63b8ff" d="M1202.19,-302.44C1155.45,-292.12 1076.13,-274.62 1019.12,-262.03"/>
<polygon fill="#63b8ff" stroke="#63b8ff" points="1019.62,-258.56 1009.11,-259.82 1018.12,-265.4 1019.62,-258.56"/>
</g>
<!-- Node40 -->
<g id="node40" class="node">
<title>Node40</title>
<g id="a_node40"><a xlink:href="unit_8h.html" target="_top" xlink:title=" ">
<polygon fill="white" stroke="#666666" points="1274.5,-255.5 1197.5,-255.5 1197.5,-236.5 1274.5,-236.5 1274.5,-255.5"/>
<text text-anchor="middle" x="1236" y="-243.5" font-family="Helvetica,sans-Serif" font-size="10.00">ccf/kv/unit.h</text>
</a>
</g>
</g>
<!-- Node39&#45;&gt;Node40 -->
<g id="edge62" class="edge">
<title>Node39&#45;&gt;Node40</title>
<path fill="none" stroke="#63b8ff" d="M1240.33,-302.37C1239.6,-293.07 1238.42,-277.98 1237.48,-265.9"/>
<polygon fill="#63b8ff" stroke="#63b8ff" points="1240.96,-265.6 1236.7,-255.91 1233.99,-266.15 1240.96,-265.6"/>
</g>
<!-- Node40&#45;&gt;Node19 -->
<g id="edge63" class="edge">
<title>Node40&#45;&gt;Node19</title>
<path fill="none" stroke="#63b8ff" d="M1231.14,-236.37C1226.53,-228.16 1219.37,-215.44 1213.08,-204.26"/>
<polygon fill="#63b8ff" stroke="#63b8ff" points="1216.03,-202.36 1208.08,-195.36 1209.93,-205.79 1216.03,-202.36"/>
</g>
<!-- Node41&#45;&gt;Node18 -->
<g id="edge69" class="edge">
<title>Node41&#45;&gt;Node18</title>
<path fill="none" stroke="#63b8ff" d="M740.27,-362.99C703.93,-353.83 645.4,-339.07 601.34,-327.96"/>
<polygon fill="#63b8ff" stroke="#63b8ff" points="602.16,-324.56 591.61,-325.51 600.45,-331.35 602.16,-324.56"/>
</g>
<!-- Node41&#45;&gt;Node27 -->
<g id="edge67" class="edge">
<title>Node41&#45;&gt;Node27</title>
<path fill="none" stroke="#63b8ff" d="M757.62,-362.87C739.42,-353.28 709.8,-337.67 688.55,-326.47"/>
<polygon fill="#63b8ff" stroke="#63b8ff" points="689.92,-323.23 679.45,-321.67 686.66,-329.43 689.92,-323.23"/>
</g>
<!-- Node41&#45;&gt;Node28 -->
<g id="edge68" class="edge">
<title>Node41&#45;&gt;Node28</title>
<path fill="none" stroke="#63b8ff" d="M798.47,-362.86C814.27,-355.85 833.59,-344.27 843,-327 849.38,-315.29 848.1,-309.32 843,-297 837.22,-283.04 825.44,-270.94 814.76,-262.15"/>
<polygon fill="#63b8ff" stroke="#63b8ff" points="816.63,-259.17 806.57,-255.83 812.35,-264.71 816.63,-259.17"/>
</g>
<!-- Node41&#45;&gt;Node35 -->
<g id="edge70" class="edge">
<title>Node41&#45;&gt;Node35</title>
<path fill="none" stroke="#63b8ff" d="M775.48,-362.87C776.63,-356.11 778.3,-346.35 779.85,-337.26"/>
<polygon fill="#63b8ff" stroke="#63b8ff" points="783.35,-337.56 781.59,-327.11 776.45,-336.38 783.35,-337.56"/>
</g>
<!-- Node41&#45;&gt;Node36 -->
<g id="edge71" class="edge">
<title>Node41&#45;&gt;Node36</title>
<path fill="none" stroke="#63b8ff" d="M803.52,-362.99C838.92,-352.79 898.4,-335.65 937.68,-324.33"/>
<polygon fill="#63b8ff" stroke="#63b8ff" points="938.81,-327.65 947.45,-321.52 936.87,-320.92 938.81,-327.65"/>
</g>
<!-- Node42 -->
<g id="node42" class="node">
<title>Node42</title>
<g id="a_node42"><a xlink:href="value__handle_8h.html" target="_top" xlink:title=" ">
<polygon fill="white" stroke="#666666" points="1167.5,-321.5 1044.5,-321.5 1044.5,-302.5 1167.5,-302.5 1167.5,-321.5"/>
<text text-anchor="middle" x="1106" y="-309.5" font-family="Helvetica,sans-Serif" font-size="10.00">ccf/kv/value_handle.h</text>
</a>
</g>
</g>
<!-- Node41&#45;&gt;Node42 -->
<g id="edge72" class="edge">
<title>Node41&#45;&gt;Node42</title>
<path fill="none" stroke="#63b8ff" d="M816.5,-364.39C879.3,-353.86 993.86,-334.56 1035,-327 1041.08,-325.88 1047.45,-324.68 1053.77,-323.46"/>
<polygon fill="#63b8ff" stroke="#63b8ff" points="1054.46,-326.89 1063.61,-321.54 1053.13,-320.02 1054.46,-326.89"/>
</g>
<!-- Node42&#45;&gt;Node33 -->
<g id="edge74" class="edge">
<title>Node42&#45;&gt;Node33</title>
<path fill="none" stroke="#63b8ff" d="M1085.1,-302.37C1061.98,-292.82 1024.1,-277.18 994.48,-264.95"/>
<polygon fill="#63b8ff" stroke="#63b8ff" points="995.77,-261.7 985.19,-261.12 993.09,-268.17 995.77,-261.7"/>
</g>
<!-- Node42&#45;&gt;Node40 -->
<g id="edge73" class="edge">
<title>Node42&#45;&gt;Node40</title>
<path fill="none" stroke="#63b8ff" d="M1123.53,-302.37C1145.53,-291.54 1183.49,-272.85 1209.15,-260.22"/>
<polygon fill="#63b8ff" stroke="#63b8ff" points="1210.9,-263.26 1218.33,-255.7 1207.81,-256.98 1210.9,-263.26"/>
</g>
<!-- Node43&#45;&gt;Node3 -->
<g id="edge78" class="edge">
<title>Node43&#45;&gt;Node3</title>
<path fill="none" stroke="#63b8ff" d="M114.18,-417.83C103.82,-403.57 91.73,-381.16 101,-363 109.22,-346.89 125.32,-334.77 139.9,-326.5"/>
<polygon fill="#63b8ff" stroke="#63b8ff" points="141.95,-329.37 149.17,-321.61 138.69,-323.18 141.95,-329.37"/>
</g>
<!-- Node43&#45;&gt;Node6 -->
<g id="edge79" class="edge">
<title>Node43&#45;&gt;Node6</title>
<path fill="none" stroke="#63b8ff" d="M92.57,-417.89C55.24,-399.63 0,-364 0,-313 0,-313 0,-313 0,-118.5 0,-23.06 152.9,-10.64 222.37,-9.91"/>
<polygon fill="#63b8ff" stroke="#63b8ff" points="222.38,-13.41 232.38,-9.88 222.37,-6.41 222.38,-13.41"/>
</g>
<!-- Node44 -->
<g id="node44" class="node">
<title>Node44</title>
<g id="a_node44"><a xlink:href="md__type_8h.html" target="_top" xlink:title=" ">
<polygon fill="white" stroke="#666666" points="229.5,-382 110.5,-382 110.5,-363 229.5,-363 229.5,-382"/>
<text text-anchor="middle" x="170" y="-370" font-family="Helvetica,sans-Serif" font-size="10.00">ccf/crypto/md_type.h</text>
</a>
</g>
</g>
<!-- Node43&#45;&gt;Node44 -->
<g id="edge76" class="edge">
<title>Node43&#45;&gt;Node44</title>
<path fill="none" stroke="#63b8ff" d="M136.65,-417.84C142.84,-409.61 150.69,-399.18 157.21,-390.51"/>
<polygon fill="#63b8ff" stroke="#63b8ff" points="160.19,-392.36 163.41,-382.27 154.6,-388.15 160.19,-392.36"/>
</g>
<!-- Node44&#45;&gt;Node3 -->
<g id="edge77" class="edge">
<title>Node44&#45;&gt;Node3</title>
<path fill="none" stroke="#63b8ff" d="M170,-362.87C170,-354.75 170,-342.31 170,-331.89"/>
<polygon fill="#63b8ff" stroke="#63b8ff" points="173.5,-331.67 170,-321.67 166.5,-331.67 173.5,-331.67"/>
</g>
</g>
</svg>
        <g id="navigator" transform="translate(0 0)" fill="#404254">
                <rect fill="#f2f5e9" fill-opacity="0.5" stroke="#606060" stroke-width=".5" x="0" y="0" width="60" height="60"/>
                <use id="zoomplus" xlink:href="#zoomPlus" x="17" y="9" onmousedown="handleZoom(evt,'in')"/>
                <use id="zoomminus" xlink:href="#zoomMin" x="42" y="9" onmousedown="handleZoom(evt,'out')"/>
                <use id="reset" xlink:href="#resetDef" x="30" y="36" onmousedown="handleReset()"/>
                <g id="arrowUp" xlink:href="#dirArrow" transform="translate(30 24)" onmousedown="handlePan(0,-1)">
                  <use xlink:href="#rim" fill="#404040">
                        <set attributeName="fill" to="#808080" begin="arrowUp.mouseover" end="arrowUp.mouseout"/>
                  </use>
                  <path fill="none" stroke="white" stroke-width="1.5" d="M0,-3.0v7 M-2.5,-0.5L0,-3.0L2.5,-0.5"/>
                </g>
                <g id="arrowRight" xlink:href="#dirArrow" transform="rotate(90) translate(36 -43)" onmousedown="handlePan(1,0)">
                  <use xlink:href="#rim" fill="#404040">
                        <set attributeName="fill" to="#808080" begin="arrowRight.mouseover" end="arrowRight.mouseout"/>
                  </use>
                  <path fill="none" stroke="white" stroke-width="1.5" d="M0,-3.0v7 M-2.5,-0.5L0,-3.0L2.5,-0.5"/>
                </g>
                <g id="arrowDown" xlink:href="#dirArrow" transform="rotate(180) translate(-30 -48)" onmousedown="handlePan(0,1)">
                  <use xlink:href="#rim" fill="#404040">
                        <set attributeName="fill" to="#808080" begin="arrowDown.mouseover" end="arrowDown.mouseout"/>
                  </use>
                  <path fill="none" stroke="white" stroke-width="1.5" d="M0,-3.0v7 M-2.5,-0.5L0,-3.0L2.5,-0.5"/>
                </g>
                <g id="arrowLeft" xlink:href="#dirArrow" transform="rotate(270) translate(-36 17)" onmousedown="handlePan(-1,0)">
                  <use xlink:href="#rim" fill="#404040">
                        <set attributeName="fill" to="#808080" begin="arrowLeft.mouseover" end="arrowLeft.mouseout"/>
                  </use>
                  <path fill="none" stroke="white" stroke-width="1.5" d="M0,-3.0v7 M-2.5,-0.5L0,-3.0L2.5,-0.5"/>
                </g>
        </g>
        <svg viewBox="0 0 15 15" width="100%" height="30px" preserveAspectRatio="xMaxYMin meet">
         <g id="arrow_out" transform="scale(0.3 0.3)">
          <a xlink:href="governance__history_8h__incl_org.svg" target="_base">
           <rect id="button" ry="5" rx="5" y="6" x="6" height="38" width="38"
                fill="#f2f5e9" fill-opacity="0.5" stroke="#606060" stroke-width="1.0"/>
           <path id="arrow"
             d="M 11.500037,31.436501 C 11.940474,20.09759 22.043105,11.32322 32.158766,21.979434 L 37.068811,17.246167 C 37.068811,17.246167 37.088388,32 37.088388,32 L 22.160133,31.978069 C 22.160133,31.978069 26.997745,27.140456 26.997745,27.140456 C 18.528582,18.264221 13.291696,25.230495 11.500037,31.436501 z"
             style="fill:#404040;"/>
          </a>
         </g>
        </svg>
</svg>
