<?xml version="1.0" encoding="UTF-8" standalone="no"?>
<!DOCTYPE svg PUBLIC "-//W3C//DTD SVG 1.1//EN"
 "http://www.w3.org/Graphics/SVG/1.1/DTD/svg11.dtd">
<!-- Generated by graphviz version 2.43.0 (0)
 -->
<!-- Title: include/ccf/crypto/ecdsa.h Pages: 1 -->
<!--zoomable 577 -->
<svg id="main" version="1.1" xmlns="http://www.w3.org/2000/svg" xmlns:xlink="http://www.w3.org/1999/xlink" xml:space="preserve" onload="init(evt)">
<style type="text/css"><![CDATA[
.edge:hover path { stroke: red; }
.edge:hover polygon { stroke: red; fill: red; }
]]></style>
<script type="text/javascript"><![CDATA[
var edges = document.getElementsByTagName('g');
if (edges && edges.length) {
  for (var i=0;i<edges.length;i++) {
    if (edges[i].id.substr(0,4)=='edge') {
      edges[i].setAttribute('class','edge');
    }
  }
}
]]></script>
        <defs>
                <circle id="rim" cx="0" cy="0" r="7"/>
                <circle id="rim2" cx="0" cy="0" r="3.5"/>
                <g id="zoomPlus">
                        <use xlink:href="#rim" fill="#404040">
                                <set attributeName="fill" to="#808080" begin="zoomplus.mouseover" end="zoomplus.mouseout"/>
                        </use>
                        <path d="M-4,0h8M0,-4v8" fill="none" stroke="white" stroke-width="1.5" pointer-events="none"/>
                </g>
                <g id="zoomMin">
                        <use xlink:href="#rim" fill="#404040">
                                <set attributeName="fill" to="#808080" begin="zoomminus.mouseover" end="zoomminus.mouseout"/>
                        </use>
                        <path d="M-4,0h8" fill="none" stroke="white" stroke-width="1.5" pointer-events="none"/>
                </g>
                <g id="dirArrow">
                        <path fill="none" stroke="white" stroke-width="1.5" d="M0,-3.0v7 M-2.5,-0.5L0,-3.0L2.5,-0.5"/>
                </g>
               <g id="resetDef">
                       <use xlink:href="#rim2" fill="#404040">
                               <set attributeName="fill" to="#808080" begin="reset.mouseover" end="reset.mouseout"/>
                       </use>
               </g>
        </defs>

<script type="text/javascript">
var viewWidth = 957;
var viewHeight = 577;
var sectionId = 'dynsection-1';
</script>
<script xlink:href="svgpan.js"/>
<svg id="graph" class="graph">
<g id="viewport">
<title>include/ccf/crypto/ecdsa.h</title>
<!-- Node1 -->
<g id="node1" class="node">
<title>Node1</title>
<g id="a_node1"><a xlink:title=" ">
<polygon fill="#999999" stroke="#666666" points="679.04,-569 576.04,-569 576.04,-539 679.04,-539 679.04,-569"/>
<text text-anchor="start" x="584.04" y="-557" font-family="Helvetica,sans-Serif" font-size="10.00">include/ccf/crypto</text>
<text text-anchor="middle" x="627.54" y="-546" font-family="Helvetica,sans-Serif" font-size="10.00">/ecdsa.h</text>
</a>
</g>
</g>
<!-- Node2 -->
<g id="node2" class="node">
<title>Node2</title>
<g id="a_node2"><a xlink:href="attestation_8h.html" target="_top" xlink:title=" ">
<polygon fill="white" stroke="#666666" points="226.54,-365.5 74.54,-365.5 74.54,-346.5 226.54,-346.5 226.54,-365.5"/>
<text text-anchor="middle" x="150.54" y="-353.5" font-family="Helvetica,sans-Serif" font-size="10.00">include/ccf/pal/attestation.h</text>
</a>
</g>
</g>
<!-- Node1&#45;&gt;Node2 -->
<g id="edge1" class="edge">
<title>Node1&#45;&gt;Node2</title>
<path fill="none" stroke="#63b8ff" d="M565.7,-545.2C454.19,-529.9 225.87,-492.53 170.54,-437 151.14,-417.53 149.59,-382.26 150.03,-365.85"/>
<polygon fill="#63b8ff" stroke="#63b8ff" points="565.41,-548.69 575.79,-546.57 566.35,-541.75 565.41,-548.69"/>
</g>
<!-- Node12 -->
<g id="node12" class="node">
<title>Node12</title>
<g id="a_node12"><a xlink:href="raft__types_8h.html" target="_top" xlink:title=" ">
<polygon fill="white" stroke="#666666" points="619.54,-503 499.54,-503 499.54,-473 619.54,-473 619.54,-503"/>
<text text-anchor="start" x="507.54" y="-491" font-family="Helvetica,sans-Serif" font-size="10.00">src/consensus/aft/raft</text>
<text text-anchor="middle" x="559.54" y="-480" font-family="Helvetica,sans-Serif" font-size="10.00">_types.h</text>
</a>
</g>
</g>
<!-- Node1&#45;&gt;Node12 -->
<g id="edge15" class="edge">
<title>Node1&#45;&gt;Node12</title>
<path fill="none" stroke="#63b8ff" d="M605.15,-531.92C595.12,-522.49 583.56,-511.61 574.59,-503.16"/>
<polygon fill="#63b8ff" stroke="#63b8ff" points="602.77,-534.49 612.45,-538.8 607.57,-529.39 602.77,-534.49"/>
</g>
<!-- Node23 -->
<g id="node23" class="node">
<title>Node23</title>
<g id="a_node23"><a xlink:href="ecdsa_8cpp.html" target="_top" xlink:title=" ">
<polygon fill="white" stroke="#666666" points="753.54,-497.5 637.54,-497.5 637.54,-478.5 753.54,-478.5 753.54,-497.5"/>
<text text-anchor="middle" x="695.54" y="-485.5" font-family="Helvetica,sans-Serif" font-size="10.00">src/crypto/ecdsa.cpp</text>
</a>
</g>
</g>
<!-- Node1&#45;&gt;Node23 -->
<g id="edge37" class="edge">
<title>Node1&#45;&gt;Node23</title>
<path fill="none" stroke="#63b8ff" d="M649.93,-531.93C662.23,-520.35 676.83,-506.61 686.14,-497.84"/>
<polygon fill="#63b8ff" stroke="#63b8ff" points="647.52,-529.39 642.63,-538.8 652.31,-534.49 647.52,-529.39"/>
</g>
<!-- Node24 -->
<g id="node24" class="node">
<title>Node24</title>
<g id="a_node24"><a xlink:href="crypto_8cpp.html" target="_top" xlink:title=" ">
<polygon fill="white" stroke="#666666" points="867.54,-497.5 771.54,-497.5 771.54,-478.5 867.54,-478.5 867.54,-497.5"/>
<text text-anchor="middle" x="819.54" y="-485.5" font-family="Helvetica,sans-Serif" font-size="10.00">src/js/crypto.cpp</text>
</a>
</g>
</g>
<!-- Node1&#45;&gt;Node24 -->
<g id="edge38" class="edge">
<title>Node1&#45;&gt;Node24</title>
<path fill="none" stroke="#63b8ff" d="M679.34,-535.74C716.45,-523.36 764.85,-507.23 793.99,-497.52"/>
<polygon fill="#63b8ff" stroke="#63b8ff" points="678.06,-532.47 669.68,-538.95 680.27,-539.11 678.06,-532.47"/>
</g>
<!-- Node3 -->
<g id="node3" class="node">
<title>Node3</title>
<g id="a_node3"><a xlink:href="host_2main_8cpp.html" target="_top" xlink:title=" ">
<polygon fill="white" stroke="#666666" points="282.04,-305 179.04,-305 179.04,-286 282.04,-286 282.04,-305"/>
<text text-anchor="middle" x="230.54" y="-293" font-family="Helvetica,sans-Serif" font-size="10.00">src/host/main.cpp</text>
</a>
</g>
</g>
<!-- Node2&#45;&gt;Node3 -->
<g id="edge2" class="edge">
<title>Node2&#45;&gt;Node3</title>
<path fill="none" stroke="#63b8ff" d="M170.58,-340.35C185.73,-329.27 206.03,-314.43 218.69,-305.17"/>
<polygon fill="#63b8ff" stroke="#63b8ff" points="168.35,-337.64 162.35,-346.37 172.48,-343.29 168.35,-337.64"/>
</g>
<!-- Node4 -->
<g id="node4" class="node">
<title>Node4</title>
<g id="a_node4"><a xlink:href="node__state_8h.html" target="_top" xlink:title=" ">
<polygon fill="white" stroke="#666666" points="412.54,-184 288.54,-184 288.54,-165 412.54,-165 412.54,-184"/>
<text text-anchor="middle" x="350.54" y="-172" font-family="Helvetica,sans-Serif" font-size="10.00">src/node/node_state.h</text>
</a>
</g>
</g>
<!-- Node2&#45;&gt;Node4 -->
<g id="edge3" class="edge">
<title>Node2&#45;&gt;Node4</title>
<path fill="none" stroke="#63b8ff" d="M64.18,-344.79C24.46,-335.67 -11,-318.44 3.54,-286 21.56,-245.78 37.76,-238.97 77.54,-220 144.94,-187.86 231.19,-178.35 288.52,-175.83"/>
<polygon fill="#63b8ff" stroke="#63b8ff" points="63.56,-348.24 74.07,-346.89 65.01,-341.39 63.56,-348.24"/>
</g>
<!-- Node8 -->
<g id="node8" class="node">
<title>Node8</title>
<g id="a_node8"><a xlink:href="quote_8cpp.html" target="_top" xlink:title=" ">
<polygon fill="white" stroke="#666666" points="122.04,-305 13.04,-305 13.04,-286 122.04,-286 122.04,-305"/>
<text text-anchor="middle" x="67.54" y="-293" font-family="Helvetica,sans-Serif" font-size="10.00">src/node/quote.cpp</text>
</a>
</g>
</g>
<!-- Node2&#45;&gt;Node8 -->
<g id="edge8" class="edge">
<title>Node2&#45;&gt;Node8</title>
<path fill="none" stroke="#63b8ff" d="M129.75,-340.35C114.03,-329.27 92.98,-314.43 79.84,-305.17"/>
<polygon fill="#63b8ff" stroke="#63b8ff" points="128.1,-343.47 138.29,-346.37 132.14,-337.75 128.1,-343.47"/>
</g>
<!-- Node9 -->
<g id="node9" class="node">
<title>Node9</title>
<g id="a_node9"><a xlink:href="quote__endorsements__client_8h.html" target="_top" xlink:title=" ">
<polygon fill="white" stroke="#666666" points="250.54,-250 86.54,-250 86.54,-220 250.54,-220 250.54,-250"/>
<text text-anchor="start" x="94.54" y="-238" font-family="Helvetica,sans-Serif" font-size="10.00">src/node/quote_endorsements</text>
<text text-anchor="middle" x="168.54" y="-227" font-family="Helvetica,sans-Serif" font-size="10.00">_client.h</text>
</a>
</g>
</g>
<!-- Node2&#45;&gt;Node9 -->
<g id="edge9" class="edge">
<title>Node2&#45;&gt;Node9</title>
<path fill="none" stroke="#63b8ff" d="M153.38,-336.23C156.99,-312.35 163.15,-271.65 166.39,-250.2"/>
<polygon fill="#63b8ff" stroke="#63b8ff" points="149.87,-336.03 151.84,-346.44 156.79,-337.08 149.87,-336.03"/>
</g>
<!-- Node10 -->
<g id="node10" class="node">
<title>Node10</title>
<g id="a_node10"><a xlink:href="node__frontend_8h.html" target="_top" xlink:title=" ">
<polygon fill="white" stroke="#666666" points="458.54,-305 300.54,-305 300.54,-286 458.54,-286 458.54,-305"/>
<text text-anchor="middle" x="379.54" y="-293" font-family="Helvetica,sans-Serif" font-size="10.00">src/node/rpc/node_frontend.h</text>
</a>
</g>
</g>
<!-- Node2&#45;&gt;Node10 -->
<g id="edge11" class="edge">
<title>Node2&#45;&gt;Node10</title>
<path fill="none" stroke="#63b8ff" d="M193.73,-343.97C238,-332.66 305.91,-315.31 346.2,-305.02"/>
<polygon fill="#63b8ff" stroke="#63b8ff" points="192.66,-340.63 183.84,-346.49 194.4,-347.41 192.66,-340.63"/>
</g>
<!-- Node5 -->
<g id="node5" class="node">
<title>Node5</title>
<g id="a_node5"><a xlink:href="src_2enclave_2enclave_8h.html" target="_top" xlink:title=" ">
<polygon fill="white" stroke="#666666" points="311.54,-74 189.54,-74 189.54,-55 311.54,-55 311.54,-74"/>
<text text-anchor="middle" x="250.54" y="-62" font-family="Helvetica,sans-Serif" font-size="10.00">src/enclave/enclave.h</text>
</a>
</g>
</g>
<!-- Node4&#45;&gt;Node5 -->
<g id="edge4" class="edge">
<title>Node4&#45;&gt;Node5</title>
<path fill="none" stroke="#63b8ff" d="M348.71,-154.55C346.55,-140.91 341.82,-122.73 331.54,-110 317.53,-92.65 294.85,-81.02 277.05,-74.02"/>
<polygon fill="#63b8ff" stroke="#63b8ff" points="345.27,-155.25 350,-164.73 352.22,-154.37 345.27,-155.25"/>
</g>
<!-- Node7 -->
<g id="node7" class="node">
<title>Node7</title>
<g id="a_node7"><a xlink:href="gov__effects_8h.html" target="_top" xlink:title=" ">
<polygon fill="white" stroke="#666666" points="322.54,-129 178.54,-129 178.54,-110 322.54,-110 322.54,-129"/>
<text text-anchor="middle" x="250.54" y="-117" font-family="Helvetica,sans-Serif" font-size="10.00">src/node/rpc/gov_effects.h</text>
</a>
</g>
</g>
<!-- Node4&#45;&gt;Node7 -->
<g id="edge6" class="edge">
<title>Node4&#45;&gt;Node7</title>
<path fill="none" stroke="#63b8ff" d="M325.51,-160.23C307.17,-150.51 282.8,-137.6 266.9,-129.17"/>
<polygon fill="#63b8ff" stroke="#63b8ff" points="324,-163.39 334.47,-164.98 327.28,-157.21 324,-163.39"/>
</g>
<!-- Node6 -->
<g id="node6" class="node">
<title>Node6</title>
<g id="a_node6"><a xlink:href="enclave_2main_8cpp.html" target="_top" xlink:title=" ">
<polygon fill="white" stroke="#666666" points="310.54,-19 190.54,-19 190.54,0 310.54,0 310.54,-19"/>
<text text-anchor="middle" x="250.54" y="-7" font-family="Helvetica,sans-Serif" font-size="10.00">src/enclave/main.cpp</text>
</a>
</g>
</g>
<!-- Node5&#45;&gt;Node6 -->
<g id="edge5" class="edge">
<title>Node5&#45;&gt;Node6</title>
<path fill="none" stroke="#63b8ff" d="M250.54,-44.66C250.54,-35.93 250.54,-25.99 250.54,-19.09"/>
<polygon fill="#63b8ff" stroke="#63b8ff" points="247.04,-44.75 250.54,-54.75 254.04,-44.75 247.04,-44.75"/>
</g>
<!-- Node7&#45;&gt;Node5 -->
<g id="edge7" class="edge">
<title>Node7&#45;&gt;Node5</title>
<path fill="none" stroke="#63b8ff" d="M250.54,-99.66C250.54,-90.93 250.54,-80.99 250.54,-74.09"/>
<polygon fill="#63b8ff" stroke="#63b8ff" points="247.04,-99.75 250.54,-109.75 254.04,-99.75 247.04,-99.75"/>
</g>
<!-- Node9&#45;&gt;Node4 -->
<g id="edge10" class="edge">
<title>Node9&#45;&gt;Node4</title>
<path fill="none" stroke="#63b8ff" d="M221.81,-216.88C255.36,-206.09 297.23,-192.64 323.93,-184.05"/>
<polygon fill="#63b8ff" stroke="#63b8ff" points="220.58,-213.6 212.14,-219.99 222.73,-220.26 220.58,-213.6"/>
</g>
<!-- Node10&#45;&gt;Node5 -->
<g id="edge12" class="edge">
<title>Node10&#45;&gt;Node5</title>
<path fill="none" stroke="#63b8ff" d="M294.85,-284.76C208.03,-274.36 84.68,-258.27 77.54,-250 16.99,-179.87 173.78,-100.01 230.77,-74.1"/>
<polygon fill="#63b8ff" stroke="#63b8ff" points="294.64,-288.26 304.98,-285.97 295.46,-281.31 294.64,-288.26"/>
</g>
<!-- Node11 -->
<g id="node11" class="node">
<title>Node11</title>
<g id="a_node11"><a xlink:href="jwt__key__auto__refresh_8h.html" target="_top" xlink:title=" ">
<polygon fill="white" stroke="#666666" points="413.04,-250 288.04,-250 288.04,-220 413.04,-220 413.04,-250"/>
<text text-anchor="start" x="296.04" y="-238" font-family="Helvetica,sans-Serif" font-size="10.00">src/node/jwt_key_auto</text>
<text text-anchor="middle" x="350.54" y="-227" font-family="Helvetica,sans-Serif" font-size="10.00">_refresh.h</text>
</a>
</g>
</g>
<!-- Node10&#45;&gt;Node11 -->
<g id="edge13" class="edge">
<title>Node10&#45;&gt;Node11</title>
<path fill="none" stroke="#63b8ff" d="M370.75,-276.78C366.52,-268.23 361.51,-258.13 357.54,-250.11"/>
<polygon fill="#63b8ff" stroke="#63b8ff" points="367.69,-278.46 375.26,-285.87 373.96,-275.35 367.69,-278.46"/>
</g>
<!-- Node11&#45;&gt;Node4 -->
<g id="edge14" class="edge">
<title>Node11&#45;&gt;Node4</title>
<path fill="none" stroke="#63b8ff" d="M350.54,-209.75C350.54,-200.72 350.54,-191.03 350.54,-184.27"/>
<polygon fill="#63b8ff" stroke="#63b8ff" points="347.04,-209.84 350.54,-219.84 354.04,-209.84 347.04,-209.84"/>
</g>
<!-- Node13 -->
<g id="node13" class="node">
<title>Node13</title>
<g id="a_node13"><a xlink:href="request__message_8h.html" target="_top" xlink:title=" ">
<polygon fill="white" stroke="#666666" points="305.04,-437 180.04,-437 180.04,-407 305.04,-407 305.04,-437"/>
<text text-anchor="start" x="188.04" y="-425" font-family="Helvetica,sans-Serif" font-size="10.00">src/consensus/aft/impl</text>
<text text-anchor="middle" x="242.54" y="-414" font-family="Helvetica,sans-Serif" font-size="10.00">/request_message.h</text>
</a>
</g>
</g>
<!-- Node12&#45;&gt;Node13 -->
<g id="edge16" class="edge">
<title>Node12&#45;&gt;Node13</title>
<path fill="none" stroke="#63b8ff" d="M489.13,-472.79C434.03,-461.66 358.12,-446.33 305.13,-435.64"/>
<polygon fill="#63b8ff" stroke="#63b8ff" points="488.68,-476.26 499.17,-474.81 490.06,-469.4 488.68,-476.26"/>
</g>
<!-- Node14 -->
<g id="node14" class="node">
<title>Node14</title>
<g id="a_node14"><a xlink:href="state_8h.html" target="_top" xlink:title=" ">
<polygon fill="white" stroke="#666666" points="949.04,-371 824.04,-371 824.04,-341 949.04,-341 949.04,-371"/>
<text text-anchor="start" x="832.04" y="-359" font-family="Helvetica,sans-Serif" font-size="10.00">src/consensus/aft/impl</text>
<text text-anchor="middle" x="886.54" y="-348" font-family="Helvetica,sans-Serif" font-size="10.00">/state.h</text>
</a>
</g>
</g>
<!-- Node12&#45;&gt;Node14 -->
<g id="edge17" class="edge">
<title>Node12&#45;&gt;Node14</title>
<path fill="none" stroke="#63b8ff" d="M622.86,-470.01C651.42,-461.48 685.24,-450.15 714.54,-437 738.53,-426.23 742,-418.72 765.54,-407 792.71,-393.48 824.45,-380.46 848.6,-371.1"/>
<polygon fill="#63b8ff" stroke="#63b8ff" points="621.6,-466.73 612.99,-472.91 623.57,-473.45 621.6,-466.73"/>
</g>
<!-- Node15 -->
<g id="node15" class="node">
<title>Node15</title>
<g id="a_node15"><a xlink:href="raft_8h.html" target="_top" xlink:title=" ">
<polygon fill="white" stroke="#666666" points="644.04,-305 515.04,-305 515.04,-286 644.04,-286 644.04,-305"/>
<text text-anchor="middle" x="579.54" y="-293" font-family="Helvetica,sans-Serif" font-size="10.00">src/consensus/aft/raft.h</text>
</a>
</g>
</g>
<!-- Node12&#45;&gt;Node15 -->
<g id="edge22" class="edge">
<title>Node12&#45;&gt;Node15</title>
<path fill="none" stroke="#63b8ff" d="M597.27,-467.58C609.7,-459.58 622.61,-449.28 631.54,-437 649.57,-412.22 647.05,-401.32 651.54,-371 653.5,-357.81 658.03,-352.65 651.54,-341 641.74,-323.42 621.81,-311.91 605.4,-305.01"/>
<polygon fill="#63b8ff" stroke="#63b8ff" points="595.1,-464.81 588.37,-473 598.73,-470.79 595.1,-464.81"/>
</g>
<!-- Node17 -->
<g id="node17" class="node">
<title>Node17</title>
<g id="a_node17"><a xlink:href="node__connections_8h.html" target="_top" xlink:title=" ">
<polygon fill="white" stroke="#666666" points="478.04,-431.5 323.04,-431.5 323.04,-412.5 478.04,-412.5 478.04,-431.5"/>
<text text-anchor="middle" x="400.54" y="-419.5" font-family="Helvetica,sans-Serif" font-size="10.00">src/host/node_connections.h</text>
</a>
</g>
</g>
<!-- Node12&#45;&gt;Node17 -->
<g id="edge23" class="edge">
<title>Node12&#45;&gt;Node17</title>
<path fill="none" stroke="#63b8ff" d="M515.07,-469.1C484.55,-456.82 445.42,-441.06 421.7,-431.52"/>
<polygon fill="#63b8ff" stroke="#63b8ff" points="514.06,-472.47 524.65,-472.95 516.68,-465.97 514.06,-472.47"/>
</g>
<!-- Node18 -->
<g id="node18" class="node">
<title>Node18</title>
<g id="a_node18"><a xlink:href="node__client_8h.html" target="_top" xlink:title=" ">
<polygon fill="white" stroke="#666666" points="622.54,-431.5 496.54,-431.5 496.54,-412.5 622.54,-412.5 622.54,-431.5"/>
<text text-anchor="middle" x="559.54" y="-419.5" font-family="Helvetica,sans-Serif" font-size="10.00">src/node/node_client.h</text>
</a>
</g>
</g>
<!-- Node12&#45;&gt;Node18 -->
<g id="edge25" class="edge">
<title>Node12&#45;&gt;Node18</title>
<path fill="none" stroke="#63b8ff" d="M559.54,-462.6C559.54,-451.8 559.54,-439.78 559.54,-431.84"/>
<polygon fill="#63b8ff" stroke="#63b8ff" points="556.04,-462.8 559.54,-472.8 563.04,-462.8 556.04,-462.8"/>
</g>
<!-- Node22 -->
<g id="node22" class="node">
<title>Node22</title>
<g id="a_node22"><a xlink:href="resharing__tracker_8h.html" target="_top" xlink:title=" ">
<polygon fill="white" stroke="#666666" points="806.04,-371 699.04,-371 699.04,-341 806.04,-341 806.04,-371"/>
<text text-anchor="start" x="707.04" y="-359" font-family="Helvetica,sans-Serif" font-size="10.00">src/node/resharing</text>
<text text-anchor="middle" x="752.54" y="-348" font-family="Helvetica,sans-Serif" font-size="10.00">_tracker.h</text>
</a>
</g>
</g>
<!-- Node12&#45;&gt;Node22 -->
<g id="edge34" class="edge">
<title>Node12&#45;&gt;Node22</title>
<path fill="none" stroke="#63b8ff" d="M620.15,-469.47C641.66,-461.57 665.29,-450.84 684.54,-437 710,-418.7 731.94,-388.87 743.6,-371.28"/>
<polygon fill="#63b8ff" stroke="#63b8ff" points="618.7,-466.27 610.44,-472.91 621.04,-472.87 618.7,-466.27"/>
</g>
<!-- Node14&#45;&gt;Node15 -->
<g id="edge18" class="edge">
<title>Node14&#45;&gt;Node15</title>
<path fill="none" stroke="#63b8ff" d="M813.6,-340.82C741.89,-327.08 670.27,-313.56 625.04,-305.05"/>
<polygon fill="#63b8ff" stroke="#63b8ff" points="813.24,-344.32 823.72,-342.77 814.55,-337.44 813.24,-344.32"/>
</g>
<!-- Node16 -->
<g id="node16" class="node">
<title>Node16</title>
<g id="a_node16"><a xlink:href="resharing_8h.html" target="_top" xlink:title=" ">
<polygon fill="white" stroke="#666666" points="810.54,-305 694.54,-305 694.54,-286 810.54,-286 810.54,-305"/>
<text text-anchor="middle" x="752.54" y="-293" font-family="Helvetica,sans-Serif" font-size="10.00">src/node/resharing.h</text>
</a>
</g>
</g>
<!-- Node14&#45;&gt;Node16 -->
<g id="edge20" class="edge">
<title>Node14&#45;&gt;Node16</title>
<path fill="none" stroke="#63b8ff" d="M845.11,-336.91C820.89,-326.34 791.41,-313.47 772.33,-305.14"/>
<polygon fill="#63b8ff" stroke="#63b8ff" points="843.88,-340.19 854.45,-340.99 846.68,-333.78 843.88,-340.19"/>
</g>
<!-- Node15&#45;&gt;Node4 -->
<g id="edge19" class="edge">
<title>Node15&#45;&gt;Node4</title>
<path fill="none" stroke="#63b8ff" d="M577.28,-275.96C574.21,-258.9 567.04,-234.16 550.54,-220 530.03,-202.39 463.37,-190.01 412.59,-182.85"/>
<polygon fill="#63b8ff" stroke="#63b8ff" points="573.83,-276.5 578.77,-285.87 580.75,-275.46 573.83,-276.5"/>
</g>
<!-- Node16&#45;&gt;Node4 -->
<g id="edge21" class="edge">
<title>Node16&#45;&gt;Node4</title>
<path fill="none" stroke="#63b8ff" d="M725.98,-281.4C691.72,-264.97 629.95,-236.91 574.54,-220 519.93,-203.33 455.89,-191.34 410.29,-184.03"/>
<polygon fill="#63b8ff" stroke="#63b8ff" points="724.76,-284.7 735.29,-285.9 727.81,-278.4 724.76,-284.7"/>
</g>
<!-- Node17&#45;&gt;Node3 -->
<g id="edge24" class="edge">
<title>Node17&#45;&gt;Node3</title>
<path fill="none" stroke="#63b8ff" d="M366.57,-408.69C345.27,-400.04 317.89,-387.13 296.54,-371 270.62,-351.42 247.18,-320.42 236.55,-305.33"/>
<polygon fill="#63b8ff" stroke="#63b8ff" points="365.3,-411.96 375.89,-412.37 367.87,-405.44 365.3,-411.96"/>
</g>
<!-- Node18&#45;&gt;Node15 -->
<g id="edge29" class="edge">
<title>Node18&#45;&gt;Node15</title>
<path fill="none" stroke="#63b8ff" d="M536.42,-406.47C524.82,-397.76 511.9,-385.55 505.54,-371 500.2,-358.78 498.98,-352.61 505.54,-341 515.5,-323.38 535.54,-311.97 552.25,-305.12"/>
<polygon fill="#63b8ff" stroke="#63b8ff" points="534.72,-409.55 544.91,-412.43 538.74,-403.82 534.72,-409.55"/>
</g>
<!-- Node19 -->
<g id="node19" class="node">
<title>Node19</title>
<g id="a_node19"><a xlink:href="orc__requests_8h.html" target="_top" xlink:title=" ">
<polygon fill="white" stroke="#666666" points="458.04,-371 339.04,-371 339.04,-341 458.04,-341 458.04,-371"/>
<text text-anchor="start" x="347.04" y="-359" font-family="Helvetica,sans-Serif" font-size="10.00">src/consensus/aft/orc</text>
<text text-anchor="middle" x="398.54" y="-348" font-family="Helvetica,sans-Serif" font-size="10.00">_requests.h</text>
</a>
</g>
</g>
<!-- Node18&#45;&gt;Node19 -->
<g id="edge26" class="edge">
<title>Node18&#45;&gt;Node19</title>
<path fill="none" stroke="#63b8ff" d="M528.46,-408.65C501.44,-397.9 462.3,-382.35 434.05,-371.12"/>
<polygon fill="#63b8ff" stroke="#63b8ff" points="527.24,-411.93 537.83,-412.37 529.83,-405.42 527.24,-411.93"/>
</g>
<!-- Node20 -->
<g id="node20" class="node">
<title>Node20</title>
<g id="a_node20"><a xlink:href="http__node__client_8h.html" target="_top" xlink:title=" ">
<polygon fill="white" stroke="#666666" points="541.54,-250 431.54,-250 431.54,-220 541.54,-220 541.54,-250"/>
<text text-anchor="start" x="439.54" y="-238" font-family="Helvetica,sans-Serif" font-size="10.00">src/node/http_node</text>
<text text-anchor="middle" x="486.54" y="-227" font-family="Helvetica,sans-Serif" font-size="10.00">_client.h</text>
</a>
</g>
</g>
<!-- Node18&#45;&gt;Node20 -->
<g id="edge30" class="edge">
<title>Node18&#45;&gt;Node20</title>
<path fill="none" stroke="#63b8ff" d="M507.26,-410.48C440.27,-396.87 332.37,-374.5 329.54,-371 321.17,-360.62 321.39,-351.55 329.54,-341 368.29,-290.84 422.42,-349.52 467.54,-305 482.22,-290.51 485.85,-265.8 486.59,-250.22"/>
<polygon fill="#63b8ff" stroke="#63b8ff" points="506.73,-413.94 517.23,-412.5 508.13,-407.08 506.73,-413.94"/>
</g>
<!-- Node21 -->
<g id="node21" class="node">
<title>Node21</title>
<g id="a_node21"><a xlink:href="retired__nodes__cleanup_8h.html" target="_top" xlink:title=" ">
<polygon fill="white" stroke="#666666" points="642.54,-371 514.54,-371 514.54,-341 642.54,-341 642.54,-371"/>
<text text-anchor="start" x="522.54" y="-359" font-family="Helvetica,sans-Serif" font-size="10.00">src/node/retired_nodes</text>
<text text-anchor="middle" x="578.54" y="-348" font-family="Helvetica,sans-Serif" font-size="10.00">_cleanup.h</text>
</a>
</g>
</g>
<!-- Node18&#45;&gt;Node21 -->
<g id="edge32" class="edge">
<title>Node18&#45;&gt;Node21</title>
<path fill="none" stroke="#63b8ff" d="M564.98,-402.67C567.94,-392.72 571.53,-380.61 574.28,-371.36"/>
<polygon fill="#63b8ff" stroke="#63b8ff" points="561.59,-401.79 562.1,-412.37 568.31,-403.78 561.59,-401.79"/>
</g>
<!-- Node19&#45;&gt;Node10 -->
<g id="edge28" class="edge">
<title>Node19&#45;&gt;Node10</title>
<path fill="none" stroke="#63b8ff" d="M390.76,-331.04C387.8,-321.93 384.61,-312.1 382.39,-305.27"/>
<polygon fill="#63b8ff" stroke="#63b8ff" points="387.52,-332.41 393.94,-340.84 394.18,-330.25 387.52,-332.41"/>
</g>
<!-- Node19&#45;&gt;Node15 -->
<g id="edge27" class="edge">
<title>Node19&#45;&gt;Node15</title>
<path fill="none" stroke="#63b8ff" d="M451.51,-337.88C484.88,-327.09 526.52,-313.64 553.08,-305.05"/>
<polygon fill="#63b8ff" stroke="#63b8ff" points="450.33,-334.58 441.9,-340.99 452.49,-341.24 450.33,-334.58"/>
</g>
<!-- Node20&#45;&gt;Node4 -->
<g id="edge31" class="edge">
<title>Node20&#45;&gt;Node4</title>
<path fill="none" stroke="#63b8ff" d="M444.49,-215.91C419.91,-205.34 389.99,-192.47 370.63,-184.14"/>
<polygon fill="#63b8ff" stroke="#63b8ff" points="443.4,-219.25 453.97,-219.99 446.16,-212.82 443.4,-219.25"/>
</g>
<!-- Node21&#45;&gt;Node15 -->
<g id="edge33" class="edge">
<title>Node21&#45;&gt;Node15</title>
<path fill="none" stroke="#63b8ff" d="M578.96,-330.75C579.11,-321.72 579.28,-312.03 579.39,-305.27"/>
<polygon fill="#63b8ff" stroke="#63b8ff" points="575.46,-330.78 578.78,-340.84 582.45,-330.9 575.46,-330.78"/>
</g>
<!-- Node22&#45;&gt;Node15 -->
<g id="edge35" class="edge">
<title>Node22&#45;&gt;Node15</title>
<path fill="none" stroke="#63b8ff" d="M701.5,-337.74C669.68,-326.98 630.11,-313.6 604.84,-305.05"/>
<polygon fill="#63b8ff" stroke="#63b8ff" points="700.51,-341.1 711.1,-340.99 702.75,-334.47 700.51,-341.1"/>
</g>
<!-- Node22&#45;&gt;Node16 -->
<g id="edge36" class="edge">
<title>Node22&#45;&gt;Node16</title>
<path fill="none" stroke="#63b8ff" d="M752.54,-330.75C752.54,-321.72 752.54,-312.03 752.54,-305.27"/>
<polygon fill="#63b8ff" stroke="#63b8ff" points="749.04,-330.84 752.54,-340.84 756.04,-330.84 749.04,-330.84"/>
</g>
<!-- Node25 -->
<g id="node25" class="node">
<title>Node25</title>
<g id="a_node25"><a xlink:href="wrap_8cpp.html" target="_top" xlink:title=" ">
<polygon fill="white" stroke="#666666" points="864.04,-431.5 775.04,-431.5 775.04,-412.5 864.04,-412.5 864.04,-431.5"/>
<text text-anchor="middle" x="819.54" y="-419.5" font-family="Helvetica,sans-Serif" font-size="10.00">src/js/wrap.cpp</text>
</a>
</g>
</g>
<!-- Node24&#45;&gt;Node25 -->
<g id="edge39" class="edge">
<title>Node24&#45;&gt;Node25</title>
<path fill="none" stroke="#63b8ff" d="M819.54,-468.08C819.54,-456.13 819.54,-441.22 819.54,-431.91"/>
<polygon fill="#63b8ff" stroke="#63b8ff" points="816.04,-468.37 819.54,-478.37 823.04,-468.37 816.04,-468.37"/>
</g>
</g>
</svg>
        <g id="navigator" transform="translate(0 0)" fill="#404254">
                <rect fill="#f2f5e9" fill-opacity="0.5" stroke="#606060" stroke-width=".5" x="0" y="0" width="60" height="60"/>
                <use id="zoomplus" xlink:href="#zoomPlus" x="17" y="9" onmousedown="handleZoom(evt,'in')"/>
                <use id="zoomminus" xlink:href="#zoomMin" x="42" y="9" onmousedown="handleZoom(evt,'out')"/>
                <use id="reset" xlink:href="#resetDef" x="30" y="36" onmousedown="handleReset()"/>
                <g id="arrowUp" xlink:href="#dirArrow" transform="translate(30 24)" onmousedown="handlePan(0,-1)">
                  <use xlink:href="#rim" fill="#404040">
                        <set attributeName="fill" to="#808080" begin="arrowUp.mouseover" end="arrowUp.mouseout"/>
                  </use>
                  <path fill="none" stroke="white" stroke-width="1.5" d="M0,-3.0v7 M-2.5,-0.5L0,-3.0L2.5,-0.5"/>
                </g>
                <g id="arrowRight" xlink:href="#dirArrow" transform="rotate(90) translate(36 -43)" onmousedown="handlePan(1,0)">
                  <use xlink:href="#rim" fill="#404040">
                        <set attributeName="fill" to="#808080" begin="arrowRight.mouseover" end="arrowRight.mouseout"/>
                  </use>
                  <path fill="none" stroke="white" stroke-width="1.5" d="M0,-3.0v7 M-2.5,-0.5L0,-3.0L2.5,-0.5"/>
                </g>
                <g id="arrowDown" xlink:href="#dirArrow" transform="rotate(180) translate(-30 -48)" onmousedown="handlePan(0,1)">
                  <use xlink:href="#rim" fill="#404040">
                        <set attributeName="fill" to="#808080" begin="arrowDown.mouseover" end="arrowDown.mouseout"/>
                  </use>
                  <path fill="none" stroke="white" stroke-width="1.5" d="M0,-3.0v7 M-2.5,-0.5L0,-3.0L2.5,-0.5"/>
                </g>
                <g id="arrowLeft" xlink:href="#dirArrow" transform="rotate(270) translate(-36 17)" onmousedown="handlePan(-1,0)">
                  <use xlink:href="#rim" fill="#404040">
                        <set attributeName="fill" to="#808080" begin="arrowLeft.mouseover" end="arrowLeft.mouseout"/>
                  </use>
                  <path fill="none" stroke="white" stroke-width="1.5" d="M0,-3.0v7 M-2.5,-0.5L0,-3.0L2.5,-0.5"/>
                </g>
        </g>
        <svg viewBox="0 0 15 15" width="100%" height="30px" preserveAspectRatio="xMaxYMin meet">
         <g id="arrow_out" transform="scale(0.3 0.3)">
          <a xlink:href="ecdsa_8h__dep__incl_org.svg" target="_base">
           <rect id="button" ry="5" rx="5" y="6" x="6" height="38" width="38"
                fill="#f2f5e9" fill-opacity="0.5" stroke="#606060" stroke-width="1.0"/>
           <path id="arrow"
             d="M 11.500037,31.436501 C 11.940474,20.09759 22.043105,11.32322 32.158766,21.979434 L 37.068811,17.246167 C 37.068811,17.246167 37.088388,32 37.088388,32 L 22.160133,31.978069 C 22.160133,31.978069 26.997745,27.140456 26.997745,27.140456 C 18.528582,18.264221 13.291696,25.230495 11.500037,31.436501 z"
             style="fill:#404040;"/>
          </a>
         </g>
        </svg>
</svg>
