<?xml version="1.0" encoding="UTF-8" standalone="no"?>
<!DOCTYPE svg PUBLIC "-//W3C//DTD SVG 1.1//EN"
 "http://www.w3.org/Graphics/SVG/1.1/DTD/svg11.dtd">
<!-- Generated by graphviz version 2.43.0 (0)
 -->
<!-- Title: src/common/enclave_interface_types.h Pages: 1 -->
<!--zoomable 676 -->
<svg id="main" version="1.1" xmlns="http://www.w3.org/2000/svg" xmlns:xlink="http://www.w3.org/1999/xlink" xml:space="preserve" onload="init(evt)">
<style type="text/css"><![CDATA[
.edge:hover path { stroke: red; }
.edge:hover polygon { stroke: red; fill: red; }
]]></style>
<script type="text/javascript"><![CDATA[
var edges = document.getElementsByTagName('g');
if (edges && edges.length) {
  for (var i=0;i<edges.length;i++) {
    if (edges[i].id.substr(0,4)=='edge') {
      edges[i].setAttribute('class','edge');
    }
  }
}
]]></script>
        <defs>
                <circle id="rim" cx="0" cy="0" r="7"/>
                <circle id="rim2" cx="0" cy="0" r="3.5"/>
                <g id="zoomPlus">
                        <use xlink:href="#rim" fill="#404040">
                                <set attributeName="fill" to="#808080" begin="zoomplus.mouseover" end="zoomplus.mouseout"/>
                        </use>
                        <path d="M-4,0h8M0,-4v8" fill="none" stroke="white" stroke-width="1.5" pointer-events="none"/>
                </g>
                <g id="zoomMin">
                        <use xlink:href="#rim" fill="#404040">
                                <set attributeName="fill" to="#808080" begin="zoomminus.mouseover" end="zoomminus.mouseout"/>
                        </use>
                        <path d="M-4,0h8" fill="none" stroke="white" stroke-width="1.5" pointer-events="none"/>
                </g>
                <g id="dirArrow">
                        <path fill="none" stroke="white" stroke-width="1.5" d="M0,-3.0v7 M-2.5,-0.5L0,-3.0L2.5,-0.5"/>
                </g>
               <g id="resetDef">
                       <use xlink:href="#rim2" fill="#404040">
                               <set attributeName="fill" to="#808080" begin="reset.mouseover" end="reset.mouseout"/>
                       </use>
               </g>
        </defs>

<script type="text/javascript">
var viewWidth = 2448;
var viewHeight = 676;
var sectionId = 'dynsection-0';
</script>
<script xlink:href="svgpan.js"/>
<svg id="graph" class="graph">
<g id="viewport">
<title>src/common/enclave_interface_types.h</title>
<!-- Node1 -->
<g id="node1" class="node">
<title>Node1</title>
<g id="a_node1"><a xlink:title=" ">
<polygon fill="#999999" stroke="#666666" points="618,-668 500,-668 500,-638 618,-638 618,-668"/>
<text text-anchor="start" x="508" y="-656" font-family="Helvetica,sans-Serif" font-size="10.00">src/common/enclave</text>
<text text-anchor="middle" x="559" y="-645" font-family="Helvetica,sans-Serif" font-size="10.00">_interface_types.h</text>
</a>
</g>
</g>
<!-- Node2 -->
<g id="node2" class="node">
<title>Node2</title>
<g id="a_node2"><a xlink:href="common_2configuration_8h.html" target="_top" xlink:title=" ">
<polygon fill="white" stroke="#666666" points="635,-596.5 483,-596.5 483,-577.5 635,-577.5 635,-596.5"/>
<text text-anchor="middle" x="559" y="-584.5" font-family="Helvetica,sans-Serif" font-size="10.00">src/common/configuration.h</text>
</a>
</g>
</g>
<!-- Node1&#45;&gt;Node2 -->
<g id="edge1" class="edge">
<title>Node1&#45;&gt;Node2</title>
<path fill="none" stroke="#63b8ff" d="M559,-627.6C559,-616.8 559,-604.78 559,-596.84"/>
<polygon fill="#63b8ff" stroke="#63b8ff" points="555.5,-627.8 559,-637.8 562.5,-627.8 555.5,-627.8"/>
</g>
<!-- Node8 -->
<g id="node8" class="node">
<title>Node8</title>
<g id="a_node8"><a xlink:href="enclave_2main_8cpp.html" target="_top" xlink:title=" ">
<polygon fill="white" stroke="#666666" points="550,-19 430,-19 430,0 550,0 550,-19"/>
<text text-anchor="middle" x="490" y="-7" font-family="Helvetica,sans-Serif" font-size="10.00">src/enclave/main.cpp</text>
</a>
</g>
</g>
<!-- Node1&#45;&gt;Node8 -->
<g id="edge72" class="edge">
<title>Node1&#45;&gt;Node8</title>
<path fill="none" stroke="#63b8ff" d="M489.97,-650.35C340.45,-644.89 0,-621.53 0,-522 0,-522 0,-522 0,-124 0,-36.68 299.07,-16.52 429.92,-11.88"/>
<polygon fill="#63b8ff" stroke="#63b8ff" points="489.85,-653.84 499.97,-650.69 490.1,-646.85 489.85,-653.84"/>
</g>
<!-- Node39 -->
<g id="node39" class="node">
<title>Node39</title>
<g id="a_node39"><a xlink:href="virtual__enclave_8h.html" target="_top" xlink:title=" ">
<polygon fill="white" stroke="#666666" points="760.5,-602 653.5,-602 653.5,-572 760.5,-572 760.5,-602"/>
<text text-anchor="start" x="661.5" y="-590" font-family="Helvetica,sans-Serif" font-size="10.00">src/enclave/virtual</text>
<text text-anchor="middle" x="707" y="-579" font-family="Helvetica,sans-Serif" font-size="10.00">_enclave.h</text>
</a>
</g>
</g>
<!-- Node1&#45;&gt;Node39 -->
<g id="edge73" class="edge">
<title>Node1&#45;&gt;Node39</title>
<path fill="none" stroke="#63b8ff" d="M600.81,-633.92C624.2,-623.8 652.92,-611.38 674.6,-602.01"/>
<polygon fill="#63b8ff" stroke="#63b8ff" points="599.27,-630.77 591.48,-637.95 602.05,-637.2 599.27,-630.77"/>
</g>
<!-- Node3 -->
<g id="node3" class="node">
<title>Node3</title>
<g id="a_node3"><a xlink:href="host_2configuration_8h.html" target="_top" xlink:title=" ">
<polygon fill="white" stroke="#666666" points="1855.5,-530.5 1724.5,-530.5 1724.5,-511.5 1855.5,-511.5 1855.5,-530.5"/>
<text text-anchor="middle" x="1790" y="-518.5" font-family="Helvetica,sans-Serif" font-size="10.00">src/host/configuration.h</text>
</a>
</g>
</g>
<!-- Node2&#45;&gt;Node3 -->
<g id="edge2" class="edge">
<title>Node2&#45;&gt;Node3</title>
<path fill="none" stroke="#63b8ff" d="M615.39,-575.85C625.23,-574.35 635.4,-572.99 645,-572 1053.97,-529.93 1548.68,-523.2 1724.29,-522.17"/>
<polygon fill="#63b8ff" stroke="#63b8ff" points="614.62,-572.43 605.28,-577.44 615.71,-579.34 614.62,-572.43"/>
</g>
<!-- Node5 -->
<g id="node5" class="node">
<title>Node5</title>
<g id="a_node5"><a xlink:href="frontend_8h.html" target="_top" xlink:title=" ">
<polygon fill="white" stroke="#666666" points="623.5,-398.5 494.5,-398.5 494.5,-379.5 623.5,-379.5 623.5,-398.5"/>
<text text-anchor="middle" x="559" y="-386.5" font-family="Helvetica,sans-Serif" font-size="10.00">src/node/rpc/frontend.h</text>
</a>
</g>
</g>
<!-- Node2&#45;&gt;Node5 -->
<g id="edge4" class="edge">
<title>Node2&#45;&gt;Node5</title>
<path fill="none" stroke="#63b8ff" d="M559,-567.26C559,-525.88 559,-428.08 559,-398.57"/>
<polygon fill="#63b8ff" stroke="#63b8ff" points="555.5,-567.33 559,-577.33 562.5,-567.33 555.5,-567.33"/>
</g>
<!-- Node16 -->
<g id="node16" class="node">
<title>Node16</title>
<g id="a_node16"><a xlink:href="node__call__types_8h.html" target="_top" xlink:title=" ">
<polygon fill="white" stroke="#666666" points="464.5,-536 339.5,-536 339.5,-506 464.5,-506 464.5,-536"/>
<text text-anchor="start" x="347.5" y="-524" font-family="Helvetica,sans-Serif" font-size="10.00">src/node/rpc/node_call</text>
<text text-anchor="middle" x="402" y="-513" font-family="Helvetica,sans-Serif" font-size="10.00">_types.h</text>
</a>
</g>
</g>
<!-- Node2&#45;&gt;Node16 -->
<g id="edge22" class="edge">
<title>Node2&#45;&gt;Node16</title>
<path fill="none" stroke="#63b8ff" d="M528.35,-573.5C502.01,-562.77 464.06,-547.3 436.63,-536.12"/>
<polygon fill="#63b8ff" stroke="#63b8ff" points="527.24,-576.83 537.83,-577.37 529.89,-570.35 527.24,-576.83"/>
</g>
<!-- Node22 -->
<g id="node22" class="node">
<title>Node22</title>
<g id="a_node22"><a xlink:href="node__interface_8h.html" target="_top" xlink:title=" ">
<polygon fill="white" stroke="#666666" points="1100.5,-530.5 939.5,-530.5 939.5,-511.5 1100.5,-511.5 1100.5,-530.5"/>
<text text-anchor="middle" x="1020" y="-518.5" font-family="Helvetica,sans-Serif" font-size="10.00">src/node/rpc/node_interface.h</text>
</a>
</g>
</g>
<!-- Node2&#45;&gt;Node22 -->
<g id="edge35" class="edge">
<title>Node2&#45;&gt;Node22</title>
<path fill="none" stroke="#63b8ff" d="M620.03,-575.84C628.41,-574.51 636.91,-573.2 645,-572 751.88,-556.18 876.24,-540.04 951.49,-530.53"/>
<polygon fill="#63b8ff" stroke="#63b8ff" points="619.21,-572.43 609.89,-577.47 620.32,-579.34 619.21,-572.43"/>
</g>
<!-- Node4 -->
<g id="node4" class="node">
<title>Node4</title>
<g id="a_node4"><a xlink:href="host_2main_8cpp.html" target="_top" xlink:title=" ">
<polygon fill="white" stroke="#666666" points="2407.5,-464.5 2304.5,-464.5 2304.5,-445.5 2407.5,-445.5 2407.5,-464.5"/>
<text text-anchor="middle" x="2356" y="-452.5" font-family="Helvetica,sans-Serif" font-size="10.00">src/host/main.cpp</text>
</a>
</g>
</g>
<!-- Node3&#45;&gt;Node4 -->
<g id="edge3" class="edge">
<title>Node3&#45;&gt;Node4</title>
<path fill="none" stroke="#63b8ff" d="M1865.95,-515C1964.22,-507.94 2140.56,-493.25 2290,-470 2299.49,-468.52 2309.67,-466.56 2319.13,-464.56"/>
<polygon fill="#63b8ff" stroke="#63b8ff" points="1865.54,-511.52 1855.81,-515.72 1866.03,-518.5 1865.54,-511.52"/>
</g>
<!-- Node6 -->
<g id="node6" class="node">
<title>Node6</title>
<g id="a_node6"><a xlink:href="acme__challenge__frontend_8h.html" target="_top" xlink:title=" ">
<polygon fill="white" stroke="#666666" points="524,-338 384,-338 384,-308 524,-308 524,-338"/>
<text text-anchor="start" x="392" y="-326" font-family="Helvetica,sans-Serif" font-size="10.00">src/node/acme_challenge</text>
<text text-anchor="middle" x="454" y="-315" font-family="Helvetica,sans-Serif" font-size="10.00">_frontend.h</text>
</a>
</g>
</g>
<!-- Node5&#45;&gt;Node6 -->
<g id="edge5" class="edge">
<title>Node5&#45;&gt;Node6</title>
<path fill="none" stroke="#63b8ff" d="M535.89,-373.91C518.44,-363.28 494.61,-348.75 477.16,-338.12"/>
<polygon fill="#63b8ff" stroke="#63b8ff" points="534.48,-377.15 544.84,-379.37 538.12,-371.18 534.48,-377.15"/>
</g>
<!-- Node10 -->
<g id="node10" class="node">
<title>Node10</title>
<g id="a_node10"><a xlink:href="node__state_8h.html" target="_top" xlink:title=" ">
<polygon fill="white" stroke="#666666" points="735,-200.5 611,-200.5 611,-181.5 735,-181.5 735,-200.5"/>
<text text-anchor="middle" x="673" y="-188.5" font-family="Helvetica,sans-Serif" font-size="10.00">src/node/node_state.h</text>
</a>
</g>
</g>
<!-- Node5&#45;&gt;Node10 -->
<g id="edge13" class="edge">
<title>Node5&#45;&gt;Node10</title>
<path fill="none" stroke="#63b8ff" d="M557.04,-369.15C556.23,-351.6 557.75,-325.57 571,-308 594.23,-277.19 624.8,-301.22 650,-272 668.12,-250.99 672,-216.49 672.8,-200.56"/>
<polygon fill="#63b8ff" stroke="#63b8ff" points="553.56,-369.58 557.8,-379.29 560.54,-369.05 553.56,-369.58"/>
</g>
<!-- Node12 -->
<g id="node12" class="node">
<title>Node12</title>
<g id="a_node12"><a xlink:href="member__frontend_8h.html" target="_top" xlink:title=" ">
<polygon fill="white" stroke="#666666" points="876,-338 756,-338 756,-308 876,-308 876,-338"/>
<text text-anchor="start" x="764" y="-326" font-family="Helvetica,sans-Serif" font-size="10.00">src/node/rpc/member</text>
<text text-anchor="middle" x="816" y="-315" font-family="Helvetica,sans-Serif" font-size="10.00">_frontend.h</text>
</a>
</g>
</g>
<!-- Node5&#45;&gt;Node12 -->
<g id="edge14" class="edge">
<title>Node5&#45;&gt;Node12</title>
<path fill="none" stroke="#63b8ff" d="M603.35,-376.96C646.64,-366.17 712.69,-349.73 759.68,-338.02"/>
<polygon fill="#63b8ff" stroke="#63b8ff" points="602.25,-373.62 593.39,-379.44 603.94,-380.41 602.25,-373.62"/>
</g>
<!-- Node13 -->
<g id="node13" class="node">
<title>Node13</title>
<g id="a_node13"><a xlink:href="node__frontend_8h.html" target="_top" xlink:title=" ">
<polygon fill="white" stroke="#666666" points="738,-332.5 580,-332.5 580,-313.5 738,-313.5 738,-332.5"/>
<text text-anchor="middle" x="659" y="-320.5" font-family="Helvetica,sans-Serif" font-size="10.00">src/node/rpc/node_frontend.h</text>
</a>
</g>
</g>
<!-- Node5&#45;&gt;Node13 -->
<g id="edge16" class="edge">
<title>Node5&#45;&gt;Node13</title>
<path fill="none" stroke="#63b8ff" d="M581.11,-373.85C600.77,-361.27 628.88,-343.28 645.41,-332.7"/>
<polygon fill="#63b8ff" stroke="#63b8ff" points="579.02,-371.03 572.49,-379.37 582.8,-376.93 579.02,-371.03"/>
</g>
<!-- Node15 -->
<g id="node15" class="node">
<title>Node15</title>
<g id="a_node15"><a xlink:href="user__frontend_8h.html" target="_top" xlink:title=" ">
<polygon fill="white" stroke="#666666" points="435.5,-266.5 280.5,-266.5 280.5,-247.5 435.5,-247.5 435.5,-266.5"/>
<text text-anchor="middle" x="358" y="-254.5" font-family="Helvetica,sans-Serif" font-size="10.00">src/node/rpc/user_frontend.h</text>
</a>
</g>
</g>
<!-- Node5&#45;&gt;Node15 -->
<g id="edge20" class="edge">
<title>Node5&#45;&gt;Node15</title>
<path fill="none" stroke="#63b8ff" d="M493.95,-377.68C447.86,-369.05 391.42,-355.37 375,-338 356.27,-318.19 356.07,-283.1 357.14,-266.79"/>
<polygon fill="#63b8ff" stroke="#63b8ff" points="493.44,-381.15 503.91,-379.5 494.7,-374.26 493.44,-381.15"/>
</g>
<!-- Node7 -->
<g id="node7" class="node">
<title>Node7</title>
<g id="a_node7"><a xlink:href="src_2enclave_2enclave_8h.html" target="_top" xlink:title=" ">
<polygon fill="white" stroke="#666666" points="1041,-74 919,-74 919,-55 1041,-55 1041,-74"/>
<text text-anchor="middle" x="980" y="-62" font-family="Helvetica,sans-Serif" font-size="10.00">src/enclave/enclave.h</text>
</a>
</g>
</g>
<!-- Node6&#45;&gt;Node7 -->
<g id="edge6" class="edge">
<title>Node6&#45;&gt;Node7</title>
<path fill="none" stroke="#63b8ff" d="M458.54,-297.7C462.68,-280.72 470.15,-258.26 483,-242 549.26,-158.15 584.17,-148.16 684,-110 761.54,-80.36 857.57,-70.38 918.82,-67.07"/>
<polygon fill="#63b8ff" stroke="#63b8ff" points="455.02,-297.43 456.29,-307.95 461.86,-298.94 455.02,-297.43"/>
</g>
<!-- Node9 -->
<g id="node9" class="node">
<title>Node9</title>
<g id="a_node9"><a xlink:href="ccf__acme__client_8h.html" target="_top" xlink:title=" ">
<polygon fill="white" stroke="#666666" points="640.5,-266.5 491.5,-266.5 491.5,-247.5 640.5,-247.5 640.5,-266.5"/>
<text text-anchor="middle" x="566" y="-254.5" font-family="Helvetica,sans-Serif" font-size="10.00">src/node/ccf_acme_client.h</text>
</a>
</g>
</g>
<!-- Node6&#45;&gt;Node9 -->
<g id="edge8" class="edge">
<title>Node6&#45;&gt;Node9</title>
<path fill="none" stroke="#63b8ff" d="M487.3,-302.97C508.48,-290.87 534.89,-275.78 551.09,-266.52"/>
<polygon fill="#63b8ff" stroke="#63b8ff" points="485.52,-299.95 478.58,-307.95 489,-306.03 485.52,-299.95"/>
</g>
<!-- Node7&#45;&gt;Node8 -->
<g id="edge7" class="edge">
<title>Node7&#45;&gt;Node8</title>
<path fill="none" stroke="#63b8ff" d="M908.96,-55.82C812.3,-45.36 641.03,-26.84 550.3,-17.02"/>
<polygon fill="#63b8ff" stroke="#63b8ff" points="908.61,-59.3 918.93,-56.89 909.37,-52.34 908.61,-59.3"/>
</g>
<!-- Node9&#45;&gt;Node10 -->
<g id="edge9" class="edge">
<title>Node9&#45;&gt;Node10</title>
<path fill="none" stroke="#63b8ff" d="M589.09,-242.19C610.15,-229.59 640.61,-211.37 658.46,-200.7"/>
<polygon fill="#63b8ff" stroke="#63b8ff" points="587.22,-239.23 580.43,-247.37 590.81,-245.24 587.22,-239.23"/>
</g>
<!-- Node10&#45;&gt;Node7 -->
<g id="edge10" class="edge">
<title>Node10&#45;&gt;Node7</title>
<path fill="none" stroke="#63b8ff" d="M676.85,-171.41C681.72,-152.82 692.01,-124.91 712,-110 743.9,-86.21 850.19,-74.45 918.94,-69.19"/>
<polygon fill="#63b8ff" stroke="#63b8ff" points="673.4,-170.82 674.53,-181.35 680.21,-172.41 673.4,-170.82"/>
</g>
<!-- Node11 -->
<g id="node11" class="node">
<title>Node11</title>
<g id="a_node11"><a xlink:href="gov__effects_8h.html" target="_top" xlink:title=" ">
<polygon fill="white" stroke="#666666" points="865,-134.5 721,-134.5 721,-115.5 865,-115.5 865,-134.5"/>
<text text-anchor="middle" x="793" y="-122.5" font-family="Helvetica,sans-Serif" font-size="10.00">src/node/rpc/gov_effects.h</text>
</a>
</g>
</g>
<!-- Node10&#45;&gt;Node11 -->
<g id="edge11" class="edge">
<title>Node10&#45;&gt;Node11</title>
<path fill="none" stroke="#63b8ff" d="M698.26,-176.53C721.9,-163.92 756.5,-145.47 776.69,-134.7"/>
<polygon fill="#63b8ff" stroke="#63b8ff" points="696.36,-173.57 689.18,-181.37 699.65,-179.75 696.36,-173.57"/>
</g>
<!-- Node11&#45;&gt;Node7 -->
<g id="edge12" class="edge">
<title>Node11&#45;&gt;Node7</title>
<path fill="none" stroke="#63b8ff" d="M829.88,-112.46C866.05,-101.15 920.35,-84.16 952.78,-74.02"/>
<polygon fill="#63b8ff" stroke="#63b8ff" points="828.69,-109.17 820.19,-115.49 830.78,-115.85 828.69,-109.17"/>
</g>
<!-- Node12&#45;&gt;Node7 -->
<g id="edge15" class="edge">
<title>Node12&#45;&gt;Node7</title>
<path fill="none" stroke="#63b8ff" d="M871.68,-303.79C887.85,-296.17 904.29,-285.79 916,-272 968.71,-209.91 978.04,-104.71 979.67,-74.09"/>
<polygon fill="#63b8ff" stroke="#63b8ff" points="869.96,-300.72 862.23,-307.96 872.79,-307.13 869.96,-300.72"/>
</g>
<!-- Node13&#45;&gt;Node7 -->
<g id="edge17" class="edge">
<title>Node13&#45;&gt;Node7</title>
<path fill="none" stroke="#63b8ff" d="M709.05,-311.27C752.46,-301.28 811.31,-285.89 831,-272 909.75,-216.45 962.43,-105.76 976.33,-74.13"/>
<polygon fill="#63b8ff" stroke="#63b8ff" points="708.19,-307.87 699.22,-313.5 709.74,-314.7 708.19,-307.87"/>
</g>
<!-- Node14 -->
<g id="node14" class="node">
<title>Node14</title>
<g id="a_node14"><a xlink:href="jwt__key__auto__refresh_8h.html" target="_top" xlink:title=" ">
<polygon fill="white" stroke="#666666" points="821.5,-272 696.5,-272 696.5,-242 821.5,-242 821.5,-272"/>
<text text-anchor="start" x="704.5" y="-260" font-family="Helvetica,sans-Serif" font-size="10.00">src/node/jwt_key_auto</text>
<text text-anchor="middle" x="759" y="-249" font-family="Helvetica,sans-Serif" font-size="10.00">_refresh.h</text>
</a>
</g>
</g>
<!-- Node13&#45;&gt;Node14 -->
<g id="edge18" class="edge">
<title>Node13&#45;&gt;Node14</title>
<path fill="none" stroke="#63b8ff" d="M681.01,-307.91C697.63,-297.28 720.32,-282.75 736.94,-272.12"/>
<polygon fill="#63b8ff" stroke="#63b8ff" points="679.02,-305.03 672.49,-313.37 682.8,-310.93 679.02,-305.03"/>
</g>
<!-- Node14&#45;&gt;Node10 -->
<g id="edge19" class="edge">
<title>Node14&#45;&gt;Node10</title>
<path fill="none" stroke="#63b8ff" d="M731.57,-235.58C715.83,-223.87 696.88,-209.77 684.88,-200.84"/>
<polygon fill="#63b8ff" stroke="#63b8ff" points="729.8,-238.63 739.91,-241.8 733.98,-233.02 729.8,-238.63"/>
</g>
<!-- Node15&#45;&gt;Node7 -->
<g id="edge21" class="edge">
<title>Node15&#45;&gt;Node7</title>
<path fill="none" stroke="#63b8ff" d="M363.55,-237.6C374.34,-205.42 401.45,-139.51 450,-110 489.26,-86.14 787.74,-72.49 918.71,-67.59"/>
<polygon fill="#63b8ff" stroke="#63b8ff" points="360.11,-236.88 360.41,-247.47 366.78,-239 360.11,-236.88"/>
</g>
<!-- Node17 -->
<g id="node17" class="node">
<title>Node17</title>
<g id="a_node17"><a xlink:href="call__types_8h.html" target="_top" xlink:title=" ">
<polygon fill="white" stroke="#666666" points="460.5,-464.5 323.5,-464.5 323.5,-445.5 460.5,-445.5 460.5,-464.5"/>
<text text-anchor="middle" x="392" y="-452.5" font-family="Helvetica,sans-Serif" font-size="10.00">src/node/rpc/call_types.h</text>
</a>
</g>
</g>
<!-- Node16&#45;&gt;Node17 -->
<g id="edge23" class="edge">
<title>Node16&#45;&gt;Node17</title>
<path fill="none" stroke="#63b8ff" d="M398.19,-495.6C396.5,-484.8 394.62,-472.78 393.38,-464.84"/>
<polygon fill="#63b8ff" stroke="#63b8ff" points="394.78,-496.46 399.78,-505.8 401.69,-495.38 394.78,-496.46"/>
</g>
<!-- Node17&#45;&gt;Node12 -->
<g id="edge28" class="edge">
<title>Node17&#45;&gt;Node12</title>
<path fill="none" stroke="#63b8ff" d="M459.96,-443.78C508.78,-435.5 575.79,-422.22 633,-404 690.16,-385.8 753.64,-355.66 788.79,-338.03"/>
<polygon fill="#63b8ff" stroke="#63b8ff" points="459.12,-440.37 449.83,-445.47 460.27,-447.27 459.12,-440.37"/>
</g>
<!-- Node18 -->
<g id="node18" class="node">
<title>Node18</title>
<g id="a_node18"><a xlink:href="common__endpoint__registry_8cpp.html" target="_top" xlink:title=" ">
<polygon fill="white" stroke="#666666" points="290,-338 162,-338 162,-308 290,-308 290,-338"/>
<text text-anchor="start" x="170" y="-326" font-family="Helvetica,sans-Serif" font-size="10.00">src/endpoints/common</text>
<text text-anchor="middle" x="226" y="-315" font-family="Helvetica,sans-Serif" font-size="10.00">_endpoint_registry.cpp</text>
</a>
</g>
</g>
<!-- Node17&#45;&gt;Node18 -->
<g id="edge24" class="edge">
<title>Node17&#45;&gt;Node18</title>
<path fill="none" stroke="#63b8ff" d="M345.64,-442.48C321.58,-434.7 292.92,-422.42 272,-404 251.32,-385.79 237.66,-355.94 230.93,-338.31"/>
<polygon fill="#63b8ff" stroke="#63b8ff" points="344.71,-445.86 355.3,-445.45 346.76,-439.16 344.71,-445.86"/>
</g>
<!-- Node19 -->
<g id="node19" class="node">
<title>Node19</title>
<g id="a_node19"><a xlink:href="wrap_8cpp.html" target="_top" xlink:title=" ">
<polygon fill="white" stroke="#666666" points="1148.5,-266.5 1059.5,-266.5 1059.5,-247.5 1148.5,-247.5 1148.5,-266.5"/>
<text text-anchor="middle" x="1104" y="-254.5" font-family="Helvetica,sans-Serif" font-size="10.00">src/js/wrap.cpp</text>
</a>
</g>
</g>
<!-- Node17&#45;&gt;Node19 -->
<g id="edge25" class="edge">
<title>Node17&#45;&gt;Node19</title>
<path fill="none" stroke="#63b8ff" d="M468.99,-444.08C528.46,-435.64 612.57,-422.02 685,-404 813.07,-372.13 842.08,-353.4 966,-308 1005.96,-293.36 1052.51,-276.54 1080.05,-266.62"/>
<polygon fill="#63b8ff" stroke="#63b8ff" points="468.33,-440.63 458.92,-445.49 469.31,-447.57 468.33,-440.63"/>
</g>
<!-- Node20 -->
<g id="node20" class="node">
<title>Node20</title>
<g id="a_node20"><a xlink:href="resharing_8h.html" target="_top" xlink:title=" ">
<polygon fill="white" stroke="#666666" points="144,-332.5 28,-332.5 28,-313.5 144,-313.5 144,-332.5"/>
<text text-anchor="middle" x="86" y="-320.5" font-family="Helvetica,sans-Serif" font-size="10.00">src/node/resharing.h</text>
</a>
</g>
</g>
<!-- Node17&#45;&gt;Node20 -->
<g id="edge26" class="edge">
<title>Node17&#45;&gt;Node20</title>
<path fill="none" stroke="#63b8ff" d="M352.89,-442.46C322.72,-433.17 280.18,-419.18 244,-404 190.13,-381.4 129.19,-348.28 101.35,-332.7"/>
<polygon fill="#63b8ff" stroke="#63b8ff" points="352.03,-445.86 362.62,-445.43 354.07,-439.17 352.03,-445.86"/>
</g>
<!-- Node21 -->
<g id="node21" class="node">
<title>Node21</title>
<g id="a_node21"><a xlink:href="serialization_8h.html" target="_top" xlink:title=" ">
<polygon fill="white" stroke="#666666" points="429,-398.5 281,-398.5 281,-379.5 429,-379.5 429,-398.5"/>
<text text-anchor="middle" x="355" y="-386.5" font-family="Helvetica,sans-Serif" font-size="10.00">src/node/rpc/serialization.h</text>
</a>
</g>
</g>
<!-- Node17&#45;&gt;Node21 -->
<g id="edge29" class="edge">
<title>Node17&#45;&gt;Node21</title>
<path fill="none" stroke="#63b8ff" d="M381.91,-436.55C374.87,-424.36 365.76,-408.61 360.15,-398.91"/>
<polygon fill="#63b8ff" stroke="#63b8ff" points="378.97,-438.46 387.01,-445.37 385.04,-434.96 378.97,-438.46"/>
</g>
<!-- Node20&#45;&gt;Node10 -->
<g id="edge27" class="edge">
<title>Node20&#45;&gt;Node10</title>
<path fill="none" stroke="#63b8ff" d="M106.95,-307.73C135.3,-289.2 188.08,-257.41 238,-242 366.38,-202.36 524.85,-193.62 610.66,-192.01"/>
<polygon fill="#63b8ff" stroke="#63b8ff" points="104.71,-305.01 98.31,-313.46 108.58,-310.85 104.71,-305.01"/>
</g>
<!-- Node21&#45;&gt;Node10 -->
<g id="edge31" class="edge">
<title>Node21&#45;&gt;Node10</title>
<path fill="none" stroke="#63b8ff" d="M343.03,-370.56C331.8,-354.27 314.47,-329.34 299,-308 287.26,-291.81 278.32,-290.97 272,-272 267.78,-259.35 263.17,-251.99 272,-242 294.03,-217.05 503.71,-201.62 610.76,-195.3"/>
<polygon fill="#63b8ff" stroke="#63b8ff" points="340.33,-372.8 348.88,-379.05 346.1,-368.83 340.33,-372.8"/>
</g>
<!-- Node21&#45;&gt;Node12 -->
<g id="edge33" class="edge">
<title>Node21&#45;&gt;Node12</title>
<path fill="none" stroke="#63b8ff" d="M439.26,-379.06C518.82,-370.19 641.35,-355.43 747,-338 749.89,-337.52 752.85,-337.01 755.84,-336.48"/>
<polygon fill="#63b8ff" stroke="#63b8ff" points="438.85,-375.59 429.29,-380.17 439.62,-382.54 438.85,-375.59"/>
</g>
<!-- Node21&#45;&gt;Node13 -->
<g id="edge34" class="edge">
<title>Node21&#45;&gt;Node13</title>
<path fill="none" stroke="#63b8ff" d="M405.66,-377.34C465.43,-364.75 563.62,-344.08 618.56,-332.51"/>
<polygon fill="#63b8ff" stroke="#63b8ff" points="404.75,-373.95 395.68,-379.44 406.19,-380.8 404.75,-373.95"/>
</g>
<!-- Node21&#45;&gt;Node18 -->
<g id="edge30" class="edge">
<title>Node21&#45;&gt;Node18</title>
<path fill="none" stroke="#63b8ff" d="M328.37,-374.79C306.8,-364.09 276.49,-349.05 254.45,-338.12"/>
<polygon fill="#63b8ff" stroke="#63b8ff" points="327.09,-378.06 337.6,-379.37 330.2,-371.79 327.09,-378.06"/>
</g>
<!-- Node21&#45;&gt;Node20 -->
<g id="edge32" class="edge">
<title>Node21&#45;&gt;Node20</title>
<path fill="none" stroke="#63b8ff" d="M309.19,-377.1C256.2,-364.49 170.09,-344.01 121.79,-332.51"/>
<polygon fill="#63b8ff" stroke="#63b8ff" points="308.46,-380.53 319,-379.44 310.08,-373.72 308.46,-380.53"/>
</g>
<!-- Node22&#45;&gt;Node12 -->
<g id="edge61" class="edge">
<title>Node22&#45;&gt;Node12</title>
<path fill="none" stroke="#63b8ff" d="M1002.94,-504.41C992.27,-494.6 978.26,-481.64 966,-470 915.66,-422.21 856.94,-364.46 830.36,-338.21"/>
<polygon fill="#63b8ff" stroke="#63b8ff" points="1000.64,-507.04 1010.37,-511.22 1005.37,-501.88 1000.64,-507.04"/>
</g>
<!-- Node22&#45;&gt;Node13 -->
<g id="edge69" class="edge">
<title>Node22&#45;&gt;Node13</title>
<path fill="none" stroke="#63b8ff" d="M995.09,-506.47C925.69,-468.8 731.58,-363.41 674.79,-332.57"/>
<polygon fill="#63b8ff" stroke="#63b8ff" points="993.56,-509.63 1004.02,-511.33 996.9,-503.48 993.56,-509.63"/>
</g>
<!-- Node22&#45;&gt;Node19 -->
<g id="edge36" class="edge">
<title>Node22&#45;&gt;Node19</title>
<path fill="none" stroke="#63b8ff" d="M1015.21,-501.23C1006.35,-462.28 991.41,-371.04 1027,-308 1038.44,-287.74 1061.88,-274.32 1079.9,-266.54"/>
<polygon fill="#63b8ff" stroke="#63b8ff" points="1011.85,-502.26 1017.6,-511.16 1018.66,-500.62 1011.85,-502.26"/>
</g>
<!-- Node23 -->
<g id="node23" class="node">
<title>Node23</title>
<g id="a_node23"><a xlink:href="wrap_8h.html" target="_top" xlink:title=" ">
<polygon fill="white" stroke="#666666" points="1203,-398.5 1125,-398.5 1125,-379.5 1203,-379.5 1203,-398.5"/>
<text text-anchor="middle" x="1164" y="-386.5" font-family="Helvetica,sans-Serif" font-size="10.00">src/js/wrap.h</text>
</a>
</g>
</g>
<!-- Node22&#45;&gt;Node23 -->
<g id="edge37" class="edge">
<title>Node22&#45;&gt;Node23</title>
<path fill="none" stroke="#63b8ff" d="M1037.13,-504.53C1067.61,-477.02 1130.29,-420.43 1154.33,-398.73"/>
<polygon fill="#63b8ff" stroke="#63b8ff" points="1034.53,-502.17 1029.45,-511.47 1039.22,-507.37 1034.53,-502.17"/>
</g>
<!-- Node30 -->
<g id="node30" class="node">
<title>Node30</title>
<g id="a_node30"><a xlink:href="historical__queries_8h.html" target="_top" xlink:title=" ">
<polygon fill="white" stroke="#666666" points="2182,-206 2076,-206 2076,-176 2182,-176 2182,-206"/>
<text text-anchor="start" x="2084" y="-194" font-family="Helvetica,sans-Serif" font-size="10.00">src/node/historical</text>
<text text-anchor="middle" x="2129" y="-183" font-family="Helvetica,sans-Serif" font-size="10.00">_queries.h</text>
</a>
</g>
</g>
<!-- Node22&#45;&gt;Node30 -->
<g id="edge53" class="edge">
<title>Node22&#45;&gt;Node30</title>
<path fill="none" stroke="#63b8ff" d="M1111.1,-517.98C1347.32,-512.39 1967.48,-495.48 2057,-470 2127.04,-450.06 2200,-462.83 2200,-390 2200,-390 2200,-390 2200,-322 2200,-274.94 2163.72,-228.73 2143.03,-206.2"/>
<polygon fill="#63b8ff" stroke="#63b8ff" points="1110.73,-514.48 1100.82,-518.22 1110.9,-521.48 1110.73,-514.48"/>
</g>
<!-- Node32 -->
<g id="node32" class="node">
<title>Node32</title>
<g id="a_node32"><a xlink:href="node__configuration__subsystem_8h.html" target="_top" xlink:title=" ">
<polygon fill="white" stroke="#666666" points="744,-470 590,-470 590,-440 744,-440 744,-470"/>
<text text-anchor="start" x="598" y="-458" font-family="Helvetica,sans-Serif" font-size="10.00">src/node/node_configuration</text>
<text text-anchor="middle" x="667" y="-447" font-family="Helvetica,sans-Serif" font-size="10.00">_subsystem.h</text>
</a>
</g>
</g>
<!-- Node22&#45;&gt;Node32 -->
<g id="edge57" class="edge">
<title>Node22&#45;&gt;Node32</title>
<path fill="none" stroke="#63b8ff" d="M962.79,-509.63C903.34,-498.85 809.94,-481.91 744.02,-469.96"/>
<polygon fill="#63b8ff" stroke="#63b8ff" points="962.3,-513.09 972.76,-511.44 963.54,-506.21 962.3,-513.09"/>
</g>
<!-- Node33 -->
<g id="node33" class="node">
<title>Node33</title>
<g id="a_node33"><a xlink:href="acme__subsystem_8h.html" target="_top" xlink:title=" ">
<polygon fill="white" stroke="#666666" points="2439.5,-200.5 2266.5,-200.5 2266.5,-181.5 2439.5,-181.5 2439.5,-200.5"/>
<text text-anchor="middle" x="2353" y="-188.5" font-family="Helvetica,sans-Serif" font-size="10.00">src/node/rpc/acme_subsystem.h</text>
</a>
</g>
</g>
<!-- Node22&#45;&gt;Node33 -->
<g id="edge59" class="edge">
<title>Node22&#45;&gt;Node33</title>
<path fill="none" stroke="#63b8ff" d="M1110.72,-517.72C1391.61,-510.48 2229.49,-487.47 2252,-470 2281.33,-447.24 2276,-427.12 2276,-390 2276,-390 2276,-390 2276,-322 2276,-269.8 2322.53,-220.2 2343.25,-200.7"/>
<polygon fill="#63b8ff" stroke="#63b8ff" points="1110.47,-514.23 1100.57,-517.98 1110.65,-521.22 1110.47,-514.23"/>
</g>
<!-- Node34 -->
<g id="node34" class="node">
<title>Node34</title>
<g id="a_node34"><a xlink:href="network__identity__subsystem_8h.html" target="_top" xlink:title=" ">
<polygon fill="white" stroke="#666666" points="2047.5,-470 1920.5,-470 1920.5,-440 2047.5,-440 2047.5,-470"/>
<text text-anchor="start" x="1928.5" y="-458" font-family="Helvetica,sans-Serif" font-size="10.00">src/node/rpc/network</text>
<text text-anchor="middle" x="1984" y="-447" font-family="Helvetica,sans-Serif" font-size="10.00">_identity_subsystem.h</text>
</a>
</g>
</g>
<!-- Node22&#45;&gt;Node34 -->
<g id="edge62" class="edge">
<title>Node22&#45;&gt;Node34</title>
<path fill="none" stroke="#63b8ff" d="M1110.68,-513.98C1304.28,-501.13 1753.98,-471.27 1920.49,-460.22"/>
<polygon fill="#63b8ff" stroke="#63b8ff" points="1110.28,-510.5 1100.53,-514.65 1110.74,-517.48 1110.28,-510.5"/>
</g>
<!-- Node38 -->
<g id="node38" class="node">
<title>Node38</title>
<g id="a_node38"><a xlink:href="node__operation_8h.html" target="_top" xlink:title=" ">
<polygon fill="white" stroke="#666666" points="2321,-134.5 2157,-134.5 2157,-115.5 2321,-115.5 2321,-134.5"/>
<text text-anchor="middle" x="2239" y="-122.5" font-family="Helvetica,sans-Serif" font-size="10.00">src/node/rpc/node_operation.h</text>
</a>
</g>
</g>
<!-- Node22&#45;&gt;Node38 -->
<g id="edge70" class="edge">
<title>Node22&#45;&gt;Node38</title>
<path fill="none" stroke="#63b8ff" d="M1110.73,-518.95C1358.63,-515.65 2035.25,-503.65 2130,-470 2186.29,-450.01 2238,-449.73 2238,-390 2238,-390 2238,-390 2238,-256 2238,-210.18 2238.63,-155.28 2238.89,-134.52"/>
<polygon fill="#63b8ff" stroke="#63b8ff" points="1110.62,-515.45 1100.67,-519.08 1110.72,-522.45 1110.62,-515.45"/>
</g>
<!-- Node23&#45;&gt;Node7 -->
<g id="edge39" class="edge">
<title>Node23&#45;&gt;Node7</title>
<path fill="none" stroke="#63b8ff" d="M1213.54,-387.41C1355.54,-385.28 1756.71,-375.92 1801,-338 1828.76,-314.24 1820,-294.54 1820,-258 1820,-258 1820,-258 1820,-190 1820,-111.22 1234.39,-77.2 1041.09,-68.12"/>
<polygon fill="#63b8ff" stroke="#63b8ff" points="1213.32,-383.92 1203.38,-387.56 1213.43,-390.91 1213.32,-383.92"/>
</g>
<!-- Node23&#45;&gt;Node10 -->
<g id="edge50" class="edge">
<title>Node23&#45;&gt;Node10</title>
<path fill="none" stroke="#63b8ff" d="M1128.47,-376.19C1100.58,-366.64 1060.92,-352.45 1027,-338 937.76,-299.99 921.04,-278.07 831,-242 788.13,-224.83 736.91,-209.54 704.66,-200.51"/>
<polygon fill="#63b8ff" stroke="#63b8ff" points="1127.59,-379.58 1138.18,-379.49 1129.84,-372.96 1127.59,-379.58"/>
</g>
<!-- Node23&#45;&gt;Node12 -->
<g id="edge51" class="edge">
<title>Node23&#45;&gt;Node12</title>
<path fill="none" stroke="#63b8ff" d="M1114.71,-378.94C1051.95,-367.39 943.55,-347.46 876.03,-335.04"/>
<polygon fill="#63b8ff" stroke="#63b8ff" points="1114.29,-382.42 1124.76,-380.78 1115.55,-375.53 1114.29,-382.42"/>
</g>
<!-- Node23&#45;&gt;Node13 -->
<g id="edge52" class="edge">
<title>Node23&#45;&gt;Node13</title>
<path fill="none" stroke="#63b8ff" d="M1114.81,-382.72C1036.74,-374.2 879.7,-356.5 747,-338 735.2,-336.35 722.54,-334.43 710.6,-332.55"/>
<polygon fill="#63b8ff" stroke="#63b8ff" points="1114.52,-386.21 1124.84,-383.81 1115.28,-379.25 1114.52,-386.21"/>
</g>
<!-- Node23&#45;&gt;Node19 -->
<g id="edge49" class="edge">
<title>Node23&#45;&gt;Node19</title>
<path fill="none" stroke="#63b8ff" d="M1114.89,-382.16C1087.06,-376.05 1054.4,-363.55 1037,-338 1029.49,-326.98 1031.02,-319.92 1037,-308 1046.76,-288.54 1068.08,-274.72 1084.07,-266.61"/>
<polygon fill="#63b8ff" stroke="#63b8ff" points="1114.41,-385.63 1124.9,-384.13 1115.76,-378.76 1114.41,-385.63"/>
</g>
<!-- Node24 -->
<g id="node24" class="node">
<title>Node24</title>
<g id="a_node24"><a xlink:href="js__generic__base_8cpp.html" target="_top" xlink:title=" ">
<polygon fill="white" stroke="#666666" points="1404,-338 1286,-338 1286,-308 1404,-308 1404,-338"/>
<text text-anchor="start" x="1294" y="-326" font-family="Helvetica,sans-Serif" font-size="10.00">src/apps/js_generic</text>
<text text-anchor="middle" x="1345" y="-315" font-family="Helvetica,sans-Serif" font-size="10.00">/js_generic_base.cpp</text>
</a>
</g>
</g>
<!-- Node23&#45;&gt;Node24 -->
<g id="edge38" class="edge">
<title>Node23&#45;&gt;Node24</title>
<path fill="none" stroke="#63b8ff" d="M1198.14,-375.93C1228.54,-365.18 1273.04,-349.44 1305.08,-338.12"/>
<polygon fill="#63b8ff" stroke="#63b8ff" points="1196.67,-372.74 1188.41,-379.37 1199.01,-379.33 1196.67,-372.74"/>
</g>
<!-- Node25 -->
<g id="node25" class="node">
<title>Node25</title>
<g id="a_node25"><a xlink:href="consensus_8cpp.html" target="_top" xlink:title=" ">
<polygon fill="white" stroke="#666666" points="1162,-332.5 1046,-332.5 1046,-313.5 1162,-313.5 1162,-332.5"/>
<text text-anchor="middle" x="1104" y="-320.5" font-family="Helvetica,sans-Serif" font-size="10.00">src/js/consensus.cpp</text>
</a>
</g>
</g>
<!-- Node23&#45;&gt;Node25 -->
<g id="edge40" class="edge">
<title>Node23&#45;&gt;Node25</title>
<path fill="none" stroke="#63b8ff" d="M1148.98,-371.98C1137.4,-359.62 1121.8,-342.99 1112.35,-332.91"/>
<polygon fill="#63b8ff" stroke="#63b8ff" points="1146.52,-374.47 1155.91,-379.37 1151.62,-369.68 1146.52,-374.47"/>
</g>
<!-- Node26 -->
<g id="node26" class="node">
<title>Node26</title>
<g id="a_node26"><a xlink:href="conv_8cpp.html" target="_top" xlink:title=" ">
<polygon fill="white" stroke="#666666" points="1268,-332.5 1180,-332.5 1180,-313.5 1268,-313.5 1268,-332.5"/>
<text text-anchor="middle" x="1224" y="-320.5" font-family="Helvetica,sans-Serif" font-size="10.00">src/js/conv.cpp</text>
</a>
</g>
</g>
<!-- Node23&#45;&gt;Node26 -->
<g id="edge42" class="edge">
<title>Node23&#45;&gt;Node26</title>
<path fill="none" stroke="#63b8ff" d="M1179.02,-371.98C1190.6,-359.62 1206.2,-342.99 1215.65,-332.91"/>
<polygon fill="#63b8ff" stroke="#63b8ff" points="1176.38,-369.68 1172.09,-379.37 1181.48,-374.47 1176.38,-369.68"/>
</g>
<!-- Node27 -->
<g id="node27" class="node">
<title>Node27</title>
<g id="a_node27"><a xlink:href="crypto_8cpp.html" target="_top" xlink:title=" ">
<polygon fill="white" stroke="#666666" points="1664,-332.5 1568,-332.5 1568,-313.5 1664,-313.5 1664,-332.5"/>
<text text-anchor="middle" x="1616" y="-320.5" font-family="Helvetica,sans-Serif" font-size="10.00">src/js/crypto.cpp</text>
</a>
</g>
</g>
<!-- Node23&#45;&gt;Node27 -->
<g id="edge44" class="edge">
<title>Node23&#45;&gt;Node27</title>
<path fill="none" stroke="#63b8ff" d="M1213.29,-383.6C1288.32,-376.48 1435.51,-360.9 1559,-338 1567.12,-336.49 1575.8,-334.54 1583.89,-332.57"/>
<polygon fill="#63b8ff" stroke="#63b8ff" points="1212.82,-380.13 1203.2,-384.55 1213.48,-387.1 1212.82,-380.13"/>
</g>
<!-- Node28 -->
<g id="node28" class="node">
<title>Node28</title>
<g id="a_node28"><a xlink:href="historical_8cpp.html" target="_top" xlink:title=" ">
<polygon fill="white" stroke="#666666" points="1792,-332.5 1682,-332.5 1682,-313.5 1792,-313.5 1792,-332.5"/>
<text text-anchor="middle" x="1737" y="-320.5" font-family="Helvetica,sans-Serif" font-size="10.00">src/js/historical.cpp</text>
</a>
</g>
</g>
<!-- Node23&#45;&gt;Node28 -->
<g id="edge46" class="edge">
<title>Node23&#45;&gt;Node28</title>
<path fill="none" stroke="#63b8ff" d="M1213.19,-385.1C1304.31,-379.29 1505.36,-364.48 1673,-338 1682.32,-336.53 1692.33,-334.54 1701.6,-332.52"/>
<polygon fill="#63b8ff" stroke="#63b8ff" points="1212.91,-381.61 1203.15,-385.73 1213.35,-388.59 1212.91,-381.61"/>
</g>
<!-- Node29 -->
<g id="node29" class="node">
<title>Node29</title>
<g id="a_node29"><a xlink:href="openenclave_8cpp.html" target="_top" xlink:title=" ">
<polygon fill="white" stroke="#666666" points="1550,-332.5 1422,-332.5 1422,-313.5 1550,-313.5 1550,-332.5"/>
<text text-anchor="middle" x="1486" y="-320.5" font-family="Helvetica,sans-Serif" font-size="10.00">src/js/openenclave.cpp</text>
</a>
</g>
</g>
<!-- Node23&#45;&gt;Node29 -->
<g id="edge48" class="edge">
<title>Node23&#45;&gt;Node29</title>
<path fill="none" stroke="#63b8ff" d="M1213.21,-378.22C1275.95,-365.75 1383.42,-344.39 1443.02,-332.54"/>
<polygon fill="#63b8ff" stroke="#63b8ff" points="1212.29,-374.83 1203.16,-380.22 1213.65,-381.7 1212.29,-374.83"/>
</g>
<!-- Node25&#45;&gt;Node19 -->
<g id="edge41" class="edge">
<title>Node25&#45;&gt;Node19</title>
<path fill="none" stroke="#63b8ff" d="M1104,-303.08C1104,-291.13 1104,-276.22 1104,-266.91"/>
<polygon fill="#63b8ff" stroke="#63b8ff" points="1100.5,-303.37 1104,-313.37 1107.5,-303.37 1100.5,-303.37"/>
</g>
<!-- Node26&#45;&gt;Node19 -->
<g id="edge43" class="edge">
<title>Node26&#45;&gt;Node19</title>
<path fill="none" stroke="#63b8ff" d="M1198.74,-308.53C1175.1,-295.92 1140.5,-277.47 1120.31,-266.7"/>
<polygon fill="#63b8ff" stroke="#63b8ff" points="1197.35,-311.75 1207.82,-313.37 1200.64,-305.57 1197.35,-311.75"/>
</g>
<!-- Node27&#45;&gt;Node19 -->
<g id="edge45" class="edge">
<title>Node27&#45;&gt;Node19</title>
<path fill="none" stroke="#63b8ff" d="M1574.6,-311.16C1569.37,-309.99 1564.08,-308.9 1559,-308 1409.73,-281.59 1230.29,-266.77 1148.52,-260.94"/>
<polygon fill="#63b8ff" stroke="#63b8ff" points="1573.96,-314.6 1584.5,-313.48 1575.56,-307.79 1573.96,-314.6"/>
</g>
<!-- Node28&#45;&gt;Node19 -->
<g id="edge47" class="edge">
<title>Node28&#45;&gt;Node19</title>
<path fill="none" stroke="#63b8ff" d="M1692.07,-311.42C1685.69,-310.13 1679.2,-308.95 1673,-308 1479.15,-278.4 1245.26,-264.7 1148.86,-259.99"/>
<polygon fill="#63b8ff" stroke="#63b8ff" points="1691.43,-314.86 1701.94,-313.49 1692.87,-308.01 1691.43,-314.86"/>
</g>
<!-- Node30&#45;&gt;Node7 -->
<g id="edge54" class="edge">
<title>Node30&#45;&gt;Node7</title>
<path fill="none" stroke="#63b8ff" d="M2130.4,-165.57C2129.99,-147.27 2126.05,-123.21 2110,-110 2068.5,-75.85 1271.04,-67.56 1041.39,-65.88"/>
<polygon fill="#63b8ff" stroke="#63b8ff" points="2126.9,-165.77 2130.29,-175.81 2133.9,-165.85 2126.9,-165.77"/>
</g>
<!-- Node31 -->
<g id="node31" class="node">
<title>Node31</title>
<g id="a_node31"><a xlink:href="historical__transaction__fetcher_8h.html" target="_top" xlink:title=" ">
<polygon fill="white" stroke="#666666" points="2100.5,-140 1975.5,-140 1975.5,-110 2100.5,-110 2100.5,-140"/>
<text text-anchor="start" x="1983.5" y="-128" font-family="Helvetica,sans-Serif" font-size="10.00">src/indexing/historical</text>
<text text-anchor="middle" x="2038" y="-117" font-family="Helvetica,sans-Serif" font-size="10.00">_transaction_fetcher.h</text>
</a>
</g>
</g>
<!-- Node30&#45;&gt;Node31 -->
<g id="edge55" class="edge">
<title>Node30&#45;&gt;Node31</title>
<path fill="none" stroke="#63b8ff" d="M2100.6,-170.03C2086.83,-160.34 2070.62,-148.94 2058.14,-140.16"/>
<polygon fill="#63b8ff" stroke="#63b8ff" points="2098.61,-172.91 2108.8,-175.8 2102.64,-167.18 2098.61,-172.91"/>
</g>
<!-- Node31&#45;&gt;Node7 -->
<g id="edge56" class="edge">
<title>Node31&#45;&gt;Node7</title>
<path fill="none" stroke="#63b8ff" d="M1965.47,-110.53C1963.97,-110.35 1962.48,-110.17 1961,-110 1614.56,-70.83 1195.61,-65.84 1041.07,-65.42"/>
<polygon fill="#63b8ff" stroke="#63b8ff" points="1965.11,-114.02 1975.49,-111.91 1966.06,-107.08 1965.11,-114.02"/>
</g>
<!-- Node32&#45;&gt;Node5 -->
<g id="edge58" class="edge">
<title>Node32&#45;&gt;Node5</title>
<path fill="none" stroke="#63b8ff" d="M634.62,-434.81C614.23,-422.73 588.93,-407.73 573.37,-398.52"/>
<polygon fill="#63b8ff" stroke="#63b8ff" points="632.91,-437.87 643.3,-439.95 636.48,-431.85 632.91,-437.87"/>
</g>
<!-- Node33&#45;&gt;Node7 -->
<g id="edge60" class="edge">
<title>Node33&#45;&gt;Node7</title>
<path fill="none" stroke="#63b8ff" d="M2353.45,-171.47C2352.79,-152.69 2348.5,-124.41 2330,-110 2278.58,-69.94 1297.84,-65.9 1041.09,-65.53"/>
<polygon fill="#63b8ff" stroke="#63b8ff" points="2349.95,-171.5 2353.49,-181.49 2356.95,-171.47 2349.95,-171.5"/>
</g>
<!-- Node34&#45;&gt;Node7 -->
<g id="edge64" class="edge">
<title>Node34&#45;&gt;Node7</title>
<path fill="none" stroke="#63b8ff" d="M2032.29,-435.94C2091.32,-410.99 2179.19,-362.81 2143,-308 2060.72,-183.37 1972.67,-231.44 1834,-176 1756.04,-144.83 1739.09,-127.61 1657,-110 1540.39,-84.99 1184.66,-71.7 1041.07,-67.24"/>
<polygon fill="#63b8ff" stroke="#63b8ff" points="2030.63,-432.84 2022.72,-439.89 2033.3,-439.31 2030.63,-432.84"/>
</g>
<!-- Node35 -->
<g id="node35" class="node">
<title>Node35</title>
<g id="a_node35"><a xlink:href="external__executor_8cpp.html" target="_top" xlink:title=" ">
<polygon fill="white" stroke="#666666" points="2134,-338 1986,-338 1986,-308 2134,-308 2134,-338"/>
<text text-anchor="start" x="1994" y="-326" font-family="Helvetica,sans-Serif" font-size="10.00">src/apps/external_executor</text>
<text text-anchor="middle" x="2060" y="-315" font-family="Helvetica,sans-Serif" font-size="10.00">/external_executor.cpp</text>
</a>
</g>
</g>
<!-- Node34&#45;&gt;Node35 -->
<g id="edge63" class="edge">
<title>Node34&#45;&gt;Node35</title>
<path fill="none" stroke="#63b8ff" d="M2017.63,-433.87C2028.28,-425.87 2039.07,-415.75 2046,-404 2058.17,-383.35 2060.35,-354.85 2060.44,-338.03"/>
<polygon fill="#63b8ff" stroke="#63b8ff" points="2015.35,-431.19 2009.19,-439.82 2019.38,-436.91 2015.35,-431.19"/>
</g>
<!-- Node36 -->
<g id="node36" class="node">
<title>Node36</title>
<g id="a_node36"><a xlink:href="historical__queries__adapter_8cpp.html" target="_top" xlink:title=" ">
<polygon fill="white" stroke="#666666" points="1968,-338 1848,-338 1848,-308 1968,-308 1968,-338"/>
<text text-anchor="start" x="1856" y="-326" font-family="Helvetica,sans-Serif" font-size="10.00">src/node/historical</text>
<text text-anchor="middle" x="1908" y="-315" font-family="Helvetica,sans-Serif" font-size="10.00">_queries_adapter.cpp</text>
</a>
</g>
</g>
<!-- Node34&#45;&gt;Node36 -->
<g id="edge65" class="edge">
<title>Node34&#45;&gt;Node36</title>
<path fill="none" stroke="#63b8ff" d="M1950.37,-433.87C1939.72,-425.87 1928.93,-415.75 1922,-404 1909.83,-383.35 1907.65,-354.85 1907.56,-338.03"/>
<polygon fill="#63b8ff" stroke="#63b8ff" points="1948.62,-436.91 1958.81,-439.82 1952.65,-431.19 1948.62,-436.91"/>
</g>
<!-- Node37 -->
<g id="node37" class="node">
<title>Node37</title>
<g id="a_node37"><a xlink:href="historical__queries__utils_8h.html" target="_top" xlink:title=" ">
<polygon fill="white" stroke="#666666" points="2037,-404 1931,-404 1931,-374 2037,-374 2037,-404"/>
<text text-anchor="start" x="1939" y="-392" font-family="Helvetica,sans-Serif" font-size="10.00">src/node/historical</text>
<text text-anchor="middle" x="1984" y="-381" font-family="Helvetica,sans-Serif" font-size="10.00">_queries_utils.h</text>
</a>
</g>
</g>
<!-- Node34&#45;&gt;Node37 -->
<g id="edge66" class="edge">
<title>Node34&#45;&gt;Node37</title>
<path fill="none" stroke="#63b8ff" d="M1984,-429.54C1984,-420.96 1984,-411.61 1984,-404.16"/>
<polygon fill="#63b8ff" stroke="#63b8ff" points="1980.5,-429.8 1984,-439.8 1987.5,-429.8 1980.5,-429.8"/>
</g>
<!-- Node37&#45;&gt;Node35 -->
<g id="edge67" class="edge">
<title>Node37&#45;&gt;Node35</title>
<path fill="none" stroke="#63b8ff" d="M2008.7,-367.2C2019.98,-357.7 2033.05,-346.69 2043.18,-338.16"/>
<polygon fill="#63b8ff" stroke="#63b8ff" points="2006.26,-364.68 2000.87,-373.8 2010.77,-370.03 2006.26,-364.68"/>
</g>
<!-- Node37&#45;&gt;Node36 -->
<g id="edge68" class="edge">
<title>Node37&#45;&gt;Node36</title>
<path fill="none" stroke="#63b8ff" d="M1959.3,-367.2C1948.02,-357.7 1934.95,-346.69 1924.82,-338.16"/>
<polygon fill="#63b8ff" stroke="#63b8ff" points="1957.23,-370.03 1967.13,-373.8 1961.74,-364.68 1957.23,-370.03"/>
</g>
<!-- Node38&#45;&gt;Node7 -->
<g id="edge71" class="edge">
<title>Node38&#45;&gt;Node7</title>
<path fill="none" stroke="#63b8ff" d="M2177.07,-113.98C2165.76,-112.43 2154.04,-111.01 2143,-110 1722.97,-71.45 1214.64,-66.18 1041.31,-65.55"/>
<polygon fill="#63b8ff" stroke="#63b8ff" points="2176.91,-117.49 2187.31,-115.43 2177.89,-110.56 2176.91,-117.49"/>
</g>
</g>
</svg>
        <g id="navigator" transform="translate(0 0)" fill="#404254">
                <rect fill="#f2f5e9" fill-opacity="0.5" stroke="#606060" stroke-width=".5" x="0" y="0" width="60" height="60"/>
                <use id="zoomplus" xlink:href="#zoomPlus" x="17" y="9" onmousedown="handleZoom(evt,'in')"/>
                <use id="zoomminus" xlink:href="#zoomMin" x="42" y="9" onmousedown="handleZoom(evt,'out')"/>
                <use id="reset" xlink:href="#resetDef" x="30" y="36" onmousedown="handleReset()"/>
                <g id="arrowUp" xlink:href="#dirArrow" transform="translate(30 24)" onmousedown="handlePan(0,-1)">
                  <use xlink:href="#rim" fill="#404040">
                        <set attributeName="fill" to="#808080" begin="arrowUp.mouseover" end="arrowUp.mouseout"/>
                  </use>
                  <path fill="none" stroke="white" stroke-width="1.5" d="M0,-3.0v7 M-2.5,-0.5L0,-3.0L2.5,-0.5"/>
                </g>
                <g id="arrowRight" xlink:href="#dirArrow" transform="rotate(90) translate(36 -43)" onmousedown="handlePan(1,0)">
                  <use xlink:href="#rim" fill="#404040">
                        <set attributeName="fill" to="#808080" begin="arrowRight.mouseover" end="arrowRight.mouseout"/>
                  </use>
                  <path fill="none" stroke="white" stroke-width="1.5" d="M0,-3.0v7 M-2.5,-0.5L0,-3.0L2.5,-0.5"/>
                </g>
                <g id="arrowDown" xlink:href="#dirArrow" transform="rotate(180) translate(-30 -48)" onmousedown="handlePan(0,1)">
                  <use xlink:href="#rim" fill="#404040">
                        <set attributeName="fill" to="#808080" begin="arrowDown.mouseover" end="arrowDown.mouseout"/>
                  </use>
                  <path fill="none" stroke="white" stroke-width="1.5" d="M0,-3.0v7 M-2.5,-0.5L0,-3.0L2.5,-0.5"/>
                </g>
                <g id="arrowLeft" xlink:href="#dirArrow" transform="rotate(270) translate(-36 17)" onmousedown="handlePan(-1,0)">
                  <use xlink:href="#rim" fill="#404040">
                        <set attributeName="fill" to="#808080" begin="arrowLeft.mouseover" end="arrowLeft.mouseout"/>
                  </use>
                  <path fill="none" stroke="white" stroke-width="1.5" d="M0,-3.0v7 M-2.5,-0.5L0,-3.0L2.5,-0.5"/>
                </g>
        </g>
        <svg viewBox="0 0 15 15" width="100%" height="30px" preserveAspectRatio="xMaxYMin meet">
         <g id="arrow_out" transform="scale(0.3 0.3)">
          <a xlink:href="enclave__interface__types_8h__dep__incl_org.svg" target="_base">
           <rect id="button" ry="5" rx="5" y="6" x="6" height="38" width="38"
                fill="#f2f5e9" fill-opacity="0.5" stroke="#606060" stroke-width="1.0"/>
           <path id="arrow"
             d="M 11.500037,31.436501 C 11.940474,20.09759 22.043105,11.32322 32.158766,21.979434 L 37.068811,17.246167 C 37.068811,17.246167 37.088388,32 37.088388,32 L 22.160133,31.978069 C 22.160133,31.978069 26.997745,27.140456 26.997745,27.140456 C 18.528582,18.264221 13.291696,25.230495 11.500037,31.436501 z"
             style="fill:#404040;"/>
          </a>
         </g>
        </svg>
</svg>
