<?xml version="1.0" encoding="UTF-8" standalone="no"?>
<!DOCTYPE svg PUBLIC "-//W3C//DTD SVG 1.1//EN"
 "http://www.w3.org/Graphics/SVG/1.1/DTD/svg11.dtd">
<!-- Generated by graphviz version 2.43.0 (0)
 -->
<!-- Title: src/enclave/forwarder_types.h Pages: 1 -->
<svg width="1448pt" height="654pt"
 viewBox="0.00 0.00 1448.34 654.00" xmlns="http://www.w3.org/2000/svg" xmlns:xlink="http://www.w3.org/1999/xlink">
<g id="graph0" class="graph" transform="scale(1 1) rotate(0) translate(4 650)">
<title>src/enclave/forwarder_types.h</title>
<!-- Node1 -->
<g id="node1" class="node">
<title>Node1</title>
<g id="a_node1"><a xlink:title=" ">
<polygon fill="#999999" stroke="#666666" points="515.84,-646 393.84,-646 393.84,-616 515.84,-616 515.84,-646"/>
<text text-anchor="start" x="401.84" y="-634" font-family="Helvetica,sans-Serif" font-size="10.00">src/enclave/forwarder</text>
<text text-anchor="middle" x="454.84" y="-623" font-family="Helvetica,sans-Serif" font-size="10.00">_types.h</text>
</a>
</g>
</g>
<!-- Node2 -->
<g id="node2" class="node">
<title>Node2</title>
<g id="a_node2"><a xlink:href="rpc__handler_8h.html" target="_top" xlink:title=" ">
<polygon fill="white" stroke="#666666" points="524.84,-580 384.84,-580 384.84,-561 524.84,-561 524.84,-580"/>
<text text-anchor="middle" x="454.84" y="-568" font-family="Helvetica,sans-Serif" font-size="10.00">src/enclave/rpc_handler.h</text>
</a>
</g>
</g>
<!-- Node1&#45;&gt;Node2 -->
<g id="edge1" class="edge">
<title>Node1&#45;&gt;Node2</title>
<path fill="none" stroke="#63b8ff" d="M454.84,-605.75C454.84,-596.72 454.84,-587.03 454.84,-580.27"/>
<polygon fill="#63b8ff" stroke="#63b8ff" points="451.34,-605.84 454.84,-615.84 458.34,-605.84 451.34,-605.84"/>
</g>
<!-- Node23 -->
<g id="node23" class="node">
<title>Node23</title>
<g id="a_node23"><a xlink:href="rpc__sessions_8h.html" target="_top" xlink:title=" ">
<polygon fill="white" stroke="#666666" points="175.84,-387.5 29.84,-387.5 29.84,-368.5 175.84,-368.5 175.84,-387.5"/>
<text text-anchor="middle" x="102.84" y="-375.5" font-family="Helvetica,sans-Serif" font-size="10.00">src/enclave/rpc_sessions.h</text>
</a>
</g>
</g>
<!-- Node1&#45;&gt;Node23 -->
<g id="edge66" class="edge">
<title>Node1&#45;&gt;Node23</title>
<path fill="none" stroke="#63b8ff" d="M383.85,-619.73C311.19,-606.7 197.27,-579.07 112.84,-525 79.71,-503.78 67.88,-495.76 53.84,-459 49.09,-446.54 48.8,-441.34 53.84,-429 61.1,-411.22 78.07,-396.34 89.99,-387.56"/>
<polygon fill="#63b8ff" stroke="#63b8ff" points="383.37,-623.2 393.82,-621.48 384.57,-616.31 383.37,-623.2"/>
</g>
<!-- Node27 -->
<g id="node27" class="node">
<title>Node27</title>
<g id="a_node27"><a xlink:href="forwarder_8h.html" target="_top" xlink:title=" ">
<polygon fill="white" stroke="#666666" points="1229.84,-453.5 1095.84,-453.5 1095.84,-434.5 1229.84,-434.5 1229.84,-453.5"/>
<text text-anchor="middle" x="1162.84" y="-441.5" font-family="Helvetica,sans-Serif" font-size="10.00">src/node/rpc/forwarder.h</text>
</a>
</g>
</g>
<!-- Node1&#45;&gt;Node27 -->
<g id="edge67" class="edge">
<title>Node1&#45;&gt;Node27</title>
<path fill="none" stroke="#63b8ff" d="M526.25,-625.57C674.94,-615.24 1011.95,-585.65 1107.84,-525 1135.48,-507.52 1152.82,-470.59 1159.59,-453.73"/>
<polygon fill="#63b8ff" stroke="#63b8ff" points="525.61,-622.11 515.87,-626.28 526.09,-629.09 525.61,-622.11"/>
</g>
<!-- Node3 -->
<g id="node3" class="node">
<title>Node3</title>
<g id="a_node3"><a xlink:href="raft__types_8h.html" target="_top" xlink:title=" ">
<polygon fill="white" stroke="#666666" points="605.84,-525 485.84,-525 485.84,-495 605.84,-495 605.84,-525"/>
<text text-anchor="start" x="493.84" y="-513" font-family="Helvetica,sans-Serif" font-size="10.00">src/consensus/aft/raft</text>
<text text-anchor="middle" x="545.84" y="-502" font-family="Helvetica,sans-Serif" font-size="10.00">_types.h</text>
</a>
</g>
</g>
<!-- Node2&#45;&gt;Node3 -->
<g id="edge2" class="edge">
<title>Node2&#45;&gt;Node3</title>
<path fill="none" stroke="#63b8ff" d="M476.94,-555.29C491.2,-546.13 509.66,-534.26 523.89,-525.11"/>
<polygon fill="#63b8ff" stroke="#63b8ff" points="474.79,-552.52 468.27,-560.87 478.58,-558.4 474.79,-552.52"/>
</g>
<!-- Node21 -->
<g id="node21" class="node">
<title>Node21</title>
<g id="a_node21"><a xlink:href="rpc__map_8h.html" target="_top" xlink:title=" ">
<polygon fill="white" stroke="#666666" points="426.84,-519.5 300.84,-519.5 300.84,-500.5 426.84,-500.5 426.84,-519.5"/>
<text text-anchor="middle" x="363.84" y="-507.5" font-family="Helvetica,sans-Serif" font-size="10.00">src/enclave/rpc_map.h</text>
</a>
</g>
</g>
<!-- Node2&#45;&gt;Node21 -->
<g id="edge31" class="edge">
<title>Node2&#45;&gt;Node21</title>
<path fill="none" stroke="#63b8ff" d="M432.54,-555.16C415.25,-544.05 391.87,-529.01 377.33,-519.67"/>
<polygon fill="#63b8ff" stroke="#63b8ff" points="431.11,-558.4 441.42,-560.87 434.9,-552.52 431.11,-558.4"/>
</g>
<!-- Node2&#45;&gt;Node23 -->
<g id="edge57" class="edge">
<title>Node2&#45;&gt;Node23</title>
<path fill="none" stroke="#63b8ff" d="M377.09,-559.53C272.88,-544.3 96.89,-511.37 61.84,-459 45.44,-434.49 75.6,-402.56 92.52,-387.53"/>
<polygon fill="#63b8ff" stroke="#63b8ff" points="376.86,-563.03 387.26,-560.99 377.86,-556.11 376.86,-563.03"/>
</g>
<!-- Node26 -->
<g id="node26" class="node">
<title>Node26</title>
<g id="a_node26"><a xlink:href="http__session_8h.html" target="_top" xlink:title=" ">
<polygon fill="white" stroke="#666666" points="198.34,-453.5 71.34,-453.5 71.34,-434.5 198.34,-434.5 198.34,-453.5"/>
<text text-anchor="middle" x="134.84" y="-441.5" font-family="Helvetica,sans-Serif" font-size="10.00">src/http/http_session.h</text>
</a>
</g>
</g>
<!-- Node2&#45;&gt;Node26 -->
<g id="edge58" class="edge">
<title>Node2&#45;&gt;Node26</title>
<path fill="none" stroke="#63b8ff" d="M404.8,-558.65C372.11,-550.88 328.79,-539.28 291.84,-525 237.06,-503.82 176.14,-469.41 149.1,-453.53"/>
<polygon fill="#63b8ff" stroke="#63b8ff" points="404.05,-562.07 414.59,-560.94 405.65,-555.25 404.05,-562.07"/>
</g>
<!-- Node28 -->
<g id="node28" class="node">
<title>Node28</title>
<g id="a_node28"><a xlink:href="frontend_8h.html" target="_top" xlink:title=" ">
<polygon fill="white" stroke="#666666" points="1322.34,-387.5 1193.34,-387.5 1193.34,-368.5 1322.34,-368.5 1322.34,-387.5"/>
<text text-anchor="middle" x="1257.84" y="-375.5" font-family="Helvetica,sans-Serif" font-size="10.00">src/node/rpc/frontend.h</text>
</a>
</g>
</g>
<!-- Node2&#45;&gt;Node28 -->
<g id="edge65" class="edge">
<title>Node2&#45;&gt;Node28</title>
<path fill="none" stroke="#63b8ff" d="M534.94,-568C684.83,-564.54 1002.12,-553.96 1107.84,-525 1170.72,-507.78 1198.43,-510.16 1238.84,-459 1255.75,-437.61 1258,-403.6 1258.06,-387.72"/>
<polygon fill="#63b8ff" stroke="#63b8ff" points="534.8,-564.5 524.88,-568.23 534.96,-571.5 534.8,-564.5"/>
</g>
<!-- Node32 -->
<g id="node32" class="node">
<title>Node32</title>
<g id="a_node32"><a xlink:href="node__to__node_8h.html" target="_top" xlink:title=" ">
<polygon fill="white" stroke="#666666" points="1098.84,-519.5 960.84,-519.5 960.84,-500.5 1098.84,-500.5 1098.84,-519.5"/>
<text text-anchor="middle" x="1029.84" y="-507.5" font-family="Helvetica,sans-Serif" font-size="10.00">src/node/node_to_node.h</text>
</a>
</g>
</g>
<!-- Node2&#45;&gt;Node32 -->
<g id="edge59" class="edge">
<title>Node2&#45;&gt;Node32</title>
<path fill="none" stroke="#63b8ff" d="M535.07,-561.34C648.38,-549.81 853.39,-528.95 960.48,-518.06"/>
<polygon fill="#63b8ff" stroke="#63b8ff" points="534.66,-557.86 525.06,-562.36 535.37,-564.83 534.66,-557.86"/>
</g>
<!-- Node4 -->
<g id="node4" class="node">
<title>Node4</title>
<g id="a_node4"><a xlink:href="request__message_8h.html" target="_top" xlink:title=" ">
<polygon fill="white" stroke="#666666" points="790.34,-459 665.34,-459 665.34,-429 790.34,-429 790.34,-459"/>
<text text-anchor="start" x="673.34" y="-447" font-family="Helvetica,sans-Serif" font-size="10.00">src/consensus/aft/impl</text>
<text text-anchor="middle" x="727.84" y="-436" font-family="Helvetica,sans-Serif" font-size="10.00">/request_message.h</text>
</a>
</g>
</g>
<!-- Node3&#45;&gt;Node4 -->
<g id="edge3" class="edge">
<title>Node3&#45;&gt;Node4</title>
<path fill="none" stroke="#63b8ff" d="M595.35,-491.59C624.45,-481.36 660.75,-468.59 688,-459.01"/>
<polygon fill="#63b8ff" stroke="#63b8ff" points="594.06,-488.34 585.79,-494.95 596.38,-494.94 594.06,-488.34"/>
</g>
<!-- Node5 -->
<g id="node5" class="node">
<title>Node5</title>
<g id="a_node5"><a xlink:href="state_8h.html" target="_top" xlink:title=" ">
<polygon fill="white" stroke="#666666" points="482.34,-393 357.34,-393 357.34,-363 482.34,-363 482.34,-393"/>
<text text-anchor="start" x="365.34" y="-381" font-family="Helvetica,sans-Serif" font-size="10.00">src/consensus/aft/impl</text>
<text text-anchor="middle" x="419.84" y="-370" font-family="Helvetica,sans-Serif" font-size="10.00">/state.h</text>
</a>
</g>
</g>
<!-- Node3&#45;&gt;Node5 -->
<g id="edge4" class="edge">
<title>Node3&#45;&gt;Node5</title>
<path fill="none" stroke="#63b8ff" d="M512.19,-489.35C499.37,-480.95 485.14,-470.44 473.84,-459 453.84,-438.72 436.59,-410.1 427.26,-393.15"/>
<polygon fill="#63b8ff" stroke="#63b8ff" points="510.47,-492.41 520.79,-494.82 514.22,-486.5 510.47,-492.41"/>
</g>
<!-- Node6 -->
<g id="node6" class="node">
<title>Node6</title>
<g id="a_node6"><a xlink:href="raft_8h.html" target="_top" xlink:title=" ">
<polygon fill="white" stroke="#666666" points="740.34,-321.5 611.34,-321.5 611.34,-302.5 740.34,-302.5 740.34,-321.5"/>
<text text-anchor="middle" x="675.84" y="-309.5" font-family="Helvetica,sans-Serif" font-size="10.00">src/consensus/aft/raft.h</text>
</a>
</g>
</g>
<!-- Node3&#45;&gt;Node6 -->
<g id="edge13" class="edge">
<title>Node3&#45;&gt;Node6</title>
<path fill="none" stroke="#63b8ff" d="M579.53,-489.39C592.36,-480.99 606.59,-470.47 617.84,-459 642.54,-433.84 648.75,-425.73 661.84,-393 671.69,-368.39 674.63,-336.78 675.49,-321.73"/>
<polygon fill="#63b8ff" stroke="#63b8ff" points="577.5,-486.53 570.93,-494.85 581.25,-492.45 577.5,-486.53"/>
</g>
<!-- Node12 -->
<g id="node12" class="node">
<title>Node12</title>
<g id="a_node12"><a xlink:href="node__connections_8h.html" target="_top" xlink:title=" ">
<polygon fill="white" stroke="#666666" points="963.34,-453.5 808.34,-453.5 808.34,-434.5 963.34,-434.5 963.34,-453.5"/>
<text text-anchor="middle" x="885.84" y="-441.5" font-family="Helvetica,sans-Serif" font-size="10.00">src/host/node_connections.h</text>
</a>
</g>
</g>
<!-- Node3&#45;&gt;Node12 -->
<g id="edge14" class="edge">
<title>Node3&#45;&gt;Node12</title>
<path fill="none" stroke="#63b8ff" d="M615.95,-495.8C683.31,-483.12 783.08,-464.34 840.56,-453.52"/>
<polygon fill="#63b8ff" stroke="#63b8ff" points="615.03,-492.42 605.85,-497.71 616.32,-499.3 615.03,-492.42"/>
</g>
<!-- Node14 -->
<g id="node14" class="node">
<title>Node14</title>
<g id="a_node14"><a xlink:href="node__client_8h.html" target="_top" xlink:title=" ">
<polygon fill="white" stroke="#666666" points="608.84,-453.5 482.84,-453.5 482.84,-434.5 608.84,-434.5 608.84,-453.5"/>
<text text-anchor="middle" x="545.84" y="-441.5" font-family="Helvetica,sans-Serif" font-size="10.00">src/node/node_client.h</text>
</a>
</g>
</g>
<!-- Node3&#45;&gt;Node14 -->
<g id="edge16" class="edge">
<title>Node3&#45;&gt;Node14</title>
<path fill="none" stroke="#63b8ff" d="M545.84,-484.6C545.84,-473.8 545.84,-461.78 545.84,-453.84"/>
<polygon fill="#63b8ff" stroke="#63b8ff" points="542.34,-484.8 545.84,-494.8 549.34,-484.8 542.34,-484.8"/>
</g>
<!-- Node20 -->
<g id="node20" class="node">
<title>Node20</title>
<g id="a_node20"><a xlink:href="resharing__tracker_8h.html" target="_top" xlink:title=" ">
<polygon fill="white" stroke="#666666" points="339.34,-393 232.34,-393 232.34,-363 339.34,-363 339.34,-393"/>
<text text-anchor="start" x="240.34" y="-381" font-family="Helvetica,sans-Serif" font-size="10.00">src/node/resharing</text>
<text text-anchor="middle" x="285.84" y="-370" font-family="Helvetica,sans-Serif" font-size="10.00">_tracker.h</text>
</a>
</g>
</g>
<!-- Node3&#45;&gt;Node20 -->
<g id="edge28" class="edge">
<title>Node3&#45;&gt;Node20</title>
<path fill="none" stroke="#63b8ff" d="M507.52,-490.46C489.02,-481.3 466.6,-469.9 446.84,-459 424.15,-446.48 419.81,-441.01 396.84,-429 371.56,-415.78 342.07,-402.6 319.85,-393.09"/>
<polygon fill="#63b8ff" stroke="#63b8ff" points="506.01,-493.61 516.53,-494.89 509.1,-487.33 506.01,-493.61"/>
</g>
<!-- Node5&#45;&gt;Node6 -->
<g id="edge5" class="edge">
<title>Node5&#45;&gt;Node6</title>
<path fill="none" stroke="#63b8ff" d="M485.76,-360.52C535.64,-348.05 602.1,-331.44 641.78,-321.52"/>
<polygon fill="#63b8ff" stroke="#63b8ff" points="484.88,-357.13 476.02,-362.95 486.58,-363.92 484.88,-357.13"/>
</g>
<!-- Node11 -->
<g id="node11" class="node">
<title>Node11</title>
<g id="a_node11"><a xlink:href="resharing_8h.html" target="_top" xlink:title=" ">
<polygon fill="white" stroke="#666666" points="418.84,-321.5 302.84,-321.5 302.84,-302.5 418.84,-302.5 418.84,-321.5"/>
<text text-anchor="middle" x="360.84" y="-309.5" font-family="Helvetica,sans-Serif" font-size="10.00">src/node/resharing.h</text>
</a>
</g>
</g>
<!-- Node5&#45;&gt;Node11 -->
<g id="edge11" class="edge">
<title>Node5&#45;&gt;Node11</title>
<path fill="none" stroke="#63b8ff" d="M399.82,-355.27C389.27,-343.84 376.92,-330.44 369,-321.84"/>
<polygon fill="#63b8ff" stroke="#63b8ff" points="397.4,-357.82 406.75,-362.8 402.55,-353.07 397.4,-357.82"/>
</g>
<!-- Node7 -->
<g id="node7" class="node">
<title>Node7</title>
<g id="a_node7"><a xlink:href="node__state_8h.html" target="_top" xlink:title=" ">
<polygon fill="white" stroke="#666666" points="781.84,-189.5 657.84,-189.5 657.84,-170.5 781.84,-170.5 781.84,-189.5"/>
<text text-anchor="middle" x="719.84" y="-177.5" font-family="Helvetica,sans-Serif" font-size="10.00">src/node/node_state.h</text>
</a>
</g>
</g>
<!-- Node6&#45;&gt;Node7 -->
<g id="edge6" class="edge">
<title>Node6&#45;&gt;Node7</title>
<path fill="none" stroke="#63b8ff" d="M681.94,-292.99C691.53,-264.67 709.77,-210.78 716.89,-189.73"/>
<polygon fill="#63b8ff" stroke="#63b8ff" points="678.62,-291.88 678.73,-302.47 685.25,-294.12 678.62,-291.88"/>
</g>
<!-- Node8 -->
<g id="node8" class="node">
<title>Node8</title>
<g id="a_node8"><a xlink:href="src_2enclave_2enclave_8h.html" target="_top" xlink:title=" ">
<polygon fill="white" stroke="#666666" points="1128.84,-74 1006.84,-74 1006.84,-55 1128.84,-55 1128.84,-74"/>
<text text-anchor="middle" x="1067.84" y="-62" font-family="Helvetica,sans-Serif" font-size="10.00">src/enclave/enclave.h</text>
</a>
</g>
</g>
<!-- Node7&#45;&gt;Node8 -->
<g id="edge7" class="edge">
<title>Node7&#45;&gt;Node8</title>
<path fill="none" stroke="#63b8ff" d="M755.72,-167.3C825.84,-144.43 979.61,-94.28 1041.38,-74.13"/>
<polygon fill="#63b8ff" stroke="#63b8ff" points="754.42,-164.04 746,-170.47 756.59,-170.7 754.42,-164.04"/>
</g>
<!-- Node10 -->
<g id="node10" class="node">
<title>Node10</title>
<g id="a_node10"><a xlink:href="gov__effects_8h.html" target="_top" xlink:title=" ">
<polygon fill="white" stroke="#666666" points="839.84,-129 695.84,-129 695.84,-110 839.84,-110 839.84,-129"/>
<text text-anchor="middle" x="767.84" y="-117" font-family="Helvetica,sans-Serif" font-size="10.00">src/node/rpc/gov_effects.h</text>
</a>
</g>
</g>
<!-- Node7&#45;&gt;Node10 -->
<g id="edge9" class="edge">
<title>Node7&#45;&gt;Node10</title>
<path fill="none" stroke="#63b8ff" d="M733.42,-162.45C742.31,-151.62 753.56,-137.91 760.73,-129.17"/>
<polygon fill="#63b8ff" stroke="#63b8ff" points="730.56,-160.42 726.93,-170.37 735.98,-164.86 730.56,-160.42"/>
</g>
<!-- Node9 -->
<g id="node9" class="node">
<title>Node9</title>
<g id="a_node9"><a xlink:href="enclave_2main_8cpp.html" target="_top" xlink:title=" ">
<polygon fill="white" stroke="#666666" points="1127.84,-19 1007.84,-19 1007.84,0 1127.84,0 1127.84,-19"/>
<text text-anchor="middle" x="1067.84" y="-7" font-family="Helvetica,sans-Serif" font-size="10.00">src/enclave/main.cpp</text>
</a>
</g>
</g>
<!-- Node8&#45;&gt;Node9 -->
<g id="edge8" class="edge">
<title>Node8&#45;&gt;Node9</title>
<path fill="none" stroke="#63b8ff" d="M1067.84,-44.66C1067.84,-35.93 1067.84,-25.99 1067.84,-19.09"/>
<polygon fill="#63b8ff" stroke="#63b8ff" points="1064.34,-44.75 1067.84,-54.75 1071.34,-44.75 1064.34,-44.75"/>
</g>
<!-- Node10&#45;&gt;Node8 -->
<g id="edge10" class="edge">
<title>Node10&#45;&gt;Node8</title>
<path fill="none" stroke="#63b8ff" d="M826.21,-108.19C882.45,-98.25 966.57,-83.39 1019.27,-74.08"/>
<polygon fill="#63b8ff" stroke="#63b8ff" points="825.28,-104.8 816.04,-109.98 826.5,-111.69 825.28,-104.8"/>
</g>
<!-- Node11&#45;&gt;Node7 -->
<g id="edge12" class="edge">
<title>Node11&#45;&gt;Node7</title>
<path fill="none" stroke="#63b8ff" d="M429.15,-310.76C489.03,-307.88 576.74,-297.05 643.84,-261 676.58,-243.41 703.35,-206.54 714.39,-189.71"/>
<polygon fill="#63b8ff" stroke="#63b8ff" points="428.89,-307.26 419.05,-311.18 429.18,-314.26 428.89,-307.26"/>
</g>
<!-- Node13 -->
<g id="node13" class="node">
<title>Node13</title>
<g id="a_node13"><a xlink:href="host_2main_8cpp.html" target="_top" xlink:title=" ">
<polygon fill="white" stroke="#666666" points="963.34,-387.5 860.34,-387.5 860.34,-368.5 963.34,-368.5 963.34,-387.5"/>
<text text-anchor="middle" x="911.84" y="-375.5" font-family="Helvetica,sans-Serif" font-size="10.00">src/host/main.cpp</text>
</a>
</g>
</g>
<!-- Node12&#45;&gt;Node13 -->
<g id="edge15" class="edge">
<title>Node12&#45;&gt;Node13</title>
<path fill="none" stroke="#63b8ff" d="M893.23,-424.82C898.14,-412.74 904.36,-397.41 908.23,-387.91"/>
<polygon fill="#63b8ff" stroke="#63b8ff" points="889.87,-423.79 889.35,-434.37 896.36,-426.42 889.87,-423.79"/>
</g>
<!-- Node14&#45;&gt;Node6 -->
<g id="edge23" class="edge">
<title>Node14&#45;&gt;Node6</title>
<path fill="none" stroke="#63b8ff" d="M580.34,-430.45C599.25,-422.18 621.98,-409.75 637.84,-393 658.04,-371.68 669.25,-337.64 673.64,-321.73"/>
<polygon fill="#63b8ff" stroke="#63b8ff" points="578.75,-427.33 570.86,-434.4 581.44,-433.79 578.75,-427.33"/>
</g>
<!-- Node15 -->
<g id="node15" class="node">
<title>Node15</title>
<g id="a_node15"><a xlink:href="orc__requests_8h.html" target="_top" xlink:title=" ">
<polygon fill="white" stroke="#666666" points="842.34,-393 723.34,-393 723.34,-363 842.34,-363 842.34,-393"/>
<text text-anchor="start" x="731.34" y="-381" font-family="Helvetica,sans-Serif" font-size="10.00">src/consensus/aft/orc</text>
<text text-anchor="middle" x="782.84" y="-370" font-family="Helvetica,sans-Serif" font-size="10.00">_requests.h</text>
</a>
</g>
</g>
<!-- Node14&#45;&gt;Node15 -->
<g id="edge17" class="edge">
<title>Node14&#45;&gt;Node15</title>
<path fill="none" stroke="#63b8ff" d="M587.47,-431.76C627.31,-421 687.53,-404.74 730.57,-393.12"/>
<polygon fill="#63b8ff" stroke="#63b8ff" points="586.55,-428.38 577.81,-434.37 588.37,-435.14 586.55,-428.38"/>
</g>
<!-- Node18 -->
<g id="node18" class="node">
<title>Node18</title>
<g id="a_node18"><a xlink:href="http__node__client_8h.html" target="_top" xlink:title=" ">
<polygon fill="white" stroke="#666666" points="456.84,-261 346.84,-261 346.84,-231 456.84,-231 456.84,-261"/>
<text text-anchor="start" x="354.84" y="-249" font-family="Helvetica,sans-Serif" font-size="10.00">src/node/http_node</text>
<text text-anchor="middle" x="401.84" y="-238" font-family="Helvetica,sans-Serif" font-size="10.00">_client.h</text>
</a>
</g>
</g>
<!-- Node14&#45;&gt;Node18 -->
<g id="edge24" class="edge">
<title>Node14&#45;&gt;Node18</title>
<path fill="none" stroke="#63b8ff" d="M472.29,-436.64C382.03,-428.07 238.89,-411.72 222.84,-393 174.3,-336.37 290.79,-284.96 358.12,-261.08"/>
<polygon fill="#63b8ff" stroke="#63b8ff" points="472.2,-440.14 482.48,-437.59 472.85,-433.17 472.2,-440.14"/>
</g>
<!-- Node19 -->
<g id="node19" class="node">
<title>Node19</title>
<g id="a_node19"><a xlink:href="retired__nodes__cleanup_8h.html" target="_top" xlink:title=" ">
<polygon fill="white" stroke="#666666" points="628.84,-393 500.84,-393 500.84,-363 628.84,-363 628.84,-393"/>
<text text-anchor="start" x="508.84" y="-381" font-family="Helvetica,sans-Serif" font-size="10.00">src/node/retired_nodes</text>
<text text-anchor="middle" x="564.84" y="-370" font-family="Helvetica,sans-Serif" font-size="10.00">_cleanup.h</text>
</a>
</g>
</g>
<!-- Node14&#45;&gt;Node19 -->
<g id="edge26" class="edge">
<title>Node14&#45;&gt;Node19</title>
<path fill="none" stroke="#63b8ff" d="M551.29,-424.67C554.24,-414.72 557.83,-402.61 560.58,-393.36"/>
<polygon fill="#63b8ff" stroke="#63b8ff" points="547.9,-423.79 548.41,-434.37 554.61,-425.78 547.9,-423.79"/>
</g>
<!-- Node15&#45;&gt;Node6 -->
<g id="edge18" class="edge">
<title>Node15&#45;&gt;Node6</title>
<path fill="none" stroke="#63b8ff" d="M750.76,-357.81C730.57,-345.73 705.49,-330.73 690.08,-321.52"/>
<polygon fill="#63b8ff" stroke="#63b8ff" points="748.98,-360.83 759.36,-362.95 752.58,-354.82 748.98,-360.83"/>
</g>
<!-- Node16 -->
<g id="node16" class="node">
<title>Node16</title>
<g id="a_node16"><a xlink:href="node__frontend_8h.html" target="_top" xlink:title=" ">
<polygon fill="white" stroke="#666666" points="1077.84,-321.5 919.84,-321.5 919.84,-302.5 1077.84,-302.5 1077.84,-321.5"/>
<text text-anchor="middle" x="998.84" y="-309.5" font-family="Helvetica,sans-Serif" font-size="10.00">src/node/rpc/node_frontend.h</text>
</a>
</g>
</g>
<!-- Node15&#45;&gt;Node16 -->
<g id="edge19" class="edge">
<title>Node15&#45;&gt;Node16</title>
<path fill="none" stroke="#63b8ff" d="M840.05,-360.05C881.94,-347.64 937.04,-331.31 970.1,-321.52"/>
<polygon fill="#63b8ff" stroke="#63b8ff" points="838.84,-356.76 830.25,-362.95 840.83,-363.47 838.84,-356.76"/>
</g>
<!-- Node16&#45;&gt;Node8 -->
<g id="edge20" class="edge">
<title>Node16&#45;&gt;Node8</title>
<path fill="none" stroke="#63b8ff" d="M1019.66,-295.95C1030.28,-287.06 1042.31,-274.84 1048.84,-261 1080,-195.01 1072.35,-102.73 1068.99,-74.23"/>
<polygon fill="#63b8ff" stroke="#63b8ff" points="1017.25,-293.39 1011.58,-302.34 1021.59,-298.89 1017.25,-293.39"/>
</g>
<!-- Node17 -->
<g id="node17" class="node">
<title>Node17</title>
<g id="a_node17"><a xlink:href="jwt__key__auto__refresh_8h.html" target="_top" xlink:title=" ">
<polygon fill="white" stroke="#666666" points="1039.34,-261 914.34,-261 914.34,-231 1039.34,-231 1039.34,-261"/>
<text text-anchor="start" x="922.34" y="-249" font-family="Helvetica,sans-Serif" font-size="10.00">src/node/jwt_key_auto</text>
<text text-anchor="middle" x="976.84" y="-238" font-family="Helvetica,sans-Serif" font-size="10.00">_refresh.h</text>
</a>
</g>
</g>
<!-- Node16&#45;&gt;Node17 -->
<g id="edge21" class="edge">
<title>Node16&#45;&gt;Node17</title>
<path fill="none" stroke="#63b8ff" d="M992.54,-292.67C989.12,-282.72 984.96,-270.61 981.78,-261.36"/>
<polygon fill="#63b8ff" stroke="#63b8ff" points="989.32,-294.05 995.88,-302.37 995.94,-291.77 989.32,-294.05"/>
</g>
<!-- Node17&#45;&gt;Node7 -->
<g id="edge22" class="edge">
<title>Node17&#45;&gt;Node7</title>
<path fill="none" stroke="#63b8ff" d="M910.67,-228.52C860.6,-216.05 793.88,-199.44 754.05,-189.52"/>
<polygon fill="#63b8ff" stroke="#63b8ff" points="909.9,-231.93 920.44,-230.95 911.59,-225.14 909.9,-231.93"/>
</g>
<!-- Node18&#45;&gt;Node7 -->
<g id="edge25" class="edge">
<title>Node18&#45;&gt;Node7</title>
<path fill="none" stroke="#63b8ff" d="M466.69,-231.95C529.57,-219.29 623.17,-200.46 677.18,-189.59"/>
<polygon fill="#63b8ff" stroke="#63b8ff" points="465.99,-228.52 456.87,-233.93 467.37,-235.38 465.99,-228.52"/>
</g>
<!-- Node19&#45;&gt;Node6 -->
<g id="edge27" class="edge">
<title>Node19&#45;&gt;Node6</title>
<path fill="none" stroke="#63b8ff" d="M598.12,-357.81C619.08,-345.73 645.09,-330.73 661.07,-321.52"/>
<polygon fill="#63b8ff" stroke="#63b8ff" points="596.12,-354.93 589.2,-362.95 599.62,-360.99 596.12,-354.93"/>
</g>
<!-- Node20&#45;&gt;Node6 -->
<g id="edge29" class="edge">
<title>Node20&#45;&gt;Node6</title>
<path fill="none" stroke="#63b8ff" d="M349.47,-362.76C445.83,-344.8 547.08,-330.2 611.2,-321.48"/>
<polygon fill="#63b8ff" stroke="#63b8ff" points="348.75,-359.34 339.56,-364.63 350.04,-366.22 348.75,-359.34"/>
</g>
<!-- Node20&#45;&gt;Node11 -->
<g id="edge30" class="edge">
<title>Node20&#45;&gt;Node11</title>
<path fill="none" stroke="#63b8ff" d="M310.15,-356.26C323.8,-344.61 340.12,-330.69 350.48,-321.84"/>
<polygon fill="#63b8ff" stroke="#63b8ff" points="307.82,-353.64 302.49,-362.8 312.37,-358.97 307.82,-353.64"/>
</g>
<!-- Node21&#45;&gt;Node8 -->
<g id="edge32" class="edge">
<title>Node21&#45;&gt;Node8</title>
<path fill="none" stroke="#63b8ff" d="M329.1,-496.96C304.99,-487.96 272.53,-474.57 245.84,-459 226.96,-447.98 226.78,-437.99 206.84,-429 130.08,-394.4 81.62,-451.28 20.84,-393 -5.53,-367.71 1.84,-349.54 1.84,-313 1.84,-313 1.84,-313 1.84,-179 1.84,-107.63 77.63,-127.4 146.84,-110 310.35,-68.91 828.25,-65.31 1006.71,-65.33"/>
<polygon fill="#63b8ff" stroke="#63b8ff" points="327.96,-500.27 338.56,-500.42 330.37,-493.69 327.96,-500.27"/>
</g>
<!-- Node21&#45;&gt;Node14 -->
<g id="edge44" class="edge">
<title>Node21&#45;&gt;Node14</title>
<path fill="none" stroke="#63b8ff" d="M397.97,-497C433.91,-484.36 489.61,-464.78 521.4,-453.6"/>
<polygon fill="#63b8ff" stroke="#63b8ff" points="396.66,-493.75 388.39,-500.37 398.98,-500.35 396.66,-493.75"/>
</g>
<!-- Node22 -->
<g id="node22" class="node">
<title>Node22</title>
<g id="a_node22"><a xlink:href="http2__session_8h.html" target="_top" xlink:title=" ">
<polygon fill="white" stroke="#666666" points="388.34,-453.5 255.34,-453.5 255.34,-434.5 388.34,-434.5 388.34,-453.5"/>
<text text-anchor="middle" x="321.84" y="-441.5" font-family="Helvetica,sans-Serif" font-size="10.00">src/http/http2_session.h</text>
</a>
</g>
</g>
<!-- Node21&#45;&gt;Node22 -->
<g id="edge33" class="edge">
<title>Node21&#45;&gt;Node22</title>
<path fill="none" stroke="#63b8ff" d="M352.63,-491.91C344.6,-479.68 334.12,-463.7 327.69,-453.91"/>
<polygon fill="#63b8ff" stroke="#63b8ff" points="349.77,-493.93 358.18,-500.37 355.62,-490.09 349.77,-493.93"/>
</g>
<!-- Node21&#45;&gt;Node26 -->
<g id="edge42" class="edge">
<title>Node21&#45;&gt;Node26</title>
<path fill="none" stroke="#63b8ff" d="M323.21,-497.64C278.09,-485.03 206.29,-464.97 165.6,-453.6"/>
<polygon fill="#63b8ff" stroke="#63b8ff" points="322.39,-501.05 332.96,-500.37 324.27,-494.31 322.39,-501.05"/>
</g>
<!-- Node21&#45;&gt;Node27 -->
<g id="edge45" class="edge">
<title>Node21&#45;&gt;Node27</title>
<path fill="none" stroke="#63b8ff" d="M437.13,-499.37C450.33,-497.79 463.99,-496.26 476.84,-495 696.81,-473.41 752.41,-475.12 972.84,-459 1013.58,-456.02 1059.24,-452.66 1095.58,-449.97"/>
<polygon fill="#63b8ff" stroke="#63b8ff" points="436.64,-495.9 427.13,-500.58 437.48,-502.85 436.64,-495.9"/>
</g>
<!-- Node22&#45;&gt;Node23 -->
<g id="edge34" class="edge">
<title>Node22&#45;&gt;Node23</title>
<path fill="none" stroke="#63b8ff" d="M282.71,-431.56C239.55,-418.95 171.09,-398.94 132.26,-387.6"/>
<polygon fill="#63b8ff" stroke="#63b8ff" points="281.73,-434.92 292.31,-434.37 283.69,-428.2 281.73,-434.92"/>
</g>
<!-- Node23&#45;&gt;Node7 -->
<g id="edge38" class="edge">
<title>Node23&#45;&gt;Node7</title>
<path fill="none" stroke="#63b8ff" d="M100.51,-358.35C97.73,-326.82 97.34,-263.23 133.84,-231 172.5,-196.87 515.01,-185.47 657.78,-182.18"/>
<polygon fill="#63b8ff" stroke="#63b8ff" points="97.04,-358.83 101.58,-368.41 104,-358.09 97.04,-358.83"/>
</g>
<!-- Node23&#45;&gt;Node8 -->
<g id="edge35" class="edge">
<title>Node23&#45;&gt;Node8</title>
<path fill="none" stroke="#63b8ff" d="M94.17,-359.29C82.96,-334.7 64.84,-288.56 64.84,-247 64.84,-247 64.84,-247 64.84,-179 64.84,-83.71 788.85,-68.41 1006.61,-65.96"/>
<polygon fill="#63b8ff" stroke="#63b8ff" points="91.05,-360.88 98.49,-368.43 97.38,-357.89 91.05,-360.88"/>
</g>
<!-- Node23&#45;&gt;Node11 -->
<g id="edge41" class="edge">
<title>Node23&#45;&gt;Node11</title>
<path fill="none" stroke="#63b8ff" d="M147.1,-366.02C197.94,-353.41 280.29,-332.98 326.52,-321.51"/>
<polygon fill="#63b8ff" stroke="#63b8ff" points="146.23,-362.63 137.37,-368.44 147.92,-369.42 146.23,-362.63"/>
</g>
<!-- Node24 -->
<g id="node24" class="node">
<title>Node24</title>
<g id="a_node24"><a xlink:href="ccf__acme__client_8h.html" target="_top" xlink:title=" ">
<polygon fill="white" stroke="#666666" points="635.34,-255.5 486.34,-255.5 486.34,-236.5 635.34,-236.5 635.34,-255.5"/>
<text text-anchor="middle" x="560.84" y="-243.5" font-family="Helvetica,sans-Serif" font-size="10.00">src/node/ccf_acme_client.h</text>
</a>
</g>
</g>
<!-- Node23&#45;&gt;Node24 -->
<g id="edge36" class="edge">
<title>Node23&#45;&gt;Node24</title>
<path fill="none" stroke="#63b8ff" d="M129.13,-363.89C165.36,-346.3 233.09,-315.19 293.84,-297 333.09,-285.25 442.06,-266.42 508.02,-255.53"/>
<polygon fill="#63b8ff" stroke="#63b8ff" points="127.22,-360.92 119.78,-368.47 130.3,-367.21 127.22,-360.92"/>
</g>
<!-- Node25 -->
<g id="node25" class="node">
<title>Node25</title>
<g id="a_node25"><a xlink:href="quote__endorsements__client_8h.html" target="_top" xlink:title=" ">
<polygon fill="white" stroke="#666666" points="306.84,-261 142.84,-261 142.84,-231 306.84,-231 306.84,-261"/>
<text text-anchor="start" x="150.84" y="-249" font-family="Helvetica,sans-Serif" font-size="10.00">src/node/quote_endorsements</text>
<text text-anchor="middle" x="224.84" y="-238" font-family="Helvetica,sans-Serif" font-size="10.00">_client.h</text>
</a>
</g>
</g>
<!-- Node23&#45;&gt;Node25 -->
<g id="edge39" class="edge">
<title>Node23&#45;&gt;Node25</title>
<path fill="none" stroke="#63b8ff" d="M114.53,-359.79C126.31,-342.97 145.49,-317.06 164.84,-297 177.56,-283.83 193.55,-270.64 205.82,-261.12"/>
<polygon fill="#63b8ff" stroke="#63b8ff" points="111.59,-357.88 108.79,-368.1 117.35,-361.86 111.59,-357.88"/>
</g>
<!-- Node24&#45;&gt;Node7 -->
<g id="edge37" class="edge">
<title>Node24&#45;&gt;Node7</title>
<path fill="none" stroke="#63b8ff" d="M591.87,-232.51C623.3,-219.86 671.07,-200.63 698.49,-189.6"/>
<polygon fill="#63b8ff" stroke="#63b8ff" points="590.26,-229.39 582.29,-236.37 592.87,-235.88 590.26,-229.39"/>
</g>
<!-- Node25&#45;&gt;Node7 -->
<g id="edge40" class="edge">
<title>Node25&#45;&gt;Node7</title>
<path fill="none" stroke="#63b8ff" d="M316.9,-233.1C416.26,-220.25 571.8,-200.14 657.67,-189.04"/>
<polygon fill="#63b8ff" stroke="#63b8ff" points="316.33,-229.64 306.86,-234.4 317.23,-236.58 316.33,-229.64"/>
</g>
<!-- Node26&#45;&gt;Node23 -->
<g id="edge43" class="edge">
<title>Node26&#45;&gt;Node23</title>
<path fill="none" stroke="#63b8ff" d="M125.94,-425.18C119.87,-413.05 112.1,-397.51 107.3,-387.91"/>
<polygon fill="#63b8ff" stroke="#63b8ff" points="122.93,-426.99 130.53,-434.37 129.19,-423.86 122.93,-426.99"/>
</g>
<!-- Node27&#45;&gt;Node8 -->
<g id="edge46" class="edge">
<title>Node27&#45;&gt;Node8</title>
<path fill="none" stroke="#63b8ff" d="M1150.04,-426.14C1133.23,-402.3 1105.84,-356.73 1105.84,-313 1105.84,-313 1105.84,-313 1105.84,-179 1105.84,-137.86 1083.11,-92.46 1072.81,-74"/>
<polygon fill="#63b8ff" stroke="#63b8ff" points="1147.36,-428.42 1156.08,-434.44 1153.02,-424.29 1147.36,-428.42"/>
</g>
<!-- Node27&#45;&gt;Node28 -->
<g id="edge47" class="edge">
<title>Node27&#45;&gt;Node28</title>
<path fill="none" stroke="#63b8ff" d="M1184.1,-428.68C1202.77,-416.11 1229.3,-398.23 1244.93,-387.7"/>
<polygon fill="#63b8ff" stroke="#63b8ff" points="1181.99,-425.88 1175.66,-434.37 1185.91,-431.68 1181.99,-425.88"/>
</g>
<!-- Node28&#45;&gt;Node7 -->
<g id="edge51" class="edge">
<title>Node28&#45;&gt;Node7</title>
<path fill="none" stroke="#63b8ff" d="M1271.09,-360.37C1283.17,-343.06 1297.13,-315.87 1282.84,-297 1222.88,-217.78 915.57,-191.62 781.98,-183.9"/>
<polygon fill="#63b8ff" stroke="#63b8ff" points="1268.26,-358.32 1265.11,-368.43 1273.88,-362.49 1268.26,-358.32"/>
</g>
<!-- Node28&#45;&gt;Node16 -->
<g id="edge54" class="edge">
<title>Node28&#45;&gt;Node16</title>
<path fill="none" stroke="#63b8ff" d="M1213.42,-366.02C1162.38,-353.41 1079.72,-332.98 1033.3,-321.51"/>
<polygon fill="#63b8ff" stroke="#63b8ff" points="1212.64,-369.43 1223.18,-368.44 1214.31,-362.64 1212.64,-369.43"/>
</g>
<!-- Node29 -->
<g id="node29" class="node">
<title>Node29</title>
<g id="a_node29"><a xlink:href="acme__challenge__frontend_8h.html" target="_top" xlink:title=" ">
<polygon fill="white" stroke="#666666" points="1273.84,-327 1133.84,-327 1133.84,-297 1273.84,-297 1273.84,-327"/>
<text text-anchor="start" x="1141.84" y="-315" font-family="Helvetica,sans-Serif" font-size="10.00">src/node/acme_challenge</text>
<text text-anchor="middle" x="1203.84" y="-304" font-family="Helvetica,sans-Serif" font-size="10.00">_frontend.h</text>
</a>
</g>
</g>
<!-- Node28&#45;&gt;Node29 -->
<g id="edge48" class="edge">
<title>Node28&#45;&gt;Node29</title>
<path fill="none" stroke="#63b8ff" d="M1243.96,-360.54C1235.3,-350.28 1224.26,-337.2 1215.96,-327.36"/>
<polygon fill="#63b8ff" stroke="#63b8ff" points="1241.44,-362.98 1250.56,-368.37 1246.79,-358.47 1241.44,-362.98"/>
</g>
<!-- Node30 -->
<g id="node30" class="node">
<title>Node30</title>
<g id="a_node30"><a xlink:href="member__frontend_8h.html" target="_top" xlink:title=" ">
<polygon fill="white" stroke="#666666" points="1340.84,-195 1220.84,-195 1220.84,-165 1340.84,-165 1340.84,-195"/>
<text text-anchor="start" x="1228.84" y="-183" font-family="Helvetica,sans-Serif" font-size="10.00">src/node/rpc/member</text>
<text text-anchor="middle" x="1280.84" y="-172" font-family="Helvetica,sans-Serif" font-size="10.00">_frontend.h</text>
</a>
</g>
</g>
<!-- Node28&#45;&gt;Node30 -->
<g id="edge52" class="edge">
<title>Node28&#45;&gt;Node30</title>
<path fill="none" stroke="#63b8ff" d="M1282.75,-362.77C1295.17,-354.17 1308.98,-341.98 1315.84,-327 1333.62,-288.21 1328.67,-271.69 1315.84,-231 1311.58,-217.46 1302.19,-204.39 1294.21,-195.02"/>
<polygon fill="#63b8ff" stroke="#63b8ff" points="1280.57,-360.01 1274.07,-368.38 1284.37,-365.89 1280.57,-360.01"/>
</g>
<!-- Node31 -->
<g id="node31" class="node">
<title>Node31</title>
<g id="a_node31"><a xlink:href="user__frontend_8h.html" target="_top" xlink:title=" ">
<polygon fill="white" stroke="#666666" points="1440.34,-129 1285.34,-129 1285.34,-110 1440.34,-110 1440.34,-129"/>
<text text-anchor="middle" x="1362.84" y="-117" font-family="Helvetica,sans-Serif" font-size="10.00">src/node/rpc/user_frontend.h</text>
</a>
</g>
</g>
<!-- Node28&#45;&gt;Node31 -->
<g id="edge55" class="edge">
<title>Node28&#45;&gt;Node31</title>
<path fill="none" stroke="#63b8ff" d="M1289.82,-364.09C1305.95,-355.89 1324.29,-343.66 1334.84,-327 1376.67,-260.99 1367.85,-159.36 1364.07,-129.21"/>
<polygon fill="#63b8ff" stroke="#63b8ff" points="1288.18,-360.99 1280.65,-368.45 1291.19,-367.31 1288.18,-360.99"/>
</g>
<!-- Node29&#45;&gt;Node8 -->
<g id="edge49" class="edge">
<title>Node29&#45;&gt;Node8</title>
<path fill="none" stroke="#63b8ff" d="M1197.8,-287.15C1186.95,-247.56 1161.35,-166.99 1119.84,-110 1109.07,-95.21 1092.44,-82.11 1080.9,-74.02"/>
<polygon fill="#63b8ff" stroke="#63b8ff" points="1194.45,-288.2 1200.41,-296.96 1201.22,-286.39 1194.45,-288.2"/>
</g>
<!-- Node29&#45;&gt;Node24 -->
<g id="edge50" class="edge">
<title>Node29&#45;&gt;Node24</title>
<path fill="none" stroke="#63b8ff" d="M1123.44,-301.12C1111.19,-299.69 1098.68,-298.27 1086.84,-297 926.09,-279.74 737.36,-262.55 635.38,-253.51"/>
<polygon fill="#63b8ff" stroke="#63b8ff" points="1123.31,-304.63 1133.65,-302.32 1124.13,-297.68 1123.31,-304.63"/>
</g>
<!-- Node30&#45;&gt;Node8 -->
<g id="edge53" class="edge">
<title>Node30&#45;&gt;Node8</title>
<path fill="none" stroke="#63b8ff" d="M1256.65,-158.34C1238.37,-143.46 1212.17,-123.69 1186.84,-110 1157.93,-94.37 1122.36,-81.86 1097.68,-74.13"/>
<polygon fill="#63b8ff" stroke="#63b8ff" points="1254.53,-161.12 1264.47,-164.79 1258.98,-155.72 1254.53,-161.12"/>
</g>
<!-- Node31&#45;&gt;Node8 -->
<g id="edge56" class="edge">
<title>Node31&#45;&gt;Node8</title>
<path fill="none" stroke="#63b8ff" d="M1305.45,-108.19C1250.14,-98.25 1167.43,-83.39 1115.61,-74.08"/>
<polygon fill="#63b8ff" stroke="#63b8ff" points="1304.99,-111.66 1315.45,-109.98 1306.22,-104.77 1304.99,-111.66"/>
</g>
<!-- Node32&#45;&gt;Node6 -->
<g id="edge60" class="edge">
<title>Node32&#45;&gt;Node6</title>
<path fill="none" stroke="#63b8ff" d="M1023.74,-490.43C1011.28,-453.02 983.22,-371.44 972.84,-363 955.07,-348.55 822.45,-330.45 740.55,-320.47"/>
<polygon fill="#63b8ff" stroke="#63b8ff" points="1020.47,-491.71 1026.94,-500.1 1027.12,-489.51 1020.47,-491.71"/>
</g>
<!-- Node32&#45;&gt;Node7 -->
<g id="edge61" class="edge">
<title>Node32&#45;&gt;Node7</title>
<path fill="none" stroke="#63b8ff" d="M1031.1,-489.87C1032.02,-458.6 1028.92,-396.66 993.84,-363 952.13,-322.97 921.86,-350.07 868.84,-327 816.57,-304.25 797.37,-303.03 758.84,-261 738.9,-239.25 727.01,-205.42 722.25,-189.65"/>
<polygon fill="#63b8ff" stroke="#63b8ff" points="1027.58,-490.07 1030.61,-500.23 1034.58,-490.41 1027.58,-490.07"/>
</g>
<!-- Node32&#45;&gt;Node27 -->
<g id="edge64" class="edge">
<title>Node32&#45;&gt;Node27</title>
<path fill="none" stroke="#63b8ff" d="M1056.8,-496.03C1083.01,-483.42 1122.09,-464.61 1144.77,-453.7"/>
<polygon fill="#63b8ff" stroke="#63b8ff" points="1055.27,-492.88 1047.78,-500.37 1058.31,-499.19 1055.27,-492.88"/>
</g>
<!-- Node33 -->
<g id="node33" class="node">
<title>Node33</title>
<g id="a_node33"><a xlink:href="node__to__node__channel__manager_8h.html" target="_top" xlink:title=" ">
<polygon fill="white" stroke="#666666" points="896.34,-261 767.34,-261 767.34,-231 896.34,-231 896.34,-261"/>
<text text-anchor="start" x="775.34" y="-249" font-family="Helvetica,sans-Serif" font-size="10.00">src/node/node_to_node</text>
<text text-anchor="middle" x="831.84" y="-238" font-family="Helvetica,sans-Serif" font-size="10.00">_channel_manager.h</text>
</a>
</g>
</g>
<!-- Node32&#45;&gt;Node33 -->
<g id="edge62" class="edge">
<title>Node32&#45;&gt;Node33</title>
<path fill="none" stroke="#63b8ff" d="M1038.66,-491.12C1051.98,-461.26 1072.78,-400.81 1043.84,-363 1006.63,-314.37 963.74,-357.85 910.84,-327 881.51,-309.89 855.55,-279.08 841.94,-261.1"/>
<polygon fill="#63b8ff" stroke="#63b8ff" points="1035.43,-489.78 1034.36,-500.32 1041.77,-492.74 1035.43,-489.78"/>
</g>
<!-- Node33&#45;&gt;Node7 -->
<g id="edge63" class="edge">
<title>Node33&#45;&gt;Node7</title>
<path fill="none" stroke="#63b8ff" d="M798.55,-225.97C777.36,-213.87 750.95,-198.78 734.75,-189.52"/>
<polygon fill="#63b8ff" stroke="#63b8ff" points="796.85,-229.03 807.27,-230.95 800.32,-222.95 796.85,-229.03"/>
</g>
</g>
</svg>
