<?xml version="1.0" encoding="UTF-8" standalone="no"?>
<!DOCTYPE svg PUBLIC "-//W3C//DTD SVG 1.1//EN"
 "http://www.w3.org/Graphics/SVG/1.1/DTD/svg11.dtd">
<!-- Generated by graphviz version 2.43.0 (0)
 -->
<!-- Title: src/http/http2_types.h Pages: 1 -->
<!--zoomable 357 -->
<svg id="main" version="1.1" xmlns="http://www.w3.org/2000/svg" xmlns:xlink="http://www.w3.org/1999/xlink" xml:space="preserve" onload="init(evt)">
<style type="text/css"><![CDATA[
.edge:hover path { stroke: red; }
.edge:hover polygon { stroke: red; fill: red; }
]]></style>
<script type="text/javascript"><![CDATA[
var edges = document.getElementsByTagName('g');
if (edges && edges.length) {
  for (var i=0;i<edges.length;i++) {
    if (edges[i].id.substr(0,4)=='edge') {
      edges[i].setAttribute('class','edge');
    }
  }
}
]]></script>
        <defs>
                <circle id="rim" cx="0" cy="0" r="7"/>
                <circle id="rim2" cx="0" cy="0" r="3.5"/>
                <g id="zoomPlus">
                        <use xlink:href="#rim" fill="#404040">
                                <set attributeName="fill" to="#808080" begin="zoomplus.mouseover" end="zoomplus.mouseout"/>
                        </use>
                        <path d="M-4,0h8M0,-4v8" fill="none" stroke="white" stroke-width="1.5" pointer-events="none"/>
                </g>
                <g id="zoomMin">
                        <use xlink:href="#rim" fill="#404040">
                                <set attributeName="fill" to="#808080" begin="zoomminus.mouseover" end="zoomminus.mouseout"/>
                        </use>
                        <path d="M-4,0h8" fill="none" stroke="white" stroke-width="1.5" pointer-events="none"/>
                </g>
                <g id="dirArrow">
                        <path fill="none" stroke="white" stroke-width="1.5" d="M0,-3.0v7 M-2.5,-0.5L0,-3.0L2.5,-0.5"/>
                </g>
               <g id="resetDef">
                       <use xlink:href="#rim2" fill="#404040">
                               <set attributeName="fill" to="#808080" begin="reset.mouseover" end="reset.mouseout"/>
                       </use>
               </g>
        </defs>

<script type="text/javascript">
var viewWidth = 2417;
var viewHeight = 357;
var sectionId = 'dynsection-0';
</script>
<script xlink:href="svgpan.js"/>
<svg id="graph" class="graph">
<g id="viewport">
<title>src/http/http2_types.h</title>
<!-- Node1 -->
<g id="node1" class="node">
<title>Node1</title>
<g id="a_node1"><a xlink:title=" ">
<polygon fill="#999999" stroke="#666666" points="1478,-349 1355,-349 1355,-330 1478,-330 1478,-349"/>
<text text-anchor="middle" x="1416.5" y="-337" font-family="Helvetica,sans-Serif" font-size="10.00">src/http/http2_types.h</text>
</a>
</g>
</g>
<!-- Node2 -->
<g id="node2" class="node">
<title>Node2</title>
<g id="a_node2"><a xlink:href="nonstd_8h.html" target="_top" xlink:title=" ">
<polygon fill="white" stroke="#666666" points="1428.5,-74 1338.5,-74 1338.5,-55 1428.5,-55 1428.5,-74"/>
<text text-anchor="middle" x="1383.5" y="-62" font-family="Helvetica,sans-Serif" font-size="10.00">ccf/ds/nonstd.h</text>
</a>
</g>
</g>
<!-- Node1&#45;&gt;Node2 -->
<g id="edge1" class="edge">
<title>Node1&#45;&gt;Node2</title>
<path fill="none" stroke="#63b8ff" d="M1411.63,-329.85C1402.02,-311.92 1381.5,-269.13 1381.5,-230.5 1381.5,-230.5 1381.5,-230.5 1381.5,-173.5 1381.5,-142.18 1382.35,-105.77 1382.94,-84.23"/>
<polygon fill="#63b8ff" stroke="#63b8ff" points="1386.44,-84.27 1383.23,-74.18 1379.45,-84.07 1386.44,-84.27"/>
</g>
<!-- Node6 -->
<g id="node6" class="node">
<title>Node6</title>
<g id="a_node6"><a xlink:title=" ">
<polygon fill="#e0e0e0" stroke="#999999" points="1478.5,-19 1434.5,-19 1434.5,0 1478.5,0 1478.5,-19"/>
<text text-anchor="middle" x="1456.5" y="-7" font-family="Helvetica,sans-Serif" font-size="10.00">string</text>
</a>
</g>
</g>
<!-- Node1&#45;&gt;Node6 -->
<g id="edge81" class="edge">
<title>Node1&#45;&gt;Node6</title>
<path fill="none" stroke="#63b8ff" d="M1478.17,-331.23C1574.18,-318.17 1748.5,-286.72 1748.5,-230.5 1748.5,-230.5 1748.5,-230.5 1748.5,-118.5 1748.5,-89.04 1751.63,-74.44 1729.5,-55 1694.2,-23.99 1553.36,-14.39 1488.95,-11.58"/>
<polygon fill="#63b8ff" stroke="#63b8ff" points="1488.71,-8.07 1478.57,-11.16 1488.42,-15.06 1488.71,-8.07"/>
</g>
<!-- Node9 -->
<g id="node9" class="node">
<title>Node9</title>
<g id="a_node9"><a xlink:title=" ">
<polygon fill="#e0e0e0" stroke="#999999" points="1987,-19 1940,-19 1940,0 1987,0 1987,-19"/>
<text text-anchor="middle" x="1963.5" y="-7" font-family="Helvetica,sans-Serif" font-size="10.00">vector</text>
</a>
</g>
</g>
<!-- Node1&#45;&gt;Node9 -->
<g id="edge82" class="edge">
<title>Node1&#45;&gt;Node9</title>
<path fill="none" stroke="#63b8ff" d="M1478.32,-336.83C1668.88,-330.86 2234.5,-306.73 2234.5,-230.5 2234.5,-230.5 2234.5,-230.5 2234.5,-118.5 2234.5,-85.15 2222.04,-73.82 2194.5,-55 2162.9,-33.41 2053.76,-19.58 1997.55,-13.72"/>
<polygon fill="#63b8ff" stroke="#63b8ff" points="1997.68,-10.22 1987.37,-12.69 1996.97,-17.18 1997.68,-10.22"/>
</g>
<!-- Node10 -->
<g id="node10" class="node">
<title>Node10</title>
<g id="a_node10"><a xlink:href="http__configuration_8h.html" target="_top" xlink:title=" ">
<polygon fill="white" stroke="#666666" points="885,-239 754,-239 754,-220 885,-220 885,-239"/>
<text text-anchor="middle" x="819.5" y="-227" font-family="Helvetica,sans-Serif" font-size="10.00">ccf/http_configuration.h</text>
</a>
</g>
</g>
<!-- Node1&#45;&gt;Node10 -->
<g id="edge9" class="edge">
<title>Node1&#45;&gt;Node10</title>
<path fill="none" stroke="#63b8ff" d="M1354.79,-334.58C1278.84,-329 1146.2,-316.83 1034.5,-294 969.15,-280.65 894.95,-256.72 853.03,-242.35"/>
<polygon fill="#63b8ff" stroke="#63b8ff" points="853.94,-238.96 843.34,-239.01 851.65,-245.58 853.94,-238.96"/>
</g>
<!-- Node14 -->
<g id="node14" class="node">
<title>Node14</title>
<g id="a_node14"><a xlink:title=" ">
<polygon fill="#e0e0e0" stroke="#999999" points="740.5,-74 684.5,-74 684.5,-55 740.5,-55 740.5,-74"/>
<text text-anchor="middle" x="712.5" y="-62" font-family="Helvetica,sans-Serif" font-size="10.00">optional</text>
</a>
</g>
</g>
<!-- Node1&#45;&gt;Node14 -->
<g id="edge80" class="edge">
<title>Node1&#45;&gt;Node14</title>
<path fill="none" stroke="#63b8ff" d="M1354.83,-337.44C1154.44,-333.17 534.5,-313.27 534.5,-230.5 534.5,-230.5 534.5,-230.5 534.5,-173.5 534.5,-137.58 555.25,-130.85 584.5,-110 599.19,-99.53 642.24,-85.63 674.38,-76.17"/>
<polygon fill="#63b8ff" stroke="#63b8ff" points="675.76,-79.41 684.38,-73.26 673.8,-72.69 675.76,-79.41"/>
</g>
<!-- Node31 -->
<g id="node31" class="node">
<title>Node31</title>
<g id="a_node31"><a xlink:href="http__header__map_8h.html" target="_top" xlink:title=" ">
<polygon fill="white" stroke="#666666" points="1128.5,-74 1000.5,-74 1000.5,-55 1128.5,-55 1128.5,-74"/>
<text text-anchor="middle" x="1064.5" y="-62" font-family="Helvetica,sans-Serif" font-size="10.00">ccf/http_header_map.h</text>
</a>
</g>
</g>
<!-- Node1&#45;&gt;Node31 -->
<g id="edge45" class="edge">
<title>Node1&#45;&gt;Node31</title>
<path fill="none" stroke="#63b8ff" d="M1354.91,-333.19C1250.14,-322.45 1048.5,-293.59 1048.5,-230.5 1048.5,-230.5 1048.5,-230.5 1048.5,-173.5 1048.5,-141.85 1055.31,-105.54 1060.04,-84.11"/>
<polygon fill="#63b8ff" stroke="#63b8ff" points="1063.51,-84.65 1062.34,-74.12 1056.69,-83.08 1063.51,-84.65"/>
</g>
<!-- Node32 -->
<g id="node32" class="node">
<title>Node32</title>
<g id="a_node32"><a xlink:href="http__responder_8h.html" target="_top" xlink:title=" ">
<polygon fill="white" stroke="#666666" points="1279.5,-294 1163.5,-294 1163.5,-275 1279.5,-275 1279.5,-294"/>
<text text-anchor="middle" x="1221.5" y="-282" font-family="Helvetica,sans-Serif" font-size="10.00">ccf/http_responder.h</text>
</a>
</g>
</g>
<!-- Node1&#45;&gt;Node32 -->
<g id="edge48" class="edge">
<title>Node1&#45;&gt;Node32</title>
<path fill="none" stroke="#63b8ff" d="M1385.17,-329.98C1352.01,-320.97 1299.5,-306.7 1262.94,-296.76"/>
<polygon fill="#63b8ff" stroke="#63b8ff" points="1263.64,-293.33 1253.08,-294.08 1261.81,-300.08 1263.64,-293.33"/>
</g>
<!-- Node34 -->
<g id="node34" class="node">
<title>Node34</title>
<g id="a_node34"><a xlink:href="http__status_8h.html" target="_top" xlink:title=" ">
<polygon fill="white" stroke="#666666" points="1244.5,-74 1146.5,-74 1146.5,-55 1244.5,-55 1244.5,-74"/>
<text text-anchor="middle" x="1195.5" y="-62" font-family="Helvetica,sans-Serif" font-size="10.00">ccf/http_status.h</text>
</a>
</g>
</g>
<!-- Node1&#45;&gt;Node34 -->
<g id="edge54" class="edge">
<title>Node1&#45;&gt;Node34</title>
<path fill="none" stroke="#63b8ff" d="M1401.8,-329.87C1376.52,-313.79 1327.5,-276.66 1327.5,-230.5 1327.5,-230.5 1327.5,-230.5 1327.5,-173.5 1327.5,-124.09 1271.42,-93.21 1232.37,-77.69"/>
<polygon fill="#63b8ff" stroke="#63b8ff" points="1233.44,-74.36 1222.85,-74.08 1230.96,-80.9 1233.44,-74.36"/>
</g>
<!-- Node36 -->
<g id="node36" class="node">
<title>Node36</title>
<g id="a_node36"><a xlink:href="rest__verb_8h.html" target="_top" xlink:title=" ">
<polygon fill="white" stroke="#666666" points="1929,-184 1840,-184 1840,-165 1929,-165 1929,-184"/>
<text text-anchor="middle" x="1884.5" y="-172" font-family="Helvetica,sans-Serif" font-size="10.00">ccf/rest_verb.h</text>
</a>
</g>
</g>
<!-- Node1&#45;&gt;Node36 -->
<g id="edge55" class="edge">
<title>Node1&#45;&gt;Node36</title>
<path fill="none" stroke="#63b8ff" d="M1478.33,-335.23C1563.97,-329.92 1713.68,-317.55 1762.5,-294 1811.51,-270.36 1853.18,-219.36 1872.68,-192.63"/>
<polygon fill="#63b8ff" stroke="#63b8ff" points="1875.68,-194.45 1878.63,-184.27 1869.98,-190.39 1875.68,-194.45"/>
</g>
<!-- Node43 -->
<g id="node43" class="node">
<title>Node43</title>
<g id="a_node43"><a xlink:href="http__builder_8h.html" target="_top" xlink:title=" ">
<polygon fill="white" stroke="#666666" points="1493,-129 1410,-129 1410,-110 1493,-110 1493,-129"/>
<text text-anchor="middle" x="1451.5" y="-117" font-family="Helvetica,sans-Serif" font-size="10.00">http_builder.h</text>
</a>
</g>
</g>
<!-- Node1&#45;&gt;Node43 -->
<g id="edge68" class="edge">
<title>Node1&#45;&gt;Node43</title>
<path fill="none" stroke="#63b8ff" d="M1417.87,-329.95C1423.02,-297.88 1441.27,-184.2 1448.51,-139.12"/>
<polygon fill="#63b8ff" stroke="#63b8ff" points="1451.97,-139.65 1450.1,-129.22 1445.06,-138.54 1451.97,-139.65"/>
</g>
<!-- Node45 -->
<g id="node45" class="node">
<title>Node45</title>
<g id="a_node45"><a xlink:title=" ">
<polygon fill="#e0e0e0" stroke="#999999" points="2294.5,-294 2262.5,-294 2262.5,-275 2294.5,-275 2294.5,-294"/>
<text text-anchor="middle" x="2278.5" y="-282" font-family="Helvetica,sans-Serif" font-size="10.00">list</text>
</a>
</g>
</g>
<!-- Node1&#45;&gt;Node45 -->
<g id="edge78" class="edge">
<title>Node1&#45;&gt;Node45</title>
<path fill="none" stroke="#63b8ff" d="M1478.23,-336.98C1644.7,-332.6 2100.28,-318.65 2248.5,-294 2249.79,-293.79 2251.11,-293.54 2252.43,-293.26"/>
<polygon fill="#63b8ff" stroke="#63b8ff" points="2253.6,-296.57 2262.46,-290.76 2251.91,-289.78 2253.6,-296.57"/>
</g>
<!-- Node46 -->
<g id="node46" class="node">
<title>Node46</title>
<g id="a_node46"><a xlink:title=" ">
<polygon fill="#e0e0e0" stroke="#999999" points="2370.5,-294 2312.5,-294 2312.5,-275 2370.5,-275 2370.5,-294"/>
<text text-anchor="middle" x="2341.5" y="-282" font-family="Helvetica,sans-Serif" font-size="10.00">memory</text>
</a>
</g>
</g>
<!-- Node1&#45;&gt;Node46 -->
<g id="edge79" class="edge">
<title>Node1&#45;&gt;Node46</title>
<path fill="none" stroke="#63b8ff" d="M1478.13,-339C1621.33,-339.38 1987.66,-335.92 2301.91,-293.97"/>
<polygon fill="#63b8ff" stroke="#63b8ff" points="2302.69,-297.39 2312.13,-292.59 2301.75,-290.46 2302.69,-297.39"/>
</g>
<!-- Node3 -->
<g id="node3" class="node">
<title>Node3</title>
<g id="a_node3"><a xlink:title=" ">
<polygon fill="#e0e0e0" stroke="#999999" points="1344.5,-19 1280.5,-19 1280.5,0 1344.5,0 1344.5,-19"/>
<text text-anchor="middle" x="1312.5" y="-7" font-family="Helvetica,sans-Serif" font-size="10.00">algorithm</text>
</a>
</g>
</g>
<!-- Node2&#45;&gt;Node3 -->
<g id="edge2" class="edge">
<title>Node2&#45;&gt;Node3</title>
<path fill="none" stroke="#63b8ff" d="M1372.09,-54.98C1361.39,-47 1345.16,-34.88 1332.34,-25.31"/>
<polygon fill="#63b8ff" stroke="#63b8ff" points="1334.22,-22.35 1324.11,-19.17 1330.03,-27.96 1334.22,-22.35"/>
</g>
<!-- Node4 -->
<g id="node4" class="node">
<title>Node4</title>
<g id="a_node4"><a xlink:title=" ">
<polygon fill="#e0e0e0" stroke="#999999" points="1881.5,-19 1839.5,-19 1839.5,0 1881.5,0 1881.5,-19"/>
<text text-anchor="middle" x="1860.5" y="-7" font-family="Helvetica,sans-Serif" font-size="10.00">array</text>
</a>
</g>
</g>
<!-- Node2&#45;&gt;Node4 -->
<g id="edge3" class="edge">
<title>Node2&#45;&gt;Node4</title>
<path fill="none" stroke="#63b8ff" d="M1428.81,-58.47C1524.94,-47.78 1747.25,-23.08 1829.32,-13.96"/>
<polygon fill="#63b8ff" stroke="#63b8ff" points="1829.73,-17.44 1839.28,-12.86 1828.96,-10.48 1829.73,-17.44"/>
</g>
<!-- Node5 -->
<g id="node5" class="node">
<title>Node5</title>
<g id="a_node5"><a xlink:title=" ">
<polygon fill="#e0e0e0" stroke="#999999" points="1412,-19 1363,-19 1363,0 1412,0 1412,-19"/>
<text text-anchor="middle" x="1387.5" y="-7" font-family="Helvetica,sans-Serif" font-size="10.00">cctype</text>
</a>
</g>
</g>
<!-- Node2&#45;&gt;Node5 -->
<g id="edge4" class="edge">
<title>Node2&#45;&gt;Node5</title>
<path fill="none" stroke="#63b8ff" d="M1384.16,-54.75C1384.68,-47.8 1385.44,-37.85 1386.09,-29.13"/>
<polygon fill="#63b8ff" stroke="#63b8ff" points="1389.59,-29.32 1386.85,-19.09 1382.61,-28.8 1389.59,-29.32"/>
</g>
<!-- Node2&#45;&gt;Node6 -->
<g id="edge5" class="edge">
<title>Node2&#45;&gt;Node6</title>
<path fill="none" stroke="#63b8ff" d="M1395.23,-54.98C1406.23,-47 1422.92,-34.88 1436.1,-25.31"/>
<polygon fill="#63b8ff" stroke="#63b8ff" points="1438.52,-27.88 1444.56,-19.17 1434.41,-22.21 1438.52,-27.88"/>
</g>
<!-- Node7 -->
<g id="node7" class="node">
<title>Node7</title>
<g id="a_node7"><a xlink:title=" ">
<polygon fill="#e0e0e0" stroke="#999999" points="1741,-19 1668,-19 1668,0 1741,0 1741,-19"/>
<text text-anchor="middle" x="1704.5" y="-7" font-family="Helvetica,sans-Serif" font-size="10.00">string_view</text>
</a>
</g>
</g>
<!-- Node2&#45;&gt;Node7 -->
<g id="edge6" class="edge">
<title>Node2&#45;&gt;Node7</title>
<path fill="none" stroke="#63b8ff" d="M1428.81,-56.02C1489.42,-46.01 1596.35,-28.36 1657.71,-18.23"/>
<polygon fill="#63b8ff" stroke="#63b8ff" points="1658.58,-21.63 1667.88,-16.55 1657.44,-14.72 1658.58,-21.63"/>
</g>
<!-- Node8 -->
<g id="node8" class="node">
<title>Node8</title>
<g id="a_node8"><a xlink:title=" ">
<polygon fill="#e0e0e0" stroke="#999999" points="1219,-19 1150,-19 1150,0 1219,0 1219,-19"/>
<text text-anchor="middle" x="1184.5" y="-7" font-family="Helvetica,sans-Serif" font-size="10.00">type_traits</text>
</a>
</g>
</g>
<!-- Node2&#45;&gt;Node8 -->
<g id="edge7" class="edge">
<title>Node2&#45;&gt;Node8</title>
<path fill="none" stroke="#63b8ff" d="M1351.53,-54.98C1317.68,-45.97 1264.1,-31.7 1226.79,-21.76"/>
<polygon fill="#63b8ff" stroke="#63b8ff" points="1227.29,-18.27 1216.72,-19.08 1225.49,-25.04 1227.29,-18.27"/>
</g>
<!-- Node2&#45;&gt;Node9 -->
<g id="edge8" class="edge">
<title>Node2&#45;&gt;Node9</title>
<path fill="none" stroke="#63b8ff" d="M1428.89,-59.26C1443.74,-57.88 1460.32,-56.36 1475.5,-55 1659.9,-38.48 1706.31,-37.71 1890.5,-19 1903.26,-17.7 1917.26,-16.11 1929.56,-14.66"/>
<polygon fill="#63b8ff" stroke="#63b8ff" points="1930.33,-18.09 1939.85,-13.43 1929.5,-11.14 1930.33,-18.09"/>
</g>
<!-- Node11 -->
<g id="node11" class="node">
<title>Node11</title>
<g id="a_node11"><a xlink:href="json_8h.html" target="_top" xlink:title=" ">
<polygon fill="white" stroke="#666666" points="966,-184 889,-184 889,-165 966,-165 966,-184"/>
<text text-anchor="middle" x="927.5" y="-172" font-family="Helvetica,sans-Serif" font-size="10.00">ccf/ds/json.h</text>
</a>
</g>
</g>
<!-- Node10&#45;&gt;Node11 -->
<g id="edge10" class="edge">
<title>Node10&#45;&gt;Node11</title>
<path fill="none" stroke="#63b8ff" d="M836.85,-219.98C854.07,-211.54 880.7,-198.47 900.65,-188.68"/>
<polygon fill="#63b8ff" stroke="#63b8ff" points="902.4,-191.72 909.83,-184.17 899.31,-185.43 902.4,-191.72"/>
</g>
<!-- Node10&#45;&gt;Node14 -->
<g id="edge44" class="edge">
<title>Node10&#45;&gt;Node14</title>
<path fill="none" stroke="#63b8ff" d="M753.88,-220.68C699.07,-210.19 624.72,-185.74 591.5,-129 587.23,-121.71 586.67,-116.93 591.5,-110 601.32,-95.92 642.82,-82.74 674.5,-74.43"/>
<polygon fill="#63b8ff" stroke="#63b8ff" points="675.57,-77.77 684.39,-71.91 673.84,-70.99 675.57,-77.77"/>
</g>
<!-- Node18 -->
<g id="node18" class="node">
<title>Node18</title>
<g id="a_node18"><a xlink:href="unit__strings_8h.html" target="_top" xlink:title=" ">
<polygon fill="white" stroke="#666666" points="812.5,-184 698.5,-184 698.5,-165 812.5,-165 812.5,-184"/>
<text text-anchor="middle" x="755.5" y="-172" font-family="Helvetica,sans-Serif" font-size="10.00">ccf/ds/unit_strings.h</text>
</a>
</g>
</g>
<!-- Node10&#45;&gt;Node18 -->
<g id="edge21" class="edge">
<title>Node10&#45;&gt;Node18</title>
<path fill="none" stroke="#63b8ff" d="M809.22,-219.98C799.66,-212.07 785.22,-200.11 773.72,-190.58"/>
<polygon fill="#63b8ff" stroke="#63b8ff" points="775.9,-187.85 765.97,-184.17 771.44,-193.24 775.9,-187.85"/>
</g>
<!-- Node12 -->
<g id="node12" class="node">
<title>Node12</title>
<g id="a_node12"><a xlink:href="include_2ccf_2crypto_2base64_8h.html" target="_top" xlink:title=" ">
<polygon fill="white" stroke="#666666" points="1888.5,-74 1776.5,-74 1776.5,-55 1888.5,-55 1888.5,-74"/>
<text text-anchor="middle" x="1832.5" y="-62" font-family="Helvetica,sans-Serif" font-size="10.00">ccf/crypto/base64.h</text>
</a>
</g>
</g>
<!-- Node11&#45;&gt;Node12 -->
<g id="edge11" class="edge">
<title>Node11&#45;&gt;Node12</title>
<path fill="none" stroke="#63b8ff" d="M966.29,-172C1059.1,-168.07 1301.15,-155.9 1501.5,-129 1603.61,-115.29 1721.85,-90.4 1785.72,-76.19"/>
<polygon fill="#63b8ff" stroke="#63b8ff" points="1786.5,-79.61 1795.49,-74.01 1784.97,-72.78 1786.5,-79.61"/>
</g>
<!-- Node13 -->
<g id="node13" class="node">
<title>Node13</title>
<g id="a_node13"><a xlink:href="include_2ccf_2ds_2json__schema_8h.html" target="_top" xlink:title=" ">
<polygon fill="white" stroke="#666666" points="943,-129 822,-129 822,-110 943,-110 943,-129"/>
<text text-anchor="middle" x="882.5" y="-117" font-family="Helvetica,sans-Serif" font-size="10.00">ccf/ds/json_schema.h</text>
</a>
</g>
</g>
<!-- Node11&#45;&gt;Node13 -->
<g id="edge14" class="edge">
<title>Node11&#45;&gt;Node13</title>
<path fill="none" stroke="#63b8ff" d="M920.07,-164.75C913.65,-157.18 904.19,-146.05 896.38,-136.84"/>
<polygon fill="#63b8ff" stroke="#63b8ff" points="898.93,-134.45 889.79,-129.09 893.6,-138.98 898.93,-134.45"/>
</g>
<!-- Node15 -->
<g id="node15" class="node">
<title>Node15</title>
<g id="a_node15"><a xlink:title=" ">
<polygon fill="#e0e0e0" stroke="#999999" points="760,-19 681,-19 681,0 760,0 760,-19"/>
<text text-anchor="middle" x="720.5" y="-7" font-family="Helvetica,sans-Serif" font-size="10.00">fmt/format.h</text>
</a>
</g>
</g>
<!-- Node11&#45;&gt;Node15 -->
<g id="edge19" class="edge">
<title>Node11&#45;&gt;Node15</title>
<path fill="none" stroke="#63b8ff" d="M935.06,-164.81C944.79,-152.51 959.53,-129.38 951.5,-110 938.27,-78.06 926.56,-72.07 896.5,-55 857.3,-32.73 806.95,-21.46 770.16,-15.84"/>
<polygon fill="#63b8ff" stroke="#63b8ff" points="770.55,-12.36 760.16,-14.4 769.56,-19.29 770.55,-12.36"/>
</g>
<!-- Node17 -->
<g id="node17" class="node">
<title>Node17</title>
<g id="a_node17"><a xlink:title=" ">
<polygon fill="#e0e0e0" stroke="#999999" points="666.5,-74 610.5,-74 610.5,-55 666.5,-55 666.5,-74"/>
<text text-anchor="middle" x="638.5" y="-62" font-family="Helvetica,sans-Serif" font-size="10.00">sstream</text>
</a>
</g>
</g>
<!-- Node11&#45;&gt;Node17 -->
<g id="edge20" class="edge">
<title>Node11&#45;&gt;Node17</title>
<path fill="none" stroke="#63b8ff" d="M904.34,-164.84C853.06,-145.68 729.83,-99.63 670.92,-77.62"/>
<polygon fill="#63b8ff" stroke="#63b8ff" points="671.96,-74.27 661.37,-74.05 669.51,-80.83 671.96,-74.27"/>
</g>
<!-- Node12&#45;&gt;Node6 -->
<g id="edge12" class="edge">
<title>Node12&#45;&gt;Node6</title>
<path fill="none" stroke="#63b8ff" d="M1776.21,-55.57C1696.42,-44.32 1553.02,-24.11 1488.96,-15.08"/>
<polygon fill="#63b8ff" stroke="#63b8ff" points="1489.06,-11.55 1478.66,-13.62 1488.08,-18.49 1489.06,-11.55"/>
</g>
<!-- Node12&#45;&gt;Node9 -->
<g id="edge13" class="edge">
<title>Node12&#45;&gt;Node9</title>
<path fill="none" stroke="#63b8ff" d="M1853.55,-54.98C1874.91,-46.34 1908.2,-32.87 1932.56,-23.02"/>
<polygon fill="#63b8ff" stroke="#63b8ff" points="1934.11,-26.17 1942.07,-19.17 1931.49,-19.68 1934.11,-26.17"/>
</g>
<!-- Node13&#45;&gt;Node2 -->
<g id="edge15" class="edge">
<title>Node13&#45;&gt;Node2</title>
<path fill="none" stroke="#63b8ff" d="M943.43,-112.05C1041.71,-101.66 1233.74,-81.34 1328.26,-71.34"/>
<polygon fill="#63b8ff" stroke="#63b8ff" points="1328.89,-74.8 1338.47,-70.26 1328.15,-67.84 1328.89,-74.8"/>
</g>
<!-- Node13&#45;&gt;Node14 -->
<g id="edge16" class="edge">
<title>Node13&#45;&gt;Node14</title>
<path fill="none" stroke="#63b8ff" d="M855.19,-109.98C826.65,-101.09 781.67,-87.07 749.86,-77.15"/>
<polygon fill="#63b8ff" stroke="#63b8ff" points="750.62,-73.72 740.03,-74.08 748.53,-80.4 750.62,-73.72"/>
</g>
<!-- Node13&#45;&gt;Node15 -->
<g id="edge17" class="edge">
<title>Node13&#45;&gt;Node15</title>
<path fill="none" stroke="#63b8ff" d="M884.6,-109.99C887.34,-96.66 890.4,-70.74 877.5,-55 851.84,-23.69 805.91,-13.47 770.33,-10.55"/>
<polygon fill="#63b8ff" stroke="#63b8ff" points="770.34,-7.04 760.13,-9.88 769.88,-14.03 770.34,-7.04"/>
</g>
<!-- Node16 -->
<g id="node16" class="node">
<title>Node16</title>
<g id="a_node16"><a xlink:title=" ">
<polygon fill="#e0e0e0" stroke="#999999" points="868.5,-74 758.5,-74 758.5,-55 868.5,-55 868.5,-74"/>
<text text-anchor="middle" x="813.5" y="-62" font-family="Helvetica,sans-Serif" font-size="10.00">nlohmann/json.hpp</text>
</a>
</g>
</g>
<!-- Node13&#45;&gt;Node16 -->
<g id="edge18" class="edge">
<title>Node13&#45;&gt;Node16</title>
<path fill="none" stroke="#63b8ff" d="M871.41,-109.98C861.01,-102 845.24,-89.88 832.78,-80.31"/>
<polygon fill="#63b8ff" stroke="#63b8ff" points="834.85,-77.49 824.79,-74.17 830.59,-83.04 834.85,-77.49"/>
</g>
<!-- Node18&#45;&gt;Node2 -->
<g id="edge39" class="edge">
<title>Node18&#45;&gt;Node2</title>
<path fill="none" stroke="#63b8ff" d="M807.65,-165C861.68,-156.16 948.54,-141.83 1023.5,-129 1131.57,-110.5 1257.72,-88.05 1328.34,-75.41"/>
<polygon fill="#63b8ff" stroke="#63b8ff" points="1329.12,-78.82 1338.34,-73.62 1327.88,-71.93 1329.12,-78.82"/>
</g>
<!-- Node18&#45;&gt;Node6 -->
<g id="edge43" class="edge">
<title>Node18&#45;&gt;Node6</title>
<path fill="none" stroke="#63b8ff" d="M812.68,-172.81C854.86,-169.59 911.62,-159.27 951.5,-129 981.28,-106.4 960.22,-75.47 991.5,-55 1071.55,-2.61 1326.02,-34.03 1420.5,-19 1421.75,-18.8 1423.02,-18.58 1424.3,-18.35"/>
<polygon fill="#63b8ff" stroke="#63b8ff" points="1425.05,-21.77 1434.13,-16.32 1423.63,-14.91 1425.05,-21.77"/>
</g>
<!-- Node18&#45;&gt;Node16 -->
<g id="edge42" class="edge">
<title>Node18&#45;&gt;Node16</title>
<path fill="none" stroke="#63b8ff" d="M760.25,-164.66C769.81,-146.85 791.55,-106.37 804.1,-83.01"/>
<polygon fill="#63b8ff" stroke="#63b8ff" points="807.2,-84.62 808.85,-74.16 801.04,-81.31 807.2,-84.62"/>
</g>
<!-- Node19 -->
<g id="node19" class="node">
<title>Node19</title>
<g id="a_node19"><a xlink:href="logger_8h.html" target="_top" xlink:title=" ">
<polygon fill="white" stroke="#666666" points="506,-129 419,-129 419,-110 506,-110 506,-129"/>
<text text-anchor="middle" x="462.5" y="-117" font-family="Helvetica,sans-Serif" font-size="10.00">ccf/ds/logger.h</text>
</a>
</g>
</g>
<!-- Node18&#45;&gt;Node19 -->
<g id="edge22" class="edge">
<title>Node18&#45;&gt;Node19</title>
<path fill="none" stroke="#63b8ff" d="M708.42,-164.98C655.89,-155.48 571.04,-140.13 516.02,-130.18"/>
<polygon fill="#63b8ff" stroke="#63b8ff" points="516.57,-126.72 506.11,-128.39 515.33,-133.61 516.57,-126.72"/>
</g>
<!-- Node29 -->
<g id="node29" class="node">
<title>Node29</title>
<g id="a_node29"><a xlink:title=" ">
<polygon fill="#e0e0e0" stroke="#999999" points="662,-129 601,-129 601,-110 662,-110 662,-129"/>
<text text-anchor="middle" x="631.5" y="-117" font-family="Helvetica,sans-Serif" font-size="10.00">charconv</text>
</a>
</g>
</g>
<!-- Node18&#45;&gt;Node29 -->
<g id="edge40" class="edge">
<title>Node18&#45;&gt;Node29</title>
<path fill="none" stroke="#63b8ff" d="M735.58,-164.98C715.45,-156.38 684.12,-142.99 661.09,-133.15"/>
<polygon fill="#63b8ff" stroke="#63b8ff" points="662.36,-129.88 651.79,-129.17 659.6,-136.32 662.36,-129.88"/>
</g>
<!-- Node30 -->
<g id="node30" class="node">
<title>Node30</title>
<g id="a_node30"><a xlink:title=" ">
<polygon fill="#e0e0e0" stroke="#999999" points="727,-129 680,-129 680,-110 727,-110 727,-129"/>
<text text-anchor="middle" x="703.5" y="-117" font-family="Helvetica,sans-Serif" font-size="10.00">cmath</text>
</a>
</g>
</g>
<!-- Node18&#45;&gt;Node30 -->
<g id="edge41" class="edge">
<title>Node18&#45;&gt;Node30</title>
<path fill="none" stroke="#63b8ff" d="M746.91,-164.75C739.34,-157.03 728.12,-145.6 718.99,-136.28"/>
<polygon fill="#63b8ff" stroke="#63b8ff" points="721.43,-133.78 711.93,-129.09 716.43,-138.68 721.43,-133.78"/>
</g>
<!-- Node19&#45;&gt;Node8 -->
<g id="edge38" class="edge">
<title>Node19&#45;&gt;Node8</title>
<path fill="none" stroke="#63b8ff" d="M483.38,-109.85C504.12,-101.14 536.74,-87.16 564.5,-74 581.2,-66.08 583.7,-60 601.5,-55 812.16,4.16 874.44,-37.07 1092.5,-19 1107.83,-17.73 1124.58,-16.22 1139.53,-14.83"/>
<polygon fill="#63b8ff" stroke="#63b8ff" points="1139.94,-18.3 1149.56,-13.88 1139.28,-11.33 1139.94,-18.3"/>
</g>
<!-- Node19&#45;&gt;Node14 -->
<g id="edge36" class="edge">
<title>Node19&#45;&gt;Node14</title>
<path fill="none" stroke="#63b8ff" d="M504.58,-109.96C545.49,-101.61 609.63,-88.36 674.27,-74.24"/>
<polygon fill="#63b8ff" stroke="#63b8ff" points="675.21,-77.61 684.23,-72.05 673.71,-70.78 675.21,-77.61"/>
</g>
<!-- Node19&#45;&gt;Node15 -->
<g id="edge33" class="edge">
<title>Node19&#45;&gt;Node15</title>
<path fill="none" stroke="#63b8ff" d="M474.67,-109.79C493.82,-96.42 532.53,-70.73 568.5,-55 601.77,-40.45 641.17,-29.07 671.52,-21.46"/>
<polygon fill="#63b8ff" stroke="#63b8ff" points="672.56,-24.81 681.44,-19.02 670.89,-18.01 672.56,-24.81"/>
</g>
<!-- Node19&#45;&gt;Node16 -->
<g id="edge35" class="edge">
<title>Node19&#45;&gt;Node16</title>
<path fill="none" stroke="#63b8ff" d="M506.24,-111.89C567.02,-102.72 677.49,-86.04 748.09,-75.38"/>
<polygon fill="#63b8ff" stroke="#63b8ff" points="748.84,-78.8 758.21,-73.85 747.79,-71.88 748.84,-78.8"/>
</g>
<!-- Node19&#45;&gt;Node17 -->
<g id="edge37" class="edge">
<title>Node19&#45;&gt;Node17</title>
<path fill="none" stroke="#63b8ff" d="M490.78,-109.98C520.54,-101.02 567.57,-86.86 600.54,-76.93"/>
<polygon fill="#63b8ff" stroke="#63b8ff" points="601.73,-80.23 610.29,-73.99 599.71,-73.53 601.73,-80.23"/>
</g>
<!-- Node20 -->
<g id="node20" class="node">
<title>Node20</title>
<g id="a_node20"><a xlink:href="enum__formatter_8h.html" target="_top" xlink:title=" ">
<polygon fill="white" stroke="#666666" points="516.5,-74 380.5,-74 380.5,-55 516.5,-55 516.5,-74"/>
<text text-anchor="middle" x="448.5" y="-62" font-family="Helvetica,sans-Serif" font-size="10.00">ccf/ds/enum_formatter.h</text>
</a>
</g>
</g>
<!-- Node19&#45;&gt;Node20 -->
<g id="edge23" class="edge">
<title>Node19&#45;&gt;Node20</title>
<path fill="none" stroke="#63b8ff" d="M460.19,-109.75C458.33,-102.72 455.66,-92.62 453.35,-83.84"/>
<polygon fill="#63b8ff" stroke="#63b8ff" points="456.71,-82.86 450.77,-74.09 449.94,-84.65 456.71,-82.86"/>
</g>
<!-- Node21 -->
<g id="node21" class="node">
<title>Node21</title>
<g id="a_node21"><a xlink:href="thread__ids_8h.html" target="_top" xlink:title=" ">
<polygon fill="white" stroke="#666666" points="187.5,-74 79.5,-74 79.5,-55 187.5,-55 187.5,-74"/>
<text text-anchor="middle" x="133.5" y="-62" font-family="Helvetica,sans-Serif" font-size="10.00">ccf/ds/thread_ids.h</text>
</a>
</g>
</g>
<!-- Node19&#45;&gt;Node21 -->
<g id="edge25" class="edge">
<title>Node19&#45;&gt;Node21</title>
<path fill="none" stroke="#63b8ff" d="M418.81,-111.46C361.82,-102.28 261.71,-86.15 196.51,-75.65"/>
<polygon fill="#63b8ff" stroke="#63b8ff" points="196.79,-72.15 186.36,-74.01 195.67,-79.06 196.79,-72.15"/>
</g>
<!-- Node27 -->
<g id="node27" class="node">
<title>Node27</title>
<g id="a_node27"><a xlink:title=" ">
<polygon fill="#e0e0e0" stroke="#999999" points="285,-74 206,-74 206,-55 285,-55 285,-74"/>
<text text-anchor="middle" x="245.5" y="-62" font-family="Helvetica,sans-Serif" font-size="10.00">fmt/chrono.h</text>
</a>
</g>
</g>
<!-- Node19&#45;&gt;Node27 -->
<g id="edge32" class="edge">
<title>Node19&#45;&gt;Node27</title>
<path fill="none" stroke="#63b8ff" d="M427.64,-109.98C390.41,-100.89 331.3,-86.46 290.57,-76.51"/>
<polygon fill="#63b8ff" stroke="#63b8ff" points="291.18,-73.05 280.64,-74.08 289.52,-79.85 291.18,-73.05"/>
</g>
<!-- Node28 -->
<g id="node28" class="node">
<title>Node28</title>
<g id="a_node28"><a xlink:title=" ">
<polygon fill="#e0e0e0" stroke="#999999" points="362.5,-74 302.5,-74 302.5,-55 362.5,-55 362.5,-74"/>
<text text-anchor="middle" x="332.5" y="-62" font-family="Helvetica,sans-Serif" font-size="10.00">iostream</text>
</a>
</g>
</g>
<!-- Node19&#45;&gt;Node28 -->
<g id="edge34" class="edge">
<title>Node19&#45;&gt;Node28</title>
<path fill="none" stroke="#63b8ff" d="M441.61,-109.98C420.42,-101.34 387.37,-87.87 363.2,-78.02"/>
<polygon fill="#63b8ff" stroke="#63b8ff" points="364.35,-74.7 353.77,-74.17 361.71,-81.19 364.35,-74.7"/>
</g>
<!-- Node20&#45;&gt;Node15 -->
<g id="edge24" class="edge">
<title>Node20&#45;&gt;Node15</title>
<path fill="none" stroke="#63b8ff" d="M492.2,-54.98C541.05,-45.47 619.99,-30.08 671.06,-20.13"/>
<polygon fill="#63b8ff" stroke="#63b8ff" points="671.74,-23.57 680.89,-18.22 670.4,-16.7 671.74,-23.57"/>
</g>
<!-- Node21&#45;&gt;Node15 -->
<g id="edge26" class="edge">
<title>Node21&#45;&gt;Node15</title>
<path fill="none" stroke="#63b8ff" d="M187.78,-56C190.72,-55.65 193.65,-55.31 196.5,-55 370.57,-35.88 577.96,-20.43 671.02,-13.88"/>
<polygon fill="#63b8ff" stroke="#63b8ff" points="671.26,-17.38 681,-13.19 670.78,-10.39 671.26,-17.38"/>
</g>
<!-- Node22 -->
<g id="node22" class="node">
<title>Node22</title>
<g id="a_node22"><a xlink:title=" ">
<polygon fill="#e0e0e0" stroke="#999999" points="293.5,-19 207.5,-19 207.5,0 293.5,0 293.5,-19"/>
<text text-anchor="middle" x="250.5" y="-7" font-family="Helvetica,sans-Serif" font-size="10.00">fmt/ostream.h</text>
</a>
</g>
</g>
<!-- Node21&#45;&gt;Node22 -->
<g id="edge27" class="edge">
<title>Node21&#45;&gt;Node22</title>
<path fill="none" stroke="#63b8ff" d="M152.3,-54.98C171.12,-46.46 200.32,-33.23 222,-23.41"/>
<polygon fill="#63b8ff" stroke="#63b8ff" points="223.7,-26.48 231.36,-19.17 220.81,-20.11 223.7,-26.48"/>
</g>
<!-- Node23 -->
<g id="node23" class="node">
<title>Node23</title>
<g id="a_node23"><a xlink:title=" ">
<polygon fill="#e0e0e0" stroke="#999999" points="61,-19 0,-19 0,0 61,0 61,-19"/>
<text text-anchor="middle" x="30.5" y="-7" font-family="Helvetica,sans-Serif" font-size="10.00">fmt/std.h</text>
</a>
</g>
</g>
<!-- Node21&#45;&gt;Node23 -->
<g id="edge28" class="edge">
<title>Node21&#45;&gt;Node23</title>
<path fill="none" stroke="#63b8ff" d="M116.95,-54.98C100.61,-46.57 75.37,-33.59 56.37,-23.81"/>
<polygon fill="#63b8ff" stroke="#63b8ff" points="57.84,-20.63 47.35,-19.17 54.64,-26.86 57.84,-20.63"/>
</g>
<!-- Node24 -->
<g id="node24" class="node">
<title>Node24</title>
<g id="a_node24"><a xlink:title=" ">
<polygon fill="#e0e0e0" stroke="#999999" points="123.5,-19 79.5,-19 79.5,0 123.5,0 123.5,-19"/>
<text text-anchor="middle" x="101.5" y="-7" font-family="Helvetica,sans-Serif" font-size="10.00">limits</text>
</a>
</g>
</g>
<!-- Node21&#45;&gt;Node24 -->
<g id="edge29" class="edge">
<title>Node21&#45;&gt;Node24</title>
<path fill="none" stroke="#63b8ff" d="M128.22,-54.75C123.79,-47.42 117.34,-36.73 111.88,-27.7"/>
<polygon fill="#63b8ff" stroke="#63b8ff" points="114.85,-25.84 106.69,-19.09 108.86,-29.46 114.85,-25.84"/>
</g>
<!-- Node25 -->
<g id="node25" class="node">
<title>Node25</title>
<g id="a_node25"><a xlink:title=" ">
<polygon fill="#e0e0e0" stroke="#999999" points="1083.5,-19 1045.5,-19 1045.5,0 1083.5,0 1083.5,-19"/>
<text text-anchor="middle" x="1064.5" y="-7" font-family="Helvetica,sans-Serif" font-size="10.00">map</text>
</a>
</g>
</g>
<!-- Node21&#45;&gt;Node25 -->
<g id="edge30" class="edge">
<title>Node21&#45;&gt;Node25</title>
<path fill="none" stroke="#63b8ff" d="M187.76,-55.89C190.72,-55.56 193.64,-55.27 196.5,-55 524.75,-24.5 924.91,-13.65 1035.18,-11.12"/>
<polygon fill="#63b8ff" stroke="#63b8ff" points="1035.29,-14.62 1045.21,-10.9 1035.14,-7.62 1035.29,-14.62"/>
</g>
<!-- Node26 -->
<g id="node26" class="node">
<title>Node26</title>
<g id="a_node26"><a xlink:title=" ">
<polygon fill="#e0e0e0" stroke="#999999" points="189.5,-19 141.5,-19 141.5,0 189.5,0 189.5,-19"/>
<text text-anchor="middle" x="165.5" y="-7" font-family="Helvetica,sans-Serif" font-size="10.00">thread</text>
</a>
</g>
</g>
<!-- Node21&#45;&gt;Node26 -->
<g id="edge31" class="edge">
<title>Node21&#45;&gt;Node26</title>
<path fill="none" stroke="#63b8ff" d="M138.78,-54.75C143.21,-47.42 149.66,-36.73 155.12,-27.7"/>
<polygon fill="#63b8ff" stroke="#63b8ff" points="158.14,-29.46 160.31,-19.09 152.15,-25.84 158.14,-29.46"/>
</g>
<!-- Node31&#45;&gt;Node6 -->
<g id="edge47" class="edge">
<title>Node31&#45;&gt;Node6</title>
<path fill="none" stroke="#63b8ff" d="M1128.77,-55.85C1223.52,-44.51 1392.53,-24.03 1420.5,-19 1421.78,-18.77 1423.08,-18.52 1424.4,-18.26"/>
<polygon fill="#63b8ff" stroke="#63b8ff" points="1425.45,-21.62 1434.49,-16.09 1423.98,-14.77 1425.45,-21.62"/>
</g>
<!-- Node31&#45;&gt;Node25 -->
<g id="edge46" class="edge">
<title>Node31&#45;&gt;Node25</title>
<path fill="none" stroke="#63b8ff" d="M1064.5,-54.75C1064.5,-47.8 1064.5,-37.85 1064.5,-29.13"/>
<polygon fill="#63b8ff" stroke="#63b8ff" points="1068,-29.09 1064.5,-19.09 1061,-29.09 1068,-29.09"/>
</g>
<!-- Node32&#45;&gt;Node31 -->
<g id="edge49" class="edge">
<title>Node32&#45;&gt;Node31</title>
<path fill="none" stroke="#63b8ff" d="M1216.65,-274.67C1209.71,-262.22 1196.37,-238.9 1183.5,-220 1148.08,-167.98 1101.36,-110.05 1078.42,-82.21"/>
<polygon fill="#63b8ff" stroke="#63b8ff" points="1080.93,-79.75 1071.85,-74.28 1075.53,-84.22 1080.93,-79.75"/>
</g>
<!-- Node33 -->
<g id="node33" class="node">
<title>Node33</title>
<g id="a_node33"><a xlink:href="odata__error_8h.html" target="_top" xlink:title=" ">
<polygon fill="white" stroke="#666666" points="1174.5,-239 1076.5,-239 1076.5,-220 1174.5,-220 1174.5,-239"/>
<text text-anchor="middle" x="1125.5" y="-227" font-family="Helvetica,sans-Serif" font-size="10.00">ccf/odata_error.h</text>
</a>
</g>
</g>
<!-- Node32&#45;&gt;Node33 -->
<g id="edge50" class="edge">
<title>Node32&#45;&gt;Node33</title>
<path fill="none" stroke="#63b8ff" d="M1206.08,-274.98C1191.05,-266.69 1167.96,-253.94 1150.34,-244.22"/>
<polygon fill="#63b8ff" stroke="#63b8ff" points="1151.65,-240.94 1141.2,-239.17 1148.27,-247.07 1151.65,-240.94"/>
</g>
<!-- Node35 -->
<g id="node35" class="node">
<title>Node35</title>
<g id="a_node35"><a xlink:title=" ">
<polygon fill="#e0e0e0" stroke="#999999" points="1296,-239 1231,-239 1231,-220 1296,-220 1296,-239"/>
<text text-anchor="middle" x="1263.5" y="-227" font-family="Helvetica,sans-Serif" font-size="10.00">functional</text>
</a>
</g>
</g>
<!-- Node32&#45;&gt;Node35 -->
<g id="edge53" class="edge">
<title>Node32&#45;&gt;Node35</title>
<path fill="none" stroke="#63b8ff" d="M1228.44,-274.75C1234.37,-267.26 1243.07,-256.28 1250.32,-247.13"/>
<polygon fill="#63b8ff" stroke="#63b8ff" points="1253.23,-249.1 1256.69,-239.09 1247.74,-244.75 1253.23,-249.1"/>
</g>
<!-- Node33&#45;&gt;Node11 -->
<g id="edge51" class="edge">
<title>Node33&#45;&gt;Node11</title>
<path fill="none" stroke="#63b8ff" d="M1093.69,-219.98C1060.01,-210.97 1006.7,-196.7 969.58,-186.76"/>
<polygon fill="#63b8ff" stroke="#63b8ff" points="970.13,-183.29 959.56,-184.08 968.32,-190.05 970.13,-183.29"/>
</g>
<!-- Node33&#45;&gt;Node34 -->
<g id="edge52" class="edge">
<title>Node33&#45;&gt;Node34</title>
<path fill="none" stroke="#63b8ff" d="M1129.26,-219.74C1140.28,-194.09 1172.62,-118.78 1187.65,-83.78"/>
<polygon fill="#63b8ff" stroke="#63b8ff" points="1190.99,-84.88 1191.72,-74.31 1184.56,-82.11 1190.99,-84.88"/>
</g>
<!-- Node36&#45;&gt;Node6 -->
<g id="edge67" class="edge">
<title>Node36&#45;&gt;Node6</title>
<path fill="none" stroke="#63b8ff" d="M1889.4,-164.69C1900.75,-142.97 1925.82,-86.32 1897.5,-55 1883.78,-39.82 1588.29,-19.14 1488.84,-12.58"/>
<polygon fill="#63b8ff" stroke="#63b8ff" points="1488.98,-9.08 1478.77,-11.92 1488.52,-16.07 1488.98,-9.08"/>
</g>
<!-- Node37 -->
<g id="node37" class="node">
<title>Node37</title>
<g id="a_node37"><a xlink:href="include_2ccf_2ds_2hash_8h.html" target="_top" xlink:title=" ">
<polygon fill="white" stroke="#666666" points="2134.5,-129 2054.5,-129 2054.5,-110 2134.5,-110 2134.5,-129"/>
<text text-anchor="middle" x="2094.5" y="-117" font-family="Helvetica,sans-Serif" font-size="10.00">ccf/ds/hash.h</text>
</a>
</g>
</g>
<!-- Node36&#45;&gt;Node37 -->
<g id="edge56" class="edge">
<title>Node36&#45;&gt;Node37</title>
<path fill="none" stroke="#63b8ff" d="M1918.24,-164.98C1954.18,-155.91 2011.22,-141.52 2050.63,-131.57"/>
<polygon fill="#63b8ff" stroke="#63b8ff" points="2051.66,-134.92 2060.5,-129.08 2049.94,-128.14 2051.66,-134.92"/>
</g>
<!-- Node42 -->
<g id="node42" class="node">
<title>Node42</title>
<g id="a_node42"><a xlink:title=" ">
<polygon fill="#e0e0e0" stroke="#999999" points="1720.5,-74 1640.5,-74 1640.5,-55 1720.5,-55 1720.5,-74"/>
<text text-anchor="middle" x="1680.5" y="-62" font-family="Helvetica,sans-Serif" font-size="10.00">llhttp/llhttp.h</text>
</a>
</g>
</g>
<!-- Node36&#45;&gt;Node42 -->
<g id="edge66" class="edge">
<title>Node36&#45;&gt;Node42</title>
<path fill="none" stroke="#63b8ff" d="M1868.15,-164.84C1832.55,-146 1747.83,-101.14 1705.48,-78.73"/>
<polygon fill="#63b8ff" stroke="#63b8ff" points="1707.12,-75.63 1696.64,-74.05 1703.84,-81.82 1707.12,-75.63"/>
</g>
<!-- Node37&#45;&gt;Node4 -->
<g id="edge61" class="edge">
<title>Node37&#45;&gt;Node4</title>
<path fill="none" stroke="#63b8ff" d="M2078.38,-109.88C2054.6,-97.28 2008.6,-73.33 1968.5,-55 1942.75,-43.23 1912.96,-31.06 1891.2,-22.43"/>
<polygon fill="#63b8ff" stroke="#63b8ff" points="1892.4,-19.14 1881.81,-18.73 1889.83,-25.65 1892.4,-19.14"/>
</g>
<!-- Node37&#45;&gt;Node7 -->
<g id="edge64" class="edge">
<title>Node37&#45;&gt;Node7</title>
<path fill="none" stroke="#63b8ff" d="M2067.09,-109.91C2041.31,-101.58 2001.81,-88.15 1968.5,-74 1951.12,-66.62 1948.37,-61.1 1930.5,-55 1870.34,-34.46 1797.74,-22.27 1751.36,-15.98"/>
<polygon fill="#63b8ff" stroke="#63b8ff" points="1751.67,-12.49 1741.3,-14.65 1750.75,-19.43 1751.67,-12.49"/>
</g>
<!-- Node37&#45;&gt;Node9 -->
<g id="edge65" class="edge">
<title>Node37&#45;&gt;Node9</title>
<path fill="none" stroke="#63b8ff" d="M2122.9,-109.92C2153.98,-99.08 2196.96,-78.93 2177.5,-55 2155.16,-27.54 2051.73,-16.47 1997.26,-12.48"/>
<polygon fill="#63b8ff" stroke="#63b8ff" points="1997.28,-8.98 1987.06,-11.78 1996.79,-15.96 1997.28,-8.98"/>
</g>
<!-- Node38 -->
<g id="node38" class="node">
<title>Node38</title>
<g id="a_node38"><a xlink:href="siphash_8h.html" target="_top" xlink:title=" ">
<polygon fill="white" stroke="#666666" points="2358,-74 2263,-74 2263,-55 2358,-55 2358,-74"/>
<text text-anchor="middle" x="2310.5" y="-62" font-family="Helvetica,sans-Serif" font-size="10.00">ccf/ds/siphash.h</text>
</a>
</g>
</g>
<!-- Node37&#45;&gt;Node38 -->
<g id="edge57" class="edge">
<title>Node37&#45;&gt;Node38</title>
<path fill="none" stroke="#63b8ff" d="M2129.2,-109.98C2166.25,-100.89 2225.09,-86.46 2265.63,-76.51"/>
<polygon fill="#63b8ff" stroke="#63b8ff" points="2266.65,-79.86 2275.52,-74.08 2264.98,-73.07 2266.65,-79.86"/>
</g>
<!-- Node40 -->
<g id="node40" class="node">
<title>Node40</title>
<g id="a_node40"><a xlink:title=" ">
<polygon fill="#e0e0e0" stroke="#999999" points="2408.5,-19 2358.5,-19 2358.5,0 2408.5,0 2408.5,-19"/>
<text text-anchor="middle" x="2383.5" y="-7" font-family="Helvetica,sans-Serif" font-size="10.00">cstdint</text>
</a>
</g>
</g>
<!-- Node37&#45;&gt;Node40 -->
<g id="edge62" class="edge">
<title>Node37&#45;&gt;Node40</title>
<path fill="none" stroke="#63b8ff" d="M2134.55,-117.15C2201.74,-114.06 2333.11,-104.23 2366.5,-74 2378.78,-62.88 2382.6,-43.95 2383.61,-29.64"/>
<polygon fill="#63b8ff" stroke="#63b8ff" points="2387.11,-29.5 2383.92,-19.4 2380.12,-29.29 2387.11,-29.5"/>
</g>
<!-- Node41 -->
<g id="node41" class="node">
<title>Node41</title>
<g id="a_node41"><a xlink:title=" ">
<polygon fill="#e0e0e0" stroke="#999999" points="2169,-74 2020,-74 2020,-55 2169,-55 2169,-74"/>
<text text-anchor="middle" x="2094.5" y="-62" font-family="Helvetica,sans-Serif" font-size="10.00">small_vector/SmallVector.h</text>
</a>
</g>
</g>
<!-- Node37&#45;&gt;Node41 -->
<g id="edge63" class="edge">
<title>Node37&#45;&gt;Node41</title>
<path fill="none" stroke="#63b8ff" d="M2094.5,-109.75C2094.5,-102.8 2094.5,-92.85 2094.5,-84.13"/>
<polygon fill="#63b8ff" stroke="#63b8ff" points="2098,-84.09 2094.5,-74.09 2091,-84.09 2098,-84.09"/>
</g>
<!-- Node38&#45;&gt;Node9 -->
<g id="edge60" class="edge">
<title>Node38&#45;&gt;Node9</title>
<path fill="none" stroke="#63b8ff" d="M2262.98,-56.24C2191.74,-45.36 2059.02,-25.09 1997.03,-15.62"/>
<polygon fill="#63b8ff" stroke="#63b8ff" points="1997.42,-12.14 1987,-14.09 1996.36,-19.06 1997.42,-12.14"/>
</g>
<!-- Node39 -->
<g id="node39" class="node">
<title>Node39</title>
<g id="a_node39"><a xlink:title=" ">
<polygon fill="#e0e0e0" stroke="#999999" points="2337,-19 2284,-19 2284,0 2337,0 2337,-19"/>
<text text-anchor="middle" x="2310.5" y="-7" font-family="Helvetica,sans-Serif" font-size="10.00">cstddef</text>
</a>
</g>
</g>
<!-- Node38&#45;&gt;Node39 -->
<g id="edge58" class="edge">
<title>Node38&#45;&gt;Node39</title>
<path fill="none" stroke="#63b8ff" d="M2310.5,-54.75C2310.5,-47.8 2310.5,-37.85 2310.5,-29.13"/>
<polygon fill="#63b8ff" stroke="#63b8ff" points="2314,-29.09 2310.5,-19.09 2307,-29.09 2314,-29.09"/>
</g>
<!-- Node38&#45;&gt;Node40 -->
<g id="edge59" class="edge">
<title>Node38&#45;&gt;Node40</title>
<path fill="none" stroke="#63b8ff" d="M2322.23,-54.98C2333.23,-47 2349.92,-34.88 2363.1,-25.31"/>
<polygon fill="#63b8ff" stroke="#63b8ff" points="2365.52,-27.88 2371.56,-19.17 2361.41,-22.21 2365.52,-27.88"/>
</g>
<!-- Node43&#45;&gt;Node2 -->
<g id="edge69" class="edge">
<title>Node43&#45;&gt;Node2</title>
<path fill="none" stroke="#63b8ff" d="M1440.57,-109.98C1430.42,-102.07 1415.08,-90.11 1402.85,-80.58"/>
<polygon fill="#63b8ff" stroke="#63b8ff" points="1404.66,-77.56 1394.62,-74.17 1400.36,-83.08 1404.66,-77.56"/>
</g>
<!-- Node43&#45;&gt;Node6 -->
<g id="edge76" class="edge">
<title>Node43&#45;&gt;Node6</title>
<path fill="none" stroke="#63b8ff" d="M1451.91,-109.66C1452.72,-92.17 1454.54,-52.8 1455.63,-29.27"/>
<polygon fill="#63b8ff" stroke="#63b8ff" points="1459.13,-29.31 1456.1,-19.16 1452.14,-28.99 1459.13,-29.31"/>
</g>
<!-- Node43&#45;&gt;Node9 -->
<g id="edge77" class="edge">
<title>Node43&#45;&gt;Node9</title>
<path fill="none" stroke="#63b8ff" d="M1483.05,-109.99C1511.93,-101.86 1555.66,-88.69 1592.5,-74 1610.41,-66.86 1613.04,-60.57 1631.5,-55 1659.65,-46.5 1850.52,-23.66 1929.45,-14.44"/>
<polygon fill="#63b8ff" stroke="#63b8ff" points="1930.28,-17.86 1939.81,-13.23 1929.47,-10.91 1930.28,-17.86"/>
</g>
<!-- Node43&#45;&gt;Node15 -->
<g id="edge73" class="edge">
<title>Node43&#45;&gt;Node15</title>
<path fill="none" stroke="#63b8ff" d="M1409.84,-110.4C1375.87,-103.06 1327.06,-90.81 1286.5,-74 1270.87,-67.52 1269.65,-60.05 1253.5,-55 1164.22,-27.1 885.37,-15.56 770.61,-11.9"/>
<polygon fill="#63b8ff" stroke="#63b8ff" points="770.46,-8.39 760.35,-11.58 770.24,-15.39 770.46,-8.39"/>
</g>
<!-- Node43&#45;&gt;Node25 -->
<g id="edge75" class="edge">
<title>Node43&#45;&gt;Node25</title>
<path fill="none" stroke="#63b8ff" d="M1426.55,-109.94C1401.76,-101.32 1362.75,-87.39 1329.5,-74 1310.12,-66.19 1306.42,-61.31 1286.5,-55 1218.97,-33.59 1136.49,-20.27 1093.58,-14.26"/>
<polygon fill="#63b8ff" stroke="#63b8ff" points="1093.94,-10.78 1083.56,-12.89 1093,-17.71 1093.94,-10.78"/>
</g>
<!-- Node43&#45;&gt;Node31 -->
<g id="edge71" class="edge">
<title>Node43&#45;&gt;Node31</title>
<path fill="none" stroke="#63b8ff" d="M1409.72,-112.78C1344.4,-103.83 1217.26,-86.42 1136.84,-75.41"/>
<polygon fill="#63b8ff" stroke="#63b8ff" points="1137.17,-71.92 1126.79,-74.03 1136.22,-78.86 1137.17,-71.92"/>
</g>
<!-- Node43&#45;&gt;Node34 -->
<g id="edge72" class="edge">
<title>Node43&#45;&gt;Node34</title>
<path fill="none" stroke="#63b8ff" d="M1410.37,-109.98C1365.9,-100.78 1294.95,-86.09 1246.85,-76.13"/>
<polygon fill="#63b8ff" stroke="#63b8ff" points="1247.46,-72.68 1236.95,-74.08 1246.04,-79.54 1247.46,-72.68"/>
</g>
<!-- Node43&#45;&gt;Node42 -->
<g id="edge74" class="edge">
<title>Node43&#45;&gt;Node42</title>
<path fill="none" stroke="#63b8ff" d="M1488.29,-109.98C1527.74,-100.86 1590.48,-86.33 1633.48,-76.38"/>
<polygon fill="#63b8ff" stroke="#63b8ff" points="1634.47,-79.75 1643.42,-74.08 1632.89,-72.93 1634.47,-79.75"/>
</g>
<!-- Node44 -->
<g id="node44" class="node">
<title>Node44</title>
<g id="a_node44"><a xlink:href="http__consts_8h.html" target="_top" xlink:title=" ">
<polygon fill="white" stroke="#666666" points="1584,-74 1485,-74 1485,-55 1584,-55 1584,-74"/>
<text text-anchor="middle" x="1534.5" y="-62" font-family="Helvetica,sans-Serif" font-size="10.00">ccf/http_consts.h</text>
</a>
</g>
</g>
<!-- Node43&#45;&gt;Node44 -->
<g id="edge70" class="edge">
<title>Node43&#45;&gt;Node44</title>
<path fill="none" stroke="#63b8ff" d="M1464.84,-109.98C1477.59,-101.84 1497.05,-89.41 1512.17,-79.76"/>
<polygon fill="#63b8ff" stroke="#63b8ff" points="1514.38,-82.5 1520.92,-74.17 1510.61,-76.6 1514.38,-82.5"/>
</g>
</g>
</svg>
        <g id="navigator" transform="translate(0 0)" fill="#404254">
                <rect fill="#f2f5e9" fill-opacity="0.5" stroke="#606060" stroke-width=".5" x="0" y="0" width="60" height="60"/>
                <use id="zoomplus" xlink:href="#zoomPlus" x="17" y="9" onmousedown="handleZoom(evt,'in')"/>
                <use id="zoomminus" xlink:href="#zoomMin" x="42" y="9" onmousedown="handleZoom(evt,'out')"/>
                <use id="reset" xlink:href="#resetDef" x="30" y="36" onmousedown="handleReset()"/>
                <g id="arrowUp" xlink:href="#dirArrow" transform="translate(30 24)" onmousedown="handlePan(0,-1)">
                  <use xlink:href="#rim" fill="#404040">
                        <set attributeName="fill" to="#808080" begin="arrowUp.mouseover" end="arrowUp.mouseout"/>
                  </use>
                  <path fill="none" stroke="white" stroke-width="1.5" d="M0,-3.0v7 M-2.5,-0.5L0,-3.0L2.5,-0.5"/>
                </g>
                <g id="arrowRight" xlink:href="#dirArrow" transform="rotate(90) translate(36 -43)" onmousedown="handlePan(1,0)">
                  <use xlink:href="#rim" fill="#404040">
                        <set attributeName="fill" to="#808080" begin="arrowRight.mouseover" end="arrowRight.mouseout"/>
                  </use>
                  <path fill="none" stroke="white" stroke-width="1.5" d="M0,-3.0v7 M-2.5,-0.5L0,-3.0L2.5,-0.5"/>
                </g>
                <g id="arrowDown" xlink:href="#dirArrow" transform="rotate(180) translate(-30 -48)" onmousedown="handlePan(0,1)">
                  <use xlink:href="#rim" fill="#404040">
                        <set attributeName="fill" to="#808080" begin="arrowDown.mouseover" end="arrowDown.mouseout"/>
                  </use>
                  <path fill="none" stroke="white" stroke-width="1.5" d="M0,-3.0v7 M-2.5,-0.5L0,-3.0L2.5,-0.5"/>
                </g>
                <g id="arrowLeft" xlink:href="#dirArrow" transform="rotate(270) translate(-36 17)" onmousedown="handlePan(-1,0)">
                  <use xlink:href="#rim" fill="#404040">
                        <set attributeName="fill" to="#808080" begin="arrowLeft.mouseover" end="arrowLeft.mouseout"/>
                  </use>
                  <path fill="none" stroke="white" stroke-width="1.5" d="M0,-3.0v7 M-2.5,-0.5L0,-3.0L2.5,-0.5"/>
                </g>
        </g>
        <svg viewBox="0 0 15 15" width="100%" height="30px" preserveAspectRatio="xMaxYMin meet">
         <g id="arrow_out" transform="scale(0.3 0.3)">
          <a xlink:href="http2__types_8h__incl_org.svg" target="_base">
           <rect id="button" ry="5" rx="5" y="6" x="6" height="38" width="38"
                fill="#f2f5e9" fill-opacity="0.5" stroke="#606060" stroke-width="1.0"/>
           <path id="arrow"
             d="M 11.500037,31.436501 C 11.940474,20.09759 22.043105,11.32322 32.158766,21.979434 L 37.068811,17.246167 C 37.068811,17.246167 37.088388,32 37.088388,32 L 22.160133,31.978069 C 22.160133,31.978069 26.997745,27.140456 26.997745,27.140456 C 18.528582,18.264221 13.291696,25.230495 11.500037,31.436501 z"
             style="fill:#404040;"/>
          </a>
         </g>
        </svg>
</svg>
