<?xml version="1.0" encoding="UTF-8" standalone="no"?>
<!DOCTYPE svg PUBLIC "-//W3C//DTD SVG 1.1//EN"
 "http://www.w3.org/Graphics/SVG/1.1/DTD/svg11.dtd">
<!-- Generated by graphviz version 2.43.0 (0)
 -->
<!-- Title: include/ccf/http_responder.h Pages: 1 -->
<svg width="622pt" height="302pt"
 viewBox="0.00 0.00 622.00 302.00" xmlns="http://www.w3.org/2000/svg" xmlns:xlink="http://www.w3.org/1999/xlink">
<g id="graph0" class="graph" transform="scale(1 1) rotate(0) translate(4 298)">
<title>include/ccf/http_responder.h</title>
<!-- Node1 -->
<g id="node1" class="node">
<title>Node1</title>
<g id="a_node1"><a xlink:title=" ">
<polygon fill="#999999" stroke="#666666" points="284,-294 130,-294 130,-275 284,-275 284,-294"/>
<text text-anchor="middle" x="207" y="-282" font-family="Helvetica,sans-Serif" font-size="10.00">include/ccf/http_responder.h</text>
</a>
</g>
</g>
<!-- Node2 -->
<g id="node2" class="node">
<title>Node2</title>
<g id="a_node2"><a xlink:href="http__header__map_8h.html" target="_top" xlink:title=" ">
<polygon fill="white" stroke="#666666" points="130,-239 2,-239 2,-220 130,-220 130,-239"/>
<text text-anchor="middle" x="66" y="-227" font-family="Helvetica,sans-Serif" font-size="10.00">ccf/http_header_map.h</text>
</a>
</g>
</g>
<!-- Node1&#45;&gt;Node2 -->
<g id="edge1" class="edge">
<title>Node1&#45;&gt;Node2</title>
<path fill="none" stroke="#63b8ff" d="M184.35,-274.98C161.15,-266.27 124.88,-252.63 98.6,-242.75"/>
<polygon fill="#63b8ff" stroke="#63b8ff" points="99.66,-239.41 89.07,-239.17 97.2,-245.97 99.66,-239.41"/>
</g>
<!-- Node5 -->
<g id="node5" class="node">
<title>Node5</title>
<g id="a_node5"><a xlink:href="odata__error_8h.html" target="_top" xlink:title=" ">
<polygon fill="white" stroke="#666666" points="256,-239 158,-239 158,-220 256,-220 256,-239"/>
<text text-anchor="middle" x="207" y="-227" font-family="Helvetica,sans-Serif" font-size="10.00">ccf/odata_error.h</text>
</a>
</g>
</g>
<!-- Node1&#45;&gt;Node5 -->
<g id="edge4" class="edge">
<title>Node1&#45;&gt;Node5</title>
<path fill="none" stroke="#63b8ff" d="M207,-274.75C207,-267.8 207,-257.85 207,-249.13"/>
<polygon fill="#63b8ff" stroke="#63b8ff" points="210.5,-249.09 207,-239.09 203.5,-249.09 210.5,-249.09"/>
</g>
<!-- Node21 -->
<g id="node21" class="node">
<title>Node21</title>
<g id="a_node21"><a xlink:title=" ">
<polygon fill="#e0e0e0" stroke="#999999" points="339.5,-239 274.5,-239 274.5,-220 339.5,-220 339.5,-239"/>
<text text-anchor="middle" x="307" y="-227" font-family="Helvetica,sans-Serif" font-size="10.00">functional</text>
</a>
</g>
</g>
<!-- Node1&#45;&gt;Node21 -->
<g id="edge24" class="edge">
<title>Node1&#45;&gt;Node21</title>
<path fill="none" stroke="#63b8ff" d="M223.07,-274.98C238.86,-266.61 263.22,-253.7 281.63,-243.95"/>
<polygon fill="#63b8ff" stroke="#63b8ff" points="283.44,-246.95 290.64,-239.17 280.17,-240.76 283.44,-246.95"/>
</g>
<!-- Node3 -->
<g id="node3" class="node">
<title>Node3</title>
<g id="a_node3"><a xlink:title=" ">
<polygon fill="#e0e0e0" stroke="#999999" points="38,-184 0,-184 0,-165 38,-165 38,-184"/>
<text text-anchor="middle" x="19" y="-172" font-family="Helvetica,sans-Serif" font-size="10.00">map</text>
</a>
</g>
</g>
<!-- Node2&#45;&gt;Node3 -->
<g id="edge2" class="edge">
<title>Node2&#45;&gt;Node3</title>
<path fill="none" stroke="#63b8ff" d="M58.24,-219.75C51.53,-212.18 41.66,-201.05 33.49,-191.84"/>
<polygon fill="#63b8ff" stroke="#63b8ff" points="35.87,-189.25 26.62,-184.09 30.63,-193.89 35.87,-189.25"/>
</g>
<!-- Node4 -->
<g id="node4" class="node">
<title>Node4</title>
<g id="a_node4"><a xlink:title=" ">
<polygon fill="#e0e0e0" stroke="#999999" points="140,-19 96,-19 96,0 140,0 140,-19"/>
<text text-anchor="middle" x="118" y="-7" font-family="Helvetica,sans-Serif" font-size="10.00">string</text>
</a>
</g>
</g>
<!-- Node2&#45;&gt;Node4 -->
<g id="edge3" class="edge">
<title>Node2&#45;&gt;Node4</title>
<path fill="none" stroke="#63b8ff" d="M65.39,-219.82C63.89,-193.79 61.67,-114.53 85,-55 89.02,-44.74 96.05,-34.75 102.59,-26.85"/>
<polygon fill="#63b8ff" stroke="#63b8ff" points="105.37,-28.99 109.33,-19.17 100.11,-24.38 105.37,-28.99"/>
</g>
<!-- Node6 -->
<g id="node6" class="node">
<title>Node6</title>
<g id="a_node6"><a xlink:href="json_8h.html" target="_top" xlink:title=" ">
<polygon fill="white" stroke="#666666" points="245.5,-184 168.5,-184 168.5,-165 245.5,-165 245.5,-184"/>
<text text-anchor="middle" x="207" y="-172" font-family="Helvetica,sans-Serif" font-size="10.00">ccf/ds/json.h</text>
</a>
</g>
</g>
<!-- Node5&#45;&gt;Node6 -->
<g id="edge5" class="edge">
<title>Node5&#45;&gt;Node6</title>
<path fill="none" stroke="#63b8ff" d="M207,-219.75C207,-212.8 207,-202.85 207,-194.13"/>
<polygon fill="#63b8ff" stroke="#63b8ff" points="210.5,-194.09 207,-184.09 203.5,-194.09 210.5,-194.09"/>
</g>
<!-- Node20 -->
<g id="node20" class="node">
<title>Node20</title>
<g id="a_node20"><a xlink:href="http__status_8h.html" target="_top" xlink:title=" ">
<polygon fill="white" stroke="#666666" points="362,-184 264,-184 264,-165 362,-165 362,-184"/>
<text text-anchor="middle" x="313" y="-172" font-family="Helvetica,sans-Serif" font-size="10.00">ccf/http_status.h</text>
</a>
</g>
</g>
<!-- Node5&#45;&gt;Node20 -->
<g id="edge23" class="edge">
<title>Node5&#45;&gt;Node20</title>
<path fill="none" stroke="#63b8ff" d="M224.03,-219.98C240.93,-211.54 267.06,-198.47 286.64,-188.68"/>
<polygon fill="#63b8ff" stroke="#63b8ff" points="288.28,-191.77 295.66,-184.17 285.15,-185.51 288.28,-191.77"/>
</g>
<!-- Node7 -->
<g id="node7" class="node">
<title>Node7</title>
<g id="a_node7"><a xlink:href="include_2ccf_2crypto_2base64_8h.html" target="_top" xlink:title=" ">
<polygon fill="white" stroke="#666666" points="206,-74 94,-74 94,-55 206,-55 206,-74"/>
<text text-anchor="middle" x="150" y="-62" font-family="Helvetica,sans-Serif" font-size="10.00">ccf/crypto/base64.h</text>
</a>
</g>
</g>
<!-- Node6&#45;&gt;Node7 -->
<g id="edge6" class="edge">
<title>Node6&#45;&gt;Node7</title>
<path fill="none" stroke="#63b8ff" d="M197.91,-164.73C189.6,-156.27 177.51,-142.76 170,-129 162.29,-114.87 157.05,-97.33 153.88,-84.27"/>
<polygon fill="#63b8ff" stroke="#63b8ff" points="157.21,-83.13 151.61,-74.14 150.38,-84.66 157.21,-83.13"/>
</g>
<!-- Node9 -->
<g id="node9" class="node">
<title>Node9</title>
<g id="a_node9"><a xlink:href="include_2ccf_2ds_2json__schema_8h.html" target="_top" xlink:title=" ">
<polygon fill="white" stroke="#666666" points="427.5,-129 306.5,-129 306.5,-110 427.5,-110 427.5,-129"/>
<text text-anchor="middle" x="367" y="-117" font-family="Helvetica,sans-Serif" font-size="10.00">ccf/ds/json_schema.h</text>
</a>
</g>
</g>
<!-- Node6&#45;&gt;Node9 -->
<g id="edge9" class="edge">
<title>Node6&#45;&gt;Node9</title>
<path fill="none" stroke="#63b8ff" d="M232.71,-164.98C259.45,-156.13 301.53,-142.19 331.45,-132.28"/>
<polygon fill="#63b8ff" stroke="#63b8ff" points="332.7,-135.55 341.09,-129.08 330.5,-128.9 332.7,-135.55"/>
</g>
<!-- Node17 -->
<g id="node17" class="node">
<title>Node17</title>
<g id="a_node17"><a xlink:title=" ">
<polygon fill="#e0e0e0" stroke="#999999" points="303.5,-74 224.5,-74 224.5,-55 303.5,-55 303.5,-74"/>
<text text-anchor="middle" x="264" y="-62" font-family="Helvetica,sans-Serif" font-size="10.00">fmt/format.h</text>
</a>
</g>
</g>
<!-- Node6&#45;&gt;Node17 -->
<g id="edge21" class="edge">
<title>Node6&#45;&gt;Node17</title>
<path fill="none" stroke="#63b8ff" d="M216.09,-164.73C224.4,-156.27 236.49,-142.76 244,-129 251.71,-114.87 256.95,-97.33 260.12,-84.27"/>
<polygon fill="#63b8ff" stroke="#63b8ff" points="263.62,-84.66 262.39,-74.14 256.79,-83.13 263.62,-84.66"/>
</g>
<!-- Node19 -->
<g id="node19" class="node">
<title>Node19</title>
<g id="a_node19"><a xlink:title=" ">
<polygon fill="#e0e0e0" stroke="#999999" points="235,-129 179,-129 179,-110 235,-110 235,-129"/>
<text text-anchor="middle" x="207" y="-117" font-family="Helvetica,sans-Serif" font-size="10.00">sstream</text>
</a>
</g>
</g>
<!-- Node6&#45;&gt;Node19 -->
<g id="edge22" class="edge">
<title>Node6&#45;&gt;Node19</title>
<path fill="none" stroke="#63b8ff" d="M207,-164.75C207,-157.8 207,-147.85 207,-139.13"/>
<polygon fill="#63b8ff" stroke="#63b8ff" points="210.5,-139.09 207,-129.09 203.5,-139.09 210.5,-139.09"/>
</g>
<!-- Node7&#45;&gt;Node4 -->
<g id="edge7" class="edge">
<title>Node7&#45;&gt;Node4</title>
<path fill="none" stroke="#63b8ff" d="M144.72,-54.75C140.29,-47.42 133.84,-36.73 128.38,-27.7"/>
<polygon fill="#63b8ff" stroke="#63b8ff" points="131.35,-25.84 123.19,-19.09 125.36,-29.46 131.35,-25.84"/>
</g>
<!-- Node8 -->
<g id="node8" class="node">
<title>Node8</title>
<g id="a_node8"><a xlink:title=" ">
<polygon fill="#e0e0e0" stroke="#999999" points="205.5,-19 158.5,-19 158.5,0 205.5,0 205.5,-19"/>
<text text-anchor="middle" x="182" y="-7" font-family="Helvetica,sans-Serif" font-size="10.00">vector</text>
</a>
</g>
</g>
<!-- Node7&#45;&gt;Node8 -->
<g id="edge8" class="edge">
<title>Node7&#45;&gt;Node8</title>
<path fill="none" stroke="#63b8ff" d="M155.28,-54.75C159.71,-47.42 166.16,-36.73 171.62,-27.7"/>
<polygon fill="#63b8ff" stroke="#63b8ff" points="174.64,-29.46 176.81,-19.09 168.65,-25.84 174.64,-29.46"/>
</g>
<!-- Node10 -->
<g id="node10" class="node">
<title>Node10</title>
<g id="a_node10"><a xlink:href="nonstd_8h.html" target="_top" xlink:title=" ">
<polygon fill="white" stroke="#666666" points="412,-74 322,-74 322,-55 412,-55 412,-74"/>
<text text-anchor="middle" x="367" y="-62" font-family="Helvetica,sans-Serif" font-size="10.00">ccf/ds/nonstd.h</text>
</a>
</g>
</g>
<!-- Node9&#45;&gt;Node10 -->
<g id="edge10" class="edge">
<title>Node9&#45;&gt;Node10</title>
<path fill="none" stroke="#63b8ff" d="M367,-109.75C367,-102.8 367,-92.85 367,-84.13"/>
<polygon fill="#63b8ff" stroke="#63b8ff" points="370.5,-84.09 367,-74.09 363.5,-84.09 370.5,-84.09"/>
</g>
<!-- Node16 -->
<g id="node16" class="node">
<title>Node16</title>
<g id="a_node16"><a xlink:title=" ">
<polygon fill="#e0e0e0" stroke="#999999" points="614,-74 558,-74 558,-55 614,-55 614,-74"/>
<text text-anchor="middle" x="586" y="-62" font-family="Helvetica,sans-Serif" font-size="10.00">optional</text>
</a>
</g>
</g>
<!-- Node9&#45;&gt;Node16 -->
<g id="edge18" class="edge">
<title>Node9&#45;&gt;Node16</title>
<path fill="none" stroke="#63b8ff" d="M402.19,-109.98C442.09,-100.33 506.93,-84.64 547.97,-74.7"/>
<polygon fill="#63b8ff" stroke="#63b8ff" points="548.97,-78.06 557.86,-72.31 547.32,-71.26 548.97,-78.06"/>
</g>
<!-- Node9&#45;&gt;Node17 -->
<g id="edge19" class="edge">
<title>Node9&#45;&gt;Node17</title>
<path fill="none" stroke="#63b8ff" d="M350.45,-109.98C334.11,-101.57 308.87,-88.59 289.87,-78.81"/>
<polygon fill="#63b8ff" stroke="#63b8ff" points="291.34,-75.63 280.85,-74.17 288.14,-81.86 291.34,-75.63"/>
</g>
<!-- Node18 -->
<g id="node18" class="node">
<title>Node18</title>
<g id="a_node18"><a xlink:title=" ">
<polygon fill="#e0e0e0" stroke="#999999" points="540,-74 430,-74 430,-55 540,-55 540,-74"/>
<text text-anchor="middle" x="485" y="-62" font-family="Helvetica,sans-Serif" font-size="10.00">nlohmann/json.hpp</text>
</a>
</g>
</g>
<!-- Node9&#45;&gt;Node18 -->
<g id="edge20" class="edge">
<title>Node9&#45;&gt;Node18</title>
<path fill="none" stroke="#63b8ff" d="M385.96,-109.98C405.03,-101.42 434.66,-88.11 456.55,-78.28"/>
<polygon fill="#63b8ff" stroke="#63b8ff" points="458.01,-81.46 465.7,-74.17 455.14,-75.07 458.01,-81.46"/>
</g>
<!-- Node10&#45;&gt;Node4 -->
<g id="edge14" class="edge">
<title>Node10&#45;&gt;Node4</title>
<path fill="none" stroke="#63b8ff" d="M321.72,-55.16C279.65,-47.22 215.05,-34.5 150.28,-19.18"/>
<polygon fill="#63b8ff" stroke="#63b8ff" points="150.84,-15.72 140.31,-16.81 149.22,-22.53 150.84,-15.72"/>
</g>
<!-- Node10&#45;&gt;Node8 -->
<g id="edge17" class="edge">
<title>Node10&#45;&gt;Node8</title>
<path fill="none" stroke="#63b8ff" d="M337.28,-54.98C304,-45.45 250.19,-30.03 215.46,-20.09"/>
<polygon fill="#63b8ff" stroke="#63b8ff" points="216.35,-16.7 205.77,-17.31 214.42,-23.43 216.35,-16.7"/>
</g>
<!-- Node11 -->
<g id="node11" class="node">
<title>Node11</title>
<g id="a_node11"><a xlink:title=" ">
<polygon fill="#e0e0e0" stroke="#999999" points="533,-19 469,-19 469,0 533,0 533,-19"/>
<text text-anchor="middle" x="501" y="-7" font-family="Helvetica,sans-Serif" font-size="10.00">algorithm</text>
</a>
</g>
</g>
<!-- Node10&#45;&gt;Node11 -->
<g id="edge11" class="edge">
<title>Node10&#45;&gt;Node11</title>
<path fill="none" stroke="#63b8ff" d="M388.53,-54.98C410.47,-46.3 444.74,-32.75 469.69,-22.88"/>
<polygon fill="#63b8ff" stroke="#63b8ff" points="471.07,-26.1 479.08,-19.17 468.49,-19.59 471.07,-26.1"/>
</g>
<!-- Node12 -->
<g id="node12" class="node">
<title>Node12</title>
<g id="a_node12"><a xlink:title=" ">
<polygon fill="#e0e0e0" stroke="#999999" points="593,-19 551,-19 551,0 593,0 593,-19"/>
<text text-anchor="middle" x="572" y="-7" font-family="Helvetica,sans-Serif" font-size="10.00">array</text>
</a>
</g>
</g>
<!-- Node10&#45;&gt;Node12 -->
<g id="edge12" class="edge">
<title>Node10&#45;&gt;Node12</title>
<path fill="none" stroke="#63b8ff" d="M401.6,-54.99C434.96,-46.73 487.08,-33.65 540.99,-19.22"/>
<polygon fill="#63b8ff" stroke="#63b8ff" points="541.96,-22.58 550.71,-16.61 540.15,-15.82 541.96,-22.58"/>
</g>
<!-- Node13 -->
<g id="node13" class="node">
<title>Node13</title>
<g id="a_node13"><a xlink:title=" ">
<polygon fill="#e0e0e0" stroke="#999999" points="272.5,-19 223.5,-19 223.5,0 272.5,0 272.5,-19"/>
<text text-anchor="middle" x="248" y="-7" font-family="Helvetica,sans-Serif" font-size="10.00">cctype</text>
</a>
</g>
</g>
<!-- Node10&#45;&gt;Node13 -->
<g id="edge13" class="edge">
<title>Node10&#45;&gt;Node13</title>
<path fill="none" stroke="#63b8ff" d="M347.88,-54.98C328.65,-46.42 298.77,-33.11 276.69,-23.28"/>
<polygon fill="#63b8ff" stroke="#63b8ff" points="278.03,-20.04 267.47,-19.17 275.18,-26.44 278.03,-20.04"/>
</g>
<!-- Node14 -->
<g id="node14" class="node">
<title>Node14</title>
<g id="a_node14"><a xlink:title=" ">
<polygon fill="#e0e0e0" stroke="#999999" points="363.5,-19 290.5,-19 290.5,0 363.5,0 363.5,-19"/>
<text text-anchor="middle" x="327" y="-7" font-family="Helvetica,sans-Serif" font-size="10.00">string_view</text>
</a>
</g>
</g>
<!-- Node10&#45;&gt;Node14 -->
<g id="edge15" class="edge">
<title>Node10&#45;&gt;Node14</title>
<path fill="none" stroke="#63b8ff" d="M360.39,-54.75C354.74,-47.26 346.46,-36.28 339.55,-27.13"/>
<polygon fill="#63b8ff" stroke="#63b8ff" points="342.3,-24.96 333.48,-19.09 336.71,-29.18 342.3,-24.96"/>
</g>
<!-- Node15 -->
<g id="node15" class="node">
<title>Node15</title>
<g id="a_node15"><a xlink:title=" ">
<polygon fill="#e0e0e0" stroke="#999999" points="450.5,-19 381.5,-19 381.5,0 450.5,0 450.5,-19"/>
<text text-anchor="middle" x="416" y="-7" font-family="Helvetica,sans-Serif" font-size="10.00">type_traits</text>
</a>
</g>
</g>
<!-- Node10&#45;&gt;Node15 -->
<g id="edge16" class="edge">
<title>Node10&#45;&gt;Node15</title>
<path fill="none" stroke="#63b8ff" d="M375.09,-54.75C382.16,-47.11 392.59,-35.82 401.15,-26.56"/>
<polygon fill="#63b8ff" stroke="#63b8ff" points="403.84,-28.81 408.06,-19.09 398.7,-24.06 403.84,-28.81"/>
</g>
</g>
</svg>
