<?xml version="1.0" encoding="UTF-8" standalone="no"?>
<!DOCTYPE svg PUBLIC "-//W3C//DTD SVG 1.1//EN"
 "http://www.w3.org/Graphics/SVG/1.1/DTD/svg11.dtd">
<!-- Generated by graphviz version 2.43.0 (0)
 -->
<!-- Title: Graphical Class Hierarchy Pages: 1 -->
<svg width="733pt" height="148pt"
 viewBox="0.00 0.00 733.00 147.50" xmlns="http://www.w3.org/2000/svg" xmlns:xlink="http://www.w3.org/1999/xlink">
<g id="graph0" class="graph" transform="scale(1 1) rotate(0) translate(4 143.5)">
<title>Graphical Class Hierarchy</title>
<!-- Node0 -->
<g id="node1" class="node">
<title>Node0</title>
<g id="a_node1"><a xlink:href="classccf_1_1indexing_1_1Strategy.html" target="_top" xlink:title=" ">
<polygon fill="white" stroke="#666666" points="125,-40 0,-40 0,-21 125,-21 125,-40"/>
<text text-anchor="middle" x="62.5" y="-28" font-family="Helvetica,sans-Serif" font-size="10.00">ccf::indexing::Strategy</text>
</a>
</g>
</g>
<!-- Node1 -->
<g id="node2" class="node">
<title>Node1</title>
<g id="a_node2"><a xlink:href="classccf_1_1indexing_1_1strategies_1_1VisitEachEntryInMap.html" target="_top" xlink:title=" ">
<polygon fill="white" stroke="#666666" points="312.5,-67.5 179.5,-67.5 179.5,-37.5 312.5,-37.5 312.5,-67.5"/>
<text text-anchor="start" x="187.5" y="-55.5" font-family="Helvetica,sans-Serif" font-size="10.00">ccf::indexing::strategies</text>
<text text-anchor="middle" x="246" y="-44.5" font-family="Helvetica,sans-Serif" font-size="10.00">::VisitEachEntryInMap</text>
</a>
</g>
</g>
<!-- Node0&#45;&gt;Node1 -->
<g id="edge1" class="edge">
<title>Node0&#45;&gt;Node1</title>
<path fill="none" stroke="#63b8ff" d="M135.18,-39.19C149.78,-40.96 165.06,-42.81 179.44,-44.55"/>
<polygon fill="#63b8ff" stroke="#63b8ff" points="135.55,-35.71 125.2,-37.98 134.71,-42.66 135.55,-35.71"/>
</g>
<!-- Node7 -->
<g id="node8" class="node">
<title>Node7</title>
<g id="a_node8"><a xlink:href="classloggingapp_1_1CommittedRecords.html" target="_top" xlink:title=" ">
<polygon fill="white" stroke="#666666" points="331,-19 161,-19 161,0 331,0 331,-19"/>
<text text-anchor="middle" x="246" y="-7" font-family="Helvetica,sans-Serif" font-size="10.00">loggingapp::CommittedRecords</text>
</a>
</g>
</g>
<!-- Node0&#45;&gt;Node7 -->
<g id="edge7" class="edge">
<title>Node0&#45;&gt;Node7</title>
<path fill="none" stroke="#63b8ff" d="M135.21,-22.2C144.2,-21.16 153.45,-20.09 162.58,-19.04"/>
<polygon fill="#63b8ff" stroke="#63b8ff" points="134.73,-18.73 125.2,-23.36 135.54,-25.69 134.73,-18.73"/>
</g>
<!-- Node2 -->
<g id="node3" class="node">
<title>Node2</title>
<g id="a_node3"><a xlink:href="classccf_1_1indexing_1_1strategies_1_1SeqnosByKey__Bucketed__Untyped.html" target="_top" xlink:title=" ">
<polygon fill="white" stroke="#666666" points="508,-103 369,-103 369,-62 508,-62 508,-103"/>
<text text-anchor="start" x="377" y="-91" font-family="Helvetica,sans-Serif" font-size="10.00">ccf::indexing::strategies</text>
<text text-anchor="start" x="377" y="-80" font-family="Helvetica,sans-Serif" font-size="10.00">::SeqnosByKey_Bucketed</text>
<text text-anchor="middle" x="438.5" y="-69" font-family="Helvetica,sans-Serif" font-size="10.00">_Untyped</text>
</a>
</g>
</g>
<!-- Node1&#45;&gt;Node2 -->
<g id="edge2" class="edge">
<title>Node1&#45;&gt;Node2</title>
<path fill="none" stroke="#63b8ff" d="M322.5,-64.39C337.82,-66.8 353.84,-69.33 368.9,-71.7"/>
<polygon fill="#63b8ff" stroke="#63b8ff" points="322.98,-60.92 312.56,-62.82 321.89,-67.84 322.98,-60.92"/>
</g>
<!-- Node5 -->
<g id="node6" class="node">
<title>Node5</title>
<g id="a_node6"><a xlink:href="classccf_1_1indexing_1_1strategies_1_1SeqnosByKey__InMemory__Untyped.html" target="_top" xlink:title=" ">
<polygon fill="white" stroke="#666666" points="510,-44 367,-44 367,-3 510,-3 510,-44"/>
<text text-anchor="start" x="375" y="-32" font-family="Helvetica,sans-Serif" font-size="10.00">ccf::indexing::strategies</text>
<text text-anchor="start" x="375" y="-21" font-family="Helvetica,sans-Serif" font-size="10.00">::SeqnosByKey_InMemory</text>
<text text-anchor="middle" x="438.5" y="-10" font-family="Helvetica,sans-Serif" font-size="10.00">_Untyped</text>
</a>
</g>
</g>
<!-- Node1&#45;&gt;Node5 -->
<g id="edge5" class="edge">
<title>Node1&#45;&gt;Node5</title>
<path fill="none" stroke="#63b8ff" d="M322.57,-41C337.2,-38.77 352.48,-36.44 366.94,-34.24"/>
<polygon fill="#63b8ff" stroke="#63b8ff" points="321.92,-37.55 312.56,-42.52 322.97,-44.47 321.92,-37.55"/>
</g>
<!-- Node3 -->
<g id="node4" class="node">
<title>Node3</title>
<g id="a_node4"><a xlink:href="classccf_1_1indexing_1_1strategies_1_1SeqnosByKey__Bucketed.html" target="_top" xlink:title=" ">
<polygon fill="white" stroke="#666666" points="720.5,-139.5 550.5,-139.5 550.5,-109.5 720.5,-109.5 720.5,-139.5"/>
<text text-anchor="start" x="558.5" y="-127.5" font-family="Helvetica,sans-Serif" font-size="10.00">ccf::indexing::strategies</text>
<text text-anchor="middle" x="635.5" y="-116.5" font-family="Helvetica,sans-Serif" font-size="10.00">::SeqnosByKey_Bucketed&lt; M &gt;</text>
</a>
</g>
</g>
<!-- Node2&#45;&gt;Node3 -->
<g id="edge3" class="edge">
<title>Node2&#45;&gt;Node3</title>
<path fill="none" stroke="#63b8ff" d="M518.25,-99.46C533.63,-102.77 549.66,-106.23 564.73,-109.47"/>
<polygon fill="#63b8ff" stroke="#63b8ff" points="518.76,-95.99 508.25,-97.31 517.29,-102.83 518.76,-95.99"/>
</g>
<!-- Node4 -->
<g id="node5" class="node">
<title>Node4</title>
<g id="a_node5"><a xlink:href="classccf_1_1indexing_1_1strategies_1_1SeqnosForValue__Bucketed.html" target="_top" xlink:title=" ">
<polygon fill="white" stroke="#666666" points="725,-91.5 546,-91.5 546,-61.5 725,-61.5 725,-91.5"/>
<text text-anchor="start" x="554" y="-79.5" font-family="Helvetica,sans-Serif" font-size="10.00">ccf::indexing::strategies</text>
<text text-anchor="middle" x="635.5" y="-68.5" font-family="Helvetica,sans-Serif" font-size="10.00">::SeqnosForValue_Bucketed&lt; V &gt;</text>
</a>
</g>
</g>
<!-- Node2&#45;&gt;Node4 -->
<g id="edge4" class="edge">
<title>Node2&#45;&gt;Node4</title>
<path fill="none" stroke="#63b8ff" d="M518.36,-80.07C527.42,-79.79 536.7,-79.51 545.88,-79.23"/>
<polygon fill="#63b8ff" stroke="#63b8ff" points="518.14,-76.58 508.25,-80.38 518.35,-83.58 518.14,-76.58"/>
</g>
<!-- Node6 -->
<g id="node7" class="node">
<title>Node6</title>
<g id="a_node7"><a xlink:href="classccf_1_1indexing_1_1strategies_1_1SeqnosByKey__InMemory.html" target="_top" xlink:title=" ">
<polygon fill="white" stroke="#666666" points="723,-38.5 548,-38.5 548,-8.5 723,-8.5 723,-38.5"/>
<text text-anchor="start" x="556" y="-26.5" font-family="Helvetica,sans-Serif" font-size="10.00">ccf::indexing::strategies</text>
<text text-anchor="middle" x="635.5" y="-15.5" font-family="Helvetica,sans-Serif" font-size="10.00">::SeqnosByKey_InMemory&lt; M &gt;</text>
</a>
</g>
</g>
<!-- Node5&#45;&gt;Node6 -->
<g id="edge6" class="edge">
<title>Node5&#45;&gt;Node6</title>
<path fill="none" stroke="#63b8ff" d="M520.31,-23.5C529.37,-23.5 538.64,-23.5 547.77,-23.5"/>
<polygon fill="#63b8ff" stroke="#63b8ff" points="520.18,-20 510.18,-23.5 520.18,-27 520.18,-20"/>
</g>
</g>
</svg>
