<?xml version="1.0" encoding="UTF-8" standalone="no"?>
<!DOCTYPE svg PUBLIC "-//W3C//DTD SVG 1.1//EN"
 "http://www.w3.org/Graphics/SVG/1.1/DTD/svg11.dtd">
<!-- Generated by graphviz version 2.43.0 (0)
 -->
<!-- Title: include/ccf/node_startup_state.h Pages: 1 -->
<svg width="2410pt" height="665pt"
 viewBox="0.00 0.00 2410.00 665.00" xmlns="http://www.w3.org/2000/svg" xmlns:xlink="http://www.w3.org/1999/xlink">
<g id="graph0" class="graph" transform="scale(1 1) rotate(0) translate(4 661)">
<title>include/ccf/node_startup_state.h</title>
<!-- Node1 -->
<g id="node1" class="node">
<title>Node1</title>
<g id="a_node1"><a xlink:title=" ">
<polygon fill="#999999" stroke="#666666" points="1544,-657 1408,-657 1408,-627 1544,-627 1544,-657"/>
<text text-anchor="start" x="1416" y="-645" font-family="Helvetica,sans-Serif" font-size="10.00">include/ccf/node_startup</text>
<text text-anchor="middle" x="1476" y="-634" font-family="Helvetica,sans-Serif" font-size="10.00">_state.h</text>
</a>
</g>
</g>
<!-- Node2 -->
<g id="node2" class="node">
<title>Node2</title>
<g id="a_node2"><a xlink:href="node__call__types_8h.html" target="_top" xlink:title=" ">
<polygon fill="white" stroke="#666666" points="1931.5,-591 1806.5,-591 1806.5,-561 1931.5,-561 1931.5,-591"/>
<text text-anchor="start" x="1814.5" y="-579" font-family="Helvetica,sans-Serif" font-size="10.00">src/node/rpc/node_call</text>
<text text-anchor="middle" x="1869" y="-568" font-family="Helvetica,sans-Serif" font-size="10.00">_types.h</text>
</a>
</g>
</g>
<!-- Node1&#45;&gt;Node2 -->
<g id="edge1" class="edge">
<title>Node1&#45;&gt;Node2</title>
<path fill="none" stroke="#63b8ff" d="M1554.21,-628.26C1628.23,-616.21 1737.94,-598.34 1806.36,-587.2"/>
<polygon fill="#63b8ff" stroke="#63b8ff" points="1553.31,-624.86 1544.01,-629.93 1554.44,-631.77 1553.31,-624.86"/>
</g>
<!-- Node15 -->
<g id="node15" class="node">
<title>Node15</title>
<g id="a_node15"><a xlink:href="node__interface_8h.html" target="_top" xlink:title=" ">
<polygon fill="white" stroke="#666666" points="1450.5,-525 1289.5,-525 1289.5,-506 1450.5,-506 1450.5,-525"/>
<text text-anchor="middle" x="1370" y="-513" font-family="Helvetica,sans-Serif" font-size="10.00">src/node/rpc/node_interface.h</text>
</a>
</g>
</g>
<!-- Node1&#45;&gt;Node15 -->
<g id="edge22" class="edge">
<title>Node1&#45;&gt;Node15</title>
<path fill="none" stroke="#63b8ff" d="M1428.41,-622.44C1413.9,-614.69 1399.12,-604.33 1389,-591 1373.82,-571.01 1370.69,-540.2 1370.1,-525.25"/>
<polygon fill="#63b8ff" stroke="#63b8ff" points="1426.86,-625.58 1437.37,-626.93 1429.99,-619.32 1426.86,-625.58"/>
</g>
<!-- Node36 -->
<g id="node36" class="node">
<title>Node36</title>
<g id="a_node36"><a xlink:href="node__operation__interface_8h.html" target="_top" xlink:title=" ">
<polygon fill="white" stroke="#666666" points="1553.5,-591 1398.5,-591 1398.5,-561 1553.5,-561 1553.5,-591"/>
<text text-anchor="start" x="1406.5" y="-579" font-family="Helvetica,sans-Serif" font-size="10.00">src/node/rpc/node_operation</text>
<text text-anchor="middle" x="1476" y="-568" font-family="Helvetica,sans-Serif" font-size="10.00">_interface.h</text>
</a>
</g>
</g>
<!-- Node1&#45;&gt;Node36 -->
<g id="edge68" class="edge">
<title>Node1&#45;&gt;Node36</title>
<path fill="none" stroke="#63b8ff" d="M1476,-616.54C1476,-607.96 1476,-598.61 1476,-591.16"/>
<polygon fill="#63b8ff" stroke="#63b8ff" points="1472.5,-616.8 1476,-626.8 1479.5,-616.8 1472.5,-616.8"/>
</g>
<!-- Node3 -->
<g id="node3" class="node">
<title>Node3</title>
<g id="a_node3"><a xlink:href="call__types_8h.html" target="_top" xlink:title=" ">
<polygon fill="white" stroke="#666666" points="2043.5,-464.5 1906.5,-464.5 1906.5,-445.5 2043.5,-445.5 2043.5,-464.5"/>
<text text-anchor="middle" x="1975" y="-452.5" font-family="Helvetica,sans-Serif" font-size="10.00">src/node/rpc/call_types.h</text>
</a>
</g>
</g>
<!-- Node2&#45;&gt;Node3 -->
<g id="edge2" class="edge">
<title>Node2&#45;&gt;Node3</title>
<path fill="none" stroke="#63b8ff" d="M1888.38,-553.25C1912,-526.73 1950.79,-483.18 1967.24,-464.71"/>
<polygon fill="#63b8ff" stroke="#63b8ff" points="1885.61,-551.09 1881.58,-560.88 1890.84,-555.74 1885.61,-551.09"/>
</g>
<!-- Node4 -->
<g id="node4" class="node">
<title>Node4</title>
<g id="a_node4"><a xlink:href="common__endpoint__registry_8cpp.html" target="_top" xlink:title=" ">
<polygon fill="white" stroke="#666666" points="2402,-338 2274,-338 2274,-308 2402,-308 2402,-338"/>
<text text-anchor="start" x="2282" y="-326" font-family="Helvetica,sans-Serif" font-size="10.00">src/endpoints/common</text>
<text text-anchor="middle" x="2338" y="-315" font-family="Helvetica,sans-Serif" font-size="10.00">_endpoint_registry.cpp</text>
</a>
</g>
</g>
<!-- Node3&#45;&gt;Node4 -->
<g id="edge3" class="edge">
<title>Node3&#45;&gt;Node4</title>
<path fill="none" stroke="#63b8ff" d="M2026.3,-443.2C2065.19,-434.39 2119.67,-420.69 2166,-404 2219.14,-384.86 2278.27,-355.46 2311.52,-338.14"/>
<polygon fill="#63b8ff" stroke="#63b8ff" points="2025.25,-439.85 2016.26,-445.45 2026.78,-446.68 2025.25,-439.85"/>
</g>
<!-- Node5 -->
<g id="node5" class="node">
<title>Node5</title>
<g id="a_node5"><a xlink:href="wrap_8cpp.html" target="_top" xlink:title=" ">
<polygon fill="white" stroke="#666666" points="1020.5,-266.5 931.5,-266.5 931.5,-247.5 1020.5,-247.5 1020.5,-266.5"/>
<text text-anchor="middle" x="976" y="-254.5" font-family="Helvetica,sans-Serif" font-size="10.00">src/js/wrap.cpp</text>
</a>
</g>
</g>
<!-- Node3&#45;&gt;Node5 -->
<g id="edge4" class="edge">
<title>Node3&#45;&gt;Node5</title>
<path fill="none" stroke="#63b8ff" d="M1896.36,-444.33C1841,-436.39 1765.55,-423.29 1701,-404 1628.87,-382.45 1610.9,-374.4 1545,-338 1524.6,-326.73 1523.87,-316.03 1502,-308 1457.33,-291.6 1139.5,-268.93 1020.68,-260.94"/>
<polygon fill="#63b8ff" stroke="#63b8ff" points="1896.07,-447.82 1906.46,-445.75 1897.05,-440.89 1896.07,-447.82"/>
</g>
<!-- Node6 -->
<g id="node6" class="node">
<title>Node6</title>
<g id="a_node6"><a xlink:href="resharing_8h.html" target="_top" xlink:title=" ">
<polygon fill="white" stroke="#666666" points="2256,-332.5 2140,-332.5 2140,-313.5 2256,-313.5 2256,-332.5"/>
<text text-anchor="middle" x="2198" y="-320.5" font-family="Helvetica,sans-Serif" font-size="10.00">src/node/resharing.h</text>
</a>
</g>
</g>
<!-- Node3&#45;&gt;Node6 -->
<g id="edge5" class="edge">
<title>Node3&#45;&gt;Node6</title>
<path fill="none" stroke="#63b8ff" d="M2042.76,-443.2C2073.83,-435.85 2109.92,-423.73 2138,-404 2165.27,-384.84 2185.39,-349.42 2193.74,-332.91"/>
<polygon fill="#63b8ff" stroke="#63b8ff" points="2041.85,-439.81 2032.86,-445.42 2043.39,-446.64 2041.85,-439.81"/>
</g>
<!-- Node11 -->
<g id="node11" class="node">
<title>Node11</title>
<g id="a_node11"><a xlink:href="member__frontend_8h.html" target="_top" xlink:title=" ">
<polygon fill="white" stroke="#666666" points="1674,-338 1554,-338 1554,-308 1674,-308 1674,-338"/>
<text text-anchor="start" x="1562" y="-326" font-family="Helvetica,sans-Serif" font-size="10.00">src/node/rpc/member</text>
<text text-anchor="middle" x="1614" y="-315" font-family="Helvetica,sans-Serif" font-size="10.00">_frontend.h</text>
</a>
</g>
</g>
<!-- Node3&#45;&gt;Node11 -->
<g id="edge11" class="edge">
<title>Node3&#45;&gt;Node11</title>
<path fill="none" stroke="#63b8ff" d="M1916.44,-443.52C1874.83,-435.17 1818.05,-421.9 1770,-404 1720.8,-385.67 1667.07,-355.72 1637.26,-338.13"/>
<polygon fill="#63b8ff" stroke="#63b8ff" points="1915.92,-446.99 1926.41,-445.49 1917.28,-440.12 1915.92,-446.99"/>
</g>
<!-- Node12 -->
<g id="node12" class="node">
<title>Node12</title>
<g id="a_node12"><a xlink:href="serialization_8h.html" target="_top" xlink:title=" ">
<polygon fill="white" stroke="#666666" points="2129,-398.5 1981,-398.5 1981,-379.5 2129,-379.5 2129,-398.5"/>
<text text-anchor="middle" x="2055" y="-386.5" font-family="Helvetica,sans-Serif" font-size="10.00">src/node/rpc/serialization.h</text>
</a>
</g>
</g>
<!-- Node3&#45;&gt;Node12 -->
<g id="edge13" class="edge">
<title>Node3&#45;&gt;Node12</title>
<path fill="none" stroke="#63b8ff" d="M1993.77,-438.99C2009.43,-426.46 2031.2,-409.04 2044.13,-398.7"/>
<polygon fill="#63b8ff" stroke="#63b8ff" points="1991.41,-436.39 1985.79,-445.37 1995.78,-441.85 1991.41,-436.39"/>
</g>
<!-- Node7 -->
<g id="node7" class="node">
<title>Node7</title>
<g id="a_node7"><a xlink:href="node__state_8h.html" target="_top" xlink:title=" ">
<polygon fill="white" stroke="#666666" points="1879,-200.5 1755,-200.5 1755,-181.5 1879,-181.5 1879,-200.5"/>
<text text-anchor="middle" x="1817" y="-188.5" font-family="Helvetica,sans-Serif" font-size="10.00">src/node/node_state.h</text>
</a>
</g>
</g>
<!-- Node6&#45;&gt;Node7 -->
<g id="edge6" class="edge">
<title>Node6&#45;&gt;Node7</title>
<path fill="none" stroke="#63b8ff" d="M2180.65,-306.83C2158.75,-288.52 2119.18,-258.19 2080,-242 2014.49,-214.93 1933.7,-202.37 1879.08,-196.64"/>
<polygon fill="#63b8ff" stroke="#63b8ff" points="2178.51,-309.61 2188.4,-313.42 2183.05,-304.28 2178.51,-309.61"/>
</g>
<!-- Node8 -->
<g id="node8" class="node">
<title>Node8</title>
<g id="a_node8"><a xlink:href="src_2enclave_2enclave_8h.html" target="_top" xlink:title=" ">
<polygon fill="white" stroke="#666666" points="890,-74 768,-74 768,-55 890,-55 890,-74"/>
<text text-anchor="middle" x="829" y="-62" font-family="Helvetica,sans-Serif" font-size="10.00">src/enclave/enclave.h</text>
</a>
</g>
</g>
<!-- Node7&#45;&gt;Node8 -->
<g id="edge7" class="edge">
<title>Node7&#45;&gt;Node8</title>
<path fill="none" stroke="#63b8ff" d="M1763.99,-179.56C1676.89,-162.72 1497.86,-129.51 1345,-110 1181.33,-89.11 987.18,-75.3 890.33,-69.16"/>
<polygon fill="#63b8ff" stroke="#63b8ff" points="1763.42,-183.01 1773.9,-181.48 1764.75,-176.14 1763.42,-183.01"/>
</g>
<!-- Node10 -->
<g id="node10" class="node">
<title>Node10</title>
<g id="a_node10"><a xlink:href="gov__effects_8h.html" target="_top" xlink:title=" ">
<polygon fill="white" stroke="#666666" points="1811,-134.5 1667,-134.5 1667,-115.5 1811,-115.5 1811,-134.5"/>
<text text-anchor="middle" x="1739" y="-122.5" font-family="Helvetica,sans-Serif" font-size="10.00">src/node/rpc/gov_effects.h</text>
</a>
</g>
</g>
<!-- Node7&#45;&gt;Node10 -->
<g id="edge9" class="edge">
<title>Node7&#45;&gt;Node10</title>
<path fill="none" stroke="#63b8ff" d="M1798.7,-174.99C1783.43,-162.46 1762.2,-145.04 1749.6,-134.7"/>
<polygon fill="#63b8ff" stroke="#63b8ff" points="1796.53,-177.73 1806.48,-181.37 1800.97,-172.32 1796.53,-177.73"/>
</g>
<!-- Node9 -->
<g id="node9" class="node">
<title>Node9</title>
<g id="a_node9"><a xlink:href="enclave_2main_8cpp.html" target="_top" xlink:title=" ">
<polygon fill="white" stroke="#666666" points="889,-19 769,-19 769,0 889,0 889,-19"/>
<text text-anchor="middle" x="829" y="-7" font-family="Helvetica,sans-Serif" font-size="10.00">src/enclave/main.cpp</text>
</a>
</g>
</g>
<!-- Node8&#45;&gt;Node9 -->
<g id="edge8" class="edge">
<title>Node8&#45;&gt;Node9</title>
<path fill="none" stroke="#63b8ff" d="M829,-44.66C829,-35.93 829,-25.99 829,-19.09"/>
<polygon fill="#63b8ff" stroke="#63b8ff" points="825.5,-44.75 829,-54.75 832.5,-44.75 825.5,-44.75"/>
</g>
<!-- Node10&#45;&gt;Node8 -->
<g id="edge10" class="edge">
<title>Node10&#45;&gt;Node8</title>
<path fill="none" stroke="#63b8ff" d="M1656.6,-118.7C1476.12,-107.1 1049.33,-79.66 890.21,-69.43"/>
<polygon fill="#63b8ff" stroke="#63b8ff" points="1656.63,-122.21 1666.83,-119.36 1657.08,-115.23 1656.63,-122.21"/>
</g>
<!-- Node11&#45;&gt;Node8 -->
<g id="edge12" class="edge">
<title>Node11&#45;&gt;Node8</title>
<path fill="none" stroke="#63b8ff" d="M1543.87,-309.03C1541.89,-308.68 1539.93,-308.34 1538,-308 1439.95,-290.98 1412.62,-299.59 1317,-272 1124.31,-216.4 905.92,-105.75 845.33,-74.12"/>
<polygon fill="#63b8ff" stroke="#63b8ff" points="1543.41,-312.5 1553.87,-310.8 1544.63,-305.61 1543.41,-312.5"/>
</g>
<!-- Node12&#45;&gt;Node4 -->
<g id="edge14" class="edge">
<title>Node12&#45;&gt;Node4</title>
<path fill="none" stroke="#63b8ff" d="M2102.63,-377.23C2150.28,-366.45 2223.8,-349.83 2275.98,-338.02"/>
<polygon fill="#63b8ff" stroke="#63b8ff" points="2101.85,-373.82 2092.87,-379.44 2103.4,-380.64 2101.85,-373.82"/>
</g>
<!-- Node12&#45;&gt;Node6 -->
<g id="edge16" class="edge">
<title>Node12&#45;&gt;Node6</title>
<path fill="none" stroke="#63b8ff" d="M2083.61,-375.19C2111.8,-362.58 2154.08,-343.66 2178.56,-332.7"/>
<polygon fill="#63b8ff" stroke="#63b8ff" points="2081.98,-372.09 2074.29,-379.37 2084.84,-378.48 2081.98,-372.09"/>
</g>
<!-- Node12&#45;&gt;Node7 -->
<g id="edge15" class="edge">
<title>Node12&#45;&gt;Node7</title>
<path fill="none" stroke="#63b8ff" d="M2060.53,-369.56C2068.49,-338.84 2078.97,-277.1 2047,-242 2024.82,-217.64 1939.33,-204.13 1879.08,-197.47"/>
<polygon fill="#63b8ff" stroke="#63b8ff" points="2057.11,-368.8 2057.79,-379.37 2063.85,-370.68 2057.11,-368.8"/>
</g>
<!-- Node12&#45;&gt;Node11 -->
<g id="edge17" class="edge">
<title>Node12&#45;&gt;Node11</title>
<path fill="none" stroke="#63b8ff" d="M1970.73,-378.3C1895.18,-369.21 1781.4,-354.58 1683,-338 1680.11,-337.51 1677.15,-336.99 1674.17,-336.45"/>
<polygon fill="#63b8ff" stroke="#63b8ff" points="1970.33,-381.77 1980.67,-379.49 1971.16,-374.82 1970.33,-381.77"/>
</g>
<!-- Node13 -->
<g id="node13" class="node">
<title>Node13</title>
<g id="a_node13"><a xlink:href="node__frontend_8h.html" target="_top" xlink:title=" ">
<polygon fill="white" stroke="#666666" points="1850,-332.5 1692,-332.5 1692,-313.5 1850,-313.5 1850,-332.5"/>
<text text-anchor="middle" x="1771" y="-320.5" font-family="Helvetica,sans-Serif" font-size="10.00">src/node/rpc/node_frontend.h</text>
</a>
</g>
</g>
<!-- Node12&#45;&gt;Node13 -->
<g id="edge18" class="edge">
<title>Node12&#45;&gt;Node13</title>
<path fill="none" stroke="#63b8ff" d="M2006.98,-377.18C1951.07,-364.58 1859.89,-344.03 1808.78,-332.51"/>
<polygon fill="#63b8ff" stroke="#63b8ff" points="2006.47,-380.65 2016.99,-379.44 2008.01,-373.82 2006.47,-380.65"/>
</g>
<!-- Node13&#45;&gt;Node8 -->
<g id="edge19" class="edge">
<title>Node13&#45;&gt;Node8</title>
<path fill="none" stroke="#63b8ff" d="M1729.81,-310.78C1571.08,-267.56 1000.96,-112.32 860.46,-74.07"/>
<polygon fill="#63b8ff" stroke="#63b8ff" points="1729.09,-314.22 1739.66,-313.47 1730.93,-307.46 1729.09,-314.22"/>
</g>
<!-- Node14 -->
<g id="node14" class="node">
<title>Node14</title>
<g id="a_node14"><a xlink:href="jwt__key__auto__refresh_8h.html" target="_top" xlink:title=" ">
<polygon fill="white" stroke="#666666" points="1833.5,-272 1708.5,-272 1708.5,-242 1833.5,-242 1833.5,-272"/>
<text text-anchor="start" x="1716.5" y="-260" font-family="Helvetica,sans-Serif" font-size="10.00">src/node/jwt_key_auto</text>
<text text-anchor="middle" x="1771" y="-249" font-family="Helvetica,sans-Serif" font-size="10.00">_refresh.h</text>
</a>
</g>
</g>
<!-- Node13&#45;&gt;Node14 -->
<g id="edge20" class="edge">
<title>Node13&#45;&gt;Node14</title>
<path fill="none" stroke="#63b8ff" d="M1771,-303.35C1771,-293.47 1771,-281.51 1771,-272.36"/>
<polygon fill="#63b8ff" stroke="#63b8ff" points="1767.5,-303.37 1771,-313.37 1774.5,-303.37 1767.5,-303.37"/>
</g>
<!-- Node14&#45;&gt;Node7 -->
<g id="edge21" class="edge">
<title>Node14&#45;&gt;Node7</title>
<path fill="none" stroke="#63b8ff" d="M1787.09,-233.61C1795.2,-222.32 1804.58,-209.28 1810.64,-200.84"/>
<polygon fill="#63b8ff" stroke="#63b8ff" points="1784.2,-231.63 1781.21,-241.8 1789.89,-235.72 1784.2,-231.63"/>
</g>
<!-- Node15&#45;&gt;Node5 -->
<g id="edge23" class="edge">
<title>Node15&#45;&gt;Node5</title>
<path fill="none" stroke="#63b8ff" d="M1384.23,-497.69C1415.01,-459.25 1481.12,-363.93 1431,-308 1417.38,-292.8 1132.43,-269.78 1020.54,-261.29"/>
<polygon fill="#63b8ff" stroke="#63b8ff" points="1381.22,-495.84 1377.59,-505.79 1386.63,-500.28 1381.22,-495.84"/>
</g>
<!-- Node15&#45;&gt;Node11 -->
<g id="edge57" class="edge">
<title>Node15&#45;&gt;Node11</title>
<path fill="none" stroke="#63b8ff" d="M1425.87,-503.47C1450.78,-496.68 1479.51,-486.08 1502,-470 1552.93,-433.58 1591.53,-367.34 1606.82,-338.3"/>
<polygon fill="#63b8ff" stroke="#63b8ff" points="1424.98,-500.09 1416.18,-505.99 1426.74,-506.87 1424.98,-500.09"/>
</g>
<!-- Node15&#45;&gt;Node13 -->
<g id="edge65" class="edge">
<title>Node15&#45;&gt;Node13</title>
<path fill="none" stroke="#63b8ff" d="M1424.54,-503.69C1456.84,-496.29 1498.14,-485.08 1533,-470 1626.43,-429.57 1726.73,-357.23 1759.76,-332.53"/>
<polygon fill="#63b8ff" stroke="#63b8ff" points="1423.38,-500.36 1414.39,-505.96 1424.91,-507.19 1423.38,-500.36"/>
</g>
<!-- Node16 -->
<g id="node16" class="node">
<title>Node16</title>
<g id="a_node16"><a xlink:href="wrap_8h.html" target="_top" xlink:title=" ">
<polygon fill="white" stroke="#666666" points="1218,-398.5 1140,-398.5 1140,-379.5 1218,-379.5 1218,-398.5"/>
<text text-anchor="middle" x="1179" y="-386.5" font-family="Helvetica,sans-Serif" font-size="10.00">src/js/wrap.h</text>
</a>
</g>
</g>
<!-- Node15&#45;&gt;Node16 -->
<g id="edge24" class="edge">
<title>Node15&#45;&gt;Node16</title>
<path fill="none" stroke="#63b8ff" d="M1348.41,-500.43C1308.6,-474.47 1224.69,-419.78 1192.22,-398.62"/>
<polygon fill="#63b8ff" stroke="#63b8ff" points="1346.58,-503.41 1356.87,-505.94 1350.41,-497.55 1346.58,-503.41"/>
</g>
<!-- Node23 -->
<g id="node23" class="node">
<title>Node23</title>
<g id="a_node23"><a xlink:href="historical__queries_8h.html" target="_top" xlink:title=" ">
<polygon fill="white" stroke="#666666" points="238,-206 132,-206 132,-176 238,-176 238,-206"/>
<text text-anchor="start" x="140" y="-194" font-family="Helvetica,sans-Serif" font-size="10.00">src/node/historical</text>
<text text-anchor="middle" x="185" y="-183" font-family="Helvetica,sans-Serif" font-size="10.00">_queries.h</text>
</a>
</g>
</g>
<!-- Node15&#45;&gt;Node23 -->
<g id="edge40" class="edge">
<title>Node15&#45;&gt;Node23</title>
<path fill="none" stroke="#63b8ff" d="M1279.22,-513.03C1020.67,-508.55 296.1,-493.92 251,-470 211.97,-449.3 192,-434.18 192,-390 192,-390 192,-390 192,-322 192,-279.73 188.26,-229.85 186.25,-206.03"/>
<polygon fill="#63b8ff" stroke="#63b8ff" points="1279.27,-516.53 1289.33,-513.2 1279.39,-509.53 1279.27,-516.53"/>
</g>
<!-- Node25 -->
<g id="node25" class="node">
<title>Node25</title>
<g id="a_node25"><a xlink:href="node__configuration__subsystem_8h.html" target="_top" xlink:title=" ">
<polygon fill="white" stroke="#666666" points="1784,-470 1630,-470 1630,-440 1784,-440 1784,-470"/>
<text text-anchor="start" x="1638" y="-458" font-family="Helvetica,sans-Serif" font-size="10.00">src/node/node_configuration</text>
<text text-anchor="middle" x="1707" y="-447" font-family="Helvetica,sans-Serif" font-size="10.00">_subsystem.h</text>
</a>
</g>
</g>
<!-- Node15&#45;&gt;Node25 -->
<g id="edge44" class="edge">
<title>Node15&#45;&gt;Node25</title>
<path fill="none" stroke="#63b8ff" d="M1429.08,-504.24C1484.86,-494.56 1568.82,-479.99 1629.86,-469.39"/>
<polygon fill="#63b8ff" stroke="#63b8ff" points="1428.26,-500.83 1419,-505.99 1429.45,-507.73 1428.26,-500.83"/>
</g>
<!-- Node30 -->
<g id="node30" class="node">
<title>Node30</title>
<g id="a_node30"><a xlink:href="acme__subsystem_8h.html" target="_top" xlink:title=" ">
<polygon fill="white" stroke="#666666" points="429.5,-200.5 256.5,-200.5 256.5,-181.5 429.5,-181.5 429.5,-200.5"/>
<text text-anchor="middle" x="343" y="-188.5" font-family="Helvetica,sans-Serif" font-size="10.00">src/node/rpc/acme_subsystem.h</text>
</a>
</g>
</g>
<!-- Node15&#45;&gt;Node30 -->
<g id="edge55" class="edge">
<title>Node15&#45;&gt;Node30</title>
<path fill="none" stroke="#63b8ff" d="M1278.81,-512.81C1049.05,-508.22 458.64,-494.21 373,-470 302.92,-450.19 230,-462.83 230,-390 230,-390 230,-390 230,-322 230,-263.69 295.56,-218.78 326.81,-200.69"/>
<polygon fill="#63b8ff" stroke="#63b8ff" points="1279.07,-516.32 1289.14,-513.02 1279.21,-509.32 1279.07,-516.32"/>
</g>
<!-- Node31 -->
<g id="node31" class="node">
<title>Node31</title>
<g id="a_node31"><a xlink:href="network__identity__subsystem_8h.html" target="_top" xlink:title=" ">
<polygon fill="white" stroke="#666666" points="509.5,-470 382.5,-470 382.5,-440 509.5,-440 509.5,-470"/>
<text text-anchor="start" x="390.5" y="-458" font-family="Helvetica,sans-Serif" font-size="10.00">src/node/rpc/network</text>
<text text-anchor="middle" x="446" y="-447" font-family="Helvetica,sans-Serif" font-size="10.00">_identity_subsystem.h</text>
</a>
</g>
</g>
<!-- Node15&#45;&gt;Node31 -->
<g id="edge58" class="edge">
<title>Node15&#45;&gt;Node31</title>
<path fill="none" stroke="#63b8ff" d="M1279.16,-508.75C1092.65,-496.94 670.55,-470.22 509.8,-460.04"/>
<polygon fill="#63b8ff" stroke="#63b8ff" points="1279.01,-512.25 1289.21,-509.39 1279.46,-505.26 1279.01,-512.25"/>
</g>
<!-- Node35 -->
<g id="node35" class="node">
<title>Node35</title>
<g id="a_node35"><a xlink:href="node__operation_8h.html" target="_top" xlink:title=" ">
<polygon fill="white" stroke="#666666" points="164,-464.5 0,-464.5 0,-445.5 164,-445.5 164,-464.5"/>
<text text-anchor="middle" x="82" y="-452.5" font-family="Helvetica,sans-Serif" font-size="10.00">src/node/rpc/node_operation.h</text>
</a>
</g>
</g>
<!-- Node15&#45;&gt;Node35 -->
<g id="edge66" class="edge">
<title>Node15&#45;&gt;Node35</title>
<path fill="none" stroke="#63b8ff" d="M1279.08,-514.43C1079.41,-513.56 587.72,-507.41 178,-470 163.41,-468.67 147.65,-466.62 133.2,-464.51"/>
<polygon fill="#63b8ff" stroke="#63b8ff" points="1279.21,-517.93 1289.23,-514.47 1279.24,-510.93 1279.21,-517.93"/>
</g>
<!-- Node16&#45;&gt;Node5 -->
<g id="edge36" class="edge">
<title>Node16&#45;&gt;Node5</title>
<path fill="none" stroke="#63b8ff" d="M1129.56,-386.15C1059.43,-382.36 936.51,-371.07 909,-338 887.34,-311.96 933.07,-281.27 959.3,-266.63"/>
<polygon fill="#63b8ff" stroke="#63b8ff" points="1129.76,-389.66 1139.92,-386.67 1130.11,-382.67 1129.76,-389.66"/>
</g>
<!-- Node16&#45;&gt;Node7 -->
<g id="edge37" class="edge">
<title>Node16&#45;&gt;Node7</title>
<path fill="none" stroke="#63b8ff" d="M1228.47,-380.67C1279.7,-372.51 1361.8,-357.8 1431,-338 1504.88,-316.86 1725.95,-228.64 1795.68,-200.6"/>
<polygon fill="#63b8ff" stroke="#63b8ff" points="1227.67,-377.26 1218.33,-382.27 1228.75,-384.17 1227.67,-377.26"/>
</g>
<!-- Node16&#45;&gt;Node8 -->
<g id="edge26" class="edge">
<title>Node16&#45;&gt;Node8</title>
<path fill="none" stroke="#63b8ff" d="M1129.36,-386.75C1001.16,-383.06 666.39,-370.41 629,-338 601.38,-314.06 610,-294.54 610,-258 610,-258 610,-258 610,-190 610,-116.96 703.2,-86.23 768,-73.7"/>
<polygon fill="#63b8ff" stroke="#63b8ff" points="1129.57,-390.26 1139.67,-387.04 1129.77,-383.26 1129.57,-390.26"/>
</g>
<!-- Node16&#45;&gt;Node11 -->
<g id="edge38" class="edge">
<title>Node16&#45;&gt;Node11</title>
<path fill="none" stroke="#63b8ff" d="M1228.71,-380.69C1309.05,-368.87 1467.16,-345.6 1553.77,-332.86"/>
<polygon fill="#63b8ff" stroke="#63b8ff" points="1227.75,-377.29 1218.37,-382.21 1228.77,-384.21 1227.75,-377.29"/>
</g>
<!-- Node16&#45;&gt;Node13 -->
<g id="edge39" class="edge">
<title>Node16&#45;&gt;Node13</title>
<path fill="none" stroke="#63b8ff" d="M1228.53,-384.06C1318.99,-376.65 1516.91,-359.43 1683,-338 1695.27,-336.42 1708.47,-334.46 1720.81,-332.51"/>
<polygon fill="#63b8ff" stroke="#63b8ff" points="1227.98,-380.59 1218.3,-384.89 1228.55,-387.57 1227.98,-380.59"/>
</g>
<!-- Node17 -->
<g id="node17" class="node">
<title>Node17</title>
<g id="a_node17"><a xlink:href="js__generic__base_8cpp.html" target="_top" xlink:title=" ">
<polygon fill="white" stroke="#666666" points="1422,-338 1304,-338 1304,-308 1422,-308 1422,-338"/>
<text text-anchor="start" x="1312" y="-326" font-family="Helvetica,sans-Serif" font-size="10.00">src/apps/js_generic</text>
<text text-anchor="middle" x="1363" y="-315" font-family="Helvetica,sans-Serif" font-size="10.00">/js_generic_base.cpp</text>
</a>
</g>
</g>
<!-- Node16&#45;&gt;Node17 -->
<g id="edge25" class="edge">
<title>Node16&#45;&gt;Node17</title>
<path fill="none" stroke="#63b8ff" d="M1213.31,-376.07C1244.22,-365.31 1289.71,-349.49 1322.42,-338.12"/>
<polygon fill="#63b8ff" stroke="#63b8ff" points="1212.11,-372.78 1203.82,-379.37 1214.41,-379.39 1212.11,-372.78"/>
</g>
<!-- Node18 -->
<g id="node18" class="node">
<title>Node18</title>
<g id="a_node18"><a xlink:href="consensus_8cpp.html" target="_top" xlink:title=" ">
<polygon fill="white" stroke="#666666" points="1034,-332.5 918,-332.5 918,-313.5 1034,-313.5 1034,-332.5"/>
<text text-anchor="middle" x="976" y="-320.5" font-family="Helvetica,sans-Serif" font-size="10.00">src/js/consensus.cpp</text>
</a>
</g>
</g>
<!-- Node16&#45;&gt;Node18 -->
<g id="edge27" class="edge">
<title>Node16&#45;&gt;Node18</title>
<path fill="none" stroke="#63b8ff" d="M1141.96,-376.32C1101.92,-363.7 1039.03,-343.87 1003.27,-332.6"/>
<polygon fill="#63b8ff" stroke="#63b8ff" points="1141.03,-379.7 1151.62,-379.37 1143.14,-373.02 1141.03,-379.7"/>
</g>
<!-- Node19 -->
<g id="node19" class="node">
<title>Node19</title>
<g id="a_node19"><a xlink:href="conv_8cpp.html" target="_top" xlink:title=" ">
<polygon fill="white" stroke="#666666" points="1286,-332.5 1198,-332.5 1198,-313.5 1286,-313.5 1286,-332.5"/>
<text text-anchor="middle" x="1242" y="-320.5" font-family="Helvetica,sans-Serif" font-size="10.00">src/js/conv.cpp</text>
</a>
</g>
</g>
<!-- Node16&#45;&gt;Node19 -->
<g id="edge29" class="edge">
<title>Node16&#45;&gt;Node19</title>
<path fill="none" stroke="#63b8ff" d="M1194.77,-371.98C1206.94,-359.62 1223.31,-342.99 1233.23,-332.91"/>
<polygon fill="#63b8ff" stroke="#63b8ff" points="1192.02,-369.79 1187.5,-379.37 1197.01,-374.7 1192.02,-369.79"/>
</g>
<!-- Node20 -->
<g id="node20" class="node">
<title>Node20</title>
<g id="a_node20"><a xlink:href="crypto_8cpp.html" target="_top" xlink:title=" ">
<polygon fill="white" stroke="#666666" points="734,-332.5 638,-332.5 638,-313.5 734,-313.5 734,-332.5"/>
<text text-anchor="middle" x="686" y="-320.5" font-family="Helvetica,sans-Serif" font-size="10.00">src/js/crypto.cpp</text>
</a>
</g>
</g>
<!-- Node16&#45;&gt;Node20 -->
<g id="edge31" class="edge">
<title>Node16&#45;&gt;Node20</title>
<path fill="none" stroke="#63b8ff" d="M1129.57,-384.38C1048.41,-377.99 882.06,-362.95 743,-338 734.78,-336.52 725.97,-334.56 717.8,-332.57"/>
<polygon fill="#63b8ff" stroke="#63b8ff" points="1129.73,-387.91 1139.97,-385.19 1130.27,-380.93 1129.73,-387.91"/>
</g>
<!-- Node21 -->
<g id="node21" class="node">
<title>Node21</title>
<g id="a_node21"><a xlink:href="historical_8cpp.html" target="_top" xlink:title=" ">
<polygon fill="white" stroke="#666666" points="862,-332.5 752,-332.5 752,-313.5 862,-313.5 862,-332.5"/>
<text text-anchor="middle" x="807" y="-320.5" font-family="Helvetica,sans-Serif" font-size="10.00">src/js/historical.cpp</text>
</a>
</g>
</g>
<!-- Node16&#45;&gt;Node21 -->
<g id="edge33" class="edge">
<title>Node16&#45;&gt;Node21</title>
<path fill="none" stroke="#63b8ff" d="M1129.74,-380.44C1069.7,-371.09 965.22,-354.41 876,-338 866.86,-336.32 857.07,-334.4 847.82,-332.54"/>
<polygon fill="#63b8ff" stroke="#63b8ff" points="1129.28,-383.91 1139.7,-381.99 1130.35,-376.99 1129.28,-383.91"/>
</g>
<!-- Node22 -->
<g id="node22" class="node">
<title>Node22</title>
<g id="a_node22"><a xlink:href="openenclave_8cpp.html" target="_top" xlink:title=" ">
<polygon fill="white" stroke="#666666" points="1180,-332.5 1052,-332.5 1052,-313.5 1180,-313.5 1180,-332.5"/>
<text text-anchor="middle" x="1116" y="-320.5" font-family="Helvetica,sans-Serif" font-size="10.00">src/js/openenclave.cpp</text>
</a>
</g>
</g>
<!-- Node16&#45;&gt;Node22 -->
<g id="edge35" class="edge">
<title>Node16&#45;&gt;Node22</title>
<path fill="none" stroke="#63b8ff" d="M1163.23,-371.98C1151.06,-359.62 1134.69,-342.99 1124.77,-332.91"/>
<polygon fill="#63b8ff" stroke="#63b8ff" points="1160.99,-374.7 1170.5,-379.37 1165.98,-369.79 1160.99,-374.7"/>
</g>
<!-- Node18&#45;&gt;Node5 -->
<g id="edge28" class="edge">
<title>Node18&#45;&gt;Node5</title>
<path fill="none" stroke="#63b8ff" d="M976,-303.08C976,-291.13 976,-276.22 976,-266.91"/>
<polygon fill="#63b8ff" stroke="#63b8ff" points="972.5,-303.37 976,-313.37 979.5,-303.37 972.5,-303.37"/>
</g>
<!-- Node19&#45;&gt;Node5 -->
<g id="edge30" class="edge">
<title>Node19&#45;&gt;Node5</title>
<path fill="none" stroke="#63b8ff" d="M1200.66,-310.96C1196.72,-309.95 1192.79,-308.94 1189,-308 1127.82,-292.74 1056.42,-276.25 1013.78,-266.54"/>
<polygon fill="#63b8ff" stroke="#63b8ff" points="1199.81,-314.36 1210.37,-313.49 1201.57,-307.58 1199.81,-314.36"/>
</g>
<!-- Node20&#45;&gt;Node5 -->
<g id="edge32" class="edge">
<title>Node20&#45;&gt;Node5</title>
<path fill="none" stroke="#63b8ff" d="M730.1,-311.03C734.45,-309.99 738.81,-308.96 743,-308 809.73,-292.65 887.56,-276.25 934.25,-266.57"/>
<polygon fill="#63b8ff" stroke="#63b8ff" points="728.92,-307.72 720.02,-313.47 730.56,-314.52 728.92,-307.72"/>
</g>
<!-- Node21&#45;&gt;Node5 -->
<g id="edge34" class="edge">
<title>Node21&#45;&gt;Node5</title>
<path fill="none" stroke="#63b8ff" d="M839.54,-309.68C872.94,-297.03 924.03,-277.68 953.3,-266.6"/>
<polygon fill="#63b8ff" stroke="#63b8ff" points="837.9,-306.55 829.79,-313.37 840.38,-313.1 837.9,-306.55"/>
</g>
<!-- Node23&#45;&gt;Node8 -->
<g id="edge41" class="edge">
<title>Node23&#45;&gt;Node8</title>
<path fill="none" stroke="#63b8ff" d="M229.46,-172.18C285.51,-149.82 376.55,-113.93 393,-110 524.18,-78.67 682.72,-69.39 767.85,-66.65"/>
<polygon fill="#63b8ff" stroke="#63b8ff" points="228.1,-168.95 220.11,-175.91 230.69,-175.45 228.1,-168.95"/>
</g>
<!-- Node24 -->
<g id="node24" class="node">
<title>Node24</title>
<g id="a_node24"><a xlink:href="historical__transaction__fetcher_8h.html" target="_top" xlink:title=" ">
<polygon fill="white" stroke="#666666" points="300.5,-140 175.5,-140 175.5,-110 300.5,-110 300.5,-140"/>
<text text-anchor="start" x="183.5" y="-128" font-family="Helvetica,sans-Serif" font-size="10.00">src/indexing/historical</text>
<text text-anchor="middle" x="238" y="-117" font-family="Helvetica,sans-Serif" font-size="10.00">_transaction_fetcher.h</text>
</a>
</g>
</g>
<!-- Node23&#45;&gt;Node24 -->
<g id="edge42" class="edge">
<title>Node23&#45;&gt;Node24</title>
<path fill="none" stroke="#63b8ff" d="M203.15,-168.09C210.8,-158.85 219.48,-148.36 226.27,-140.16"/>
<polygon fill="#63b8ff" stroke="#63b8ff" points="200.44,-165.86 196.76,-175.8 205.84,-170.33 200.44,-165.86"/>
</g>
<!-- Node24&#45;&gt;Node8 -->
<g id="edge43" class="edge">
<title>Node24&#45;&gt;Node8</title>
<path fill="none" stroke="#63b8ff" d="M311.08,-111.73C315.45,-111.11 319.78,-110.53 324,-110 483.6,-90.01 672.68,-75.88 767.82,-69.43"/>
<polygon fill="#63b8ff" stroke="#63b8ff" points="310.25,-108.31 300.86,-113.22 311.26,-115.24 310.25,-108.31"/>
</g>
<!-- Node26 -->
<g id="node26" class="node">
<title>Node26</title>
<g id="a_node26"><a xlink:href="frontend_8h.html" target="_top" xlink:title=" ">
<polygon fill="white" stroke="#666666" points="1908.5,-398.5 1779.5,-398.5 1779.5,-379.5 1908.5,-379.5 1908.5,-398.5"/>
<text text-anchor="middle" x="1844" y="-386.5" font-family="Helvetica,sans-Serif" font-size="10.00">src/node/rpc/frontend.h</text>
</a>
</g>
</g>
<!-- Node25&#45;&gt;Node26 -->
<g id="edge45" class="edge">
<title>Node25&#45;&gt;Node26</title>
<path fill="none" stroke="#63b8ff" d="M1746.34,-435.62C1772.49,-423.41 1805.6,-407.94 1825.77,-398.52"/>
<polygon fill="#63b8ff" stroke="#63b8ff" points="1744.64,-432.55 1737.07,-439.95 1747.61,-438.89 1744.64,-432.55"/>
</g>
<!-- Node26&#45;&gt;Node7 -->
<g id="edge50" class="edge">
<title>Node26&#45;&gt;Node7</title>
<path fill="none" stroke="#63b8ff" d="M1850.92,-369.61C1854.06,-360.29 1857.43,-348.7 1859,-338 1860.94,-324.81 1860.68,-321.23 1859,-308 1855.19,-277.95 1852.61,-270.37 1842,-242 1836.36,-226.91 1827.52,-210.37 1822,-200.6"/>
<polygon fill="#63b8ff" stroke="#63b8ff" points="1847.52,-368.73 1847.45,-379.32 1854.11,-371.09 1847.52,-368.73"/>
</g>
<!-- Node26&#45;&gt;Node11 -->
<g id="edge51" class="edge">
<title>Node26&#45;&gt;Node11</title>
<path fill="none" stroke="#63b8ff" d="M1803.11,-376.62C1764.45,-365.86 1706.33,-349.69 1664.73,-338.12"/>
<polygon fill="#63b8ff" stroke="#63b8ff" points="1802.41,-380.06 1812.98,-379.37 1804.29,-373.32 1802.41,-380.06"/>
</g>
<!-- Node26&#45;&gt;Node13 -->
<g id="edge52" class="edge">
<title>Node26&#45;&gt;Node13</title>
<path fill="none" stroke="#63b8ff" d="M1826.52,-372.68C1812.36,-360.26 1792.88,-343.18 1781.16,-332.91"/>
<polygon fill="#63b8ff" stroke="#63b8ff" points="1824.33,-375.41 1834.15,-379.37 1828.94,-370.14 1824.33,-375.41"/>
</g>
<!-- Node27 -->
<g id="node27" class="node">
<title>Node27</title>
<g id="a_node27"><a xlink:href="acme__challenge__frontend_8h.html" target="_top" xlink:title=" ">
<polygon fill="white" stroke="#666666" points="2046,-338 1906,-338 1906,-308 2046,-308 2046,-338"/>
<text text-anchor="start" x="1914" y="-326" font-family="Helvetica,sans-Serif" font-size="10.00">src/node/acme_challenge</text>
<text text-anchor="middle" x="1976" y="-315" font-family="Helvetica,sans-Serif" font-size="10.00">_frontend.h</text>
</a>
</g>
</g>
<!-- Node26&#45;&gt;Node27 -->
<g id="edge46" class="edge">
<title>Node26&#45;&gt;Node27</title>
<path fill="none" stroke="#63b8ff" d="M1870.95,-374.93C1893.04,-364.22 1924.23,-349.1 1946.89,-338.12"/>
<polygon fill="#63b8ff" stroke="#63b8ff" points="1869.27,-371.86 1861.8,-379.37 1872.33,-378.16 1869.27,-371.86"/>
</g>
<!-- Node29 -->
<g id="node29" class="node">
<title>Node29</title>
<g id="a_node29"><a xlink:href="user__frontend_8h.html" target="_top" xlink:title=" ">
<polygon fill="white" stroke="#666666" points="2287.5,-134.5 2132.5,-134.5 2132.5,-115.5 2287.5,-115.5 2287.5,-134.5"/>
<text text-anchor="middle" x="2210" y="-122.5" font-family="Helvetica,sans-Serif" font-size="10.00">src/node/rpc/user_frontend.h</text>
</a>
</g>
</g>
<!-- Node26&#45;&gt;Node29 -->
<g id="edge53" class="edge">
<title>Node26&#45;&gt;Node29</title>
<path fill="none" stroke="#63b8ff" d="M1918.85,-380.87C1961.03,-374.33 2013.43,-361.84 2055,-338 2141.62,-288.33 2193.47,-168.49 2206.65,-134.89"/>
<polygon fill="#63b8ff" stroke="#63b8ff" points="1918.3,-377.41 1908.91,-382.33 1919.31,-384.34 1918.3,-377.41"/>
</g>
<!-- Node27&#45;&gt;Node8 -->
<g id="edge47" class="edge">
<title>Node27&#45;&gt;Node8</title>
<path fill="none" stroke="#63b8ff" d="M2017.11,-302.62C2028.94,-294.87 2040.41,-284.71 2047,-272 2053.14,-260.16 2053.65,-253.56 2047,-242 1988.8,-140.84 1931.97,-142.9 1820,-110 1731.19,-83.9 1092.56,-70.25 890.28,-66.55"/>
<polygon fill="#63b8ff" stroke="#63b8ff" points="2015.24,-299.66 2008.51,-307.84 2018.87,-305.65 2015.24,-299.66"/>
</g>
<!-- Node28 -->
<g id="node28" class="node">
<title>Node28</title>
<g id="a_node28"><a xlink:href="ccf__acme__client_8h.html" target="_top" xlink:title=" ">
<polygon fill="white" stroke="#666666" points="2038.5,-266.5 1889.5,-266.5 1889.5,-247.5 2038.5,-247.5 2038.5,-266.5"/>
<text text-anchor="middle" x="1964" y="-254.5" font-family="Helvetica,sans-Serif" font-size="10.00">src/node/ccf_acme_client.h</text>
</a>
</g>
</g>
<!-- Node27&#45;&gt;Node28 -->
<g id="edge48" class="edge">
<title>Node27&#45;&gt;Node28</title>
<path fill="none" stroke="#63b8ff" d="M1971.49,-297.94C1969.45,-287.06 1967.16,-274.86 1965.66,-266.84"/>
<polygon fill="#63b8ff" stroke="#63b8ff" points="1968.05,-298.61 1973.34,-307.8 1974.93,-297.32 1968.05,-298.61"/>
</g>
<!-- Node28&#45;&gt;Node7 -->
<g id="edge49" class="edge">
<title>Node28&#45;&gt;Node7</title>
<path fill="none" stroke="#63b8ff" d="M1934.96,-243.36C1906,-230.75 1862.26,-211.71 1836.98,-200.7"/>
<polygon fill="#63b8ff" stroke="#63b8ff" points="1933.61,-246.59 1944.17,-247.37 1936.4,-240.17 1933.61,-246.59"/>
</g>
<!-- Node29&#45;&gt;Node8 -->
<g id="edge54" class="edge">
<title>Node29&#45;&gt;Node8</title>
<path fill="none" stroke="#63b8ff" d="M2151.04,-113.99C2140.08,-112.42 2128.72,-111 2118,-110 1647.01,-66.18 1075.6,-64.38 890.22,-65.09"/>
<polygon fill="#63b8ff" stroke="#63b8ff" points="2150.55,-117.45 2160.95,-115.45 2151.57,-110.53 2150.55,-117.45"/>
</g>
<!-- Node30&#45;&gt;Node8 -->
<g id="edge56" class="edge">
<title>Node30&#45;&gt;Node8</title>
<path fill="none" stroke="#63b8ff" d="M357.68,-173.86C375.91,-155 408.89,-124.53 444,-110 501.12,-86.36 674.59,-73.73 767.96,-68.48"/>
<polygon fill="#63b8ff" stroke="#63b8ff" points="354.91,-171.7 350.61,-181.38 360.01,-176.5 354.91,-171.7"/>
</g>
<!-- Node31&#45;&gt;Node8 -->
<g id="edge60" class="edge">
<title>Node31&#45;&gt;Node8</title>
<path fill="none" stroke="#63b8ff" d="M397.35,-436C339.51,-411.6 254.61,-364.52 287,-308 308.64,-270.24 584.46,-125.83 625,-110 671.26,-91.93 726.43,-80.46 767.73,-73.7"/>
<polygon fill="#63b8ff" stroke="#63b8ff" points="396.16,-439.29 406.74,-439.86 398.82,-432.82 396.16,-439.29"/>
</g>
<!-- Node32 -->
<g id="node32" class="node">
<title>Node32</title>
<g id="a_node32"><a xlink:href="external__executor_8cpp.html" target="_top" xlink:title=" ">
<polygon fill="white" stroke="#666666" points="444,-338 296,-338 296,-308 444,-308 444,-338"/>
<text text-anchor="start" x="304" y="-326" font-family="Helvetica,sans-Serif" font-size="10.00">src/apps/external_executor</text>
<text text-anchor="middle" x="370" y="-315" font-family="Helvetica,sans-Serif" font-size="10.00">/external_executor.cpp</text>
</a>
</g>
</g>
<!-- Node31&#45;&gt;Node32 -->
<g id="edge59" class="edge">
<title>Node31&#45;&gt;Node32</title>
<path fill="none" stroke="#63b8ff" d="M412.37,-433.87C401.72,-425.87 390.93,-415.75 384,-404 371.83,-383.35 369.65,-354.85 369.56,-338.03"/>
<polygon fill="#63b8ff" stroke="#63b8ff" points="410.62,-436.91 420.81,-439.82 414.65,-431.19 410.62,-436.91"/>
</g>
<!-- Node33 -->
<g id="node33" class="node">
<title>Node33</title>
<g id="a_node33"><a xlink:href="historical__queries__adapter_8cpp.html" target="_top" xlink:title=" ">
<polygon fill="white" stroke="#666666" points="582,-338 462,-338 462,-308 582,-308 582,-338"/>
<text text-anchor="start" x="470" y="-326" font-family="Helvetica,sans-Serif" font-size="10.00">src/node/historical</text>
<text text-anchor="middle" x="522" y="-315" font-family="Helvetica,sans-Serif" font-size="10.00">_queries_adapter.cpp</text>
</a>
</g>
</g>
<!-- Node31&#45;&gt;Node33 -->
<g id="edge61" class="edge">
<title>Node31&#45;&gt;Node33</title>
<path fill="none" stroke="#63b8ff" d="M479.63,-433.87C490.28,-425.87 501.07,-415.75 508,-404 520.17,-383.35 522.35,-354.85 522.44,-338.03"/>
<polygon fill="#63b8ff" stroke="#63b8ff" points="477.35,-431.19 471.19,-439.82 481.38,-436.91 477.35,-431.19"/>
</g>
<!-- Node34 -->
<g id="node34" class="node">
<title>Node34</title>
<g id="a_node34"><a xlink:href="historical__queries__utils_8h.html" target="_top" xlink:title=" ">
<polygon fill="white" stroke="#666666" points="499,-404 393,-404 393,-374 499,-374 499,-404"/>
<text text-anchor="start" x="401" y="-392" font-family="Helvetica,sans-Serif" font-size="10.00">src/node/historical</text>
<text text-anchor="middle" x="446" y="-381" font-family="Helvetica,sans-Serif" font-size="10.00">_queries_utils.h</text>
</a>
</g>
</g>
<!-- Node31&#45;&gt;Node34 -->
<g id="edge62" class="edge">
<title>Node31&#45;&gt;Node34</title>
<path fill="none" stroke="#63b8ff" d="M446,-429.54C446,-420.96 446,-411.61 446,-404.16"/>
<polygon fill="#63b8ff" stroke="#63b8ff" points="442.5,-429.8 446,-439.8 449.5,-429.8 442.5,-429.8"/>
</g>
<!-- Node34&#45;&gt;Node32 -->
<g id="edge63" class="edge">
<title>Node34&#45;&gt;Node32</title>
<path fill="none" stroke="#63b8ff" d="M421.3,-367.2C410.02,-357.7 396.95,-346.69 386.82,-338.16"/>
<polygon fill="#63b8ff" stroke="#63b8ff" points="419.23,-370.03 429.13,-373.8 423.74,-364.68 419.23,-370.03"/>
</g>
<!-- Node34&#45;&gt;Node33 -->
<g id="edge64" class="edge">
<title>Node34&#45;&gt;Node33</title>
<path fill="none" stroke="#63b8ff" d="M470.7,-367.2C481.98,-357.7 495.05,-346.69 505.18,-338.16"/>
<polygon fill="#63b8ff" stroke="#63b8ff" points="468.26,-364.68 462.87,-373.8 472.77,-370.03 468.26,-364.68"/>
</g>
<!-- Node35&#45;&gt;Node8 -->
<g id="edge67" class="edge">
<title>Node35&#45;&gt;Node8</title>
<path fill="none" stroke="#63b8ff" d="M83.85,-435.52C86.22,-410.34 90,-363.81 90,-324 90,-324 90,-324 90,-190 90,-140.96 121.61,-130.85 166,-110 219.61,-84.82 613.91,-71.4 767.76,-67.08"/>
<polygon fill="#63b8ff" stroke="#63b8ff" points="80.37,-435.2 82.89,-445.49 87.34,-435.88 80.37,-435.2"/>
</g>
<!-- Node36&#45;&gt;Node11 -->
<g id="edge69" class="edge">
<title>Node36&#45;&gt;Node11</title>
<path fill="none" stroke="#63b8ff" d="M1564.06,-572.55C1638.55,-565.24 1741.21,-541.71 1793,-470 1839.52,-405.58 1719.12,-415.32 1701,-404 1671.07,-385.31 1642.08,-355.62 1626.28,-338.15"/>
<polygon fill="#63b8ff" stroke="#63b8ff" points="1563.39,-569.09 1553.74,-573.47 1564.01,-576.06 1563.39,-569.09"/>
</g>
<!-- Node36&#45;&gt;Node15 -->
<g id="edge70" class="edge">
<title>Node36&#45;&gt;Node15</title>
<path fill="none" stroke="#63b8ff" d="M1441.69,-556.07C1422.83,-545.66 1400.35,-533.25 1385.65,-525.14"/>
<polygon fill="#63b8ff" stroke="#63b8ff" points="1440.16,-559.22 1450.61,-560.99 1443.55,-553.09 1440.16,-559.22"/>
</g>
<!-- Node36&#45;&gt;Node35 -->
<g id="edge71" class="edge">
<title>Node36&#45;&gt;Node35</title>
<path fill="none" stroke="#63b8ff" d="M1388.26,-569.85C1178.62,-557.12 632.21,-521.44 178,-470 164.44,-468.46 149.86,-466.5 136.24,-464.53"/>
<polygon fill="#63b8ff" stroke="#63b8ff" points="1388.1,-573.35 1398.29,-570.46 1388.52,-566.36 1388.1,-573.35"/>
</g>
</g>
</svg>
