<?xml version="1.0" encoding="UTF-8" standalone="no"?>
<!DOCTYPE svg PUBLIC "-//W3C//DTD SVG 1.1//EN"
 "http://www.w3.org/Graphics/SVG/1.1/DTD/svg11.dtd">
<!-- Generated by graphviz version 2.43.0 (0)
 -->
<!-- Title: include/ccf/node/quote.h Pages: 1 -->
<svg width="2142pt" height="654pt"
 viewBox="0.00 0.00 2142.02 654.00" xmlns="http://www.w3.org/2000/svg" xmlns:xlink="http://www.w3.org/1999/xlink">
<g id="graph0" class="graph" transform="scale(1 1) rotate(0) translate(4 650)">
<title>include/ccf/node/quote.h</title>
<!-- Node1 -->
<g id="node1" class="node">
<title>Node1</title>
<g id="a_node1"><a xlink:title=" ">
<polygon fill="#999999" stroke="#666666" points="1737,-646 1601,-646 1601,-627 1737,-627 1737,-646"/>
<text text-anchor="middle" x="1669" y="-634" font-family="Helvetica,sans-Serif" font-size="10.00">include/ccf/node/quote.h</text>
</a>
</g>
</g>
<!-- Node2 -->
<g id="node2" class="node">
<title>Node2</title>
<g id="a_node2"><a xlink:href="executor__code__id_8h.html" target="_top" xlink:title=" ">
<polygon fill="white" stroke="#666666" points="238,-470 90,-470 90,-440 238,-440 238,-470"/>
<text text-anchor="start" x="98" y="-458" font-family="Helvetica,sans-Serif" font-size="10.00">src/apps/external_executor</text>
<text text-anchor="middle" x="164" y="-447" font-family="Helvetica,sans-Serif" font-size="10.00">/executor_code_id.h</text>
</a>
</g>
</g>
<!-- Node1&#45;&gt;Node2 -->
<g id="edge1" class="edge">
<title>Node1&#45;&gt;Node2</title>
<path fill="none" stroke="#63b8ff" d="M1590.51,-627.79C1375.29,-606.35 757.82,-542.76 247,-470 244.11,-469.59 241.16,-469.15 238.18,-468.71"/>
<polygon fill="#63b8ff" stroke="#63b8ff" points="1590.46,-631.3 1600.76,-628.81 1591.15,-624.34 1590.46,-631.3"/>
</g>
<!-- Node5 -->
<g id="node5" class="node">
<title>Node5</title>
<g id="a_node5"><a xlink:href="quote_8cpp.html" target="_top" xlink:title=" ">
<polygon fill="white" stroke="#666666" points="2030.5,-585.5 1921.5,-585.5 1921.5,-566.5 2030.5,-566.5 2030.5,-585.5"/>
<text text-anchor="middle" x="1976" y="-573.5" font-family="Helvetica,sans-Serif" font-size="10.00">src/node/quote.cpp</text>
</a>
</g>
</g>
<!-- Node1&#45;&gt;Node5 -->
<g id="edge5" class="edge">
<title>Node1&#45;&gt;Node5</title>
<path fill="none" stroke="#63b8ff" d="M1725.94,-625.11C1774.19,-616.24 1845.18,-603.05 1907,-591 1915.88,-589.27 1925.39,-587.37 1934.43,-585.54"/>
<polygon fill="#63b8ff" stroke="#63b8ff" points="1725.21,-621.68 1716.01,-626.93 1726.47,-628.57 1725.21,-621.68"/>
</g>
<!-- Node6 -->
<g id="node6" class="node">
<title>Node6</title>
<g id="a_node6"><a xlink:href="member__frontend_8h.html" target="_top" xlink:title=" ">
<polygon fill="white" stroke="#666666" points="1696,-338 1576,-338 1576,-308 1696,-308 1696,-338"/>
<text text-anchor="start" x="1584" y="-326" font-family="Helvetica,sans-Serif" font-size="10.00">src/node/rpc/member</text>
<text text-anchor="middle" x="1636" y="-315" font-family="Helvetica,sans-Serif" font-size="10.00">_frontend.h</text>
</a>
</g>
</g>
<!-- Node1&#45;&gt;Node6 -->
<g id="edge6" class="edge">
<title>Node1&#45;&gt;Node6</title>
<path fill="none" stroke="#63b8ff" d="M1669,-616.58C1669,-593.1 1669,-551.85 1669,-516.5 1669,-516.5 1669,-516.5 1669,-454 1669,-410.69 1651.58,-361.69 1642.05,-338.13"/>
<polygon fill="#63b8ff" stroke="#63b8ff" points="1665.5,-616.84 1669,-626.84 1672.5,-616.84 1665.5,-616.84"/>
</g>
<!-- Node9 -->
<g id="node9" class="node">
<title>Node9</title>
<g id="a_node9"><a xlink:href="node__frontend_8h.html" target="_top" xlink:title=" ">
<polygon fill="white" stroke="#666666" points="2106,-332.5 1948,-332.5 1948,-313.5 2106,-313.5 2106,-332.5"/>
<text text-anchor="middle" x="2027" y="-320.5" font-family="Helvetica,sans-Serif" font-size="10.00">src/node/rpc/node_frontend.h</text>
</a>
</g>
</g>
<!-- Node1&#45;&gt;Node9 -->
<g id="edge9" class="edge">
<title>Node1&#45;&gt;Node9</title>
<path fill="none" stroke="#63b8ff" d="M1747.33,-626.18C1811.93,-613.61 1893,-584.32 1893,-516.5 1893,-516.5 1893,-516.5 1893,-454 1893,-391.61 1968.77,-349.54 2006.36,-332.51"/>
<polygon fill="#63b8ff" stroke="#63b8ff" points="1746.32,-622.81 1737.12,-628.06 1747.59,-629.69 1746.32,-622.81"/>
</g>
<!-- Node13 -->
<g id="node13" class="node">
<title>Node13</title>
<g id="a_node13"><a xlink:href="node__operation__interface_8h.html" target="_top" xlink:title=" ">
<polygon fill="white" stroke="#666666" points="1550.5,-591 1395.5,-591 1395.5,-561 1550.5,-561 1550.5,-591"/>
<text text-anchor="start" x="1403.5" y="-579" font-family="Helvetica,sans-Serif" font-size="10.00">src/node/rpc/node_operation</text>
<text text-anchor="middle" x="1473" y="-568" font-family="Helvetica,sans-Serif" font-size="10.00">_interface.h</text>
</a>
</g>
</g>
<!-- Node1&#45;&gt;Node13 -->
<g id="edge16" class="edge">
<title>Node1&#45;&gt;Node13</title>
<path fill="none" stroke="#63b8ff" d="M1630.73,-624.08C1599.08,-614.63 1553.99,-601.17 1520.12,-591.06"/>
<polygon fill="#63b8ff" stroke="#63b8ff" points="1629.92,-627.49 1640.5,-626.99 1631.92,-620.78 1629.92,-627.49"/>
</g>
<!-- Node3 -->
<g id="node3" class="node">
<title>Node3</title>
<g id="a_node3"><a xlink:href="executor__auth__policy_8h.html" target="_top" xlink:title=" ">
<polygon fill="white" stroke="#666666" points="148,-404 0,-404 0,-374 148,-374 148,-404"/>
<text text-anchor="start" x="8" y="-392" font-family="Helvetica,sans-Serif" font-size="10.00">src/apps/external_executor</text>
<text text-anchor="middle" x="74" y="-381" font-family="Helvetica,sans-Serif" font-size="10.00">/executor_auth_policy.h</text>
</a>
</g>
</g>
<!-- Node2&#45;&gt;Node3 -->
<g id="edge2" class="edge">
<title>Node2&#45;&gt;Node3</title>
<path fill="none" stroke="#63b8ff" d="M135.53,-433.75C121.99,-424.13 106.14,-412.86 93.92,-404.16"/>
<polygon fill="#63b8ff" stroke="#63b8ff" points="133.85,-436.85 144.03,-439.8 137.9,-431.15 133.85,-436.85"/>
</g>
<!-- Node4 -->
<g id="node4" class="node">
<title>Node4</title>
<g id="a_node4"><a xlink:href="external__executor_8cpp.html" target="_top" xlink:title=" ">
<polygon fill="white" stroke="#666666" points="390,-338 242,-338 242,-308 390,-308 390,-338"/>
<text text-anchor="start" x="250" y="-326" font-family="Helvetica,sans-Serif" font-size="10.00">src/apps/external_executor</text>
<text text-anchor="middle" x="316" y="-315" font-family="Helvetica,sans-Serif" font-size="10.00">/external_executor.cpp</text>
</a>
</g>
</g>
<!-- Node2&#45;&gt;Node4 -->
<g id="edge4" class="edge">
<title>Node2&#45;&gt;Node4</title>
<path fill="none" stroke="#63b8ff" d="M188.35,-433.18C219.5,-406.53 272.64,-361.09 299.46,-338.14"/>
<polygon fill="#63b8ff" stroke="#63b8ff" points="185.88,-430.68 180.56,-439.84 190.43,-436 185.88,-430.68"/>
</g>
<!-- Node3&#45;&gt;Node4 -->
<g id="edge3" class="edge">
<title>Node3&#45;&gt;Node4</title>
<path fill="none" stroke="#63b8ff" d="M136.82,-371.39C176,-361.03 225.85,-347.84 263.02,-338.01"/>
<polygon fill="#63b8ff" stroke="#63b8ff" points="135.88,-368.01 127.11,-373.95 137.67,-374.78 135.88,-368.01"/>
</g>
<!-- Node7 -->
<g id="node7" class="node">
<title>Node7</title>
<g id="a_node7"><a xlink:href="src_2enclave_2enclave_8h.html" target="_top" xlink:title=" ">
<polygon fill="white" stroke="#666666" points="1594,-74 1472,-74 1472,-55 1594,-55 1594,-74"/>
<text text-anchor="middle" x="1533" y="-62" font-family="Helvetica,sans-Serif" font-size="10.00">src/enclave/enclave.h</text>
</a>
</g>
</g>
<!-- Node6&#45;&gt;Node7 -->
<g id="edge7" class="edge">
<title>Node6&#45;&gt;Node7</title>
<path fill="none" stroke="#63b8ff" d="M1626.47,-298.26C1604.42,-243.35 1550.71,-109.6 1536.5,-74.21"/>
<polygon fill="#63b8ff" stroke="#63b8ff" points="1623.34,-299.87 1630.32,-307.84 1629.84,-297.26 1623.34,-299.87"/>
</g>
<!-- Node8 -->
<g id="node8" class="node">
<title>Node8</title>
<g id="a_node8"><a xlink:href="enclave_2main_8cpp.html" target="_top" xlink:title=" ">
<polygon fill="white" stroke="#666666" points="1593,-19 1473,-19 1473,0 1593,0 1593,-19"/>
<text text-anchor="middle" x="1533" y="-7" font-family="Helvetica,sans-Serif" font-size="10.00">src/enclave/main.cpp</text>
</a>
</g>
</g>
<!-- Node7&#45;&gt;Node8 -->
<g id="edge8" class="edge">
<title>Node7&#45;&gt;Node8</title>
<path fill="none" stroke="#63b8ff" d="M1533,-44.66C1533,-35.93 1533,-25.99 1533,-19.09"/>
<polygon fill="#63b8ff" stroke="#63b8ff" points="1529.5,-44.75 1533,-54.75 1536.5,-44.75 1529.5,-44.75"/>
</g>
<!-- Node9&#45;&gt;Node7 -->
<g id="edge10" class="edge">
<title>Node9&#45;&gt;Node7</title>
<path fill="none" stroke="#63b8ff" d="M2076.34,-310.16C2096.27,-302.69 2117.3,-290.77 2129,-272 2136.05,-260.69 2134.98,-253.92 2129,-242 2084.99,-154.29 2043.38,-145.79 1952,-110 1888.31,-85.06 1694.1,-72.81 1594.03,-68.02"/>
<polygon fill="#63b8ff" stroke="#63b8ff" points="2075.01,-306.92 2066.69,-313.48 2077.28,-313.54 2075.01,-306.92"/>
</g>
<!-- Node10 -->
<g id="node10" class="node">
<title>Node10</title>
<g id="a_node10"><a xlink:href="jwt__key__auto__refresh_8h.html" target="_top" xlink:title=" ">
<polygon fill="white" stroke="#666666" points="2119.5,-272 1994.5,-272 1994.5,-242 2119.5,-242 2119.5,-272"/>
<text text-anchor="start" x="2002.5" y="-260" font-family="Helvetica,sans-Serif" font-size="10.00">src/node/jwt_key_auto</text>
<text text-anchor="middle" x="2057" y="-249" font-family="Helvetica,sans-Serif" font-size="10.00">_refresh.h</text>
</a>
</g>
</g>
<!-- Node9&#45;&gt;Node10 -->
<g id="edge11" class="edge">
<title>Node9&#45;&gt;Node10</title>
<path fill="none" stroke="#63b8ff" d="M2035.3,-304.3C2040.01,-294.24 2045.84,-281.81 2050.27,-272.36"/>
<polygon fill="#63b8ff" stroke="#63b8ff" points="2032.12,-302.83 2031.05,-313.37 2038.46,-305.8 2032.12,-302.83"/>
</g>
<!-- Node11 -->
<g id="node11" class="node">
<title>Node11</title>
<g id="a_node11"><a xlink:href="node__state_8h.html" target="_top" xlink:title=" ">
<polygon fill="white" stroke="#666666" points="1908,-200.5 1784,-200.5 1784,-181.5 1908,-181.5 1908,-200.5"/>
<text text-anchor="middle" x="1846" y="-188.5" font-family="Helvetica,sans-Serif" font-size="10.00">src/node/node_state.h</text>
</a>
</g>
</g>
<!-- Node10&#45;&gt;Node11 -->
<g id="edge12" class="edge">
<title>Node10&#45;&gt;Node11</title>
<path fill="none" stroke="#63b8ff" d="M2001.12,-239.05C1960.2,-226.64 1906.37,-210.31 1874.08,-200.52"/>
<polygon fill="#63b8ff" stroke="#63b8ff" points="2000.11,-242.4 2010.7,-241.95 2002.14,-235.7 2000.11,-242.4"/>
</g>
<!-- Node11&#45;&gt;Node7 -->
<g id="edge13" class="edge">
<title>Node11&#45;&gt;Node7</title>
<path fill="none" stroke="#63b8ff" d="M1870.46,-175.85C1895.65,-159.53 1928.66,-132.13 1909,-110 1888.48,-86.91 1695.32,-73.73 1594.15,-68.36"/>
<polygon fill="#63b8ff" stroke="#63b8ff" points="1868.29,-173.07 1861.65,-181.32 1871.99,-179.02 1868.29,-173.07"/>
</g>
<!-- Node12 -->
<g id="node12" class="node">
<title>Node12</title>
<g id="a_node12"><a xlink:href="gov__effects_8h.html" target="_top" xlink:title=" ">
<polygon fill="white" stroke="#666666" points="1900,-134.5 1756,-134.5 1756,-115.5 1900,-115.5 1900,-134.5"/>
<text text-anchor="middle" x="1828" y="-122.5" font-family="Helvetica,sans-Serif" font-size="10.00">src/node/rpc/gov_effects.h</text>
</a>
</g>
</g>
<!-- Node11&#45;&gt;Node12 -->
<g id="edge14" class="edge">
<title>Node11&#45;&gt;Node12</title>
<path fill="none" stroke="#63b8ff" d="M1840.78,-171.45C1837.4,-159.43 1833.15,-144.32 1830.5,-134.91"/>
<polygon fill="#63b8ff" stroke="#63b8ff" points="1837.5,-172.69 1843.57,-181.37 1844.23,-170.79 1837.5,-172.69"/>
</g>
<!-- Node12&#45;&gt;Node7 -->
<g id="edge15" class="edge">
<title>Node12&#45;&gt;Node7</title>
<path fill="none" stroke="#63b8ff" d="M1775.22,-113.53C1718.29,-102.24 1628.73,-84.48 1575.95,-74.02"/>
<polygon fill="#63b8ff" stroke="#63b8ff" points="1774.61,-116.98 1785.1,-115.49 1775.98,-110.12 1774.61,-116.98"/>
</g>
<!-- Node13&#45;&gt;Node6 -->
<g id="edge17" class="edge">
<title>Node13&#45;&gt;Node6</title>
<path fill="none" stroke="#63b8ff" d="M1512.29,-556.1C1544.49,-538.45 1588.45,-508.99 1612,-470 1637.77,-427.34 1638.26,-365.49 1636.99,-338.04"/>
<polygon fill="#63b8ff" stroke="#63b8ff" points="1510.31,-553.18 1503.13,-560.97 1513.6,-559.36 1510.31,-553.18"/>
</g>
<!-- Node14 -->
<g id="node14" class="node">
<title>Node14</title>
<g id="a_node14"><a xlink:href="node__interface_8h.html" target="_top" xlink:title=" ">
<polygon fill="white" stroke="#666666" points="1404.5,-525 1243.5,-525 1243.5,-506 1404.5,-506 1404.5,-525"/>
<text text-anchor="middle" x="1324" y="-513" font-family="Helvetica,sans-Serif" font-size="10.00">src/node/rpc/node_interface.h</text>
</a>
</g>
</g>
<!-- Node13&#45;&gt;Node14 -->
<g id="edge18" class="edge">
<title>Node13&#45;&gt;Node14</title>
<path fill="none" stroke="#63b8ff" d="M1428,-557.33C1400.87,-546.68 1367.51,-533.58 1346,-525.14"/>
<polygon fill="#63b8ff" stroke="#63b8ff" points="1426.72,-560.59 1437.31,-560.99 1429.28,-554.08 1426.72,-560.59"/>
</g>
<!-- Node34 -->
<g id="node34" class="node">
<title>Node34</title>
<g id="a_node34"><a xlink:href="node__operation_8h.html" target="_top" xlink:title=" ">
<polygon fill="white" stroke="#666666" points="420,-464.5 256,-464.5 256,-445.5 420,-445.5 420,-464.5"/>
<text text-anchor="middle" x="338" y="-452.5" font-family="Helvetica,sans-Serif" font-size="10.00">src/node/rpc/node_operation.h</text>
</a>
</g>
</g>
<!-- Node13&#45;&gt;Node34 -->
<g id="edge64" class="edge">
<title>Node13&#45;&gt;Node34</title>
<path fill="none" stroke="#63b8ff" d="M1385.14,-567.67C1205.45,-552.34 783.13,-514.61 430,-470 417.34,-468.4 403.73,-466.45 390.96,-464.53"/>
<polygon fill="#63b8ff" stroke="#63b8ff" points="1385.06,-571.18 1395.32,-568.54 1385.66,-564.2 1385.06,-571.18"/>
</g>
<!-- Node14&#45;&gt;Node6 -->
<g id="edge53" class="edge">
<title>Node14&#45;&gt;Node6</title>
<path fill="none" stroke="#63b8ff" d="M1347.49,-500.68C1361.91,-492.08 1380.69,-480.65 1397,-470 1416.51,-457.26 1420.4,-452.61 1440,-440 1500.18,-401.27 1573.24,-359.32 1610.89,-338.06"/>
<polygon fill="#63b8ff" stroke="#63b8ff" points="1345.52,-497.78 1338.71,-505.9 1349.09,-503.8 1345.52,-497.78"/>
</g>
<!-- Node14&#45;&gt;Node9 -->
<g id="edge61" class="edge">
<title>Node14&#45;&gt;Node9</title>
<path fill="none" stroke="#63b8ff" d="M1406.88,-504.67C1464.73,-497.09 1543.53,-485.31 1612,-470 1713.29,-447.36 1742.45,-448.94 1836,-404 1857,-393.91 1858.2,-384.5 1879,-374 1916.29,-355.18 1962.27,-340.91 1992.99,-332.52"/>
<polygon fill="#63b8ff" stroke="#63b8ff" points="1406.17,-501.23 1396.7,-505.99 1407.07,-508.18 1406.17,-501.23"/>
</g>
<!-- Node15 -->
<g id="node15" class="node">
<title>Node15</title>
<g id="a_node15"><a xlink:href="wrap_8cpp.html" target="_top" xlink:title=" ">
<polygon fill="white" stroke="#666666" points="1099.5,-266.5 1010.5,-266.5 1010.5,-247.5 1099.5,-247.5 1099.5,-266.5"/>
<text text-anchor="middle" x="1055" y="-254.5" font-family="Helvetica,sans-Serif" font-size="10.00">src/js/wrap.cpp</text>
</a>
</g>
</g>
<!-- Node14&#45;&gt;Node15 -->
<g id="edge19" class="edge">
<title>Node14&#45;&gt;Node15</title>
<path fill="none" stroke="#63b8ff" d="M1246.01,-504.55C1091.76,-483.1 756.72,-427.11 689,-338 680.93,-327.38 680.23,-318.05 689,-308 730.22,-260.77 921.93,-256.52 1010.24,-257.14"/>
<polygon fill="#63b8ff" stroke="#63b8ff" points="1245.97,-508.08 1256.35,-505.97 1246.93,-501.14 1245.97,-508.08"/>
</g>
<!-- Node16 -->
<g id="node16" class="node">
<title>Node16</title>
<g id="a_node16"><a xlink:href="wrap_8h.html" target="_top" xlink:title=" ">
<polygon fill="white" stroke="#666666" points="1262,-398.5 1184,-398.5 1184,-379.5 1262,-379.5 1262,-398.5"/>
<text text-anchor="middle" x="1223" y="-386.5" font-family="Helvetica,sans-Serif" font-size="10.00">src/js/wrap.h</text>
</a>
</g>
</g>
<!-- Node14&#45;&gt;Node16 -->
<g id="edge20" class="edge">
<title>Node14&#45;&gt;Node16</title>
<path fill="none" stroke="#63b8ff" d="M1310.52,-497.89C1288.75,-471.05 1246.62,-419.11 1229.99,-398.62"/>
<polygon fill="#63b8ff" stroke="#63b8ff" points="1308.04,-500.38 1317.06,-505.94 1313.48,-495.97 1308.04,-500.38"/>
</g>
<!-- Node23 -->
<g id="node23" class="node">
<title>Node23</title>
<g id="a_node23"><a xlink:href="historical__queries_8h.html" target="_top" xlink:title=" ">
<polygon fill="white" stroke="#666666" points="700,-206 594,-206 594,-176 700,-176 700,-206"/>
<text text-anchor="start" x="602" y="-194" font-family="Helvetica,sans-Serif" font-size="10.00">src/node/historical</text>
<text text-anchor="middle" x="647" y="-183" font-family="Helvetica,sans-Serif" font-size="10.00">_queries.h</text>
</a>
</g>
</g>
<!-- Node14&#45;&gt;Node23 -->
<g id="edge36" class="edge">
<title>Node14&#45;&gt;Node23</title>
<path fill="none" stroke="#63b8ff" d="M1233.18,-508.37C1037.57,-493.94 594,-454.14 594,-390 594,-390 594,-390 594,-322 594,-276.91 621.68,-229.1 637.03,-206.05"/>
<polygon fill="#63b8ff" stroke="#63b8ff" points="1233.21,-511.88 1243.44,-509.12 1233.72,-504.9 1233.21,-511.88"/>
</g>
<!-- Node25 -->
<g id="node25" class="node">
<title>Node25</title>
<g id="a_node25"><a xlink:href="node__configuration__subsystem_8h.html" target="_top" xlink:title=" ">
<polygon fill="white" stroke="#666666" points="1603,-470 1449,-470 1449,-440 1603,-440 1603,-470"/>
<text text-anchor="start" x="1457" y="-458" font-family="Helvetica,sans-Serif" font-size="10.00">src/node/node_configuration</text>
<text text-anchor="middle" x="1526" y="-447" font-family="Helvetica,sans-Serif" font-size="10.00">_subsystem.h</text>
</a>
</g>
</g>
<!-- Node14&#45;&gt;Node25 -->
<g id="edge40" class="edge">
<title>Node14&#45;&gt;Node25</title>
<path fill="none" stroke="#63b8ff" d="M1363.02,-503.2C1395.66,-493.75 1442.38,-480.22 1477.44,-470.06"/>
<polygon fill="#63b8ff" stroke="#63b8ff" points="1362,-499.85 1353.37,-505.99 1363.95,-506.57 1362,-499.85"/>
</g>
<!-- Node30 -->
<g id="node30" class="node">
<title>Node30</title>
<g id="a_node30"><a xlink:href="acme__subsystem_8h.html" target="_top" xlink:title=" ">
<polygon fill="white" stroke="#666666" points="1557.5,-200.5 1384.5,-200.5 1384.5,-181.5 1557.5,-181.5 1557.5,-200.5"/>
<text text-anchor="middle" x="1471" y="-188.5" font-family="Helvetica,sans-Serif" font-size="10.00">src/node/rpc/acme_subsystem.h</text>
</a>
</g>
</g>
<!-- Node14&#45;&gt;Node30 -->
<g id="edge51" class="edge">
<title>Node14&#45;&gt;Node30</title>
<path fill="none" stroke="#63b8ff" d="M1339.76,-498.5C1380.6,-456.94 1486.97,-348.13 1491,-338 1510.59,-288.8 1485.42,-223.71 1475.07,-200.59"/>
<polygon fill="#63b8ff" stroke="#63b8ff" points="1337.24,-496.07 1332.72,-505.65 1342.23,-500.97 1337.24,-496.07"/>
</g>
<!-- Node31 -->
<g id="node31" class="node">
<title>Node31</title>
<g id="a_node31"><a xlink:href="network__identity__subsystem_8h.html" target="_top" xlink:title=" ">
<polygon fill="white" stroke="#666666" points="565.5,-470 438.5,-470 438.5,-440 565.5,-440 565.5,-470"/>
<text text-anchor="start" x="446.5" y="-458" font-family="Helvetica,sans-Serif" font-size="10.00">src/node/rpc/network</text>
<text text-anchor="middle" x="502" y="-447" font-family="Helvetica,sans-Serif" font-size="10.00">_identity_subsystem.h</text>
</a>
</g>
</g>
<!-- Node14&#45;&gt;Node31 -->
<g id="edge54" class="edge">
<title>Node14&#45;&gt;Node31</title>
<path fill="none" stroke="#63b8ff" d="M1233.07,-512.51C1092.56,-508.66 814.41,-497.95 580,-470 575.36,-469.45 570.57,-468.79 565.76,-468.08"/>
<polygon fill="#63b8ff" stroke="#63b8ff" points="1233.26,-516.02 1243.35,-512.79 1233.45,-509.02 1233.26,-516.02"/>
</g>
<!-- Node14&#45;&gt;Node34 -->
<g id="edge62" class="edge">
<title>Node14&#45;&gt;Node34</title>
<path fill="none" stroke="#63b8ff" d="M1232.96,-513.01C1071.06,-509.68 722.57,-499.47 430,-470 416.34,-468.62 401.6,-466.62 388.02,-464.55"/>
<polygon fill="#63b8ff" stroke="#63b8ff" points="1233.29,-516.52 1243.35,-513.22 1233.43,-509.52 1233.29,-516.52"/>
</g>
<!-- Node16&#45;&gt;Node6 -->
<g id="edge34" class="edge">
<title>Node16&#45;&gt;Node6</title>
<path fill="none" stroke="#63b8ff" d="M1272.48,-380.33C1348.53,-368.55 1493.91,-346.02 1575.9,-333.31"/>
<polygon fill="#63b8ff" stroke="#63b8ff" points="1271.57,-376.93 1262.23,-381.92 1272.64,-383.85 1271.57,-376.93"/>
</g>
<!-- Node16&#45;&gt;Node7 -->
<g id="edge22" class="edge">
<title>Node16&#45;&gt;Node7</title>
<path fill="none" stroke="#63b8ff" d="M1173.47,-387.08C1047.26,-384.22 721.28,-373.45 689,-338 680.02,-328.14 680.98,-318.65 689,-308 785.59,-179.75 1294.56,-98.38 1471.96,-73.57"/>
<polygon fill="#63b8ff" stroke="#63b8ff" points="1173.55,-390.58 1183.63,-387.3 1173.71,-383.58 1173.55,-390.58"/>
</g>
<!-- Node16&#45;&gt;Node9 -->
<g id="edge35" class="edge">
<title>Node16&#45;&gt;Node9</title>
<path fill="none" stroke="#63b8ff" d="M1272.33,-386.05C1388.7,-381.13 1689.33,-366.52 1939,-338 1951.76,-336.54 1965.49,-334.56 1978.23,-332.54"/>
<polygon fill="#63b8ff" stroke="#63b8ff" points="1272.15,-382.56 1262.31,-386.47 1272.44,-389.55 1272.15,-382.56"/>
</g>
<!-- Node16&#45;&gt;Node11 -->
<g id="edge33" class="edge">
<title>Node16&#45;&gt;Node11</title>
<path fill="none" stroke="#63b8ff" d="M1272.25,-381.91C1326.56,-374.48 1416.16,-360.11 1491,-338 1508.38,-332.87 1752.48,-231.07 1825.51,-200.56"/>
<polygon fill="#63b8ff" stroke="#63b8ff" points="1271.65,-378.46 1262.2,-383.26 1272.58,-385.4 1271.65,-378.46"/>
</g>
<!-- Node16&#45;&gt;Node15 -->
<g id="edge32" class="edge">
<title>Node16&#45;&gt;Node15</title>
<path fill="none" stroke="#63b8ff" d="M1185.78,-375.99C1163.68,-367.66 1135.99,-354.99 1115,-338 1089.09,-317.03 1068.3,-282.51 1059.52,-266.57"/>
<polygon fill="#63b8ff" stroke="#63b8ff" points="1184.58,-379.28 1195.18,-379.41 1186.97,-372.71 1184.58,-379.28"/>
</g>
<!-- Node17 -->
<g id="node17" class="node">
<title>Node17</title>
<g id="a_node17"><a xlink:href="js__generic__base_8cpp.html" target="_top" xlink:title=" ">
<polygon fill="white" stroke="#666666" points="1376,-338 1258,-338 1258,-308 1376,-308 1376,-338"/>
<text text-anchor="start" x="1266" y="-326" font-family="Helvetica,sans-Serif" font-size="10.00">src/apps/js_generic</text>
<text text-anchor="middle" x="1317" y="-315" font-family="Helvetica,sans-Serif" font-size="10.00">/js_generic_base.cpp</text>
</a>
</g>
</g>
<!-- Node16&#45;&gt;Node17 -->
<g id="edge21" class="edge">
<title>Node16&#45;&gt;Node17</title>
<path fill="none" stroke="#63b8ff" d="M1244.13,-373.62C1259.7,-363.01 1280.79,-348.66 1296.27,-338.12"/>
<polygon fill="#63b8ff" stroke="#63b8ff" points="1241.97,-370.85 1235.68,-379.37 1245.91,-376.63 1241.97,-370.85"/>
</g>
<!-- Node18 -->
<g id="node18" class="node">
<title>Node18</title>
<g id="a_node18"><a xlink:href="consensus_8cpp.html" target="_top" xlink:title=" ">
<polygon fill="white" stroke="#666666" points="1240,-332.5 1124,-332.5 1124,-313.5 1240,-313.5 1240,-332.5"/>
<text text-anchor="middle" x="1182" y="-320.5" font-family="Helvetica,sans-Serif" font-size="10.00">src/js/consensus.cpp</text>
</a>
</g>
</g>
<!-- Node16&#45;&gt;Node18 -->
<g id="edge23" class="edge">
<title>Node16&#45;&gt;Node18</title>
<path fill="none" stroke="#63b8ff" d="M1212.05,-370.91C1204.21,-358.68 1193.98,-342.7 1187.7,-332.91"/>
<polygon fill="#63b8ff" stroke="#63b8ff" points="1209.13,-372.84 1217.47,-379.37 1215.02,-369.06 1209.13,-372.84"/>
</g>
<!-- Node19 -->
<g id="node19" class="node">
<title>Node19</title>
<g id="a_node19"><a xlink:href="conv_8cpp.html" target="_top" xlink:title=" ">
<polygon fill="white" stroke="#666666" points="1482,-332.5 1394,-332.5 1394,-313.5 1482,-313.5 1482,-332.5"/>
<text text-anchor="middle" x="1438" y="-320.5" font-family="Helvetica,sans-Serif" font-size="10.00">src/js/conv.cpp</text>
</a>
</g>
</g>
<!-- Node16&#45;&gt;Node19 -->
<g id="edge25" class="edge">
<title>Node16&#45;&gt;Node19</title>
<path fill="none" stroke="#63b8ff" d="M1261.69,-376.48C1304.08,-363.87 1371.09,-343.92 1409.12,-332.6"/>
<polygon fill="#63b8ff" stroke="#63b8ff" points="1260.58,-373.16 1252,-379.37 1262.58,-379.87 1260.58,-373.16"/>
</g>
<!-- Node20 -->
<g id="node20" class="node">
<title>Node20</title>
<g id="a_node20"><a xlink:href="crypto_8cpp.html" target="_top" xlink:title=" ">
<polygon fill="white" stroke="#666666" points="940,-332.5 844,-332.5 844,-313.5 940,-313.5 940,-332.5"/>
<text text-anchor="middle" x="892" y="-320.5" font-family="Helvetica,sans-Serif" font-size="10.00">src/js/crypto.cpp</text>
</a>
</g>
</g>
<!-- Node16&#45;&gt;Node20 -->
<g id="edge27" class="edge">
<title>Node16&#45;&gt;Node20</title>
<path fill="none" stroke="#63b8ff" d="M1173.67,-379.92C1118.67,-370.7 1027.18,-354.72 949,-338 941.33,-336.36 933.11,-334.44 925.38,-332.56"/>
<polygon fill="#63b8ff" stroke="#63b8ff" points="1173.39,-383.42 1183.83,-381.62 1174.54,-376.52 1173.39,-383.42"/>
</g>
<!-- Node21 -->
<g id="node21" class="node">
<title>Node21</title>
<g id="a_node21"><a xlink:href="historical_8cpp.html" target="_top" xlink:title=" ">
<polygon fill="white" stroke="#666666" points="1068,-332.5 958,-332.5 958,-313.5 1068,-313.5 1068,-332.5"/>
<text text-anchor="middle" x="1013" y="-320.5" font-family="Helvetica,sans-Serif" font-size="10.00">src/js/historical.cpp</text>
</a>
</g>
</g>
<!-- Node16&#45;&gt;Node21 -->
<g id="edge29" class="edge">
<title>Node16&#45;&gt;Node21</title>
<path fill="none" stroke="#63b8ff" d="M1184.95,-376.4C1143.53,-363.78 1078.28,-343.89 1041.21,-332.6"/>
<polygon fill="#63b8ff" stroke="#63b8ff" points="1184.09,-379.8 1194.68,-379.37 1186.13,-373.11 1184.09,-379.8"/>
</g>
<!-- Node22 -->
<g id="node22" class="node">
<title>Node22</title>
<g id="a_node22"><a xlink:href="openenclave_8cpp.html" target="_top" xlink:title=" ">
<polygon fill="white" stroke="#666666" points="826,-332.5 698,-332.5 698,-313.5 826,-313.5 826,-332.5"/>
<text text-anchor="middle" x="762" y="-320.5" font-family="Helvetica,sans-Serif" font-size="10.00">src/js/openenclave.cpp</text>
</a>
</g>
</g>
<!-- Node16&#45;&gt;Node22 -->
<g id="edge31" class="edge">
<title>Node16&#45;&gt;Node22</title>
<path fill="none" stroke="#63b8ff" d="M1173.39,-382.59C1099.47,-374.31 956.13,-357.4 835,-338 824.93,-336.39 814.13,-334.44 804,-332.51"/>
<polygon fill="#63b8ff" stroke="#63b8ff" points="1173.46,-386.12 1183.78,-383.75 1174.23,-379.17 1173.46,-386.12"/>
</g>
<!-- Node18&#45;&gt;Node15 -->
<g id="edge24" class="edge">
<title>Node18&#45;&gt;Node15</title>
<path fill="none" stroke="#63b8ff" d="M1155.93,-308.86C1130.9,-296.25 1093.82,-277.56 1072.26,-266.7"/>
<polygon fill="#63b8ff" stroke="#63b8ff" points="1154.37,-311.99 1164.87,-313.37 1157.52,-305.74 1154.37,-311.99"/>
</g>
<!-- Node19&#45;&gt;Node15 -->
<g id="edge26" class="edge">
<title>Node19&#45;&gt;Node15</title>
<path fill="none" stroke="#63b8ff" d="M1397.88,-310.92C1393.55,-309.86 1389.19,-308.87 1385,-308 1283.72,-287.01 1163.24,-270.98 1099.57,-263.2"/>
<polygon fill="#63b8ff" stroke="#63b8ff" points="1397.31,-314.38 1407.86,-313.44 1399.03,-307.59 1397.31,-314.38"/>
</g>
<!-- Node20&#45;&gt;Node15 -->
<g id="edge28" class="edge">
<title>Node20&#45;&gt;Node15</title>
<path fill="none" stroke="#63b8ff" d="M923.39,-309.68C955.6,-297.03 1004.88,-277.68 1033.11,-266.6"/>
<polygon fill="#63b8ff" stroke="#63b8ff" points="922.01,-306.46 913.98,-313.37 924.57,-312.97 922.01,-306.46"/>
</g>
<!-- Node21&#45;&gt;Node15 -->
<g id="edge30" class="edge">
<title>Node21&#45;&gt;Node15</title>
<path fill="none" stroke="#63b8ff" d="M1024.22,-304.91C1032.24,-292.68 1042.73,-276.7 1049.16,-266.91"/>
<polygon fill="#63b8ff" stroke="#63b8ff" points="1021.22,-303.09 1018.66,-313.37 1027.08,-306.93 1021.22,-303.09"/>
</g>
<!-- Node23&#45;&gt;Node7 -->
<g id="edge37" class="edge">
<title>Node23&#45;&gt;Node7</title>
<path fill="none" stroke="#63b8ff" d="M675.73,-170.07C688.92,-160.92 704.76,-149.91 719,-140 738.13,-126.69 739.98,-117.63 762,-110 828.28,-87.05 1301.32,-71.89 1471.89,-67.11"/>
<polygon fill="#63b8ff" stroke="#63b8ff" points="673.71,-167.21 667.49,-175.79 677.7,-172.96 673.71,-167.21"/>
</g>
<!-- Node24 -->
<g id="node24" class="node">
<title>Node24</title>
<g id="a_node24"><a xlink:href="historical__transaction__fetcher_8h.html" target="_top" xlink:title=" ">
<polygon fill="white" stroke="#666666" points="709.5,-140 584.5,-140 584.5,-110 709.5,-110 709.5,-140"/>
<text text-anchor="start" x="592.5" y="-128" font-family="Helvetica,sans-Serif" font-size="10.00">src/indexing/historical</text>
<text text-anchor="middle" x="647" y="-117" font-family="Helvetica,sans-Serif" font-size="10.00">_transaction_fetcher.h</text>
</a>
</g>
</g>
<!-- Node23&#45;&gt;Node24 -->
<g id="edge38" class="edge">
<title>Node23&#45;&gt;Node24</title>
<path fill="none" stroke="#63b8ff" d="M647,-165.54C647,-156.96 647,-147.61 647,-140.16"/>
<polygon fill="#63b8ff" stroke="#63b8ff" points="643.5,-165.8 647,-175.8 650.5,-165.8 643.5,-165.8"/>
</g>
<!-- Node24&#45;&gt;Node7 -->
<g id="edge39" class="edge">
<title>Node24&#45;&gt;Node7</title>
<path fill="none" stroke="#63b8ff" d="M719.53,-110.55C721.03,-110.36 722.52,-110.17 724,-110 1001.99,-77.21 1336.64,-68.51 1471.88,-66.26"/>
<polygon fill="#63b8ff" stroke="#63b8ff" points="718.93,-107.1 709.52,-111.96 719.91,-114.03 718.93,-107.1"/>
</g>
<!-- Node26 -->
<g id="node26" class="node">
<title>Node26</title>
<g id="a_node26"><a xlink:href="frontend_8h.html" target="_top" xlink:title=" ">
<polygon fill="white" stroke="#666666" points="1826.5,-398.5 1697.5,-398.5 1697.5,-379.5 1826.5,-379.5 1826.5,-398.5"/>
<text text-anchor="middle" x="1762" y="-386.5" font-family="Helvetica,sans-Serif" font-size="10.00">src/node/rpc/frontend.h</text>
</a>
</g>
</g>
<!-- Node25&#45;&gt;Node26 -->
<g id="edge41" class="edge">
<title>Node25&#45;&gt;Node26</title>
<path fill="none" stroke="#63b8ff" d="M1587.63,-437.29C1633.51,-424.84 1694.24,-408.37 1730.59,-398.52"/>
<polygon fill="#63b8ff" stroke="#63b8ff" points="1586.53,-433.96 1577.79,-439.95 1588.36,-440.72 1586.53,-433.96"/>
</g>
<!-- Node26&#45;&gt;Node6 -->
<g id="edge47" class="edge">
<title>Node26&#45;&gt;Node6</title>
<path fill="none" stroke="#63b8ff" d="M1735.99,-374.79C1714.93,-364.09 1685.32,-349.05 1663.79,-338.12"/>
<polygon fill="#63b8ff" stroke="#63b8ff" points="1734.51,-377.96 1745.01,-379.37 1737.68,-371.72 1734.51,-377.96"/>
</g>
<!-- Node26&#45;&gt;Node9 -->
<g id="edge48" class="edge">
<title>Node26&#45;&gt;Node9</title>
<path fill="none" stroke="#63b8ff" d="M1807.46,-377.02C1859.68,-364.41 1944.26,-343.98 1991.75,-332.51"/>
<polygon fill="#63b8ff" stroke="#63b8ff" points="1806.36,-373.69 1797.46,-379.44 1808.01,-380.49 1806.36,-373.69"/>
</g>
<!-- Node26&#45;&gt;Node11 -->
<g id="edge46" class="edge">
<title>Node26&#45;&gt;Node11</title>
<path fill="none" stroke="#63b8ff" d="M1760.08,-369.34C1757.99,-340.12 1757.59,-282.68 1781,-242 1791.87,-223.12 1812.96,-208.95 1828.18,-200.6"/>
<polygon fill="#63b8ff" stroke="#63b8ff" points="1756.6,-369.73 1760.96,-379.39 1763.58,-369.12 1756.6,-369.73"/>
</g>
<!-- Node27 -->
<g id="node27" class="node">
<title>Node27</title>
<g id="a_node27"><a xlink:href="acme__challenge__frontend_8h.html" target="_top" xlink:title=" ">
<polygon fill="white" stroke="#666666" points="1930,-338 1790,-338 1790,-308 1930,-308 1930,-338"/>
<text text-anchor="start" x="1798" y="-326" font-family="Helvetica,sans-Serif" font-size="10.00">src/node/acme_challenge</text>
<text text-anchor="middle" x="1860" y="-315" font-family="Helvetica,sans-Serif" font-size="10.00">_frontend.h</text>
</a>
</g>
</g>
<!-- Node26&#45;&gt;Node27 -->
<g id="edge42" class="edge">
<title>Node26&#45;&gt;Node27</title>
<path fill="none" stroke="#63b8ff" d="M1784.03,-373.62C1800.27,-363.01 1822.25,-348.66 1838.39,-338.12"/>
<polygon fill="#63b8ff" stroke="#63b8ff" points="1781.68,-370.97 1775.22,-379.37 1785.5,-376.83 1781.68,-370.97"/>
</g>
<!-- Node29 -->
<g id="node29" class="node">
<title>Node29</title>
<g id="a_node29"><a xlink:href="user__frontend_8h.html" target="_top" xlink:title=" ">
<polygon fill="white" stroke="#666666" points="1737.5,-134.5 1582.5,-134.5 1582.5,-115.5 1737.5,-115.5 1737.5,-134.5"/>
<text text-anchor="middle" x="1660" y="-122.5" font-family="Helvetica,sans-Serif" font-size="10.00">src/node/rpc/user_frontend.h</text>
</a>
</g>
</g>
<!-- Node26&#45;&gt;Node29 -->
<g id="edge49" class="edge">
<title>Node26&#45;&gt;Node29</title>
<path fill="none" stroke="#63b8ff" d="M1754.9,-369.76C1734.78,-318.09 1677.92,-172.03 1663.41,-134.75"/>
<polygon fill="#63b8ff" stroke="#63b8ff" points="1751.72,-371.23 1758.61,-379.28 1758.24,-368.69 1751.72,-371.23"/>
</g>
<!-- Node27&#45;&gt;Node7 -->
<g id="edge43" class="edge">
<title>Node27&#45;&gt;Node7</title>
<path fill="none" stroke="#63b8ff" d="M1913.25,-303.29C1926.98,-295.77 1940.1,-285.58 1948,-272 1972.11,-230.56 1999.74,-180.43 1925,-110 1901.41,-87.78 1698.47,-74.09 1594.24,-68.47"/>
<polygon fill="#63b8ff" stroke="#63b8ff" points="1911.55,-300.23 1904.2,-307.85 1914.7,-306.48 1911.55,-300.23"/>
</g>
<!-- Node28 -->
<g id="node28" class="node">
<title>Node28</title>
<g id="a_node28"><a xlink:href="ccf__acme__client_8h.html" target="_top" xlink:title=" ">
<polygon fill="white" stroke="#666666" points="1938.5,-266.5 1789.5,-266.5 1789.5,-247.5 1938.5,-247.5 1938.5,-266.5"/>
<text text-anchor="middle" x="1864" y="-254.5" font-family="Helvetica,sans-Serif" font-size="10.00">src/node/ccf_acme_client.h</text>
</a>
</g>
</g>
<!-- Node27&#45;&gt;Node28 -->
<g id="edge44" class="edge">
<title>Node27&#45;&gt;Node28</title>
<path fill="none" stroke="#63b8ff" d="M1861.52,-297.6C1862.2,-286.8 1862.95,-274.78 1863.45,-266.84"/>
<polygon fill="#63b8ff" stroke="#63b8ff" points="1858.02,-297.6 1860.89,-307.8 1865,-298.03 1858.02,-297.6"/>
</g>
<!-- Node28&#45;&gt;Node11 -->
<g id="edge45" class="edge">
<title>Node28&#45;&gt;Node11</title>
<path fill="none" stroke="#63b8ff" d="M1858.78,-237.45C1855.4,-225.43 1851.15,-210.32 1848.5,-200.91"/>
<polygon fill="#63b8ff" stroke="#63b8ff" points="1855.5,-238.69 1861.57,-247.37 1862.23,-236.79 1855.5,-238.69"/>
</g>
<!-- Node29&#45;&gt;Node7 -->
<g id="edge50" class="edge">
<title>Node29&#45;&gt;Node7</title>
<path fill="none" stroke="#63b8ff" d="M1632.39,-111.28C1607.88,-99.99 1572.76,-83.81 1551.49,-74.02"/>
<polygon fill="#63b8ff" stroke="#63b8ff" points="1630.99,-114.49 1641.53,-115.49 1633.91,-108.13 1630.99,-114.49"/>
</g>
<!-- Node30&#45;&gt;Node7 -->
<g id="edge52" class="edge">
<title>Node30&#45;&gt;Node7</title>
<path fill="none" stroke="#63b8ff" d="M1479.8,-172.32C1493.31,-145.2 1518.64,-94.35 1528.71,-74.12"/>
<polygon fill="#63b8ff" stroke="#63b8ff" points="1476.59,-170.93 1475.26,-181.44 1482.85,-174.05 1476.59,-170.93"/>
</g>
<!-- Node31&#45;&gt;Node4 -->
<g id="edge55" class="edge">
<title>Node31&#45;&gt;Node4</title>
<path fill="none" stroke="#63b8ff" d="M428.54,-439.6C404.37,-432.09 378.68,-420.82 359,-404 338.26,-386.28 325.91,-355.98 320.09,-338.19"/>
<polygon fill="#63b8ff" stroke="#63b8ff" points="427.84,-443.05 438.42,-442.5 429.81,-436.33 427.84,-443.05"/>
</g>
<!-- Node31&#45;&gt;Node7 -->
<g id="edge56" class="edge">
<title>Node31&#45;&gt;Node7</title>
<path fill="none" stroke="#63b8ff" d="M517.69,-431.58C533.63,-406.55 556,-364.27 556,-324 556,-324 556,-324 556,-190 556,-153.35 547.64,-133.22 576,-110 610.68,-81.6 1265.88,-69.47 1471.68,-66.35"/>
<polygon fill="#63b8ff" stroke="#63b8ff" points="514.73,-429.7 512.16,-439.98 520.58,-433.55 514.73,-429.7"/>
</g>
<!-- Node32 -->
<g id="node32" class="node">
<title>Node32</title>
<g id="a_node32"><a xlink:href="historical__queries__adapter_8cpp.html" target="_top" xlink:title=" ">
<polygon fill="white" stroke="#666666" points="528,-338 408,-338 408,-308 528,-308 528,-338"/>
<text text-anchor="start" x="416" y="-326" font-family="Helvetica,sans-Serif" font-size="10.00">src/node/historical</text>
<text text-anchor="middle" x="468" y="-315" font-family="Helvetica,sans-Serif" font-size="10.00">_queries_adapter.cpp</text>
</a>
</g>
</g>
<!-- Node31&#45;&gt;Node32 -->
<g id="edge57" class="edge">
<title>Node31&#45;&gt;Node32</title>
<path fill="none" stroke="#63b8ff" d="M496.62,-429.71C493,-413.8 487.99,-392.6 483,-374 479.76,-361.92 475.65,-348.34 472.56,-338.38"/>
<polygon fill="#63b8ff" stroke="#63b8ff" points="493.27,-430.79 498.88,-439.78 500.1,-429.25 493.27,-430.79"/>
</g>
<!-- Node33 -->
<g id="node33" class="node">
<title>Node33</title>
<g id="a_node33"><a xlink:href="historical__queries__utils_8h.html" target="_top" xlink:title=" ">
<polygon fill="white" stroke="#666666" points="474,-404 368,-404 368,-374 474,-374 474,-404"/>
<text text-anchor="start" x="376" y="-392" font-family="Helvetica,sans-Serif" font-size="10.00">src/node/historical</text>
<text text-anchor="middle" x="421" y="-381" font-family="Helvetica,sans-Serif" font-size="10.00">_queries_utils.h</text>
</a>
</g>
</g>
<!-- Node31&#45;&gt;Node33 -->
<g id="edge58" class="edge">
<title>Node31&#45;&gt;Node33</title>
<path fill="none" stroke="#63b8ff" d="M476.03,-433.48C463.92,-423.91 449.82,-412.77 438.93,-404.16"/>
<polygon fill="#63b8ff" stroke="#63b8ff" points="474.01,-436.34 484.02,-439.8 478.35,-430.85 474.01,-436.34"/>
</g>
<!-- Node33&#45;&gt;Node4 -->
<g id="edge59" class="edge">
<title>Node33&#45;&gt;Node4</title>
<path fill="none" stroke="#63b8ff" d="M389.33,-368.69C373.12,-358.82 353.75,-347.01 338.99,-338.01"/>
<polygon fill="#63b8ff" stroke="#63b8ff" points="387.6,-371.74 397.96,-373.95 391.24,-365.76 387.6,-371.74"/>
</g>
<!-- Node33&#45;&gt;Node32 -->
<g id="edge60" class="edge">
<title>Node33&#45;&gt;Node32</title>
<path fill="none" stroke="#63b8ff" d="M437.5,-365.53C444.19,-356.43 451.7,-346.19 457.6,-338.16"/>
<polygon fill="#63b8ff" stroke="#63b8ff" points="434.53,-363.66 431.43,-373.8 440.17,-367.81 434.53,-363.66"/>
</g>
<!-- Node34&#45;&gt;Node7 -->
<g id="edge63" class="edge">
<title>Node34&#45;&gt;Node7</title>
<path fill="none" stroke="#63b8ff" d="M310.53,-440.64C274.01,-420.72 214,-379.55 214,-324 214,-324 214,-324 214,-190 214,-35.63 399.11,-131.37 552,-110 730.98,-84.98 1286.28,-70.88 1471.88,-66.77"/>
<polygon fill="#63b8ff" stroke="#63b8ff" points="309.22,-443.91 319.7,-445.47 312.48,-437.71 309.22,-443.91"/>
</g>
</g>
</svg>
