<?xml version="1.0" encoding="UTF-8" standalone="no"?>
<!DOCTYPE svg PUBLIC "-//W3C//DTD SVG 1.1//EN"
 "http://www.w3.org/Graphics/SVG/1.1/DTD/svg11.dtd">
<!-- Generated by graphviz version 2.43.0 (0)
 -->
<!-- Title: src/node/rpc/rpc_context_impl.h Pages: 1 -->
<!--zoomable 588 -->
<svg id="main" version="1.1" xmlns="http://www.w3.org/2000/svg" xmlns:xlink="http://www.w3.org/1999/xlink" xml:space="preserve" onload="init(evt)">
<style type="text/css"><![CDATA[
.edge:hover path { stroke: red; }
.edge:hover polygon { stroke: red; fill: red; }
]]></style>
<script type="text/javascript"><![CDATA[
var edges = document.getElementsByTagName('g');
if (edges && edges.length) {
  for (var i=0;i<edges.length;i++) {
    if (edges[i].id.substr(0,4)=='edge') {
      edges[i].setAttribute('class','edge');
    }
  }
}
]]></script>
        <defs>
                <circle id="rim" cx="0" cy="0" r="7"/>
                <circle id="rim2" cx="0" cy="0" r="3.5"/>
                <g id="zoomPlus">
                        <use xlink:href="#rim" fill="#404040">
                                <set attributeName="fill" to="#808080" begin="zoomplus.mouseover" end="zoomplus.mouseout"/>
                        </use>
                        <path d="M-4,0h8M0,-4v8" fill="none" stroke="white" stroke-width="1.5" pointer-events="none"/>
                </g>
                <g id="zoomMin">
                        <use xlink:href="#rim" fill="#404040">
                                <set attributeName="fill" to="#808080" begin="zoomminus.mouseover" end="zoomminus.mouseout"/>
                        </use>
                        <path d="M-4,0h8" fill="none" stroke="white" stroke-width="1.5" pointer-events="none"/>
                </g>
                <g id="dirArrow">
                        <path fill="none" stroke="white" stroke-width="1.5" d="M0,-3.0v7 M-2.5,-0.5L0,-3.0L2.5,-0.5"/>
                </g>
               <g id="resetDef">
                       <use xlink:href="#rim2" fill="#404040">
                               <set attributeName="fill" to="#808080" begin="reset.mouseover" end="reset.mouseout"/>
                       </use>
               </g>
        </defs>

<script type="text/javascript">
var viewWidth = 1073;
var viewHeight = 588;
var sectionId = 'dynsection-1';
</script>
<script xlink:href="svgpan.js"/>
<svg id="graph" class="graph">
<g id="viewport">
<title>src/node/rpc/rpc_context_impl.h</title>
<!-- Node1 -->
<g id="node1" class="node">
<title>Node1</title>
<g id="a_node1"><a xlink:title=" ">
<polygon fill="#999999" stroke="#666666" points="392,-580 256,-580 256,-550 392,-550 392,-580"/>
<text text-anchor="start" x="264" y="-568" font-family="Helvetica,sans-Serif" font-size="10.00">src/node/rpc/rpc_context</text>
<text text-anchor="middle" x="324" y="-557" font-family="Helvetica,sans-Serif" font-size="10.00">_impl.h</text>
</a>
</g>
</g>
<!-- Node2 -->
<g id="node2" class="node">
<title>Node2</title>
<g id="a_node2"><a xlink:href="external__executor_8cpp.html" target="_top" xlink:title=" ">
<polygon fill="white" stroke="#666666" points="204,-448 56,-448 56,-418 204,-418 204,-448"/>
<text text-anchor="start" x="64" y="-436" font-family="Helvetica,sans-Serif" font-size="10.00">src/apps/external_executor</text>
<text text-anchor="middle" x="130" y="-425" font-family="Helvetica,sans-Serif" font-size="10.00">/external_executor.cpp</text>
</a>
</g>
</g>
<!-- Node1&#45;&gt;Node2 -->
<g id="edge1" class="edge">
<title>Node1&#45;&gt;Node2</title>
<path fill="none" stroke="#63b8ff" d="M361.38,-544.81C387.51,-528.88 414.8,-505.45 397,-484 372.9,-454.97 274.63,-442.7 204.31,-437.57"/>
<polygon fill="#63b8ff" stroke="#63b8ff" points="359.5,-541.85 352.63,-549.91 363.03,-547.9 359.5,-541.85"/>
</g>
<!-- Node3 -->
<g id="node3" class="node">
<title>Node3</title>
<g id="a_node3"><a xlink:href="js__generic__base_8cpp.html" target="_top" xlink:title=" ">
<polygon fill="white" stroke="#666666" points="242,-514 124,-514 124,-484 242,-484 242,-514"/>
<text text-anchor="start" x="132" y="-502" font-family="Helvetica,sans-Serif" font-size="10.00">src/apps/js_generic</text>
<text text-anchor="middle" x="183" y="-491" font-family="Helvetica,sans-Serif" font-size="10.00">/js_generic_base.cpp</text>
</a>
</g>
</g>
<!-- Node1&#45;&gt;Node3 -->
<g id="edge2" class="edge">
<title>Node1&#45;&gt;Node3</title>
<path fill="none" stroke="#63b8ff" d="M283.87,-545.78C261.64,-535.69 234.43,-523.34 213.87,-514.01"/>
<polygon fill="#63b8ff" stroke="#63b8ff" points="282.5,-549.01 293.06,-549.95 285.4,-542.63 282.5,-549.01"/>
</g>
<!-- Node4 -->
<g id="node4" class="node">
<title>Node4</title>
<g id="a_node4"><a xlink:href="endpoint__registry_8cpp.html" target="_top" xlink:title=" ">
<polygon fill="white" stroke="#666666" points="388,-514 260,-514 260,-484 388,-484 388,-514"/>
<text text-anchor="start" x="268" y="-502" font-family="Helvetica,sans-Serif" font-size="10.00">src/endpoints/endpoint</text>
<text text-anchor="middle" x="324" y="-491" font-family="Helvetica,sans-Serif" font-size="10.00">_registry.cpp</text>
</a>
</g>
</g>
<!-- Node1&#45;&gt;Node4 -->
<g id="edge3" class="edge">
<title>Node1&#45;&gt;Node4</title>
<path fill="none" stroke="#63b8ff" d="M324,-539.54C324,-530.96 324,-521.61 324,-514.16"/>
<polygon fill="#63b8ff" stroke="#63b8ff" points="320.5,-539.8 324,-549.8 327.5,-539.8 320.5,-539.8"/>
</g>
<!-- Node5 -->
<g id="node5" class="node">
<title>Node5</title>
<g id="a_node5"><a xlink:href="grpc_8h.html" target="_top" xlink:title=" ">
<polygon fill="white" stroke="#666666" points="106,-514 0,-514 0,-484 106,-484 106,-514"/>
<text text-anchor="start" x="8" y="-502" font-family="Helvetica,sans-Serif" font-size="10.00">src/endpoints/grpc</text>
<text text-anchor="middle" x="53" y="-491" font-family="Helvetica,sans-Serif" font-size="10.00">/grpc.h</text>
</a>
</g>
</g>
<!-- Node1&#45;&gt;Node5 -->
<g id="edge4" class="edge">
<title>Node1&#45;&gt;Node5</title>
<path fill="none" stroke="#63b8ff" d="M254.6,-547.61C208.47,-536.72 148.79,-522.62 106.37,-512.6"/>
<polygon fill="#63b8ff" stroke="#63b8ff" points="253.99,-551.06 264.53,-549.95 255.6,-544.25 253.99,-551.06"/>
</g>
<!-- Node6 -->
<g id="node6" class="node">
<title>Node6</title>
<g id="a_node6"><a xlink:href="http__rpc__context_8h.html" target="_top" xlink:title=" ">
<polygon fill="white" stroke="#666666" points="591.5,-508.5 444.5,-508.5 444.5,-489.5 591.5,-489.5 591.5,-508.5"/>
<text text-anchor="middle" x="518" y="-496.5" font-family="Helvetica,sans-Serif" font-size="10.00">src/http/http_rpc_context.h</text>
</a>
</g>
</g>
<!-- Node1&#45;&gt;Node6 -->
<g id="edge6" class="edge">
<title>Node1&#45;&gt;Node6</title>
<path fill="none" stroke="#63b8ff" d="M376.33,-546.74C413.84,-534.36 462.74,-518.23 492.18,-508.52"/>
<polygon fill="#63b8ff" stroke="#63b8ff" points="374.97,-543.5 366.57,-549.95 377.17,-550.15 374.97,-543.5"/>
</g>
<!-- Node5&#45;&gt;Node2 -->
<g id="edge5" class="edge">
<title>Node5&#45;&gt;Node2</title>
<path fill="none" stroke="#63b8ff" d="M78.02,-477.2C89.45,-467.7 102.7,-456.69 112.96,-448.16"/>
<polygon fill="#63b8ff" stroke="#63b8ff" points="75.54,-474.71 70.09,-483.8 80.02,-480.1 75.54,-474.71"/>
</g>
<!-- Node7 -->
<g id="node7" class="node">
<title>Node7</title>
<g id="a_node7"><a xlink:href="http2__parser_8h.html" target="_top" xlink:title=" ">
<polygon fill="white" stroke="#666666" points="490,-442.5 364,-442.5 364,-423.5 490,-423.5 490,-442.5"/>
<text text-anchor="middle" x="427" y="-430.5" font-family="Helvetica,sans-Serif" font-size="10.00">src/http/http2_parser.h</text>
</a>
</g>
</g>
<!-- Node6&#45;&gt;Node7 -->
<g id="edge7" class="edge">
<title>Node6&#45;&gt;Node7</title>
<path fill="none" stroke="#63b8ff" d="M497.15,-483.33C479.3,-470.78 454.2,-453.13 439.37,-442.7"/>
<polygon fill="#63b8ff" stroke="#63b8ff" points="495.53,-486.48 505.73,-489.37 499.56,-480.75 495.53,-486.48"/>
</g>
<!-- Node8 -->
<g id="node8" class="node">
<title>Node8</title>
<g id="a_node8"><a xlink:href="http2__session_8h.html" target="_top" xlink:title=" ">
<polygon fill="white" stroke="#666666" points="522.5,-382 389.5,-382 389.5,-363 522.5,-363 522.5,-382"/>
<text text-anchor="middle" x="456" y="-370" font-family="Helvetica,sans-Serif" font-size="10.00">src/http/http2_session.h</text>
</a>
</g>
</g>
<!-- Node6&#45;&gt;Node8 -->
<g id="edge22" class="edge">
<title>Node6&#45;&gt;Node8</title>
<path fill="none" stroke="#63b8ff" d="M516.33,-478.79C514.21,-461.91 509.47,-437.13 499,-418 491.06,-403.49 477.11,-390.33 467.26,-382.15"/>
<polygon fill="#63b8ff" stroke="#63b8ff" points="512.88,-479.47 517.42,-489.05 519.84,-478.73 512.88,-479.47"/>
</g>
<!-- Node17 -->
<g id="node17" class="node">
<title>Node17</title>
<g id="a_node17"><a xlink:href="http__session_8h.html" target="_top" xlink:title=" ">
<polygon fill="white" stroke="#666666" points="371.5,-382 244.5,-382 244.5,-363 371.5,-363 371.5,-382"/>
<text text-anchor="middle" x="308" y="-370" font-family="Helvetica,sans-Serif" font-size="10.00">src/http/http_session.h</text>
</a>
</g>
</g>
<!-- Node6&#45;&gt;Node17 -->
<g id="edge23" class="edge">
<title>Node6&#45;&gt;Node17</title>
<path fill="none" stroke="#63b8ff" d="M445.08,-487.16C414.91,-479.9 380.98,-467.87 355,-448 331.92,-430.35 317.21,-397.86 311.16,-382.28"/>
<polygon fill="#63b8ff" stroke="#63b8ff" points="444.62,-490.65 455.15,-489.44 446.17,-483.82 444.62,-490.65"/>
</g>
<!-- Node18 -->
<g id="node18" class="node">
<title>Node18</title>
<g id="a_node18"><a xlink:href="jwt__key__auto__refresh_8h.html" target="_top" xlink:title=" ">
<polygon fill="white" stroke="#666666" points="747.5,-261 622.5,-261 622.5,-231 747.5,-231 747.5,-261"/>
<text text-anchor="start" x="630.5" y="-249" font-family="Helvetica,sans-Serif" font-size="10.00">src/node/jwt_key_auto</text>
<text text-anchor="middle" x="685" y="-238" font-family="Helvetica,sans-Serif" font-size="10.00">_refresh.h</text>
</a>
</g>
</g>
<!-- Node6&#45;&gt;Node18 -->
<g id="edge25" class="edge">
<title>Node6&#45;&gt;Node18</title>
<path fill="none" stroke="#63b8ff" d="M523.2,-479.42C534.47,-441.66 564.17,-354.66 613,-297 625.49,-282.25 643.31,-269.83 658.09,-261.06"/>
<polygon fill="#63b8ff" stroke="#63b8ff" points="519.71,-478.89 520.29,-489.47 526.43,-480.84 519.71,-478.89"/>
</g>
<!-- Node19 -->
<g id="node19" class="node">
<title>Node19</title>
<g id="a_node19"><a xlink:href="forwarder_8h.html" target="_top" xlink:title=" ">
<polygon fill="white" stroke="#666666" points="926,-442.5 792,-442.5 792,-423.5 926,-423.5 926,-442.5"/>
<text text-anchor="middle" x="859" y="-430.5" font-family="Helvetica,sans-Serif" font-size="10.00">src/node/rpc/forwarder.h</text>
</a>
</g>
</g>
<!-- Node6&#45;&gt;Node19 -->
<g id="edge27" class="edge">
<title>Node6&#45;&gt;Node19</title>
<path fill="none" stroke="#63b8ff" d="M573.58,-487.57C640.51,-475.01 751.63,-454.15 813.64,-442.51"/>
<polygon fill="#63b8ff" stroke="#63b8ff" points="572.82,-484.15 563.63,-489.44 574.11,-491.03 572.82,-484.15"/>
</g>
<!-- Node7&#45;&gt;Node8 -->
<g id="edge8" class="edge">
<title>Node7&#45;&gt;Node8</title>
<path fill="none" stroke="#63b8ff" d="M435.85,-414.15C441.11,-403.54 447.54,-390.56 451.7,-382.17"/>
<polygon fill="#63b8ff" stroke="#63b8ff" points="432.58,-412.85 431.28,-423.37 438.86,-415.96 432.58,-412.85"/>
</g>
<!-- Node9 -->
<g id="node9" class="node">
<title>Node9</title>
<g id="a_node9"><a xlink:href="rpc__sessions_8h.html" target="_top" xlink:title=" ">
<polygon fill="white" stroke="#666666" points="381,-321.5 235,-321.5 235,-302.5 381,-302.5 381,-321.5"/>
<text text-anchor="middle" x="308" y="-309.5" font-family="Helvetica,sans-Serif" font-size="10.00">src/enclave/rpc_sessions.h</text>
</a>
</g>
</g>
<!-- Node8&#45;&gt;Node9 -->
<g id="edge9" class="edge">
<title>Node8&#45;&gt;Node9</title>
<path fill="none" stroke="#63b8ff" d="M424.96,-359.23C396.36,-347.92 354.66,-331.44 329.55,-321.52"/>
<polygon fill="#63b8ff" stroke="#63b8ff" points="423.89,-362.57 434.48,-362.99 426.47,-356.06 423.89,-362.57"/>
</g>
<!-- Node10 -->
<g id="node10" class="node">
<title>Node10</title>
<g id="a_node10"><a xlink:href="src_2enclave_2enclave_8h.html" target="_top" xlink:title=" ">
<polygon fill="white" stroke="#666666" points="856,-74 734,-74 734,-55 856,-55 856,-74"/>
<text text-anchor="middle" x="795" y="-62" font-family="Helvetica,sans-Serif" font-size="10.00">src/enclave/enclave.h</text>
</a>
</g>
</g>
<!-- Node9&#45;&gt;Node10 -->
<g id="edge10" class="edge">
<title>Node9&#45;&gt;Node10</title>
<path fill="none" stroke="#63b8ff" d="M224.58,-310.82C133.54,-307.6 6.75,-292.47 55,-231 139.23,-123.69 572.08,-81.66 733.88,-69.55"/>
<polygon fill="#63b8ff" stroke="#63b8ff" points="224.55,-314.32 234.65,-311.13 224.77,-307.32 224.55,-314.32"/>
</g>
<!-- Node12 -->
<g id="node12" class="node">
<title>Node12</title>
<g id="a_node12"><a xlink:href="ccf__acme__client_8h.html" target="_top" xlink:title=" ">
<polygon fill="white" stroke="#666666" points="566.5,-255.5 417.5,-255.5 417.5,-236.5 566.5,-236.5 566.5,-255.5"/>
<text text-anchor="middle" x="492" y="-243.5" font-family="Helvetica,sans-Serif" font-size="10.00">src/node/ccf_acme_client.h</text>
</a>
</g>
</g>
<!-- Node9&#45;&gt;Node12 -->
<g id="edge12" class="edge">
<title>Node9&#45;&gt;Node12</title>
<path fill="none" stroke="#63b8ff" d="M342.5,-299C378.83,-286.36 435.15,-266.78 467.28,-255.6"/>
<polygon fill="#63b8ff" stroke="#63b8ff" points="341.11,-295.78 332.82,-302.37 343.41,-302.39 341.11,-295.78"/>
</g>
<!-- Node13 -->
<g id="node13" class="node">
<title>Node13</title>
<g id="a_node13"><a xlink:href="node__state_8h.html" target="_top" xlink:title=" ">
<polygon fill="white" stroke="#666666" points="564,-189.5 440,-189.5 440,-170.5 564,-170.5 564,-189.5"/>
<text text-anchor="middle" x="502" y="-177.5" font-family="Helvetica,sans-Serif" font-size="10.00">src/node/node_state.h</text>
</a>
</g>
</g>
<!-- Node9&#45;&gt;Node13 -->
<g id="edge17" class="edge">
<title>Node9&#45;&gt;Node13</title>
<path fill="none" stroke="#63b8ff" d="M327.23,-295.73C356.24,-272.71 407.93,-231.71 409,-231 433.97,-214.59 464.84,-198.8 483.98,-189.5"/>
<polygon fill="#63b8ff" stroke="#63b8ff" points="324.7,-293.27 319.04,-302.23 329.05,-298.76 324.7,-293.27"/>
</g>
<!-- Node15 -->
<g id="node15" class="node">
<title>Node15</title>
<g id="a_node15"><a xlink:href="quote__endorsements__client_8h.html" target="_top" xlink:title=" ">
<polygon fill="white" stroke="#666666" points="228,-261 64,-261 64,-231 228,-231 228,-261"/>
<text text-anchor="start" x="72" y="-249" font-family="Helvetica,sans-Serif" font-size="10.00">src/node/quote_endorsements</text>
<text text-anchor="middle" x="146" y="-238" font-family="Helvetica,sans-Serif" font-size="10.00">_client.h</text>
</a>
</g>
</g>
<!-- Node9&#45;&gt;Node15 -->
<g id="edge18" class="edge">
<title>Node9&#45;&gt;Node15</title>
<path fill="none" stroke="#63b8ff" d="M276.73,-298.65C249.54,-287.9 210.16,-272.35 181.73,-261.12"/>
<polygon fill="#63b8ff" stroke="#63b8ff" points="275.57,-301.95 286.15,-302.37 278.14,-295.44 275.57,-301.95"/>
</g>
<!-- Node16 -->
<g id="node16" class="node">
<title>Node16</title>
<g id="a_node16"><a xlink:href="resharing_8h.html" target="_top" xlink:title=" ">
<polygon fill="white" stroke="#666666" points="362,-255.5 246,-255.5 246,-236.5 362,-236.5 362,-255.5"/>
<text text-anchor="middle" x="304" y="-243.5" font-family="Helvetica,sans-Serif" font-size="10.00">src/node/resharing.h</text>
</a>
</g>
</g>
<!-- Node9&#45;&gt;Node16 -->
<g id="edge20" class="edge">
<title>Node9&#45;&gt;Node16</title>
<path fill="none" stroke="#63b8ff" d="M306.82,-292.08C306.07,-280.13 305.14,-265.22 304.56,-255.91"/>
<polygon fill="#63b8ff" stroke="#63b8ff" points="303.34,-292.61 307.46,-302.37 310.33,-292.17 303.34,-292.61"/>
</g>
<!-- Node11 -->
<g id="node11" class="node">
<title>Node11</title>
<g id="a_node11"><a xlink:href="enclave_2main_8cpp.html" target="_top" xlink:title=" ">
<polygon fill="white" stroke="#666666" points="855,-19 735,-19 735,0 855,0 855,-19"/>
<text text-anchor="middle" x="795" y="-7" font-family="Helvetica,sans-Serif" font-size="10.00">src/enclave/main.cpp</text>
</a>
</g>
</g>
<!-- Node10&#45;&gt;Node11 -->
<g id="edge11" class="edge">
<title>Node10&#45;&gt;Node11</title>
<path fill="none" stroke="#63b8ff" d="M795,-44.66C795,-35.93 795,-25.99 795,-19.09"/>
<polygon fill="#63b8ff" stroke="#63b8ff" points="791.5,-44.75 795,-54.75 798.5,-44.75 791.5,-44.75"/>
</g>
<!-- Node12&#45;&gt;Node13 -->
<g id="edge13" class="edge">
<title>Node12&#45;&gt;Node13</title>
<path fill="none" stroke="#63b8ff" d="M494.9,-226.45C496.78,-214.43 499.14,-199.32 500.61,-189.91"/>
<polygon fill="#63b8ff" stroke="#63b8ff" points="491.43,-225.95 493.35,-236.37 498.35,-227.03 491.43,-225.95"/>
</g>
<!-- Node13&#45;&gt;Node10 -->
<g id="edge14" class="edge">
<title>Node13&#45;&gt;Node10</title>
<path fill="none" stroke="#63b8ff" d="M516.63,-162.7C531.87,-146.77 557.23,-123.05 584,-110 631.28,-86.95 690.22,-75.79 733.78,-70.42"/>
<polygon fill="#63b8ff" stroke="#63b8ff" points="513.88,-160.52 509.63,-170.23 519,-165.29 513.88,-160.52"/>
</g>
<!-- Node14 -->
<g id="node14" class="node">
<title>Node14</title>
<g id="a_node14"><a xlink:href="gov__effects_8h.html" target="_top" xlink:title=" ">
<polygon fill="white" stroke="#666666" points="737,-129 593,-129 593,-110 737,-110 737,-129"/>
<text text-anchor="middle" x="665" y="-117" font-family="Helvetica,sans-Serif" font-size="10.00">src/node/rpc/gov_effects.h</text>
</a>
</g>
</g>
<!-- Node13&#45;&gt;Node14 -->
<g id="edge15" class="edge">
<title>Node13&#45;&gt;Node14</title>
<path fill="none" stroke="#63b8ff" d="M535.37,-167.02C566.88,-155.71 613.37,-139.03 641.27,-129.02"/>
<polygon fill="#63b8ff" stroke="#63b8ff" points="533.93,-163.82 525.7,-170.49 536.3,-170.41 533.93,-163.82"/>
</g>
<!-- Node14&#45;&gt;Node10 -->
<g id="edge16" class="edge">
<title>Node14&#45;&gt;Node10</title>
<path fill="none" stroke="#63b8ff" d="M695.27,-106.16C719.34,-96.35 752.4,-82.87 773.73,-74.17"/>
<polygon fill="#63b8ff" stroke="#63b8ff" points="693.83,-102.97 685.89,-109.98 696.47,-109.45 693.83,-102.97"/>
</g>
<!-- Node15&#45;&gt;Node13 -->
<g id="edge19" class="edge">
<title>Node15&#45;&gt;Node13</title>
<path fill="none" stroke="#63b8ff" d="M234.22,-229.14C303.93,-216.61 398.53,-199.6 454.62,-189.52"/>
<polygon fill="#63b8ff" stroke="#63b8ff" points="233.35,-225.74 224.13,-230.95 234.59,-232.63 233.35,-225.74"/>
</g>
<!-- Node16&#45;&gt;Node13 -->
<g id="edge21" class="edge">
<title>Node16&#45;&gt;Node13</title>
<path fill="none" stroke="#63b8ff" d="M340.37,-233.24C379.44,-220.61 440.6,-200.85 475.4,-189.6"/>
<polygon fill="#63b8ff" stroke="#63b8ff" points="339.14,-229.96 330.7,-236.37 341.29,-236.62 339.14,-229.96"/>
</g>
<!-- Node17&#45;&gt;Node9 -->
<g id="edge24" class="edge">
<title>Node17&#45;&gt;Node9</title>
<path fill="none" stroke="#63b8ff" d="M308,-352.66C308,-342.24 308,-329.8 308,-321.67"/>
<polygon fill="#63b8ff" stroke="#63b8ff" points="304.5,-352.87 308,-362.87 311.5,-352.87 304.5,-352.87"/>
</g>
<!-- Node18&#45;&gt;Node13 -->
<g id="edge26" class="edge">
<title>Node18&#45;&gt;Node13</title>
<path fill="none" stroke="#63b8ff" d="M635.18,-227.58C599.86,-215.23 554.01,-199.19 526.35,-189.52"/>
<polygon fill="#63b8ff" stroke="#63b8ff" points="634.25,-230.96 644.84,-230.95 636.56,-224.35 634.25,-230.96"/>
</g>
<!-- Node19&#45;&gt;Node10 -->
<g id="edge28" class="edge">
<title>Node19&#45;&gt;Node10</title>
<path fill="none" stroke="#63b8ff" d="M927.25,-421.36C986.89,-407.73 1064,-377.61 1064,-313 1064,-313 1064,-313 1064,-179 1064,-147.19 1068.51,-131.43 1045,-110 1018,-85.39 921.16,-73.99 856.24,-69.02"/>
<polygon fill="#63b8ff" stroke="#63b8ff" points="926.5,-417.95 917.47,-423.49 927.99,-424.79 926.5,-417.95"/>
</g>
<!-- Node20 -->
<g id="node20" class="node">
<title>Node20</title>
<g id="a_node20"><a xlink:href="frontend_8h.html" target="_top" xlink:title=" ">
<polygon fill="white" stroke="#666666" points="923.5,-382 794.5,-382 794.5,-363 923.5,-363 923.5,-382"/>
<text text-anchor="middle" x="859" y="-370" font-family="Helvetica,sans-Serif" font-size="10.00">src/node/rpc/frontend.h</text>
</a>
</g>
</g>
<!-- Node19&#45;&gt;Node20 -->
<g id="edge29" class="edge">
<title>Node19&#45;&gt;Node20</title>
<path fill="none" stroke="#63b8ff" d="M859,-413.16C859,-402.74 859,-390.3 859,-382.17"/>
<polygon fill="#63b8ff" stroke="#63b8ff" points="855.5,-413.37 859,-423.37 862.5,-413.37 855.5,-413.37"/>
</g>
<!-- Node20&#45;&gt;Node13 -->
<g id="edge33" class="edge">
<title>Node20&#45;&gt;Node13</title>
<path fill="none" stroke="#63b8ff" d="M783.98,-365.96C721.44,-359.92 638.58,-348.16 613,-327 577.76,-297.86 604.47,-266.78 576,-231 561.13,-212.32 537.37,-198.02 520.8,-189.59"/>
<polygon fill="#63b8ff" stroke="#63b8ff" points="783.94,-369.47 794.23,-366.92 784.59,-362.5 783.94,-369.47"/>
</g>
<!-- Node21 -->
<g id="node21" class="node">
<title>Node21</title>
<g id="a_node21"><a xlink:href="acme__challenge__frontend_8h.html" target="_top" xlink:title=" ">
<polygon fill="white" stroke="#666666" points="762,-327 622,-327 622,-297 762,-297 762,-327"/>
<text text-anchor="start" x="630" y="-315" font-family="Helvetica,sans-Serif" font-size="10.00">src/node/acme_challenge</text>
<text text-anchor="middle" x="692" y="-304" font-family="Helvetica,sans-Serif" font-size="10.00">_frontend.h</text>
</a>
</g>
</g>
<!-- Node20&#45;&gt;Node21 -->
<g id="edge30" class="edge">
<title>Node20&#45;&gt;Node21</title>
<path fill="none" stroke="#63b8ff" d="M824.98,-359.58C798.09,-350.16 760.51,-337 732.15,-327.06"/>
<polygon fill="#63b8ff" stroke="#63b8ff" points="824.12,-362.99 834.72,-362.99 826.44,-356.38 824.12,-362.99"/>
</g>
<!-- Node22 -->
<g id="node22" class="node">
<title>Node22</title>
<g id="a_node22"><a xlink:href="member__frontend_8h.html" target="_top" xlink:title=" ">
<polygon fill="white" stroke="#666666" points="969,-195 849,-195 849,-165 969,-165 969,-195"/>
<text text-anchor="start" x="857" y="-183" font-family="Helvetica,sans-Serif" font-size="10.00">src/node/rpc/member</text>
<text text-anchor="middle" x="909" y="-172" font-family="Helvetica,sans-Serif" font-size="10.00">_frontend.h</text>
</a>
</g>
</g>
<!-- Node20&#45;&gt;Node22 -->
<g id="edge34" class="edge">
<title>Node20&#45;&gt;Node22</title>
<path fill="none" stroke="#63b8ff" d="M904.75,-359.36C920.98,-352.61 937.55,-342.36 947,-327 973.48,-283.94 938.43,-222.82 919.58,-195.35"/>
<polygon fill="#63b8ff" stroke="#63b8ff" points="903.4,-356.13 895.29,-362.94 905.88,-362.68 903.4,-356.13"/>
</g>
<!-- Node23 -->
<g id="node23" class="node">
<title>Node23</title>
<g id="a_node23"><a xlink:href="node__frontend_8h.html" target="_top" xlink:title=" ">
<polygon fill="white" stroke="#666666" points="938,-321.5 780,-321.5 780,-302.5 938,-302.5 938,-321.5"/>
<text text-anchor="middle" x="859" y="-309.5" font-family="Helvetica,sans-Serif" font-size="10.00">src/node/rpc/node_frontend.h</text>
</a>
</g>
</g>
<!-- Node20&#45;&gt;Node23 -->
<g id="edge36" class="edge">
<title>Node20&#45;&gt;Node23</title>
<path fill="none" stroke="#63b8ff" d="M859,-352.66C859,-342.24 859,-329.8 859,-321.67"/>
<polygon fill="#63b8ff" stroke="#63b8ff" points="855.5,-352.87 859,-362.87 862.5,-352.87 855.5,-352.87"/>
</g>
<!-- Node24 -->
<g id="node24" class="node">
<title>Node24</title>
<g id="a_node24"><a xlink:href="user__frontend_8h.html" target="_top" xlink:title=" ">
<polygon fill="white" stroke="#666666" points="1035.5,-129 880.5,-129 880.5,-110 1035.5,-110 1035.5,-129"/>
<text text-anchor="middle" x="958" y="-117" font-family="Helvetica,sans-Serif" font-size="10.00">src/node/rpc/user_frontend.h</text>
</a>
</g>
</g>
<!-- Node20&#45;&gt;Node24 -->
<g id="edge39" class="edge">
<title>Node20&#45;&gt;Node24</title>
<path fill="none" stroke="#63b8ff" d="M916.35,-359.8C934.68,-353.2 953.24,-342.93 965,-327 1007.89,-268.88 993.14,-235.63 978,-165 975.19,-151.91 968.23,-138.03 963.32,-129.32"/>
<polygon fill="#63b8ff" stroke="#63b8ff" points="915.23,-356.48 906.82,-362.93 917.42,-363.13 915.23,-356.48"/>
</g>
<!-- Node21&#45;&gt;Node10 -->
<g id="edge31" class="edge">
<title>Node21&#45;&gt;Node10</title>
<path fill="none" stroke="#63b8ff" d="M727.06,-291.13C738.23,-283.15 749.6,-272.97 757,-261 796.08,-197.76 796.32,-102.85 795.4,-74.07"/>
<polygon fill="#63b8ff" stroke="#63b8ff" points="724.97,-288.32 718.62,-296.81 728.87,-294.13 724.97,-288.32"/>
</g>
<!-- Node21&#45;&gt;Node12 -->
<g id="edge32" class="edge">
<title>Node21&#45;&gt;Node12</title>
<path fill="none" stroke="#63b8ff" d="M638.54,-293.89C599.81,-281.5 549.1,-265.27 518.62,-255.52"/>
<polygon fill="#63b8ff" stroke="#63b8ff" points="637.52,-297.24 648.11,-296.95 639.65,-290.57 637.52,-297.24"/>
</g>
<!-- Node22&#45;&gt;Node10 -->
<g id="edge35" class="edge">
<title>Node22&#45;&gt;Node10</title>
<path fill="none" stroke="#63b8ff" d="M887.25,-157.34C861.97,-132.18 821.48,-91.86 803.77,-74.23"/>
<polygon fill="#63b8ff" stroke="#63b8ff" points="885.01,-160.05 894.56,-164.63 889.94,-155.09 885.01,-160.05"/>
</g>
<!-- Node23&#45;&gt;Node10 -->
<g id="edge37" class="edge">
<title>Node23&#45;&gt;Node10</title>
<path fill="none" stroke="#63b8ff" d="M854.12,-292.29C841.2,-242.71 806.43,-109.36 797.25,-74.13"/>
<polygon fill="#63b8ff" stroke="#63b8ff" points="850.81,-293.47 856.72,-302.26 857.59,-291.7 850.81,-293.47"/>
</g>
<!-- Node23&#45;&gt;Node18 -->
<g id="edge38" class="edge">
<title>Node23&#45;&gt;Node18</title>
<path fill="none" stroke="#63b8ff" d="M825.8,-298.79C796.58,-288.04 754.04,-272.4 723.38,-261.12"/>
<polygon fill="#63b8ff" stroke="#63b8ff" points="824.94,-302.2 835.53,-302.37 827.36,-295.63 824.94,-302.2"/>
</g>
<!-- Node24&#45;&gt;Node10 -->
<g id="edge40" class="edge">
<title>Node24&#45;&gt;Node10</title>
<path fill="none" stroke="#63b8ff" d="M922.01,-106.8C891.59,-96.91 848.72,-82.97 821.39,-74.08"/>
<polygon fill="#63b8ff" stroke="#63b8ff" points="921.22,-110.22 931.81,-109.98 923.38,-103.56 921.22,-110.22"/>
</g>
</g>
</svg>
        <g id="navigator" transform="translate(0 0)" fill="#404254">
                <rect fill="#f2f5e9" fill-opacity="0.5" stroke="#606060" stroke-width=".5" x="0" y="0" width="60" height="60"/>
                <use id="zoomplus" xlink:href="#zoomPlus" x="17" y="9" onmousedown="handleZoom(evt,'in')"/>
                <use id="zoomminus" xlink:href="#zoomMin" x="42" y="9" onmousedown="handleZoom(evt,'out')"/>
                <use id="reset" xlink:href="#resetDef" x="30" y="36" onmousedown="handleReset()"/>
                <g id="arrowUp" xlink:href="#dirArrow" transform="translate(30 24)" onmousedown="handlePan(0,-1)">
                  <use xlink:href="#rim" fill="#404040">
                        <set attributeName="fill" to="#808080" begin="arrowUp.mouseover" end="arrowUp.mouseout"/>
                  </use>
                  <path fill="none" stroke="white" stroke-width="1.5" d="M0,-3.0v7 M-2.5,-0.5L0,-3.0L2.5,-0.5"/>
                </g>
                <g id="arrowRight" xlink:href="#dirArrow" transform="rotate(90) translate(36 -43)" onmousedown="handlePan(1,0)">
                  <use xlink:href="#rim" fill="#404040">
                        <set attributeName="fill" to="#808080" begin="arrowRight.mouseover" end="arrowRight.mouseout"/>
                  </use>
                  <path fill="none" stroke="white" stroke-width="1.5" d="M0,-3.0v7 M-2.5,-0.5L0,-3.0L2.5,-0.5"/>
                </g>
                <g id="arrowDown" xlink:href="#dirArrow" transform="rotate(180) translate(-30 -48)" onmousedown="handlePan(0,1)">
                  <use xlink:href="#rim" fill="#404040">
                        <set attributeName="fill" to="#808080" begin="arrowDown.mouseover" end="arrowDown.mouseout"/>
                  </use>
                  <path fill="none" stroke="white" stroke-width="1.5" d="M0,-3.0v7 M-2.5,-0.5L0,-3.0L2.5,-0.5"/>
                </g>
                <g id="arrowLeft" xlink:href="#dirArrow" transform="rotate(270) translate(-36 17)" onmousedown="handlePan(-1,0)">
                  <use xlink:href="#rim" fill="#404040">
                        <set attributeName="fill" to="#808080" begin="arrowLeft.mouseover" end="arrowLeft.mouseout"/>
                  </use>
                  <path fill="none" stroke="white" stroke-width="1.5" d="M0,-3.0v7 M-2.5,-0.5L0,-3.0L2.5,-0.5"/>
                </g>
        </g>
        <svg viewBox="0 0 15 15" width="100%" height="30px" preserveAspectRatio="xMaxYMin meet">
         <g id="arrow_out" transform="scale(0.3 0.3)">
          <a xlink:href="rpc__context__impl_8h__dep__incl_org.svg" target="_base">
           <rect id="button" ry="5" rx="5" y="6" x="6" height="38" width="38"
                fill="#f2f5e9" fill-opacity="0.5" stroke="#606060" stroke-width="1.0"/>
           <path id="arrow"
             d="M 11.500037,31.436501 C 11.940474,20.09759 22.043105,11.32322 32.158766,21.979434 L 37.068811,17.246167 C 37.068811,17.246167 37.088388,32 37.088388,32 L 22.160133,31.978069 C 22.160133,31.978069 26.997745,27.140456 26.997745,27.140456 C 18.528582,18.264221 13.291696,25.230495 11.500037,31.436501 z"
             style="fill:#404040;"/>
          </a>
         </g>
        </svg>
</svg>
