<?xml version="1.0" encoding="UTF-8" standalone="no"?>
<!DOCTYPE svg PUBLIC "-//W3C//DTD SVG 1.1//EN"
 "http://www.w3.org/Graphics/SVG/1.1/DTD/svg11.dtd">
<!-- Generated by graphviz version 2.43.0 (0)
 -->
<!-- Title: include/ccf/service/tables/service.h Pages: 1 -->
<!--zoomable 577 -->
<svg id="main" version="1.1" xmlns="http://www.w3.org/2000/svg" xmlns:xlink="http://www.w3.org/1999/xlink" xml:space="preserve" onload="init(evt)">
<style type="text/css"><![CDATA[
.edge:hover path { stroke: red; }
.edge:hover polygon { stroke: red; fill: red; }
]]></style>
<script type="text/javascript"><![CDATA[
var edges = document.getElementsByTagName('g');
if (edges && edges.length) {
  for (var i=0;i<edges.length;i++) {
    if (edges[i].id.substr(0,4)=='edge') {
      edges[i].setAttribute('class','edge');
    }
  }
}
]]></script>
        <defs>
                <circle id="rim" cx="0" cy="0" r="7"/>
                <circle id="rim2" cx="0" cy="0" r="3.5"/>
                <g id="zoomPlus">
                        <use xlink:href="#rim" fill="#404040">
                                <set attributeName="fill" to="#808080" begin="zoomplus.mouseover" end="zoomplus.mouseout"/>
                        </use>
                        <path d="M-4,0h8M0,-4v8" fill="none" stroke="white" stroke-width="1.5" pointer-events="none"/>
                </g>
                <g id="zoomMin">
                        <use xlink:href="#rim" fill="#404040">
                                <set attributeName="fill" to="#808080" begin="zoomminus.mouseover" end="zoomminus.mouseout"/>
                        </use>
                        <path d="M-4,0h8" fill="none" stroke="white" stroke-width="1.5" pointer-events="none"/>
                </g>
                <g id="dirArrow">
                        <path fill="none" stroke="white" stroke-width="1.5" d="M0,-3.0v7 M-2.5,-0.5L0,-3.0L2.5,-0.5"/>
                </g>
               <g id="resetDef">
                       <use xlink:href="#rim2" fill="#404040">
                               <set attributeName="fill" to="#808080" begin="reset.mouseover" end="reset.mouseout"/>
                       </use>
               </g>
        </defs>

<script type="text/javascript">
var viewWidth = 2557;
var viewHeight = 577;
var sectionId = 'dynsection-1';
</script>
<script xlink:href="svgpan.js"/>
<svg id="graph" class="graph">
<g id="viewport">
<title>include/ccf/service/tables/service.h</title>
<!-- Node1 -->
<g id="node1" class="node">
<title>Node1</title>
<g id="a_node1"><a xlink:title=" ">
<polygon fill="#999999" stroke="#666666" points="405.5,-569 298.5,-569 298.5,-539 405.5,-539 405.5,-569"/>
<text text-anchor="start" x="306.5" y="-557" font-family="Helvetica,sans-Serif" font-size="10.00">include/ccf/service</text>
<text text-anchor="middle" x="352" y="-546" font-family="Helvetica,sans-Serif" font-size="10.00">/tables/service.h</text>
</a>
</g>
</g>
<!-- Node2 -->
<g id="node2" class="node">
<title>Node2</title>
<g id="a_node2"><a xlink:href="historical__queries__adapter_8cpp.html" target="_top" xlink:title=" ">
<polygon fill="white" stroke="#666666" points="120,-437 0,-437 0,-407 120,-407 120,-437"/>
<text text-anchor="start" x="8" y="-425" font-family="Helvetica,sans-Serif" font-size="10.00">src/node/historical</text>
<text text-anchor="middle" x="60" y="-414" font-family="Helvetica,sans-Serif" font-size="10.00">_queries_adapter.cpp</text>
</a>
</g>
</g>
<!-- Node1&#45;&gt;Node2 -->
<g id="edge1" class="edge">
<title>Node1&#45;&gt;Node2</title>
<path fill="none" stroke="#63b8ff" d="M288.51,-545.33C247.24,-538.45 193.26,-525.78 150,-503 117.81,-486.05 87.8,-455.19 71.88,-437.15"/>
<polygon fill="#63b8ff" stroke="#63b8ff" points="288.02,-548.8 298.45,-546.92 289.13,-541.88 288.02,-548.8"/>
</g>
<!-- Node3 -->
<g id="node3" class="node">
<title>Node3</title>
<g id="a_node3"><a xlink:href="historical__queries__utils_8h.html" target="_top" xlink:title=" ">
<polygon fill="white" stroke="#666666" points="265,-503 159,-503 159,-473 265,-473 265,-503"/>
<text text-anchor="start" x="167" y="-491" font-family="Helvetica,sans-Serif" font-size="10.00">src/node/historical</text>
<text text-anchor="middle" x="212" y="-480" font-family="Helvetica,sans-Serif" font-size="10.00">_queries_utils.h</text>
</a>
</g>
</g>
<!-- Node1&#45;&gt;Node3 -->
<g id="edge2" class="edge">
<title>Node1&#45;&gt;Node3</title>
<path fill="none" stroke="#63b8ff" d="M312.15,-534.78C290.08,-524.69 263.06,-512.34 242.65,-503.01"/>
<polygon fill="#63b8ff" stroke="#63b8ff" points="310.73,-537.98 321.28,-538.95 313.64,-531.61 310.73,-537.98"/>
</g>
<!-- Node5 -->
<g id="node5" class="node">
<title>Node5</title>
<g id="a_node5"><a xlink:href="node__state_8h.html" target="_top" xlink:title=" ">
<polygon fill="white" stroke="#666666" points="997,-184 873,-184 873,-165 997,-165 997,-184"/>
<text text-anchor="middle" x="935" y="-172" font-family="Helvetica,sans-Serif" font-size="10.00">src/node/node_state.h</text>
</a>
</g>
</g>
<!-- Node1&#45;&gt;Node5 -->
<g id="edge5" class="edge">
<title>Node1&#45;&gt;Node5</title>
<path fill="none" stroke="#63b8ff" d="M340.85,-529.73C329.63,-504.17 314,-461.61 314,-423 314,-423 314,-423 314,-300 314,-186.81 715.62,-175.16 872.9,-174.93"/>
<polygon fill="#63b8ff" stroke="#63b8ff" points="337.71,-531.3 345.03,-538.97 344.09,-528.41 337.71,-531.3"/>
</g>
<!-- Node9 -->
<g id="node9" class="node">
<title>Node9</title>
<g id="a_node9"><a xlink:href="frontend_8h.html" target="_top" xlink:title=" ">
<polygon fill="white" stroke="#666666" points="731.5,-371 602.5,-371 602.5,-352 731.5,-352 731.5,-371"/>
<text text-anchor="middle" x="667" y="-359" font-family="Helvetica,sans-Serif" font-size="10.00">src/node/rpc/frontend.h</text>
</a>
</g>
</g>
<!-- Node1&#45;&gt;Node9 -->
<g id="edge10" class="edge">
<title>Node1&#45;&gt;Node9</title>
<path fill="none" stroke="#63b8ff" d="M384.07,-533.61C451.38,-492.9 605.11,-399.93 652.69,-371.15"/>
<polygon fill="#63b8ff" stroke="#63b8ff" points="381.91,-530.82 375.16,-538.99 385.53,-536.81 381.91,-530.82"/>
</g>
<!-- Node16 -->
<g id="node16" class="node">
<title>Node16</title>
<g id="a_node16"><a xlink:href="node__call__types_8h.html" target="_top" xlink:title=" ">
<polygon fill="white" stroke="#666666" points="1242.5,-503 1117.5,-503 1117.5,-473 1242.5,-473 1242.5,-503"/>
<text text-anchor="start" x="1125.5" y="-491" font-family="Helvetica,sans-Serif" font-size="10.00">src/node/rpc/node_call</text>
<text text-anchor="middle" x="1180" y="-480" font-family="Helvetica,sans-Serif" font-size="10.00">_types.h</text>
</a>
</g>
</g>
<!-- Node1&#45;&gt;Node16 -->
<g id="edge24" class="edge">
<title>Node1&#45;&gt;Node16</title>
<path fill="none" stroke="#63b8ff" d="M415.97,-548.06C570.72,-536.09 963.79,-505.71 1117.26,-493.85"/>
<polygon fill="#63b8ff" stroke="#63b8ff" points="415.39,-544.59 405.69,-548.85 415.93,-551.57 415.39,-544.59"/>
</g>
<!-- Node22 -->
<g id="node22" class="node">
<title>Node22</title>
<g id="a_node22"><a xlink:href="network__tables_8h.html" target="_top" xlink:title=" ">
<polygon fill="white" stroke="#666666" points="773,-503 661,-503 661,-473 773,-473 773,-503"/>
<text text-anchor="start" x="669" y="-491" font-family="Helvetica,sans-Serif" font-size="10.00">src/service/network</text>
<text text-anchor="middle" x="717" y="-480" font-family="Helvetica,sans-Serif" font-size="10.00">_tables.h</text>
</a>
</g>
</g>
<!-- Node1&#45;&gt;Node22 -->
<g id="edge37" class="edge">
<title>Node1&#45;&gt;Node22</title>
<path fill="none" stroke="#63b8ff" d="M415.78,-541.82C485.06,-529.67 594.67,-510.45 660.82,-498.85"/>
<polygon fill="#63b8ff" stroke="#63b8ff" points="415.1,-538.38 405.86,-543.56 416.31,-545.28 415.1,-538.38"/>
</g>
<!-- Node3&#45;&gt;Node2 -->
<g id="edge4" class="edge">
<title>Node3&#45;&gt;Node2</title>
<path fill="none" stroke="#63b8ff" d="M169.38,-469.05C145.3,-458.91 115.64,-446.43 93.28,-437.01"/>
<polygon fill="#63b8ff" stroke="#63b8ff" points="168.07,-472.3 178.64,-472.95 170.78,-465.85 168.07,-472.3"/>
</g>
<!-- Node4 -->
<g id="node4" class="node">
<title>Node4</title>
<g id="a_node4"><a xlink:href="external__executor_8cpp.html" target="_top" xlink:title=" ">
<polygon fill="white" stroke="#666666" points="286,-437 138,-437 138,-407 286,-407 286,-437"/>
<text text-anchor="start" x="146" y="-425" font-family="Helvetica,sans-Serif" font-size="10.00">src/apps/external_executor</text>
<text text-anchor="middle" x="212" y="-414" font-family="Helvetica,sans-Serif" font-size="10.00">/external_executor.cpp</text>
</a>
</g>
</g>
<!-- Node3&#45;&gt;Node4 -->
<g id="edge3" class="edge">
<title>Node3&#45;&gt;Node4</title>
<path fill="none" stroke="#63b8ff" d="M212,-462.54C212,-453.96 212,-444.61 212,-437.16"/>
<polygon fill="#63b8ff" stroke="#63b8ff" points="208.5,-462.8 212,-472.8 215.5,-462.8 208.5,-462.8"/>
</g>
<!-- Node6 -->
<g id="node6" class="node">
<title>Node6</title>
<g id="a_node6"><a xlink:href="src_2enclave_2enclave_8h.html" target="_top" xlink:title=" ">
<polygon fill="white" stroke="#666666" points="1196,-74 1074,-74 1074,-55 1196,-55 1196,-74"/>
<text text-anchor="middle" x="1135" y="-62" font-family="Helvetica,sans-Serif" font-size="10.00">src/enclave/enclave.h</text>
</a>
</g>
</g>
<!-- Node5&#45;&gt;Node6 -->
<g id="edge6" class="edge">
<title>Node5&#45;&gt;Node6</title>
<path fill="none" stroke="#63b8ff" d="M966.51,-161.1C986.74,-152.78 1013.37,-141.15 1036,-129 1068.56,-111.52 1104.57,-87.01 1122.87,-74.16"/>
<polygon fill="#63b8ff" stroke="#63b8ff" points="965.09,-157.9 957.14,-164.91 967.72,-164.39 965.09,-157.9"/>
</g>
<!-- Node8 -->
<g id="node8" class="node">
<title>Node8</title>
<g id="a_node8"><a xlink:href="gov__effects_8h.html" target="_top" xlink:title=" ">
<polygon fill="white" stroke="#666666" points="1027,-129 883,-129 883,-110 1027,-110 1027,-129"/>
<text text-anchor="middle" x="955" y="-117" font-family="Helvetica,sans-Serif" font-size="10.00">src/node/rpc/gov_effects.h</text>
</a>
</g>
</g>
<!-- Node5&#45;&gt;Node8 -->
<g id="edge8" class="edge">
<title>Node5&#45;&gt;Node8</title>
<path fill="none" stroke="#63b8ff" d="M941.89,-155.24C945.24,-146.37 949.1,-136.14 951.76,-129.09"/>
<polygon fill="#63b8ff" stroke="#63b8ff" points="938.56,-154.16 938.3,-164.75 945.11,-156.63 938.56,-154.16"/>
</g>
<!-- Node7 -->
<g id="node7" class="node">
<title>Node7</title>
<g id="a_node7"><a xlink:href="enclave_2main_8cpp.html" target="_top" xlink:title=" ">
<polygon fill="white" stroke="#666666" points="1195,-19 1075,-19 1075,0 1195,0 1195,-19"/>
<text text-anchor="middle" x="1135" y="-7" font-family="Helvetica,sans-Serif" font-size="10.00">src/enclave/main.cpp</text>
</a>
</g>
</g>
<!-- Node6&#45;&gt;Node7 -->
<g id="edge7" class="edge">
<title>Node6&#45;&gt;Node7</title>
<path fill="none" stroke="#63b8ff" d="M1135,-44.66C1135,-35.93 1135,-25.99 1135,-19.09"/>
<polygon fill="#63b8ff" stroke="#63b8ff" points="1131.5,-44.75 1135,-54.75 1138.5,-44.75 1131.5,-44.75"/>
</g>
<!-- Node8&#45;&gt;Node6 -->
<g id="edge9" class="edge">
<title>Node8&#45;&gt;Node6</title>
<path fill="none" stroke="#63b8ff" d="M993.87,-107.06C1027.51,-97.15 1075.42,-83.04 1105.85,-74.08"/>
<polygon fill="#63b8ff" stroke="#63b8ff" points="992.52,-103.8 983.92,-109.98 994.5,-110.52 992.52,-103.8"/>
</g>
<!-- Node9&#45;&gt;Node5 -->
<g id="edge15" class="edge">
<title>Node9&#45;&gt;Node5</title>
<path fill="none" stroke="#63b8ff" d="M684.63,-344.29C691.79,-336.51 699.25,-326.59 703,-316 707.45,-303.43 706.21,-298.94 703,-286 698.65,-268.44 688.35,-267.56 684,-250 680.79,-237.06 675.43,-230.22 684,-220 707.63,-191.81 806.43,-181.47 872.79,-177.68"/>
<polygon fill="#63b8ff" stroke="#63b8ff" points="681.72,-342.24 677.16,-351.81 686.69,-347.18 681.72,-342.24"/>
</g>
<!-- Node10 -->
<g id="node10" class="node">
<title>Node10</title>
<g id="a_node10"><a xlink:href="acme__challenge__frontend_8h.html" target="_top" xlink:title=" ">
<polygon fill="white" stroke="#666666" points="694,-316 554,-316 554,-286 694,-286 694,-316"/>
<text text-anchor="start" x="562" y="-304" font-family="Helvetica,sans-Serif" font-size="10.00">src/node/acme_challenge</text>
<text text-anchor="middle" x="624" y="-293" font-family="Helvetica,sans-Serif" font-size="10.00">_frontend.h</text>
</a>
</g>
</g>
<!-- Node9&#45;&gt;Node10 -->
<g id="edge11" class="edge">
<title>Node9&#45;&gt;Node10</title>
<path fill="none" stroke="#63b8ff" d="M654.58,-343.61C648.18,-334.89 640.46,-324.39 634.37,-316.11"/>
<polygon fill="#63b8ff" stroke="#63b8ff" points="651.91,-345.88 660.66,-351.87 657.55,-341.74 651.91,-345.88"/>
</g>
<!-- Node12 -->
<g id="node12" class="node">
<title>Node12</title>
<g id="a_node12"><a xlink:href="member__frontend_8h.html" target="_top" xlink:title=" ">
<polygon fill="white" stroke="#666666" points="1497,-316 1377,-316 1377,-286 1497,-286 1497,-316"/>
<text text-anchor="start" x="1385" y="-304" font-family="Helvetica,sans-Serif" font-size="10.00">src/node/rpc/member</text>
<text text-anchor="middle" x="1437" y="-293" font-family="Helvetica,sans-Serif" font-size="10.00">_frontend.h</text>
</a>
</g>
</g>
<!-- Node9&#45;&gt;Node12 -->
<g id="edge16" class="edge">
<title>Node9&#45;&gt;Node12</title>
<path fill="none" stroke="#63b8ff" d="M741.93,-356.07C890.52,-347.18 1217.82,-327.09 1330,-316 1345.19,-314.5 1361.56,-312.53 1376.81,-310.55"/>
<polygon fill="#63b8ff" stroke="#63b8ff" points="741.32,-352.6 731.55,-356.69 741.74,-359.59 741.32,-352.6"/>
</g>
<!-- Node13 -->
<g id="node13" class="node">
<title>Node13</title>
<g id="a_node13"><a xlink:href="node__frontend_8h.html" target="_top" xlink:title=" ">
<polygon fill="white" stroke="#666666" points="1149,-310.5 991,-310.5 991,-291.5 1149,-291.5 1149,-310.5"/>
<text text-anchor="middle" x="1070" y="-298.5" font-family="Helvetica,sans-Serif" font-size="10.00">src/node/rpc/node_frontend.h</text>
</a>
</g>
</g>
<!-- Node9&#45;&gt;Node13 -->
<g id="edge18" class="edge">
<title>Node9&#45;&gt;Node13</title>
<path fill="none" stroke="#63b8ff" d="M735.75,-350.52C813.32,-339.26 938.17,-321.14 1011.33,-310.52"/>
<polygon fill="#63b8ff" stroke="#63b8ff" points="734.99,-347.09 725.6,-351.99 736,-354.02 734.99,-347.09"/>
</g>
<!-- Node15 -->
<g id="node15" class="node">
<title>Node15</title>
<g id="a_node15"><a xlink:href="user__frontend_8h.html" target="_top" xlink:title=" ">
<polygon fill="white" stroke="#666666" points="535.5,-310.5 380.5,-310.5 380.5,-291.5 535.5,-291.5 535.5,-310.5"/>
<text text-anchor="middle" x="458" y="-298.5" font-family="Helvetica,sans-Serif" font-size="10.00">src/node/rpc/user_frontend.h</text>
</a>
</g>
</g>
<!-- Node9&#45;&gt;Node15 -->
<g id="edge22" class="edge">
<title>Node9&#45;&gt;Node15</title>
<path fill="none" stroke="#63b8ff" d="M626.81,-349.25C586.4,-337.94 524.97,-320.75 488.43,-310.52"/>
<polygon fill="#63b8ff" stroke="#63b8ff" points="626.04,-352.67 636.61,-351.99 627.92,-345.93 626.04,-352.67"/>
</g>
<!-- Node10&#45;&gt;Node6 -->
<g id="edge12" class="edge">
<title>Node10&#45;&gt;Node6</title>
<path fill="none" stroke="#63b8ff" d="M635.34,-276.43C644.5,-259.21 658.69,-236.15 676,-220 749.61,-151.32 779.03,-143.38 874,-110 940.13,-86.76 1020.09,-75.41 1073.94,-70.04"/>
<polygon fill="#63b8ff" stroke="#63b8ff" points="631.98,-275.29 630.54,-285.79 638.22,-278.48 631.98,-275.29"/>
</g>
<!-- Node11 -->
<g id="node11" class="node">
<title>Node11</title>
<g id="a_node11"><a xlink:href="ccf__acme__client_8h.html" target="_top" xlink:title=" ">
<polygon fill="white" stroke="#666666" points="599.5,-244.5 450.5,-244.5 450.5,-225.5 599.5,-225.5 599.5,-244.5"/>
<text text-anchor="middle" x="525" y="-232.5" font-family="Helvetica,sans-Serif" font-size="10.00">src/node/ccf_acme_client.h</text>
</a>
</g>
</g>
<!-- Node10&#45;&gt;Node11 -->
<g id="edge13" class="edge">
<title>Node10&#45;&gt;Node11</title>
<path fill="none" stroke="#63b8ff" d="M593.62,-280.36C575.15,-268.42 552.49,-253.77 538.39,-244.66"/>
<polygon fill="#63b8ff" stroke="#63b8ff" points="591.73,-283.31 602.03,-285.8 595.53,-277.43 591.73,-283.31"/>
</g>
<!-- Node11&#45;&gt;Node5 -->
<g id="edge14" class="edge">
<title>Node11&#45;&gt;Node5</title>
<path fill="none" stroke="#63b8ff" d="M594.95,-224.02C673.86,-212.76 800.88,-194.64 875.31,-184.02"/>
<polygon fill="#63b8ff" stroke="#63b8ff" points="594.02,-220.62 584.62,-225.49 595.01,-227.55 594.02,-220.62"/>
</g>
<!-- Node12&#45;&gt;Node6 -->
<g id="edge17" class="edge">
<title>Node12&#45;&gt;Node6</title>
<path fill="none" stroke="#63b8ff" d="M1411.73,-279.36C1368.32,-244.03 1276.56,-169.99 1197,-110 1180.07,-97.24 1160.09,-83.04 1147.48,-74.2"/>
<polygon fill="#63b8ff" stroke="#63b8ff" points="1409.79,-282.29 1419.75,-285.89 1414.21,-276.86 1409.79,-282.29"/>
</g>
<!-- Node13&#45;&gt;Node6 -->
<g id="edge19" class="edge">
<title>Node13&#45;&gt;Node6</title>
<path fill="none" stroke="#63b8ff" d="M1093.32,-285.78C1105.35,-277.07 1118.95,-264.77 1126,-250 1155.42,-188.35 1142.12,-101.57 1136.81,-74.15"/>
<polygon fill="#63b8ff" stroke="#63b8ff" points="1091.25,-282.95 1084.95,-291.47 1095.19,-288.74 1091.25,-282.95"/>
</g>
<!-- Node14 -->
<g id="node14" class="node">
<title>Node14</title>
<g id="a_node14"><a xlink:href="jwt__key__auto__refresh_8h.html" target="_top" xlink:title=" ">
<polygon fill="white" stroke="#666666" points="1116.5,-250 991.5,-250 991.5,-220 1116.5,-220 1116.5,-250"/>
<text text-anchor="start" x="999.5" y="-238" font-family="Helvetica,sans-Serif" font-size="10.00">src/node/jwt_key_auto</text>
<text text-anchor="middle" x="1054" y="-227" font-family="Helvetica,sans-Serif" font-size="10.00">_refresh.h</text>
</a>
</g>
</g>
<!-- Node13&#45;&gt;Node14 -->
<g id="edge20" class="edge">
<title>Node13&#45;&gt;Node14</title>
<path fill="none" stroke="#63b8ff" d="M1065.34,-281.35C1062.87,-271.47 1059.88,-259.51 1057.59,-250.36"/>
<polygon fill="#63b8ff" stroke="#63b8ff" points="1062.02,-282.52 1067.84,-291.37 1068.81,-280.82 1062.02,-282.52"/>
</g>
<!-- Node14&#45;&gt;Node5 -->
<g id="edge21" class="edge">
<title>Node14&#45;&gt;Node5</title>
<path fill="none" stroke="#63b8ff" d="M1016.35,-215.49C995,-205 969.3,-192.36 952.57,-184.14"/>
<polygon fill="#63b8ff" stroke="#63b8ff" points="1014.98,-218.72 1025.5,-219.99 1018.07,-212.44 1014.98,-218.72"/>
</g>
<!-- Node15&#45;&gt;Node6 -->
<g id="edge23" class="edge">
<title>Node15&#45;&gt;Node6</title>
<path fill="none" stroke="#63b8ff" d="M446.81,-282.25C437.38,-264.77 427.4,-238.14 441,-220 545.72,-80.36 647.35,-146.67 818,-110 906.02,-91.08 1009.58,-78.29 1073.77,-71.44"/>
<polygon fill="#63b8ff" stroke="#63b8ff" points="444.06,-284.47 452.12,-291.34 450.1,-280.94 444.06,-284.47"/>
</g>
<!-- Node17 -->
<g id="node17" class="node">
<title>Node17</title>
<g id="a_node17"><a xlink:href="call__types_8h.html" target="_top" xlink:title=" ">
<polygon fill="white" stroke="#666666" points="1564.5,-431.5 1427.5,-431.5 1427.5,-412.5 1564.5,-412.5 1564.5,-431.5"/>
<text text-anchor="middle" x="1496" y="-419.5" font-family="Helvetica,sans-Serif" font-size="10.00">src/node/rpc/call_types.h</text>
</a>
</g>
</g>
<!-- Node16&#45;&gt;Node17 -->
<g id="edge25" class="edge">
<title>Node16&#45;&gt;Node17</title>
<path fill="none" stroke="#63b8ff" d="M1252.97,-472.22C1315.3,-459.6 1402.76,-441.88 1453.99,-431.51"/>
<polygon fill="#63b8ff" stroke="#63b8ff" points="1251.92,-468.86 1242.81,-474.28 1253.31,-475.72 1251.92,-468.86"/>
</g>
<!-- Node17&#45;&gt;Node12 -->
<g id="edge30" class="edge">
<title>Node17&#45;&gt;Node12</title>
<path fill="none" stroke="#63b8ff" d="M1517.21,-406.21C1534.4,-392.33 1553.96,-370.94 1542,-352 1531.22,-334.93 1512.84,-323.56 1494.44,-316.05"/>
<polygon fill="#63b8ff" stroke="#63b8ff" points="1514.95,-403.53 1509.11,-412.38 1519.19,-409.1 1514.95,-403.53"/>
</g>
<!-- Node18 -->
<g id="node18" class="node">
<title>Node18</title>
<g id="a_node18"><a xlink:href="common__endpoint__registry_8cpp.html" target="_top" xlink:title=" ">
<polygon fill="white" stroke="#666666" points="1643,-316 1515,-316 1515,-286 1643,-286 1643,-316"/>
<text text-anchor="start" x="1523" y="-304" font-family="Helvetica,sans-Serif" font-size="10.00">src/endpoints/common</text>
<text text-anchor="middle" x="1579" y="-293" font-family="Helvetica,sans-Serif" font-size="10.00">_endpoint_registry.cpp</text>
</a>
</g>
</g>
<!-- Node17&#45;&gt;Node18 -->
<g id="edge26" class="edge">
<title>Node17&#45;&gt;Node18</title>
<path fill="none" stroke="#63b8ff" d="M1519,-406.95C1531.82,-398.07 1547.13,-385.54 1557,-371 1568.44,-354.15 1574.21,-330.99 1576.91,-316.26"/>
<polygon fill="#63b8ff" stroke="#63b8ff" points="1517.04,-404.06 1510.63,-412.5 1520.9,-409.9 1517.04,-404.06"/>
</g>
<!-- Node19 -->
<g id="node19" class="node">
<title>Node19</title>
<g id="a_node19"><a xlink:href="wrap_8cpp.html" target="_top" xlink:title=" ">
<polygon fill="white" stroke="#666666" points="2370.5,-244.5 2281.5,-244.5 2281.5,-225.5 2370.5,-225.5 2370.5,-244.5"/>
<text text-anchor="middle" x="2326" y="-232.5" font-family="Helvetica,sans-Serif" font-size="10.00">src/js/wrap.cpp</text>
</a>
</g>
</g>
<!-- Node17&#45;&gt;Node19 -->
<g id="edge27" class="edge">
<title>Node17&#45;&gt;Node19</title>
<path fill="none" stroke="#63b8ff" d="M1574.57,-418.67C1799.08,-411.19 2431.24,-384.21 2492,-316 2530.46,-272.82 2431.86,-250.74 2370.57,-241.48"/>
<polygon fill="#63b8ff" stroke="#63b8ff" points="1574.39,-415.17 1564.51,-419 1574.62,-422.17 1574.39,-415.17"/>
</g>
<!-- Node20 -->
<g id="node20" class="node">
<title>Node20</title>
<g id="a_node20"><a xlink:href="resharing_8h.html" target="_top" xlink:title=" ">
<polygon fill="white" stroke="#666666" points="1321,-310.5 1205,-310.5 1205,-291.5 1321,-291.5 1321,-310.5"/>
<text text-anchor="middle" x="1263" y="-298.5" font-family="Helvetica,sans-Serif" font-size="10.00">src/node/resharing.h</text>
</a>
</g>
</g>
<!-- Node17&#45;&gt;Node20 -->
<g id="edge28" class="edge">
<title>Node17&#45;&gt;Node20</title>
<path fill="none" stroke="#63b8ff" d="M1445.83,-409.97C1414.92,-401.89 1375.17,-389.16 1343,-371 1313.29,-354.23 1284.52,-325.41 1271.01,-310.89"/>
<polygon fill="#63b8ff" stroke="#63b8ff" points="1444.99,-413.36 1455.54,-412.43 1446.7,-406.58 1444.99,-413.36"/>
</g>
<!-- Node21 -->
<g id="node21" class="node">
<title>Node21</title>
<g id="a_node21"><a xlink:href="serialization_8h.html" target="_top" xlink:title=" ">
<polygon fill="white" stroke="#666666" points="1500,-371 1352,-371 1352,-352 1500,-352 1500,-371"/>
<text text-anchor="middle" x="1426" y="-359" font-family="Helvetica,sans-Serif" font-size="10.00">src/node/rpc/serialization.h</text>
</a>
</g>
</g>
<!-- Node17&#45;&gt;Node21 -->
<g id="edge31" class="edge">
<title>Node17&#45;&gt;Node21</title>
<path fill="none" stroke="#63b8ff" d="M1477.72,-405.72C1464.55,-394.71 1447.24,-380.25 1436.37,-371.17"/>
<polygon fill="#63b8ff" stroke="#63b8ff" points="1475.75,-408.64 1485.67,-412.37 1480.24,-403.27 1475.75,-408.64"/>
</g>
<!-- Node20&#45;&gt;Node5 -->
<g id="edge29" class="edge">
<title>Node20&#45;&gt;Node5</title>
<path fill="none" stroke="#63b8ff" d="M1242.94,-285.67C1217.08,-267.83 1170.18,-237.58 1126,-220 1082.34,-202.63 1030.25,-191.05 991.51,-184.08"/>
<polygon fill="#63b8ff" stroke="#63b8ff" points="1240.96,-288.56 1251.17,-291.42 1244.97,-282.82 1240.96,-288.56"/>
</g>
<!-- Node21&#45;&gt;Node5 -->
<g id="edge33" class="edge">
<title>Node21&#45;&gt;Node5</title>
<path fill="none" stroke="#63b8ff" d="M1406.15,-345.38C1394.92,-336.8 1380.64,-325.84 1368,-316 1351.02,-302.78 1348.58,-296.85 1330,-286 1222.86,-223.42 1078.57,-194.83 997.34,-182.96"/>
<polygon fill="#63b8ff" stroke="#63b8ff" points="1404.34,-348.4 1414.41,-351.68 1408.58,-342.83 1404.34,-348.4"/>
</g>
<!-- Node21&#45;&gt;Node12 -->
<g id="edge35" class="edge">
<title>Node21&#45;&gt;Node12</title>
<path fill="none" stroke="#63b8ff" d="M1429.49,-341.93C1431.06,-333.58 1432.89,-323.87 1434.35,-316.11"/>
<polygon fill="#63b8ff" stroke="#63b8ff" points="1426.03,-341.39 1427.62,-351.87 1432.91,-342.69 1426.03,-341.39"/>
</g>
<!-- Node21&#45;&gt;Node13 -->
<g id="edge36" class="edge">
<title>Node21&#45;&gt;Node13</title>
<path fill="none" stroke="#63b8ff" d="M1364,-350.31C1295.39,-339.04 1186.06,-321.07 1121.83,-310.52"/>
<polygon fill="#63b8ff" stroke="#63b8ff" points="1363.8,-353.83 1374.23,-351.99 1364.93,-346.92 1363.8,-353.83"/>
</g>
<!-- Node21&#45;&gt;Node18 -->
<g id="edge32" class="edge">
<title>Node21&#45;&gt;Node18</title>
<path fill="none" stroke="#63b8ff" d="M1457.82,-348.33C1482.41,-338.93 1516.47,-325.91 1542.22,-316.06"/>
<polygon fill="#63b8ff" stroke="#63b8ff" points="1456.34,-345.15 1448.25,-351.99 1458.84,-351.69 1456.34,-345.15"/>
</g>
<!-- Node21&#45;&gt;Node20 -->
<g id="edge34" class="edge">
<title>Node21&#45;&gt;Node20</title>
<path fill="none" stroke="#63b8ff" d="M1392.63,-348.52C1361.12,-337.21 1314.63,-320.53 1286.73,-310.52"/>
<polygon fill="#63b8ff" stroke="#63b8ff" points="1391.7,-351.91 1402.3,-351.99 1394.07,-345.32 1391.7,-351.91"/>
</g>
<!-- Node22&#45;&gt;Node11 -->
<g id="edge38" class="edge">
<title>Node22&#45;&gt;Node11</title>
<path fill="none" stroke="#63b8ff" d="M650.81,-475.79C568.73,-457.96 432.18,-414.48 371,-316 345.96,-275.69 410.02,-254.7 463.03,-244.51"/>
<polygon fill="#63b8ff" stroke="#63b8ff" points="650.28,-479.26 660.79,-477.89 651.72,-472.41 650.28,-479.26"/>
</g>
<!-- Node23 -->
<g id="node23" class="node">
<title>Node23</title>
<g id="a_node23"><a xlink:href="network__state_8h.html" target="_top" xlink:title=" ">
<polygon fill="white" stroke="#666666" points="920,-431.5 780,-431.5 780,-412.5 920,-412.5 920,-431.5"/>
<text text-anchor="middle" x="850" y="-419.5" font-family="Helvetica,sans-Serif" font-size="10.00">src/node/network_state.h</text>
</a>
</g>
</g>
<!-- Node22&#45;&gt;Node23 -->
<g id="edge39" class="edge">
<title>Node22&#45;&gt;Node23</title>
<path fill="none" stroke="#63b8ff" d="M755.53,-468.46C780.86,-456.27 812.8,-440.9 832.3,-431.52"/>
<polygon fill="#63b8ff" stroke="#63b8ff" points="753.68,-465.46 746.19,-472.95 756.72,-471.77 753.68,-465.46"/>
</g>
<!-- Node34 -->
<g id="node34" class="node">
<title>Node34</title>
<g id="a_node34"><a xlink:href="genesis__gen_8h.html" target="_top" xlink:title=" ">
<polygon fill="white" stroke="#666666" points="1189,-437 1079,-437 1079,-407 1189,-407 1189,-437"/>
<text text-anchor="start" x="1087" y="-425" font-family="Helvetica,sans-Serif" font-size="10.00">src/service/genesis</text>
<text text-anchor="middle" x="1134" y="-414" font-family="Helvetica,sans-Serif" font-size="10.00">_gen.h</text>
</a>
</g>
</g>
<!-- Node22&#45;&gt;Node34 -->
<g id="edge68" class="edge">
<title>Node22&#45;&gt;Node34</title>
<path fill="none" stroke="#63b8ff" d="M783.17,-476.84C864.98,-464.29 1002.7,-443.15 1078.98,-431.44"/>
<polygon fill="#63b8ff" stroke="#63b8ff" points="782.59,-473.39 773.24,-478.37 783.65,-480.31 782.59,-473.39"/>
</g>
<!-- Node23&#45;&gt;Node5 -->
<g id="edge58" class="edge">
<title>Node23&#45;&gt;Node5</title>
<path fill="none" stroke="#63b8ff" d="M834.64,-404.89C823.57,-391.27 811.47,-371 817,-352 838.44,-278.39 902.94,-207.88 926.37,-184.02"/>
<polygon fill="#63b8ff" stroke="#63b8ff" points="832.02,-407.21 841.23,-412.43 837.29,-402.6 832.02,-407.21"/>
</g>
<!-- Node23&#45;&gt;Node6 -->
<g id="edge40" class="edge">
<title>Node23&#45;&gt;Node6</title>
<path fill="none" stroke="#63b8ff" d="M891.58,-409.79C972.01,-387.7 1142.42,-338.69 1158,-316 1209.84,-240.53 1176.83,-199.16 1156,-110 1152.93,-96.86 1145.65,-82.99 1140.53,-74.29"/>
<polygon fill="#63b8ff" stroke="#63b8ff" points="890.49,-406.46 881.77,-412.48 892.34,-413.21 890.49,-406.46"/>
</g>
<!-- Node23&#45;&gt;Node10 -->
<g id="edge57" class="edge">
<title>Node23&#45;&gt;Node10</title>
<path fill="none" stroke="#63b8ff" d="M769.59,-416.28C702.75,-410.47 615.14,-397.86 593,-371 579.39,-354.48 595.68,-331.02 609.31,-316.16"/>
<polygon fill="#63b8ff" stroke="#63b8ff" points="769.45,-419.78 779.71,-417.12 770.03,-412.8 769.45,-419.78"/>
</g>
<!-- Node23&#45;&gt;Node13 -->
<g id="edge59" class="edge">
<title>Node23&#45;&gt;Node13</title>
<path fill="none" stroke="#63b8ff" d="M893.42,-409.56C921.5,-401.15 958.22,-388.19 988,-371 1017.97,-353.7 1047.68,-325.11 1061.68,-310.77"/>
<polygon fill="#63b8ff" stroke="#63b8ff" points="892.12,-406.3 883.5,-412.46 894.08,-413.02 892.12,-406.3"/>
</g>
<!-- Node23&#45;&gt;Node15 -->
<g id="edge60" class="edge">
<title>Node23&#45;&gt;Node15</title>
<path fill="none" stroke="#63b8ff" d="M769.66,-412.6C715.96,-405.37 644.38,-392.59 584,-371 539.85,-355.21 492.59,-325.4 470.6,-310.68"/>
<polygon fill="#63b8ff" stroke="#63b8ff" points="769.44,-416.1 779.81,-413.93 770.35,-409.16 769.44,-416.1"/>
</g>
<!-- Node24 -->
<g id="node24" class="node">
<title>Node24</title>
<g id="a_node24"><a xlink:href="wrap_8h.html" target="_top" xlink:title=" ">
<polygon fill="white" stroke="#666666" points="2008,-371 1930,-371 1930,-352 2008,-352 2008,-371"/>
<text text-anchor="middle" x="1969" y="-359" font-family="Helvetica,sans-Serif" font-size="10.00">src/js/wrap.h</text>
</a>
</g>
</g>
<!-- Node23&#45;&gt;Node24 -->
<g id="edge41" class="edge">
<title>Node23&#45;&gt;Node24</title>
<path fill="none" stroke="#63b8ff" d="M930.42,-415.61C972.07,-412.89 1023.76,-409.62 1070,-407 1402.71,-388.18 1804.94,-369.84 1930,-364.23"/>
<polygon fill="#63b8ff" stroke="#63b8ff" points="930.08,-412.12 920.33,-416.27 930.54,-419.11 930.08,-412.12"/>
</g>
<!-- Node31 -->
<g id="node31" class="node">
<title>Node31</title>
<g id="a_node31"><a xlink:href="secret__broadcast_8h.html" target="_top" xlink:title=" ">
<polygon fill="white" stroke="#666666" points="979.5,-371 826.5,-371 826.5,-352 979.5,-352 979.5,-371"/>
<text text-anchor="middle" x="903" y="-359" font-family="Helvetica,sans-Serif" font-size="10.00">src/node/secret_broadcast.h</text>
</a>
</g>
</g>
<!-- Node23&#45;&gt;Node31 -->
<g id="edge61" class="edge">
<title>Node23&#45;&gt;Node31</title>
<path fill="none" stroke="#63b8ff" d="M864.7,-404.77C874.56,-393.89 887.15,-379.99 895.15,-371.17"/>
<polygon fill="#63b8ff" stroke="#63b8ff" points="861.94,-402.61 857.82,-412.37 867.13,-407.31 861.94,-402.61"/>
</g>
<!-- Node32 -->
<g id="node32" class="node">
<title>Node32</title>
<g id="a_node32"><a xlink:href="share__manager_8h.html" target="_top" xlink:title=" ">
<polygon fill="white" stroke="#666666" points="1257.5,-371 1112.5,-371 1112.5,-352 1257.5,-352 1257.5,-371"/>
<text text-anchor="middle" x="1185" y="-359" font-family="Helvetica,sans-Serif" font-size="10.00">src/node/share_manager.h</text>
</a>
</g>
</g>
<!-- Node23&#45;&gt;Node32 -->
<g id="edge63" class="edge">
<title>Node23&#45;&gt;Node32</title>
<path fill="none" stroke="#63b8ff" d="M908.74,-410.74C973.32,-399.46 1075.91,-381.55 1136.23,-371.02"/>
<polygon fill="#63b8ff" stroke="#63b8ff" points="907.96,-407.33 898.71,-412.49 909.16,-414.22 907.96,-407.33"/>
</g>
<!-- Node33 -->
<g id="node33" class="node">
<title>Node33</title>
<g id="a_node33"><a xlink:href="snapshotter_8h.html" target="_top" xlink:title=" ">
<polygon fill="white" stroke="#666666" points="820.5,-244.5 693.5,-244.5 693.5,-225.5 820.5,-225.5 820.5,-244.5"/>
<text text-anchor="middle" x="757" y="-232.5" font-family="Helvetica,sans-Serif" font-size="10.00">src/node/snapshotter.h</text>
</a>
</g>
</g>
<!-- Node23&#45;&gt;Node33 -->
<g id="edge66" class="edge">
<title>Node23&#45;&gt;Node33</title>
<path fill="none" stroke="#63b8ff" d="M823.78,-407.35C809.84,-398.76 793.65,-386.39 784,-371 757.85,-329.28 756.3,-267.29 756.69,-244.66"/>
<polygon fill="#63b8ff" stroke="#63b8ff" points="822.11,-410.44 832.52,-412.45 825.64,-404.39 822.11,-410.44"/>
</g>
<!-- Node24&#45;&gt;Node5 -->
<g id="edge54" class="edge">
<title>Node24&#45;&gt;Node5</title>
<path fill="none" stroke="#63b8ff" d="M1919.56,-360.07C1862.09,-357.92 1765.49,-349.1 1690,-316 1670.29,-307.36 1671.72,-294.6 1652,-286 1476.78,-209.6 1415.93,-249.07 1227,-220 1145.02,-207.39 1050.06,-192.95 991.26,-184.03"/>
<polygon fill="#63b8ff" stroke="#63b8ff" points="1919.71,-363.58 1929.82,-360.4 1919.94,-356.58 1919.71,-363.58"/>
</g>
<!-- Node24&#45;&gt;Node6 -->
<g id="edge43" class="edge">
<title>Node24&#45;&gt;Node6</title>
<path fill="none" stroke="#63b8ff" d="M2018.56,-358.64C2141.12,-353.72 2451.47,-339.11 2492,-316 2529.92,-294.37 2549,-279.66 2549,-236 2549,-236 2549,-236 2549,-173.5 2549,-104.6 1467.61,-73.61 1196.21,-66.92"/>
<polygon fill="#63b8ff" stroke="#63b8ff" points="2018.19,-355.16 2008.34,-359.05 2018.47,-362.15 2018.19,-355.16"/>
</g>
<!-- Node24&#45;&gt;Node12 -->
<g id="edge55" class="edge">
<title>Node24&#45;&gt;Node12</title>
<path fill="none" stroke="#63b8ff" d="M1919.69,-357.46C1834.84,-351.84 1655.89,-338.35 1506,-316 1503.1,-315.57 1500.13,-315.09 1497.15,-314.59"/>
<polygon fill="#63b8ff" stroke="#63b8ff" points="1919.6,-360.96 1929.81,-358.12 1920.06,-353.97 1919.6,-360.96"/>
</g>
<!-- Node24&#45;&gt;Node13 -->
<g id="edge56" class="edge">
<title>Node24&#45;&gt;Node13</title>
<path fill="none" stroke="#63b8ff" d="M1919.76,-358.57C1797.26,-353.59 1469,-339.01 1196,-316 1178.02,-314.48 1158.63,-312.5 1140.57,-310.51"/>
<polygon fill="#63b8ff" stroke="#63b8ff" points="1919.8,-362.08 1929.94,-358.99 1920.09,-355.08 1919.8,-362.08"/>
</g>
<!-- Node24&#45;&gt;Node19 -->
<g id="edge53" class="edge">
<title>Node24&#45;&gt;Node19</title>
<path fill="none" stroke="#63b8ff" d="M2018.35,-358.3C2116.02,-353.44 2326.44,-340.24 2348,-316 2366.38,-295.33 2344.82,-260.67 2332.88,-244.63"/>
<polygon fill="#63b8ff" stroke="#63b8ff" points="2017.95,-354.81 2008.13,-358.8 2018.29,-361.81 2017.95,-354.81"/>
</g>
<!-- Node25 -->
<g id="node25" class="node">
<title>Node25</title>
<g id="a_node25"><a xlink:href="js__generic__base_8cpp.html" target="_top" xlink:title=" ">
<polygon fill="white" stroke="#666666" points="1817,-316 1699,-316 1699,-286 1817,-286 1817,-316"/>
<text text-anchor="start" x="1707" y="-304" font-family="Helvetica,sans-Serif" font-size="10.00">src/apps/js_generic</text>
<text text-anchor="middle" x="1758" y="-293" font-family="Helvetica,sans-Serif" font-size="10.00">/js_generic_base.cpp</text>
</a>
</g>
</g>
<!-- Node24&#45;&gt;Node25 -->
<g id="edge42" class="edge">
<title>Node24&#45;&gt;Node25</title>
<path fill="none" stroke="#63b8ff" d="M1928.68,-349.32C1894.57,-339.86 1845.5,-326.26 1808.73,-316.06"/>
<polygon fill="#63b8ff" stroke="#63b8ff" points="1927.75,-352.69 1938.32,-351.99 1929.62,-345.95 1927.75,-352.69"/>
</g>
<!-- Node26 -->
<g id="node26" class="node">
<title>Node26</title>
<g id="a_node26"><a xlink:href="consensus_8cpp.html" target="_top" xlink:title=" ">
<polygon fill="white" stroke="#666666" points="2097,-310.5 1981,-310.5 1981,-291.5 2097,-291.5 2097,-310.5"/>
<text text-anchor="middle" x="2039" y="-298.5" font-family="Helvetica,sans-Serif" font-size="10.00">src/js/consensus.cpp</text>
</a>
</g>
</g>
<!-- Node24&#45;&gt;Node26 -->
<g id="edge44" class="edge">
<title>Node24&#45;&gt;Node26</title>
<path fill="none" stroke="#63b8ff" d="M1987.28,-345.22C2000.45,-334.21 2017.76,-319.75 2028.63,-310.67"/>
<polygon fill="#63b8ff" stroke="#63b8ff" points="1984.76,-342.77 1979.33,-351.87 1989.25,-348.14 1984.76,-342.77"/>
</g>
<!-- Node27 -->
<g id="node27" class="node">
<title>Node27</title>
<g id="a_node27"><a xlink:href="conv_8cpp.html" target="_top" xlink:title=" ">
<polygon fill="white" stroke="#666666" points="2483,-310.5 2395,-310.5 2395,-291.5 2483,-291.5 2483,-310.5"/>
<text text-anchor="middle" x="2439" y="-298.5" font-family="Helvetica,sans-Serif" font-size="10.00">src/js/conv.cpp</text>
</a>
</g>
</g>
<!-- Node24&#45;&gt;Node27 -->
<g id="edge46" class="edge">
<title>Node24&#45;&gt;Node27</title>
<path fill="none" stroke="#63b8ff" d="M2018.58,-357.22C2096.26,-351.63 2251.19,-338.58 2381,-316 2389.47,-314.53 2398.55,-312.54 2406.94,-310.52"/>
<polygon fill="#63b8ff" stroke="#63b8ff" points="2017.87,-353.77 2008.15,-357.97 2018.37,-360.75 2017.87,-353.77"/>
</g>
<!-- Node28 -->
<g id="node28" class="node">
<title>Node28</title>
<g id="a_node28"><a xlink:href="crypto_8cpp.html" target="_top" xlink:title=" ">
<polygon fill="white" stroke="#666666" points="2211,-310.5 2115,-310.5 2115,-291.5 2211,-291.5 2211,-310.5"/>
<text text-anchor="middle" x="2163" y="-298.5" font-family="Helvetica,sans-Serif" font-size="10.00">src/js/crypto.cpp</text>
</a>
</g>
</g>
<!-- Node24&#45;&gt;Node28 -->
<g id="edge48" class="edge">
<title>Node24&#45;&gt;Node28</title>
<path fill="none" stroke="#63b8ff" d="M2007.26,-348.96C2044.78,-337.65 2101.12,-320.66 2134.76,-310.52"/>
<polygon fill="#63b8ff" stroke="#63b8ff" points="2005.77,-345.76 1997.21,-351.99 2007.79,-352.46 2005.77,-345.76"/>
</g>
<!-- Node29 -->
<g id="node29" class="node">
<title>Node29</title>
<g id="a_node29"><a xlink:href="historical_8cpp.html" target="_top" xlink:title=" ">
<polygon fill="white" stroke="#666666" points="2339,-310.5 2229,-310.5 2229,-291.5 2339,-291.5 2339,-310.5"/>
<text text-anchor="middle" x="2284" y="-298.5" font-family="Helvetica,sans-Serif" font-size="10.00">src/js/historical.cpp</text>
</a>
</g>
</g>
<!-- Node24&#45;&gt;Node29 -->
<g id="edge50" class="edge">
<title>Node24&#45;&gt;Node29</title>
<path fill="none" stroke="#63b8ff" d="M2018.25,-352.37C2068.93,-343.85 2150.14,-329.83 2220,-316 2228.48,-314.32 2237.57,-312.41 2246.15,-310.54"/>
<polygon fill="#63b8ff" stroke="#63b8ff" points="2017.5,-348.94 2008.22,-354.04 2018.66,-355.85 2017.5,-348.94"/>
</g>
<!-- Node30 -->
<g id="node30" class="node">
<title>Node30</title>
<g id="a_node30"><a xlink:href="openenclave_8cpp.html" target="_top" xlink:title=" ">
<polygon fill="white" stroke="#666666" points="1963,-310.5 1835,-310.5 1835,-291.5 1963,-291.5 1963,-310.5"/>
<text text-anchor="middle" x="1899" y="-298.5" font-family="Helvetica,sans-Serif" font-size="10.00">src/js/openenclave.cpp</text>
</a>
</g>
</g>
<!-- Node24&#45;&gt;Node30 -->
<g id="edge52" class="edge">
<title>Node24&#45;&gt;Node30</title>
<path fill="none" stroke="#63b8ff" d="M1950.72,-345.22C1937.55,-334.21 1920.24,-319.75 1909.37,-310.67"/>
<polygon fill="#63b8ff" stroke="#63b8ff" points="1948.75,-348.14 1958.67,-351.87 1953.24,-342.77 1948.75,-348.14"/>
</g>
<!-- Node26&#45;&gt;Node19 -->
<g id="edge45" class="edge">
<title>Node26&#45;&gt;Node19</title>
<path fill="none" stroke="#63b8ff" d="M2087.17,-289.26C2143.64,-276.67 2236.06,-256.06 2287.82,-244.51"/>
<polygon fill="#63b8ff" stroke="#63b8ff" points="2086.41,-285.84 2077.41,-291.44 2087.93,-292.67 2086.41,-285.84"/>
</g>
<!-- Node27&#45;&gt;Node19 -->
<g id="edge47" class="edge">
<title>Node27&#45;&gt;Node19</title>
<path fill="none" stroke="#63b8ff" d="M2414.91,-286.36C2392.67,-273.76 2360.29,-255.42 2341.36,-244.7"/>
<polygon fill="#63b8ff" stroke="#63b8ff" points="2413.33,-289.49 2423.76,-291.37 2416.78,-283.39 2413.33,-289.49"/>
</g>
<!-- Node28&#45;&gt;Node19 -->
<g id="edge49" class="edge">
<title>Node28&#45;&gt;Node19</title>
<path fill="none" stroke="#63b8ff" d="M2194.39,-287.68C2226.6,-275.03 2275.88,-255.68 2304.11,-244.6"/>
<polygon fill="#63b8ff" stroke="#63b8ff" points="2193.01,-284.46 2184.98,-291.37 2195.57,-290.97 2193.01,-284.46"/>
</g>
<!-- Node29&#45;&gt;Node19 -->
<g id="edge51" class="edge">
<title>Node29&#45;&gt;Node19</title>
<path fill="none" stroke="#63b8ff" d="M2295.22,-282.91C2303.24,-270.68 2313.73,-254.7 2320.16,-244.91"/>
<polygon fill="#63b8ff" stroke="#63b8ff" points="2292.22,-281.09 2289.66,-291.37 2298.08,-284.93 2292.22,-281.09"/>
</g>
<!-- Node31&#45;&gt;Node5 -->
<g id="edge62" class="edge">
<title>Node31&#45;&gt;Node5</title>
<path fill="none" stroke="#63b8ff" d="M901.51,-341.61C899.93,-314.22 899.07,-262.17 911,-220 914.78,-206.66 923.03,-192.83 928.8,-184.2"/>
<polygon fill="#63b8ff" stroke="#63b8ff" points="898.03,-341.99 902.2,-351.73 905.02,-341.52 898.03,-341.99"/>
</g>
<!-- Node32&#45;&gt;Node5 -->
<g id="edge64" class="edge">
<title>Node32&#45;&gt;Node5</title>
<path fill="none" stroke="#63b8ff" d="M1102.35,-350.74C1054.35,-343.51 999.92,-332.09 982,-316 961.53,-297.61 942.44,-211.78 936.73,-184.12"/>
<polygon fill="#63b8ff" stroke="#63b8ff" points="1102.08,-354.24 1112.48,-352.22 1103.09,-347.31 1102.08,-354.24"/>
</g>
<!-- Node32&#45;&gt;Node12 -->
<g id="edge65" class="edge">
<title>Node32&#45;&gt;Node12</title>
<path fill="none" stroke="#63b8ff" d="M1231.63,-349.68C1272.57,-340.17 1332.38,-326.29 1376.9,-315.95"/>
<polygon fill="#63b8ff" stroke="#63b8ff" points="1230.59,-346.32 1221.64,-351.99 1232.18,-353.14 1230.59,-346.32"/>
</g>
<!-- Node33&#45;&gt;Node5 -->
<g id="edge67" class="edge">
<title>Node33&#45;&gt;Node5</title>
<path fill="none" stroke="#63b8ff" d="M792.55,-222.32C826.98,-211 878.36,-194.12 909.09,-184.02"/>
<polygon fill="#63b8ff" stroke="#63b8ff" points="791.29,-219.05 782.88,-225.49 793.48,-225.7 791.29,-219.05"/>
</g>
<!-- Node34&#45;&gt;Node5 -->
<g id="edge69" class="edge">
<title>Node34&#45;&gt;Node5</title>
<path fill="none" stroke="#63b8ff" d="M1085.6,-402.87C1046.85,-385.99 993.87,-357.2 962,-316 930.39,-275.14 932.32,-207.92 934.16,-184.16"/>
<polygon fill="#63b8ff" stroke="#63b8ff" points="1084.55,-406.23 1095.12,-406.91 1087.28,-399.78 1084.55,-406.23"/>
</g>
<!-- Node34&#45;&gt;Node12 -->
<g id="edge70" class="edge">
<title>Node34&#45;&gt;Node12</title>
<path fill="none" stroke="#63b8ff" d="M1199.28,-416.91C1301.29,-409.86 1488.95,-393.9 1509,-371 1526.79,-350.68 1496.16,-329.5 1469.52,-316.06"/>
<polygon fill="#63b8ff" stroke="#63b8ff" points="1198.83,-413.44 1189.09,-417.61 1199.3,-420.42 1198.83,-413.44"/>
</g>
<!-- Node34&#45;&gt;Node13 -->
<g id="edge71" class="edge">
<title>Node34&#45;&gt;Node13</title>
<path fill="none" stroke="#63b8ff" d="M1199.09,-410.42C1243.51,-400.31 1290.39,-382.06 1267,-352 1251.21,-331.7 1189.54,-318.31 1139.36,-310.54"/>
<polygon fill="#63b8ff" stroke="#63b8ff" points="1198.13,-407.05 1189.09,-412.58 1199.6,-413.89 1198.13,-407.05"/>
</g>
<!-- Node34&#45;&gt;Node31 -->
<g id="edge72" class="edge">
<title>Node34&#45;&gt;Node31</title>
<path fill="none" stroke="#63b8ff" d="M1069.14,-404.58C1026.15,-393.69 971.49,-379.85 936.86,-371.08"/>
<polygon fill="#63b8ff" stroke="#63b8ff" points="1068.41,-408 1078.96,-407.06 1070.13,-401.21 1068.41,-408"/>
</g>
<!-- Node34&#45;&gt;Node32 -->
<g id="edge73" class="edge">
<title>Node34&#45;&gt;Node32</title>
<path fill="none" stroke="#63b8ff" d="M1153.1,-399.09C1161.53,-389.42 1170.95,-378.61 1177.36,-371.27"/>
<polygon fill="#63b8ff" stroke="#63b8ff" points="1150.28,-397 1146.35,-406.84 1155.56,-401.6 1150.28,-397"/>
</g>
</g>
</svg>
        <g id="navigator" transform="translate(0 0)" fill="#404254">
                <rect fill="#f2f5e9" fill-opacity="0.5" stroke="#606060" stroke-width=".5" x="0" y="0" width="60" height="60"/>
                <use id="zoomplus" xlink:href="#zoomPlus" x="17" y="9" onmousedown="handleZoom(evt,'in')"/>
                <use id="zoomminus" xlink:href="#zoomMin" x="42" y="9" onmousedown="handleZoom(evt,'out')"/>
                <use id="reset" xlink:href="#resetDef" x="30" y="36" onmousedown="handleReset()"/>
                <g id="arrowUp" xlink:href="#dirArrow" transform="translate(30 24)" onmousedown="handlePan(0,-1)">
                  <use xlink:href="#rim" fill="#404040">
                        <set attributeName="fill" to="#808080" begin="arrowUp.mouseover" end="arrowUp.mouseout"/>
                  </use>
                  <path fill="none" stroke="white" stroke-width="1.5" d="M0,-3.0v7 M-2.5,-0.5L0,-3.0L2.5,-0.5"/>
                </g>
                <g id="arrowRight" xlink:href="#dirArrow" transform="rotate(90) translate(36 -43)" onmousedown="handlePan(1,0)">
                  <use xlink:href="#rim" fill="#404040">
                        <set attributeName="fill" to="#808080" begin="arrowRight.mouseover" end="arrowRight.mouseout"/>
                  </use>
                  <path fill="none" stroke="white" stroke-width="1.5" d="M0,-3.0v7 M-2.5,-0.5L0,-3.0L2.5,-0.5"/>
                </g>
                <g id="arrowDown" xlink:href="#dirArrow" transform="rotate(180) translate(-30 -48)" onmousedown="handlePan(0,1)">
                  <use xlink:href="#rim" fill="#404040">
                        <set attributeName="fill" to="#808080" begin="arrowDown.mouseover" end="arrowDown.mouseout"/>
                  </use>
                  <path fill="none" stroke="white" stroke-width="1.5" d="M0,-3.0v7 M-2.5,-0.5L0,-3.0L2.5,-0.5"/>
                </g>
                <g id="arrowLeft" xlink:href="#dirArrow" transform="rotate(270) translate(-36 17)" onmousedown="handlePan(-1,0)">
                  <use xlink:href="#rim" fill="#404040">
                        <set attributeName="fill" to="#808080" begin="arrowLeft.mouseover" end="arrowLeft.mouseout"/>
                  </use>
                  <path fill="none" stroke="white" stroke-width="1.5" d="M0,-3.0v7 M-2.5,-0.5L0,-3.0L2.5,-0.5"/>
                </g>
        </g>
        <svg viewBox="0 0 15 15" width="100%" height="30px" preserveAspectRatio="xMaxYMin meet">
         <g id="arrow_out" transform="scale(0.3 0.3)">
          <a xlink:href="service_8h__dep__incl_org.svg" target="_base">
           <rect id="button" ry="5" rx="5" y="6" x="6" height="38" width="38"
                fill="#f2f5e9" fill-opacity="0.5" stroke="#606060" stroke-width="1.0"/>
           <path id="arrow"
             d="M 11.500037,31.436501 C 11.940474,20.09759 22.043105,11.32322 32.158766,21.979434 L 37.068811,17.246167 C 37.068811,17.246167 37.088388,32 37.088388,32 L 22.160133,31.978069 C 22.160133,31.978069 26.997745,27.140456 26.997745,27.140456 C 18.528582,18.264221 13.291696,25.230495 11.500037,31.436501 z"
             style="fill:#404040;"/>
          </a>
         </g>
        </svg>
</svg>
