<?xml version="1.0" encoding="UTF-8" standalone="no"?>
<!DOCTYPE svg PUBLIC "-//W3C//DTD SVG 1.1//EN"
 "http://www.w3.org/Graphics/SVG/1.1/DTD/svg11.dtd">
<!-- Generated by graphviz version 2.43.0 (0)
 -->
<!-- Title: src/endpoints/grpc/stream.h Pages: 1 -->
<svg width="1394pt" height="368pt"
 viewBox="0.00 0.00 1394.00 368.00" xmlns="http://www.w3.org/2000/svg" xmlns:xlink="http://www.w3.org/1999/xlink">
<g id="graph0" class="graph" transform="scale(1 1) rotate(0) translate(4 364)">
<title>src/endpoints/grpc/stream.h</title>
<!-- Node1 -->
<g id="node1" class="node">
<title>Node1</title>
<g id="a_node1"><a xlink:title=" ">
<polygon fill="#999999" stroke="#666666" points="608,-360 502,-360 502,-330 608,-330 608,-360"/>
<text text-anchor="start" x="510" y="-348" font-family="Helvetica,sans-Serif" font-size="10.00">src/endpoints/grpc</text>
<text text-anchor="middle" x="555" y="-337" font-family="Helvetica,sans-Serif" font-size="10.00">/stream.h</text>
</a>
</g>
</g>
<!-- Node2 -->
<g id="node2" class="node">
<title>Node2</title>
<g id="a_node2"><a xlink:href="http__header__map_8h.html" target="_top" xlink:title=" ">
<polygon fill="white" stroke="#666666" points="249,-74 121,-74 121,-55 249,-55 249,-74"/>
<text text-anchor="middle" x="185" y="-62" font-family="Helvetica,sans-Serif" font-size="10.00">ccf/http_header_map.h</text>
</a>
</g>
</g>
<!-- Node1&#45;&gt;Node2 -->
<g id="edge1" class="edge">
<title>Node1&#45;&gt;Node2</title>
<path fill="none" stroke="#63b8ff" d="M501.78,-344.3C362.87,-343.68 0,-332.29 0,-230.5 0,-230.5 0,-230.5 0,-173.5 0,-116.61 66.06,-89.14 119.23,-76.25"/>
<polygon fill="#63b8ff" stroke="#63b8ff" points="120.03,-79.66 128.99,-74.01 118.46,-72.84 120.03,-79.66"/>
</g>
<!-- Node5 -->
<g id="node5" class="node">
<title>Node5</title>
<g id="a_node5"><a xlink:href="http__responder_8h.html" target="_top" xlink:title=" ">
<polygon fill="white" stroke="#666666" points="656,-294 540,-294 540,-275 656,-275 656,-294"/>
<text text-anchor="middle" x="598" y="-282" font-family="Helvetica,sans-Serif" font-size="10.00">ccf/http_responder.h</text>
</a>
</g>
</g>
<!-- Node1&#45;&gt;Node5 -->
<g id="edge4" class="edge">
<title>Node1&#45;&gt;Node5</title>
<path fill="none" stroke="#63b8ff" d="M565.41,-329.84C571.46,-321.61 579.12,-311.18 585.5,-302.51"/>
<polygon fill="#63b8ff" stroke="#63b8ff" points="588.45,-304.4 591.56,-294.27 582.81,-300.25 588.45,-304.4"/>
</g>
<!-- Node23 -->
<g id="node23" class="node">
<title>Node23</title>
<g id="a_node23"><a xlink:href="endpoints_2grpc_2message_8h.html" target="_top" xlink:title=" ">
<polygon fill="white" stroke="#666666" points="1200,-129 1130,-129 1130,-110 1200,-110 1200,-129"/>
<text text-anchor="middle" x="1165" y="-117" font-family="Helvetica,sans-Serif" font-size="10.00">message.h</text>
</a>
</g>
</g>
<!-- Node1&#45;&gt;Node23 -->
<g id="edge27" class="edge">
<title>Node1&#45;&gt;Node23</title>
<path fill="none" stroke="#63b8ff" d="M593.62,-329.85C705.39,-288.9 1027.84,-170.75 1132.08,-132.56"/>
<polygon fill="#63b8ff" stroke="#63b8ff" points="1133.56,-135.75 1141.75,-129.02 1131.15,-129.17 1133.56,-135.75"/>
</g>
<!-- Node29 -->
<g id="node29" class="node">
<title>Node29</title>
<g id="a_node29"><a xlink:href="status_8h.html" target="_top" xlink:title=" ">
<polygon fill="white" stroke="#666666" points="540,-184 484,-184 484,-165 540,-165 540,-184"/>
<text text-anchor="middle" x="512" y="-172" font-family="Helvetica,sans-Serif" font-size="10.00">status.h</text>
</a>
</g>
</g>
<!-- Node1&#45;&gt;Node29 -->
<g id="edge36" class="edge">
<title>Node1&#45;&gt;Node29</title>
<path fill="none" stroke="#63b8ff" d="M546.7,-329.58C541.44,-319.83 534.91,-306.5 531,-294 520.25,-259.65 515.36,-217.71 513.31,-194.05"/>
<polygon fill="#63b8ff" stroke="#63b8ff" points="516.8,-193.72 512.52,-184.02 509.82,-194.27 516.8,-193.72"/>
</g>
<!-- Node33 -->
<g id="node33" class="node">
<title>Node33</title>
<g id="a_node33"><a xlink:href="types_8h.html" target="_top" xlink:title=" ">
<polygon fill="white" stroke="#666666" points="352.5,-239 299.5,-239 299.5,-220 352.5,-220 352.5,-239"/>
<text text-anchor="middle" x="326" y="-227" font-family="Helvetica,sans-Serif" font-size="10.00">types.h</text>
</a>
</g>
</g>
<!-- Node1&#45;&gt;Node33 -->
<g id="edge44" class="edge">
<title>Node1&#45;&gt;Node33</title>
<path fill="none" stroke="#63b8ff" d="M526.46,-329.85C481.76,-307.7 395.88,-265.13 352.48,-243.63"/>
<polygon fill="#63b8ff" stroke="#63b8ff" points="353.92,-240.43 343.4,-239.12 350.81,-246.7 353.92,-240.43"/>
</g>
<!-- Node36 -->
<g id="node36" class="node">
<title>Node36</title>
<g id="a_node36"><a xlink:title=" ">
<polygon fill="#e0e0e0" stroke="#999999" points="1017,-294 959,-294 959,-275 1017,-275 1017,-294"/>
<text text-anchor="middle" x="988" y="-282" font-family="Helvetica,sans-Serif" font-size="10.00">memory</text>
</a>
</g>
</g>
<!-- Node1&#45;&gt;Node36 -->
<g id="edge52" class="edge">
<title>Node1&#45;&gt;Node36</title>
<path fill="none" stroke="#63b8ff" d="M608.15,-338.34C683.37,-330.07 825.07,-313.52 945,-294 946.27,-293.79 947.55,-293.58 948.85,-293.35"/>
<polygon fill="#63b8ff" stroke="#63b8ff" points="949.69,-296.76 958.9,-291.53 948.44,-289.87 949.69,-296.76"/>
</g>
<!-- Node3 -->
<g id="node3" class="node">
<title>Node3</title>
<g id="a_node3"><a xlink:title=" ">
<polygon fill="#e0e0e0" stroke="#999999" points="204,-19 166,-19 166,0 204,0 204,-19"/>
<text text-anchor="middle" x="185" y="-7" font-family="Helvetica,sans-Serif" font-size="10.00">map</text>
</a>
</g>
</g>
<!-- Node2&#45;&gt;Node3 -->
<g id="edge2" class="edge">
<title>Node2&#45;&gt;Node3</title>
<path fill="none" stroke="#63b8ff" d="M185,-54.75C185,-47.8 185,-37.85 185,-29.13"/>
<polygon fill="#63b8ff" stroke="#63b8ff" points="188.5,-29.09 185,-19.09 181.5,-29.09 188.5,-29.09"/>
</g>
<!-- Node4 -->
<g id="node4" class="node">
<title>Node4</title>
<g id="a_node4"><a xlink:title=" ">
<polygon fill="#e0e0e0" stroke="#999999" points="559,-19 515,-19 515,0 559,0 559,-19"/>
<text text-anchor="middle" x="537" y="-7" font-family="Helvetica,sans-Serif" font-size="10.00">string</text>
</a>
</g>
</g>
<!-- Node2&#45;&gt;Node4 -->
<g id="edge3" class="edge">
<title>Node2&#45;&gt;Node4</title>
<path fill="none" stroke="#63b8ff" d="M241.55,-54.98C316.17,-43.75 445.02,-24.35 504.8,-15.35"/>
<polygon fill="#63b8ff" stroke="#63b8ff" points="505.43,-18.79 514.8,-13.84 504.39,-11.87 505.43,-18.79"/>
</g>
<!-- Node5&#45;&gt;Node2 -->
<g id="edge5" class="edge">
<title>Node5&#45;&gt;Node2</title>
<path fill="none" stroke="#63b8ff" d="M581.81,-274.95C518.6,-241.59 288.08,-119.91 210.6,-79.01"/>
<polygon fill="#63b8ff" stroke="#63b8ff" points="212,-75.8 201.53,-74.22 208.74,-81.99 212,-75.8"/>
</g>
<!-- Node6 -->
<g id="node6" class="node">
<title>Node6</title>
<g id="a_node6"><a xlink:href="odata__error_8h.html" target="_top" xlink:title=" ">
<polygon fill="white" stroke="#666666" points="799,-239 701,-239 701,-220 799,-220 799,-239"/>
<text text-anchor="middle" x="750" y="-227" font-family="Helvetica,sans-Serif" font-size="10.00">ccf/odata_error.h</text>
</a>
</g>
</g>
<!-- Node5&#45;&gt;Node6 -->
<g id="edge6" class="edge">
<title>Node5&#45;&gt;Node6</title>
<path fill="none" stroke="#63b8ff" d="M622.42,-274.98C647.72,-266.16 687.45,-252.31 715.86,-242.41"/>
<polygon fill="#63b8ff" stroke="#63b8ff" points="717.1,-245.68 725.39,-239.08 714.79,-239.07 717.1,-245.68"/>
</g>
<!-- Node22 -->
<g id="node22" class="node">
<title>Node22</title>
<g id="a_node22"><a xlink:title=" ">
<polygon fill="#e0e0e0" stroke="#999999" points="630.5,-239 565.5,-239 565.5,-220 630.5,-220 630.5,-239"/>
<text text-anchor="middle" x="598" y="-227" font-family="Helvetica,sans-Serif" font-size="10.00">functional</text>
</a>
</g>
</g>
<!-- Node5&#45;&gt;Node22 -->
<g id="edge26" class="edge">
<title>Node5&#45;&gt;Node22</title>
<path fill="none" stroke="#63b8ff" d="M598,-274.75C598,-267.8 598,-257.85 598,-249.13"/>
<polygon fill="#63b8ff" stroke="#63b8ff" points="601.5,-249.09 598,-239.09 594.5,-249.09 601.5,-249.09"/>
</g>
<!-- Node7 -->
<g id="node7" class="node">
<title>Node7</title>
<g id="a_node7"><a xlink:href="json_8h.html" target="_top" xlink:title=" ">
<polygon fill="white" stroke="#666666" points="902.5,-184 825.5,-184 825.5,-165 902.5,-165 902.5,-184"/>
<text text-anchor="middle" x="864" y="-172" font-family="Helvetica,sans-Serif" font-size="10.00">ccf/ds/json.h</text>
</a>
</g>
</g>
<!-- Node6&#45;&gt;Node7 -->
<g id="edge7" class="edge">
<title>Node6&#45;&gt;Node7</title>
<path fill="none" stroke="#63b8ff" d="M768.32,-219.98C786.66,-211.46 815.11,-198.23 836.23,-188.41"/>
<polygon fill="#63b8ff" stroke="#63b8ff" points="837.76,-191.56 845.35,-184.17 834.81,-185.21 837.76,-191.56"/>
</g>
<!-- Node21 -->
<g id="node21" class="node">
<title>Node21</title>
<g id="a_node21"><a xlink:href="http__status_8h.html" target="_top" xlink:title=" ">
<polygon fill="white" stroke="#666666" points="799,-184 701,-184 701,-165 799,-165 799,-184"/>
<text text-anchor="middle" x="750" y="-172" font-family="Helvetica,sans-Serif" font-size="10.00">ccf/http_status.h</text>
</a>
</g>
</g>
<!-- Node6&#45;&gt;Node21 -->
<g id="edge25" class="edge">
<title>Node6&#45;&gt;Node21</title>
<path fill="none" stroke="#63b8ff" d="M750,-219.75C750,-212.8 750,-202.85 750,-194.13"/>
<polygon fill="#63b8ff" stroke="#63b8ff" points="753.5,-194.09 750,-184.09 746.5,-194.09 753.5,-194.09"/>
</g>
<!-- Node8 -->
<g id="node8" class="node">
<title>Node8</title>
<g id="a_node8"><a xlink:href="include_2ccf_2crypto_2base64_8h.html" target="_top" xlink:title=" ">
<polygon fill="white" stroke="#666666" points="1106,-74 994,-74 994,-55 1106,-55 1106,-74"/>
<text text-anchor="middle" x="1050" y="-62" font-family="Helvetica,sans-Serif" font-size="10.00">ccf/crypto/base64.h</text>
</a>
</g>
</g>
<!-- Node7&#45;&gt;Node8 -->
<g id="edge8" class="edge">
<title>Node7&#45;&gt;Node8</title>
<path fill="none" stroke="#63b8ff" d="M878.91,-164.84C911.09,-146.16 987.32,-101.9 1026.24,-79.3"/>
<polygon fill="#63b8ff" stroke="#63b8ff" points="1028.39,-82.1 1035.28,-74.05 1024.88,-76.04 1028.39,-82.1"/>
</g>
<!-- Node10 -->
<g id="node10" class="node">
<title>Node10</title>
<g id="a_node10"><a xlink:href="include_2ccf_2ds_2json__schema_8h.html" target="_top" xlink:title=" ">
<polygon fill="white" stroke="#666666" points="824.5,-129 703.5,-129 703.5,-110 824.5,-110 824.5,-129"/>
<text text-anchor="middle" x="764" y="-117" font-family="Helvetica,sans-Serif" font-size="10.00">ccf/ds/json_schema.h</text>
</a>
</g>
</g>
<!-- Node7&#45;&gt;Node10 -->
<g id="edge11" class="edge">
<title>Node7&#45;&gt;Node10</title>
<path fill="none" stroke="#63b8ff" d="M847.93,-164.98C832.14,-156.61 807.78,-143.7 789.37,-133.95"/>
<polygon fill="#63b8ff" stroke="#63b8ff" points="790.83,-130.76 780.36,-129.17 787.56,-136.95 790.83,-130.76"/>
</g>
<!-- Node18 -->
<g id="node18" class="node">
<title>Node18</title>
<g id="a_node18"><a xlink:title=" ">
<polygon fill="#e0e0e0" stroke="#999999" points="976.5,-74 897.5,-74 897.5,-55 976.5,-55 976.5,-74"/>
<text text-anchor="middle" x="937" y="-62" font-family="Helvetica,sans-Serif" font-size="10.00">fmt/format.h</text>
</a>
</g>
</g>
<!-- Node7&#45;&gt;Node18 -->
<g id="edge23" class="edge">
<title>Node7&#45;&gt;Node18</title>
<path fill="none" stroke="#63b8ff" d="M874.49,-164.82C884.14,-156.42 898.37,-142.95 908,-129 917.78,-114.83 925.63,-96.84 930.69,-83.63"/>
<polygon fill="#63b8ff" stroke="#63b8ff" points="933.98,-84.81 934.13,-74.22 927.41,-82.41 933.98,-84.81"/>
</g>
<!-- Node20 -->
<g id="node20" class="node">
<title>Node20</title>
<g id="a_node20"><a xlink:title=" ">
<polygon fill="#e0e0e0" stroke="#999999" points="899,-129 843,-129 843,-110 899,-110 899,-129"/>
<text text-anchor="middle" x="871" y="-117" font-family="Helvetica,sans-Serif" font-size="10.00">sstream</text>
</a>
</g>
</g>
<!-- Node7&#45;&gt;Node20 -->
<g id="edge24" class="edge">
<title>Node7&#45;&gt;Node20</title>
<path fill="none" stroke="#63b8ff" d="M865.16,-164.75C866.07,-157.8 867.39,-147.85 868.54,-139.13"/>
<polygon fill="#63b8ff" stroke="#63b8ff" points="872.03,-139.46 869.87,-129.09 865.09,-138.54 872.03,-139.46"/>
</g>
<!-- Node8&#45;&gt;Node4 -->
<g id="edge9" class="edge">
<title>Node8&#45;&gt;Node4</title>
<path fill="none" stroke="#63b8ff" d="M994,-56.02C990.96,-55.66 987.94,-55.32 985,-55 803.31,-35.29 752.88,-51.15 569.23,-18.9"/>
<polygon fill="#63b8ff" stroke="#63b8ff" points="569.7,-15.42 559.24,-17.12 568.47,-22.32 569.7,-15.42"/>
</g>
<!-- Node9 -->
<g id="node9" class="node">
<title>Node9</title>
<g id="a_node9"><a xlink:title=" ">
<polygon fill="#e0e0e0" stroke="#999999" points="1115.5,-19 1068.5,-19 1068.5,0 1115.5,0 1115.5,-19"/>
<text text-anchor="middle" x="1092" y="-7" font-family="Helvetica,sans-Serif" font-size="10.00">vector</text>
</a>
</g>
</g>
<!-- Node8&#45;&gt;Node9 -->
<g id="edge10" class="edge">
<title>Node8&#45;&gt;Node9</title>
<path fill="none" stroke="#63b8ff" d="M1056.94,-54.75C1062.87,-47.26 1071.57,-36.28 1078.82,-27.13"/>
<polygon fill="#63b8ff" stroke="#63b8ff" points="1081.73,-29.1 1085.19,-19.09 1076.24,-24.75 1081.73,-29.1"/>
</g>
<!-- Node11 -->
<g id="node11" class="node">
<title>Node11</title>
<g id="a_node11"><a xlink:href="nonstd_8h.html" target="_top" xlink:title=" ">
<polygon fill="white" stroke="#666666" points="751,-74 661,-74 661,-55 751,-55 751,-74"/>
<text text-anchor="middle" x="706" y="-62" font-family="Helvetica,sans-Serif" font-size="10.00">ccf/ds/nonstd.h</text>
</a>
</g>
</g>
<!-- Node10&#45;&gt;Node11 -->
<g id="edge12" class="edge">
<title>Node10&#45;&gt;Node11</title>
<path fill="none" stroke="#63b8ff" d="M754.68,-109.98C746.19,-102.23 733.44,-90.58 723.12,-81.14"/>
<polygon fill="#63b8ff" stroke="#63b8ff" points="725.23,-78.33 715.49,-74.17 720.51,-83.5 725.23,-78.33"/>
</g>
<!-- Node17 -->
<g id="node17" class="node">
<title>Node17</title>
<g id="a_node17"><a xlink:title=" ">
<polygon fill="#e0e0e0" stroke="#999999" points="643,-74 587,-74 587,-55 643,-55 643,-74"/>
<text text-anchor="middle" x="615" y="-62" font-family="Helvetica,sans-Serif" font-size="10.00">optional</text>
</a>
</g>
</g>
<!-- Node10&#45;&gt;Node17 -->
<g id="edge20" class="edge">
<title>Node10&#45;&gt;Node17</title>
<path fill="none" stroke="#63b8ff" d="M740.06,-109.98C715.44,-101.23 676.88,-87.51 649.08,-77.62"/>
<polygon fill="#63b8ff" stroke="#63b8ff" points="649.97,-74.22 639.38,-74.17 647.62,-80.82 649.97,-74.22"/>
</g>
<!-- Node10&#45;&gt;Node18 -->
<g id="edge21" class="edge">
<title>Node10&#45;&gt;Node18</title>
<path fill="none" stroke="#63b8ff" d="M791.8,-109.98C820.97,-101.05 867,-86.94 899.4,-77.02"/>
<polygon fill="#63b8ff" stroke="#63b8ff" points="900.45,-80.36 908.99,-74.08 898.4,-73.66 900.45,-80.36"/>
</g>
<!-- Node19 -->
<g id="node19" class="node">
<title>Node19</title>
<g id="a_node19"><a xlink:title=" ">
<polygon fill="#e0e0e0" stroke="#999999" points="879,-74 769,-74 769,-55 879,-55 879,-74"/>
<text text-anchor="middle" x="824" y="-62" font-family="Helvetica,sans-Serif" font-size="10.00">nlohmann/json.hpp</text>
</a>
</g>
</g>
<!-- Node10&#45;&gt;Node19 -->
<g id="edge22" class="edge">
<title>Node10&#45;&gt;Node19</title>
<path fill="none" stroke="#63b8ff" d="M773.64,-109.98C782.51,-102.15 795.87,-90.34 806.61,-80.86"/>
<polygon fill="#63b8ff" stroke="#63b8ff" points="809.01,-83.41 814.18,-74.17 804.37,-78.17 809.01,-83.41"/>
</g>
<!-- Node11&#45;&gt;Node4 -->
<g id="edge16" class="edge">
<title>Node11&#45;&gt;Node4</title>
<path fill="none" stroke="#63b8ff" d="M678.85,-54.98C648.87,-45.58 600.67,-30.47 568.92,-20.51"/>
<polygon fill="#63b8ff" stroke="#63b8ff" points="569.82,-17.12 559.23,-17.47 567.72,-23.8 569.82,-17.12"/>
</g>
<!-- Node11&#45;&gt;Node9 -->
<g id="edge19" class="edge">
<title>Node11&#45;&gt;Node9</title>
<path fill="none" stroke="#63b8ff" d="M751.07,-56.33C754.09,-55.87 757.09,-55.42 760,-55 868.85,-39.14 998.09,-22.42 1058.17,-14.77"/>
<polygon fill="#63b8ff" stroke="#63b8ff" points="1058.74,-18.23 1068.22,-13.5 1057.86,-11.29 1058.74,-18.23"/>
</g>
<!-- Node12 -->
<g id="node12" class="node">
<title>Node12</title>
<g id="a_node12"><a xlink:title=" ">
<polygon fill="#e0e0e0" stroke="#999999" points="947,-19 883,-19 883,0 947,0 947,-19"/>
<text text-anchor="middle" x="915" y="-7" font-family="Helvetica,sans-Serif" font-size="10.00">algorithm</text>
</a>
</g>
</g>
<!-- Node11&#45;&gt;Node12 -->
<g id="edge13" class="edge">
<title>Node11&#45;&gt;Node12</title>
<path fill="none" stroke="#63b8ff" d="M739.58,-54.98C775.88,-45.78 833.81,-31.09 873.07,-21.13"/>
<polygon fill="#63b8ff" stroke="#63b8ff" points="874.04,-24.5 882.88,-18.65 872.32,-17.71 874.04,-24.5"/>
</g>
<!-- Node13 -->
<g id="node13" class="node">
<title>Node13</title>
<g id="a_node13"><a xlink:title=" ">
<polygon fill="#e0e0e0" stroke="#999999" points="619,-19 577,-19 577,0 619,0 619,-19"/>
<text text-anchor="middle" x="598" y="-7" font-family="Helvetica,sans-Serif" font-size="10.00">array</text>
</a>
</g>
</g>
<!-- Node11&#45;&gt;Node13 -->
<g id="edge14" class="edge">
<title>Node11&#45;&gt;Node13</title>
<path fill="none" stroke="#63b8ff" d="M688.65,-54.98C671.43,-46.54 644.8,-33.47 624.85,-23.68"/>
<polygon fill="#63b8ff" stroke="#63b8ff" points="626.19,-20.43 615.67,-19.17 623.1,-26.72 626.19,-20.43"/>
</g>
<!-- Node14 -->
<g id="node14" class="node">
<title>Node14</title>
<g id="a_node14"><a xlink:title=" ">
<polygon fill="#e0e0e0" stroke="#999999" points="686.5,-19 637.5,-19 637.5,0 686.5,0 686.5,-19"/>
<text text-anchor="middle" x="662" y="-7" font-family="Helvetica,sans-Serif" font-size="10.00">cctype</text>
</a>
</g>
</g>
<!-- Node11&#45;&gt;Node14 -->
<g id="edge15" class="edge">
<title>Node11&#45;&gt;Node14</title>
<path fill="none" stroke="#63b8ff" d="M698.73,-54.75C692.46,-47.18 683.21,-36.05 675.57,-26.84"/>
<polygon fill="#63b8ff" stroke="#63b8ff" points="678.21,-24.55 669.13,-19.09 672.83,-29.02 678.21,-24.55"/>
</g>
<!-- Node15 -->
<g id="node15" class="node">
<title>Node15</title>
<g id="a_node15"><a xlink:title=" ">
<polygon fill="#e0e0e0" stroke="#999999" points="777.5,-19 704.5,-19 704.5,0 777.5,0 777.5,-19"/>
<text text-anchor="middle" x="741" y="-7" font-family="Helvetica,sans-Serif" font-size="10.00">string_view</text>
</a>
</g>
</g>
<!-- Node11&#45;&gt;Node15 -->
<g id="edge17" class="edge">
<title>Node11&#45;&gt;Node15</title>
<path fill="none" stroke="#63b8ff" d="M711.78,-54.75C716.62,-47.42 723.68,-36.73 729.64,-27.7"/>
<polygon fill="#63b8ff" stroke="#63b8ff" points="732.74,-29.36 735.33,-19.09 726.9,-25.5 732.74,-29.36"/>
</g>
<!-- Node16 -->
<g id="node16" class="node">
<title>Node16</title>
<g id="a_node16"><a xlink:title=" ">
<polygon fill="#e0e0e0" stroke="#999999" points="864.5,-19 795.5,-19 795.5,0 864.5,0 864.5,-19"/>
<text text-anchor="middle" x="830" y="-7" font-family="Helvetica,sans-Serif" font-size="10.00">type_traits</text>
</a>
</g>
</g>
<!-- Node11&#45;&gt;Node16 -->
<g id="edge18" class="edge">
<title>Node11&#45;&gt;Node16</title>
<path fill="none" stroke="#63b8ff" d="M725.92,-54.98C746.05,-46.38 777.38,-32.99 800.41,-23.15"/>
<polygon fill="#63b8ff" stroke="#63b8ff" points="801.9,-26.32 809.71,-19.17 799.14,-19.88 801.9,-26.32"/>
</g>
<!-- Node23&#45;&gt;Node9 -->
<g id="edge35" class="edge">
<title>Node23&#45;&gt;Node9</title>
<path fill="none" stroke="#63b8ff" d="M1159.03,-109.66C1146.94,-91.77 1119.38,-51 1103.62,-27.69"/>
<polygon fill="#63b8ff" stroke="#63b8ff" points="1106.35,-25.48 1097.85,-19.16 1100.55,-29.4 1106.35,-25.48"/>
</g>
<!-- Node24 -->
<g id="node24" class="node">
<title>Node24</title>
<g id="a_node24"><a xlink:href="serialized_8h.html" target="_top" xlink:title=" ">
<polygon fill="white" stroke="#666666" points="1336.5,-74 1249.5,-74 1249.5,-55 1336.5,-55 1336.5,-74"/>
<text text-anchor="middle" x="1293" y="-62" font-family="Helvetica,sans-Serif" font-size="10.00">ds/serialized.h</text>
</a>
</g>
</g>
<!-- Node23&#45;&gt;Node24 -->
<g id="edge28" class="edge">
<title>Node23&#45;&gt;Node24</title>
<path fill="none" stroke="#63b8ff" d="M1185.57,-109.98C1206.43,-101.34 1238.97,-87.87 1262.77,-78.02"/>
<polygon fill="#63b8ff" stroke="#63b8ff" points="1264.16,-81.23 1272.06,-74.17 1261.48,-74.76 1264.16,-81.23"/>
</g>
<!-- Node28 -->
<g id="node28" class="node">
<title>Node28</title>
<g id="a_node28"><a xlink:title=" ">
<polygon fill="#e0e0e0" stroke="#999999" points="1231.5,-74 1162.5,-74 1162.5,-55 1231.5,-55 1231.5,-74"/>
<text text-anchor="middle" x="1197" y="-62" font-family="Helvetica,sans-Serif" font-size="10.00">arpa/inet.h</text>
</a>
</g>
</g>
<!-- Node23&#45;&gt;Node28 -->
<g id="edge34" class="edge">
<title>Node23&#45;&gt;Node28</title>
<path fill="none" stroke="#63b8ff" d="M1170.28,-109.75C1174.71,-102.42 1181.16,-91.73 1186.62,-82.7"/>
<polygon fill="#63b8ff" stroke="#63b8ff" points="1189.64,-84.46 1191.81,-74.09 1183.65,-80.84 1189.64,-84.46"/>
</g>
<!-- Node24&#45;&gt;Node4 -->
<g id="edge32" class="edge">
<title>Node24&#45;&gt;Node4</title>
<path fill="none" stroke="#63b8ff" d="M1249.35,-56.01C1246.53,-55.64 1243.73,-55.3 1241,-55 946.54,-23.15 865.5,-65.9 569.4,-18.84"/>
<polygon fill="#63b8ff" stroke="#63b8ff" points="569.65,-15.34 559.23,-17.21 568.54,-22.25 569.65,-15.34"/>
</g>
<!-- Node24&#45;&gt;Node9 -->
<g id="edge33" class="edge">
<title>Node24&#45;&gt;Node9</title>
<path fill="none" stroke="#63b8ff" d="M1260.71,-54.98C1223.68,-45.22 1163.27,-29.29 1125.68,-19.38"/>
<polygon fill="#63b8ff" stroke="#63b8ff" points="1126.28,-15.92 1115.72,-16.75 1124.5,-22.69 1126.28,-15.92"/>
</g>
<!-- Node25 -->
<g id="node25" class="node">
<title>Node25</title>
<g id="a_node25"><a xlink:title=" ">
<polygon fill="#e0e0e0" stroke="#999999" points="1318,-19 1268,-19 1268,0 1318,0 1318,-19"/>
<text text-anchor="middle" x="1293" y="-7" font-family="Helvetica,sans-Serif" font-size="10.00">cstdint</text>
</a>
</g>
</g>
<!-- Node24&#45;&gt;Node25 -->
<g id="edge29" class="edge">
<title>Node24&#45;&gt;Node25</title>
<path fill="none" stroke="#63b8ff" d="M1293,-54.75C1293,-47.8 1293,-37.85 1293,-29.13"/>
<polygon fill="#63b8ff" stroke="#63b8ff" points="1296.5,-29.09 1293,-19.09 1289.5,-29.09 1296.5,-29.09"/>
</g>
<!-- Node26 -->
<g id="node26" class="node">
<title>Node26</title>
<g id="a_node26"><a xlink:title=" ">
<polygon fill="#e0e0e0" stroke="#999999" points="1386,-19 1336,-19 1336,0 1386,0 1386,-19"/>
<text text-anchor="middle" x="1361" y="-7" font-family="Helvetica,sans-Serif" font-size="10.00">cstring</text>
</a>
</g>
</g>
<!-- Node24&#45;&gt;Node26 -->
<g id="edge30" class="edge">
<title>Node24&#45;&gt;Node26</title>
<path fill="none" stroke="#63b8ff" d="M1303.93,-54.98C1314.08,-47.07 1329.42,-35.11 1341.65,-25.58"/>
<polygon fill="#63b8ff" stroke="#63b8ff" points="1344.14,-28.08 1349.88,-19.17 1339.84,-22.56 1344.14,-28.08"/>
</g>
<!-- Node27 -->
<g id="node27" class="node">
<title>Node27</title>
<g id="a_node27"><a xlink:title=" ">
<polygon fill="#e0e0e0" stroke="#999999" points="1249.5,-19 1184.5,-19 1184.5,0 1249.5,0 1249.5,-19"/>
<text text-anchor="middle" x="1217" y="-7" font-family="Helvetica,sans-Serif" font-size="10.00">stdexcept</text>
</a>
</g>
</g>
<!-- Node24&#45;&gt;Node27 -->
<g id="edge31" class="edge">
<title>Node24&#45;&gt;Node27</title>
<path fill="none" stroke="#63b8ff" d="M1280.79,-54.98C1269.22,-46.92 1251.62,-34.65 1237.84,-25.03"/>
<polygon fill="#63b8ff" stroke="#63b8ff" points="1239.64,-22.02 1229.43,-19.17 1235.63,-27.76 1239.64,-22.02"/>
</g>
<!-- Node29&#45;&gt;Node4 -->
<g id="edge43" class="edge">
<title>Node29&#45;&gt;Node4</title>
<path fill="none" stroke="#63b8ff" d="M527.43,-164.8C539.35,-157.11 554.96,-144.69 562,-129 577.14,-95.26 559.68,-51.95 547.26,-28.14"/>
<polygon fill="#63b8ff" stroke="#63b8ff" points="550.24,-26.3 542.36,-19.22 544.11,-29.67 550.24,-26.3"/>
</g>
<!-- Node29&#45;&gt;Node17 -->
<g id="edge42" class="edge">
<title>Node29&#45;&gt;Node17</title>
<path fill="none" stroke="#63b8ff" d="M539.47,-164.93C557.61,-157.95 580.6,-146.37 595,-129 605.48,-116.34 610.49,-98.16 612.87,-84.49"/>
<polygon fill="#63b8ff" stroke="#63b8ff" points="616.38,-84.68 614.32,-74.29 609.45,-83.7 616.38,-84.68"/>
</g>
<!-- Node30 -->
<g id="node30" class="node">
<title>Node30</title>
<g id="a_node30"><a xlink:href="grpc__status_8h.html" target="_top" xlink:title=" ">
<polygon fill="white" stroke="#666666" points="553,-129 471,-129 471,-110 553,-110 553,-129"/>
<text text-anchor="middle" x="512" y="-117" font-family="Helvetica,sans-Serif" font-size="10.00">grpc_status.h</text>
</a>
</g>
</g>
<!-- Node29&#45;&gt;Node30 -->
<g id="edge37" class="edge">
<title>Node29&#45;&gt;Node30</title>
<path fill="none" stroke="#63b8ff" d="M512,-164.75C512,-157.8 512,-147.85 512,-139.13"/>
<polygon fill="#63b8ff" stroke="#63b8ff" points="515.5,-139.09 512,-129.09 508.5,-139.09 515.5,-139.09"/>
</g>
<!-- Node32 -->
<g id="node32" class="node">
<title>Node32</title>
<g id="a_node32"><a xlink:title=" ">
<polygon fill="#e0e0e0" stroke="#999999" points="452.5,-129 381.5,-129 381.5,-110 452.5,-110 452.5,-129"/>
<text text-anchor="middle" x="417" y="-117" font-family="Helvetica,sans-Serif" font-size="10.00">status.pb.h</text>
</a>
</g>
</g>
<!-- Node29&#45;&gt;Node32 -->
<g id="edge41" class="edge">
<title>Node29&#45;&gt;Node32</title>
<path fill="none" stroke="#63b8ff" d="M496.74,-164.98C481.87,-156.69 459.02,-143.94 441.58,-134.22"/>
<polygon fill="#63b8ff" stroke="#63b8ff" points="442.98,-130.99 432.54,-129.17 439.57,-137.1 442.98,-130.99"/>
</g>
<!-- Node30&#45;&gt;Node2 -->
<g id="edge39" class="edge">
<title>Node30&#45;&gt;Node2</title>
<path fill="none" stroke="#63b8ff" d="M470.81,-111.62C467.49,-111.07 464.19,-110.52 461,-110 388.18,-98.06 304.51,-84.61 248.56,-75.65"/>
<polygon fill="#63b8ff" stroke="#63b8ff" points="248.87,-72.15 238.44,-74.03 247.76,-79.07 248.87,-72.15"/>
</g>
<!-- Node30&#45;&gt;Node4 -->
<g id="edge40" class="edge">
<title>Node30&#45;&gt;Node4</title>
<path fill="none" stroke="#63b8ff" d="M514.05,-109.66C518.11,-92.09 527.29,-52.45 532.73,-28.95"/>
<polygon fill="#63b8ff" stroke="#63b8ff" points="536.15,-29.69 535,-19.16 529.33,-28.11 536.15,-29.69"/>
</g>
<!-- Node31 -->
<g id="node31" class="node">
<title>Node31</title>
<g id="a_node31"><a xlink:href="http__consts_8h.html" target="_top" xlink:title=" ">
<polygon fill="white" stroke="#666666" points="447.5,-74 348.5,-74 348.5,-55 447.5,-55 447.5,-74"/>
<text text-anchor="middle" x="398" y="-62" font-family="Helvetica,sans-Serif" font-size="10.00">ccf/http_consts.h</text>
</a>
</g>
</g>
<!-- Node30&#45;&gt;Node31 -->
<g id="edge38" class="edge">
<title>Node30&#45;&gt;Node31</title>
<path fill="none" stroke="#63b8ff" d="M493.68,-109.98C475.34,-101.46 446.89,-88.23 425.77,-78.41"/>
<polygon fill="#63b8ff" stroke="#63b8ff" points="427.19,-75.21 416.65,-74.17 424.24,-81.56 427.19,-75.21"/>
</g>
<!-- Node33&#45;&gt;Node2 -->
<g id="edge46" class="edge">
<title>Node33&#45;&gt;Node2</title>
<path fill="none" stroke="#63b8ff" d="M299.27,-228.26C237.53,-227.09 87.92,-220.46 57,-184 20.73,-141.24 103.89,-98.34 152.69,-77.88"/>
<polygon fill="#63b8ff" stroke="#63b8ff" points="154.01,-81.12 161.94,-74.09 151.36,-74.64 154.01,-81.12"/>
</g>
<!-- Node33&#45;&gt;Node4 -->
<g id="edge50" class="edge">
<title>Node33&#45;&gt;Node4</title>
<path fill="none" stroke="#63b8ff" d="M323.52,-219.97C316.05,-192.29 296.75,-103.93 339,-55 360.34,-30.29 454.54,-18.04 504.93,-13.15"/>
<polygon fill="#63b8ff" stroke="#63b8ff" points="505.35,-16.63 514.98,-12.22 504.7,-9.66 505.35,-16.63"/>
</g>
<!-- Node33&#45;&gt;Node17 -->
<g id="edge49" class="edge">
<title>Node33&#45;&gt;Node17</title>
<path fill="none" stroke="#63b8ff" d="M352.74,-227.4C395.99,-224.71 483.1,-215.49 549,-184 583.45,-167.53 598.8,-163.58 615,-129 621.51,-115.1 620.94,-97.54 619.06,-84.41"/>
<polygon fill="#63b8ff" stroke="#63b8ff" points="622.44,-83.44 617.23,-74.22 615.56,-84.68 622.44,-83.44"/>
</g>
<!-- Node33&#45;&gt;Node29 -->
<g id="edge47" class="edge">
<title>Node33&#45;&gt;Node29</title>
<path fill="none" stroke="#63b8ff" d="M352.65,-220.91C384.51,-211.83 438.05,-196.57 474.18,-186.28"/>
<polygon fill="#63b8ff" stroke="#63b8ff" points="475.22,-189.62 483.88,-183.51 473.3,-182.89 475.22,-189.62"/>
</g>
<!-- Node33&#45;&gt;Node31 -->
<g id="edge45" class="edge">
<title>Node33&#45;&gt;Node31</title>
<path fill="none" stroke="#63b8ff" d="M328.79,-219.97C335.36,-200.22 352.72,-149.95 372,-110 376.47,-100.73 382.17,-90.81 387.1,-82.69"/>
<polygon fill="#63b8ff" stroke="#63b8ff" points="390.1,-84.48 392.4,-74.14 384.15,-80.8 390.1,-84.48"/>
</g>
<!-- Node34 -->
<g id="node34" class="node">
<title>Node34</title>
<g id="a_node34"><a xlink:title=" ">
<polygon fill="#e0e0e0" stroke="#999999" points="217.5,-184 66.5,-184 66.5,-165 217.5,-165 217.5,-184"/>
<text text-anchor="middle" x="142" y="-172" font-family="Helvetica,sans-Serif" font-size="10.00">google/protobuf/empty.pb.h</text>
</a>
</g>
</g>
<!-- Node33&#45;&gt;Node34 -->
<g id="edge48" class="edge">
<title>Node33&#45;&gt;Node34</title>
<path fill="none" stroke="#63b8ff" d="M299.24,-220.79C268.31,-211.88 217.1,-197.13 181.56,-186.9"/>
<polygon fill="#63b8ff" stroke="#63b8ff" points="182.11,-183.41 171.53,-184.01 180.17,-190.14 182.11,-183.41"/>
</g>
<!-- Node35 -->
<g id="node35" class="node">
<title>Node35</title>
<g id="a_node35"><a xlink:title=" ">
<polygon fill="#e0e0e0" stroke="#999999" points="286.5,-184 235.5,-184 235.5,-165 286.5,-165 286.5,-184"/>
<text text-anchor="middle" x="261" y="-172" font-family="Helvetica,sans-Serif" font-size="10.00">variant</text>
</a>
</g>
</g>
<!-- Node33&#45;&gt;Node35 -->
<g id="edge51" class="edge">
<title>Node33&#45;&gt;Node35</title>
<path fill="none" stroke="#63b8ff" d="M315.56,-219.98C305.85,-212.07 291.18,-200.11 279.5,-190.58"/>
<polygon fill="#63b8ff" stroke="#63b8ff" points="281.6,-187.78 271.63,-184.17 277.17,-193.2 281.6,-187.78"/>
</g>
</g>
</svg>
