<?xml version="1.0" encoding="UTF-8" standalone="no"?>
<!DOCTYPE svg PUBLIC "-//W3C//DTD SVG 1.1//EN"
 "http://www.w3.org/Graphics/SVG/1.1/DTD/svg11.dtd">
<!-- Generated by graphviz version 2.43.0 (0)
 -->
<!-- Title: ccf::NetworkTables Pages: 1 -->
<svg width="1250pt" height="382pt"
 viewBox="0.00 0.00 1250.00 382.43" xmlns="http://www.w3.org/2000/svg" xmlns:xlink="http://www.w3.org/1999/xlink">
<g id="graph0" class="graph" transform="scale(1 1) rotate(0) translate(4 378.43)">
<title>ccf::NetworkTables</title>
<!-- Node1 -->
<g id="node1" class="node">
<title>Node1</title>
<g id="a_node1"><a xlink:title=" ">
<polygon fill="#999999" stroke="#666666" points="1242,-186.43 1134,-186.43 1134,-167.43 1242,-167.43 1242,-186.43"/>
<text text-anchor="middle" x="1188" y="-174.43" font-family="Helvetica,sans-Serif" font-size="10.00">ccf::NetworkTables</text>
</a>
</g>
</g>
<!-- Node2 -->
<g id="node2" class="node">
<title>Node2</title>
<g id="a_node2"><a xlink:title=" ">
<polygon fill="white" stroke="#666666" points="959.5,-345.93 846.5,-345.93 846.5,-315.93 959.5,-315.93 959.5,-345.93"/>
<text text-anchor="start" x="854.5" y="-333.93" font-family="Helvetica,sans-Serif" font-size="10.00">std::shared_ptr&lt; kv</text>
<text text-anchor="middle" x="903" y="-322.93" font-family="Helvetica,sans-Serif" font-size="10.00">::Store &gt;</text>
</a>
</g>
</g>
<!-- Node2&#45;&gt;Node1 -->
<g id="edge1" class="edge">
<title>Node2&#45;&gt;Node1</title>
<path fill="none" stroke="#9a32cd" stroke-dasharray="5,2" d="M969.89,-339.71C1014.7,-342.23 1073.36,-338.45 1116,-309.93 1160.82,-279.95 1179.48,-212.1 1185.06,-186.74"/>
<polygon fill="#9a32cd" stroke="#9a32cd" points="969.9,-336.2 959.68,-339.01 969.42,-343.19 969.9,-336.2"/>
<text text-anchor="middle" x="1054" y="-342.93" font-family="Helvetica,sans-Serif" font-size="10.00"> tables</text>
</g>
<!-- Node3 -->
<g id="node3" class="node">
<title>Node3</title>
<g id="a_node3"><a xlink:href="classkv_1_1Store.html" target="_top" xlink:title=" ">
<polygon fill="white" stroke="#666666" points="768.5,-337.43 709.5,-337.43 709.5,-318.43 768.5,-318.43 768.5,-337.43"/>
<text text-anchor="middle" x="739" y="-325.43" font-family="Helvetica,sans-Serif" font-size="10.00">kv::Store</text>
</a>
</g>
</g>
<!-- Node3&#45;&gt;Node2 -->
<g id="edge2" class="edge">
<title>Node3&#45;&gt;Node2</title>
<path fill="none" stroke="#9a32cd" stroke-dasharray="5,2" d="M778.66,-328.65C798.85,-329.02 823.93,-329.48 846.18,-329.9"/>
<polygon fill="#9a32cd" stroke="#9a32cd" points="778.65,-325.15 768.59,-328.46 778.52,-332.14 778.65,-325.15"/>
<text text-anchor="middle" x="805.5" y="-331.93" font-family="Helvetica,sans-Serif" font-size="10.00"> ptr</text>
</g>
<!-- Node4 -->
<g id="node4" class="node">
<title>Node4</title>
<g id="a_node4"><a xlink:href="classkv_1_1AbstractStore.html" target="_top" xlink:title=" ">
<polygon fill="white" stroke="#666666" points="638,-337.43 538,-337.43 538,-318.43 638,-318.43 638,-337.43"/>
<text text-anchor="middle" x="588" y="-325.43" font-family="Helvetica,sans-Serif" font-size="10.00">kv::AbstractStore</text>
</a>
</g>
</g>
<!-- Node4&#45;&gt;Node3 -->
<g id="edge3" class="edge">
<title>Node4&#45;&gt;Node3</title>
<path fill="none" stroke="#63b8ff" d="M648.34,-327.93C669.33,-327.93 691.99,-327.93 709.28,-327.93"/>
<polygon fill="#63b8ff" stroke="#63b8ff" points="648.2,-324.43 638.2,-327.93 648.2,-331.43 648.2,-324.43"/>
</g>
<!-- Node5 -->
<g id="node5" class="node">
<title>Node5</title>
<g id="a_node5"><a xlink:href="classkv_1_1StoreState.html" target="_top" xlink:title=" ">
<polygon fill="white" stroke="#666666" points="630.5,-300.43 545.5,-300.43 545.5,-281.43 630.5,-281.43 630.5,-300.43"/>
<text text-anchor="middle" x="588" y="-288.43" font-family="Helvetica,sans-Serif" font-size="10.00">kv::StoreState</text>
</a>
</g>
</g>
<!-- Node5&#45;&gt;Node3 -->
<g id="edge4" class="edge">
<title>Node5&#45;&gt;Node3</title>
<path fill="none" stroke="#63b8ff" d="M637.26,-302.91C660.99,-308.81 688.79,-315.71 709.17,-320.77"/>
<polygon fill="#63b8ff" stroke="#63b8ff" points="637.92,-299.47 627.37,-300.46 636.23,-306.27 637.92,-299.47"/>
</g>
<!-- Node6 -->
<g id="node6" class="node">
<title>Node6</title>
<g id="a_node6"><a xlink:title=" ">
<polygon fill="white" stroke="#666666" points="374,-299.43 305,-299.43 305,-280.43 374,-280.43 374,-299.43"/>
<text text-anchor="middle" x="339.5" y="-287.43" font-family="Helvetica,sans-Serif" font-size="10.00">std::mutex</text>
</a>
</g>
</g>
<!-- Node6&#45;&gt;Node5 -->
<g id="edge5" class="edge">
<title>Node6&#45;&gt;Node5</title>
<path fill="none" stroke="#9a32cd" stroke-dasharray="5,2" d="M384.16,-290.11C429.69,-290.29 500.56,-290.58 545.34,-290.76"/>
<polygon fill="#9a32cd" stroke="#9a32cd" points="384.01,-286.61 374,-290.07 383.99,-293.61 384.01,-286.61"/>
<text text-anchor="middle" x="462.5" y="-315.93" font-family="Helvetica,sans-Serif" font-size="10.00"> commit_lock</text>
<text text-anchor="middle" x="462.5" y="-304.93" font-family="Helvetica,sans-Serif" font-size="10.00">maps_lock</text>
<text text-anchor="middle" x="462.5" y="-293.93" font-family="Helvetica,sans-Serif" font-size="10.00">version_lock</text>
</g>
<!-- Node7 -->
<g id="node7" class="node">
<title>Node7</title>
<g id="a_node7"><a xlink:title=" ">
<polygon fill="white" stroke="#666666" points="411,-261.93 268,-261.93 268,-209.93 411,-209.93 411,-261.93"/>
<text text-anchor="start" x="276" y="-249.93" font-family="Helvetica,sans-Serif" font-size="10.00">std::map&lt; std::string,</text>
<text text-anchor="start" x="276" y="-238.93" font-family="Helvetica,sans-Serif" font-size="10.00"> std::pair&lt; kv::Version,</text>
<text text-anchor="start" x="276" y="-227.93" font-family="Helvetica,sans-Serif" font-size="10.00"> std::shared_ptr&lt; untyped</text>
<text text-anchor="middle" x="339.5" y="-216.93" font-family="Helvetica,sans-Serif" font-size="10.00">::Map &gt; &gt; &gt;</text>
</a>
</g>
</g>
<!-- Node7&#45;&gt;Node5 -->
<g id="edge6" class="edge">
<title>Node7&#45;&gt;Node5</title>
<path fill="none" stroke="#9a32cd" stroke-dasharray="5,2" d="M420.96,-253.88C462.46,-263.14 511.35,-274.05 545.28,-281.62"/>
<polygon fill="#9a32cd" stroke="#9a32cd" points="421.66,-250.45 411.14,-251.69 420.13,-257.29 421.66,-250.45"/>
<text text-anchor="middle" x="462.5" y="-273.93" font-family="Helvetica,sans-Serif" font-size="10.00"> maps</text>
</g>
<!-- Node8 -->
<g id="node8" class="node">
<title>Node8</title>
<g id="a_node8"><a xlink:title=" ">
<polygon fill="white" stroke="#666666" points="206,-207.43 141,-207.43 141,-188.43 206,-188.43 206,-207.43"/>
<text text-anchor="middle" x="173.5" y="-195.43" font-family="Helvetica,sans-Serif" font-size="10.00">std::string</text>
</a>
</g>
</g>
<!-- Node8&#45;&gt;Node7 -->
<g id="edge7" class="edge">
<title>Node8&#45;&gt;Node7</title>
<path fill="none" stroke="#9a32cd" stroke-dasharray="5,2" d="M216.06,-207.56C231.82,-211.21 250.23,-215.48 267.92,-219.58"/>
<polygon fill="#9a32cd" stroke="#9a32cd" points="216.65,-204.11 206.12,-205.26 215.07,-210.92 216.65,-204.11"/>
<text text-anchor="middle" x="237" y="-217.93" font-family="Helvetica,sans-Serif" font-size="10.00"> keys</text>
</g>
<!-- Node14 -->
<g id="node14" class="node">
<title>Node14</title>
<g id="a_node14"><a xlink:href="structkv_1_1GetName.html" target="_top" xlink:title=" ">
<polygon fill="white" stroke="#666666" points="779,-186.43 699,-186.43 699,-167.43 779,-167.43 779,-186.43"/>
<text text-anchor="middle" x="739" y="-174.43" font-family="Helvetica,sans-Serif" font-size="10.00">kv::GetName</text>
</a>
</g>
</g>
<!-- Node8&#45;&gt;Node14 -->
<g id="edge14" class="edge">
<title>Node8&#45;&gt;Node14</title>
<path fill="none" stroke="#9a32cd" stroke-dasharray="5,2" d="M216.22,-196.38C321.39,-192.46 596.18,-182.22 698.69,-178.4"/>
<polygon fill="#9a32cd" stroke="#9a32cd" points="215.87,-192.89 206,-196.76 216.13,-199.88 215.87,-192.89"/>
<text text-anchor="middle" x="462.5" y="-191.93" font-family="Helvetica,sans-Serif" font-size="10.00"> name</text>
</g>
<!-- Node9 -->
<g id="node9" class="node">
<title>Node9</title>
<g id="a_node9"><a xlink:title=" ">
<polygon fill="white" stroke="#666666" points="104,-212.93 0,-212.93 0,-182.93 104,-182.93 104,-212.93"/>
<text text-anchor="start" x="8" y="-200.93" font-family="Helvetica,sans-Serif" font-size="10.00">std::basic_string&lt;</text>
<text text-anchor="middle" x="52" y="-189.93" font-family="Helvetica,sans-Serif" font-size="10.00"> Char &gt;</text>
</a>
</g>
</g>
<!-- Node9&#45;&gt;Node8 -->
<g id="edge8" class="edge">
<title>Node9&#45;&gt;Node8</title>
<path fill="none" stroke="#63b8ff" d="M114.1,-197.93C123.41,-197.93 132.68,-197.93 141,-197.93"/>
<polygon fill="#63b8ff" stroke="#63b8ff" points="114.03,-194.43 104.03,-197.93 114.03,-201.43 114.03,-194.43"/>
</g>
<!-- Node10 -->
<g id="node10" class="node">
<title>Node10</title>
<g id="a_node10"><a xlink:title=" ">
<polygon fill="white" stroke="#666666" points="406.5,-371.93 272.5,-371.93 272.5,-319.93 406.5,-319.93 406.5,-371.93"/>
<text text-anchor="start" x="280.5" y="-359.93" font-family="Helvetica,sans-Serif" font-size="10.00">std::unordered_map</text>
<text text-anchor="start" x="280.5" y="-348.93" font-family="Helvetica,sans-Serif" font-size="10.00">&lt; Version, std::tuple</text>
<text text-anchor="start" x="280.5" y="-337.93" font-family="Helvetica,sans-Serif" font-size="10.00">&lt; std::unique_ptr&lt; kv</text>
<text text-anchor="middle" x="339.5" y="-326.93" font-family="Helvetica,sans-Serif" font-size="10.00">::PendingTx &gt;, bool &gt; &gt;</text>
</a>
</g>
</g>
<!-- Node10&#45;&gt;Node5 -->
<g id="edge9" class="edge">
<title>Node10&#45;&gt;Node5</title>
<path fill="none" stroke="#9a32cd" stroke-dasharray="5,2" d="M416.97,-343.05C442.85,-340.02 471.4,-334.35 496,-323.93 505.33,-319.98 504.91,-314.41 514,-309.93 523.75,-305.13 534.85,-301.44 545.4,-298.65"/>
<polygon fill="#9a32cd" stroke="#9a32cd" points="416.41,-339.59 406.83,-344.12 417.14,-346.55 416.41,-339.59"/>
<text text-anchor="middle" x="462.5" y="-343.93" font-family="Helvetica,sans-Serif" font-size="10.00"> pending_txs</text>
</g>
<!-- Node11 -->
<g id="node11" class="node">
<title>Node11</title>
<g id="a_node11"><a xlink:href="classkv_1_1ExecutionWrapperStore.html" target="_top" xlink:title=" ">
<polygon fill="white" stroke="#666666" points="662,-263.43 514,-263.43 514,-244.43 662,-244.43 662,-263.43"/>
<text text-anchor="middle" x="588" y="-251.43" font-family="Helvetica,sans-Serif" font-size="10.00">kv::ExecutionWrapperStore</text>
</a>
</g>
</g>
<!-- Node11&#45;&gt;Node3 -->
<g id="edge10" class="edge">
<title>Node11&#45;&gt;Node3</title>
<path fill="none" stroke="#63b8ff" d="M648.56,-266.51C653.19,-268.12 657.72,-269.92 662,-271.93 687.82,-284.04 713.65,-305.56 727.55,-318.1"/>
<polygon fill="#63b8ff" stroke="#63b8ff" points="649.58,-263.17 638.99,-263.47 647.46,-269.84 649.58,-263.17"/>
</g>
<!-- Node12 -->
<g id="node12" class="node">
<title>Node12</title>
<g id="a_node12"><a xlink:href="classkv_1_1ReadOnlyStore.html" target="_top" xlink:title=" ">
<polygon fill="white" stroke="#666666" points="641.5,-374.43 534.5,-374.43 534.5,-355.43 641.5,-355.43 641.5,-374.43"/>
<text text-anchor="middle" x="588" y="-362.43" font-family="Helvetica,sans-Serif" font-size="10.00">kv::ReadOnlyStore</text>
</a>
</g>
</g>
<!-- Node12&#45;&gt;Node3 -->
<g id="edge11" class="edge">
<title>Node12&#45;&gt;Node3</title>
<path fill="none" stroke="#63b8ff" d="M637.48,-353C645.66,-350.98 654.07,-348.9 662,-346.93 677.71,-343.03 695.23,-338.65 709.49,-335.08"/>
<polygon fill="#63b8ff" stroke="#63b8ff" points="636.52,-349.63 627.65,-355.43 638.2,-356.43 636.52,-349.63"/>
</g>
<!-- Node13 -->
<g id="node13" class="node">
<title>Node13</title>
<g id="a_node13"><a xlink:href="classkv_1_1TypedMap.html" target="_top" xlink:title=" ">
<polygon fill="white" stroke="#666666" points="974,-52.93 832,-52.93 832,-22.93 974,-22.93 974,-52.93"/>
<text text-anchor="start" x="840" y="-40.93" font-family="Helvetica,sans-Serif" font-size="10.00">kv::TypedMap&lt; K, V,</text>
<text text-anchor="middle" x="903" y="-29.93" font-family="Helvetica,sans-Serif" font-size="10.00"> KSerialiser, VSerialiser &gt;</text>
</a>
</g>
</g>
<!-- Node13&#45;&gt;Node1 -->
<g id="edge12" class="edge">
<title>Node13&#45;&gt;Node1</title>
<path fill="none" stroke="#9a32cd" stroke-dasharray="5,2" d="M947.55,-19.29C993.28,-2.87 1065.42,13.8 1116,-18.93 1169.28,-53.4 1182.96,-138.38 1186.13,-167.2"/>
<polygon fill="#9a32cd" stroke="#9a32cd" points="946.08,-16.1 937.93,-22.88 948.53,-22.66 946.08,-16.1"/>
<text text-anchor="middle" x="1054" y="-164.93" font-family="Helvetica,sans-Serif" font-size="10.00"> acme_certificates</text>
<text text-anchor="middle" x="1054" y="-153.93" font-family="Helvetica,sans-Serif" font-size="10.00">ca_cert_bundles</text>
<text text-anchor="middle" x="1054" y="-142.93" font-family="Helvetica,sans-Serif" font-size="10.00">cose_governance_history</text>
<text text-anchor="start" x="992" y="-131.93" font-family="Helvetica,sans-Serif" font-size="10.00">encrypted_submitted</text>
<text text-anchor="middle" x="1054" y="-120.93" font-family="Helvetica,sans-Serif" font-size="10.00">_shares</text>
<text text-anchor="middle" x="1054" y="-109.93" font-family="Helvetica,sans-Serif" font-size="10.00">governance_history</text>
<text text-anchor="middle" x="1054" y="-98.93" font-family="Helvetica,sans-Serif" font-size="10.00">host_data</text>
<text text-anchor="middle" x="1054" y="-87.93" font-family="Helvetica,sans-Serif" font-size="10.00">jwt_issuers</text>
<text text-anchor="start" x="992" y="-76.93" font-family="Helvetica,sans-Serif" font-size="10.00">jwt_public_signing</text>
<text text-anchor="middle" x="1054" y="-65.93" font-family="Helvetica,sans-Serif" font-size="10.00">_key_issuer</text>
<text text-anchor="start" x="992" y="-54.93" font-family="Helvetica,sans-Serif" font-size="10.00">jwt_public_signing</text>
<text text-anchor="middle" x="1054" y="-43.93" font-family="Helvetica,sans-Serif" font-size="10.00">_keys</text>
<text text-anchor="middle" x="1054" y="-32.93" font-family="Helvetica,sans-Serif" font-size="10.00">member_acks</text>
<text text-anchor="middle" x="1054" y="-21.93" font-family="Helvetica,sans-Serif" font-size="10.00">...</text>
</g>
<!-- Node14&#45;&gt;Node13 -->
<g id="edge13" class="edge">
<title>Node14&#45;&gt;Node13</title>
<path fill="none" stroke="#63b8ff" d="M758.79,-160.81C790.36,-133.72 853.59,-79.47 884.36,-53.07"/>
<polygon fill="#63b8ff" stroke="#63b8ff" points="756.45,-158.21 751.13,-167.38 761,-163.52 756.45,-158.21"/>
</g>
<!-- Node15 -->
<g id="node15" class="node">
<title>Node15</title>
<g id="a_node15"><a xlink:href="classkv_1_1TypedValue.html" target="_top" xlink:title=" ">
<polygon fill="white" stroke="#666666" points="958,-191.93 848,-191.93 848,-161.93 958,-161.93 958,-191.93"/>
<text text-anchor="start" x="856" y="-179.93" font-family="Helvetica,sans-Serif" font-size="10.00">kv::TypedValue&lt; V,</text>
<text text-anchor="middle" x="903" y="-168.93" font-family="Helvetica,sans-Serif" font-size="10.00"> VSerialiser, Unit &gt;</text>
</a>
</g>
</g>
<!-- Node14&#45;&gt;Node15 -->
<g id="edge16" class="edge">
<title>Node14&#45;&gt;Node15</title>
<path fill="none" stroke="#63b8ff" d="M789.46,-176.93C807.93,-176.93 828.98,-176.93 847.85,-176.93"/>
<polygon fill="#63b8ff" stroke="#63b8ff" points="789.22,-173.43 779.22,-176.93 789.22,-180.43 789.22,-173.43"/>
</g>
<!-- Node15&#45;&gt;Node1 -->
<g id="edge15" class="edge">
<title>Node15&#45;&gt;Node1</title>
<path fill="none" stroke="#9a32cd" stroke-dasharray="5,2" d="M968.3,-176.93C1018.34,-176.93 1086.96,-176.93 1133.91,-176.93"/>
<polygon fill="#9a32cd" stroke="#9a32cd" points="968.23,-173.43 958.23,-176.93 968.23,-180.43 968.23,-173.43"/>
<text text-anchor="middle" x="1054" y="-300.93" font-family="Helvetica,sans-Serif" font-size="10.00"> constitution</text>
<text text-anchor="start" x="1007" y="-289.93" font-family="Helvetica,sans-Serif" font-size="10.00">encrypted_ledger</text>
<text text-anchor="middle" x="1054" y="-278.93" font-family="Helvetica,sans-Serif" font-size="10.00">_secrets</text>
<text text-anchor="start" x="1007" y="-267.93" font-family="Helvetica,sans-Serif" font-size="10.00">modules_quickjs</text>
<text text-anchor="middle" x="1054" y="-256.93" font-family="Helvetica,sans-Serif" font-size="10.00">_version</text>
<text text-anchor="start" x="1007" y="-245.93" font-family="Helvetica,sans-Serif" font-size="10.00">previous_service</text>
<text text-anchor="middle" x="1054" y="-234.93" font-family="Helvetica,sans-Serif" font-size="10.00">_identity</text>
<text text-anchor="middle" x="1054" y="-223.93" font-family="Helvetica,sans-Serif" font-size="10.00">secrets</text>
<text text-anchor="middle" x="1054" y="-212.93" font-family="Helvetica,sans-Serif" font-size="10.00">serialise_tree</text>
<text text-anchor="middle" x="1054" y="-201.93" font-family="Helvetica,sans-Serif" font-size="10.00">service</text>
<text text-anchor="middle" x="1054" y="-190.93" font-family="Helvetica,sans-Serif" font-size="10.00">signatures</text>
<text text-anchor="middle" x="1054" y="-179.93" font-family="Helvetica,sans-Serif" font-size="10.00">snapshot_evidence</text>
</g>
</g>
</svg>
