<?xml version="1.0" encoding="UTF-8" standalone="no"?>
<!DOCTYPE svg PUBLIC "-//W3C//DTD SVG 1.1//EN"
 "http://www.w3.org/Graphics/SVG/1.1/DTD/svg11.dtd">
<!-- Generated by graphviz version 2.43.0 (0)
 -->
<!-- Title: ccf::historical::StateCacheImpl::Request Pages: 1 -->
<!--zoomable 162 -->
<svg id="main" version="1.1" xmlns="http://www.w3.org/2000/svg" xmlns:xlink="http://www.w3.org/1999/xlink" xml:space="preserve" onload="init(evt)">
<style type="text/css"><![CDATA[
.edge:hover path { stroke: red; }
.edge:hover polygon { stroke: red; fill: red; }
]]></style>
<script type="text/javascript"><![CDATA[
var edges = document.getElementsByTagName('g');
if (edges && edges.length) {
  for (var i=0;i<edges.length;i++) {
    if (edges[i].id.substr(0,4)=='edge') {
      edges[i].setAttribute('class','edge');
    }
  }
}
]]></script>
        <defs>
                <circle id="rim" cx="0" cy="0" r="7"/>
                <circle id="rim2" cx="0" cy="0" r="3.5"/>
                <g id="zoomPlus">
                        <use xlink:href="#rim" fill="#404040">
                                <set attributeName="fill" to="#808080" begin="zoomplus.mouseover" end="zoomplus.mouseout"/>
                        </use>
                        <path d="M-4,0h8M0,-4v8" fill="none" stroke="white" stroke-width="1.5" pointer-events="none"/>
                </g>
                <g id="zoomMin">
                        <use xlink:href="#rim" fill="#404040">
                                <set attributeName="fill" to="#808080" begin="zoomminus.mouseover" end="zoomminus.mouseout"/>
                        </use>
                        <path d="M-4,0h8" fill="none" stroke="white" stroke-width="1.5" pointer-events="none"/>
                </g>
                <g id="dirArrow">
                        <path fill="none" stroke="white" stroke-width="1.5" d="M0,-3.0v7 M-2.5,-0.5L0,-3.0L2.5,-0.5"/>
                </g>
               <g id="resetDef">
                       <use xlink:href="#rim2" fill="#404040">
                               <set attributeName="fill" to="#808080" begin="reset.mouseover" end="reset.mouseout"/>
                       </use>
               </g>
        </defs>

<script type="text/javascript">
var viewWidth = 1583;
var viewHeight = 162;
var sectionId = 'dynsection-0';
</script>
<script xlink:href="svgpan.js"/>
<svg id="graph" class="graph">
<g id="viewport">
<title>ccf::historical::StateCacheImpl::Request</title>
<!-- Node1 -->
<g id="node1" class="node">
<title>Node1</title>
<g id="a_node1"><a xlink:title=" ">
<polygon fill="#999999" stroke="#666666" points="1575,-106 1432,-106 1432,-76 1575,-76 1575,-106"/>
<text text-anchor="start" x="1440" y="-94" font-family="Helvetica,sans-Serif" font-size="10.00">ccf::historical::StateCache</text>
<text text-anchor="middle" x="1503.5" y="-83" font-family="Helvetica,sans-Serif" font-size="10.00">Impl::Request</text>
</a>
</g>
</g>
<!-- Node2 -->
<g id="node2" class="node">
<title>Node2</title>
<g id="a_node2"><a xlink:href="classds_1_1ContiguousSet.html" target="_top" xlink:title=" ">
<polygon fill="white" stroke="#666666" points="1229.5,-154 1116.5,-154 1116.5,-124 1229.5,-124 1229.5,-154"/>
<text text-anchor="start" x="1124.5" y="-142" font-family="Helvetica,sans-Serif" font-size="10.00">ds::ContiguousSet&lt;</text>
<text text-anchor="middle" x="1173" y="-131" font-family="Helvetica,sans-Serif" font-size="10.00"> ccf::SeqNo &gt;</text>
</a>
</g>
</g>
<!-- Node2&#45;&gt;Node1 -->
<g id="edge1" class="edge">
<title>Node2&#45;&gt;Node1</title>
<path fill="none" stroke="#9a32cd" stroke-dasharray="5,2" d="M1239.77,-136.42C1288.27,-133.68 1355.68,-128.13 1414,-117 1428.31,-114.27 1443.63,-110.19 1457.44,-106.08"/>
<polygon fill="#9a32cd" stroke="#9a32cd" points="1239.51,-132.93 1229.71,-136.96 1239.89,-139.92 1239.51,-132.93"/>
<text text-anchor="middle" x="1343" y="-136" font-family="Helvetica,sans-Serif" font-size="10.00"> requested_seqnos</text>
</g>
<!-- Node3 -->
<g id="node3" class="node">
<title>Node3</title>
<g id="a_node3"><a xlink:title=" ">
<polygon fill="white" stroke="#666666" points="1235.5,-106 1110.5,-106 1110.5,-76 1235.5,-76 1235.5,-106"/>
<text text-anchor="start" x="1118.5" y="-94" font-family="Helvetica,sans-Serif" font-size="10.00">std::map&lt; ccf::SeqNo,</text>
<text text-anchor="middle" x="1173" y="-83" font-family="Helvetica,sans-Serif" font-size="10.00"> StoreDetailsPtr &gt;</text>
</a>
</g>
</g>
<!-- Node3&#45;&gt;Node1 -->
<g id="edge2" class="edge">
<title>Node3&#45;&gt;Node1</title>
<path fill="none" stroke="#9a32cd" stroke-dasharray="5,2" d="M1245.85,-91C1301.07,-91 1376.95,-91 1431.86,-91"/>
<polygon fill="#9a32cd" stroke="#9a32cd" points="1245.79,-87.5 1235.79,-91 1245.79,-94.5 1245.79,-87.5"/>
<text text-anchor="middle" x="1343" y="-105" font-family="Helvetica,sans-Serif" font-size="10.00"> requested_stores</text>
<text text-anchor="middle" x="1343" y="-94" font-family="Helvetica,sans-Serif" font-size="10.00">supporting_signatures</text>
</g>
<!-- Node4 -->
<g id="node4" class="node">
<title>Node4</title>
<g id="a_node4"><a xlink:title=" ">
<polygon fill="white" stroke="#666666" points="979.5,-100.5 861.5,-100.5 861.5,-81.5 979.5,-81.5 979.5,-100.5"/>
<text text-anchor="middle" x="920.5" y="-88.5" font-family="Helvetica,sans-Serif" font-size="10.00">std::shared_ptr&lt; T &gt;</text>
</a>
</g>
</g>
<!-- Node4&#45;&gt;Node3 -->
<g id="edge3" class="edge">
<title>Node4&#45;&gt;Node3</title>
<path fill="none" stroke="#9a32cd" stroke-dasharray="5,2" d="M989.96,-91C1027.55,-91 1073.8,-91 1110.28,-91"/>
<polygon fill="#9a32cd" stroke="#9a32cd" points="989.6,-87.5 979.6,-91 989.6,-94.5 989.6,-87.5"/>
<text text-anchor="middle" x="1049.5" y="-94" font-family="Helvetica,sans-Serif" font-size="10.00"> elements</text>
</g>
<!-- Node5 -->
<g id="node5" class="node">
<title>Node5</title>
<g id="a_node5"><a xlink:title=" ">
<polygon fill="white" stroke="#666666" points="631.5,-100.5 602.5,-100.5 602.5,-81.5 631.5,-81.5 631.5,-100.5"/>
<text text-anchor="middle" x="617" y="-88.5" font-family="Helvetica,sans-Serif" font-size="10.00">T</text>
</a>
</g>
</g>
<!-- Node5&#45;&gt;Node4 -->
<g id="edge4" class="edge">
<title>Node5&#45;&gt;Node4</title>
<path fill="none" stroke="#9a32cd" stroke-dasharray="5,2" d="M641.86,-91C688.87,-91 794.68,-91 861.25,-91"/>
<polygon fill="#9a32cd" stroke="#9a32cd" points="641.74,-87.5 631.74,-91 641.74,-94.5 641.74,-87.5"/>
<text text-anchor="middle" x="769.5" y="-94" font-family="Helvetica,sans-Serif" font-size="10.00"> ptr</text>
</g>
<!-- Node6 -->
<g id="node6" class="node">
<title>Node6</title>
<g id="a_node6"><a xlink:title=" ">
<polygon fill="white" stroke="#666666" points="1254,-57.5 1092,-57.5 1092,-16.5 1254,-16.5 1254,-57.5"/>
<text text-anchor="start" x="1100" y="-45.5" font-family="Helvetica,sans-Serif" font-size="10.00">std::unique_ptr&lt; ccf</text>
<text text-anchor="start" x="1100" y="-34.5" font-family="Helvetica,sans-Serif" font-size="10.00">::historical::StateCacheImpl</text>
<text text-anchor="middle" x="1173" y="-23.5" font-family="Helvetica,sans-Serif" font-size="10.00">::LedgerSecretRecoveryInfo &gt;</text>
</a>
</g>
</g>
<!-- Node6&#45;&gt;Node1 -->
<g id="edge5" class="edge">
<title>Node6&#45;&gt;Node1</title>
<path fill="none" stroke="#9a32cd" stroke-dasharray="5,2" d="M1264.06,-51.49C1309.1,-58.77 1364.44,-67.77 1414,-76 1419.84,-76.97 1425.9,-77.98 1431.98,-79"/>
<polygon fill="#9a32cd" stroke="#9a32cd" points="1264.45,-48 1254.02,-49.86 1263.34,-54.91 1264.45,-48"/>
<text text-anchor="middle" x="1343" y="-79" font-family="Helvetica,sans-Serif" font-size="10.00"> ledger_secret_recovery_info</text>
</g>
<!-- Node7 -->
<g id="node7" class="node">
<title>Node7</title>
<g id="a_node7"><a xlink:href="structccf_1_1historical_1_1StateCacheImpl_1_1LedgerSecretRecoveryInfo.html" target="_top" xlink:title=" ">
<polygon fill="white" stroke="#666666" points="1007,-52 834,-52 834,-22 1007,-22 1007,-52"/>
<text text-anchor="start" x="842" y="-40" font-family="Helvetica,sans-Serif" font-size="10.00">ccf::historical::StateCache</text>
<text text-anchor="middle" x="920.5" y="-29" font-family="Helvetica,sans-Serif" font-size="10.00">Impl::LedgerSecretRecoveryInfo</text>
</a>
</g>
</g>
<!-- Node7&#45;&gt;Node6 -->
<g id="edge6" class="edge">
<title>Node7&#45;&gt;Node6</title>
<path fill="none" stroke="#9a32cd" stroke-dasharray="5,2" d="M1017.11,-37C1041.81,-37 1068.13,-37 1091.94,-37"/>
<polygon fill="#9a32cd" stroke="#9a32cd" points="1017.01,-33.5 1007.01,-37 1017.01,-40.5 1017.01,-33.5"/>
<text text-anchor="middle" x="1049.5" y="-40" font-family="Helvetica,sans-Serif" font-size="10.00"> ptr</text>
</g>
<!-- Node8 -->
<g id="node8" class="node">
<title>Node8</title>
<g id="a_node8"><a xlink:title=" ">
<polygon fill="white" stroke="#666666" points="705,-46.5 529,-46.5 529,-27.5 705,-27.5 705,-46.5"/>
<text text-anchor="middle" x="617" y="-34.5" font-family="Helvetica,sans-Serif" font-size="10.00">std::shared_ptr&lt; LedgerSecret &gt;</text>
</a>
</g>
</g>
<!-- Node8&#45;&gt;Node7 -->
<g id="edge7" class="edge">
<title>Node8&#45;&gt;Node7</title>
<path fill="none" stroke="#9a32cd" stroke-dasharray="5,2" d="M715.3,-37C753.45,-37 796.84,-37 833.79,-37"/>
<polygon fill="#9a32cd" stroke="#9a32cd" points="715.21,-33.5 705.21,-37 715.21,-40.5 715.21,-33.5"/>
<text text-anchor="middle" x="769.5" y="-40" font-family="Helvetica,sans-Serif" font-size="10.00"> last_ledger_secret</text>
</g>
<!-- Node9 -->
<g id="node9" class="node">
<title>Node9</title>
<g id="a_node9"><a xlink:href="structccf_1_1LedgerSecret.html" target="_top" xlink:title=" ">
<polygon fill="white" stroke="#666666" points="476,-46.5 376,-46.5 376,-27.5 476,-27.5 476,-46.5"/>
<text text-anchor="middle" x="426" y="-34.5" font-family="Helvetica,sans-Serif" font-size="10.00">ccf::LedgerSecret</text>
</a>
</g>
</g>
<!-- Node9&#45;&gt;Node8 -->
<g id="edge8" class="edge">
<title>Node9&#45;&gt;Node8</title>
<path fill="none" stroke="#9a32cd" stroke-dasharray="5,2" d="M486.22,-37C499.69,-37 514.28,-37 528.64,-37"/>
<polygon fill="#9a32cd" stroke="#9a32cd" points="486.16,-33.5 476.16,-37 486.16,-40.5 486.16,-33.5"/>
<text text-anchor="middle" x="502.5" y="-40" font-family="Helvetica,sans-Serif" font-size="10.00"> ptr</text>
</g>
<!-- Node10 -->
<g id="node10" class="node">
<title>Node10</title>
<g id="a_node10"><a xlink:title=" ">
<polygon fill="white" stroke="#666666" points="293,-67.5 168,-67.5 168,-48.5 293,-48.5 293,-67.5"/>
<text text-anchor="middle" x="230.5" y="-55.5" font-family="Helvetica,sans-Serif" font-size="10.00">std::vector&lt; uint8_t &gt;</text>
</a>
</g>
</g>
<!-- Node10&#45;&gt;Node9 -->
<g id="edge9" class="edge">
<title>Node10&#45;&gt;Node9</title>
<path fill="none" stroke="#9a32cd" stroke-dasharray="5,2" d="M303.43,-50.19C327.51,-47.58 353.8,-44.73 375.75,-42.35"/>
<polygon fill="#9a32cd" stroke="#9a32cd" points="302.82,-46.74 293.26,-51.3 303.58,-53.7 302.82,-46.74"/>
<text text-anchor="middle" x="336" y="-51" font-family="Helvetica,sans-Serif" font-size="10.00"> raw_key</text>
</g>
<!-- Node11 -->
<g id="node11" class="node">
<title>Node11</title>
<g id="a_node11"><a xlink:title=" ">
<polygon fill="white" stroke="#666666" points="296,-30 165,-30 165,0 296,0 296,-30"/>
<text text-anchor="start" x="173" y="-18" font-family="Helvetica,sans-Serif" font-size="10.00">std::shared_ptr&lt; crypto</text>
<text text-anchor="middle" x="230.5" y="-7" font-family="Helvetica,sans-Serif" font-size="10.00">::KeyAesGcm &gt;</text>
</a>
</g>
</g>
<!-- Node11&#45;&gt;Node9 -->
<g id="edge10" class="edge">
<title>Node11&#45;&gt;Node9</title>
<path fill="none" stroke="#9a32cd" stroke-dasharray="5,2" d="M306.43,-23.52C329.76,-26.17 354.89,-29.03 375.98,-31.43"/>
<polygon fill="#9a32cd" stroke="#9a32cd" points="306.53,-20.01 296.2,-22.36 305.74,-26.96 306.53,-20.01"/>
<text text-anchor="middle" x="336" y="-33" font-family="Helvetica,sans-Serif" font-size="10.00"> key</text>
</g>
<!-- Node12 -->
<g id="node12" class="node">
<title>Node12</title>
<g id="a_node12"><a xlink:href="classcrypto_1_1KeyAesGcm.html" target="_top" xlink:title=" ">
<polygon fill="white" stroke="#666666" points="112,-24.5 0,-24.5 0,-5.5 112,-5.5 112,-24.5"/>
<text text-anchor="middle" x="56" y="-12.5" font-family="Helvetica,sans-Serif" font-size="10.00">crypto::KeyAesGcm</text>
</a>
</g>
</g>
<!-- Node12&#45;&gt;Node11 -->
<g id="edge11" class="edge">
<title>Node12&#45;&gt;Node11</title>
<path fill="none" stroke="#9a32cd" stroke-dasharray="5,2" d="M122.06,-15C136.03,-15 150.78,-15 164.74,-15"/>
<polygon fill="#9a32cd" stroke="#9a32cd" points="122.05,-11.5 112.05,-15 122.05,-18.5 122.05,-11.5"/>
<text text-anchor="middle" x="138.5" y="-18" font-family="Helvetica,sans-Serif" font-size="10.00"> ptr</text>
</g>
</g>
</svg>
        <g id="navigator" transform="translate(0 0)" fill="#404254">
                <rect fill="#f2f5e9" fill-opacity="0.5" stroke="#606060" stroke-width=".5" x="0" y="0" width="60" height="60"/>
                <use id="zoomplus" xlink:href="#zoomPlus" x="17" y="9" onmousedown="handleZoom(evt,'in')"/>
                <use id="zoomminus" xlink:href="#zoomMin" x="42" y="9" onmousedown="handleZoom(evt,'out')"/>
                <use id="reset" xlink:href="#resetDef" x="30" y="36" onmousedown="handleReset()"/>
                <g id="arrowUp" xlink:href="#dirArrow" transform="translate(30 24)" onmousedown="handlePan(0,-1)">
                  <use xlink:href="#rim" fill="#404040">
                        <set attributeName="fill" to="#808080" begin="arrowUp.mouseover" end="arrowUp.mouseout"/>
                  </use>
                  <path fill="none" stroke="white" stroke-width="1.5" d="M0,-3.0v7 M-2.5,-0.5L0,-3.0L2.5,-0.5"/>
                </g>
                <g id="arrowRight" xlink:href="#dirArrow" transform="rotate(90) translate(36 -43)" onmousedown="handlePan(1,0)">
                  <use xlink:href="#rim" fill="#404040">
                        <set attributeName="fill" to="#808080" begin="arrowRight.mouseover" end="arrowRight.mouseout"/>
                  </use>
                  <path fill="none" stroke="white" stroke-width="1.5" d="M0,-3.0v7 M-2.5,-0.5L0,-3.0L2.5,-0.5"/>
                </g>
                <g id="arrowDown" xlink:href="#dirArrow" transform="rotate(180) translate(-30 -48)" onmousedown="handlePan(0,1)">
                  <use xlink:href="#rim" fill="#404040">
                        <set attributeName="fill" to="#808080" begin="arrowDown.mouseover" end="arrowDown.mouseout"/>
                  </use>
                  <path fill="none" stroke="white" stroke-width="1.5" d="M0,-3.0v7 M-2.5,-0.5L0,-3.0L2.5,-0.5"/>
                </g>
                <g id="arrowLeft" xlink:href="#dirArrow" transform="rotate(270) translate(-36 17)" onmousedown="handlePan(-1,0)">
                  <use xlink:href="#rim" fill="#404040">
                        <set attributeName="fill" to="#808080" begin="arrowLeft.mouseover" end="arrowLeft.mouseout"/>
                  </use>
                  <path fill="none" stroke="white" stroke-width="1.5" d="M0,-3.0v7 M-2.5,-0.5L0,-3.0L2.5,-0.5"/>
                </g>
        </g>
        <svg viewBox="0 0 15 15" width="100%" height="30px" preserveAspectRatio="xMaxYMin meet">
         <g id="arrow_out" transform="scale(0.3 0.3)">
          <a xlink:href="structccf_1_1historical_1_1StateCacheImpl_1_1Request__coll__graph_org.svg" target="_base">
           <rect id="button" ry="5" rx="5" y="6" x="6" height="38" width="38"
                fill="#f2f5e9" fill-opacity="0.5" stroke="#606060" stroke-width="1.0"/>
           <path id="arrow"
             d="M 11.500037,31.436501 C 11.940474,20.09759 22.043105,11.32322 32.158766,21.979434 L 37.068811,17.246167 C 37.068811,17.246167 37.088388,32 37.088388,32 L 22.160133,31.978069 C 22.160133,31.978069 26.997745,27.140456 26.997745,27.140456 C 18.528582,18.264221 13.291696,25.230495 11.500037,31.436501 z"
             style="fill:#404040;"/>
          </a>
         </g>
        </svg>
</svg>
