<?xml version="1.0" encoding="UTF-8" standalone="no"?>
<!DOCTYPE svg PUBLIC "-//W3C//DTD SVG 1.1//EN"
 "http://www.w3.org/Graphics/SVG/1.1/DTD/svg11.dtd">
<!-- Generated by graphviz version 2.43.0 (0)
 -->
<!-- Title: ccf::NetworkState Pages: 1 -->
<!--zoomable 470 -->
<svg id="main" version="1.1" xmlns="http://www.w3.org/2000/svg" xmlns:xlink="http://www.w3.org/1999/xlink" xml:space="preserve" onload="init(evt)">
<style type="text/css"><![CDATA[
.edge:hover path { stroke: red; }
.edge:hover polygon { stroke: red; fill: red; }
]]></style>
<script type="text/javascript"><![CDATA[
var edges = document.getElementsByTagName('g');
if (edges && edges.length) {
  for (var i=0;i<edges.length;i++) {
    if (edges[i].id.substr(0,4)=='edge') {
      edges[i].setAttribute('class','edge');
    }
  }
}
]]></script>
        <defs>
                <circle id="rim" cx="0" cy="0" r="7"/>
                <circle id="rim2" cx="0" cy="0" r="3.5"/>
                <g id="zoomPlus">
                        <use xlink:href="#rim" fill="#404040">
                                <set attributeName="fill" to="#808080" begin="zoomplus.mouseover" end="zoomplus.mouseout"/>
                        </use>
                        <path d="M-4,0h8M0,-4v8" fill="none" stroke="white" stroke-width="1.5" pointer-events="none"/>
                </g>
                <g id="zoomMin">
                        <use xlink:href="#rim" fill="#404040">
                                <set attributeName="fill" to="#808080" begin="zoomminus.mouseover" end="zoomminus.mouseout"/>
                        </use>
                        <path d="M-4,0h8" fill="none" stroke="white" stroke-width="1.5" pointer-events="none"/>
                </g>
                <g id="dirArrow">
                        <path fill="none" stroke="white" stroke-width="1.5" d="M0,-3.0v7 M-2.5,-0.5L0,-3.0L2.5,-0.5"/>
                </g>
               <g id="resetDef">
                       <use xlink:href="#rim2" fill="#404040">
                               <set attributeName="fill" to="#808080" begin="reset.mouseover" end="reset.mouseout"/>
                       </use>
               </g>
        </defs>

<script type="text/javascript">
var viewWidth = 1496;
var viewHeight = 470;
var sectionId = 'dynsection-0';
</script>
<script xlink:href="svgpan.js"/>
<svg id="graph" class="graph">
<g id="viewport">
<title>ccf::NetworkState</title>
<!-- Node1 -->
<g id="node1" class="node">
<title>Node1</title>
<g id="a_node1"><a xlink:title=" ">
<polygon fill="#999999" stroke="#666666" points="1488,-72.5 1385,-72.5 1385,-53.5 1488,-53.5 1488,-72.5"/>
<text text-anchor="middle" x="1436.5" y="-60.5" font-family="Helvetica,sans-Serif" font-size="10.00">ccf::NetworkState</text>
</a>
</g>
</g>
<!-- Node2 -->
<g id="node2" class="node">
<title>Node2</title>
<g id="a_node2"><a xlink:href="structccf_1_1NetworkTables.html" target="_top" xlink:title=" ">
<polygon fill="white" stroke="#666666" points="1270.5,-196.5 1162.5,-196.5 1162.5,-177.5 1270.5,-177.5 1270.5,-196.5"/>
<text text-anchor="middle" x="1216.5" y="-184.5" font-family="Helvetica,sans-Serif" font-size="10.00">ccf::NetworkTables</text>
</a>
</g>
</g>
<!-- Node2&#45;&gt;Node1 -->
<g id="edge1" class="edge">
<title>Node2&#45;&gt;Node1</title>
<path fill="none" stroke="#63b8ff" d="M1243.12,-172.43C1288.26,-146.75 1380.76,-94.14 1418.7,-72.56"/>
<polygon fill="#63b8ff" stroke="#63b8ff" points="1241.21,-169.49 1234.24,-177.48 1244.67,-175.57 1241.21,-169.49"/>
</g>
<!-- Node3 -->
<g id="node3" class="node">
<title>Node3</title>
<g id="a_node3"><a xlink:title=" ">
<polygon fill="white" stroke="#666666" points="984.5,-437 871.5,-437 871.5,-407 984.5,-407 984.5,-437"/>
<text text-anchor="start" x="879.5" y="-425" font-family="Helvetica,sans-Serif" font-size="10.00">std::shared_ptr&lt; kv</text>
<text text-anchor="middle" x="928" y="-414" font-family="Helvetica,sans-Serif" font-size="10.00">::Store &gt;</text>
</a>
</g>
</g>
<!-- Node3&#45;&gt;Node2 -->
<g id="edge2" class="edge">
<title>Node3&#45;&gt;Node2</title>
<path fill="none" stroke="#9a32cd" stroke-dasharray="5,2" d="M994.75,-431.92C1040.47,-435.09 1100.28,-431.29 1141,-399 1207.33,-346.4 1214.74,-230.65 1215.46,-196.6"/>
<polygon fill="#9a32cd" stroke="#9a32cd" points="994.88,-428.42 984.63,-431.1 994.31,-435.4 994.88,-428.42"/>
<text text-anchor="middle" x="1079" y="-435" font-family="Helvetica,sans-Serif" font-size="10.00"> tables</text>
</g>
<!-- Node4 -->
<g id="node4" class="node">
<title>Node4</title>
<g id="a_node4"><a xlink:href="classkv_1_1Store.html" target="_top" xlink:title=" ">
<polygon fill="white" stroke="#666666" points="768.5,-424.5 709.5,-424.5 709.5,-405.5 768.5,-405.5 768.5,-424.5"/>
<text text-anchor="middle" x="739" y="-412.5" font-family="Helvetica,sans-Serif" font-size="10.00">kv::Store</text>
</a>
</g>
</g>
<!-- Node4&#45;&gt;Node3 -->
<g id="edge3" class="edge">
<title>Node4&#45;&gt;Node3</title>
<path fill="none" stroke="#9a32cd" stroke-dasharray="5,2" d="M778.95,-416.46C805.71,-417.46 841.65,-418.8 871.41,-419.92"/>
<polygon fill="#9a32cd" stroke="#9a32cd" points="778.93,-412.96 768.81,-416.08 778.67,-419.95 778.93,-412.96"/>
<text text-anchor="middle" x="818" y="-421" font-family="Helvetica,sans-Serif" font-size="10.00"> ptr</text>
</g>
<!-- Node5 -->
<g id="node5" class="node">
<title>Node5</title>
<g id="a_node5"><a xlink:href="classkv_1_1AbstractStore.html" target="_top" xlink:title=" ">
<polygon fill="white" stroke="#666666" points="638,-424.5 538,-424.5 538,-405.5 638,-405.5 638,-424.5"/>
<text text-anchor="middle" x="588" y="-412.5" font-family="Helvetica,sans-Serif" font-size="10.00">kv::AbstractStore</text>
</a>
</g>
</g>
<!-- Node5&#45;&gt;Node4 -->
<g id="edge4" class="edge">
<title>Node5&#45;&gt;Node4</title>
<path fill="none" stroke="#63b8ff" d="M648.34,-415C669.33,-415 691.99,-415 709.28,-415"/>
<polygon fill="#63b8ff" stroke="#63b8ff" points="648.2,-411.5 638.2,-415 648.2,-418.5 648.2,-411.5"/>
</g>
<!-- Node6 -->
<g id="node6" class="node">
<title>Node6</title>
<g id="a_node6"><a xlink:href="classkv_1_1StoreState.html" target="_top" xlink:title=" ">
<polygon fill="white" stroke="#666666" points="630.5,-387.5 545.5,-387.5 545.5,-368.5 630.5,-368.5 630.5,-387.5"/>
<text text-anchor="middle" x="588" y="-375.5" font-family="Helvetica,sans-Serif" font-size="10.00">kv::StoreState</text>
</a>
</g>
</g>
<!-- Node6&#45;&gt;Node4 -->
<g id="edge5" class="edge">
<title>Node6&#45;&gt;Node4</title>
<path fill="none" stroke="#63b8ff" d="M637.26,-389.98C660.99,-395.88 688.79,-402.78 709.17,-407.84"/>
<polygon fill="#63b8ff" stroke="#63b8ff" points="637.92,-386.54 627.37,-387.53 636.23,-393.34 637.92,-386.54"/>
</g>
<!-- Node7 -->
<g id="node7" class="node">
<title>Node7</title>
<g id="a_node7"><a xlink:title=" ">
<polygon fill="white" stroke="#666666" points="374,-386.5 305,-386.5 305,-367.5 374,-367.5 374,-386.5"/>
<text text-anchor="middle" x="339.5" y="-374.5" font-family="Helvetica,sans-Serif" font-size="10.00">std::mutex</text>
</a>
</g>
</g>
<!-- Node7&#45;&gt;Node6 -->
<g id="edge6" class="edge">
<title>Node7&#45;&gt;Node6</title>
<path fill="none" stroke="#9a32cd" stroke-dasharray="5,2" d="M384.16,-377.18C429.69,-377.36 500.56,-377.65 545.34,-377.83"/>
<polygon fill="#9a32cd" stroke="#9a32cd" points="384.01,-373.68 374,-377.14 383.99,-380.68 384.01,-373.68"/>
<text text-anchor="middle" x="462.5" y="-402" font-family="Helvetica,sans-Serif" font-size="10.00"> commit_lock</text>
<text text-anchor="middle" x="462.5" y="-391" font-family="Helvetica,sans-Serif" font-size="10.00">maps_lock</text>
<text text-anchor="middle" x="462.5" y="-380" font-family="Helvetica,sans-Serif" font-size="10.00">version_lock</text>
</g>
<!-- Node8 -->
<g id="node8" class="node">
<title>Node8</title>
<g id="a_node8"><a xlink:title=" ">
<polygon fill="white" stroke="#666666" points="411,-349 268,-349 268,-297 411,-297 411,-349"/>
<text text-anchor="start" x="276" y="-337" font-family="Helvetica,sans-Serif" font-size="10.00">std::map&lt; std::string,</text>
<text text-anchor="start" x="276" y="-326" font-family="Helvetica,sans-Serif" font-size="10.00"> std::pair&lt; kv::Version,</text>
<text text-anchor="start" x="276" y="-315" font-family="Helvetica,sans-Serif" font-size="10.00"> std::shared_ptr&lt; untyped</text>
<text text-anchor="middle" x="339.5" y="-304" font-family="Helvetica,sans-Serif" font-size="10.00">::Map &gt; &gt; &gt;</text>
</a>
</g>
</g>
<!-- Node8&#45;&gt;Node6 -->
<g id="edge7" class="edge">
<title>Node8&#45;&gt;Node6</title>
<path fill="none" stroke="#9a32cd" stroke-dasharray="5,2" d="M420.96,-340.95C462.46,-350.21 511.35,-361.12 545.28,-368.69"/>
<polygon fill="#9a32cd" stroke="#9a32cd" points="421.66,-337.52 411.14,-338.76 420.13,-344.35 421.66,-337.52"/>
<text text-anchor="middle" x="462.5" y="-360" font-family="Helvetica,sans-Serif" font-size="10.00"> maps</text>
</g>
<!-- Node9 -->
<g id="node9" class="node">
<title>Node9</title>
<g id="a_node9"><a xlink:title=" ">
<polygon fill="white" stroke="#666666" points="206,-294.5 141,-294.5 141,-275.5 206,-275.5 206,-294.5"/>
<text text-anchor="middle" x="173.5" y="-282.5" font-family="Helvetica,sans-Serif" font-size="10.00">std::string</text>
</a>
</g>
</g>
<!-- Node9&#45;&gt;Node8 -->
<g id="edge8" class="edge">
<title>Node9&#45;&gt;Node8</title>
<path fill="none" stroke="#9a32cd" stroke-dasharray="5,2" d="M216.06,-294.63C231.82,-298.28 250.23,-302.55 267.92,-306.65"/>
<polygon fill="#9a32cd" stroke="#9a32cd" points="216.65,-291.17 206.12,-292.33 215.07,-297.99 216.65,-291.17"/>
<text text-anchor="middle" x="237" y="-304" font-family="Helvetica,sans-Serif" font-size="10.00"> keys</text>
</g>
<!-- Node15 -->
<g id="node15" class="node">
<title>Node15</title>
<g id="a_node15"><a xlink:href="structkv_1_1GetName.html" target="_top" xlink:title=" ">
<polygon fill="white" stroke="#666666" points="779,-277.5 699,-277.5 699,-258.5 779,-258.5 779,-277.5"/>
<text text-anchor="middle" x="739" y="-265.5" font-family="Helvetica,sans-Serif" font-size="10.00">kv::GetName</text>
</a>
</g>
</g>
<!-- Node9&#45;&gt;Node15 -->
<g id="edge15" class="edge">
<title>Node9&#45;&gt;Node15</title>
<path fill="none" stroke="#9a32cd" stroke-dasharray="5,2" d="M216.22,-283.74C321.39,-280.57 596.18,-272.28 698.69,-269.19"/>
<polygon fill="#9a32cd" stroke="#9a32cd" points="215.89,-280.25 206,-284.05 216.1,-287.25 215.89,-280.25"/>
<text text-anchor="middle" x="462.5" y="-280" font-family="Helvetica,sans-Serif" font-size="10.00"> name</text>
</g>
<!-- Node10 -->
<g id="node10" class="node">
<title>Node10</title>
<g id="a_node10"><a xlink:title=" ">
<polygon fill="white" stroke="#666666" points="104,-300 0,-300 0,-270 104,-270 104,-300"/>
<text text-anchor="start" x="8" y="-288" font-family="Helvetica,sans-Serif" font-size="10.00">std::basic_string&lt;</text>
<text text-anchor="middle" x="52" y="-277" font-family="Helvetica,sans-Serif" font-size="10.00"> Char &gt;</text>
</a>
</g>
</g>
<!-- Node10&#45;&gt;Node9 -->
<g id="edge9" class="edge">
<title>Node10&#45;&gt;Node9</title>
<path fill="none" stroke="#63b8ff" d="M114.1,-285C123.41,-285 132.68,-285 141,-285"/>
<polygon fill="#63b8ff" stroke="#63b8ff" points="114.03,-281.5 104.03,-285 114.03,-288.5 114.03,-281.5"/>
</g>
<!-- Node11 -->
<g id="node11" class="node">
<title>Node11</title>
<g id="a_node11"><a xlink:title=" ">
<polygon fill="white" stroke="#666666" points="406.5,-459 272.5,-459 272.5,-407 406.5,-407 406.5,-459"/>
<text text-anchor="start" x="280.5" y="-447" font-family="Helvetica,sans-Serif" font-size="10.00">std::unordered_map</text>
<text text-anchor="start" x="280.5" y="-436" font-family="Helvetica,sans-Serif" font-size="10.00">&lt; Version, std::tuple</text>
<text text-anchor="start" x="280.5" y="-425" font-family="Helvetica,sans-Serif" font-size="10.00">&lt; std::unique_ptr&lt; kv</text>
<text text-anchor="middle" x="339.5" y="-414" font-family="Helvetica,sans-Serif" font-size="10.00">::PendingTx &gt;, bool &gt; &gt;</text>
</a>
</g>
</g>
<!-- Node11&#45;&gt;Node6 -->
<g id="edge10" class="edge">
<title>Node11&#45;&gt;Node6</title>
<path fill="none" stroke="#9a32cd" stroke-dasharray="5,2" d="M416.97,-430.12C442.85,-427.09 471.4,-421.42 496,-411 505.33,-407.05 504.91,-401.48 514,-397 523.75,-392.2 534.85,-388.51 545.4,-385.72"/>
<polygon fill="#9a32cd" stroke="#9a32cd" points="416.41,-426.66 406.83,-431.19 417.14,-433.62 416.41,-426.66"/>
<text text-anchor="middle" x="462.5" y="-431" font-family="Helvetica,sans-Serif" font-size="10.00"> pending_txs</text>
</g>
<!-- Node12 -->
<g id="node12" class="node">
<title>Node12</title>
<g id="a_node12"><a xlink:href="classkv_1_1ExecutionWrapperStore.html" target="_top" xlink:title=" ">
<polygon fill="white" stroke="#666666" points="662,-350.5 514,-350.5 514,-331.5 662,-331.5 662,-350.5"/>
<text text-anchor="middle" x="588" y="-338.5" font-family="Helvetica,sans-Serif" font-size="10.00">kv::ExecutionWrapperStore</text>
</a>
</g>
</g>
<!-- Node12&#45;&gt;Node4 -->
<g id="edge11" class="edge">
<title>Node12&#45;&gt;Node4</title>
<path fill="none" stroke="#63b8ff" d="M646.13,-353.65C651.59,-355.52 656.97,-357.63 662,-360 687.63,-372.08 713.53,-393.15 727.49,-405.41"/>
<polygon fill="#63b8ff" stroke="#63b8ff" points="646.84,-350.21 636.25,-350.55 644.74,-356.88 646.84,-350.21"/>
</g>
<!-- Node13 -->
<g id="node13" class="node">
<title>Node13</title>
<g id="a_node13"><a xlink:href="classkv_1_1ReadOnlyStore.html" target="_top" xlink:title=" ">
<polygon fill="white" stroke="#666666" points="641.5,-461.5 534.5,-461.5 534.5,-442.5 641.5,-442.5 641.5,-461.5"/>
<text text-anchor="middle" x="588" y="-449.5" font-family="Helvetica,sans-Serif" font-size="10.00">kv::ReadOnlyStore</text>
</a>
</g>
</g>
<!-- Node13&#45;&gt;Node4 -->
<g id="edge12" class="edge">
<title>Node13&#45;&gt;Node4</title>
<path fill="none" stroke="#63b8ff" d="M637.48,-440.07C645.66,-438.05 654.07,-435.97 662,-434 677.71,-430.1 695.23,-425.72 709.49,-422.15"/>
<polygon fill="#63b8ff" stroke="#63b8ff" points="636.52,-436.7 627.65,-442.49 638.2,-443.5 636.52,-436.7"/>
</g>
<!-- Node14 -->
<g id="node14" class="node">
<title>Node14</title>
<g id="a_node14"><a xlink:href="classkv_1_1TypedMap.html" target="_top" xlink:title=" ">
<polygon fill="white" stroke="#666666" points="999,-175 857,-175 857,-145 999,-145 999,-175"/>
<text text-anchor="start" x="865" y="-163" font-family="Helvetica,sans-Serif" font-size="10.00">kv::TypedMap&lt; K, V,</text>
<text text-anchor="middle" x="928" y="-152" font-family="Helvetica,sans-Serif" font-size="10.00"> KSerialiser, VSerialiser &gt;</text>
</a>
</g>
</g>
<!-- Node14&#45;&gt;Node2 -->
<g id="edge13" class="edge">
<title>Node14&#45;&gt;Node2</title>
<path fill="none" stroke="#9a32cd" stroke-dasharray="5,2" d="M949.85,-137.34C966.3,-121.24 990.78,-100.95 1017,-92 1069.16,-74.2 1091.44,-67.89 1141,-92 1178.32,-110.16 1202.48,-157.06 1211.51,-177.38"/>
<polygon fill="#9a32cd" stroke="#9a32cd" points="946.98,-135.26 942.45,-144.84 951.96,-140.18 946.98,-135.26"/>
<text text-anchor="middle" x="1079" y="-238" font-family="Helvetica,sans-Serif" font-size="10.00"> acme_certificates</text>
<text text-anchor="middle" x="1079" y="-227" font-family="Helvetica,sans-Serif" font-size="10.00">ca_cert_bundles</text>
<text text-anchor="middle" x="1079" y="-216" font-family="Helvetica,sans-Serif" font-size="10.00">cose_governance_history</text>
<text text-anchor="start" x="1017" y="-205" font-family="Helvetica,sans-Serif" font-size="10.00">encrypted_submitted</text>
<text text-anchor="middle" x="1079" y="-194" font-family="Helvetica,sans-Serif" font-size="10.00">_shares</text>
<text text-anchor="middle" x="1079" y="-183" font-family="Helvetica,sans-Serif" font-size="10.00">governance_history</text>
<text text-anchor="middle" x="1079" y="-172" font-family="Helvetica,sans-Serif" font-size="10.00">host_data</text>
<text text-anchor="middle" x="1079" y="-161" font-family="Helvetica,sans-Serif" font-size="10.00">jwt_issuers</text>
<text text-anchor="start" x="1017" y="-150" font-family="Helvetica,sans-Serif" font-size="10.00">jwt_public_signing</text>
<text text-anchor="middle" x="1079" y="-139" font-family="Helvetica,sans-Serif" font-size="10.00">_key_issuer</text>
<text text-anchor="start" x="1017" y="-128" font-family="Helvetica,sans-Serif" font-size="10.00">jwt_public_signing</text>
<text text-anchor="middle" x="1079" y="-117" font-family="Helvetica,sans-Serif" font-size="10.00">_keys</text>
<text text-anchor="middle" x="1079" y="-106" font-family="Helvetica,sans-Serif" font-size="10.00">member_acks</text>
<text text-anchor="middle" x="1079" y="-95" font-family="Helvetica,sans-Serif" font-size="10.00">...</text>
</g>
<!-- Node15&#45;&gt;Node14 -->
<g id="edge14" class="edge">
<title>Node15&#45;&gt;Node14</title>
<path fill="none" stroke="#63b8ff" d="M765.39,-253.33C800.92,-232.81 865.14,-195.73 900.99,-175.02"/>
<polygon fill="#63b8ff" stroke="#63b8ff" points="763.5,-250.38 756.6,-258.42 767.01,-256.45 763.5,-250.38"/>
</g>
<!-- Node16 -->
<g id="node16" class="node">
<title>Node16</title>
<g id="a_node16"><a xlink:href="classkv_1_1TypedValue.html" target="_top" xlink:title=" ">
<polygon fill="white" stroke="#666666" points="983,-283 873,-283 873,-253 983,-253 983,-283"/>
<text text-anchor="start" x="881" y="-271" font-family="Helvetica,sans-Serif" font-size="10.00">kv::TypedValue&lt; V,</text>
<text text-anchor="middle" x="928" y="-260" font-family="Helvetica,sans-Serif" font-size="10.00"> VSerialiser, Unit &gt;</text>
</a>
</g>
</g>
<!-- Node15&#45;&gt;Node16 -->
<g id="edge17" class="edge">
<title>Node15&#45;&gt;Node16</title>
<path fill="none" stroke="#63b8ff" d="M789.47,-268C815.17,-268 846.62,-268 872.96,-268"/>
<polygon fill="#63b8ff" stroke="#63b8ff" points="789.2,-264.5 779.2,-268 789.2,-271.5 789.2,-264.5"/>
</g>
<!-- Node16&#45;&gt;Node2 -->
<g id="edge16" class="edge">
<title>Node16&#45;&gt;Node2</title>
<path fill="none" stroke="#9a32cd" stroke-dasharray="5,2" d="M993.26,-265.27C1045.64,-262.33 1115.05,-256.56 1141,-246 1168.51,-234.8 1194.16,-210.18 1206.97,-196.55"/>
<polygon fill="#9a32cd" stroke="#9a32cd" points="992.82,-261.79 983.02,-265.83 993.2,-268.78 992.82,-261.79"/>
<text text-anchor="middle" x="1079" y="-387" font-family="Helvetica,sans-Serif" font-size="10.00"> constitution</text>
<text text-anchor="start" x="1032" y="-376" font-family="Helvetica,sans-Serif" font-size="10.00">encrypted_ledger</text>
<text text-anchor="middle" x="1079" y="-365" font-family="Helvetica,sans-Serif" font-size="10.00">_secrets</text>
<text text-anchor="start" x="1032" y="-354" font-family="Helvetica,sans-Serif" font-size="10.00">modules_quickjs</text>
<text text-anchor="middle" x="1079" y="-343" font-family="Helvetica,sans-Serif" font-size="10.00">_version</text>
<text text-anchor="start" x="1032" y="-332" font-family="Helvetica,sans-Serif" font-size="10.00">previous_service</text>
<text text-anchor="middle" x="1079" y="-321" font-family="Helvetica,sans-Serif" font-size="10.00">_identity</text>
<text text-anchor="middle" x="1079" y="-310" font-family="Helvetica,sans-Serif" font-size="10.00">secrets</text>
<text text-anchor="middle" x="1079" y="-299" font-family="Helvetica,sans-Serif" font-size="10.00">serialise_tree</text>
<text text-anchor="middle" x="1079" y="-288" font-family="Helvetica,sans-Serif" font-size="10.00">service</text>
<text text-anchor="middle" x="1079" y="-277" font-family="Helvetica,sans-Serif" font-size="10.00">signatures</text>
<text text-anchor="middle" x="1079" y="-266" font-family="Helvetica,sans-Serif" font-size="10.00">snapshot_evidence</text>
</g>
<!-- Node17 -->
<g id="node17" class="node">
<title>Node17</title>
<g id="a_node17"><a xlink:title=" ">
<polygon fill="white" stroke="#666666" points="1274,-78 1159,-78 1159,-48 1274,-48 1274,-78"/>
<text text-anchor="start" x="1167" y="-66" font-family="Helvetica,sans-Serif" font-size="10.00">std::unique_ptr&lt; ccf</text>
<text text-anchor="middle" x="1216.5" y="-55" font-family="Helvetica,sans-Serif" font-size="10.00">::NetworkIdentity &gt;</text>
</a>
</g>
</g>
<!-- Node17&#45;&gt;Node1 -->
<g id="edge18" class="edge">
<title>Node17&#45;&gt;Node1</title>
<path fill="none" stroke="#9a32cd" stroke-dasharray="5,2" d="M1284.46,-63C1316.73,-63 1354.81,-63 1384.66,-63"/>
<polygon fill="#9a32cd" stroke="#9a32cd" points="1284.21,-59.5 1274.21,-63 1284.21,-66.5 1284.21,-59.5"/>
<text text-anchor="middle" x="1329.5" y="-66" font-family="Helvetica,sans-Serif" font-size="10.00"> identity</text>
</g>
<!-- Node18 -->
<g id="node18" class="node">
<title>Node18</title>
<g id="a_node18"><a xlink:href="structccf_1_1NetworkIdentity.html" target="_top" xlink:title=" ">
<polygon fill="white" stroke="#666666" points="985.5,-66.5 870.5,-66.5 870.5,-47.5 985.5,-47.5 985.5,-66.5"/>
<text text-anchor="middle" x="928" y="-54.5" font-family="Helvetica,sans-Serif" font-size="10.00">ccf::NetworkIdentity</text>
</a>
</g>
</g>
<!-- Node18&#45;&gt;Node17 -->
<g id="edge19" class="edge">
<title>Node18&#45;&gt;Node17</title>
<path fill="none" stroke="#9a32cd" stroke-dasharray="5,2" d="M995.76,-56.25C1037.51,-56.05 1092.41,-56.26 1141,-58 1146.83,-58.21 1152.91,-58.5 1158.98,-58.84"/>
<polygon fill="#9a32cd" stroke="#9a32cd" points="995.69,-52.75 985.71,-56.31 995.73,-59.75 995.69,-52.75"/>
<text text-anchor="middle" x="1079" y="-61" font-family="Helvetica,sans-Serif" font-size="10.00"> ptr</text>
</g>
<!-- Node19 -->
<g id="node19" class="node">
<title>Node19</title>
<g id="a_node19"><a xlink:href="classcrypto_1_1Pem.html" target="_top" xlink:title=" ">
<polygon fill="white" stroke="#666666" points="776.5,-66.5 701.5,-66.5 701.5,-47.5 776.5,-47.5 776.5,-66.5"/>
<text text-anchor="middle" x="739" y="-54.5" font-family="Helvetica,sans-Serif" font-size="10.00">crypto::Pem</text>
</a>
</g>
</g>
<!-- Node19&#45;&gt;Node18 -->
<g id="edge20" class="edge">
<title>Node19&#45;&gt;Node18</title>
<path fill="none" stroke="#9a32cd" stroke-dasharray="5,2" d="M787.01,-57C812.28,-57 843.62,-57 870.24,-57"/>
<polygon fill="#9a32cd" stroke="#9a32cd" points="786.95,-53.5 776.95,-57 786.95,-60.5 786.95,-53.5"/>
<text text-anchor="middle" x="818" y="-71" font-family="Helvetica,sans-Serif" font-size="10.00"> cert</text>
<text text-anchor="middle" x="818" y="-60" font-family="Helvetica,sans-Serif" font-size="10.00">priv_key</text>
</g>
<!-- Node20 -->
<g id="node20" class="node">
<title>Node20</title>
<g id="a_node20"><a xlink:title=" ">
<polygon fill="white" stroke="#666666" points="1274,-30 1159,-30 1159,0 1274,0 1274,-30"/>
<text text-anchor="start" x="1167" y="-18" font-family="Helvetica,sans-Serif" font-size="10.00">std::shared_ptr&lt; ccf</text>
<text text-anchor="middle" x="1216.5" y="-7" font-family="Helvetica,sans-Serif" font-size="10.00">::LedgerSecrets &gt;</text>
</a>
</g>
</g>
<!-- Node20&#45;&gt;Node1 -->
<g id="edge21" class="edge">
<title>Node20&#45;&gt;Node1</title>
<path fill="none" stroke="#9a32cd" stroke-dasharray="5,2" d="M1284.37,-29.72C1319.43,-37.44 1361.37,-46.68 1392.16,-53.46"/>
<polygon fill="#9a32cd" stroke="#9a32cd" points="1284.73,-26.22 1274.21,-27.49 1283.22,-33.05 1284.73,-26.22"/>
<text text-anchor="middle" x="1329.5" y="-51" font-family="Helvetica,sans-Serif" font-size="10.00"> ledger_secrets</text>
</g>
<!-- Node21 -->
<g id="node21" class="node">
<title>Node21</title>
<g id="a_node21"><a xlink:href="classccf_1_1LedgerSecrets.html" target="_top" xlink:title=" ">
<polygon fill="white" stroke="#666666" points="980.5,-24.5 875.5,-24.5 875.5,-5.5 980.5,-5.5 980.5,-24.5"/>
<text text-anchor="middle" x="928" y="-12.5" font-family="Helvetica,sans-Serif" font-size="10.00">ccf::LedgerSecrets</text>
</a>
</g>
</g>
<!-- Node21&#45;&gt;Node20 -->
<g id="edge22" class="edge">
<title>Node21&#45;&gt;Node20</title>
<path fill="none" stroke="#9a32cd" stroke-dasharray="5,2" d="M990.58,-15C1040.54,-15 1110.41,-15 1158.97,-15"/>
<polygon fill="#9a32cd" stroke="#9a32cd" points="990.55,-11.5 980.55,-15 990.55,-18.5 990.55,-11.5"/>
<text text-anchor="middle" x="1079" y="-18" font-family="Helvetica,sans-Serif" font-size="10.00"> ptr</text>
</g>
</g>
</svg>
        <g id="navigator" transform="translate(0 0)" fill="#404254">
                <rect fill="#f2f5e9" fill-opacity="0.5" stroke="#606060" stroke-width=".5" x="0" y="0" width="60" height="60"/>
                <use id="zoomplus" xlink:href="#zoomPlus" x="17" y="9" onmousedown="handleZoom(evt,'in')"/>
                <use id="zoomminus" xlink:href="#zoomMin" x="42" y="9" onmousedown="handleZoom(evt,'out')"/>
                <use id="reset" xlink:href="#resetDef" x="30" y="36" onmousedown="handleReset()"/>
                <g id="arrowUp" xlink:href="#dirArrow" transform="translate(30 24)" onmousedown="handlePan(0,-1)">
                  <use xlink:href="#rim" fill="#404040">
                        <set attributeName="fill" to="#808080" begin="arrowUp.mouseover" end="arrowUp.mouseout"/>
                  </use>
                  <path fill="none" stroke="white" stroke-width="1.5" d="M0,-3.0v7 M-2.5,-0.5L0,-3.0L2.5,-0.5"/>
                </g>
                <g id="arrowRight" xlink:href="#dirArrow" transform="rotate(90) translate(36 -43)" onmousedown="handlePan(1,0)">
                  <use xlink:href="#rim" fill="#404040">
                        <set attributeName="fill" to="#808080" begin="arrowRight.mouseover" end="arrowRight.mouseout"/>
                  </use>
                  <path fill="none" stroke="white" stroke-width="1.5" d="M0,-3.0v7 M-2.5,-0.5L0,-3.0L2.5,-0.5"/>
                </g>
                <g id="arrowDown" xlink:href="#dirArrow" transform="rotate(180) translate(-30 -48)" onmousedown="handlePan(0,1)">
                  <use xlink:href="#rim" fill="#404040">
                        <set attributeName="fill" to="#808080" begin="arrowDown.mouseover" end="arrowDown.mouseout"/>
                  </use>
                  <path fill="none" stroke="white" stroke-width="1.5" d="M0,-3.0v7 M-2.5,-0.5L0,-3.0L2.5,-0.5"/>
                </g>
                <g id="arrowLeft" xlink:href="#dirArrow" transform="rotate(270) translate(-36 17)" onmousedown="handlePan(-1,0)">
                  <use xlink:href="#rim" fill="#404040">
                        <set attributeName="fill" to="#808080" begin="arrowLeft.mouseover" end="arrowLeft.mouseout"/>
                  </use>
                  <path fill="none" stroke="white" stroke-width="1.5" d="M0,-3.0v7 M-2.5,-0.5L0,-3.0L2.5,-0.5"/>
                </g>
        </g>
        <svg viewBox="0 0 15 15" width="100%" height="30px" preserveAspectRatio="xMaxYMin meet">
         <g id="arrow_out" transform="scale(0.3 0.3)">
          <a xlink:href="structccf_1_1NetworkState__coll__graph_org.svg" target="_base">
           <rect id="button" ry="5" rx="5" y="6" x="6" height="38" width="38"
                fill="#f2f5e9" fill-opacity="0.5" stroke="#606060" stroke-width="1.0"/>
           <path id="arrow"
             d="M 11.500037,31.436501 C 11.940474,20.09759 22.043105,11.32322 32.158766,21.979434 L 37.068811,17.246167 C 37.068811,17.246167 37.088388,32 37.088388,32 L 22.160133,31.978069 C 22.160133,31.978069 26.997745,27.140456 26.997745,27.140456 C 18.528582,18.264221 13.291696,25.230495 11.500037,31.436501 z"
             style="fill:#404040;"/>
          </a>
         </g>
        </svg>
</svg>
