<?xml version="1.0" encoding="UTF-8" standalone="no"?>
<!DOCTYPE svg PUBLIC "-//W3C//DTD SVG 1.1//EN"
 "http://www.w3.org/Graphics/SVG/1.1/DTD/svg11.dtd">
<!-- Generated by graphviz version 2.43.0 (0)
 -->
<!-- Title: src/apps/tpcc/app/tpcc_setup.h Pages: 1 -->
<svg width="1580pt" height="566pt"
 viewBox="0.00 0.00 1579.50 566.00" xmlns="http://www.w3.org/2000/svg" xmlns:xlink="http://www.w3.org/1999/xlink">
<g id="graph0" class="graph" transform="scale(1 1) rotate(0) translate(4 562)">
<title>src/apps/tpcc/app/tpcc_setup.h</title>
<!-- Node1 -->
<g id="node1" class="node">
<title>Node1</title>
<g id="a_node1"><a xlink:title=" ">
<polygon fill="#999999" stroke="#666666" points="1172.5,-558 1047.5,-558 1047.5,-528 1172.5,-528 1172.5,-558"/>
<text text-anchor="start" x="1055.5" y="-546" font-family="Helvetica,sans-Serif" font-size="10.00">src/apps/tpcc/app/tpcc</text>
<text text-anchor="middle" x="1110" y="-535" font-family="Helvetica,sans-Serif" font-size="10.00">_setup.h</text>
</a>
</g>
</g>
<!-- Node2 -->
<g id="node2" class="node">
<title>Node2</title>
<g id="a_node2"><a xlink:href="tpcc__common_8h.html" target="_top" xlink:title=" ">
<polygon fill="white" stroke="#666666" points="493,-437 399,-437 399,-418 493,-418 493,-437"/>
<text text-anchor="middle" x="446" y="-425" font-family="Helvetica,sans-Serif" font-size="10.00">tpcc_common.h</text>
</a>
</g>
</g>
<!-- Node1&#45;&gt;Node2 -->
<g id="edge1" class="edge">
<title>Node1&#45;&gt;Node2</title>
<path fill="none" stroke="#63b8ff" d="M1047.23,-531.27C918.63,-509.29 626.9,-459.42 503.18,-438.27"/>
<polygon fill="#63b8ff" stroke="#63b8ff" points="503.6,-434.8 493.15,-436.56 502.42,-441.69 503.6,-434.8"/>
</g>
<!-- Node4 -->
<g id="node4" class="node">
<title>Node4</title>
<g id="a_node4"><a xlink:href="tpcc__tables_8h.html" target="_top" xlink:title=" ">
<polygon fill="white" stroke="#666666" points="1081.5,-492 1000.5,-492 1000.5,-473 1081.5,-473 1081.5,-492"/>
<text text-anchor="middle" x="1041" y="-480" font-family="Helvetica,sans-Serif" font-size="10.00">tpcc_tables.h</text>
</a>
</g>
</g>
<!-- Node1&#45;&gt;Node4 -->
<g id="edge3" class="edge">
<title>Node1&#45;&gt;Node4</title>
<path fill="none" stroke="#63b8ff" d="M1093.3,-527.84C1082.97,-519.09 1069.72,-507.85 1059.14,-498.88"/>
<polygon fill="#63b8ff" stroke="#63b8ff" points="1061.23,-496.06 1051.34,-492.27 1056.7,-501.4 1061.23,-496.06"/>
</g>
<!-- Node44 -->
<g id="node44" class="node">
<title>Node44</title>
<g id="a_node44"><a xlink:title=" ">
<polygon fill="#e0e0e0" stroke="#999999" points="1433.5,-437 1380.5,-437 1380.5,-418 1433.5,-418 1433.5,-437"/>
<text text-anchor="middle" x="1407" y="-425" font-family="Helvetica,sans-Serif" font-size="10.00">stdint.h</text>
</a>
</g>
</g>
<!-- Node1&#45;&gt;Node44 -->
<g id="edge81" class="edge">
<title>Node1&#45;&gt;Node44</title>
<path fill="none" stroke="#63b8ff" d="M1109.67,-527.78C1110.13,-511.95 1113.49,-486.78 1129,-473 1168.82,-437.62 1313.57,-446.41 1366,-437 1367.29,-436.77 1368.6,-436.53 1369.92,-436.28"/>
<polygon fill="#63b8ff" stroke="#63b8ff" points="1370.99,-439.64 1380.13,-434.28 1369.65,-432.77 1370.99,-439.64"/>
</g>
<!-- Node47 -->
<g id="node47" class="node">
<title>Node47</title>
<g id="a_node47"><a xlink:title=" ">
<polygon fill="#e0e0e0" stroke="#999999" points="1203.5,-492 1138.5,-492 1138.5,-473 1203.5,-473 1203.5,-492"/>
<text text-anchor="middle" x="1171" y="-480" font-family="Helvetica,sans-Serif" font-size="10.00">exception</text>
</a>
</g>
</g>
<!-- Node1&#45;&gt;Node47 -->
<g id="edge79" class="edge">
<title>Node1&#45;&gt;Node47</title>
<path fill="none" stroke="#63b8ff" d="M1124.77,-527.84C1133.71,-519.26 1145.14,-508.3 1154.4,-499.42"/>
<polygon fill="#63b8ff" stroke="#63b8ff" points="1157.06,-501.71 1161.86,-492.27 1152.22,-496.66 1157.06,-501.71"/>
</g>
<!-- Node48 -->
<g id="node48" class="node">
<title>Node48</title>
<g id="a_node48"><a xlink:title=" ">
<polygon fill="#e0e0e0" stroke="#999999" points="1254,-492 1222,-492 1222,-473 1254,-473 1254,-492"/>
<text text-anchor="middle" x="1238" y="-480" font-family="Helvetica,sans-Serif" font-size="10.00">set</text>
</a>
</g>
</g>
<!-- Node1&#45;&gt;Node48 -->
<g id="edge80" class="edge">
<title>Node1&#45;&gt;Node48</title>
<path fill="none" stroke="#63b8ff" d="M1140.66,-527.99C1162.62,-517.95 1191.86,-504.59 1212.54,-495.14"/>
<polygon fill="#63b8ff" stroke="#63b8ff" points="1214.01,-498.31 1221.65,-490.97 1211.1,-491.94 1214.01,-498.31"/>
</g>
<!-- Node3 -->
<g id="node3" class="node">
<title>Node3</title>
<g id="a_node3"><a xlink:title=" ">
<polygon fill="#e0e0e0" stroke="#999999" points="54,-382 0,-382 0,-363 54,-363 54,-382"/>
<text text-anchor="middle" x="27" y="-370" font-family="Helvetica,sans-Serif" font-size="10.00">random</text>
</a>
</g>
</g>
<!-- Node2&#45;&gt;Node3 -->
<g id="edge2" class="edge">
<title>Node2&#45;&gt;Node3</title>
<path fill="none" stroke="#63b8ff" d="M398.97,-422.29C327.3,-415.58 186.55,-401.23 68,-382 66.75,-381.8 65.48,-381.58 64.2,-381.36"/>
<polygon fill="#63b8ff" stroke="#63b8ff" points="64.76,-377.9 54.29,-379.5 63.47,-384.78 64.76,-377.9"/>
</g>
<!-- Node4&#45;&gt;Node2 -->
<g id="edge72" class="edge">
<title>Node4&#45;&gt;Node2</title>
<path fill="none" stroke="#63b8ff" d="M1000.34,-479.09C911.88,-473.66 695.16,-459.22 503.02,-437.04"/>
<polygon fill="#63b8ff" stroke="#63b8ff" points="503.36,-433.56 493.02,-435.88 502.55,-440.51 503.36,-433.56"/>
</g>
<!-- Node5 -->
<g id="node5" class="node">
<title>Node5</title>
<g id="a_node5"><a xlink:href="json_8h.html" target="_top" xlink:title=" ">
<polygon fill="white" stroke="#666666" points="1323.5,-382 1246.5,-382 1246.5,-363 1323.5,-363 1323.5,-382"/>
<text text-anchor="middle" x="1285" y="-370" font-family="Helvetica,sans-Serif" font-size="10.00">ccf/ds/json.h</text>
</a>
</g>
</g>
<!-- Node4&#45;&gt;Node5 -->
<g id="edge4" class="edge">
<title>Node4&#45;&gt;Node5</title>
<path fill="none" stroke="#63b8ff" d="M1081.7,-475.05C1152.59,-463.73 1291.57,-441.08 1295,-437 1305.63,-424.35 1300.62,-405.09 1294.5,-391.1"/>
<polygon fill="#63b8ff" stroke="#63b8ff" points="1297.6,-389.46 1290.06,-382.01 1291.31,-392.53 1297.6,-389.46"/>
</g>
<!-- Node8 -->
<g id="node8" class="node">
<title>Node8</title>
<g id="a_node8"><a xlink:title=" ">
<polygon fill="#e0e0e0" stroke="#999999" points="1053.5,-19 1006.5,-19 1006.5,0 1053.5,0 1053.5,-19"/>
<text text-anchor="middle" x="1030" y="-7" font-family="Helvetica,sans-Serif" font-size="10.00">vector</text>
</a>
</g>
</g>
<!-- Node4&#45;&gt;Node8 -->
<g id="edge78" class="edge">
<title>Node4&#45;&gt;Node8</title>
<path fill="none" stroke="#63b8ff" d="M1043.56,-472.91C1048.75,-454.74 1060,-411 1060,-373.5 1060,-373.5 1060,-373.5 1060,-311 1060,-203.96 1040.92,-76.52 1033.19,-29.3"/>
<polygon fill="#63b8ff" stroke="#63b8ff" points="1036.62,-28.61 1031.53,-19.32 1029.72,-29.76 1036.62,-28.61"/>
</g>
<!-- Node10 -->
<g id="node10" class="node">
<title>Node10</title>
<g id="a_node10"><a xlink:href="nonstd_8h.html" target="_top" xlink:title=" ">
<polygon fill="white" stroke="#666666" points="1321,-255.5 1231,-255.5 1231,-236.5 1321,-236.5 1321,-255.5"/>
<text text-anchor="middle" x="1276" y="-243.5" font-family="Helvetica,sans-Serif" font-size="10.00">ccf/ds/nonstd.h</text>
</a>
</g>
</g>
<!-- Node4&#45;&gt;Node10 -->
<g id="edge22" class="edge">
<title>Node4&#45;&gt;Node10</title>
<path fill="none" stroke="#63b8ff" d="M1081.57,-475.97C1155.22,-465.79 1304.21,-444.41 1313,-437 1361.07,-396.5 1358.94,-354.25 1333,-297 1326.22,-282.04 1312.52,-269.79 1300.25,-261.16"/>
<polygon fill="#63b8ff" stroke="#63b8ff" points="1301.96,-258.1 1291.68,-255.53 1298.12,-263.95 1301.96,-258.1"/>
</g>
<!-- Node18 -->
<g id="node18" class="node">
<title>Node18</title>
<g id="a_node18"><a xlink:title=" ">
<polygon fill="#e0e0e0" stroke="#999999" points="994,-255.5 884,-255.5 884,-236.5 994,-236.5 994,-255.5"/>
<text text-anchor="middle" x="939" y="-243.5" font-family="Helvetica,sans-Serif" font-size="10.00">nlohmann/json.hpp</text>
</a>
</g>
</g>
<!-- Node4&#45;&gt;Node18 -->
<g id="edge74" class="edge">
<title>Node4&#45;&gt;Node18</title>
<path fill="none" stroke="#63b8ff" d="M1033.36,-472.81C1026.08,-464.2 1015.2,-450.39 1008,-437 976.06,-377.59 953.19,-300.29 943.77,-265.45"/>
<polygon fill="#63b8ff" stroke="#63b8ff" points="947.13,-264.48 941.19,-255.71 940.37,-266.27 947.13,-264.48"/>
</g>
<!-- Node20 -->
<g id="node20" class="node">
<title>Node20</title>
<g id="a_node20"><a xlink:href="kv_2map_8h.html" target="_top" xlink:title=" ">
<polygon fill="white" stroke="#666666" points="591,-437 511,-437 511,-418 591,-418 591,-437"/>
<text text-anchor="middle" x="551" y="-425" font-family="Helvetica,sans-Serif" font-size="10.00">ccf/kv/map.h</text>
</a>
</g>
</g>
<!-- Node4&#45;&gt;Node20 -->
<g id="edge23" class="edge">
<title>Node4&#45;&gt;Node20</title>
<path fill="none" stroke="#63b8ff" d="M1000.48,-477.12C911.44,-467.49 698.88,-444.5 601.4,-433.95"/>
<polygon fill="#63b8ff" stroke="#63b8ff" points="601.54,-430.45 591.22,-432.85 600.79,-437.41 601.54,-430.45"/>
</g>
<!-- Node29 -->
<g id="node29" class="node">
<title>Node29</title>
<g id="a_node29"><a xlink:href="serialised__entry_8h.html" target="_top" xlink:title=" ">
<polygon fill="white" stroke="#666666" points="711.5,-195 606.5,-195 606.5,-165 711.5,-165 711.5,-195"/>
<text text-anchor="start" x="614.5" y="-183" font-family="Helvetica,sans-Serif" font-size="10.00">ccf/kv/serialisers</text>
<text text-anchor="middle" x="659" y="-172" font-family="Helvetica,sans-Serif" font-size="10.00">/serialised_entry.h</text>
</a>
</g>
</g>
<!-- Node4&#45;&gt;Node29 -->
<g id="edge65" class="edge">
<title>Node4&#45;&gt;Node29</title>
<path fill="none" stroke="#63b8ff" d="M1019.72,-473C971.32,-452.93 850.8,-398.87 769,-327 727.08,-290.17 690.86,-235.07 672.28,-204.16"/>
<polygon fill="#63b8ff" stroke="#63b8ff" points="675.2,-202.22 667.09,-195.39 669.17,-205.78 675.2,-202.22"/>
</g>
<!-- Node41 -->
<g id="node41" class="node">
<title>Node41</title>
<g id="a_node41"><a xlink:href="serialized_8h.html" target="_top" xlink:title=" ">
<polygon fill="white" stroke="#666666" points="865.5,-255.5 778.5,-255.5 778.5,-236.5 865.5,-236.5 865.5,-255.5"/>
<text text-anchor="middle" x="822" y="-243.5" font-family="Helvetica,sans-Serif" font-size="10.00">ds/serialized.h</text>
</a>
</g>
</g>
<!-- Node4&#45;&gt;Node41 -->
<g id="edge66" class="edge">
<title>Node4&#45;&gt;Node41</title>
<path fill="none" stroke="#63b8ff" d="M1031.1,-472.67C1021.5,-463.95 1006.73,-450.06 995,-437 942.31,-378.33 941.71,-352.81 886,-297 872.89,-283.87 856.34,-271.02 843.36,-261.64"/>
<polygon fill="#63b8ff" stroke="#63b8ff" points="845.21,-258.66 835.02,-255.73 841.16,-264.37 845.21,-258.66"/>
</g>
<!-- Node42 -->
<g id="node42" class="node">
<title>Node42</title>
<g id="a_node42"><a xlink:title=" ">
<polygon fill="#e0e0e0" stroke="#999999" points="1002,-189.5 952,-189.5 952,-170.5 1002,-170.5 1002,-189.5"/>
<text text-anchor="middle" x="977" y="-177.5" font-family="Helvetica,sans-Serif" font-size="10.00">cstring</text>
</a>
</g>
</g>
<!-- Node4&#45;&gt;Node42 -->
<g id="edge73" class="edge">
<title>Node4&#45;&gt;Node42</title>
<path fill="none" stroke="#63b8ff" d="M1038.44,-472.91C1033.25,-454.74 1022,-411 1022,-373.5 1022,-373.5 1022,-373.5 1022,-311 1022,-274.46 1015.75,-265.25 1003,-231 998.79,-219.7 992.62,-207.7 987.34,-198.29"/>
<polygon fill="#63b8ff" stroke="#63b8ff" points="990.32,-196.45 982.28,-189.55 984.26,-199.96 990.32,-196.45"/>
</g>
<!-- Node4&#45;&gt;Node44 -->
<g id="edge75" class="edge">
<title>Node4&#45;&gt;Node44</title>
<path fill="none" stroke="#63b8ff" d="M1081.53,-475.14C1086.41,-474.4 1091.31,-473.67 1096,-473 1215.83,-455.75 1246.65,-457.3 1366,-437 1367.29,-436.78 1368.6,-436.55 1369.92,-436.31"/>
<polygon fill="#63b8ff" stroke="#63b8ff" points="1370.98,-439.67 1380.15,-434.36 1369.67,-432.8 1370.98,-439.67"/>
</g>
<!-- Node45 -->
<g id="node45" class="node">
<title>Node45</title>
<g id="a_node45"><a xlink:title=" ">
<polygon fill="#e0e0e0" stroke="#999999" points="1181.5,-437 1088.5,-437 1088.5,-418 1181.5,-418 1181.5,-437"/>
<text text-anchor="middle" x="1135" y="-425" font-family="Helvetica,sans-Serif" font-size="10.00">unordered_map</text>
</a>
</g>
</g>
<!-- Node4&#45;&gt;Node45 -->
<g id="edge76" class="edge">
<title>Node4&#45;&gt;Node45</title>
<path fill="none" stroke="#63b8ff" d="M1056.1,-472.98C1070.82,-464.69 1093.42,-451.94 1110.67,-442.22"/>
<polygon fill="#63b8ff" stroke="#63b8ff" points="1112.63,-445.13 1119.62,-437.17 1109.19,-439.03 1112.63,-445.13"/>
</g>
<!-- Node46 -->
<g id="node46" class="node">
<title>Node46</title>
<g id="a_node46"><a xlink:title=" ">
<polygon fill="#e0e0e0" stroke="#999999" points="1286,-437 1200,-437 1200,-418 1286,-418 1286,-437"/>
<text text-anchor="middle" x="1243" y="-425" font-family="Helvetica,sans-Serif" font-size="10.00">unordered_set</text>
</a>
</g>
</g>
<!-- Node4&#45;&gt;Node46 -->
<g id="edge77" class="edge">
<title>Node4&#45;&gt;Node46</title>
<path fill="none" stroke="#63b8ff" d="M1073.45,-472.98C1107.96,-463.93 1162.66,-449.58 1200.56,-439.64"/>
<polygon fill="#63b8ff" stroke="#63b8ff" points="1201.51,-443.01 1210.29,-437.08 1199.73,-436.23 1201.51,-443.01"/>
</g>
<!-- Node6 -->
<g id="node6" class="node">
<title>Node6</title>
<g id="a_node6"><a xlink:href="include_2ccf_2crypto_2base64_8h.html" target="_top" xlink:title=" ">
<polygon fill="white" stroke="#666666" points="1200,-255.5 1088,-255.5 1088,-236.5 1200,-236.5 1200,-255.5"/>
<text text-anchor="middle" x="1144" y="-243.5" font-family="Helvetica,sans-Serif" font-size="10.00">ccf/crypto/base64.h</text>
</a>
</g>
</g>
<!-- Node5&#45;&gt;Node6 -->
<g id="edge5" class="edge">
<title>Node5&#45;&gt;Node6</title>
<path fill="none" stroke="#63b8ff" d="M1246.22,-366.56C1202.17,-360.07 1134.39,-347.06 1119,-327 1104.59,-308.22 1118.58,-281.01 1130.7,-263.66"/>
<polygon fill="#63b8ff" stroke="#63b8ff" points="1133.55,-265.7 1136.71,-255.59 1127.93,-261.52 1133.55,-265.7"/>
</g>
<!-- Node9 -->
<g id="node9" class="node">
<title>Node9</title>
<g id="a_node9"><a xlink:href="include_2ccf_2ds_2json__schema_8h.html" target="_top" xlink:title=" ">
<polygon fill="white" stroke="#666666" points="1249.5,-321.5 1128.5,-321.5 1128.5,-302.5 1249.5,-302.5 1249.5,-321.5"/>
<text text-anchor="middle" x="1189" y="-309.5" font-family="Helvetica,sans-Serif" font-size="10.00">ccf/ds/json_schema.h</text>
</a>
</g>
</g>
<!-- Node5&#45;&gt;Node9 -->
<g id="edge8" class="edge">
<title>Node5&#45;&gt;Node9</title>
<path fill="none" stroke="#63b8ff" d="M1270.83,-362.87C1255.31,-353.41 1230.17,-338.09 1211.85,-326.92"/>
<polygon fill="#63b8ff" stroke="#63b8ff" points="1213.58,-323.88 1203.22,-321.67 1209.94,-329.86 1213.58,-323.88"/>
</g>
<!-- Node17 -->
<g id="node17" class="node">
<title>Node17</title>
<g id="a_node17"><a xlink:title=" ">
<polygon fill="#e0e0e0" stroke="#999999" points="1571.5,-74 1492.5,-74 1492.5,-55 1571.5,-55 1571.5,-74"/>
<text text-anchor="middle" x="1532" y="-62" font-family="Helvetica,sans-Serif" font-size="10.00">fmt/format.h</text>
</a>
</g>
</g>
<!-- Node5&#45;&gt;Node17 -->
<g id="edge20" class="edge">
<title>Node5&#45;&gt;Node17</title>
<path fill="none" stroke="#63b8ff" d="M1323.73,-371.65C1401.66,-369.71 1570,-353.23 1570,-247 1570,-247 1570,-247 1570,-179 1570,-143.48 1553.06,-104.79 1541.8,-83"/>
<polygon fill="#63b8ff" stroke="#63b8ff" points="1544.78,-81.16 1536.97,-74 1538.61,-84.47 1544.78,-81.16"/>
</g>
<!-- Node19 -->
<g id="node19" class="node">
<title>Node19</title>
<g id="a_node19"><a xlink:title=" ">
<polygon fill="#e0e0e0" stroke="#999999" points="1324,-321.5 1268,-321.5 1268,-302.5 1324,-302.5 1324,-321.5"/>
<text text-anchor="middle" x="1296" y="-309.5" font-family="Helvetica,sans-Serif" font-size="10.00">sstream</text>
</a>
</g>
</g>
<!-- Node5&#45;&gt;Node19 -->
<g id="edge21" class="edge">
<title>Node5&#45;&gt;Node19</title>
<path fill="none" stroke="#63b8ff" d="M1286.62,-362.87C1288.17,-354.66 1290.54,-342.04 1292.51,-331.55"/>
<polygon fill="#63b8ff" stroke="#63b8ff" points="1295.96,-332.14 1294.37,-321.67 1289.08,-330.85 1295.96,-332.14"/>
</g>
<!-- Node7 -->
<g id="node7" class="node">
<title>Node7</title>
<g id="a_node7"><a xlink:title=" ">
<polygon fill="#e0e0e0" stroke="#999999" points="774,-189.5 730,-189.5 730,-170.5 774,-170.5 774,-189.5"/>
<text text-anchor="middle" x="752" y="-177.5" font-family="Helvetica,sans-Serif" font-size="10.00">string</text>
</a>
</g>
</g>
<!-- Node6&#45;&gt;Node7 -->
<g id="edge6" class="edge">
<title>Node6&#45;&gt;Node7</title>
<path fill="none" stroke="#63b8ff" d="M1091.54,-236.44C1009.16,-222.99 851.89,-197.31 784.24,-186.26"/>
<polygon fill="#63b8ff" stroke="#63b8ff" points="784.61,-182.78 774.18,-184.62 783.49,-189.69 784.61,-182.78"/>
</g>
<!-- Node6&#45;&gt;Node8 -->
<g id="edge7" class="edge">
<title>Node6&#45;&gt;Node8</title>
<path fill="none" stroke="#63b8ff" d="M1130.3,-236.3C1117.36,-227.41 1098.3,-212.46 1087,-195 1051.64,-140.35 1063.32,-117.16 1044,-55 1041.32,-46.39 1038.32,-36.84 1035.79,-28.81"/>
<polygon fill="#63b8ff" stroke="#63b8ff" points="1039.05,-27.51 1032.7,-19.03 1032.38,-29.62 1039.05,-27.51"/>
</g>
<!-- Node9&#45;&gt;Node10 -->
<g id="edge9" class="edge">
<title>Node9&#45;&gt;Node10</title>
<path fill="none" stroke="#63b8ff" d="M1200.73,-302.37C1214.87,-291.97 1238.86,-274.32 1255.95,-261.75"/>
<polygon fill="#63b8ff" stroke="#63b8ff" points="1258.19,-264.44 1264.17,-255.7 1254.05,-258.81 1258.19,-264.44"/>
</g>
<!-- Node16 -->
<g id="node16" class="node">
<title>Node16</title>
<g id="a_node16"><a xlink:title=" ">
<polygon fill="#e0e0e0" stroke="#999999" points="320,-189.5 264,-189.5 264,-170.5 320,-170.5 320,-189.5"/>
<text text-anchor="middle" x="292" y="-177.5" font-family="Helvetica,sans-Serif" font-size="10.00">optional</text>
</a>
</g>
</g>
<!-- Node9&#45;&gt;Node16 -->
<g id="edge17" class="edge">
<title>Node9&#45;&gt;Node16</title>
<path fill="none" stroke="#63b8ff" d="M1128.46,-308.02C950.75,-299.16 440.9,-272.83 407,-261 367.27,-247.13 328.71,-215.46 307.89,-196.39"/>
<polygon fill="#63b8ff" stroke="#63b8ff" points="310.26,-193.82 300.57,-189.53 305.48,-198.93 310.26,-193.82"/>
</g>
<!-- Node9&#45;&gt;Node17 -->
<g id="edge18" class="edge">
<title>Node9&#45;&gt;Node17</title>
<path fill="none" stroke="#63b8ff" d="M1227.35,-302.48C1304.84,-284.47 1475.85,-240.45 1513,-195 1538.92,-163.29 1537.76,-112.03 1534.8,-84.47"/>
<polygon fill="#63b8ff" stroke="#63b8ff" points="1538.23,-83.72 1533.5,-74.24 1531.29,-84.6 1538.23,-83.72"/>
</g>
<!-- Node9&#45;&gt;Node18 -->
<g id="edge19" class="edge">
<title>Node9&#45;&gt;Node18</title>
<path fill="none" stroke="#63b8ff" d="M1155.54,-302.44C1110.73,-290.96 1031.17,-270.6 981.97,-258"/>
<polygon fill="#63b8ff" stroke="#63b8ff" points="982.81,-254.6 972.26,-255.51 981.08,-261.38 982.81,-254.6"/>
</g>
<!-- Node10&#45;&gt;Node7 -->
<g id="edge13" class="edge">
<title>Node10&#45;&gt;Node7</title>
<path fill="none" stroke="#63b8ff" d="M1238.56,-236.46C1228.96,-234.47 1218.63,-232.5 1209,-231 1054.48,-206.98 1014.32,-213.15 859,-195 833.85,-192.06 805.43,-188.32 784.2,-185.45"/>
<polygon fill="#63b8ff" stroke="#63b8ff" points="784.49,-181.96 774.11,-184.07 783.55,-188.89 784.49,-181.96"/>
</g>
<!-- Node10&#45;&gt;Node8 -->
<g id="edge16" class="edge">
<title>Node10&#45;&gt;Node8</title>
<path fill="none" stroke="#63b8ff" d="M1291.42,-236.4C1304.96,-227.88 1323.74,-213.44 1332,-195 1337.45,-182.83 1338.96,-176.37 1332,-165 1272.32,-67.44 1129.41,-28.99 1063.88,-16.11"/>
<polygon fill="#63b8ff" stroke="#63b8ff" points="1064.16,-12.6 1053.68,-14.19 1062.86,-19.48 1064.16,-12.6"/>
</g>
<!-- Node11 -->
<g id="node11" class="node">
<title>Node11</title>
<g id="a_node11"><a xlink:title=" ">
<polygon fill="#e0e0e0" stroke="#999999" points="1444,-189.5 1380,-189.5 1380,-170.5 1444,-170.5 1444,-189.5"/>
<text text-anchor="middle" x="1412" y="-177.5" font-family="Helvetica,sans-Serif" font-size="10.00">algorithm</text>
</a>
</g>
</g>
<!-- Node10&#45;&gt;Node11 -->
<g id="edge10" class="edge">
<title>Node10&#45;&gt;Node11</title>
<path fill="none" stroke="#63b8ff" d="M1294.34,-236.37C1317.46,-225.49 1357.41,-206.69 1384.27,-194.05"/>
<polygon fill="#63b8ff" stroke="#63b8ff" points="1385.96,-197.12 1393.51,-189.7 1382.98,-190.79 1385.96,-197.12"/>
</g>
<!-- Node12 -->
<g id="node12" class="node">
<title>Node12</title>
<g id="a_node12"><a xlink:title=" ">
<polygon fill="#e0e0e0" stroke="#999999" points="1504,-189.5 1462,-189.5 1462,-170.5 1504,-170.5 1504,-189.5"/>
<text text-anchor="middle" x="1483" y="-177.5" font-family="Helvetica,sans-Serif" font-size="10.00">array</text>
</a>
</g>
</g>
<!-- Node10&#45;&gt;Node12 -->
<g id="edge11" class="edge">
<title>Node10&#45;&gt;Node12</title>
<path fill="none" stroke="#63b8ff" d="M1312.82,-236.44C1349.01,-227.6 1405.56,-212.64 1453,-195 1454.05,-194.61 1455.12,-194.2 1456.19,-193.77"/>
<polygon fill="#63b8ff" stroke="#63b8ff" points="1457.97,-196.81 1465.75,-189.63 1455.19,-190.39 1457.97,-196.81"/>
</g>
<!-- Node13 -->
<g id="node13" class="node">
<title>Node13</title>
<g id="a_node13"><a xlink:title=" ">
<polygon fill="#e0e0e0" stroke="#999999" points="1145.5,-189.5 1096.5,-189.5 1096.5,-170.5 1145.5,-170.5 1145.5,-189.5"/>
<text text-anchor="middle" x="1121" y="-177.5" font-family="Helvetica,sans-Serif" font-size="10.00">cctype</text>
</a>
</g>
</g>
<!-- Node10&#45;&gt;Node13 -->
<g id="edge12" class="edge">
<title>Node10&#45;&gt;Node13</title>
<path fill="none" stroke="#63b8ff" d="M1254.81,-236.41C1230.45,-226.51 1189.28,-209.71 1154,-195 1152.84,-194.51 1151.65,-194.02 1150.45,-193.52"/>
<polygon fill="#63b8ff" stroke="#63b8ff" points="1151.8,-190.29 1141.23,-189.63 1149.08,-196.74 1151.8,-190.29"/>
</g>
<!-- Node14 -->
<g id="node14" class="node">
<title>Node14</title>
<g id="a_node14"><a xlink:title=" ">
<polygon fill="#e0e0e0" stroke="#999999" points="1236.5,-189.5 1163.5,-189.5 1163.5,-170.5 1236.5,-170.5 1236.5,-189.5"/>
<text text-anchor="middle" x="1200" y="-177.5" font-family="Helvetica,sans-Serif" font-size="10.00">string_view</text>
</a>
</g>
</g>
<!-- Node10&#45;&gt;Node14 -->
<g id="edge14" class="edge">
<title>Node10&#45;&gt;Node14</title>
<path fill="none" stroke="#63b8ff" d="M1265.75,-236.37C1253.69,-226.21 1233.44,-209.16 1218.59,-196.65"/>
<polygon fill="#63b8ff" stroke="#63b8ff" points="1220.48,-193.67 1210.57,-189.91 1215.97,-199.02 1220.48,-193.67"/>
</g>
<!-- Node15 -->
<g id="node15" class="node">
<title>Node15</title>
<g id="a_node15"><a xlink:title=" ">
<polygon fill="#e0e0e0" stroke="#999999" points="1323.5,-189.5 1254.5,-189.5 1254.5,-170.5 1323.5,-170.5 1323.5,-189.5"/>
<text text-anchor="middle" x="1289" y="-177.5" font-family="Helvetica,sans-Serif" font-size="10.00">type_traits</text>
</a>
</g>
</g>
<!-- Node10&#45;&gt;Node15 -->
<g id="edge15" class="edge">
<title>Node10&#45;&gt;Node15</title>
<path fill="none" stroke="#63b8ff" d="M1277.75,-236.37C1279.64,-227.07 1282.71,-211.98 1285.16,-199.9"/>
<polygon fill="#63b8ff" stroke="#63b8ff" points="1288.63,-200.4 1287.19,-189.91 1281.77,-199.01 1288.63,-200.4"/>
</g>
<!-- Node21 -->
<g id="node21" class="node">
<title>Node21</title>
<g id="a_node21"><a xlink:href="get__name_8h.html" target="_top" xlink:title=" ">
<polygon fill="white" stroke="#666666" points="686.5,-382 579.5,-382 579.5,-363 686.5,-363 686.5,-382"/>
<text text-anchor="middle" x="633" y="-370" font-family="Helvetica,sans-Serif" font-size="10.00">ccf/kv/get_name.h</text>
</a>
</g>
</g>
<!-- Node20&#45;&gt;Node21 -->
<g id="edge24" class="edge">
<title>Node20&#45;&gt;Node21</title>
<path fill="none" stroke="#63b8ff" d="M564.17,-417.98C576.77,-409.84 596,-397.41 610.94,-387.76"/>
<polygon fill="#63b8ff" stroke="#63b8ff" points="613.09,-390.54 619.59,-382.17 609.29,-384.66 613.09,-390.54"/>
</g>
<!-- Node22 -->
<g id="node22" class="node">
<title>Node22</title>
<g id="a_node22"><a xlink:href="include_2ccf_2kv_2hooks_8h.html" target="_top" xlink:title=" ">
<polygon fill="white" stroke="#666666" points="151.5,-189.5 64.5,-189.5 64.5,-170.5 151.5,-170.5 151.5,-189.5"/>
<text text-anchor="middle" x="108" y="-177.5" font-family="Helvetica,sans-Serif" font-size="10.00">ccf/kv/hooks.h</text>
</a>
</g>
</g>
<!-- Node20&#45;&gt;Node22 -->
<g id="edge26" class="edge">
<title>Node20&#45;&gt;Node22</title>
<path fill="none" stroke="#63b8ff" d="M510.91,-419.41C507.9,-418.92 504.9,-418.44 502,-418 382.34,-399.65 341.58,-433.47 232,-382 160.26,-348.3 132.78,-333.61 101,-261 92.38,-241.3 96.69,-216.3 101.47,-199.54"/>
<polygon fill="#63b8ff" stroke="#63b8ff" points="104.86,-200.44 104.56,-189.85 98.19,-198.32 104.86,-200.44"/>
</g>
<!-- Node26 -->
<g id="node26" class="node">
<title>Node26</title>
<g id="a_node26"><a xlink:href="map__diff_8h.html" target="_top" xlink:title=" ">
<polygon fill="white" stroke="#666666" points="369.5,-382 268.5,-382 268.5,-363 369.5,-363 369.5,-382"/>
<text text-anchor="middle" x="319" y="-370" font-family="Helvetica,sans-Serif" font-size="10.00">ccf/kv/map_diff.h</text>
</a>
</g>
</g>
<!-- Node20&#45;&gt;Node26 -->
<g id="edge30" class="edge">
<title>Node20&#45;&gt;Node26</title>
<path fill="none" stroke="#63b8ff" d="M513.73,-417.98C473.68,-408.84 409.93,-394.27 366.36,-384.32"/>
<polygon fill="#63b8ff" stroke="#63b8ff" points="367.1,-380.9 356.57,-382.08 365.54,-387.72 367.1,-380.9"/>
</g>
<!-- Node35 -->
<g id="node35" class="node">
<title>Node35</title>
<g id="a_node35"><a xlink:href="untyped_8h.html" target="_top" xlink:title=" ">
<polygon fill="white" stroke="#666666" points="208,-255.5 110,-255.5 110,-236.5 208,-236.5 208,-255.5"/>
<text text-anchor="middle" x="159" y="-243.5" font-family="Helvetica,sans-Serif" font-size="10.00">ccf/kv/untyped.h</text>
</a>
</g>
</g>
<!-- Node20&#45;&gt;Node35 -->
<g id="edge64" class="edge">
<title>Node20&#45;&gt;Node35</title>
<path fill="none" stroke="#63b8ff" d="M510.9,-419.46C507.89,-418.96 504.9,-418.47 502,-418 394.21,-400.67 352.63,-438.15 259,-382 212.23,-353.96 180.44,-294.87 166.69,-265.04"/>
<polygon fill="#63b8ff" stroke="#63b8ff" points="169.85,-263.53 162.59,-255.81 163.45,-266.37 169.85,-263.53"/>
</g>
<!-- Node37 -->
<g id="node37" class="node">
<title>Node37</title>
<g id="a_node37"><a xlink:href="map__handle_8h.html" target="_top" xlink:title=" ">
<polygon fill="white" stroke="#666666" points="523,-382 405,-382 405,-363 523,-363 523,-382"/>
<text text-anchor="middle" x="464" y="-370" font-family="Helvetica,sans-Serif" font-size="10.00">ccf/kv/map_handle.h</text>
</a>
</g>
</g>
<!-- Node20&#45;&gt;Node37 -->
<g id="edge50" class="edge">
<title>Node20&#45;&gt;Node37</title>
<path fill="none" stroke="#63b8ff" d="M537.02,-417.98C523.53,-409.77 502.87,-397.18 486.96,-387.49"/>
<polygon fill="#63b8ff" stroke="#63b8ff" points="488.59,-384.38 478.23,-382.17 484.95,-390.36 488.59,-384.38"/>
</g>
<!-- Node39 -->
<g id="node39" class="node">
<title>Node39</title>
<g id="a_node39"><a xlink:href="blit__serialiser_8h.html" target="_top" xlink:title=" ">
<polygon fill="white" stroke="#666666" points="877.5,-327 778.5,-327 778.5,-297 877.5,-297 877.5,-327"/>
<text text-anchor="start" x="786.5" y="-315" font-family="Helvetica,sans-Serif" font-size="10.00">ccf/kv/serialisers</text>
<text text-anchor="middle" x="828" y="-304" font-family="Helvetica,sans-Serif" font-size="10.00">/blit_serialiser.h</text>
</a>
</g>
</g>
<!-- Node20&#45;&gt;Node39 -->
<g id="edge58" class="edge">
<title>Node20&#45;&gt;Node39</title>
<path fill="none" stroke="#63b8ff" d="M584.48,-417.98C614.05,-410.03 658.08,-397.14 695,-382 730.31,-367.52 768.83,-346.98 795.28,-332.07"/>
<polygon fill="#63b8ff" stroke="#63b8ff" points="797.14,-335.04 804.11,-327.06 793.68,-328.96 797.14,-335.04"/>
</g>
<!-- Node40 -->
<g id="node40" class="node">
<title>Node40</title>
<g id="a_node40"><a xlink:href="json__serialiser_8h.html" target="_top" xlink:title=" ">
<polygon fill="white" stroke="#666666" points="647.5,-327 548.5,-327 548.5,-297 647.5,-297 647.5,-327"/>
<text text-anchor="start" x="556.5" y="-315" font-family="Helvetica,sans-Serif" font-size="10.00">ccf/kv/serialisers</text>
<text text-anchor="middle" x="598" y="-304" font-family="Helvetica,sans-Serif" font-size="10.00">/json_serialiser.h</text>
</a>
</g>
</g>
<!-- Node20&#45;&gt;Node40 -->
<g id="edge61" class="edge">
<title>Node20&#45;&gt;Node40</title>
<path fill="none" stroke="#63b8ff" d="M552.99,-417.66C555.95,-405.19 562.01,-381.86 570,-363 573.89,-353.81 579.03,-344.15 583.84,-335.8"/>
<polygon fill="#63b8ff" stroke="#63b8ff" points="586.96,-337.4 589.05,-327.02 580.94,-333.83 586.96,-337.4"/>
</g>
<!-- Node21&#45;&gt;Node7 -->
<g id="edge25" class="edge">
<title>Node21&#45;&gt;Node7</title>
<path fill="none" stroke="#63b8ff" d="M638.42,-362.82C656.7,-333.56 716.28,-238.19 741.04,-198.54"/>
<polygon fill="#63b8ff" stroke="#63b8ff" points="744.22,-200.07 746.55,-189.73 738.28,-196.36 744.22,-200.07"/>
</g>
<!-- Node23 -->
<g id="node23" class="node">
<title>Node23</title>
<g id="a_node23"><a xlink:href="kv_2version_8h.html" target="_top" xlink:title=" ">
<polygon fill="white" stroke="#666666" points="395,-129 301,-129 301,-110 395,-110 395,-129"/>
<text text-anchor="middle" x="348" y="-117" font-family="Helvetica,sans-Serif" font-size="10.00">ccf/kv/version.h</text>
</a>
</g>
</g>
<!-- Node22&#45;&gt;Node23 -->
<g id="edge27" class="edge">
<title>Node22&#45;&gt;Node23</title>
<path fill="none" stroke="#63b8ff" d="M139.92,-170.43C146.86,-168.61 154.17,-166.71 161,-165 208.49,-153.08 262.96,-140.21 300.82,-131.39"/>
<polygon fill="#63b8ff" stroke="#63b8ff" points="302.09,-134.69 311.03,-129.01 300.5,-127.87 302.09,-134.69"/>
</g>
<!-- Node24 -->
<g id="node24" class="node">
<title>Node24</title>
<g id="a_node24"><a xlink:title=" ">
<polygon fill="#e0e0e0" stroke="#999999" points="268.5,-129 203.5,-129 203.5,-110 268.5,-110 268.5,-129"/>
<text text-anchor="middle" x="236" y="-117" font-family="Helvetica,sans-Serif" font-size="10.00">functional</text>
</a>
</g>
</g>
<!-- Node22&#45;&gt;Node24 -->
<g id="edge28" class="edge">
<title>Node22&#45;&gt;Node24</title>
<path fill="none" stroke="#63b8ff" d="M126.61,-170.49C148.04,-160.7 183.44,-144.52 208.15,-133.23"/>
<polygon fill="#63b8ff" stroke="#63b8ff" points="209.72,-136.36 217.37,-129.02 206.82,-129.99 209.72,-136.36"/>
</g>
<!-- Node25 -->
<g id="node25" class="node">
<title>Node25</title>
<g id="a_node25"><a xlink:title=" ">
<polygon fill="#e0e0e0" stroke="#999999" points="137,-129 79,-129 79,-110 137,-110 137,-129"/>
<text text-anchor="middle" x="108" y="-117" font-family="Helvetica,sans-Serif" font-size="10.00">memory</text>
</a>
</g>
</g>
<!-- Node22&#45;&gt;Node25 -->
<g id="edge29" class="edge">
<title>Node22&#45;&gt;Node25</title>
<path fill="none" stroke="#63b8ff" d="M108,-170.37C108,-162.25 108,-149.81 108,-139.39"/>
<polygon fill="#63b8ff" stroke="#63b8ff" points="111.5,-139.17 108,-129.17 104.5,-139.17 111.5,-139.17"/>
</g>
<!-- Node27 -->
<g id="node27" class="node">
<title>Node27</title>
<g id="a_node27"><a xlink:href="untyped__map__diff_8h.html" target="_top" xlink:title=" ">
<polygon fill="white" stroke="#666666" points="374,-327 258,-327 258,-297 374,-297 374,-327"/>
<text text-anchor="start" x="266" y="-315" font-family="Helvetica,sans-Serif" font-size="10.00">ccf/kv/untyped_map</text>
<text text-anchor="middle" x="316" y="-304" font-family="Helvetica,sans-Serif" font-size="10.00">_diff.h</text>
</a>
</g>
</g>
<!-- Node26&#45;&gt;Node27 -->
<g id="edge31" class="edge">
<title>Node26&#45;&gt;Node27</title>
<path fill="none" stroke="#63b8ff" d="M318.56,-362.87C318.21,-356.11 317.71,-346.35 317.24,-337.26"/>
<polygon fill="#63b8ff" stroke="#63b8ff" points="320.73,-336.92 316.72,-327.11 313.74,-337.28 320.73,-336.92"/>
</g>
<!-- Node27&#45;&gt;Node7 -->
<g id="edge49" class="edge">
<title>Node27&#45;&gt;Node7</title>
<path fill="none" stroke="#63b8ff" d="M374.16,-304.3C428.56,-297.04 511.6,-283.39 581,-261 635.56,-243.4 695.39,-212.51 727.82,-194.7"/>
<polygon fill="#63b8ff" stroke="#63b8ff" points="729.92,-197.53 736.97,-189.62 726.52,-191.41 729.92,-197.53"/>
</g>
<!-- Node27&#45;&gt;Node16 -->
<g id="edge48" class="edge">
<title>Node27&#45;&gt;Node16</title>
<path fill="none" stroke="#63b8ff" d="M309.75,-296.86C305.68,-287.01 300.66,-273.45 298,-261 293.6,-240.39 292.31,-216.2 291.98,-199.86"/>
<polygon fill="#63b8ff" stroke="#63b8ff" points="295.48,-199.48 291.89,-189.51 288.48,-199.55 295.48,-199.48"/>
</g>
<!-- Node27&#45;&gt;Node23 -->
<g id="edge46" class="edge">
<title>Node27&#45;&gt;Node23</title>
<path fill="none" stroke="#63b8ff" d="M318.35,-296.99C324,-263.35 338.35,-177.97 344.79,-139.64"/>
<polygon fill="#63b8ff" stroke="#63b8ff" points="348.31,-139.8 346.51,-129.36 341.4,-138.64 348.31,-139.8"/>
</g>
<!-- Node27&#45;&gt;Node24 -->
<g id="edge47" class="edge">
<title>Node27&#45;&gt;Node24</title>
<path fill="none" stroke="#63b8ff" d="M307.17,-296.86C294.15,-275.51 269.77,-233.44 255,-195 247.98,-176.73 242.77,-154.95 239.6,-139.67"/>
<polygon fill="#63b8ff" stroke="#63b8ff" points="242.94,-138.56 237.57,-129.42 236.08,-139.91 242.94,-138.56"/>
</g>
<!-- Node28 -->
<g id="node28" class="node">
<title>Node28</title>
<g id="a_node28"><a xlink:href="abstract__handle_8h.html" target="_top" xlink:title=" ">
<polygon fill="white" stroke="#666666" points="512,-189.5 376,-189.5 376,-170.5 512,-170.5 512,-189.5"/>
<text text-anchor="middle" x="444" y="-177.5" font-family="Helvetica,sans-Serif" font-size="10.00">ccf/kv/abstract_handle.h</text>
</a>
</g>
</g>
<!-- Node27&#45;&gt;Node28 -->
<g id="edge32" class="edge">
<title>Node27&#45;&gt;Node28</title>
<path fill="none" stroke="#63b8ff" d="M329.94,-296.84C353.91,-272.49 402.79,-222.85 428.07,-197.18"/>
<polygon fill="#63b8ff" stroke="#63b8ff" points="430.86,-199.33 435.39,-189.75 425.88,-194.42 430.86,-199.33"/>
</g>
<!-- Node27&#45;&gt;Node29 -->
<g id="edge33" class="edge">
<title>Node27&#45;&gt;Node29</title>
<path fill="none" stroke="#63b8ff" d="M374.26,-304.2C420.82,-297.33 486.99,-284.3 541,-261 576.22,-245.81 612.04,-219.69 634.83,-201.45"/>
<polygon fill="#63b8ff" stroke="#63b8ff" points="637.06,-204.14 642.61,-195.12 632.64,-198.71 637.06,-204.14"/>
</g>
<!-- Node27&#45;&gt;Node35 -->
<g id="edge41" class="edge">
<title>Node27&#45;&gt;Node35</title>
<path fill="none" stroke="#63b8ff" d="M281.55,-296.95C254.01,-285.73 215.79,-270.15 189.39,-259.39"/>
<polygon fill="#63b8ff" stroke="#63b8ff" points="190.48,-256.05 179.89,-255.52 187.83,-262.53 190.48,-256.05"/>
</g>
<!-- Node30 -->
<g id="node30" class="node">
<title>Node30</title>
<g id="a_node30"><a xlink:href="byte__vector_8h.html" target="_top" xlink:title=" ">
<polygon fill="white" stroke="#666666" points="742,-129 642,-129 642,-110 742,-110 742,-129"/>
<text text-anchor="middle" x="692" y="-117" font-family="Helvetica,sans-Serif" font-size="10.00">ccf/byte_vector.h</text>
</a>
</g>
</g>
<!-- Node29&#45;&gt;Node30 -->
<g id="edge34" class="edge">
<title>Node29&#45;&gt;Node30</title>
<path fill="none" stroke="#63b8ff" d="M666.99,-164.84C671.53,-156.78 677.27,-146.62 682.1,-138.06"/>
<polygon fill="#63b8ff" stroke="#63b8ff" points="685.19,-139.7 687.06,-129.27 679.09,-136.26 685.19,-139.7"/>
</g>
<!-- Node30&#45;&gt;Node17 -->
<g id="edge39" class="edge">
<title>Node30&#45;&gt;Node17</title>
<path fill="none" stroke="#63b8ff" d="M742.03,-115.34C891.38,-105.92 1332.86,-78.06 1482.07,-68.65"/>
<polygon fill="#63b8ff" stroke="#63b8ff" points="1482.55,-72.13 1492.31,-68 1482.1,-65.14 1482.55,-72.13"/>
</g>
<!-- Node31 -->
<g id="node31" class="node">
<title>Node31</title>
<g id="a_node31"><a xlink:href="siphash_8h.html" target="_top" xlink:title=" ">
<polygon fill="white" stroke="#666666" points="773.5,-74 678.5,-74 678.5,-55 773.5,-55 773.5,-74"/>
<text text-anchor="middle" x="726" y="-62" font-family="Helvetica,sans-Serif" font-size="10.00">ccf/ds/siphash.h</text>
</a>
</g>
</g>
<!-- Node30&#45;&gt;Node31 -->
<g id="edge35" class="edge">
<title>Node30&#45;&gt;Node31</title>
<path fill="none" stroke="#63b8ff" d="M697.61,-109.75C702.32,-102.42 709.17,-91.73 714.97,-82.7"/>
<polygon fill="#63b8ff" stroke="#63b8ff" points="718.04,-84.4 720.49,-74.09 712.14,-80.62 718.04,-84.4"/>
</g>
<!-- Node34 -->
<g id="node34" class="node">
<title>Node34</title>
<g id="a_node34"><a xlink:title=" ">
<polygon fill="#e0e0e0" stroke="#999999" points="660.5,-74 511.5,-74 511.5,-55 660.5,-55 660.5,-74"/>
<text text-anchor="middle" x="586" y="-62" font-family="Helvetica,sans-Serif" font-size="10.00">small_vector/SmallVector.h</text>
</a>
</g>
</g>
<!-- Node30&#45;&gt;Node34 -->
<g id="edge40" class="edge">
<title>Node30&#45;&gt;Node34</title>
<path fill="none" stroke="#63b8ff" d="M674.97,-109.98C658.07,-101.54 631.94,-88.47 612.36,-78.68"/>
<polygon fill="#63b8ff" stroke="#63b8ff" points="613.85,-75.51 603.34,-74.17 610.72,-81.77 613.85,-75.51"/>
</g>
<!-- Node31&#45;&gt;Node8 -->
<g id="edge38" class="edge">
<title>Node31&#45;&gt;Node8</title>
<path fill="none" stroke="#63b8ff" d="M773.83,-55.16C835.75,-44.37 942.11,-25.82 996.23,-16.39"/>
<polygon fill="#63b8ff" stroke="#63b8ff" points="997.08,-19.79 1006.33,-14.63 995.88,-12.9 997.08,-19.79"/>
</g>
<!-- Node32 -->
<g id="node32" class="node">
<title>Node32</title>
<g id="a_node32"><a xlink:title=" ">
<polygon fill="#e0e0e0" stroke="#999999" points="752.5,-19 699.5,-19 699.5,0 752.5,0 752.5,-19"/>
<text text-anchor="middle" x="726" y="-7" font-family="Helvetica,sans-Serif" font-size="10.00">cstddef</text>
</a>
</g>
</g>
<!-- Node31&#45;&gt;Node32 -->
<g id="edge36" class="edge">
<title>Node31&#45;&gt;Node32</title>
<path fill="none" stroke="#63b8ff" d="M726,-54.75C726,-47.8 726,-37.85 726,-29.13"/>
<polygon fill="#63b8ff" stroke="#63b8ff" points="729.5,-29.09 726,-19.09 722.5,-29.09 729.5,-29.09"/>
</g>
<!-- Node33 -->
<g id="node33" class="node">
<title>Node33</title>
<g id="a_node33"><a xlink:title=" ">
<polygon fill="#e0e0e0" stroke="#999999" points="824,-19 774,-19 774,0 824,0 824,-19"/>
<text text-anchor="middle" x="799" y="-7" font-family="Helvetica,sans-Serif" font-size="10.00">cstdint</text>
</a>
</g>
</g>
<!-- Node31&#45;&gt;Node33 -->
<g id="edge37" class="edge">
<title>Node31&#45;&gt;Node33</title>
<path fill="none" stroke="#63b8ff" d="M737.73,-54.98C748.73,-47 765.42,-34.88 778.6,-25.31"/>
<polygon fill="#63b8ff" stroke="#63b8ff" points="781.02,-27.88 787.06,-19.17 776.91,-22.21 781.02,-27.88"/>
</g>
<!-- Node35&#45;&gt;Node16 -->
<g id="edge45" class="edge">
<title>Node35&#45;&gt;Node16</title>
<path fill="none" stroke="#63b8ff" d="M176.94,-236.37C199.54,-225.49 238.62,-206.69 264.88,-194.05"/>
<polygon fill="#63b8ff" stroke="#63b8ff" points="266.43,-197.19 273.92,-189.7 263.39,-190.88 266.43,-197.19"/>
</g>
<!-- Node35&#45;&gt;Node22 -->
<g id="edge42" class="edge">
<title>Node35&#45;&gt;Node22</title>
<path fill="none" stroke="#63b8ff" d="M152.12,-236.37C144.33,-226.59 131.45,-210.42 121.61,-198.08"/>
<polygon fill="#63b8ff" stroke="#63b8ff" points="124.07,-195.54 115.1,-189.91 118.59,-199.91 124.07,-195.54"/>
</g>
<!-- Node35&#45;&gt;Node29 -->
<g id="edge43" class="edge">
<title>Node35&#45;&gt;Node29</title>
<path fill="none" stroke="#63b8ff" d="M208.31,-238.69C299.78,-226.98 495.56,-201.92 596.28,-189.03"/>
<polygon fill="#63b8ff" stroke="#63b8ff" points="596.84,-192.48 606.32,-187.74 595.96,-185.54 596.84,-192.48"/>
</g>
<!-- Node36 -->
<g id="node36" class="node">
<title>Node36</title>
<g id="a_node36"><a xlink:title=" ">
<polygon fill="#e0e0e0" stroke="#999999" points="208,-189.5 170,-189.5 170,-170.5 208,-170.5 208,-189.5"/>
<text text-anchor="middle" x="189" y="-177.5" font-family="Helvetica,sans-Serif" font-size="10.00">map</text>
</a>
</g>
</g>
<!-- Node35&#45;&gt;Node36 -->
<g id="edge44" class="edge">
<title>Node35&#45;&gt;Node36</title>
<path fill="none" stroke="#63b8ff" d="M163.05,-236.37C167.49,-226.88 174.77,-211.36 180.49,-199.16"/>
<polygon fill="#63b8ff" stroke="#63b8ff" points="183.75,-200.45 184.83,-189.91 177.41,-197.47 183.75,-200.45"/>
</g>
<!-- Node38 -->
<g id="node38" class="node">
<title>Node38</title>
<g id="a_node38"><a xlink:href="untyped__map__handle_8h.html" target="_top" xlink:title=" ">
<polygon fill="white" stroke="#666666" points="532,-261 416,-261 416,-231 532,-231 532,-261"/>
<text text-anchor="start" x="424" y="-249" font-family="Helvetica,sans-Serif" font-size="10.00">ccf/kv/untyped_map</text>
<text text-anchor="middle" x="474" y="-238" font-family="Helvetica,sans-Serif" font-size="10.00">_handle.h</text>
</a>
</g>
</g>
<!-- Node37&#45;&gt;Node38 -->
<g id="edge51" class="edge">
<title>Node37&#45;&gt;Node38</title>
<path fill="none" stroke="#63b8ff" d="M464.69,-362.94C466.18,-344.32 469.78,-299.53 472.04,-271.39"/>
<polygon fill="#63b8ff" stroke="#63b8ff" points="475.55,-271.41 472.86,-261.16 468.57,-270.85 475.55,-271.41"/>
</g>
<!-- Node38&#45;&gt;Node7 -->
<g id="edge57" class="edge">
<title>Node38&#45;&gt;Node7</title>
<path fill="none" stroke="#63b8ff" d="M532.04,-236.76C582.45,-228.77 657.05,-214.92 720,-195 721.63,-194.48 723.29,-193.91 724.95,-193.3"/>
<polygon fill="#63b8ff" stroke="#63b8ff" points="726.35,-196.51 734.32,-189.53 723.73,-190.02 726.35,-196.51"/>
</g>
<!-- Node38&#45;&gt;Node16 -->
<g id="edge56" class="edge">
<title>Node38&#45;&gt;Node16</title>
<path fill="none" stroke="#63b8ff" d="M434.06,-230.95C401.72,-219.58 356.66,-203.74 326.02,-192.96"/>
<polygon fill="#63b8ff" stroke="#63b8ff" points="326.82,-189.53 316.22,-189.52 324.49,-196.14 326.82,-189.53"/>
</g>
<!-- Node38&#45;&gt;Node23 -->
<g id="edge54" class="edge">
<title>Node38&#45;&gt;Node23</title>
<path fill="none" stroke="#63b8ff" d="M505.96,-230.86C536.18,-215.53 574.11,-189.91 554,-165 535.6,-142.2 459.58,-130.51 405.24,-124.95"/>
<polygon fill="#63b8ff" stroke="#63b8ff" points="405.32,-121.44 395.03,-123.95 404.64,-128.41 405.32,-121.44"/>
</g>
<!-- Node38&#45;&gt;Node24 -->
<g id="edge55" class="edge">
<title>Node38&#45;&gt;Node24</title>
<path fill="none" stroke="#63b8ff" d="M492.73,-230.73C512.55,-213.92 538.7,-185.68 521,-165 520.02,-163.85 357.99,-139.06 278.71,-126.99"/>
<polygon fill="#63b8ff" stroke="#63b8ff" points="278.97,-123.49 268.56,-125.44 277.92,-130.41 278.97,-123.49"/>
</g>
<!-- Node38&#45;&gt;Node28 -->
<g id="edge52" class="edge">
<title>Node38&#45;&gt;Node28</title>
<path fill="none" stroke="#63b8ff" d="M467.34,-230.8C462.94,-221.41 457.13,-209.02 452.41,-198.95"/>
<polygon fill="#63b8ff" stroke="#63b8ff" points="455.56,-197.41 448.15,-189.84 449.22,-200.38 455.56,-197.41"/>
</g>
<!-- Node38&#45;&gt;Node29 -->
<g id="edge53" class="edge">
<title>Node38&#45;&gt;Node29</title>
<path fill="none" stroke="#63b8ff" d="M514.6,-230.95C542.31,-221.37 579.21,-208.6 608.78,-198.37"/>
<polygon fill="#63b8ff" stroke="#63b8ff" points="610.19,-201.59 618.5,-195.01 607.9,-194.97 610.19,-201.59"/>
</g>
<!-- Node39&#45;&gt;Node10 -->
<g id="edge59" class="edge">
<title>Node39&#45;&gt;Node10</title>
<path fill="none" stroke="#63b8ff" d="M877.8,-305.68C950.74,-297.61 1090.78,-281.08 1209,-261 1214.93,-259.99 1221.13,-258.84 1227.27,-257.63"/>
<polygon fill="#63b8ff" stroke="#63b8ff" points="1228.37,-260.98 1237.48,-255.57 1226.98,-254.12 1228.37,-260.98"/>
</g>
<!-- Node39&#45;&gt;Node29 -->
<g id="edge60" class="edge">
<title>Node39&#45;&gt;Node29</title>
<path fill="none" stroke="#63b8ff" d="M809.59,-296.84C779.62,-273.79 720.17,-228.05 685.6,-201.46"/>
<polygon fill="#63b8ff" stroke="#63b8ff" points="687.45,-198.47 677.38,-195.14 683.18,-204.01 687.45,-198.47"/>
</g>
<!-- Node40&#45;&gt;Node18 -->
<g id="edge63" class="edge">
<title>Node40&#45;&gt;Node18</title>
<path fill="none" stroke="#63b8ff" d="M647.7,-302.5C703.03,-292.93 795.06,-276.65 874,-261 879.38,-259.93 885,-258.78 890.59,-257.61"/>
<polygon fill="#63b8ff" stroke="#63b8ff" points="891.49,-261 900.55,-255.5 890.04,-254.15 891.49,-261"/>
</g>
<!-- Node40&#45;&gt;Node29 -->
<g id="edge62" class="edge">
<title>Node40&#45;&gt;Node29</title>
<path fill="none" stroke="#63b8ff" d="M604.64,-296.84C615.09,-274.57 635.48,-231.13 648.1,-204.23"/>
<polygon fill="#63b8ff" stroke="#63b8ff" points="651.28,-205.68 652.36,-195.14 644.95,-202.71 651.28,-205.68"/>
</g>
<!-- Node41&#45;&gt;Node7 -->
<g id="edge70" class="edge">
<title>Node41&#45;&gt;Node7</title>
<path fill="none" stroke="#63b8ff" d="M812.56,-236.37C801.45,-226.21 782.8,-209.16 769.12,-196.65"/>
<polygon fill="#63b8ff" stroke="#63b8ff" points="771.48,-194.07 761.74,-189.91 766.76,-199.24 771.48,-194.07"/>
</g>
<!-- Node41&#45;&gt;Node8 -->
<g id="edge71" class="edge">
<title>Node41&#45;&gt;Node8</title>
<path fill="none" stroke="#63b8ff" d="M824.67,-236.46C829.73,-221.14 841.76,-188.41 859,-165 903.2,-104.96 973.66,-50.46 1008.73,-25.25"/>
<polygon fill="#63b8ff" stroke="#63b8ff" points="1011.11,-27.86 1017.24,-19.21 1007.06,-22.15 1011.11,-27.86"/>
</g>
<!-- Node41&#45;&gt;Node33 -->
<g id="edge67" class="edge">
<title>Node41&#45;&gt;Node33</title>
<path fill="none" stroke="#63b8ff" d="M821.15,-236.38C817.82,-202.41 805.56,-77.4 800.86,-29.42"/>
<polygon fill="#63b8ff" stroke="#63b8ff" points="804.34,-29.06 799.88,-19.45 797.37,-29.75 804.34,-29.06"/>
</g>
<!-- Node41&#45;&gt;Node42 -->
<g id="edge68" class="edge">
<title>Node41&#45;&gt;Node42</title>
<path fill="none" stroke="#63b8ff" d="M842.9,-236.37C869.6,-225.35 915.99,-206.19 946.59,-193.55"/>
<polygon fill="#63b8ff" stroke="#63b8ff" points="948.02,-196.75 955.93,-189.7 945.35,-190.28 948.02,-196.75"/>
</g>
<!-- Node43 -->
<g id="node43" class="node">
<title>Node43</title>
<g id="a_node43"><a xlink:title=" ">
<polygon fill="#e0e0e0" stroke="#999999" points="933.5,-189.5 868.5,-189.5 868.5,-170.5 933.5,-170.5 933.5,-189.5"/>
<text text-anchor="middle" x="901" y="-177.5" font-family="Helvetica,sans-Serif" font-size="10.00">stdexcept</text>
</a>
</g>
</g>
<!-- Node41&#45;&gt;Node43 -->
<g id="edge69" class="edge">
<title>Node41&#45;&gt;Node43</title>
<path fill="none" stroke="#63b8ff" d="M832.65,-236.37C845.38,-226.06 866.88,-208.65 882.37,-196.09"/>
<polygon fill="#63b8ff" stroke="#63b8ff" points="884.7,-198.71 890.26,-189.7 880.29,-193.27 884.7,-198.71"/>
</g>
</g>
</svg>
