<?xml version="1.0" encoding="UTF-8" standalone="no"?>
<!DOCTYPE svg PUBLIC "-//W3C//DTD SVG 1.1//EN"
 "http://www.w3.org/Graphics/SVG/1.1/DTD/svg11.dtd">
<!-- Generated by graphviz version 2.43.0 (0)
 -->
<!-- Title: src/apps/tpcc/app/tpcc_tables.h Pages: 1 -->
<svg width="1771pt" height="511pt"
 viewBox="0.00 0.00 1771.00 511.00" xmlns="http://www.w3.org/2000/svg" xmlns:xlink="http://www.w3.org/1999/xlink">
<g id="graph0" class="graph" transform="scale(1 1) rotate(0) translate(4 507)">
<title>src/apps/tpcc/app/tpcc_tables.h</title>
<!-- Node1 -->
<g id="node1" class="node">
<title>Node1</title>
<g id="a_node1"><a xlink:title=" ">
<polygon fill="#999999" stroke="#666666" points="1245.5,-503 1120.5,-503 1120.5,-473 1245.5,-473 1245.5,-503"/>
<text text-anchor="start" x="1128.5" y="-491" font-family="Helvetica,sans-Serif" font-size="10.00">src/apps/tpcc/app/tpcc</text>
<text text-anchor="middle" x="1183" y="-480" font-family="Helvetica,sans-Serif" font-size="10.00">_tables.h</text>
</a>
</g>
</g>
<!-- Node2 -->
<g id="node2" class="node">
<title>Node2</title>
<g id="a_node2"><a xlink:href="json_8h.html" target="_top" xlink:title=" ">
<polygon fill="white" stroke="#666666" points="287.5,-382 210.5,-382 210.5,-363 287.5,-363 287.5,-382"/>
<text text-anchor="middle" x="249" y="-370" font-family="Helvetica,sans-Serif" font-size="10.00">ccf/ds/json.h</text>
</a>
</g>
</g>
<!-- Node1&#45;&gt;Node2 -->
<g id="edge1" class="edge">
<title>Node1&#45;&gt;Node2</title>
<path fill="none" stroke="#63b8ff" d="M1120.05,-486.03C999.26,-483.36 726.91,-473.46 501,-437 423.45,-424.48 334.82,-399.62 286.05,-384.99"/>
<polygon fill="#63b8ff" stroke="#63b8ff" points="286.85,-381.58 276.27,-382.03 284.83,-388.28 286.85,-381.58"/>
</g>
<!-- Node5 -->
<g id="node5" class="node">
<title>Node5</title>
<g id="a_node5"><a xlink:title=" ">
<polygon fill="#e0e0e0" stroke="#999999" points="611.5,-19 564.5,-19 564.5,0 611.5,0 611.5,-19"/>
<text text-anchor="middle" x="588" y="-7" font-family="Helvetica,sans-Serif" font-size="10.00">vector</text>
</a>
</g>
</g>
<!-- Node1&#45;&gt;Node5 -->
<g id="edge76" class="edge">
<title>Node1&#45;&gt;Node5</title>
<path fill="none" stroke="#63b8ff" d="M1120.23,-487.62C875.66,-489.24 0,-487.11 0,-373.5 0,-373.5 0,-373.5 0,-118.5 0,-83.91 14.95,-72.13 45,-55 89.18,-29.82 442.35,-15.54 554.17,-11.62"/>
<polygon fill="#63b8ff" stroke="#63b8ff" points="554.35,-15.11 564.22,-11.27 554.11,-8.12 554.35,-15.11"/>
</g>
<!-- Node7 -->
<g id="node7" class="node">
<title>Node7</title>
<g id="a_node7"><a xlink:href="nonstd_8h.html" target="_top" xlink:title=" ">
<polygon fill="white" stroke="#666666" points="454,-255.5 364,-255.5 364,-236.5 454,-236.5 454,-255.5"/>
<text text-anchor="middle" x="409" y="-243.5" font-family="Helvetica,sans-Serif" font-size="10.00">ccf/ds/nonstd.h</text>
</a>
</g>
</g>
<!-- Node1&#45;&gt;Node7 -->
<g id="edge19" class="edge">
<title>Node1&#45;&gt;Node7</title>
<path fill="none" stroke="#63b8ff" d="M1120.24,-484.98C973.43,-479.83 616.52,-464.6 570,-437 505.96,-399.01 529.43,-350.84 478,-297 464.59,-282.96 446.79,-270.17 432.63,-261.05"/>
<polygon fill="#63b8ff" stroke="#63b8ff" points="434.27,-257.94 423.93,-255.6 430.55,-263.87 434.27,-257.94"/>
</g>
<!-- Node15 -->
<g id="node15" class="node">
<title>Node15</title>
<g id="a_node15"><a xlink:title=" ">
<polygon fill="#e0e0e0" stroke="#999999" points="582,-255.5 472,-255.5 472,-236.5 582,-236.5 582,-255.5"/>
<text text-anchor="middle" x="527" y="-243.5" font-family="Helvetica,sans-Serif" font-size="10.00">nlohmann/json.hpp</text>
</a>
</g>
</g>
<!-- Node1&#45;&gt;Node15 -->
<g id="edge72" class="edge">
<title>Node1&#45;&gt;Node15</title>
<path fill="none" stroke="#63b8ff" d="M1120.41,-485.53C976.84,-481.61 632.97,-468.98 592,-437 537.96,-394.81 528.59,-305.32 527.15,-266.1"/>
<polygon fill="#63b8ff" stroke="#63b8ff" points="530.64,-265.56 526.91,-255.64 523.64,-265.72 530.64,-265.56"/>
</g>
<!-- Node17 -->
<g id="node17" class="node">
<title>Node17</title>
<g id="a_node17"><a xlink:href="kv_2map_8h.html" target="_top" xlink:title=" ">
<polygon fill="white" stroke="#666666" points="1029,-437 949,-437 949,-418 1029,-418 1029,-437"/>
<text text-anchor="middle" x="989" y="-425" font-family="Helvetica,sans-Serif" font-size="10.00">ccf/kv/map.h</text>
</a>
</g>
</g>
<!-- Node1&#45;&gt;Node17 -->
<g id="edge20" class="edge">
<title>Node1&#45;&gt;Node17</title>
<path fill="none" stroke="#63b8ff" d="M1136.53,-472.99C1103.05,-462.89 1058.43,-449.44 1027.06,-439.98"/>
<polygon fill="#63b8ff" stroke="#63b8ff" points="1027.95,-436.59 1017.37,-437.05 1025.93,-443.29 1027.95,-436.59"/>
</g>
<!-- Node26 -->
<g id="node26" class="node">
<title>Node26</title>
<g id="a_node26"><a xlink:href="serialised__entry_8h.html" target="_top" xlink:title=" ">
<polygon fill="white" stroke="#666666" points="783.5,-195 678.5,-195 678.5,-165 783.5,-165 783.5,-195"/>
<text text-anchor="start" x="686.5" y="-183" font-family="Helvetica,sans-Serif" font-size="10.00">ccf/kv/serialisers</text>
<text text-anchor="middle" x="731" y="-172" font-family="Helvetica,sans-Serif" font-size="10.00">/serialised_entry.h</text>
</a>
</g>
</g>
<!-- Node1&#45;&gt;Node26 -->
<g id="edge62" class="edge">
<title>Node1&#45;&gt;Node26</title>
<path fill="none" stroke="#63b8ff" d="M1120.43,-484.71C989.46,-478.47 693.46,-456.28 632,-382 584.49,-324.58 663.53,-240.54 706.32,-201.87"/>
<polygon fill="#63b8ff" stroke="#63b8ff" points="708.69,-204.45 713.85,-195.2 704.05,-199.21 708.69,-204.45"/>
</g>
<!-- Node38 -->
<g id="node38" class="node">
<title>Node38</title>
<g id="a_node38"><a xlink:href="serialized_8h.html" target="_top" xlink:title=" ">
<polygon fill="white" stroke="#666666" points="1393.5,-255.5 1306.5,-255.5 1306.5,-236.5 1393.5,-236.5 1393.5,-255.5"/>
<text text-anchor="middle" x="1350" y="-243.5" font-family="Helvetica,sans-Serif" font-size="10.00">ds/serialized.h</text>
</a>
</g>
</g>
<!-- Node1&#45;&gt;Node38 -->
<g id="edge63" class="edge">
<title>Node1&#45;&gt;Node38</title>
<path fill="none" stroke="#63b8ff" d="M1201.79,-472.84C1225.46,-454.2 1266.15,-419.39 1292,-382 1318.14,-344.2 1336.21,-292.73 1344.63,-265.56"/>
<polygon fill="#63b8ff" stroke="#63b8ff" points="1348.03,-266.4 1347.55,-255.82 1341.33,-264.39 1348.03,-266.4"/>
</g>
<!-- Node39 -->
<g id="node39" class="node">
<title>Node39</title>
<g id="a_node39"><a xlink:title=" ">
<polygon fill="#e0e0e0" stroke="#999999" points="1554,-189.5 1504,-189.5 1504,-170.5 1554,-170.5 1554,-189.5"/>
<text text-anchor="middle" x="1529" y="-177.5" font-family="Helvetica,sans-Serif" font-size="10.00">cstring</text>
</a>
</g>
</g>
<!-- Node1&#45;&gt;Node39 -->
<g id="edge71" class="edge">
<title>Node1&#45;&gt;Node39</title>
<path fill="none" stroke="#63b8ff" d="M1209.8,-472.93C1226.57,-463.63 1248.28,-450.67 1266,-437 1369.84,-356.9 1476.71,-240.12 1514.62,-197.42"/>
<polygon fill="#63b8ff" stroke="#63b8ff" points="1517.45,-199.5 1521.44,-189.68 1512.2,-194.86 1517.45,-199.5"/>
</g>
<!-- Node41 -->
<g id="node41" class="node">
<title>Node41</title>
<g id="a_node41"><a xlink:href="tpcc__common_8h.html" target="_top" xlink:title=" ">
<polygon fill="white" stroke="#666666" points="1476,-437 1382,-437 1382,-418 1476,-418 1476,-437"/>
<text text-anchor="middle" x="1429" y="-425" font-family="Helvetica,sans-Serif" font-size="10.00">tpcc_common.h</text>
</a>
</g>
</g>
<!-- Node1&#45;&gt;Node41 -->
<g id="edge69" class="edge">
<title>Node1&#45;&gt;Node41</title>
<path fill="none" stroke="#63b8ff" d="M1241.92,-472.99C1285.2,-462.7 1343.17,-448.91 1383.05,-439.43"/>
<polygon fill="#63b8ff" stroke="#63b8ff" points="1384.11,-442.77 1393.03,-437.05 1382.49,-435.96 1384.11,-442.77"/>
</g>
<!-- Node43 -->
<g id="node43" class="node">
<title>Node43</title>
<g id="a_node43"><a xlink:title=" ">
<polygon fill="#e0e0e0" stroke="#999999" points="1547.5,-437 1494.5,-437 1494.5,-418 1547.5,-418 1547.5,-437"/>
<text text-anchor="middle" x="1521" y="-425" font-family="Helvetica,sans-Serif" font-size="10.00">stdint.h</text>
</a>
</g>
</g>
<!-- Node1&#45;&gt;Node43 -->
<g id="edge73" class="edge">
<title>Node1&#45;&gt;Node43</title>
<path fill="none" stroke="#63b8ff" d="M1245.69,-477.89C1304.72,-469.02 1395.8,-454.6 1484.36,-437.01"/>
<polygon fill="#63b8ff" stroke="#63b8ff" points="1485.19,-440.41 1494.31,-435.01 1483.82,-433.55 1485.19,-440.41"/>
</g>
<!-- Node44 -->
<g id="node44" class="node">
<title>Node44</title>
<g id="a_node44"><a xlink:title=" ">
<polygon fill="#e0e0e0" stroke="#999999" points="1658.5,-437 1565.5,-437 1565.5,-418 1658.5,-418 1658.5,-437"/>
<text text-anchor="middle" x="1612" y="-425" font-family="Helvetica,sans-Serif" font-size="10.00">unordered_map</text>
</a>
</g>
</g>
<!-- Node1&#45;&gt;Node44 -->
<g id="edge74" class="edge">
<title>Node1&#45;&gt;Node44</title>
<path fill="none" stroke="#63b8ff" d="M1245.59,-479.03C1317.8,-469.74 1440.4,-453.71 1555.46,-437.2"/>
<polygon fill="#63b8ff" stroke="#63b8ff" points="1556.1,-440.64 1565.5,-435.75 1555.1,-433.71 1556.1,-440.64"/>
</g>
<!-- Node45 -->
<g id="node45" class="node">
<title>Node45</title>
<g id="a_node45"><a xlink:title=" ">
<polygon fill="#e0e0e0" stroke="#999999" points="1763,-437 1677,-437 1677,-418 1763,-418 1763,-437"/>
<text text-anchor="middle" x="1720" y="-425" font-family="Helvetica,sans-Serif" font-size="10.00">unordered_set</text>
</a>
</g>
</g>
<!-- Node1&#45;&gt;Node45 -->
<g id="edge75" class="edge">
<title>Node1&#45;&gt;Node45</title>
<path fill="none" stroke="#63b8ff" d="M1245.54,-481.75C1336.06,-473.88 1509.12,-457.85 1666.55,-437.12"/>
<polygon fill="#63b8ff" stroke="#63b8ff" points="1667.45,-440.53 1676.9,-435.75 1666.53,-433.59 1667.45,-440.53"/>
</g>
<!-- Node3 -->
<g id="node3" class="node">
<title>Node3</title>
<g id="a_node3"><a xlink:href="include_2ccf_2crypto_2base64_8h.html" target="_top" xlink:title=" ">
<polygon fill="white" stroke="#666666" points="305,-255.5 193,-255.5 193,-236.5 305,-236.5 305,-255.5"/>
<text text-anchor="middle" x="249" y="-243.5" font-family="Helvetica,sans-Serif" font-size="10.00">ccf/crypto/base64.h</text>
</a>
</g>
</g>
<!-- Node2&#45;&gt;Node3 -->
<g id="edge2" class="edge">
<title>Node2&#45;&gt;Node3</title>
<path fill="none" stroke="#63b8ff" d="M249,-362.94C249,-343.04 249,-293.26 249,-265.85"/>
<polygon fill="#63b8ff" stroke="#63b8ff" points="252.5,-265.62 249,-255.62 245.5,-265.62 252.5,-265.62"/>
</g>
<!-- Node6 -->
<g id="node6" class="node">
<title>Node6</title>
<g id="a_node6"><a xlink:href="include_2ccf_2ds_2json__schema_8h.html" target="_top" xlink:title=" ">
<polygon fill="white" stroke="#666666" points="469.5,-321.5 348.5,-321.5 348.5,-302.5 469.5,-302.5 469.5,-321.5"/>
<text text-anchor="middle" x="409" y="-309.5" font-family="Helvetica,sans-Serif" font-size="10.00">ccf/ds/json_schema.h</text>
</a>
</g>
</g>
<!-- Node2&#45;&gt;Node6 -->
<g id="edge5" class="edge">
<title>Node2&#45;&gt;Node6</title>
<path fill="none" stroke="#63b8ff" d="M272.27,-362.99C299.64,-352.99 345.27,-336.3 376.22,-324.99"/>
<polygon fill="#63b8ff" stroke="#63b8ff" points="377.52,-328.24 385.71,-321.52 375.11,-321.66 377.52,-328.24"/>
</g>
<!-- Node14 -->
<g id="node14" class="node">
<title>Node14</title>
<g id="a_node14"><a xlink:title=" ">
<polygon fill="#e0e0e0" stroke="#999999" points="133.5,-74 54.5,-74 54.5,-55 133.5,-55 133.5,-74"/>
<text text-anchor="middle" x="94" y="-62" font-family="Helvetica,sans-Serif" font-size="10.00">fmt/format.h</text>
</a>
</g>
</g>
<!-- Node2&#45;&gt;Node14 -->
<g id="edge17" class="edge">
<title>Node2&#45;&gt;Node14</title>
<path fill="none" stroke="#63b8ff" d="M240.09,-362.94C221.88,-345.13 179.65,-302.29 151,-261 132.07,-233.72 127.78,-226.04 116,-195 101.76,-157.47 96.7,-110.32 94.93,-84.52"/>
<polygon fill="#63b8ff" stroke="#63b8ff" points="98.41,-84.07 94.33,-74.29 91.42,-84.48 98.41,-84.07"/>
</g>
<!-- Node16 -->
<g id="node16" class="node">
<title>Node16</title>
<g id="a_node16"><a xlink:title=" ">
<polygon fill="#e0e0e0" stroke="#999999" points="84,-321.5 28,-321.5 28,-302.5 84,-302.5 84,-321.5"/>
<text text-anchor="middle" x="56" y="-309.5" font-family="Helvetica,sans-Serif" font-size="10.00">sstream</text>
</a>
</g>
</g>
<!-- Node2&#45;&gt;Node16 -->
<g id="edge18" class="edge">
<title>Node2&#45;&gt;Node16</title>
<path fill="none" stroke="#63b8ff" d="M218.82,-362.95C188.27,-354.21 139.72,-340.1 98,-327 95.71,-326.28 93.36,-325.53 90.98,-324.76"/>
<polygon fill="#63b8ff" stroke="#63b8ff" points="91.86,-321.37 81.27,-321.58 89.69,-328.02 91.86,-321.37"/>
</g>
<!-- Node4 -->
<g id="node4" class="node">
<title>Node4</title>
<g id="a_node4"><a xlink:title=" ">
<polygon fill="#e0e0e0" stroke="#999999" points="660,-189.5 616,-189.5 616,-170.5 660,-170.5 660,-189.5"/>
<text text-anchor="middle" x="638" y="-177.5" font-family="Helvetica,sans-Serif" font-size="10.00">string</text>
</a>
</g>
</g>
<!-- Node3&#45;&gt;Node4 -->
<g id="edge3" class="edge">
<title>Node3&#45;&gt;Node4</title>
<path fill="none" stroke="#63b8ff" d="M305.01,-236.95C368.81,-227.61 476.11,-211.38 568,-195 580.46,-192.78 594.11,-190.1 606.03,-187.69"/>
<polygon fill="#63b8ff" stroke="#63b8ff" points="606.88,-191.09 615.98,-185.65 605.48,-184.23 606.88,-191.09"/>
</g>
<!-- Node3&#45;&gt;Node5 -->
<g id="edge4" class="edge">
<title>Node3&#45;&gt;Node5</title>
<path fill="none" stroke="#63b8ff" d="M228.78,-236.47C212.56,-228.41 190.92,-214.61 181,-195 174.98,-183.1 173.43,-175.97 181,-165 268.19,-38.64 473.26,-15.53 554.25,-11.38"/>
<polygon fill="#63b8ff" stroke="#63b8ff" points="554.55,-14.87 564.38,-10.93 554.24,-7.88 554.55,-14.87"/>
</g>
<!-- Node6&#45;&gt;Node7 -->
<g id="edge6" class="edge">
<title>Node6&#45;&gt;Node7</title>
<path fill="none" stroke="#63b8ff" d="M409,-302.37C409,-293.16 409,-278.29 409,-266.27"/>
<polygon fill="#63b8ff" stroke="#63b8ff" points="412.5,-265.91 409,-255.91 405.5,-265.91 412.5,-265.91"/>
</g>
<!-- Node13 -->
<g id="node13" class="node">
<title>Node13</title>
<g id="a_node13"><a xlink:title=" ">
<polygon fill="#e0e0e0" stroke="#999999" points="1126,-189.5 1070,-189.5 1070,-170.5 1126,-170.5 1126,-189.5"/>
<text text-anchor="middle" x="1098" y="-177.5" font-family="Helvetica,sans-Serif" font-size="10.00">optional</text>
</a>
</g>
</g>
<!-- Node6&#45;&gt;Node13 -->
<g id="edge14" class="edge">
<title>Node6&#45;&gt;Node13</title>
<path fill="none" stroke="#63b8ff" d="M469.63,-307.68C608.86,-299.79 943.17,-279.21 991,-261 1027.98,-246.92 1063.2,-216.07 1082.58,-197.06"/>
<polygon fill="#63b8ff" stroke="#63b8ff" points="1085.3,-199.28 1089.87,-189.72 1080.34,-194.35 1085.3,-199.28"/>
</g>
<!-- Node6&#45;&gt;Node14 -->
<g id="edge15" class="edge">
<title>Node6&#45;&gt;Node14</title>
<path fill="none" stroke="#63b8ff" d="M348.41,-310.85C299.59,-307.83 231.48,-296.73 184,-261 124.9,-216.53 103.39,-123.96 96.67,-84.25"/>
<polygon fill="#63b8ff" stroke="#63b8ff" points="100.12,-83.67 95.12,-74.34 93.21,-84.76 100.12,-83.67"/>
</g>
<!-- Node6&#45;&gt;Node15 -->
<g id="edge16" class="edge">
<title>Node6&#45;&gt;Node15</title>
<path fill="none" stroke="#63b8ff" d="M424.91,-302.37C444.71,-291.63 478.73,-273.18 502.01,-260.55"/>
<polygon fill="#63b8ff" stroke="#63b8ff" points="503.84,-263.54 510.96,-255.7 500.5,-257.39 503.84,-263.54"/>
</g>
<!-- Node7&#45;&gt;Node4 -->
<g id="edge10" class="edge">
<title>Node7&#45;&gt;Node4</title>
<path fill="none" stroke="#63b8ff" d="M441.84,-236.48C448.82,-234.67 456.16,-232.77 463,-231 524.78,-214.99 541.27,-214.6 602,-195 603.87,-194.4 605.78,-193.75 607.7,-193.08"/>
<polygon fill="#63b8ff" stroke="#63b8ff" points="609.04,-196.31 617.21,-189.56 606.62,-189.74 609.04,-196.31"/>
</g>
<!-- Node7&#45;&gt;Node5 -->
<g id="edge13" class="edge">
<title>Node7&#45;&gt;Node5</title>
<path fill="none" stroke="#63b8ff" d="M439.02,-236.48C483.92,-223.6 563.79,-200.13 568,-195 607.64,-146.68 598.69,-65.64 592.02,-29.22"/>
<polygon fill="#63b8ff" stroke="#63b8ff" points="595.39,-28.19 590.01,-19.06 588.52,-29.55 595.39,-28.19"/>
</g>
<!-- Node8 -->
<g id="node8" class="node">
<title>Node8</title>
<g id="a_node8"><a xlink:title=" ">
<polygon fill="#e0e0e0" stroke="#999999" points="254,-189.5 190,-189.5 190,-170.5 254,-170.5 254,-189.5"/>
<text text-anchor="middle" x="222" y="-177.5" font-family="Helvetica,sans-Serif" font-size="10.00">algorithm</text>
</a>
</g>
</g>
<!-- Node7&#45;&gt;Node8 -->
<g id="edge7" class="edge">
<title>Node7&#45;&gt;Node8</title>
<path fill="none" stroke="#63b8ff" d="M383.78,-236.37C351.07,-225.17 293.83,-205.58 256.94,-192.96"/>
<polygon fill="#63b8ff" stroke="#63b8ff" points="257.71,-189.52 247.12,-189.6 255.45,-196.15 257.71,-189.52"/>
</g>
<!-- Node9 -->
<g id="node9" class="node">
<title>Node9</title>
<g id="a_node9"><a xlink:title=" ">
<polygon fill="#e0e0e0" stroke="#999999" points="314,-189.5 272,-189.5 272,-170.5 314,-170.5 314,-189.5"/>
<text text-anchor="middle" x="293" y="-177.5" font-family="Helvetica,sans-Serif" font-size="10.00">array</text>
</a>
</g>
</g>
<!-- Node7&#45;&gt;Node9 -->
<g id="edge8" class="edge">
<title>Node7&#45;&gt;Node9</title>
<path fill="none" stroke="#63b8ff" d="M393.36,-236.37C373.9,-225.63 340.45,-207.18 317.56,-194.55"/>
<polygon fill="#63b8ff" stroke="#63b8ff" points="319.21,-191.47 308.77,-189.7 315.83,-197.59 319.21,-191.47"/>
</g>
<!-- Node10 -->
<g id="node10" class="node">
<title>Node10</title>
<g id="a_node10"><a xlink:title=" ">
<polygon fill="#e0e0e0" stroke="#999999" points="381.5,-189.5 332.5,-189.5 332.5,-170.5 381.5,-170.5 381.5,-189.5"/>
<text text-anchor="middle" x="357" y="-177.5" font-family="Helvetica,sans-Serif" font-size="10.00">cctype</text>
</a>
</g>
</g>
<!-- Node7&#45;&gt;Node10 -->
<g id="edge9" class="edge">
<title>Node7&#45;&gt;Node10</title>
<path fill="none" stroke="#63b8ff" d="M401.99,-236.37C393.97,-226.5 380.65,-210.11 370.58,-197.72"/>
<polygon fill="#63b8ff" stroke="#63b8ff" points="373.26,-195.46 364.24,-189.91 367.83,-199.87 373.26,-195.46"/>
</g>
<!-- Node11 -->
<g id="node11" class="node">
<title>Node11</title>
<g id="a_node11"><a xlink:title=" ">
<polygon fill="#e0e0e0" stroke="#999999" points="472.5,-189.5 399.5,-189.5 399.5,-170.5 472.5,-170.5 472.5,-189.5"/>
<text text-anchor="middle" x="436" y="-177.5" font-family="Helvetica,sans-Serif" font-size="10.00">string_view</text>
</a>
</g>
</g>
<!-- Node7&#45;&gt;Node11 -->
<g id="edge11" class="edge">
<title>Node7&#45;&gt;Node11</title>
<path fill="none" stroke="#63b8ff" d="M412.64,-236.37C416.64,-226.88 423.19,-211.36 428.34,-199.16"/>
<polygon fill="#63b8ff" stroke="#63b8ff" points="431.58,-200.48 432.24,-189.91 425.13,-197.76 431.58,-200.48"/>
</g>
<!-- Node12 -->
<g id="node12" class="node">
<title>Node12</title>
<g id="a_node12"><a xlink:title=" ">
<polygon fill="#e0e0e0" stroke="#999999" points="559.5,-189.5 490.5,-189.5 490.5,-170.5 559.5,-170.5 559.5,-189.5"/>
<text text-anchor="middle" x="525" y="-177.5" font-family="Helvetica,sans-Serif" font-size="10.00">type_traits</text>
</a>
</g>
</g>
<!-- Node7&#45;&gt;Node12 -->
<g id="edge12" class="edge">
<title>Node7&#45;&gt;Node12</title>
<path fill="none" stroke="#63b8ff" d="M424.64,-236.37C444.1,-225.63 477.55,-207.18 500.44,-194.55"/>
<polygon fill="#63b8ff" stroke="#63b8ff" points="502.17,-197.59 509.23,-189.7 498.79,-191.47 502.17,-197.59"/>
</g>
<!-- Node18 -->
<g id="node18" class="node">
<title>Node18</title>
<g id="a_node18"><a xlink:href="get__name_8h.html" target="_top" xlink:title=" ">
<polygon fill="white" stroke="#666666" points="748.5,-382 641.5,-382 641.5,-363 748.5,-363 748.5,-382"/>
<text text-anchor="middle" x="695" y="-370" font-family="Helvetica,sans-Serif" font-size="10.00">ccf/kv/get_name.h</text>
</a>
</g>
</g>
<!-- Node17&#45;&gt;Node18 -->
<g id="edge21" class="edge">
<title>Node17&#45;&gt;Node18</title>
<path fill="none" stroke="#63b8ff" d="M948.74,-419.24C897.92,-410.08 810.2,-394.27 752.38,-383.84"/>
<polygon fill="#63b8ff" stroke="#63b8ff" points="752.77,-380.36 742.3,-382.03 751.52,-387.25 752.77,-380.36"/>
</g>
<!-- Node19 -->
<g id="node19" class="node">
<title>Node19</title>
<g id="a_node19"><a xlink:href="include_2ccf_2kv_2hooks_8h.html" target="_top" xlink:title=" ">
<polygon fill="white" stroke="#666666" points="1325.5,-189.5 1238.5,-189.5 1238.5,-170.5 1325.5,-170.5 1325.5,-189.5"/>
<text text-anchor="middle" x="1282" y="-177.5" font-family="Helvetica,sans-Serif" font-size="10.00">ccf/kv/hooks.h</text>
</a>
</g>
</g>
<!-- Node17&#45;&gt;Node19 -->
<g id="edge23" class="edge">
<title>Node17&#45;&gt;Node19</title>
<path fill="none" stroke="#63b8ff" d="M1029.19,-419.79C1060.01,-413.39 1102.75,-401.73 1136,-382 1201.95,-342.87 1219.79,-326.9 1259,-261 1270.41,-241.83 1276.42,-216.69 1279.4,-199.75"/>
<polygon fill="#63b8ff" stroke="#63b8ff" points="1282.91,-199.93 1281,-189.51 1276,-198.84 1282.91,-199.93"/>
</g>
<!-- Node23 -->
<g id="node23" class="node">
<title>Node23</title>
<g id="a_node23"><a xlink:href="map__diff_8h.html" target="_top" xlink:title=" ">
<polygon fill="white" stroke="#666666" points="1103.5,-382 1002.5,-382 1002.5,-363 1103.5,-363 1103.5,-382"/>
<text text-anchor="middle" x="1053" y="-370" font-family="Helvetica,sans-Serif" font-size="10.00">ccf/kv/map_diff.h</text>
</a>
</g>
</g>
<!-- Node17&#45;&gt;Node23 -->
<g id="edge27" class="edge">
<title>Node17&#45;&gt;Node23</title>
<path fill="none" stroke="#63b8ff" d="M999.28,-417.98C1008.84,-410.07 1023.28,-398.11 1034.78,-388.58"/>
<polygon fill="#63b8ff" stroke="#63b8ff" points="1037.06,-391.24 1042.53,-382.17 1032.6,-385.85 1037.06,-391.24"/>
</g>
<!-- Node32 -->
<g id="node32" class="node">
<title>Node32</title>
<g id="a_node32"><a xlink:href="untyped_8h.html" target="_top" xlink:title=" ">
<polygon fill="white" stroke="#666666" points="1250,-255.5 1152,-255.5 1152,-236.5 1250,-236.5 1250,-255.5"/>
<text text-anchor="middle" x="1201" y="-243.5" font-family="Helvetica,sans-Serif" font-size="10.00">ccf/kv/untyped.h</text>
</a>
</g>
</g>
<!-- Node17&#45;&gt;Node32 -->
<g id="edge61" class="edge">
<title>Node17&#45;&gt;Node32</title>
<path fill="none" stroke="#63b8ff" d="M1029.11,-419.05C1055.13,-412.64 1088.6,-401.29 1113,-382 1153.48,-350 1181.31,-294.04 1193.71,-265.25"/>
<polygon fill="#63b8ff" stroke="#63b8ff" points="1197.09,-266.23 1197.69,-255.65 1190.62,-263.54 1197.09,-266.23"/>
</g>
<!-- Node34 -->
<g id="node34" class="node">
<title>Node34</title>
<g id="a_node34"><a xlink:href="map__handle_8h.html" target="_top" xlink:title=" ">
<polygon fill="white" stroke="#666666" points="984,-382 866,-382 866,-363 984,-363 984,-382"/>
<text text-anchor="middle" x="925" y="-370" font-family="Helvetica,sans-Serif" font-size="10.00">ccf/kv/map_handle.h</text>
</a>
</g>
</g>
<!-- Node17&#45;&gt;Node34 -->
<g id="edge47" class="edge">
<title>Node17&#45;&gt;Node34</title>
<path fill="none" stroke="#63b8ff" d="M978.72,-417.98C969.16,-410.07 954.72,-398.11 943.22,-388.58"/>
<polygon fill="#63b8ff" stroke="#63b8ff" points="945.4,-385.85 935.47,-382.17 940.94,-391.24 945.4,-385.85"/>
</g>
<!-- Node36 -->
<g id="node36" class="node">
<title>Node36</title>
<g id="a_node36"><a xlink:href="blit__serialiser_8h.html" target="_top" xlink:title=" ">
<polygon fill="white" stroke="#666666" points="771.5,-327 672.5,-327 672.5,-297 771.5,-297 771.5,-327"/>
<text text-anchor="start" x="680.5" y="-315" font-family="Helvetica,sans-Serif" font-size="10.00">ccf/kv/serialisers</text>
<text text-anchor="middle" x="722" y="-304" font-family="Helvetica,sans-Serif" font-size="10.00">/blit_serialiser.h</text>
</a>
</g>
</g>
<!-- Node17&#45;&gt;Node36 -->
<g id="edge55" class="edge">
<title>Node17&#45;&gt;Node36</title>
<path fill="none" stroke="#63b8ff" d="M953.11,-417.95C923.06,-410.23 879.38,-397.68 843,-382 810.71,-368.08 776.06,-347.71 752.15,-332.71"/>
<polygon fill="#63b8ff" stroke="#63b8ff" points="753.86,-329.65 743.54,-327.25 750.11,-335.56 753.86,-329.65"/>
</g>
<!-- Node37 -->
<g id="node37" class="node">
<title>Node37</title>
<g id="a_node37"><a xlink:href="json__serialiser_8h.html" target="_top" xlink:title=" ">
<polygon fill="white" stroke="#666666" points="888.5,-327 789.5,-327 789.5,-297 888.5,-297 888.5,-327"/>
<text text-anchor="start" x="797.5" y="-315" font-family="Helvetica,sans-Serif" font-size="10.00">ccf/kv/serialisers</text>
<text text-anchor="middle" x="839" y="-304" font-family="Helvetica,sans-Serif" font-size="10.00">/json_serialiser.h</text>
</a>
</g>
</g>
<!-- Node17&#45;&gt;Node37 -->
<g id="edge58" class="edge">
<title>Node17&#45;&gt;Node37</title>
<path fill="none" stroke="#63b8ff" d="M948.95,-423.03C919.55,-418.37 880.75,-407.47 857,-382 845.83,-370.02 841.4,-352 839.72,-337.38"/>
<polygon fill="#63b8ff" stroke="#63b8ff" points="843.18,-336.71 838.91,-327.01 836.2,-337.26 843.18,-336.71"/>
</g>
<!-- Node18&#45;&gt;Node4 -->
<g id="edge22" class="edge">
<title>Node18&#45;&gt;Node4</title>
<path fill="none" stroke="#63b8ff" d="M686.79,-362.7C679.36,-354.22 668.73,-340.69 663,-327 644.93,-283.84 639.92,-228.29 638.53,-199.75"/>
<polygon fill="#63b8ff" stroke="#63b8ff" points="642.02,-199.46 638.14,-189.6 635.03,-199.73 642.02,-199.46"/>
</g>
<!-- Node20 -->
<g id="node20" class="node">
<title>Node20</title>
<g id="a_node20"><a xlink:href="kv_2version_8h.html" target="_top" xlink:title=" ">
<polygon fill="white" stroke="#666666" points="1201,-129 1107,-129 1107,-110 1201,-110 1201,-129"/>
<text text-anchor="middle" x="1154" y="-117" font-family="Helvetica,sans-Serif" font-size="10.00">ccf/kv/version.h</text>
</a>
</g>
</g>
<!-- Node19&#45;&gt;Node20 -->
<g id="edge24" class="edge">
<title>Node19&#45;&gt;Node20</title>
<path fill="none" stroke="#63b8ff" d="M1263.39,-170.49C1241.96,-160.7 1206.56,-144.52 1181.85,-133.23"/>
<polygon fill="#63b8ff" stroke="#63b8ff" points="1183.18,-129.99 1172.63,-129.02 1180.28,-136.36 1183.18,-129.99"/>
</g>
<!-- Node21 -->
<g id="node21" class="node">
<title>Node21</title>
<g id="a_node21"><a xlink:title=" ">
<polygon fill="#e0e0e0" stroke="#999999" points="882.5,-129 817.5,-129 817.5,-110 882.5,-110 882.5,-129"/>
<text text-anchor="middle" x="850" y="-117" font-family="Helvetica,sans-Serif" font-size="10.00">functional</text>
</a>
</g>
</g>
<!-- Node19&#45;&gt;Node21 -->
<g id="edge25" class="edge">
<title>Node19&#45;&gt;Node21</title>
<path fill="none" stroke="#63b8ff" d="M1252.73,-170.48C1245.06,-168.46 1236.76,-166.47 1229,-165 1108.27,-142.09 963.54,-129.02 892.95,-123.55"/>
<polygon fill="#63b8ff" stroke="#63b8ff" points="892.92,-120.04 882.68,-122.77 892.39,-127.02 892.92,-120.04"/>
</g>
<!-- Node22 -->
<g id="node22" class="node">
<title>Node22</title>
<g id="a_node22"><a xlink:title=" ">
<polygon fill="#e0e0e0" stroke="#999999" points="1311,-129 1253,-129 1253,-110 1311,-110 1311,-129"/>
<text text-anchor="middle" x="1282" y="-117" font-family="Helvetica,sans-Serif" font-size="10.00">memory</text>
</a>
</g>
</g>
<!-- Node19&#45;&gt;Node22 -->
<g id="edge26" class="edge">
<title>Node19&#45;&gt;Node22</title>
<path fill="none" stroke="#63b8ff" d="M1282,-170.37C1282,-162.25 1282,-149.81 1282,-139.39"/>
<polygon fill="#63b8ff" stroke="#63b8ff" points="1285.5,-139.17 1282,-129.17 1278.5,-139.17 1285.5,-139.17"/>
</g>
<!-- Node24 -->
<g id="node24" class="node">
<title>Node24</title>
<g id="a_node24"><a xlink:href="untyped__map__diff_8h.html" target="_top" xlink:title=" ">
<polygon fill="white" stroke="#666666" points="1088,-327 972,-327 972,-297 1088,-297 1088,-327"/>
<text text-anchor="start" x="980" y="-315" font-family="Helvetica,sans-Serif" font-size="10.00">ccf/kv/untyped_map</text>
<text text-anchor="middle" x="1030" y="-304" font-family="Helvetica,sans-Serif" font-size="10.00">_diff.h</text>
</a>
</g>
</g>
<!-- Node23&#45;&gt;Node24 -->
<g id="edge28" class="edge">
<title>Node23&#45;&gt;Node24</title>
<path fill="none" stroke="#63b8ff" d="M1049.61,-362.87C1046.89,-355.96 1042.95,-345.93 1039.31,-336.67"/>
<polygon fill="#63b8ff" stroke="#63b8ff" points="1042.47,-335.14 1035.55,-327.11 1035.95,-337.7 1042.47,-335.14"/>
</g>
<!-- Node24&#45;&gt;Node4 -->
<g id="edge46" class="edge">
<title>Node24&#45;&gt;Node4</title>
<path fill="none" stroke="#63b8ff" d="M971.99,-304.11C921.49,-296.96 846.89,-283.58 785,-261 737.67,-243.73 687.02,-213.15 659.25,-195.22"/>
<polygon fill="#63b8ff" stroke="#63b8ff" points="661.04,-192.2 650.75,-189.66 657.21,-198.06 661.04,-192.2"/>
</g>
<!-- Node24&#45;&gt;Node13 -->
<g id="edge45" class="edge">
<title>Node24&#45;&gt;Node13</title>
<path fill="none" stroke="#63b8ff" d="M1039.81,-296.9C1046.46,-287.06 1055.23,-273.51 1062,-261 1073.18,-240.34 1083.95,-215.54 1090.75,-199.09"/>
<polygon fill="#63b8ff" stroke="#63b8ff" points="1094.09,-200.19 1094.61,-189.6 1087.6,-197.55 1094.09,-200.19"/>
</g>
<!-- Node24&#45;&gt;Node20 -->
<g id="edge43" class="edge">
<title>Node24&#45;&gt;Node20</title>
<path fill="none" stroke="#63b8ff" d="M1047.75,-297C1071.67,-277.06 1113.72,-238.11 1135,-195 1143.84,-177.09 1148.84,-154.65 1151.47,-139.11"/>
<polygon fill="#63b8ff" stroke="#63b8ff" points="1154.93,-139.58 1152.98,-129.17 1148.01,-138.53 1154.93,-139.58"/>
</g>
<!-- Node24&#45;&gt;Node21 -->
<g id="edge44" class="edge">
<title>Node24&#45;&gt;Node21</title>
<path fill="none" stroke="#63b8ff" d="M971.72,-301.58C927.31,-293.11 871.41,-279.2 857,-261 829.04,-225.68 837.74,-168.33 844.78,-139.02"/>
<polygon fill="#63b8ff" stroke="#63b8ff" points="848.19,-139.82 847.32,-129.27 841.41,-138.06 848.19,-139.82"/>
</g>
<!-- Node25 -->
<g id="node25" class="node">
<title>Node25</title>
<g id="a_node25"><a xlink:href="abstract__handle_8h.html" target="_top" xlink:title=" ">
<polygon fill="white" stroke="#666666" points="1052,-189.5 916,-189.5 916,-170.5 1052,-170.5 1052,-189.5"/>
<text text-anchor="middle" x="984" y="-177.5" font-family="Helvetica,sans-Serif" font-size="10.00">ccf/kv/abstract_handle.h</text>
</a>
</g>
</g>
<!-- Node24&#45;&gt;Node25 -->
<g id="edge29" class="edge">
<title>Node24&#45;&gt;Node25</title>
<path fill="none" stroke="#63b8ff" d="M1024.99,-296.84C1016.6,-273.13 999.71,-225.41 990.45,-199.23"/>
<polygon fill="#63b8ff" stroke="#63b8ff" points="993.73,-198.01 987.1,-189.75 987.13,-200.34 993.73,-198.01"/>
</g>
<!-- Node24&#45;&gt;Node26 -->
<g id="edge30" class="edge">
<title>Node24&#45;&gt;Node26</title>
<path fill="none" stroke="#63b8ff" d="M971.94,-304.35C929.2,-297.73 870.66,-284.95 824,-261 816.09,-256.94 778.95,-224.16 754.07,-201.84"/>
<polygon fill="#63b8ff" stroke="#63b8ff" points="756.25,-199.09 746.47,-195.01 751.57,-204.3 756.25,-199.09"/>
</g>
<!-- Node24&#45;&gt;Node32 -->
<g id="edge38" class="edge">
<title>Node24&#45;&gt;Node32</title>
<path fill="none" stroke="#63b8ff" d="M1067.53,-296.95C1097.78,-285.63 1139.88,-269.88 1168.66,-259.1"/>
<polygon fill="#63b8ff" stroke="#63b8ff" points="1170.1,-262.3 1178.24,-255.52 1167.65,-255.74 1170.1,-262.3"/>
</g>
<!-- Node27 -->
<g id="node27" class="node">
<title>Node27</title>
<g id="a_node27"><a xlink:href="byte__vector_8h.html" target="_top" xlink:title=" ">
<polygon fill="white" stroke="#666666" points="781,-129 681,-129 681,-110 781,-110 781,-129"/>
<text text-anchor="middle" x="731" y="-117" font-family="Helvetica,sans-Serif" font-size="10.00">ccf/byte_vector.h</text>
</a>
</g>
</g>
<!-- Node26&#45;&gt;Node27 -->
<g id="edge31" class="edge">
<title>Node26&#45;&gt;Node27</title>
<path fill="none" stroke="#63b8ff" d="M731,-164.84C731,-157.21 731,-147.7 731,-139.45"/>
<polygon fill="#63b8ff" stroke="#63b8ff" points="734.5,-139.27 731,-129.27 727.5,-139.27 734.5,-139.27"/>
</g>
<!-- Node27&#45;&gt;Node14 -->
<g id="edge36" class="edge">
<title>Node27&#45;&gt;Node14</title>
<path fill="none" stroke="#63b8ff" d="M680.75,-114.32C561.55,-104.4 262.78,-79.54 143.91,-69.65"/>
<polygon fill="#63b8ff" stroke="#63b8ff" points="143.91,-66.14 133.65,-68.8 143.33,-73.12 143.91,-66.14"/>
</g>
<!-- Node28 -->
<g id="node28" class="node">
<title>Node28</title>
<g id="a_node28"><a xlink:href="siphash_8h.html" target="_top" xlink:title=" ">
<polygon fill="white" stroke="#666666" points="1363.5,-74 1268.5,-74 1268.5,-55 1363.5,-55 1363.5,-74"/>
<text text-anchor="middle" x="1316" y="-62" font-family="Helvetica,sans-Serif" font-size="10.00">ccf/ds/siphash.h</text>
</a>
</g>
</g>
<!-- Node27&#45;&gt;Node28 -->
<g id="edge32" class="edge">
<title>Node27&#45;&gt;Node28</title>
<path fill="none" stroke="#63b8ff" d="M781.1,-112.8C790.05,-111.83 799.3,-110.86 808,-110 971.04,-93.86 1163.83,-77.8 1258.16,-70.14"/>
<polygon fill="#63b8ff" stroke="#63b8ff" points="1258.66,-73.61 1268.34,-69.31 1258.09,-66.63 1258.66,-73.61"/>
</g>
<!-- Node31 -->
<g id="node31" class="node">
<title>Node31</title>
<g id="a_node31"><a xlink:title=" ">
<polygon fill="#e0e0e0" stroke="#999999" points="805.5,-74 656.5,-74 656.5,-55 805.5,-55 805.5,-74"/>
<text text-anchor="middle" x="731" y="-62" font-family="Helvetica,sans-Serif" font-size="10.00">small_vector/SmallVector.h</text>
</a>
</g>
</g>
<!-- Node27&#45;&gt;Node31 -->
<g id="edge37" class="edge">
<title>Node27&#45;&gt;Node31</title>
<path fill="none" stroke="#63b8ff" d="M731,-109.75C731,-102.8 731,-92.85 731,-84.13"/>
<polygon fill="#63b8ff" stroke="#63b8ff" points="734.5,-84.09 731,-74.09 727.5,-84.09 734.5,-84.09"/>
</g>
<!-- Node28&#45;&gt;Node5 -->
<g id="edge35" class="edge">
<title>Node28&#45;&gt;Node5</title>
<path fill="none" stroke="#63b8ff" d="M1268.31,-56.62C1263.48,-56.03 1258.65,-55.47 1254,-55 1012.31,-30.39 719.84,-16.24 621.83,-11.93"/>
<polygon fill="#63b8ff" stroke="#63b8ff" points="621.79,-8.42 611.64,-11.48 621.48,-15.42 621.79,-8.42"/>
</g>
<!-- Node29 -->
<g id="node29" class="node">
<title>Node29</title>
<g id="a_node29"><a xlink:title=" ">
<polygon fill="#e0e0e0" stroke="#999999" points="1342.5,-19 1289.5,-19 1289.5,0 1342.5,0 1342.5,-19"/>
<text text-anchor="middle" x="1316" y="-7" font-family="Helvetica,sans-Serif" font-size="10.00">cstddef</text>
</a>
</g>
</g>
<!-- Node28&#45;&gt;Node29 -->
<g id="edge33" class="edge">
<title>Node28&#45;&gt;Node29</title>
<path fill="none" stroke="#63b8ff" d="M1316,-54.75C1316,-47.8 1316,-37.85 1316,-29.13"/>
<polygon fill="#63b8ff" stroke="#63b8ff" points="1319.5,-29.09 1316,-19.09 1312.5,-29.09 1319.5,-29.09"/>
</g>
<!-- Node30 -->
<g id="node30" class="node">
<title>Node30</title>
<g id="a_node30"><a xlink:title=" ">
<polygon fill="#e0e0e0" stroke="#999999" points="1414,-19 1364,-19 1364,0 1414,0 1414,-19"/>
<text text-anchor="middle" x="1389" y="-7" font-family="Helvetica,sans-Serif" font-size="10.00">cstdint</text>
</a>
</g>
</g>
<!-- Node28&#45;&gt;Node30 -->
<g id="edge34" class="edge">
<title>Node28&#45;&gt;Node30</title>
<path fill="none" stroke="#63b8ff" d="M1327.73,-54.98C1338.73,-47 1355.42,-34.88 1368.6,-25.31"/>
<polygon fill="#63b8ff" stroke="#63b8ff" points="1371.02,-27.88 1377.06,-19.17 1366.91,-22.21 1371.02,-27.88"/>
</g>
<!-- Node32&#45;&gt;Node13 -->
<g id="edge42" class="edge">
<title>Node32&#45;&gt;Node13</title>
<path fill="none" stroke="#63b8ff" d="M1187.11,-236.37C1170.06,-225.78 1140.93,-207.67 1120.63,-195.06"/>
<polygon fill="#63b8ff" stroke="#63b8ff" points="1122.34,-192 1112,-189.7 1118.65,-197.95 1122.34,-192"/>
</g>
<!-- Node32&#45;&gt;Node19 -->
<g id="edge39" class="edge">
<title>Node32&#45;&gt;Node19</title>
<path fill="none" stroke="#63b8ff" d="M1211.92,-236.37C1224.97,-226.06 1247.01,-208.65 1262.9,-196.09"/>
<polygon fill="#63b8ff" stroke="#63b8ff" points="1265.31,-198.64 1270.99,-189.7 1260.97,-193.15 1265.31,-198.64"/>
</g>
<!-- Node32&#45;&gt;Node26 -->
<g id="edge40" class="edge">
<title>Node32&#45;&gt;Node26</title>
<path fill="none" stroke="#63b8ff" d="M1151.59,-238.27C1065.52,-226.55 888.26,-202.41 793.68,-189.53"/>
<polygon fill="#63b8ff" stroke="#63b8ff" points="794.06,-186.05 783.68,-188.17 793.11,-192.99 794.06,-186.05"/>
</g>
<!-- Node33 -->
<g id="node33" class="node">
<title>Node33</title>
<g id="a_node33"><a xlink:title=" ">
<polygon fill="#e0e0e0" stroke="#999999" points="1220,-189.5 1182,-189.5 1182,-170.5 1220,-170.5 1220,-189.5"/>
<text text-anchor="middle" x="1201" y="-177.5" font-family="Helvetica,sans-Serif" font-size="10.00">map</text>
</a>
</g>
</g>
<!-- Node32&#45;&gt;Node33 -->
<g id="edge41" class="edge">
<title>Node32&#45;&gt;Node33</title>
<path fill="none" stroke="#63b8ff" d="M1201,-236.37C1201,-227.16 1201,-212.29 1201,-200.27"/>
<polygon fill="#63b8ff" stroke="#63b8ff" points="1204.5,-199.91 1201,-189.91 1197.5,-199.91 1204.5,-199.91"/>
</g>
<!-- Node35 -->
<g id="node35" class="node">
<title>Node35</title>
<g id="a_node35"><a xlink:href="untyped__map__handle_8h.html" target="_top" xlink:title=" ">
<polygon fill="white" stroke="#666666" points="982,-261 866,-261 866,-231 982,-231 982,-261"/>
<text text-anchor="start" x="874" y="-249" font-family="Helvetica,sans-Serif" font-size="10.00">ccf/kv/untyped_map</text>
<text text-anchor="middle" x="924" y="-238" font-family="Helvetica,sans-Serif" font-size="10.00">_handle.h</text>
</a>
</g>
</g>
<!-- Node34&#45;&gt;Node35 -->
<g id="edge48" class="edge">
<title>Node34&#45;&gt;Node35</title>
<path fill="none" stroke="#63b8ff" d="M924.93,-362.94C924.78,-344.32 924.42,-299.53 924.2,-271.39"/>
<polygon fill="#63b8ff" stroke="#63b8ff" points="927.69,-271.13 924.11,-261.16 920.69,-271.19 927.69,-271.13"/>
</g>
<!-- Node35&#45;&gt;Node4 -->
<g id="edge54" class="edge">
<title>Node35&#45;&gt;Node4</title>
<path fill="none" stroke="#63b8ff" d="M865.82,-237.5C813.51,-229.84 734.97,-216.05 669,-195 667.56,-194.54 666.09,-194.03 664.63,-193.49"/>
<polygon fill="#63b8ff" stroke="#63b8ff" points="665.68,-190.14 655.1,-189.57 663.02,-196.61 665.68,-190.14"/>
</g>
<!-- Node35&#45;&gt;Node13 -->
<g id="edge53" class="edge">
<title>Node35&#45;&gt;Node13</title>
<path fill="none" stroke="#63b8ff" d="M963.02,-230.9C990.46,-220.95 1028.01,-207.26 1061,-195 1062.59,-194.41 1064.22,-193.8 1065.87,-193.18"/>
<polygon fill="#63b8ff" stroke="#63b8ff" points="1067.19,-196.43 1075.32,-189.63 1064.73,-189.87 1067.19,-196.43"/>
</g>
<!-- Node35&#45;&gt;Node20 -->
<g id="edge51" class="edge">
<title>Node35&#45;&gt;Node20</title>
<path fill="none" stroke="#63b8ff" d="M914.65,-230.86C904.39,-213.41 891.34,-183.74 907,-165 930.71,-136.64 1031.49,-126.32 1096.77,-122.59"/>
<polygon fill="#63b8ff" stroke="#63b8ff" points="1097.12,-126.08 1106.92,-122.05 1096.75,-119.09 1097.12,-126.08"/>
</g>
<!-- Node35&#45;&gt;Node21 -->
<g id="edge52" class="edge">
<title>Node35&#45;&gt;Node21</title>
<path fill="none" stroke="#63b8ff" d="M906.12,-230.9C895.48,-221.69 882.45,-208.83 874,-195 863.4,-177.65 856.99,-155.12 853.49,-139.4"/>
<polygon fill="#63b8ff" stroke="#63b8ff" points="856.87,-138.43 851.45,-129.33 850.01,-139.82 856.87,-138.43"/>
</g>
<!-- Node35&#45;&gt;Node25 -->
<g id="edge49" class="edge">
<title>Node35&#45;&gt;Node25</title>
<path fill="none" stroke="#63b8ff" d="M937.32,-230.8C946.58,-220.92 958.95,-207.72 968.63,-197.39"/>
<polygon fill="#63b8ff" stroke="#63b8ff" points="971.42,-199.53 975.71,-189.84 966.32,-194.75 971.42,-199.53"/>
</g>
<!-- Node35&#45;&gt;Node26 -->
<g id="edge50" class="edge">
<title>Node35&#45;&gt;Node26</title>
<path fill="none" stroke="#63b8ff" d="M881.65,-230.95C852.61,-221.33 813.9,-208.49 782.99,-198.24"/>
<polygon fill="#63b8ff" stroke="#63b8ff" points="783.85,-194.84 773.26,-195.01 781.65,-201.48 783.85,-194.84"/>
</g>
<!-- Node36&#45;&gt;Node7 -->
<g id="edge56" class="edge">
<title>Node36&#45;&gt;Node7</title>
<path fill="none" stroke="#63b8ff" d="M672.15,-302.34C619.86,-293.03 535.36,-277.35 463,-261 458.91,-260.08 454.66,-259.06 450.41,-258.02"/>
<polygon fill="#63b8ff" stroke="#63b8ff" points="451.17,-254.6 440.61,-255.55 449.46,-261.39 451.17,-254.6"/>
</g>
<!-- Node36&#45;&gt;Node26 -->
<g id="edge57" class="edge">
<title>Node36&#45;&gt;Node26</title>
<path fill="none" stroke="#63b8ff" d="M722.98,-296.84C724.5,-274.86 727.45,-232.27 729.32,-205.3"/>
<polygon fill="#63b8ff" stroke="#63b8ff" points="732.82,-205.36 730.02,-195.14 725.84,-204.88 732.82,-205.36"/>
</g>
<!-- Node37&#45;&gt;Node15 -->
<g id="edge60" class="edge">
<title>Node37&#45;&gt;Node15</title>
<path fill="none" stroke="#63b8ff" d="M789.46,-299.1C786.26,-298.38 783.09,-297.67 780,-297 712.32,-282.29 634.06,-267.1 582.71,-257.38"/>
<polygon fill="#63b8ff" stroke="#63b8ff" points="583.29,-253.93 572.81,-255.51 581.99,-260.81 583.29,-253.93"/>
</g>
<!-- Node37&#45;&gt;Node26 -->
<g id="edge59" class="edge">
<title>Node37&#45;&gt;Node26</title>
<path fill="none" stroke="#63b8ff" d="M822.36,-296.95C811.45,-287.36 797.19,-274.06 786,-261 770.46,-242.86 755.26,-220.28 744.8,-203.74"/>
<polygon fill="#63b8ff" stroke="#63b8ff" points="747.76,-201.87 739.5,-195.24 741.82,-205.58 747.76,-201.87"/>
</g>
<!-- Node38&#45;&gt;Node4 -->
<g id="edge67" class="edge">
<title>Node38&#45;&gt;Node4</title>
<path fill="none" stroke="#63b8ff" d="M1306.14,-237.42C1291.22,-235.06 1274.42,-232.65 1259,-231 997.79,-203 924.02,-258.1 669,-195 667.27,-194.57 665.51,-194.05 663.76,-193.46"/>
<polygon fill="#63b8ff" stroke="#63b8ff" points="664.6,-190.02 654.01,-189.56 662,-196.52 664.6,-190.02"/>
</g>
<!-- Node38&#45;&gt;Node5 -->
<g id="edge68" class="edge">
<title>Node38&#45;&gt;Node5</title>
<path fill="none" stroke="#63b8ff" d="M1351.15,-236.36C1353.85,-212.13 1357.73,-143.08 1320,-110 1214.12,-17.17 751.35,-10.38 621.81,-10.33"/>
<polygon fill="#63b8ff" stroke="#63b8ff" points="621.68,-6.83 611.69,-10.34 621.69,-13.83 621.68,-6.83"/>
</g>
<!-- Node38&#45;&gt;Node30 -->
<g id="edge64" class="edge">
<title>Node38&#45;&gt;Node30</title>
<path fill="none" stroke="#63b8ff" d="M1353.82,-236.34C1357.98,-226.51 1364.52,-209.91 1368,-195 1381.9,-135.47 1386.73,-62.89 1388.3,-29.26"/>
<polygon fill="#63b8ff" stroke="#63b8ff" points="1391.81,-29.22 1388.73,-19.08 1384.81,-28.92 1391.81,-29.22"/>
</g>
<!-- Node38&#45;&gt;Node39 -->
<g id="edge65" class="edge">
<title>Node38&#45;&gt;Node39</title>
<path fill="none" stroke="#63b8ff" d="M1376.36,-236.43C1405.54,-226.81 1453.9,-210.53 1495,-195 1496.38,-194.48 1497.79,-193.94 1499.21,-193.38"/>
<polygon fill="#63b8ff" stroke="#63b8ff" points="1500.6,-196.6 1508.58,-189.63 1498,-190.1 1500.6,-196.6"/>
</g>
<!-- Node40 -->
<g id="node40" class="node">
<title>Node40</title>
<g id="a_node40"><a xlink:title=" ">
<polygon fill="#e0e0e0" stroke="#999999" points="1485.5,-189.5 1420.5,-189.5 1420.5,-170.5 1485.5,-170.5 1485.5,-189.5"/>
<text text-anchor="middle" x="1453" y="-177.5" font-family="Helvetica,sans-Serif" font-size="10.00">stdexcept</text>
</a>
</g>
</g>
<!-- Node38&#45;&gt;Node40 -->
<g id="edge66" class="edge">
<title>Node38&#45;&gt;Node40</title>
<path fill="none" stroke="#63b8ff" d="M1363.89,-236.37C1380.94,-225.78 1410.07,-207.67 1430.37,-195.06"/>
<polygon fill="#63b8ff" stroke="#63b8ff" points="1432.35,-197.95 1439,-189.7 1428.66,-192 1432.35,-197.95"/>
</g>
<!-- Node42 -->
<g id="node42" class="node">
<title>Node42</title>
<g id="a_node42"><a xlink:title=" ">
<polygon fill="#e0e0e0" stroke="#999999" points="1456,-382 1402,-382 1402,-363 1456,-363 1456,-382"/>
<text text-anchor="middle" x="1429" y="-370" font-family="Helvetica,sans-Serif" font-size="10.00">random</text>
</a>
</g>
</g>
<!-- Node41&#45;&gt;Node42 -->
<g id="edge70" class="edge">
<title>Node41&#45;&gt;Node42</title>
<path fill="none" stroke="#63b8ff" d="M1429,-417.75C1429,-410.8 1429,-400.85 1429,-392.13"/>
<polygon fill="#63b8ff" stroke="#63b8ff" points="1432.5,-392.09 1429,-382.09 1425.5,-392.09 1432.5,-392.09"/>
</g>
</g>
</svg>
