<?xml version="1.0" encoding="UTF-8" standalone="no"?>
<!DOCTYPE svg PUBLIC "-//W3C//DTD SVG 1.1//EN"
 "http://www.w3.org/Graphics/SVG/1.1/DTD/svg11.dtd">
<!-- Generated by graphviz version 2.43.0 (0)
 -->
<!-- Title: include/ccf/version.h Pages: 1 -->
<svg width="953pt" height="379pt"
 viewBox="0.00 0.00 952.50 379.00" xmlns="http://www.w3.org/2000/svg" xmlns:xlink="http://www.w3.org/1999/xlink">
<g id="graph0" class="graph" transform="scale(1 1) rotate(0) translate(4 375)">
<title>include/ccf/version.h</title>
<!-- Node1 -->
<g id="node1" class="node">
<title>Node1</title>
<g id="a_node1"><a xlink:title=" ">
<polygon fill="#999999" stroke="#666666" points="507,-371 390,-371 390,-352 507,-352 507,-371"/>
<text text-anchor="middle" x="448.5" y="-359" font-family="Helvetica,sans-Serif" font-size="10.00">include/ccf/version.h</text>
</a>
</g>
</g>
<!-- Node2 -->
<g id="node2" class="node">
<title>Node2</title>
<g id="a_node2"><a xlink:href="logging_8cpp.html" target="_top" xlink:title=" ">
<polygon fill="white" stroke="#666666" points="123,-316 0,-316 0,-286 123,-286 123,-316"/>
<text text-anchor="start" x="8" y="-304" font-family="Helvetica,sans-Serif" font-size="10.00">samples/apps/logging</text>
<text text-anchor="middle" x="61.5" y="-293" font-family="Helvetica,sans-Serif" font-size="10.00">/logging.cpp</text>
</a>
</g>
</g>
<!-- Node1&#45;&gt;Node2 -->
<g id="edge1" class="edge">
<title>Node1&#45;&gt;Node2</title>
<path fill="none" stroke="#63b8ff" d="M379.83,-351.93C315.71,-343.67 217.41,-330.34 132.5,-316 129.4,-315.48 126.23,-314.92 123.04,-314.35"/>
<polygon fill="#63b8ff" stroke="#63b8ff" points="379.46,-355.41 389.82,-353.21 380.35,-348.47 379.46,-355.41"/>
</g>
<!-- Node3 -->
<g id="node3" class="node">
<title>Node3</title>
<g id="a_node3"><a xlink:href="js__generic__base_8cpp.html" target="_top" xlink:title=" ">
<polygon fill="white" stroke="#666666" points="259.5,-316 141.5,-316 141.5,-286 259.5,-286 259.5,-316"/>
<text text-anchor="start" x="149.5" y="-304" font-family="Helvetica,sans-Serif" font-size="10.00">src/apps/js_generic</text>
<text text-anchor="middle" x="200.5" y="-293" font-family="Helvetica,sans-Serif" font-size="10.00">/js_generic_base.cpp</text>
</a>
</g>
</g>
<!-- Node1&#45;&gt;Node3 -->
<g id="edge2" class="edge">
<title>Node1&#45;&gt;Node3</title>
<path fill="none" stroke="#63b8ff" d="M402.61,-349.68C362.32,-340.17 303.46,-326.29 259.64,-315.95"/>
<polygon fill="#63b8ff" stroke="#63b8ff" points="401.9,-353.1 412.44,-351.99 403.51,-346.29 401.9,-353.1"/>
</g>
<!-- Node4 -->
<g id="node4" class="node">
<title>Node4</title>
<g id="a_node4"><a xlink:href="enclave_2main_8cpp.html" target="_top" xlink:title=" ">
<polygon fill="white" stroke="#666666" points="578.5,-19 458.5,-19 458.5,0 578.5,0 578.5,-19"/>
<text text-anchor="middle" x="518.5" y="-7" font-family="Helvetica,sans-Serif" font-size="10.00">src/enclave/main.cpp</text>
</a>
</g>
</g>
<!-- Node1&#45;&gt;Node4 -->
<g id="edge3" class="edge">
<title>Node1&#45;&gt;Node4</title>
<path fill="none" stroke="#63b8ff" d="M407.69,-348.65C359.99,-331.99 287.5,-296.7 287.5,-236 287.5,-236 287.5,-236 287.5,-118.5 287.5,-43.02 389.97,-20.17 458.41,-13.33"/>
<polygon fill="#63b8ff" stroke="#63b8ff" points="406.86,-352.06 417.46,-351.92 409.09,-345.43 406.86,-352.06"/>
</g>
<!-- Node5 -->
<g id="node5" class="node">
<title>Node5</title>
<g id="a_node5"><a xlink:href="src_2host_2enclave_8h.html" target="_top" xlink:title=" ">
<polygon fill="white" stroke="#666666" points="461,-310.5 356,-310.5 356,-291.5 461,-291.5 461,-310.5"/>
<text text-anchor="middle" x="408.5" y="-298.5" font-family="Helvetica,sans-Serif" font-size="10.00">src/host/enclave.h</text>
</a>
</g>
</g>
<!-- Node1&#45;&gt;Node5 -->
<g id="edge4" class="edge">
<title>Node1&#45;&gt;Node5</title>
<path fill="none" stroke="#63b8ff" d="M436.74,-343.3C429.41,-332.58 420.28,-319.23 414.43,-310.67"/>
<polygon fill="#63b8ff" stroke="#63b8ff" points="434.06,-345.59 442.6,-351.87 439.84,-341.64 434.06,-345.59"/>
</g>
<!-- Node6 -->
<g id="node6" class="node">
<title>Node6</title>
<g id="a_node6"><a xlink:href="host_2main_8cpp.html" target="_top" xlink:title=" ">
<polygon fill="white" stroke="#666666" points="520,-184 417,-184 417,-165 520,-165 520,-184"/>
<text text-anchor="middle" x="468.5" y="-172" font-family="Helvetica,sans-Serif" font-size="10.00">src/host/main.cpp</text>
</a>
</g>
</g>
<!-- Node1&#45;&gt;Node6 -->
<g id="edge10" class="edge">
<title>Node1&#45;&gt;Node6</title>
<path fill="none" stroke="#63b8ff" d="M459.26,-342.98C470.06,-326.55 488,-302.16 508.5,-286 537.85,-262.86 564.51,-281.58 584.5,-250 591.63,-238.73 592.05,-230.99 584.5,-220 569.96,-198.85 543.87,-187.74 520.11,-181.92"/>
<polygon fill="#63b8ff" stroke="#63b8ff" points="456.18,-341.3 453.76,-351.61 462.09,-345.06 456.18,-341.3"/>
</g>
<!-- Node9 -->
<g id="node9" class="node">
<title>Node9</title>
<g id="a_node9"><a xlink:href="openenclave_8cpp.html" target="_top" xlink:title=" ">
<polygon fill="white" stroke="#666666" points="645.5,-310.5 517.5,-310.5 517.5,-291.5 645.5,-291.5 645.5,-310.5"/>
<text text-anchor="middle" x="581.5" y="-298.5" font-family="Helvetica,sans-Serif" font-size="10.00">src/js/openenclave.cpp</text>
</a>
</g>
</g>
<!-- Node1&#45;&gt;Node9 -->
<g id="edge11" class="edge">
<title>Node1&#45;&gt;Node9</title>
<path fill="none" stroke="#63b8ff" d="M477.07,-347.93C502.75,-336.64 539.77,-320.36 562.14,-310.52"/>
<polygon fill="#63b8ff" stroke="#63b8ff" points="475.58,-344.76 467.84,-351.99 478.4,-351.17 475.58,-344.76"/>
</g>
<!-- Node10 -->
<g id="node10" class="node">
<title>Node10</title>
<g id="a_node10"><a xlink:href="wrap_8cpp.html" target="_top" xlink:title=" ">
<polygon fill="white" stroke="#666666" points="753,-310.5 664,-310.5 664,-291.5 753,-291.5 753,-310.5"/>
<text text-anchor="middle" x="708.5" y="-298.5" font-family="Helvetica,sans-Serif" font-size="10.00">src/js/wrap.cpp</text>
</a>
</g>
</g>
<!-- Node1&#45;&gt;Node10 -->
<g id="edge12" class="edge">
<title>Node1&#45;&gt;Node10</title>
<path fill="none" stroke="#63b8ff" d="M500.37,-349.91C542.11,-341.24 602.21,-328.42 654.5,-316 661.66,-314.3 669.33,-312.37 676.57,-310.51"/>
<polygon fill="#63b8ff" stroke="#63b8ff" points="499.52,-346.51 490.43,-351.97 500.94,-353.36 499.52,-346.51"/>
</g>
<!-- Node11 -->
<g id="node11" class="node">
<title>Node11</title>
<g id="a_node11"><a xlink:href="node__frontend_8h.html" target="_top" xlink:title=" ">
<polygon fill="white" stroke="#666666" points="928.5,-310.5 770.5,-310.5 770.5,-291.5 928.5,-291.5 928.5,-310.5"/>
<text text-anchor="middle" x="849.5" y="-298.5" font-family="Helvetica,sans-Serif" font-size="10.00">src/node/rpc/node_frontend.h</text>
</a>
</g>
</g>
<!-- Node1&#45;&gt;Node11 -->
<g id="edge13" class="edge">
<title>Node1&#45;&gt;Node11</title>
<path fill="none" stroke="#63b8ff" d="M517.21,-351.14C580.86,-342.38 678.14,-328.76 762.5,-316 773.84,-314.28 786.01,-312.37 797.54,-310.52"/>
<polygon fill="#63b8ff" stroke="#63b8ff" points="516.72,-347.67 507.29,-352.5 517.67,-354.61 516.72,-347.67"/>
</g>
<!-- Node5&#45;&gt;Node6 -->
<g id="edge5" class="edge">
<title>Node5&#45;&gt;Node6</title>
<path fill="none" stroke="#63b8ff" d="M383.88,-286.15C359.33,-270.51 327.55,-244.1 344.5,-220 360.89,-196.71 390.66,-185.55 416.93,-180.23"/>
<polygon fill="#63b8ff" stroke="#63b8ff" points="382.13,-289.18 392.49,-291.4 385.77,-283.2 382.13,-289.18"/>
</g>
<!-- Node7 -->
<g id="node7" class="node">
<title>Node7</title>
<g id="a_node7"><a xlink:href="sig__term_8h.html" target="_top" xlink:title=" ">
<polygon fill="white" stroke="#666666" points="463.5,-244.5 353.5,-244.5 353.5,-225.5 463.5,-225.5 463.5,-244.5"/>
<text text-anchor="middle" x="408.5" y="-232.5" font-family="Helvetica,sans-Serif" font-size="10.00">src/host/sig_term.h</text>
</a>
</g>
</g>
<!-- Node5&#45;&gt;Node7 -->
<g id="edge6" class="edge">
<title>Node5&#45;&gt;Node7</title>
<path fill="none" stroke="#63b8ff" d="M408.5,-281.08C408.5,-269.13 408.5,-254.22 408.5,-244.91"/>
<polygon fill="#63b8ff" stroke="#63b8ff" points="405,-281.37 408.5,-291.37 412,-281.37 405,-281.37"/>
</g>
<!-- Node8 -->
<g id="node8" class="node">
<title>Node8</title>
<g id="a_node8"><a xlink:href="ticker_8h.html" target="_top" xlink:title=" ">
<polygon fill="white" stroke="#666666" points="575,-244.5 482,-244.5 482,-225.5 575,-225.5 575,-244.5"/>
<text text-anchor="middle" x="528.5" y="-232.5" font-family="Helvetica,sans-Serif" font-size="10.00">src/host/ticker.h</text>
</a>
</g>
</g>
<!-- Node5&#45;&gt;Node8 -->
<g id="edge8" class="edge">
<title>Node5&#45;&gt;Node8</title>
<path fill="none" stroke="#63b8ff" d="M433.76,-286.53C457.4,-273.92 492,-255.47 512.19,-244.7"/>
<polygon fill="#63b8ff" stroke="#63b8ff" points="431.86,-283.57 424.68,-291.37 435.15,-289.75 431.86,-283.57"/>
</g>
<!-- Node7&#45;&gt;Node6 -->
<g id="edge7" class="edge">
<title>Node7&#45;&gt;Node6</title>
<path fill="none" stroke="#63b8ff" d="M424.82,-218.09C436.02,-207.17 450.47,-193.08 459.61,-184.17"/>
<polygon fill="#63b8ff" stroke="#63b8ff" points="422.07,-215.88 417.35,-225.37 426.96,-220.89 422.07,-215.88"/>
</g>
<!-- Node8&#45;&gt;Node6 -->
<g id="edge9" class="edge">
<title>Node8&#45;&gt;Node6</title>
<path fill="none" stroke="#63b8ff" d="M512.18,-218.09C500.98,-207.17 486.53,-193.08 477.39,-184.17"/>
<polygon fill="#63b8ff" stroke="#63b8ff" points="510.04,-220.89 519.65,-225.37 514.93,-215.88 510.04,-220.89"/>
</g>
<!-- Node12 -->
<g id="node12" class="node">
<title>Node12</title>
<g id="a_node12"><a xlink:href="src_2enclave_2enclave_8h.html" target="_top" xlink:title=" ">
<polygon fill="white" stroke="#666666" points="814.5,-74 692.5,-74 692.5,-55 814.5,-55 814.5,-74"/>
<text text-anchor="middle" x="753.5" y="-62" font-family="Helvetica,sans-Serif" font-size="10.00">src/enclave/enclave.h</text>
</a>
</g>
</g>
<!-- Node11&#45;&gt;Node12 -->
<g id="edge14" class="edge">
<title>Node11&#45;&gt;Node12</title>
<path fill="none" stroke="#63b8ff" d="M820.46,-286.78C805.46,-278.41 788.29,-266.11 778.5,-250 742.75,-191.16 749.18,-102.51 752.35,-74.39"/>
<polygon fill="#63b8ff" stroke="#63b8ff" points="818.95,-289.94 829.43,-291.48 822.2,-283.74 818.95,-289.94"/>
</g>
<!-- Node13 -->
<g id="node13" class="node">
<title>Node13</title>
<g id="a_node13"><a xlink:href="jwt__key__auto__refresh_8h.html" target="_top" xlink:title=" ">
<polygon fill="white" stroke="#666666" points="912,-250 787,-250 787,-220 912,-220 912,-250"/>
<text text-anchor="start" x="795" y="-238" font-family="Helvetica,sans-Serif" font-size="10.00">src/node/jwt_key_auto</text>
<text text-anchor="middle" x="849.5" y="-227" font-family="Helvetica,sans-Serif" font-size="10.00">_refresh.h</text>
</a>
</g>
</g>
<!-- Node11&#45;&gt;Node13 -->
<g id="edge16" class="edge">
<title>Node11&#45;&gt;Node13</title>
<path fill="none" stroke="#63b8ff" d="M849.5,-281.35C849.5,-271.47 849.5,-259.51 849.5,-250.36"/>
<polygon fill="#63b8ff" stroke="#63b8ff" points="846,-281.37 849.5,-291.37 853,-281.37 846,-281.37"/>
</g>
<!-- Node12&#45;&gt;Node4 -->
<g id="edge15" class="edge">
<title>Node12&#45;&gt;Node4</title>
<path fill="none" stroke="#63b8ff" d="M705.85,-52.75C661.81,-42.82 597.23,-28.26 556.55,-19.08"/>
<polygon fill="#63b8ff" stroke="#63b8ff" points="705.22,-56.2 715.74,-54.98 706.76,-49.37 705.22,-56.2"/>
</g>
<!-- Node14 -->
<g id="node14" class="node">
<title>Node14</title>
<g id="a_node14"><a xlink:href="node__state_8h.html" target="_top" xlink:title=" ">
<polygon fill="white" stroke="#666666" points="911.5,-184 787.5,-184 787.5,-165 911.5,-165 911.5,-184"/>
<text text-anchor="middle" x="849.5" y="-172" font-family="Helvetica,sans-Serif" font-size="10.00">src/node/node_state.h</text>
</a>
</g>
</g>
<!-- Node13&#45;&gt;Node14 -->
<g id="edge17" class="edge">
<title>Node13&#45;&gt;Node14</title>
<path fill="none" stroke="#63b8ff" d="M849.5,-209.75C849.5,-200.72 849.5,-191.03 849.5,-184.27"/>
<polygon fill="#63b8ff" stroke="#63b8ff" points="846,-209.84 849.5,-219.84 853,-209.84 846,-209.84"/>
</g>
<!-- Node14&#45;&gt;Node12 -->
<g id="edge18" class="edge">
<title>Node14&#45;&gt;Node12</title>
<path fill="none" stroke="#63b8ff" d="M826.79,-159.09C815.35,-151.12 801.76,-140.51 791.5,-129 776.12,-111.73 763.58,-87.35 757.49,-74.4"/>
<polygon fill="#63b8ff" stroke="#63b8ff" points="825.16,-162.21 835.41,-164.89 829.06,-156.4 825.16,-162.21"/>
</g>
<!-- Node15 -->
<g id="node15" class="node">
<title>Node15</title>
<g id="a_node15"><a xlink:href="gov__effects_8h.html" target="_top" xlink:title=" ">
<polygon fill="white" stroke="#666666" points="944.5,-129 800.5,-129 800.5,-110 944.5,-110 944.5,-129"/>
<text text-anchor="middle" x="872.5" y="-117" font-family="Helvetica,sans-Serif" font-size="10.00">src/node/rpc/gov_effects.h</text>
</a>
</g>
</g>
<!-- Node14&#45;&gt;Node15 -->
<g id="edge19" class="edge">
<title>Node14&#45;&gt;Node15</title>
<path fill="none" stroke="#63b8ff" d="M857.3,-155.53C861.18,-146.6 865.68,-136.22 868.77,-129.09"/>
<polygon fill="#63b8ff" stroke="#63b8ff" points="854.07,-154.18 853.3,-164.75 860.49,-156.97 854.07,-154.18"/>
</g>
<!-- Node15&#45;&gt;Node12 -->
<g id="edge20" class="edge">
<title>Node15&#45;&gt;Node12</title>
<path fill="none" stroke="#63b8ff" d="M844.2,-105.9C822.22,-96.11 792.32,-82.79 772.97,-74.17"/>
<polygon fill="#63b8ff" stroke="#63b8ff" points="842.82,-109.11 853.38,-109.98 845.67,-102.72 842.82,-109.11"/>
</g>
</g>
</svg>
